<svg xmlns="http://www.w3.org/2000/svg" width="14.931" height="13.06" viewBox="0 0 14.931 13.06">
  <path id="aquarius" d="M13.19,5.131l-2.1-2.784L8.22,5.233l-.007.007L8.2,5.248l-.1.088-.015.015-.022.022-.051.051-.073.058a1.119,1.119,0,0,1-.146.058A.819.819,0,0,1,7.49,5.6H7.417a.662.662,0,0,1-.233-.044.864.864,0,0,1-.219-.1A.735.735,0,0,0,6.892,5.4l-.051-.029a.278.278,0,0,1-.051-.037.909.909,0,0,1-.219-.379l-1.3-2.58L1.586,5.335a.9.9,0,0,1-.663.277.88.88,0,0,1-.656-.277A.914.914,0,0,1,0,4.672a.862.862,0,0,1,.277-.649L4.954.262a.951.951,0,0,1,1.311,0,1.055,1.055,0,0,1,.131.2l.015.015L6.426.5q.044.117.058.117L7.723,3.09,10.537.262a.97.97,0,0,1,1.326,0,1.055,1.055,0,0,1,.131.2V.474l.015.007L14.793,4.2a.866.866,0,0,1,.1.707.92.92,0,0,1-.437.569.88.88,0,0,1-.707.095.9.9,0,0,1-.561-.437ZM4.954,7.725a.915.915,0,0,1,1.311,0,1.055,1.055,0,0,1,.131.2H6.4l.007.015.015.015a.573.573,0,0,0,.058.117l1.239,2.478,2.828-2.828a.858.858,0,0,1,.649-.277.9.9,0,0,1,.663.277,1.055,1.055,0,0,1,.131.2l.015.015,2.784,3.7a.88.88,0,0,1,.1.714.894.894,0,0,1-.437.569.922.922,0,0,1-.707.095.866.866,0,0,1-.561-.43l-2.1-2.784L8.22,12.681l-.015.015-.1.088a.024.024,0,0,1-.015.022.1.1,0,0,0-.022.015l-.051.051-.073.058a1.119,1.119,0,0,1-.146.058.819.819,0,0,1-.306.058.24.24,0,0,1-.073.015q-.1-.015-.233-.044a1.6,1.6,0,0,1-.219-.117.351.351,0,0,1-.073-.044.307.307,0,0,0-.051-.037.307.307,0,0,1-.051-.037.8.8,0,0,1-.219-.364l-1.3-2.595L1.587,12.783a.9.9,0,0,1-.663.277.892.892,0,0,1-.656-.27.931.931,0,0,1,.008-1.318Z" transform="translate(0.002)" fill="#222"/>
</svg>
