<svg xmlns="http://www.w3.org/2000/svg" width="14.117" height="14.117" viewBox="0 0 14.117 14.117">
  <path id="aries" d="M13.245,4.411a.843.843,0,0,1-.606-.276.843.843,0,0,1-.276-.606,1.82,1.82,0,0,0-.448-1.268,1.683,1.683,0,0,0-1.316-.5q-.427,0-1.061.71a7.485,7.485,0,0,0-1.11,1.668,3.781,3.781,0,0,0-.476,1.592v7.5a.859.859,0,0,1-.255.62.833.833,0,0,1-.62.262.856.856,0,0,1-.627-.262.846.846,0,0,1-.262-.62v-7.5a3.781,3.781,0,0,0-.476-1.592A7.485,7.485,0,0,0,4.6,2.474q-.634-.71-1.061-.71a1.683,1.683,0,0,0-1.316.5,1.82,1.82,0,0,0-.448,1.268.843.843,0,0,1-.276.606.843.843,0,0,1-.606.276.843.843,0,0,1-.606-.276.843.843,0,0,1-.276-.606A3.506,3.506,0,0,1,.978,1.012,3.375,3.375,0,0,1,3.542,0a1.908,1.908,0,0,1,.944.29,4.391,4.391,0,0,1,.972.779,10.756,10.756,0,0,1,.855,1.006q.386.517.758,1.1.372-.579.758-1.1a10.823,10.823,0,0,1,.855-1.006A4.376,4.376,0,0,1,9.656.289,1.913,1.913,0,0,1,10.6,0a3.377,3.377,0,0,1,2.564,1.013,3.506,3.506,0,0,1,.965,2.516.843.843,0,0,1-.276.606.843.843,0,0,1-.606.276Z" transform="translate(-0.013 0.001)" fill="#222"/>
</svg>
