<svg xmlns="http://www.w3.org/2000/svg" width="15" height="15" viewBox="0 0 15 15">
  <path id="cancer" d="M7.969,14.063a5.218,5.218,0,0,0,.469-2.344,9.744,9.744,0,0,0,2.366-1.9,8.765,8.765,0,0,0,1.6-2.512A3.709,3.709,0,0,1,8.6,6.4,3.615,3.615,0,0,1,7.5,3.75,3.611,3.611,0,0,1,8.6,1.1a3.748,3.748,0,0,1,5.3,0A3.611,3.611,0,0,1,15,3.75a10.415,10.415,0,0,1-.417,2.908,11.285,11.285,0,0,1-1.12,2.629,13.5,13.5,0,0,1-1.6,2.183,9.945,9.945,0,0,1-1.9,1.655A7.213,7.213,0,0,1,7.969,14.063ZM11.25,1.875a1.807,1.807,0,0,0-1.326.549A1.8,1.8,0,0,0,9.375,3.75a1.809,1.809,0,0,0,.549,1.326,1.875,1.875,0,0,0,2.652,0,1.809,1.809,0,0,0,.549-1.326,1.8,1.8,0,0,0-.549-1.326A1.807,1.807,0,0,0,11.25,1.875ZM2.593,7.69A3.55,3.55,0,0,1,3.75,7.5,3.612,3.612,0,0,1,6.4,8.6a3.748,3.748,0,0,1,0,5.3A3.614,3.614,0,0,1,3.75,15,3.614,3.614,0,0,1,1.1,13.9,3.611,3.611,0,0,1,0,11.25,10.415,10.415,0,0,1,.417,8.342a11.285,11.285,0,0,1,1.12-2.629,13.5,13.5,0,0,1,1.6-2.183,9.946,9.946,0,0,1,1.9-1.655A7.213,7.213,0,0,1,7.031.938a5.218,5.218,0,0,0-.469,2.344A9.744,9.744,0,0,0,4.2,5.178,8.765,8.765,0,0,0,2.593,7.69Zm-.718,3.56a1.807,1.807,0,0,0,.549,1.326,1.8,1.8,0,0,0,1.326.549,1.809,1.809,0,0,0,1.326-.549,1.875,1.875,0,0,0,0-2.652A1.809,1.809,0,0,0,3.75,9.375a1.8,1.8,0,0,0-1.326.549A1.807,1.807,0,0,0,1.875,11.25Z" fill="#222"/>
</svg>
