<svg xmlns="http://www.w3.org/2000/svg" width="12.458" height="12.459" viewBox="0 0 12.458 12.459">
  <path id="capricorn" d="M9.749,11.68A2.726,2.726,0,0,1,7.8,10.889a3.65,3.65,0,0,1-3.115,1.57.789.789,0,0,1-.778-.785.735.735,0,0,1,.231-.547.76.76,0,0,1,.547-.225q.256,0,.4-.006a3.06,3.06,0,0,0,.377-.048,1.185,1.185,0,0,0,.4-.14,4,4,0,0,0,.377-.262,1.857,1.857,0,0,0,.4-.444,6.76,6.76,0,0,0,.383-.657L6.354,1.91A6.286,6.286,0,0,0,5.168,4.635a16.54,16.54,0,0,0-.48,3.93.758.758,0,0,1-.225.547.736.736,0,0,1-.547.231.756.756,0,0,1-.554-.231.746.746,0,0,1-.231-.547,16.8,16.8,0,0,0-.31-3.182,10.75,10.75,0,0,0-.858-2.719Q1.415,1.558.794,1.558a.748.748,0,0,1-.547-.231A.755.755,0,0,1,.016.773.735.735,0,0,1,.247.226.76.76,0,0,1,.794,0,1.762,1.762,0,0,1,2.005.584,5.617,5.617,0,0,1,3.07,2.069a14.071,14.071,0,0,1,.839,2.056A11.851,11.851,0,0,1,5.12,1.436,3.015,3.015,0,0,1,6.6.073.671.671,0,0,1,6.9,0a.1.1,0,0,1,.03.006q.018.006.024,0A.047.047,0,0,1,6.987,0h.036V.012A.872.872,0,0,1,7.8.779L8.35,6.765a2.246,2.246,0,0,1,1.4-.535,2.72,2.72,0,0,1,2.725,2.725A2.72,2.72,0,0,1,9.749,11.68Zm0-3.893a1.007,1.007,0,0,0-.809.5,1.6,1.6,0,0,0-.359.9.832.832,0,0,0,.347.651,1.251,1.251,0,0,0,.821.286,1.168,1.168,0,1,0,0-2.336Z" transform="translate(-0.016)" fill="#222"/>
</svg>
