<svg xmlns="http://www.w3.org/2000/svg" width="12.835" height="13.691" viewBox="0 0 12.835 13.691">
  <path id="leo" d="M11.552,13.691a2.606,2.606,0,0,1-2.119-1.13A4.311,4.311,0,0,1,8.557,9.84q0-.147.013-.381a7.527,7.527,0,0,1,.12-.809A3.62,3.62,0,0,1,8.984,7.7a4.762,4.762,0,0,0,.428-2.139V4.706a2.886,2.886,0,0,0-.876-2.119,2.888,2.888,0,0,0-2.119-.876A2.885,2.885,0,0,0,4.3,2.587a2.885,2.885,0,0,0-.876,2.119,2.9,2.9,0,0,0,.3,1.3,3.032,3.032,0,0,0,.836,1.036A3.4,3.4,0,0,1,6.21,8.283a3.421,3.421,0,0,1-.368,4.405,3.3,3.3,0,0,1-2.42,1,3.3,3.3,0,0,1-2.42-1A3.414,3.414,0,0,1,.648,8.269,3.364,3.364,0,0,1,2.326,7.033a4.635,4.635,0,0,1-.615-2.326A4.683,4.683,0,0,1,6.418,0a4.683,4.683,0,0,1,4.706,4.706V5.99A5.063,5.063,0,0,1,10.7,7.52a5.18,5.18,0,0,0-.428,1.464V9.84a2.9,2.9,0,0,0,.374,1.511,1.07,1.07,0,0,0,.909.628,2.107,2.107,0,0,0,1.284-.588V13.4a3.251,3.251,0,0,1-1.284.294Zm-9.84-3.423a1.65,1.65,0,0,0,.5,1.21,1.647,1.647,0,0,0,1.21.5,1.651,1.651,0,0,0,1.21-.5,1.711,1.711,0,0,0,0-2.42,1.651,1.651,0,0,0-1.21-.5,1.647,1.647,0,0,0-1.21.5A1.65,1.65,0,0,0,1.711,10.268Z" fill="#222"/>
</svg>
