<svg xmlns="http://www.w3.org/2000/svg" width="15" height="15" viewBox="0 0 15 15">
  <path id="libra" d="M14.062,11.25H9.375a.9.9,0,0,1-.667-.278.92.92,0,0,1-.271-.667.925.925,0,0,1,.938-.93q.22,0,.681-.732a10.147,10.147,0,0,0,.828-1.648,4.173,4.173,0,0,0,.366-1.37,3.612,3.612,0,0,0-1.1-2.651A3.615,3.615,0,0,0,7.5,1.875a3.611,3.611,0,0,0-2.651,1.1,3.614,3.614,0,0,0-1.1,2.651,4.159,4.159,0,0,0,.366,1.37,10.192,10.192,0,0,0,.827,1.648q.461.732.681.732a.907.907,0,0,1,.667.271.9.9,0,0,1,.271.659.924.924,0,0,1-.271.667.893.893,0,0,1-.667.278H.937a.9.9,0,0,1-.667-.278A.92.92,0,0,1,0,10.305a.9.9,0,0,1,.271-.659.905.905,0,0,1,.667-.271H3.15a8.928,8.928,0,0,1-.923-1.919,5.723,5.723,0,0,1-.352-1.831A5.509,5.509,0,0,1,2.63,2.8,5.582,5.582,0,0,1,4.68.754a5.647,5.647,0,0,1,5.64,0,5.582,5.582,0,0,1,2.051,2.051,5.509,5.509,0,0,1,.754,2.82,5.726,5.726,0,0,1-.352,1.831,8.916,8.916,0,0,1-.923,1.919h2.212a.907.907,0,0,1,.667.271.9.9,0,0,1,.271.659.924.924,0,0,1-.271.667A.893.893,0,0,1,14.062,11.25ZM.937,13.125H14.062a.907.907,0,0,1,.667.271.9.9,0,0,1,.271.659.924.924,0,0,1-.271.667.893.893,0,0,1-.667.278H.937a.9.9,0,0,1-.667-.278A.92.92,0,0,1,0,14.055.9.9,0,0,1,.271,13.4.905.905,0,0,1,.937,13.125Z" fill="#222"/>
</svg>
