<svg xmlns="http://www.w3.org/2000/svg" width="12.458" height="12.459" viewBox="0 0 12.458 12.459">
  <path id="pisces" d="M11.7,1.558Q9.361,2.13,9.361,6.231T11.7,10.9a.758.758,0,0,1,.547.225.736.736,0,0,1,.231.547.756.756,0,0,1-.231.554.746.746,0,0,1-.547.231,3.9,3.9,0,0,1-2.026-.973,4.951,4.951,0,0,1-1.3-1.91,8.988,8.988,0,0,1-.547-2.567H4.664a8.991,8.991,0,0,1-.547,2.567,4.948,4.948,0,0,1-1.3,1.91A3.908,3.908,0,0,1,.8,12.46a.748.748,0,0,1-.547-.231.755.755,0,0,1-.231-.554.735.735,0,0,1,.231-.547A.76.76,0,0,1,.8,10.9q2.336-.572,2.336-4.672T.8,1.558a.748.748,0,0,1-.547-.231A.755.755,0,0,1,.017.774.735.735,0,0,1,.248.226.76.76,0,0,1,.8,0,3.9,3.9,0,0,1,2.821.974a4.951,4.951,0,0,1,1.3,1.91,8.988,8.988,0,0,1,.547,2.567H7.828a8.991,8.991,0,0,1,.547-2.567,4.948,4.948,0,0,1,1.3-1.91A3.908,3.908,0,0,1,11.7,0a.758.758,0,0,1,.547.225.743.743,0,0,1,.231.554.753.753,0,0,1-.225.554.752.752,0,0,1-.554.225Z" transform="translate(-0.017 -0.001)"/>
</svg>
