<svg xmlns="http://www.w3.org/2000/svg" width="15" height="14.985" viewBox="0 0 15 14.985">
  <path id="sagittarius" d="M14.07,8.438a.95.95,0,0,1-.945-.937V3.193L6.958,9.375,9.1,11.514a.943.943,0,1,1-1.333,1.333L5.61,10.708l-4,4a.909.909,0,0,1-.667.278.908.908,0,0,1-.666-.278.937.937,0,0,1,0-1.333l4-4L2.153,7.236A.945.945,0,0,1,2.82,5.625a.909.909,0,0,1,.667.278L5.625,8.027l6.152-6.153H7.5A.877.877,0,0,1,6.848,1.6.923.923,0,0,1,6.577.93.9.9,0,0,1,6.848.271.888.888,0,0,1,7.5,0h6.563a.907.907,0,0,1,.667.271A.9.9,0,0,1,15,.937V7.5a.913.913,0,0,1-.271.659.885.885,0,0,1-.659.278Z"/>
</svg>
