<svg xmlns="http://www.w3.org/2000/svg" width="15" height="15" viewBox="0 0 15 15">
  <path id="scorpio" d="M14.917,13.375,13.569,14.9a.287.287,0,0,1-.44,0v-.85a6.167,6.167,0,0,1-1.765-.4,3.63,3.63,0,0,1-1.406-.967,2.167,2.167,0,0,1-.578-1.494V3.282a1.409,1.409,0,0,0-2.4-1,1.356,1.356,0,0,0-.41,1v8.906a.926.926,0,0,1-.93.938.922.922,0,0,1-.666-.271.892.892,0,0,1-.278-.666V3.282A1.4,1.4,0,0,0,3.287,1.876,1.4,1.4,0,0,0,1.881,3.282v8.906a.926.926,0,0,1-.93.938.922.922,0,0,1-.666-.271.892.892,0,0,1-.278-.666V.938A.9.9,0,0,1,.284.279.9.9,0,0,1,.943,0a.9.9,0,0,1,.593.212.951.951,0,0,1,.329.535A2.69,2.69,0,0,1,3.756,0,2.686,2.686,0,0,1,5.089.345a2.8,2.8,0,0,1,1,.93A2.927,2.927,0,0,1,7.1.345a2.8,2.8,0,0,1,3.267.418,2.725,2.725,0,0,1,.879,1.86,1.359,1.359,0,0,1,.015.191V10.2a1.938,1.938,0,0,0,.191.879,1.513,1.513,0,0,0,.506.593,2.829,2.829,0,0,0,.593.315,3.664,3.664,0,0,0,.586.161v-.791a.287.287,0,0,1,.44,0l1.348,1.524a.4.4,0,0,1,0,.5Z" transform="translate(-0.006 -0.001)" fill="#222"/>
</svg>
