<svg xmlns="http://www.w3.org/2000/svg" width="15" height="15.001" viewBox="0 0 15 15.001">
  <path id="taurus" d="M14.558,2.813a.449.449,0,0,1-.322-.146.446.446,0,0,1-.146-.322q0-.191-.308-.33a1.522,1.522,0,0,0-.63-.139,1.133,1.133,0,0,0-.454.1,1.367,1.367,0,0,0-.432.315q-.212.22-.388.44a4.284,4.284,0,0,0-.388.608q-.212.388-.359.667t-.352.784q-.205.506-.322.791t-.337.828A4.679,4.679,0,0,1,11.649,8.08a4.705,4.705,0,0,1-.066,4.585,4.7,4.7,0,0,1-1.706,1.707,4.7,4.7,0,0,1-4.7,0,4.686,4.686,0,0,1-1.707-1.707A4.705,4.705,0,0,1,3.4,8.08,4.679,4.679,0,0,1,4.933,6.4q-.22-.542-.337-.828t-.322-.791Q4.068,4.278,3.922,4t-.359-.667a4.252,4.252,0,0,0-.388-.608Q3,2.506,2.787,2.286a1.358,1.358,0,0,0-.432-.315,1.142,1.142,0,0,0-.454-.1,1.511,1.511,0,0,0-.63.139q-.307.139-.308.33a.449.449,0,0,1-.146.322.446.446,0,0,1-.322.146.45.45,0,0,1-.322-.146.447.447,0,0,1-.146-.322A2.807,2.807,0,0,1,.5.66,1.616,1.616,0,0,1,1.9,0,2.4,2.4,0,0,1,2.947.243a3.861,3.861,0,0,1,.9.593,5.005,5.005,0,0,1,.776.9,11.041,11.041,0,0,1,.637,1.026,12.012,12.012,0,0,1,.52,1.113q.263.637.4,1.011t.293.857a4.806,4.806,0,0,1,2.11,0q.161-.483.293-.857t.4-1.011a12.228,12.228,0,0,1,.52-1.113,10.852,10.852,0,0,1,.637-1.026,5.047,5.047,0,0,1,.776-.9,3.832,3.832,0,0,1,.9-.593A2.407,2.407,0,0,1,13.15,0a1.616,1.616,0,0,1,1.4.659,2.807,2.807,0,0,1,.476,1.685.449.449,0,0,1-.146.322.446.446,0,0,1-.322.146Zm-9.845,7.5a2.7,2.7,0,0,0,.828,1.993,2.728,2.728,0,0,0,1.993.82,2.8,2.8,0,0,0,2.805-2.813A2.8,2.8,0,0,0,7.533,7.5a2.73,2.73,0,0,0-1.993.82,2.7,2.7,0,0,0-.828,1.993Z" transform="translate(-0.025 -0.001)" fill="#222"/>
</svg>
