<svg xmlns="http://www.w3.org/2000/svg" width="12.965" height="12.958" viewBox="0 0 12.965 12.958">
  <path id="virgo" d="M11.65,9.85a4.974,4.974,0,0,1-.95,1.355l.228.266a.774.774,0,0,1,.38.481.737.737,0,0,1-.082.6.8.8,0,0,1-.5.373.83.83,0,0,1-.633-.076,7.2,7.2,0,0,1-.684-.633,5.215,5.215,0,0,1-1.184.551,3.345,3.345,0,0,1-.93.183.8.8,0,0,1-.81-.8.8.8,0,0,1,.234-.576.771.771,0,0,1,.576-.24,2.6,2.6,0,0,0,1.177-.354,2.834,2.834,0,0,1-.367-1.317V2.823a1.147,1.147,0,0,0-.361-.848,1.186,1.186,0,0,0-.861-.354,1.21,1.21,0,0,0-1.209,1.2v7.7a.773.773,0,0,1-.24.576.8.8,0,0,1-.576.234.775.775,0,0,1-.57-.234.785.785,0,0,1-.234-.576v-7.7A1.157,1.157,0,0,0,3.7,1.975a1.172,1.172,0,0,0-.861-.354,1.172,1.172,0,0,0-.861.354,1.157,1.157,0,0,0-.354.848v7.7a.773.773,0,0,1-.24.576.8.8,0,0,1-.576.234.775.775,0,0,1-.57-.234A.789.789,0,0,1,0,10.521V.81A.783.783,0,0,1,.236.234.783.783,0,0,1,.812,0a.78.78,0,0,1,.513.183.822.822,0,0,1,.285.462A2.325,2.325,0,0,1,3.243,0,2.321,2.321,0,0,1,4.395.3a2.419,2.419,0,0,1,.861.8A2.4,2.4,0,0,1,6.123.3,2.382,2.382,0,0,1,7.294,0a2.328,2.328,0,0,1,1.45.487A2.333,2.333,0,0,1,9.6,1.735a1.942,1.942,0,0,1,1.329-.519,1.915,1.915,0,0,1,1.406.583,2.07,2.07,0,0,1,.62,1.418v.013q0,.038.006.411t.006.62q0,.247-.025.747t-.07.893q-.044.393-.146.95t-.234,1.019a10.151,10.151,0,0,1-.348.994,6.739,6.739,0,0,1-.494.988ZM10.523,2.431q-.81,0-.81,1.2V8.8a2.881,2.881,0,0,0,.177.95,5.647,5.647,0,0,0,.671-1.089,10.356,10.356,0,0,0,.772-2.849V3.634q0-1.2-.81-1.2Z" transform="translate(-0.002)" fill="#222"/>
</svg>
