<svg width="159" height="111" viewBox="0 0 159 111" fill="none" xmlns="http://www.w3.org/2000/svg">
<path opacity="0.53" d="M79.2891 111C109.941 111 134.789 86.1518 134.789 55.5C134.789 24.8482 109.941 0 79.2891 0C48.6373 0 23.7891 24.8482 23.7891 55.5C23.7891 86.1518 48.6373 111 79.2891 111Z" fill="#C0EBEC"/>
<path d="M15.2891 91.228C26.0891 59.471 34.0241 50.209 42.6251 66.749C51.2261 83.289 65.7811 104.46 69.7511 85.274C73.7211 66.088 64.7571 -0.945016 86.5901 24.857C108.423 50.659 90.8261 111.182 123.329 78.457C131.553 67.492 143.747 55.867 143.747 55.867" stroke="#222222" stroke-dasharray="8 6"/>
<path d="M15.6841 89.394C24.7031 62.866 41.2841 55.155 48.4711 68.972C55.6581 82.789 71.2061 108.433 74.5221 92.405C77.8381 76.377 70.414 15.024 88.652 36.578C106.89 58.132 88.735 106.089 115.886 78.754C122.756 69.594 140.772 54.183 140.772 54.183" stroke="#23CBD8" stroke-dasharray="8 6"/>
<path d="M143.747 18C139.911 18.0525 136.253 19.6241 133.574 22.3703C130.895 25.1165 129.415 28.813 129.458 32.649C129.458 44.127 142.403 55.979 142.958 56.476C143.175 56.6729 143.457 56.782 143.75 56.782C144.043 56.782 144.325 56.6729 144.542 56.476C145.093 55.976 158.042 44.125 158.042 32.647C158.084 28.8103 156.603 25.1134 153.923 22.3675C151.243 19.6216 147.584 18.0509 143.747 18V18ZM143.747 40.624C142.143 40.6524 140.567 40.2027 139.219 39.3321C137.871 38.4615 136.813 37.2095 136.18 35.7356C135.546 34.2617 135.366 32.6325 135.661 31.0556C135.957 29.4787 136.715 28.0255 137.839 26.881C138.964 25.7366 140.403 24.9527 141.975 24.6292C143.546 24.3057 145.178 24.4574 146.663 25.0647C148.148 25.6721 149.419 26.7077 150.313 28.0397C151.207 29.3716 151.685 30.9396 151.685 32.544C151.701 34.6674 150.875 36.7105 149.387 38.2252C147.898 39.7399 145.87 40.6026 143.747 40.624V40.624Z" fill="#23CBD8" stroke="#222222"/>
<path d="M15.2899 53C11.454 53.0525 7.79549 54.6241 5.11679 57.3703C2.4381 60.1165 0.957921 63.813 1.00091 67.649C1.00091 79.127 13.9459 90.979 14.5009 91.476C14.7177 91.6729 15.0001 91.782 15.2929 91.782C15.5858 91.782 15.8681 91.6729 16.0849 91.476C16.6359 90.976 29.5849 79.125 29.5849 67.647C29.6274 63.8103 28.1461 60.1134 25.4662 57.3675C22.7863 54.6216 19.1265 53.0509 15.2899 53V53ZM15.2899 75.624C13.6858 75.6524 12.1096 75.2027 10.762 74.3321C9.41434 73.4615 8.35636 72.2095 7.72277 70.7356C7.08918 69.2617 6.90866 67.6325 7.20422 66.0556C7.49977 64.4787 8.25801 63.0255 9.38235 61.881C10.5067 60.7366 11.9463 59.9527 13.5177 59.6292C15.0891 59.3057 16.7212 59.4574 18.2061 60.0647C19.6911 60.6721 20.9616 61.7077 21.8559 63.0397C22.7503 64.3716 23.2279 65.9396 23.2279 67.544C23.2442 69.6674 22.4176 71.7105 20.9295 73.2252C19.4414 74.7399 17.4132 75.6026 15.2899 75.624V75.624Z" fill="#23CBD8" stroke="#222222"/>
</svg>
