<svg width="19" height="21" viewBox="0 0 19 21" fill="none" xmlns="http://www.w3.org/2000/svg">
<path d="M16.3499 19.819L8.83595 15.635C8.73971 15.5817 8.63024 15.5569 8.52041 15.5636C8.41058 15.5704 8.30496 15.6083 8.21595 15.673L2.46995 19.857C2.3649 19.9364 2.28665 20.046 2.24572 20.1711C2.20478 20.2962 2.20312 20.4309 2.24095 20.557C2.27546 20.6818 2.34944 20.7921 2.45181 20.8714C2.55419 20.9507 2.67947 20.9948 2.80895 20.997H16.0689C16.2053 20.9951 16.3369 20.9469 16.4422 20.8602C16.5474 20.7734 16.62 20.6535 16.648 20.52C16.6804 20.3866 16.669 20.2464 16.6153 20.1201C16.5616 19.9938 16.4685 19.8882 16.3499 19.819V19.819Z" fill="#23CBD8"/>
<path d="M18.985 18.623L17.121 10.256C17.0982 10.1555 17.0511 10.0622 16.9838 9.98407C16.9166 9.90598 16.8313 9.84556 16.7353 9.80807C16.6393 9.77059 16.5356 9.75717 16.4332 9.76901C16.3308 9.78085 16.2329 9.81759 16.148 9.87601L10.087 14.06C9.9982 14.1211 9.92669 14.2042 9.87938 14.3011C9.83208 14.398 9.8106 14.5054 9.81703 14.6131C9.82347 14.7207 9.85761 14.8249 9.91613 14.9154C9.97464 15.006 10.0556 15.0799 10.151 15.13L18.074 19.314C18.1649 19.3623 18.2662 19.3877 18.369 19.388C18.4632 19.3879 18.5562 19.3667 18.6411 19.326C18.7261 19.2853 18.8008 19.2261 18.8599 19.1528C18.919 19.0794 18.9609 18.9937 18.9825 18.9021C19.0042 18.8104 19.005 18.7151 18.985 18.623V18.623Z" fill="#23CBD8"/>
<path d="M15.389 8.88399C15.3487 8.75634 15.2689 8.64483 15.161 8.56555C15.0531 8.48628 14.9229 8.44336 14.789 8.44299H9.04002C8.12036 10.0179 7.03883 11.4926 5.81302 12.843C5.63561 13.0399 5.41882 13.1973 5.1767 13.305C4.93458 13.4127 4.67253 13.4684 4.40752 13.4684C4.14251 13.4684 3.88046 13.4127 3.63834 13.305C3.39621 13.1973 3.17943 13.0399 3.00202 12.843C2.75602 12.571 2.37602 12.135 1.94002 11.595L0.418021 18.431C0.391361 18.5544 0.402378 18.6829 0.449644 18.8C0.496911 18.917 0.578247 19.0172 0.683108 19.0874C0.787969 19.1577 0.911519 19.1948 1.03774 19.194C1.16397 19.1933 1.28704 19.1546 1.39102 19.083L15.145 9.58299C15.2549 9.50768 15.3378 9.39925 15.3817 9.27351C15.4255 9.14778 15.4281 9.01129 15.389 8.88399V8.88399Z" fill="#23CBD8"/>
<path d="M4.407 4.60842e-07C3.24019 -0.000267999 2.12091 0.462307 1.29472 1.28624C0.468538 2.11018 0.00291303 3.22819 0 4.395C0 6.65 3.536 10.645 3.939 11.095C3.99816 11.1606 4.07044 11.213 4.15114 11.2489C4.23184 11.2848 4.31918 11.3033 4.4075 11.3033C4.49582 11.3033 4.58316 11.2848 4.66386 11.2489C4.74456 11.213 4.81684 11.1606 4.876 11.095C5.276 10.647 8.815 6.652 8.815 4.395C8.81209 3.22802 8.34632 2.10986 7.51992 1.28589C6.69352 0.461925 5.57399 -0.000532902 4.407 4.60842e-07V4.60842e-07ZM4.407 6.279C4.03459 6.27801 3.67084 6.16668 3.36167 5.95906C3.05251 5.75145 2.81181 5.45686 2.66998 5.11252C2.52815 4.76818 2.49155 4.38953 2.56481 4.02439C2.63807 3.65926 2.8179 3.32404 3.08158 3.06105C3.34526 2.79807 3.68096 2.61913 4.04629 2.54684C4.41161 2.47455 4.79016 2.51215 5.13413 2.65489C5.47809 2.79764 5.77204 3.03911 5.97883 3.34883C6.18563 3.65854 6.296 4.02259 6.296 4.395C6.2952 4.89529 6.09577 5.37479 5.74154 5.72808C5.38732 6.08137 4.90729 6.27953 4.407 6.279V6.279Z" fill="#23CBD8"/>
</svg>
