<svg xmlns="http://www.w3.org/2000/svg" width="26.089" height="29.963" viewBox="0 0 26.089 29.963">
  <g id="allcohol" transform="translate(-5 -0.99)">
    <g id="Layer_4" data-name="Layer 4" transform="translate(5 0.99)">
      <path id="Path_10837" data-name="Path 10837" d="M28.063,12.592H24.811V10.176l-.024-.1A2.628,2.628,0,0,0,25.966,9.4a2.126,2.126,0,0,0,.169-.188,2.636,2.636,0,0,0,.609-1.628,2.754,2.754,0,0,0-2.774-2.72h-.623a2.19,2.19,0,0,0,.014-.251,3.624,3.624,0,1,0-7.248.01,3.617,3.617,0,0,0-3.383-3.61,3.373,3.373,0,0,0-.541,0c-.106.01-.213.019-.324.039a3.645,3.645,0,0,0-3,3.561,2.189,2.189,0,0,0,.014.251H7.658A2.658,2.658,0,0,0,5,7.455a2.74,2.74,0,0,0,2.421,2.7l0,.024v17.4a1.69,1.69,0,0,0,.242,3.363l16.912.014a1.69,1.69,0,0,0,.242-3.363v-3.4h2.745a2.98,2.98,0,0,0,3.02-2.658l.507-5.8a2.955,2.955,0,0,0-3.02-3.141Zm.5,8.78a1,1,0,0,1-1.01.884H24.811V14.524h3.252a1.015,1.015,0,0,1,.744.314.924.924,0,0,1,.261.734Z" transform="translate(-5 -0.99)" fill="#ffc94e"/>
      <path id="Path_10838" data-name="Path 10838" d="M26.261,33.4a1.7,1.7,0,0,1-1.691,1.691L7.658,35.078a1.69,1.69,0,0,1-.242-3.363v-17.4l0-.024A2.74,2.74,0,0,1,5,11.595,2.658,2.658,0,0,1,7.658,9h.962V24.946a6.765,6.765,0,0,0,6.765,6.765h9.427v.019a1.691,1.691,0,0,1,1.45,1.672Z" transform="translate(-5 -5.13)" fill="#f29c40"/>
      <path id="Path_10839" data-name="Path 10839" d="M22.731,26.45v9.664a1.45,1.45,0,0,1-2.9,0V26.45a1.45,1.45,0,0,1,2.9,0Zm-4.832,0v9.664a1.45,1.45,0,0,1-2.9,0V26.45a1.45,1.45,0,0,1,2.9,0Zm9.664,0v9.664a1.45,1.45,0,0,1-2.9,0V26.45a1.45,1.45,0,0,1,2.9,0Z" transform="translate(-10.168 -13.398)" fill="#f29c40"/>
      <path id="Path_10840" data-name="Path 10840" d="M26.744,7.581a2.636,2.636,0,0,1-.609,1.628,2.126,2.126,0,0,1-.169.188,2.628,2.628,0,0,1-1.179.681,2.582,2.582,0,0,1-.7.1H18.448a.885.885,0,0,0-.884.884,1.612,1.612,0,0,1-.382,1.034,1.388,1.388,0,0,1-.962.493,1.45,1.45,0,0,1-1.556-1.445v4.75a1.5,1.5,0,0,1-1.343,1.527,1.45,1.45,0,0,1-1.556-1.445V14.766a1.208,1.208,0,0,1-2.416,0V11.06a.885.885,0,0,0-.884-.884H7.774a2.819,2.819,0,0,1-.353-.024A2.74,2.74,0,0,1,5,7.455,2.658,2.658,0,0,1,7.658,4.86H8.88a2.19,2.19,0,0,1-.014-.251,3.645,3.645,0,0,1,3-3.561c.111-.019.217-.029.324-.039a3.373,3.373,0,0,1,.541,0,3.617,3.617,0,0,1,3.382,3.61,3.624,3.624,0,0,1,7.248-.01,2.188,2.188,0,0,1-.014.251h.623A2.754,2.754,0,0,1,26.744,7.581Z" transform="translate(-5 -0.99)" fill="#e6e6e6"/>
      <path id="Path_10841" data-name="Path 10841" d="M26.135,9.218a2.126,2.126,0,0,1-.169.188,2.628,2.628,0,0,1-1.179.681,2.582,2.582,0,0,1-.7.1H18.448a.874.874,0,0,0-.884.866,1.612,1.612,0,0,1-.382,1.052,1.388,1.388,0,0,1-.962.493,1.45,1.45,0,0,1-1.556-1.445V15.9a1.5,1.5,0,0,1-1.343,1.527,1.45,1.45,0,0,1-1.556-1.445V14.775a1.208,1.208,0,1,1-2.416,0V11.069a.884.884,0,0,0-.884-.884H7.774a2.819,2.819,0,0,1-.353-.024A2.74,2.74,0,0,1,5,7.464,2.658,2.658,0,0,1,7.658,4.869H8.88a2.19,2.19,0,0,1-.014-.251,2.619,2.619,0,0,1,.606-1.65c1.507-1.839,2.112-1.9,2.718-1.95a3.373,3.373,0,0,1,.541,0V5.353A3.866,3.866,0,0,0,16.6,9.218Z" transform="translate(-5 -0.999)" fill="#b6c1cc"/>
    </g>
  </g>
</svg>
