<svg xmlns="http://www.w3.org/2000/svg" width="29" height="26.568" viewBox="0 0 29 26.568"><defs><style>.a{fill:#884d00;}.b{fill:#aa6100;}.c{fill:#eb9f67;}.d{fill:#f0ac7a;}.e{fill:#eebf00;}.f{fill:#ffd422;}.g{fill:#6dc82a;}.h{fill:#7ed63e;}.i{fill:#ff3501;}.j{fill:#ff5023;}.k{fill:#fff5cc;}</style></defs><g transform="translate(0 -21.472)"><path class="a" d="M54.537,270.2a1.9,1.9,0,0,1-1.9,1.9H30.7a1.9,1.9,0,1,1,0-3.793H52.641a1.895,1.895,0,0,1,1.9,1.9Z" transform="translate(-27.169 -232.85)"/><path class="b" d="M57.2,269.415a1.9,1.9,0,0,1-1.727,1.11H33.525a1.157,1.157,0,1,1,0-2.221H55.469A1.9,1.9,0,0,1,57.2,269.415Z" transform="translate(-29.997 -232.851)"/><path class="c" d="M29,331.873a6.264,6.264,0,0,1-2.96,5.464,13.113,13.113,0,0,1-7.147,1.8H10.107C4.525,339.136,0,336.76,0,331.873a1.625,1.625,0,0,1,.19-.763,1.84,1.84,0,0,1,.421-.529,2.238,2.238,0,0,1,1.476-.535H26.913a2.122,2.122,0,0,1,1.9,1.064A1.626,1.626,0,0,1,29,331.873Z" transform="translate(0 -291.096)"/><path class="d" d="M31.981,331.111a6.272,6.272,0,0,1-2.77,3.81,13.113,13.113,0,0,1-7.147,1.8H13.279c-4.911,0-9-1.838-9.917-5.608a1.839,1.839,0,0,1,.421-.529,2.238,2.238,0,0,1,1.476-.535H30.085A2.122,2.122,0,0,1,31.981,331.111Z" transform="translate(-3.172 -291.097)"/><path class="e" d="M172.067,254.252l-4.906,4.906a2.67,2.67,0,0,1-3.776,0l-4.906-4.906Z" transform="translate(-149.502 -219.595)"/><path class="f" d="M216.576,254.252l-4.906,4.906a2.688,2.688,0,0,1-.394.325,2.648,2.648,0,0,1-1.024-.639l-4.592-4.592Z" transform="translate(-194.011 -219.595)"/><path class="g" d="M37.616,235.22a2.3,2.3,0,0,1-.134.776,1.345,1.345,0,0,1-2.076.84l-.9-.666a1.271,1.271,0,0,0-1.887.448l-.038.061a1.274,1.274,0,0,1-1.821.494l-2.019-1.32a1.206,1.206,0,0,0-1.465.088l-1.618,1.316a1.21,1.21,0,0,1-1.533.041l-1.845-1.368a1.207,1.207,0,0,0-1.519.029l-1.68,1.334a1.207,1.207,0,0,1-1.484.055l-2.175-1.512a1.2,1.2,0,0,0-1.378-.022l-2.029,1.327A2.117,2.117,0,0,1,10,236.325a2.264,2.264,0,0,1-.181-1.789,1.514,1.514,0,0,1,1.368-1.184H36.144a1.52,1.52,0,0,1,1.367,1.181A2.283,2.283,0,0,1,37.616,235.22Z" transform="translate(-9.167 -199.879)"/><path class="h" d="M39.264,234.531c-.009.029-.019.058-.029.088a1.345,1.345,0,0,1-2.076.841l-.9-.666a1.272,1.272,0,0,0-1.887.448l-.038.061a1.274,1.274,0,0,1-1.821.494l-2.019-1.32a1.206,1.206,0,0,0-1.465.088L27.41,235.88a1.21,1.21,0,0,1-1.533.04l-1.845-1.368a1.208,1.208,0,0,0-1.519.029l-1.68,1.335a1.208,1.208,0,0,1-1.484.055l-2.175-1.512a1.2,1.2,0,0,0-1.378-.022l-2.029,1.327a2.116,2.116,0,0,1-2.009-.818,2.11,2.11,0,0,1-.181-.413,1.514,1.514,0,0,1,1.368-1.184H37.9A1.52,1.52,0,0,1,39.264,234.531Z" transform="translate(-10.919 -199.877)"/><path class="i" d="M45.486,180.922a1.9,1.9,0,0,1-1.9,1.94c-3.408,0-12.484-.077-13.853-.031l-.091,0c-1.729.065-2.122.342-2.122,1.264v3.372a.628.628,0,0,1-.628.628.628.628,0,0,0-.628.628v1.469a1.807,1.807,0,0,1-.052.433,1.835,1.835,0,0,1-1.789,1.4h-.047a1.787,1.787,0,0,1-1.787-1.793l.008-2.658a.741.741,0,0,1,.741-.739.741.741,0,0,0,.741-.741v-2a1.235,1.235,0,0,0-1.236-1.236H20.531A1.925,1.925,0,0,1,18.594,181a1.9,1.9,0,0,1,1.9-1.94H43.548A1.925,1.925,0,0,1,45.486,180.922Z" transform="translate(-17.54 -148.662)"/><path class="j" d="M80.834,180.922a1.915,1.915,0,0,1-.073.564c-3.607,0-12.227-.075-13.558-.031-1.806.06-2.214.33-2.214,1.268v.111c-1.729.065-2.122.342-2.122,1.264v3.372a.628.628,0,0,1-.628.628.628.628,0,0,0-.628.628v1.469a1.807,1.807,0,0,1-.052.433,1.787,1.787,0,0,1-1.5-1.77l.008-2.658a.741.741,0,0,1,.741-.739.741.741,0,0,0,.741-.741v-2a1.235,1.235,0,0,0-1.236-1.236H58a1.925,1.925,0,0,1-1.937-1.862,1.9,1.9,0,0,1,.073-.565H78.9A1.925,1.925,0,0,1,80.834,180.922Z" transform="translate(-52.888 -148.662)"/><path class="e" d="M73.087,144.94l-4.206,4.208a3.742,3.742,0,0,1-5.292,0l-4.208-4.208Z" transform="translate(-56.018 -116.474)"/><path class="f" d="M113.01,144.94l-4.206,4.208a3.713,3.713,0,0,1-1.448.9,3.709,3.709,0,0,1-1.447-.9L101.7,144.94Z" transform="translate(-95.941 -116.474)"/><path class="c" d="M29,29.058c0,.031,0,.062,0,.093a1.566,1.566,0,0,1-1.564,1.474H1.566A1.567,1.567,0,0,1,0,29.058,5.422,5.422,0,0,1,2.184,24.7a12.106,12.106,0,0,1,3.849-1.96A30.931,30.931,0,0,1,14.5,21.472S29,21.394,29,29.058Z" transform="translate(0 0)"/><path class="d" d="M82.022,29.058c0,.031,0,.062,0,.093H57.772a1.567,1.567,0,0,1-1.566-1.566,5.422,5.422,0,0,1,2.184-4.353q.317-.257.666-.486a30.931,30.931,0,0,1,8.467-1.272S82.022,21.394,82.022,29.058Z" transform="translate(-53.022 0)"/><g transform="translate(6.612 23.409)"><path class="k" d="M368.757,59.924a.663.663,0,0,1-.964.911c-.251-.266-.714-1.188-.448-1.439S368.505,59.658,368.757,59.924Z" transform="translate(-353.075 -59.12)"/><path class="k" d="M309.1,110.364a.663.663,0,0,1-1.238.475c-.131-.342-.208-1.37.133-1.5S308.967,110.022,309.1,110.364Z" transform="translate(-296.93 -106.283)"/><path class="k" d="M245.623,57.008a.663.663,0,0,1-1.326,0c0-.366.3-1.354.663-1.354S245.623,56.642,245.623,57.008Z" transform="translate(-237.072 -55.654)"/><path class="k" d="M181.621,110.323a.663.663,0,1,1-1.284-.332c.092-.354.626-1.237.98-1.145S181.713,109.968,181.621,110.323Z" transform="translate(-176.715 -105.827)"/><path class="k" d="M117.99,58.579A.663.663,0,0,1,116.8,58c.16-.329.857-1.089,1.187-.93S118.15,58.249,117.99,58.579Z" transform="translate(-116.731 -56.97)"/></g></g></svg>