<svg xmlns="http://www.w3.org/2000/svg" width="33.748" height="37.27" viewBox="0 0 33.748 37.27">
  <g id="chinese" transform="translate(-14.659 -6.873)">
    <circle id="Ellipse_5687" data-name="Ellipse 5687" cx="8.834" cy="8.834" r="8.834" transform="translate(21.062 22.029)" fill="#ffefd2"/>
    <path id="Path_10747" data-name="Path 10747" d="M176.812,243.234a9.442,9.442,0,1,1,9.442-9.442A9.442,9.442,0,0,1,176.812,243.234Zm0-17.667a8.225,8.225,0,1,0,8.225,8.225A8.225,8.225,0,0,0,176.812,225.567Z" transform="translate(-146.916 -202.93)" fill="#fedba6"/>
    <circle id="Ellipse_5688" data-name="Ellipse 5688" cx="6.129" cy="6.129" r="6.129" transform="translate(23.766 24.733)" fill="#ffefd2"/>
    <path id="Path_10748" data-name="Path 10748" d="M207.448,271.165a6.738,6.738,0,1,1,6.738-6.738A6.738,6.738,0,0,1,207.448,271.165Zm0-12.259a5.521,5.521,0,1,0,5.521,5.521A5.521,5.521,0,0,0,207.448,258.907Z" transform="translate(-177.552 -233.565)" fill="#fedba6"/>
    <circle id="Ellipse_5689" data-name="Ellipse 5689" cx="3.425" cy="3.425" r="3.425" transform="translate(26.47 27.437)" fill="#ffefd2"/>
    <path id="Path_10749" data-name="Path 10749" d="M238.084,299.1a4.034,4.034,0,1,1,4.034-4.034A4.034,4.034,0,0,1,238.084,299.1Zm0-6.85a2.817,2.817,0,1,0,2.817,2.817,2.817,2.817,0,0,0-2.817-2.817Z" transform="translate(-208.188 -264.201)" fill="#fedba6"/>
    <circle id="Ellipse_5690" data-name="Ellipse 5690" cx="6.129" cy="6.129" r="6.129" transform="translate(16.556 24.733)" fill="#ffefd2"/>
    <path id="Path_10750" data-name="Path 10750" d="M118.594,271.165a6.738,6.738,0,1,1,6.742-6.739A6.738,6.738,0,0,1,118.594,271.165Zm0-12.259a5.521,5.521,0,1,0,5.525,5.521A5.521,5.521,0,0,0,118.594,258.907Z" transform="translate(-95.909 -233.565)" fill="#fedba6"/>
    <circle id="Ellipse_5691" data-name="Ellipse 5691" cx="3.425" cy="3.425" r="3.425" transform="translate(19.26 27.437)" fill="#ffefd2"/>
    <path id="Path_10751" data-name="Path 10751" d="M149.184,299.1a4.034,4.034,0,1,1,4.034-4.034A4.034,4.034,0,0,1,149.184,299.1Zm0-6.85A2.817,2.817,0,1,0,152,295.064a2.817,2.817,0,0,0-2.817-2.817Z" transform="translate(-126.498 -264.201)" fill="#fedba6"/>
    <path id="Path_10752" data-name="Path 10752" d="M193.929,465.7H181.91l.9-3.425h10.216Z" transform="translate(-160.277 -421.552)" fill="#eaa998"/>
    <path id="Path_10753" data-name="Path 10753" d="M291.413,462.27H288.98l.9,3.425h2.433Z" transform="translate(-258.663 -421.552)" fill="#e49280"/>
    <path id="Path_10754" data-name="Path 10754" d="M108.907,353h0a13.37,13.37,0,0,1-12.968-10.112h0a.517.517,0,0,1,.5-.645h24.93a.517.517,0,0,1,.5.645h0A13.37,13.37,0,0,1,108.907,353Z" transform="translate(-81.265 -311.258)" fill="#e49280"/>
    <path id="Path_10755" data-name="Path 10755" d="M187.327,342.24h-2.088a13.371,13.371,0,0,1-12.81,9.539h0a13.347,13.347,0,0,1-4.729-.863,13.338,13.338,0,0,0,7.162,2.08h0a13.37,13.37,0,0,0,12.968-10.112h0a.517.517,0,0,0-.5-.645Z" transform="translate(-147.219 -311.258)" fill="#dd7f66"/>
    <path id="Path_10757" data-name="Path 10757" d="M169.662,85.293a.608.608,0,0,1-.381-1.083c2.589-2.077,3.83-3.914,3.589-5.313a4.1,4.1,0,0,0-.448-1.173,6.5,6.5,0,0,1-.687-1.9,5.8,5.8,0,0,1,1.4-4.433.609.609,0,0,1,.978.724,4.667,4.667,0,0,0-1.179,3.493,5.351,5.351,0,0,0,.577,1.574,5.147,5.147,0,0,1,.56,1.513c.33,1.913-.987,4.029-4.026,6.468A.605.605,0,0,1,169.662,85.293Z" transform="translate(-148.463 -62.147)" fill="#fedba6"/>
    <path id="Path_10758" data-name="Path 10758" d="M183.6,52.7a.608.608,0,0,1-.149-1.2l25.468-6.489a.608.608,0,0,1,.3,1.179l-25.468,6.489A.6.6,0,0,1,183.6,52.7Z" transform="translate(-161.272 -38.123)" fill="#554e56"/>
    <path id="Path_10759" data-name="Path 10759" d="M252.585,69.455a.608.608,0,0,1-.456-1.011,3.638,3.638,0,0,0,1.148-2.7,2.992,2.992,0,0,0-.767-1.536,4.447,4.447,0,0,1-1.011-1.99c-.243-1.35.324-2.839,1.69-4.432a.61.61,0,1,1,.924.8c-1.115,1.3-1.591,2.452-1.417,3.424a3.319,3.319,0,0,0,.779,1.465,4.109,4.109,0,0,1,1.012,2.147,4.767,4.767,0,0,1-1.447,3.63A.605.605,0,0,1,252.585,69.455Z" transform="translate(-224.172 -49.685)" fill="#fedba6"/>
  </g>
</svg>
