<svg xmlns="http://www.w3.org/2000/svg" width="29.063" height="31.601" viewBox="0 0 29.063 31.601">
  <g id="crepe" transform="translate(-12.715)">
    <path id="Path_10881" data-name="Path 10881" d="M28.683,41.2,41.409,20.743a1.984,1.984,0,0,0-.783-2.933,29,29,0,0,0-26.761,0,1.984,1.984,0,0,0-.783,2.933L25.81,41.2C26.7,42.62,27.8,42.62,28.683,41.2Z" transform="translate(0 -13.088)" fill="#d9a460"/>
    <g id="Group_6318" data-name="Group 6318" transform="translate(14.104 2.239)">
      <path id="Path_10882" data-name="Path 10882" d="M27.493,27.422c1.14,1.14,4.22,2.373,5.36,1.233s-.094-4.22-1.234-5.36a2.918,2.918,0,0,0-4.126,4.126Z" transform="translate(-26.638 -22.442)" fill="#e94f3d"/>
      <path id="Path_10883" data-name="Path 10883" d="M39.27,35.073a1.645,1.645,0,0,1,2.323,0,5.365,5.365,0,0,1,1.122,2.083c.253.865.151,1.343.066,1.428s-.563.187-1.428-.066A5.363,5.363,0,0,1,39.27,37.4,1.645,1.645,0,0,1,39.27,35.073Z" transform="translate(-37.577 -33.38)" fill="#f47660"/>
    </g>
    <g id="Group_6319" data-name="Group 6319" transform="translate(34.397 1.705)">
      <path id="Path_10884" data-name="Path 10884" d="M235.835,21.748c0-1.612-1.306-4.662-2.918-4.662S230,20.137,230,21.748a2.918,2.918,0,0,0,5.835,0Z" transform="translate(-230 -17.086)" fill="#e94f3d"/>
      <path id="Path_10885" data-name="Path 10885" d="M244.418,36.362a1.645,1.645,0,0,1-1.643-1.643,5.364,5.364,0,0,1,.68-2.267c.433-.791.843-1.057.963-1.057s.53.266.963,1.057a5.367,5.367,0,0,1,.68,2.267A1.645,1.645,0,0,1,244.418,36.362Z" transform="translate(-241.5 -29.968)" fill="#f47660"/>
    </g>
    <g id="Group_6320" data-name="Group 6320" transform="translate(23.712 0)">
      <path id="Path_10886" data-name="Path 10886" d="M127.9,5.813c1.139-1.14,2.373-4.22,1.234-5.36s-4.22.094-5.36,1.234A2.918,2.918,0,0,0,127.9,5.813Z" transform="translate(-122.923 0)" fill="#e94f3d"/>
      <path id="Path_10887" data-name="Path 10887" d="M135.554,17.324a1.645,1.645,0,0,1,0-2.323,5.365,5.365,0,0,1,2.083-1.122c.865-.253,1.343-.151,1.428-.066s.187.563-.066,1.428a5.363,5.363,0,0,1-1.122,2.083A1.645,1.645,0,0,1,135.554,17.324Z" transform="translate(-133.861 -12.35)" fill="#f47660"/>
    </g>
    <path id="Path_10888" data-name="Path 10888" d="M28.683,65.494,41.409,45.04a1.984,1.984,0,0,0-.783-2.933,29,29,0,0,0-26.761,0,1.984,1.984,0,0,0-.783,2.933L25.81,65.494C26.7,66.917,27.8,66.917,28.683,65.494Z" transform="translate(0 -34.961)" fill="#f2d383"/>
    <path id="Path_10889" data-name="Path 10889" d="M53.912,27.5a2.127,2.127,0,0,0-1.61.737l-.059,0a2.128,2.128,0,0,0-.851.178,2.133,2.133,0,0,0-3.779.57c-.034,0-.068-.005-.1-.005a2.134,2.134,0,1,0,2.031,2.787c.034,0,.068.005.1.005a2.128,2.128,0,0,0,.851-.178,2.13,2.13,0,0,0,3.358.175l.059,0a2.134,2.134,0,1,0,0-4.268Z" transform="translate(-29.402 -24.756)" fill="#fff"/>
    <path id="Path_10890" data-name="Path 10890" d="M192.65,28.292A2.129,2.129,0,0,0,189.7,27.03a2.124,2.124,0,0,0-1.457-.578c-.057,0-.113,0-.169.009a2.134,2.134,0,1,0-1.965,2.967c.057,0,.113,0,.169-.009a2.129,2.129,0,0,0,2.884,1.09,2.124,2.124,0,0,0,1.078.542,2.133,2.133,0,1,0,2.407-2.76Z" transform="translate(-154.173 -22.649)" fill="#fff"/>
    <path id="Path_10891" data-name="Path 10891" d="M64.17,101.2a.969.969,0,0,1-.847-.5,2.831,2.831,0,0,1-.383-2.419c.4-1.081,1.564-1.5,2.59-1.875,1.3-.472,1.916-.768,1.939-1.435.008-.24-.059-.309-.092-.342-.452-.462-2.262-.437-3.584-.42a15.2,15.2,0,0,1-3.669-.232,2.737,2.737,0,0,1-2.349-2.636,2.642,2.642,0,0,1,.763-2c1.363-1.352,4.209-1.258,7.223-1.158,2.773.093,6.224.207,6.52-1.192.072-.339-.013-.434-.045-.469-.133-.147-.647-.489-2.556-.492h-.025c-1.471,0-3.324.2-5.115.391-4.863.521-9.063.971-9.941-1.511a2.513,2.513,0,0,1,.514-2.609c1.244-1.395,4.3-2.254,9.1-2.554a39.884,39.884,0,0,1,8.873.29.97.97,0,0,1-.434,1.89,38.962,38.962,0,0,0-8.318-.244c-5.964.373-7.456,1.555-7.771,1.909a.578.578,0,0,0-.133.671c.032.092.294.552,2.26.616a45.177,45.177,0,0,0,5.646-.386c4.248-.455,7.918-.848,9.343.73a2.355,2.355,0,0,1,.5,2.171c-.3,1.4-1.444,2.275-3.411,2.6a27.5,27.5,0,0,1-5.071.127c-2.238-.074-5.024-.167-5.793.6a.691.691,0,0,0-.191.571c.018.7.628,1.023,4.053.978,2.038-.027,3.963-.053,5,1a2.326,2.326,0,0,1,.645,1.765c-.069,2.051-1.962,2.738-3.215,3.193-.5.183-1.345.488-1.434.728-.028.075-.005.327.257.795a.97.97,0,0,1-.845,1.444Z" transform="translate(-37.56 -71.7)" fill="#5a3c3d"/>
  </g>
</svg>
