<svg xmlns="http://www.w3.org/2000/svg" width="33.454" height="42.1" viewBox="0 0 33.454 42.1">
  <g id="dessert" transform="translate(-7.3 -2.2)">
    <g id="XMLID_1971_">
      <circle id="XMLID_2472_" cx="14" cy="14" r="14" transform="translate(8.8 5.8)" fill="#e5feff"/>
      <path id="XMLID_2471_" d="M22.8,8.4A13.936,13.936,0,0,1,36.7,21.1c0-.4.1-.9.1-1.3a14,14,0,1,0-28,0,5.283,5.283,0,0,0,.1,1.3A13.936,13.936,0,0,1,22.8,8.4Z" fill="#fff"/>
      <path id="XMLID_740_" d="M22.8,5.8A14.024,14.024,0,0,0,9.7,14.9a4.425,4.425,0,0,0,3.6,1.9c4.3,0,3.5-3.7,7-4.5,3.3-.8,3.6,1.5,7.5,1.5a6.183,6.183,0,0,0,5.7-3,13.838,13.838,0,0,0-10.7-5Z" fill="#ff87af"/>
      <path id="XMLID_739_" d="M10.5,15.8a13.971,13.971,0,0,1,21.8-3.7,5.263,5.263,0,0,0,1.2-1.4,14.167,14.167,0,0,0-10.7-5A14.024,14.024,0,0,0,9.7,14.8a2.539,2.539,0,0,0,.8,1Z" fill="#ffb0ca"/>
      <path id="XMLID_733_" d="M28.1,23.2,34,8.1a4.978,4.978,0,0,1,4.6-3.2,1.937,1.937,0,0,1,1.9,2.5,1.927,1.927,0,0,1-1.9,1.5A2.706,2.706,0,0,0,36,10.7L31.1,23.2Z" fill="#daedf7"/>
      <path id="XMLID_730_" d="M34.3,10.2A4.961,4.961,0,0,1,39,6.9a1.943,1.943,0,0,1,1.6.8c0-.1.1-.2.1-.3a2.084,2.084,0,0,0-2-2.5,4.879,4.879,0,0,0-4.6,3.2L28.2,23.2h1l5.1-13Z" fill="#fff"/>
      <path id="XMLID_728_" d="M37.5,19.8s-1.9,3-14.3,3-15.1-3-15.1-3a.86.86,0,0,0-.8.8A15.455,15.455,0,0,0,20.1,35a.849.849,0,0,1,.7.8V39a.764.764,0,0,1-.2.5,7.314,7.314,0,0,1-3.8,2.4,1.228,1.228,0,0,0,.4,2.4H28.4a1.235,1.235,0,0,0,.4-2.4A7.314,7.314,0,0,1,25,39.5a.764.764,0,0,1-.2-.5V35.8a.849.849,0,0,1,.7-.8A15.545,15.545,0,0,0,38.3,20.6a.789.789,0,0,0-.8-.8Z" fill="#b8ecff"/>
      <path id="XMLID_727_" d="M37.5,19.8s-1.9,3-14.3,3-15.1-3-15.1-3a.86.86,0,0,0-.8.8v.1c2,4.4,8.3,7.6,15.8,7.6,6.6,0,12.3-2.5,14.9-6.1a8.753,8.753,0,0,0,.2-1.6A.666.666,0,0,0,37.5,19.8Z" fill="#cff0fc"/>
      <circle id="XMLID_725_" cx="2.5" cy="2.5" r="2.5" transform="translate(21.6 2.3)" fill="#ff6242"/>
      <path id="XMLID_724_" d="M24.1,3.8a2.494,2.494,0,0,1,2.4,1.7,1.949,1.949,0,0,0,.1-.8,2.5,2.5,0,0,0-5,0c0,.3.1.5.1.8A2.591,2.591,0,0,1,24.1,3.8Z" fill="#ff866e"/>
    </g>
  </g>
</svg>
