<svg xmlns="http://www.w3.org/2000/svg" width="36.995" height="46.101" viewBox="0 0 36.995 46.101">
  <g id="drugs" transform="translate(-15.674 -7.922)">
    <path id="Path_10852" data-name="Path 10852" d="M35.915,17.372H24.1v4.221a.844.844,0,0,1-.844.844h0A6.753,6.753,0,0,0,16.5,29.19V52.826A3.377,3.377,0,0,0,19.877,56.2H40.136a3.377,3.377,0,0,0,3.377-3.377V29.19a6.753,6.753,0,0,0-6.753-6.753h0a.844.844,0,0,1-.844-.844Z" transform="translate(-0.826 -4.386)" fill="#ffe88f"/>
    <path id="Path_10854" data-name="Path 10854" d="M17.008,54.216A3.377,3.377,0,0,0,20.086,56.2H40.346a3.377,3.377,0,0,0,3.377-3.377V29.19a6.745,6.745,0,0,0-2.9-5.545A6.722,6.722,0,0,1,42.034,27.5V51.138a3.377,3.377,0,0,1-3.377,3.377H18.4A3.364,3.364,0,0,1,17.008,54.216ZM36.125,20.8a6.812,6.812,0,0,0-.844-.052.844.844,0,0,1-.844-.844V17.372h1.688Z" transform="translate(-1.035 -4.386)" fill="#efd264" fill-rule="evenodd"/>
    <path id="Path_10855" data-name="Path 10855" d="M27.791,21.622a.881.881,0,0,1,.881.881v3.377a.881.881,0,0,1-.881.881,8.489,8.489,0,0,0-4.175,1.216,5.173,5.173,0,0,0-2.541,4.656V42.34a.881.881,0,1,1-1.762,0V32.633a6.929,6.929,0,0,1,3.368-6.149A10.294,10.294,0,0,1,26.91,25.05V22.5A.881.881,0,0,1,27.791,21.622Z" transform="translate(-1.986 -6.14)" fill="#fff" fill-rule="evenodd"/>
    <path id="Path_10856" data-name="Path 10856" d="M16.5,41.81H43.512V57H16.5Z" transform="translate(-0.826 -14.473)" fill="#91bcff"/>
    <path id="Path_10858" data-name="Path 10858" d="M34.839,46.122a.587.587,0,0,0-.587.587V49.5H31.462a.587.587,0,0,0-.587.587v2.2a.587.587,0,0,0,.587.587h2.789v2.789a.587.587,0,0,0,.587.587h2.2a.587.587,0,0,0,.587-.587V52.875h2.789A.587.587,0,0,0,41,52.288v-2.2a.587.587,0,0,0-.587-.587H37.628V46.709a.587.587,0,0,0-.587-.587Z" transform="translate(-6.759 -16.253)" fill="#3c6cba" fill-rule="evenodd"/>
    <path id="Path_10860" data-name="Path 10860" d="M51.5,59.207a.871.871,0,1,1-.871-.871A.871.871,0,0,1,51.5,59.207Zm2.638-2.77a1.147,1.147,0,1,1-1.147-1.147A1.148,1.148,0,0,1,54.141,56.438Zm.433-3.237a.493.493,0,1,1-.493-.493A.493.493,0,0,1,54.574,53.2Zm-5.25,5.136a.493.493,0,1,1-.493-.493A.493.493,0,0,1,49.324,58.337Zm-2.765,1.086a.493.493,0,1,1-.493-.493A.493.493,0,0,1,46.559,59.422Zm6-5.1a.493.493,0,1,1-.493-.493A.493.493,0,0,1,52.558,54.327Zm-3.9,6.014a.493.493,0,1,1-.493-.493A.493.493,0,0,1,48.654,60.342Zm2.612-3.882a.656.656,0,1,1-.656-.656A.656.656,0,0,1,51.266,56.46Zm2.875,2.962a.656.656,0,1,1-.656-.656A.656.656,0,0,1,54.141,59.422Z" transform="translate(-12.826 -18.971)" fill="#6193e3"/>
    <path id="Path_10861" data-name="Path 10861" d="M25.125,9.922A1.174,1.174,0,0,1,26.3,8.747H40.833a1.174,1.174,0,0,1,1.174,1.174v3.3a.587.587,0,0,1-.587.587H25.712a.587.587,0,0,1-.587-.587Z" transform="translate(-4.386 -0.826)" fill="#6dd1e7"/>
    <path id="Path_10863" data-name="Path 10863" d="M27,9.772a.587.587,0,0,1,.587-.587h7.6a.587.587,0,0,1,0,1.174h-7.6A.587.587,0,0,1,27,9.772Z" transform="translate(-5.16 -1.006)" fill="#a2f9ff" fill-rule="evenodd"/>
    <path id="Path_10865" data-name="Path 10865" d="M19.313,51.1V41.81h1.762V51.1a.881.881,0,1,1-1.762,0Z" transform="translate(-1.986 -14.473)" fill="#bfd1ff" fill-rule="evenodd"/>
    <path id="Path_10866" data-name="Path 10866" d="M51.5,51.253H67.942l-2.616,21.14H54.116Z" transform="translate(-15.273 -18.371)" fill="#93e9fc"/>
    <path id="Path_10868" data-name="Path 10868" d="M67.942,51.253H51.5l1.017,8.221H66.925Z" transform="translate(-15.273 -18.371)" fill="#b9f2ff" fill-rule="evenodd"/>
    <path id="Path_10869" data-name="Path 10869" d="M54.631,52.745a.587.587,0,0,1,.644.525l1.245,12.207a.587.587,0,0,1-1.168.119L54.106,53.388A.587.587,0,0,1,54.631,52.745Z" transform="translate(-16.347 -18.985)" fill="#b9f2ff" fill-rule="evenodd"/>
    <path id="Path_10870" data-name="Path 10870" d="M54.63,52.745a.587.587,0,0,1,.645.523l.407,3.9a.587.587,0,1,1-1.168.122l-.407-3.9A.587.587,0,0,1,54.63,52.745Z" transform="translate(-16.347 -18.985)" fill="#f3fcff" fill-rule="evenodd"/>
    <path id="Path_10871" data-name="Path 10871" d="M53.5,64.84a.587.587,0,0,1,.587-.587H67.006a.587.587,0,0,1,0,1.174H54.087A.587.587,0,0,1,53.5,64.84Z" transform="translate(-16.098 -23.737)" fill="#6dd1e7" fill-rule="evenodd"/>
    <path id="Path_10872" data-name="Path 10872" d="M61.977,69.59a.79.79,0,1,1-.79-.79A.79.79,0,0,1,61.977,69.59Zm-1.214,1.988a.542.542,0,1,1-.542-.542A.542.542,0,0,1,60.764,71.578Zm4.035,2.07a.587.587,0,1,1-.587-.587A.587.587,0,0,1,64.8,73.648Zm-1.762,2.936A.587.587,0,1,1,62.45,76,.587.587,0,0,1,63.037,76.584Zm3.523-4.111a.587.587,0,1,1-.587-.587A.587.587,0,0,1,66.56,72.474Zm-7.714.125a.328.328,0,1,1-.328-.328A.328.328,0,0,1,58.847,72.6Zm.531-1.891a.328.328,0,1,1-.328-.328A.328.328,0,0,1,59.378,70.708Zm-2.035,2.824a.328.328,0,1,1-.328-.328A.328.328,0,0,1,57.343,73.533Zm7.776-5.89A1.041,1.041,0,1,1,64.078,66.6,1.041,1.041,0,0,1,65.119,67.643ZM65.107,64.7a.448.448,0,1,1-.448-.448A.448.448,0,0,1,65.107,64.7Zm-3.831,9.242a.881.881,0,1,1-.881-.881A.881.881,0,0,1,61.275,73.942Zm-1.454-5.718a.448.448,0,1,1-.448-.448A.448.448,0,0,1,59.822,68.224Zm2.836,3.6a.448.448,0,1,1-.448-.448A.448.448,0,0,1,62.657,71.823Zm-1.954-5.8a.595.595,0,1,1-.595-.595A.595.595,0,0,1,60.7,66.022Zm4.111,4.7a.595.595,0,1,1-.595-.595A.595.595,0,0,1,64.814,70.72Z" transform="translate(-17.414 -23.737)" fill="#6dd1e7"/>
  </g>
</svg>
