<svg xmlns="http://www.w3.org/2000/svg" width="38" height="37.61" viewBox="0 0 38 37.61">
  <g id="fastfood" transform="translate(-2.805 -3)">
    <path id="Path_10681" data-name="Path 10681" d="M28,39.047V17H40.969V39.047Z" transform="translate(-8.789 -4.922)" fill="#d33d48"/>
    <path id="Path_10682" data-name="Path 10682" d="M28,17h9.078V27.375A9.078,9.078,0,0,1,28,36.453h0Z" transform="translate(-8.789 -4.922)" fill="#d85061"/>
    <rect id="Rectangle_998" data-name="Rectangle 998" width="10" height="2" transform="translate(20.805 9.805)" fill="#e5e5e5"/>
    <path id="Path_10683" data-name="Path 10683" d="M39.188,9.484H34l.13-.648L35.3,3h2.594l1.167,5.836Z" transform="translate(-10.898)" fill="#f2f2f2"/>
    <path id="Path_10684" data-name="Path 10684" d="M39.188,12.648H34L34.13,12h4.928Z" transform="translate(-10.898 -3.164)" fill="#dbdad9"/>
    <path id="Path_10685" data-name="Path 10685" d="M28,19a1.307,1.307,0,0,1,1.3,1.3v5.188a1.3,1.3,0,0,1-1.3,1.3Z" transform="translate(-8.789 -5.625)" fill="#e56378"/>
    <path id="Path_10686" data-name="Path 10686" d="M34.242,36.394l6.886-1.541a2.594,2.594,0,1,0,3.766-2.834,2.589,2.589,0,1,0-4.614-.963L31,33.152Z" transform="translate(-9.844 -8.753)" fill="#f2f2f2"/>
    <path id="Path_10687" data-name="Path 10687" d="M11.235,28.163A2.03,2.03,0,0,0,10.2,29.876c-.023,0-.046,0-.069.008A1.519,1.519,0,0,0,8.976,31.7a2.022,2.022,0,0,0-.924,3.47,1.513,1.513,0,0,0,.6,2.678,2.01,2.01,0,0,0,2.913,2.5,1.513,1.513,0,0,0,2.329,1.565,2.019,2.019,0,0,0,3.515.321,1.5,1.5,0,0,0,2.26-.5,2.014,2.014,0,0,0,3.009-2.083,1.514,1.514,0,0,0,1.972-2.22A2.017,2.017,0,0,0,26,33.755a1.5,1.5,0,0,0-.5-2.26,2.021,2.021,0,0,0-2.186-3,2.06,2.06,0,0,0-.486.184c0-.025,0-.049-.009-.073A1.519,1.519,0,0,0,21,27.456a1.5,1.5,0,0,0-.483.206c-.005-.032,0-.065-.011-.1a2.025,2.025,0,0,0-3.855-.316,1.534,1.534,0,0,0-.756-.526Z" transform="translate(-1.543 -8.079)" fill="#f28d4e"/>
    <rect id="Rectangle_999" data-name="Rectangle 999" width="38" height="3" transform="translate(2.805 33.805)" fill="#f2f2f2"/>
    <path id="Path_10688" data-name="Path 10688" d="M39.422,55l-1.3,3.891H8.3l-.434-1.3L7,55Z" transform="translate(-1.406 -18.281)" fill="#d8d8d8"/>
    <path id="Path_10689" data-name="Path 10689" d="M11.594,35.952a2.275,2.275,0,0,1-1.719-.793l.984-.843a.948.948,0,0,0,.14.134.973.973,0,0,0,1.366-.168.96.96,0,0,0,.206-.569l1.3.037a2.27,2.27,0,0,1-1.993,2.187A2.293,2.293,0,0,1,11.594,35.952ZM21.952,40.5a2.27,2.27,0,1,1,1.491-3.978l-.855.973a.973.973,0,1,0-.636,1.708Zm-7.038,1.945a2.27,2.27,0,0,1-1.495-.562l.855-.973a.973.973,0,1,0,.64-1.708v-1.3a2.27,2.27,0,0,1,0,4.539ZM21.726,34.4a2.322,2.322,0,0,1-.383-.032,2.27,2.27,0,0,1-1.056-4l.822,1.006a.973.973,0,1,0,1.574.916l1.279.217A2.27,2.27,0,0,1,21.729,34.4Z" transform="translate(-2.417 -9.621)" fill="#e2773b"/>
    <path id="Path_10690" data-name="Path 10690" d="M19.188,25.3a1.226,1.226,0,0,1-.117.532,1.3,1.3,0,0,1-1.18.765v4.863a.811.811,0,0,1-.045.279.973.973,0,0,1-1.9-.279V28.539a1.945,1.945,0,1,1,0-3.891,1.89,1.89,0,0,1,.746.149,1.316,1.316,0,0,1,.623-.661l.039-.019A1.232,1.232,0,0,1,17.891,24a1.3,1.3,0,0,1,1.3,1.3Z" transform="translate(-3.867 -7.383)" fill="#d33d48"/>
    <path id="Path_10691" data-name="Path 10691" d="M19.539,25.3a1.226,1.226,0,0,1-.117.532,1.3,1.3,0,0,1-1.18.765v4.863a.811.811,0,0,1-.045.279.811.811,0,0,1-.279.045.973.973,0,0,1-.973-.973V27.891A1.945,1.945,0,0,1,15,25.945a1.916,1.916,0,0,1,.285-1.012,1.916,1.916,0,0,1,1.012-.285,1.89,1.89,0,0,1,.746.149,1.316,1.316,0,0,1,.623-.661c.006.006.019.006.026.013.006-.013.013-.019.013-.032A1.232,1.232,0,0,1,18.242,24a1.3,1.3,0,0,1,1.3,1.3Z" transform="translate(-4.219 -7.383)" fill="#dd4e5f"/>
    <path id="Path_10692" data-name="Path 10692" d="M19.781,51a1.307,1.307,0,0,1-1.3,1.3H13.3A1.3,1.3,0,0,1,12,51Zm5.188,0a1.307,1.307,0,0,1-1.3,1.3h-1.3a1.3,1.3,0,0,1-1.3-1.3Z" transform="translate(-3.164 -16.875)" fill="#fffefd"/>
    <path id="Path_10693" data-name="Path 10693" d="M35.532,55a2.591,2.591,0,0,1-2.594,2.594H7.862L7,55Z" transform="translate(-1.406 -18.281)" fill="#e5e5e5"/>
    <rect id="Rectangle_1000" data-name="Rectangle 1000" width="6" height="1" rx="0.5" transform="translate(20.805 9.805)" fill="#f4f2f2"/>
  </g>
</svg>
