<svg xmlns="http://www.w3.org/2000/svg" width="35.128" height="34.435" viewBox="0 0 35.128 34.435">
  <g id="grocery" transform="translate(0 -5.053)">
    <path id="Path_10873" data-name="Path 10873" d="M29.5,25.344,11.622,19.119l-4.8,5.294c-.947-.824-3.34-2.991-3.11-4.232.231-1.37,1.7-1.909.881-2.934A3.341,3.341,0,0,1,4.109,14.7a1.045,1.045,0,0,1,.428-.74c3.318-2.334,5.084-1.38,4.871-3.009a3.742,3.742,0,0,1,.367-2.123c.467-1.031,2.9-.97,4-.73.466.1.953-.1,1.218-.81a1.027,1.027,0,0,1,1.333-.533.019.019,0,0,1,.015.005c1.394.571,1.391-1.782,3.975-1.7a7.374,7.374,0,0,1,3.97,2.023,1.032,1.032,0,0,0,1.228.186c.991-.545,2.693-.716,3.145.221a3.95,3.95,0,0,1,.267.669,1.01,1.01,0,0,0,1.142.725,3.023,3.023,0,0,1,1.957.257c.759.359.83,1.951.78,2.556a1.044,1.044,0,0,0,1.032,1.147,6.3,6.3,0,0,1,.85.065,1.042,1.042,0,0,1,.855,1.333c-.438,1.386-1.311,1.618.091,4.67.33.733,2.422,1.132,2.908,3.291C39.134,24.7,31.466,25.117,29.5,25.344Z" transform="translate(-3.443 0)" fill="#0bad67"/>
    <path id="Path_10874" data-name="Path 10874" d="M61.215,74.873A14.847,14.847,0,0,1,35.1,84.546c-.3-.352-.589-.718-.858-1.1a14.7,14.7,0,0,1-1.857-3.567,15.1,15.1,0,0,1-.611-2.245A14.857,14.857,0,0,1,52.634,61.4c.241.111.478.23.711.352a14.859,14.859,0,0,1,5.047,4.4,14.705,14.705,0,0,1,1.76,3.186c.05.126.1.251.144.377A14.763,14.763,0,0,1,61.215,74.873Z" transform="translate(-29.358 -51.197)" fill="#13bd79"/>
    <path id="Path_10875" data-name="Path 10875" d="M109.913,99.684a.539.539,0,0,1,.042-.761,13.583,13.583,0,0,1,2.661-1.859.539.539,0,1,1,.508.951,12.494,12.494,0,0,0-2.45,1.711A.539.539,0,0,1,109.913,99.684Z" transform="translate(-102.244 -85.639)" fill="#fff" opacity="0.4"/>
    <path id="Path_10876" data-name="Path 10876" d="M41.112,87.495c0,.065-.072.108-.162.1a50.578,50.578,0,0,1-10.912-1.879A31.165,31.165,0,0,0,27.2,87.739a48.107,48.107,0,0,0,10.758,1.613.158.158,0,0,1,.169.111.153.153,0,0,1-.151.122,60.987,60.987,0,0,1-11.954-.848,28.247,28.247,0,0,0-2.349,2.331,52.29,52.29,0,0,0,11.408.456.134.134,0,0,1,.154.093c.007.065-.05.118-.126.133a64.933,64.933,0,0,1-12.385.435,27.5,27.5,0,0,0-1.846,2.568,43.47,43.47,0,0,0,10.7-.93.139.139,0,0,1,.162.075.137.137,0,0,1-.1.147,52.715,52.715,0,0,1-11.487,1.914,26.189,26.189,0,0,0-1.329,2.708,36.869,36.869,0,0,0,9.9-2.141.125.125,0,0,1,.158.054.127.127,0,0,1-.057.154A43.492,43.492,0,0,1,18.35,99.919c-.086.244-.169.485-.248.729-.3-.352-.589-.718-.858-1.1.223-.636.474-1.264.751-1.893a8.917,8.917,0,0,1-2.608-1.674A6.712,6.712,0,0,1,13.3,90.674a.3.3,0,0,1,.169-.212c.086-.04.162-.011.169.057a6.357,6.357,0,0,0,1.139,3.218,7.923,7.923,0,0,0,3.8,2.687,24.651,24.651,0,0,1,1.624-2.8,6.89,6.89,0,0,1-3.577-7.618.3.3,0,0,1,.2-.187c.093-.025.172.007.158.079-.244,3.136,1.512,5.251,4.034,6.555a23.579,23.579,0,0,1,1.555-1.929c.2-.23.4-.453.6-.679A6.632,6.632,0,0,1,20.8,81.766a.322.322,0,0,1,.233-.158c.1-.014.18.025.154.1-.772,3.1.65,5.46,3.035,7.076A31.627,31.627,0,0,1,26.7,86.608a5.846,5.846,0,0,1-.977-7.507.315.315,0,0,1,.244-.119c.126,0,.176.047.154.111-1.279,3.355.467,5.355,1.807,6.6a31.121,31.121,0,0,1,2.859-1.814,4.92,4.92,0,0,1,.241-6.48.348.348,0,0,1,.287-.086c.1.014.154.068.129.129a4.47,4.47,0,0,0,.761,5.675A34.4,34.4,0,0,1,35.5,81.68a3.969,3.969,0,0,1,.133-4.174c.241.111.478.23.711.352a3.825,3.825,0,0,0,.744,3.272q1.309-.42,2.69-.747a15.187,15.187,0,0,1,1.613,1.879c-.46-.223-.909-.449-1.347-.686-.011,0-.022,0-.029.007-2.292.575-2.794.8-2.97.837-.248.083-.492.169-.736.255a32.6,32.6,0,0,0,6.842,2.773c.05.126.1.251.144.377a45.765,45.765,0,0,1-8.57-2.532,31.622,31.622,0,0,0-3.3,1.609,39.027,39.027,0,0,0,9.529,2.468C41.044,87.38,41.108,87.434,41.112,87.495Z" transform="translate(-12.383 -67.299)" fill="#0bad67"/>
    <path id="Path_10877" data-name="Path 10877" d="M14,235.3s2.066-3.226-2.59-4.262c0,0,1.323-1.65-2.613-3.221,0,0-1.982-4.718-6.059-4.775,0,0-3.975.9-2.342,6.954,3.068,11.357,11.3,11.431,13.493,12.283,1.2.468,2.316.372,2.582-1.343A5.242,5.242,0,0,0,14,235.3Z" transform="translate(0 -203.036)" fill="#0bad67"/>
    <path id="Path_10878" data-name="Path 10878" d="M25.441,240.96c-.169,1.092-.675,1.53-1.336,1.584.025-.1.043-.2.061-.305a5.242,5.242,0,0,0-2.471-5.639s2.065-3.225-2.59-4.26c0,0,1.322-1.652-2.615-3.222,0,0-1.979-4.72-6.056-4.774a2.969,2.969,0,0,0-.8.352,3.6,3.6,0,0,1,2.076-1.627c4.077.054,6.056,4.774,6.056,4.774,3.937,1.57,2.615,3.222,2.615,3.222,4.655,1.034,2.59,4.26,2.59,4.26A5.239,5.239,0,0,1,25.441,240.96Z" transform="translate(-8.972 -203.058)" opacity="0.08"/>
    <path id="Path_10879" data-name="Path 10879" d="M250.473,235.3s-2.066-3.226,2.59-4.262c0,0-1.323-1.65,2.613-3.221,0,0,1.982-4.718,6.059-4.775,0,0,3.975.9,2.342,6.954-3.068,11.357-11.3,11.431-13.493,12.283-1.2.468-2.316.372-2.582-1.343A5.242,5.242,0,0,1,250.473,235.3Z" transform="translate(-230.907 -203.036)" fill="#0bad67"/>
    <path id="Path_10880" data-name="Path 10880" d="M271.7,230.022c-3.067,11.354-11.3,11.429-13.495,12.28-.826.323-1.609.377-2.1-.172,2.776-.744,10.1-1.548,12.949-12.108,1.139-4.235-.46-5.944-1.523-6.591a5.09,5.09,0,0,1,1.832-.363S273.335,223.966,271.7,230.022Z" transform="translate(-238.534 -203.057)" opacity="0.08"/>
  </g>
</svg>
