<svg xmlns="http://www.w3.org/2000/svg" width="34.325" height="34.344" viewBox="0 0 34.325 34.344">
  <g id="japanese" transform="translate(-0.024)">
    <rect id="Rectangle_1001" data-name="Rectangle 1001" width="30.046" height="2.683" rx="1" transform="translate(4.304)" fill="#9e724a"/>
    <rect id="Rectangle_1002" data-name="Rectangle 1002" width="30.046" height="2.683" rx="1" transform="translate(4.304 1.61)" fill="#aa7b50"/>
    <path id="Path_10760" data-name="Path 10760" d="M21.968,9.975a.537.537,0,0,0-.164-.386L20.535,8.365,21.8,7.142a.537.537,0,0,0,0-.773L20.535,5.146,21.8,3.923A.537.537,0,0,0,21.431,3H19.206a.54.54,0,0,0-.372.15L17.164,4.76a.537.537,0,0,0,0,.773l1.269,1.223L17.164,7.979a.537.537,0,0,0,0,.773l1.269,1.223L17.164,11.2a.537.537,0,0,0,0,.773l1.269,1.223-1.269,1.223a.537.537,0,0,0,0,.773l1.269,1.223-1.269,1.223a.537.537,0,0,0,0,.773l1.669,1.61a.54.54,0,0,0,.372.15h2.226a.537.537,0,0,0,.372-.923l-1.268-1.223L21.8,16.8a.537.537,0,0,0,0-.773L20.535,14.8,21.8,13.58a.537.537,0,0,0,0-.773l-1.268-1.223L21.8,10.361A.537.537,0,0,0,21.968,9.975Z" transform="translate(-7.868 -1.39)" fill="#eac180"/>
    <path id="Path_10761" data-name="Path 10761" d="M26.113,9.975a.537.537,0,0,0-.161-.386L24.68,8.365l1.268-1.223a.537.537,0,0,0,0-.773L24.68,5.146l1.268-1.223A.537.537,0,0,0,25.573,3H23.351a.54.54,0,0,0-.376.15L21.307,4.76a.537.537,0,0,0,0,.773l1.271,1.223L21.31,7.979a.537.537,0,0,0,0,.773l1.268,1.223L21.31,11.2a.537.537,0,0,0,0,.773l1.268,1.223L21.31,14.417a.537.537,0,0,0,0,.773l1.268,1.223L21.31,17.637a.537.537,0,0,0,0,.773l1.669,1.61a.54.54,0,0,0,.376.15H25.58a.537.537,0,0,0,.376-.923L24.68,18.023,25.949,16.8a.537.537,0,0,0,0-.773L24.68,14.8l1.268-1.223a.537.537,0,0,0,0-.773L24.68,11.585l1.268-1.223A.537.537,0,0,0,26.113,9.975Z" transform="translate(-9.788 -1.39)" fill="#fcd08a"/>
    <path id="Path_10762" data-name="Path 10762" d="M30.263,9.975a.537.537,0,0,0-.164-.386L28.83,8.365,30.1,7.142a.537.537,0,0,0,0-.773L28.83,5.146,30.1,3.923A.537.537,0,0,0,29.727,3H27.5a.537.537,0,0,0-.372.15L25.459,4.76a.537.537,0,0,0,0,.773l1.269,1.223-1.27,1.223a.537.537,0,0,0,0,.773l1.27,1.223L25.458,11.2a.537.537,0,0,0,0,.773l1.27,1.223-1.27,1.223a.537.537,0,0,0,0,.773l1.27,1.223-1.27,1.223a.537.537,0,0,0,0,.773l1.669,1.61a.537.537,0,0,0,.372.15h2.226a.537.537,0,0,0,.372-.923L28.83,18.023,30.1,16.8a.537.537,0,0,0,0-.773L28.83,14.8,30.1,13.58a.537.537,0,0,0,0-.773L28.83,11.585,30.1,10.361A.537.537,0,0,0,30.263,9.975Z" transform="translate(-11.711 -1.39)" fill="#eac180"/>
    <path id="Path_10763" data-name="Path 10763" d="M34.408,9.975a.537.537,0,0,0-.164-.386L32.977,8.365l1.27-1.223a.537.537,0,0,0,0-.773l-1.27-1.223,1.27-1.223A.537.537,0,0,0,33.871,3H31.648a.54.54,0,0,0-.376.15L29.6,4.76a.537.537,0,0,0,0,.773l1.272,1.223L29.606,7.979a.537.537,0,0,0,0,.773l1.269,1.223L29.606,11.2a.537.537,0,0,0,0,.773l1.269,1.223-1.269,1.223a.537.537,0,0,0,0,.773l1.269,1.223-1.269,1.223a.537.537,0,0,0,0,.773l1.669,1.61a.54.54,0,0,0,.376.15h2.221a.537.537,0,0,0,.372-.923l-1.267-1.223,1.27-1.223a.537.537,0,0,0,0-.773L32.977,14.8l1.27-1.223a.537.537,0,0,0,0-.773l-1.27-1.223,1.27-1.223A.537.537,0,0,0,34.408,9.975Z" transform="translate(-13.633 -1.39)" fill="#fcd08a"/>
    <path id="Path_10764" data-name="Path 10764" d="M38.558,9.975a.537.537,0,0,0-.164-.386L37.126,8.365l1.268-1.223a.537.537,0,0,0,0-.773L37.126,5.146l1.268-1.223A.537.537,0,0,0,38.022,3H35.794a.537.537,0,0,0-.372.15l-1.67,1.61a.537.537,0,0,0,0,.773l1.272,1.223L33.755,7.979a.537.537,0,0,0,0,.773l1.268,1.223L33.755,11.2a.537.537,0,0,0,0,.773l1.268,1.223-1.268,1.223a.537.537,0,0,0,0,.773l1.268,1.223-1.268,1.223a.537.537,0,0,0,0,.773l1.67,1.61a.537.537,0,0,0,.369.15H38.02a.537.537,0,0,0,.372-.923l-1.266-1.223L38.394,16.8a.537.537,0,0,0,0-.773L37.126,14.8l1.268-1.223a.537.537,0,0,0,0-.773l-1.268-1.223,1.268-1.223A.537.537,0,0,0,38.558,9.975Z" transform="translate(-15.555 -1.39)" fill="#eac180"/>
    <path id="Path_10765" data-name="Path 10765" d="M42.706,9.975a.537.537,0,0,0-.164-.386L41.273,8.365l1.269-1.223a.537.537,0,0,0,0-.773L41.273,5.146l1.269-1.223A.537.537,0,0,0,42.17,3H39.944a.54.54,0,0,0-.376.15L37.9,4.76a.537.537,0,0,0,0,.773l1.271,1.223L37.9,7.979a.537.537,0,0,0,0,.773l1.268,1.223L37.9,11.2a.537.537,0,0,0,0,.773l1.268,1.223L37.9,14.417a.537.537,0,0,0,0,.773l1.268,1.223L37.9,17.637a.537.537,0,0,0,0,.773l1.669,1.61a.54.54,0,0,0,.376.15H42.17a.537.537,0,0,0,.372-.923l-1.269-1.223L42.542,16.8a.537.537,0,0,0,0-.773L41.273,14.8l1.269-1.223a.537.537,0,0,0,0-.773l-1.269-1.223,1.269-1.223A.537.537,0,0,0,42.706,9.975Z" transform="translate(-17.478 -1.39)" fill="#fcd08a"/>
    <path id="Path_10766" data-name="Path 10766" d="M34.184,32.161A.537.537,0,0,0,33.8,32H.561a.537.537,0,0,0-.537.554,17.164,17.164,0,0,0,34.31,0,.537.537,0,0,0-.151-.393Z" transform="translate(0 -14.831)" fill="#c73b40"/>
    <path id="Path_10767" data-name="Path 10767" d="M48.54,32.161A.537.537,0,0,0,48.156,32H47.083a.537.537,0,0,1,.537.554A17.081,17.081,0,0,1,31,49.156c.179.005.357.013.537.013A17.088,17.088,0,0,0,48.692,32.554.537.537,0,0,0,48.54,32.161Z" transform="translate(-14.356 -14.831)" fill="#d26266"/>
  </g>
</svg>
