<svg xmlns="http://www.w3.org/2000/svg" width="30" height="30" viewBox="0 0 30 30">
  <g id="market" transform="translate(-1 -1)">
    <path id="Path_10845" data-name="Path 10845" d="M29,11H3a2.006,2.006,0,0,0-2,2v2a2.006,2.006,0,0,0,2,2H4L5.51,27.57A4,4,0,0,0,9.47,31H22.53a4,4,0,0,0,3.96-3.431L28,17h1a2.006,2.006,0,0,0,2-2V13A2.006,2.006,0,0,0,29,11Z" fill="#bdeffc"/>
    <path id="Path_10846" data-name="Path 10846" d="M26.53,25H13.47a4,4,0,0,1-3.96-3.431L8,11H3a2.006,2.006,0,0,0-2,2v2a2.006,2.006,0,0,0,2,2H4L5.51,27.57A4,4,0,0,0,9.47,31H22.53a4,4,0,0,0,3.96-3.431l.371-2.6C26.751,24.979,26.643,25,26.53,25Z" fill="#9ddced"/>
    <path id="Path_10847" data-name="Path 10847" d="M31,13v2a2.006,2.006,0,0,1-2,2H3a2.006,2.006,0,0,1-2-2V13a2.006,2.006,0,0,1,2-2H29a2.006,2.006,0,0,1,2,2Z" fill="#ffd170"/>
    <path id="Path_10848" data-name="Path 10848" d="M11,14H10a2.006,2.006,0,0,1-2-2V11H3a2.006,2.006,0,0,0-2,2v2a2.006,2.006,0,0,0,2,2H29a2.006,2.006,0,0,0,2-2V14Z" fill="#ffb35c"/>
    <path id="Path_10849" data-name="Path 10849" d="M24.61,1a1.96,1.96,0,0,1,1.92,2.35L25,11H21l1.68-8.42A1.97,1.97,0,0,1,24.61,1ZM9.32,2.58,11,11H7L5.47,3.35a1.963,1.963,0,1,1,3.85-.77Z" fill="#ebeaf2"/>
    <path id="Path_10851" data-name="Path 10851" d="M16,20a1,1,0,0,0-1,1v6a1,1,0,0,0,2,0V21A1,1,0,0,0,16,20Zm-5,0a1,1,0,0,0-1,1v6a1,1,0,0,0,2,0V21A1,1,0,0,0,11,20Zm10,0a1,1,0,0,0-1,1v6a1,1,0,0,0,2,0V21A1,1,0,0,0,21,20Z"/>
  </g>
</svg>
