<svg xmlns="http://www.w3.org/2000/svg" width="42.21" height="26.733" viewBox="0 0 42.21 26.733">
  <g id="meat" transform="translate(-2 -13)">
    <path id="Path_10820" data-name="Path 10820" d="M35.14,13h5.628a1.407,1.407,0,0,1,1.407,1.407V38.326a1.407,1.407,0,0,1-1.407,1.407H8.407A1.407,1.407,0,0,1,7,38.326V14.407A1.407,1.407,0,0,1,8.407,13Z" transform="translate(-1.483)" fill="#ed6a30"/>
    <path id="Path_10821" data-name="Path 10821" d="M42.1,34.442H40.692V33.035H42.1a.7.7,0,0,0,.7-.7V28.11a.7.7,0,0,0-.7-.7H40.692V26H42.1a2.11,2.11,0,0,1,2.11,2.11v4.221a2.11,2.11,0,0,1-2.11,2.11Zm-36.582,0H4.11A2.11,2.11,0,0,1,2,32.331V28.11A2.11,2.11,0,0,1,4.11,26H5.517v1.407H4.11a.7.7,0,0,0-.7.7v4.221a.7.7,0,0,0,.7.7H5.517Z" transform="translate(0 -3.855)" fill="#717272"/>
    <rect id="Rectangle_1012" data-name="Rectangle 1012" width="30" height="21" transform="translate(8.21 15.733)" fill="#686160"/>
    <path id="Path_10822" data-name="Path 10822" d="M40.25,38.512H10.7a.7.7,0,0,1-.7-.7V16.7a.7.7,0,0,1,.7-.7H40.25a.7.7,0,0,1,.7.7v21.1A.7.7,0,0,1,40.25,38.512ZM11.407,37.1h28.14v-19.7H11.407Z" transform="translate(-2.372 -0.89)" fill="#3f3f3f"/>
    <rect id="Rectangle_1013" data-name="Rectangle 1013" width="1" height="21" transform="translate(12.21 15.733)" fill="#3f3f3f"/>
    <rect id="Rectangle_1014" data-name="Rectangle 1014" width="1" height="21" transform="translate(16.21 15.733)" fill="#3f3f3f"/>
    <rect id="Rectangle_1015" data-name="Rectangle 1015" width="1" height="21" transform="translate(20.21 15.733)" fill="#3f3f3f"/>
    <rect id="Rectangle_1016" data-name="Rectangle 1016" width="2" height="21" transform="translate(24.21 15.733)" fill="#3f3f3f"/>
    <rect id="Rectangle_1017" data-name="Rectangle 1017" width="1" height="21" transform="translate(29.21 15.733)" fill="#3f3f3f"/>
    <rect id="Rectangle_1018" data-name="Rectangle 1018" width="1" height="21" transform="translate(33.21 15.733)" fill="#3f3f3f"/>
    <path id="Path_10823" data-name="Path 10823" d="M43.848,26.924v5.628A3.524,3.524,0,0,1,41.034,36h-.007a3.41,3.41,0,0,1-1.041.056A3.621,3.621,0,0,1,36.813,32.4v-.1a1.7,1.7,0,0,0-.753-1.379A4.917,4.917,0,0,1,34,26.741,5,5,0,0,1,38.839,22a4.158,4.158,0,0,1,.788.056,4.916,4.916,0,0,1,4.221,4.868Z" transform="translate(-9.487 -2.668)" fill="#93542a"/>
    <path id="Path_10824" data-name="Path 10824" d="M44.441,26.948v5.628a3.524,3.524,0,0,1-2.814,3.447H41.62a3.652,3.652,0,0,1-2.807-3.595v-.1a1.7,1.7,0,0,0-.753-1.379A4.917,4.917,0,0,1,36,26.765,5,5,0,0,1,40.22,22.08,4.916,4.916,0,0,1,44.441,26.948Z" transform="translate(-10.08 -2.692)" fill="#aa633c"/>
    <circle id="Ellipse_5694" data-name="Ellipse 5694" cx="1.5" cy="1.5" r="1.5" transform="translate(28.21 22.733)" fill="#ddd"/>
    <path id="Path_10825" data-name="Path 10825" d="M26.256,29.628a5.628,5.628,0,0,1-4.574,5.53,5.768,5.768,0,0,1-1.054.1,5.628,5.628,0,1,1,0-11.256,5.769,5.769,0,0,1,1.055.1A5.628,5.628,0,0,1,26.256,29.628Z" transform="translate(-3.855 -3.262)" fill="#93542a"/>
    <ellipse id="Ellipse_5695" data-name="Ellipse 5695" cx="4.573" cy="5.529" rx="4.573" ry="5.529" transform="translate(13.256 20.837)" fill="#aa633c"/>
    <path id="Path_10826" data-name="Path 10826" d="M19.169,30.861a.7.7,0,0,1-.5-1.2l1.989-1.989a.7.7,0,1,1,.995.995l-1.99,1.989A.7.7,0,0,1,19.169,30.861Zm2.984,2.984a.7.7,0,0,1-.5-1.2l1.989-1.989a.7.7,0,1,1,.995.995L22.65,33.64a.7.7,0,0,1-.5.206Zm-2.487-.5a.7.7,0,0,1-.5-1.2l3.979-3.979a.7.7,0,1,1,.995.995l-3.979,3.979A.7.7,0,0,1,19.666,33.348Z" transform="translate(-4.882 -4.289)" fill="#75370d"/>
    <rect id="Rectangle_1019" data-name="Rectangle 1019" width="2" height="2" transform="translate(40.21 21.733)" fill="#5f6060"/>
    <rect id="Rectangle_1020" data-name="Rectangle 1020" width="2" height="2" transform="translate(40.21 28.733)" fill="#5f6060"/>
    <rect id="Rectangle_1021" data-name="Rectangle 1021" width="1" height="2" transform="translate(4.21 21.733)" fill="#5f6060"/>
    <rect id="Rectangle_1022" data-name="Rectangle 1022" width="1" height="2" transform="translate(4.21 28.733)" fill="#5f6060"/>
  </g>
</svg>
