<svg xmlns="http://www.w3.org/2000/svg" width="30.279" height="40.653" viewBox="0 0 30.279 40.653">
  <g id="mediterranean" transform="translate(-19.174 -14.755)">
    <path id="Path_10694" data-name="Path 10694" d="M88.182,69.8l-.041-.092s-6.6-5.085-18.291,6.9c.372,2.668,2.287,4.554,3.643,6.193a33.7,33.7,0,0,1,2.4,3.2A20.009,20.009,0,0,0,88.182,69.8Z" transform="translate(-38.729 -32.083)" fill="#baa875"/>
    <path id="Path_10700" data-name="Path 10700" d="M41.822,89.641a1.349,1.349,0,0,1-1.26-.869,84.891,84.891,0,0,0-5.9-12.367,1.348,1.348,0,1,1,2.332-1.354,87.594,87.594,0,0,1,6.087,12.761,1.349,1.349,0,0,1-1.26,1.829Z" transform="translate(-15.306 -36.714)" fill="#efe1b4"/>
    <path id="Path_10701" data-name="Path 10701" d="M55.672,99.254a1.349,1.349,0,0,1-1.249-.841A85.016,85.016,0,0,0,50.3,89.734a1.348,1.348,0,0,1,2.367-1.292A87.72,87.72,0,0,1,56.92,97.4a1.349,1.349,0,0,1-1.249,1.857Z" transform="translate(-25.992 -45.831)" fill="#efe1b4"/>
    <path id="Path_10704" data-name="Path 10704" d="M74.594,37.833a3.157,3.157,0,0,0-1.363.318A5.082,5.082,0,0,0,63.16,39.1v.083a2.541,2.541,0,1,0-.635,5H74.594a3.176,3.176,0,1,0,0-6.352Z" transform="translate(-31.992 -8.467)" fill="#efe1b4"/>
    <path id="Path_10705" data-name="Path 10705" d="M103.67,70a1.619,1.619,0,0,1,.622.124,1.638,1.638,0,0,1,.33.184,1.638,1.638,0,0,1,.33-.184,1.618,1.618,0,0,1,.622-.124h0a1.617,1.617,0,0,1,1.15.476l0,.005a1.582,1.582,0,0,1-.027,2.243l-2.08,2.5-2.08-2.5a1.582,1.582,0,0,1-.027-2.243l0-.005A1.617,1.617,0,0,1,103.67,70Zm1.627,1.627h-1.348a.279.279,0,0,0-.473-.2.234.234,0,0,0,.012.335l.035.032,1.1,1.32,1.1-1.32.035-.032a.234.234,0,0,0,.012-.335.279.279,0,0,0-.473.2Z" transform="translate(-61.067 -33.37)" fill="#fff"/>
    <path id="Path_10706" data-name="Path 10706" d="M74.594,32.833a3.157,3.157,0,0,0-1.363.318A5.082,5.082,0,0,0,63.16,34.1v.083a2.541,2.541,0,1,0-.635,5H74.594a3.176,3.176,0,1,0,0-6.352Z" transform="translate(-31.992 -5.055)" fill="#fff"/>
    <path id="Path_10707" data-name="Path 10707" d="M67.858,8.575H65.318L65,3.176V0h5.717V3.176l-.318,5.4Z" transform="translate(-35.42 14.755)" fill="#997c64"/>
    <path id="Path_10708" data-name="Path 10708" d="M54.7,14c0,8.893,2.166,10.481,2.166,10.481a18.115,18.115,0,0,1,5.456,12.387c0,7.623-5.082,10.8-5.082,10.8H47.082S42,44.49,42,36.868a18.115,18.115,0,0,1,5.456-12.387S49.623,22.893,49.623,14" transform="translate(-19.724 5.202)" fill="#a7e8ea" opacity="0.51"/>
    <path id="Path_10709" data-name="Path 10709" d="M50.362,29.88a18.808,18.808,0,0,1,3.494-4.764s2.16-1.588,2.16-10.481h2.223V14H53.157c0,8.893-2.166,10.481-2.166,10.481a18.739,18.739,0,0,0-3.811,5.4Z" transform="translate(-23.259 5.202)" fill="#fff"/>
    <path id="Path_10735" data-name="Path 10735" d="M1.27,0h8.893a1.27,1.27,0,1,1,0,2.541H1.27A1.27,1.27,0,1,1,1.27,0Z" transform="translate(26.722 52.868)" fill="#a3bfbd"/>
    <path id="Path_10734" data-name="Path 10734" d="M1.27,0H5.717a1.27,1.27,0,1,1,0,2.541H1.27A1.27,1.27,0,1,1,1.27,0Z" transform="translate(28.945 16.661)" fill="#a7e8ea" opacity="0.51"/>
    <path id="Path_10710" data-name="Path 10710" d="M66.176,7.27h3.811A1.27,1.27,0,0,0,68.717,6H64.27a1.27,1.27,0,0,0,0,2.541h.635A1.27,1.27,0,0,1,66.176,7.27Z" transform="translate(-34.055 10.661)" fill="#fff"/>
    <path id="Path_10733" data-name="Path 10733" d="M.619-2H5.065a2.619,2.619,0,1,1,0,5.237H.619A2.619,2.619,0,1,1,.619-2Z" transform="translate(29.597 17.313)" fill="#a3bfbd"/>
    <path id="Path_10732" data-name="Path 10732" d="M5.7.7H-.652A1.348,1.348,0,0,1-2-.652,1.348,1.348,0,0,1-.652-2H5.7A1.348,1.348,0,0,1,7.049-.652,1.348,1.348,0,0,1,5.7.7Z" transform="translate(29.915 22.077)" fill="#a3bfbd"/>
    <path id="Path_10711" data-name="Path 10711" d="M87.314,30.577a1.348,1.348,0,0,1-1.222-.778,17.335,17.335,0,0,0-3.5-4.971,5.724,5.724,0,0,1-1.44-2.454A28.026,28.026,0,0,1,80,13.348a1.348,1.348,0,0,1,2.7,0,24.893,24.893,0,0,0,1,8.121,5.072,5.072,0,0,0,.574,1.2,1.318,1.318,0,0,0,.1.132q.04.034.077.071a20.023,20.023,0,0,1,4.085,5.788,1.349,1.349,0,0,1-1.22,1.92Z" transform="translate(-46.369 5.854)" fill="#a3bfbd"/>
    <path id="Path_10712" data-name="Path 10712" d="M46.527,30.577a1.349,1.349,0,0,1-1.22-1.92,20.023,20.023,0,0,1,4.085-5.788q.039-.038.08-.073c.12-.132,1.685-2,1.685-9.448a1.348,1.348,0,0,1,2.7,0,27.873,27.873,0,0,1-1.162,9.031,5.721,5.721,0,0,1-1.446,2.451,17.333,17.333,0,0,0-3.5,4.97A1.349,1.349,0,0,1,46.527,30.577Z" transform="translate(-22.607 5.854)" fill="#a3bfbd"/>
    <path id="Path_10713" data-name="Path 10713" d="M43.658,64A17.265,17.265,0,0,0,42,70.987c0,7.623,5.082,10.8,5.082,10.8H57.245s5.082-3.176,5.082-10.8A17.265,17.265,0,0,0,60.669,64Z" transform="translate(-19.724 -28.918)" fill="#f4d13d" opacity="0.52"/>
    <path id="Path_10714" data-name="Path 10714" d="M45.961,77.022a24.691,24.691,0,0,1-.953-5.4A17.43,17.43,0,0,1,46.978,64H43.8q-.26.559-.467,1.1v.032q-.1.251-.184.5v.038a11.21,11.21,0,0,0-.476,1.509v.035q-.057.222-.1.438v.038c-.1.457-.181.886-.238,1.27v.067q-.022.165-.044.318v.06c-.029.241-.051.47-.067.68v.883a13.677,13.677,0,0,0,2.754,8.54C47.06,79.226,45.961,77.022,45.961,77.022Z" transform="translate(-19.875 -28.918)" fill="#fff"/>
    <path id="Path_10731" data-name="Path 10731" d="M.953,0A.953.953,0,1,1,0,.953.953.953,0,0,1,.953,0Z" transform="translate(37.838 37.941)" fill="#f4efb0"/>
    <path id="Path_10730" data-name="Path 10730" d="M.953,0A.953.953,0,1,1,0,.953.953.953,0,0,1,.953,0Z" transform="translate(29.263 43.022)" fill="#f4efb0"/>
    <path id="Path_10729" data-name="Path 10729" d="M.953,0A.953.953,0,1,1,0,.953.953.953,0,0,1,.953,0Z" transform="translate(30.533 48.104)" fill="#dbd786"/>
    <path id="Path_10728" data-name="Path 10728" d="M.635,0A.635.635,0,1,1,0,.635.635.635,0,0,1,.635,0Z" transform="translate(35.933 48.422)" fill="#f4efb0"/>
    <path id="Path_10727" data-name="Path 10727" d="M.635,0A.635.635,0,1,1,0,.635.635.635,0,0,1,.635,0Z" transform="translate(33.074 37.623)" fill="#f4efb0"/>
    <path id="Path_10726" data-name="Path 10726" d="M.635,0A.635.635,0,1,1,0,.635.635.635,0,0,1,.635,0Z" transform="translate(39.109 44.928)" fill="#f4efb0"/>
    <path id="Path_10725" data-name="Path 10725" d="M.635,0A.635.635,0,1,1,0,.635.635.635,0,0,1,.635,0Z" transform="translate(27.675 39.211)" fill="#f4efb0"/>
    <path id="Path_10724" data-name="Path 10724" d="M.635,0A.635.635,0,1,1,0,.635.635.635,0,0,1,.635,0Z" transform="translate(25.452 45.563)" fill="#f4efb0"/>
    <path id="Path_10715" data-name="Path 10715" d="M60.017,62h.853l.365.771A18.5,18.5,0,0,1,63.023,70.3v.032a16.235,16.235,0,0,1-.869,5.346,14.248,14.248,0,0,1-1.93,3.7,11.514,11.514,0,0,1-2.917,2.891l-.328.2H46.043l-.328-.2A11.514,11.514,0,0,1,42.8,79.386a14.247,14.247,0,0,1-1.93-3.7A16.235,16.235,0,0,1,40,70.336V70.3a18.5,18.5,0,0,1,1.787-7.533L42.153,62Zm.31,8.351A15.8,15.8,0,0,0,59.14,64.7H43.884A15.8,15.8,0,0,0,42.7,70.351,12.4,12.4,0,0,0,44.98,77.8a10,10,0,0,0,1.884,1.986h9.295A10.1,10.1,0,0,0,58.115,77.7,12.434,12.434,0,0,0,60.327,70.351Z" transform="translate(-19.073 -28.266)" fill="#b2aa44"/>
    <path id="Path_10716" data-name="Path 10716" d="M67.348,88.4a1.348,1.348,0,0,1-.953-2.3c3.789-3.789,5.329-11.915,5.345-12a1.348,1.348,0,0,1,2.652.491c-.068.367-1.715,9.037-6.089,13.412A1.344,1.344,0,0,1,67.348,88.4Z" transform="translate(-36.815 -35.772)" fill="#8c8762"/>
    <path id="Path_10723" data-name="Path 10723" d="M-.651,3.695a1.345,1.345,0,0,1-1.007-.451,1.348,1.348,0,0,1,.109-1.9l3.363-3a1.348,1.348,0,0,1,1.9.109,1.348,1.348,0,0,1-.109,1.9l-3.363,3A1.343,1.343,0,0,1-.651,3.695Z" transform="translate(35.444 41.451)" fill="#8c8762"/>
    <path id="Path_10722" data-name="Path 10722" d="M-.652,1.65A1.349,1.349,0,0,1-1.947.677,1.348,1.348,0,0,1-1.028-.994l3.281-.953a1.348,1.348,0,0,1,1.671.919A1.348,1.348,0,0,1,3.005.643L-.276,1.6A1.349,1.349,0,0,1-.652,1.65Z" transform="translate(34.892 44.945)" fill="#8c8762"/>
    <path id="Path_10721" data-name="Path 10721" d="M-.652,1.615A1.349,1.349,0,0,1-1.947.64a1.348,1.348,0,0,1,.921-1.67L2.15-1.947a1.348,1.348,0,0,1,1.67.921A1.348,1.348,0,0,1,2.9.643l-3.176.918A1.349,1.349,0,0,1-.652,1.615Z" transform="translate(34.044 46.85)" fill="#8c8762"/>
    <path id="Path_10720" data-name="Path 10720" d="M.3,3.873A1.349,1.349,0,0,1-.99,2.912L-1.943-.264a1.348,1.348,0,0,1,.9-1.679,1.348,1.348,0,0,1,1.679.9l.953,3.176A1.349,1.349,0,0,1,.3,3.873Z" transform="translate(34.361 40.816)" fill="#8c8762"/>
    <path id="Path_10719" data-name="Path 10719" d="M.129,3.685a1.349,1.349,0,0,1-1.3-1.008L-1.956-.311A1.348,1.348,0,0,1-.993-1.956,1.348,1.348,0,0,1,.653-.993L1.434,2A1.348,1.348,0,0,1,.47,3.641,1.351,1.351,0,0,1,.129,3.685Z" transform="translate(33.726 43.357)" fill="#8c8762"/>
    <path id="Path_10718" data-name="Path 10718" d="M.619,3.873A1.349,1.349,0,0,1-.633,3.025L-1.9-.151A1.348,1.348,0,0,1-1.153-1.9,1.348,1.348,0,0,1,.6-1.153L1.87,2.023A1.349,1.349,0,0,1,.619,3.873Z" transform="translate(32.138 45.262)" fill="#8c8762"/>
    <path id="Path_10717" data-name="Path 10717" d="M-.336,3.555a1.348,1.348,0,0,1-1.338-1.2L-1.992-.5A1.348,1.348,0,0,1-.8-1.992,1.348,1.348,0,0,1,.688-.8l.318,2.858A1.348,1.348,0,0,1-.185,3.547,1.364,1.364,0,0,1-.336,3.555Z" transform="translate(35.949 37.957)" fill="#8c8762"/>
  </g>
</svg>
