<svg xmlns="http://www.w3.org/2000/svg" width="45.292" height="31.223" viewBox="0 0 45.292 31.223">
  <g id="mexican" transform="translate(-1.43 -10.729)">
    <path id="Path_10737" data-name="Path 10737" d="M36.66,20.7a20.866,20.866,0,0,0-6.4-2.633V14.46a.752.752,0,0,0-1.5,0v3.386a25.721,25.721,0,0,0-3.386-.3,24.326,24.326,0,0,0-5.718.752V14.46a.752.752,0,0,0-1.5,0v4.288a22.68,22.68,0,0,0-4.288,2.107A10.335,10.335,0,0,0,11.08,18.6a.724.724,0,1,0-.677,1.279,9.487,9.487,0,0,1,2.332,1.881,22.662,22.662,0,0,0-5.868,6.4,9.991,9.991,0,0,1-1.2-2.633,3.005,3.005,0,0,1,.9-3.16,3.166,3.166,0,0,0,1.053-2.107c.075-1.129.376-3.16,1.655-4.138a3.57,3.57,0,0,1,2.859-.6,2.98,2.98,0,0,0,3.16-1.655A4.1,4.1,0,0,1,17.7,11.526a4.629,4.629,0,0,1,3.611.828,3.163,3.163,0,0,0,3.16.075A8.447,8.447,0,0,1,28.534,11.3a7.912,7.912,0,0,1,7.448,5.116A10.129,10.129,0,0,1,36.66,20.7Z" transform="translate(-1.374 -0.495)" fill="#33aa4a"/>
    <path id="Path_10738" data-name="Path 10738" d="M36.459,17.821a7.938,7.938,0,0,0-7.3-4.74A7.694,7.694,0,0,0,25.1,14.209a3.163,3.163,0,0,1-3.16-.075,4.684,4.684,0,0,0-3.611-.828,4.567,4.567,0,0,0-2.408,2.332,2.98,2.98,0,0,1-3.16,1.655,3.307,3.307,0,0,0-2.859.6c-1.279,1.053-1.58,3.009-1.655,4.138A3.166,3.166,0,0,1,7.192,24.14a2.838,2.838,0,0,0-1.053,2.483,10.715,10.715,0,0,1-.376-1.2,3.005,3.005,0,0,1,.9-3.16,3.166,3.166,0,0,0,1.053-2.107c.075-1.129.376-3.16,1.655-4.138a3.57,3.57,0,0,1,2.859-.6,2.98,2.98,0,0,0,3.16-1.655A4.1,4.1,0,0,1,17.8,11.426a4.629,4.629,0,0,1,3.611.828,3.163,3.163,0,0,0,3.16.075A8.447,8.447,0,0,1,28.634,11.2a7.912,7.912,0,0,1,7.448,5.116A6.243,6.243,0,0,1,36.459,17.821Z" transform="translate(-1.399 -0.471)" fill="#289646"/>
    <path id="Path_10739" data-name="Path 10739" d="M2.8,42.044v.075a3.062,3.062,0,0,1-.9-2.257A24.987,24.987,0,0,1,4.082,29.63a9.6,9.6,0,0,0,1.2,2.031A22.966,22.966,0,0,0,2.8,42.044Zm43.486.15v-.15A22.3,22.3,0,0,0,37.11,23.912,16.935,16.935,0,0,0,37.035,20,24.491,24.491,0,0,1,47.192,40.088,3.323,3.323,0,0,1,46.289,42.194Z" transform="translate(-0.471 -2.65)" fill="#dfc18b"/>
    <path id="Path_10740" data-name="Path 10740" d="M25.338,21.5C14.128,21.5,5.1,30.9,5.1,42.34a2.617,2.617,0,0,0,2.633,2.633h35.21a2.617,2.617,0,0,0,2.633-2.633C45.577,30.9,36.548,21.5,25.338,21.5ZM11.42,34.666A2.182,2.182,0,1,1,13.6,32.484,2.183,2.183,0,0,1,11.42,34.666Zm6.32,6.245a2.182,2.182,0,1,1,2.182-2.182A2.233,2.233,0,0,1,17.74,40.911Zm1.881-9.1a2.183,2.183,0,0,1-2.182-2.182.752.752,0,0,1,1.5,0,.677.677,0,0,0,1.354,0,.752.752,0,0,1,1.5,0A2.183,2.183,0,0,1,19.62,31.807Zm5.868,10.082a.752.752,0,1,1,0-1.5.677.677,0,1,0,0-1.354.752.752,0,1,1,0-1.5,2.183,2.183,0,0,1,2.182,2.182A2.287,2.287,0,0,1,25.489,41.889Zm.226-13.317a.752.752,0,0,1,0-1.5.677.677,0,1,0,0-1.354.752.752,0,0,1,0-1.5A2.183,2.183,0,0,1,27.9,26.39,2.287,2.287,0,0,1,25.714,28.572ZM35.721,38.729a.754.754,0,0,1-.752-.752.677.677,0,1,0-.677.677.752.752,0,1,1,0,1.5,2.182,2.182,0,1,1,2.182-2.182A.754.754,0,0,1,35.721,38.729Zm.6-9.1a2.069,2.069,0,0,1-1.881,1.129,2.317,2.317,0,0,1-.978-.226.724.724,0,1,1,.677-1.279.761.761,0,0,0,.978-.3.74.74,0,0,0-.3-.978.74.74,0,0,1-.3-.978.719.719,0,0,1,.978-.3A2.267,2.267,0,0,1,36.323,29.625Zm4.966,13.843a2.182,2.182,0,1,1,2.182-2.182A2.233,2.233,0,0,1,41.288,43.469Z" transform="translate(-1.263 -3.021)" fill="#ffe4aa"/>
    <path id="Path_10741" data-name="Path 10741" d="M25.338,21.5C14.128,21.5,5.1,30.9,5.1,42.34a2.617,2.617,0,0,0,2.633,2.633h35.21a2.617,2.617,0,0,0,2.633-2.633C45.577,30.9,36.548,21.5,25.338,21.5Zm15.95,21.969H9.99a2.281,2.281,0,0,1-2.332-2.257,18.066,18.066,0,0,1,1.73-7.824,2.7,2.7,0,0,1-.15-.828,2.066,2.066,0,0,1,1.881-2.107,17.457,17.457,0,0,1,14.144-7.3A17.891,17.891,0,0,1,42.868,40.008a2.208,2.208,0,0,1,.527,1.429A2.088,2.088,0,0,1,41.288,43.469Z" transform="translate(-1.263 -3.021)" fill="#efd299"/>
    <path id="Path_10742" data-name="Path 10742" d="M21.182,41.6a2.182,2.182,0,1,0,2.182,2.182A2.233,2.233,0,0,0,21.182,41.6Zm0,2.859a.677.677,0,1,1,.677-.677A.674.674,0,0,1,21.182,44.459Z" transform="translate(-4.705 -7.999)" fill="#2c2e63"/>
    <path id="Path_10743" data-name="Path 10743" d="M22.354,44.177a.677.677,0,1,1-.677-.677A.674.674,0,0,1,22.354,44.177Z" transform="translate(-5.201 -8.469)" fill="#dfc18b"/>
    <path id="Path_10744" data-name="Path 10744" d="M28.957,42.159a2.183,2.183,0,0,1-2.182,2.182.752.752,0,1,1,0-1.5.677.677,0,0,0,0-1.354.752.752,0,1,1,0-1.5A2.287,2.287,0,0,1,28.957,42.159ZM23.164,32.152a2.182,2.182,0,1,1-4.364,0,.752.752,0,0,1,1.5,0,.677.677,0,1,0,1.354,0,.754.754,0,0,1,.752-.752A.711.711,0,0,1,23.164,32.152Zm-10.382.677a2.182,2.182,0,1,0,2.182,2.182A2.183,2.183,0,0,0,12.782,32.829Zm0,2.859a.677.677,0,1,1,.677-.677C13.534,35.387,13.233,35.688,12.782,35.688Z" transform="translate(-2.625 -5.473)" fill="#2c2e63"/>
    <circle id="Ellipse_5686" data-name="Ellipse 5686" cx="0.677" cy="0.677" r="0.677" transform="translate(9.48 28.861)" fill="#dfc18b"/>
    <path id="Path_10745" data-name="Path 10745" d="M34.334,27.282a2.183,2.183,0,0,1-2.182,2.182.752.752,0,0,1,0-1.5.677.677,0,1,0,0-1.354.752.752,0,0,1,0-1.5A2.183,2.183,0,0,1,34.334,27.282Zm8.5,3.235a2.069,2.069,0,0,1-1.881,1.129,2.317,2.317,0,0,1-.978-.226.724.724,0,1,1,.677-1.279.761.761,0,0,0,.978-.3.74.74,0,0,0-.3-.978.74.74,0,0,1-.3-.978.719.719,0,0,1,.978-.3A2.267,2.267,0,0,1,42.836,30.517Zm.15,8.351a.752.752,0,0,1-1.5,0,.677.677,0,1,0-.677.677.752.752,0,0,1,0,1.5,2.182,2.182,0,1,1,2.182-2.182Zm4.815,1.2a2.182,2.182,0,1,0,2.182,2.182A2.233,2.233,0,0,0,47.8,40.072Zm0,2.859a.677.677,0,1,1,.677-.677A.727.727,0,0,1,47.8,42.931Z" transform="translate(-7.776 -3.913)" fill="#2c2e63"/>
    <path id="Path_10746" data-name="Path 10746" d="M53.654,47.577a.677.677,0,1,1-.677-.677A.674.674,0,0,1,53.654,47.577Z" transform="translate(-12.952 -9.311)" fill="#dfc18b"/>
  </g>
</svg>
