<svg xmlns="http://www.w3.org/2000/svg" width="23" height="25.014" viewBox="0 0 23 25.014"><defs><style>.a{fill:#ffc751;}.b{fill:#ffaf40;}.c{fill:#ef4343;}.d{fill:#f75e5e;}.e{fill:#a1412b;}.f{fill:#fff7c7;}.g{fill:#fff370;}.h{fill:#eb9f67;}.i{fill:#d28146;}.j{fill:#f97c15;}.k{fill:#e86300;}.l{fill:#db765a;}.m{fill:#fc9595;}.n{fill:#fffdf3;}.o{fill:#ff993a;}</style></defs><g transform="translate(2.014 0.827)"><path class="a" d="M61.505,28.095A16.6,16.6,0,0,0,42.671,17.221l-1.453,23.33a.522.522,0,0,0,.81.467Z" transform="translate(-41.217 -16.92)"/><path class="b" d="M64.833,127.21a9.188,9.188,0,0,1,1.045,2.164l-1.331.883c-.761-1.272-1.8-2.3-3.141-2.151-2.186.238-1.658,2.346-.46,4.54l-2.1,1.39a14.191,14.191,0,0,0-7.88-3.091l.545-8.752c.141.158.252.283.29.325,1.454,1.563,8.649,4.684,15.2-2.539a16.467,16.467,0,0,1,1.19,1.367C67.28,122.083,63.489,125.321,64.833,127.21Z" transform="translate(-50.493 -114.945)"/><path class="b" d="M61.507,160.215,42.029,173.139a.522.522,0,0,1-.81-.467l.346-5.559a17.072,17.072,0,0,0,17.64-11.286A16.576,16.576,0,0,1,61.507,160.215Z" transform="translate(-41.218 -149.04)"/><g transform="translate(3.916 13.745)"><circle class="c" cx="2.508" cy="2.508" r="2.508"/><circle class="d" cx="1.843" cy="1.843" r="1.843" transform="translate(0.111 0.305)"/></g></g><path class="e"/><path class="f" d="M64.38,130.761s-3.258,2.154-1.735,4.295c1.215,1.708,1.957,5.342,2.207,6.744a.482.482,0,0,1-.942.206c-.361-1.4-1.848-6.364-4.692-6.054-3.628.4.221,5.941,2.2,8.485a1.723,1.723,0,0,1-.222,2.35.666.666,0,0,1-1.065-.269c-.8-2.149-3.5-7.246-11.231-7.785a.244.244,0,0,1-.226-.26l.525-7.957a.244.244,0,0,1,.422-.151c1.475,1.585,7.036,6.492,13.656-1.13Z" transform="translate(-46.292 -122.921)"/><path class="g" d="M347.048,274.1a.481.481,0,0,1-.467-.361c-.093-.36-.26-.954-.505-1.634a8.3,8.3,0,0,0-.216-4.37,25.706,25.706,0,0,1,1.663,5.8.482.482,0,0,1-.475.567Z" transform="translate(-328.963 -254.66)"/><path class="g" d="M265.974,380.5a.666.666,0,0,1-1.065-.269c-.108-.291-.251-.636-.437-1.017q.015-.317.016-.639a12.848,12.848,0,0,0-.518-3.623,34.516,34.516,0,0,0,2.226,3.2A1.723,1.723,0,0,1,265.974,380.5Z" transform="translate(-251.074 -356.632)"/><path class="h" d="M82.045,12.187l-1.007.668a.743.743,0,0,1-1.089-.313A16.409,16.409,0,0,0,63.246,2.9a.743.743,0,0,1-.816-.787L62.505.905a.742.742,0,0,1,.621-.688A17.624,17.624,0,0,1,82.33,11.3a.742.742,0,0,1-.285.882Z" transform="translate(-59.379 0)"/><path class="i" d="M377.1,98.807l-1.007.668A.742.742,0,0,1,375,99.162a16.414,16.414,0,0,0-.757-1.491,9.519,9.519,0,0,0,.079-1.222,9.375,9.375,0,0,0-1.686-5.378,17.617,17.617,0,0,1,4.746,6.855A.743.743,0,0,1,377.1,98.807Z" transform="translate(-354.435 -86.621)"/><g transform="translate(12.907 12.336)"><path class="j" d="M265.338,254.135l-.575.1a.337.337,0,0,1-.39-.274l-.167-.956a.337.337,0,0,1,.274-.39l.574-.1a.337.337,0,0,1,.39.274l.167.956A.337.337,0,0,1,265.338,254.135Z" transform="translate(-264.201 -252.51)"/><path class="k" d="M269.317,252.8l.167.956a.337.337,0,0,1-.274.39l-.575.1a.337.337,0,0,1-.363-.189,1.873,1.873,0,0,0,.675-1.533A.336.336,0,0,1,269.317,252.8Z" transform="translate(-268.073 -252.524)"/></g><g transform="translate(3.835 17.938)"><path class="j" d="M78.986,368.818l-.394-.43a.337.337,0,0,1,.021-.476l.716-.655a.337.337,0,0,1,.476.021l.394.43a.337.337,0,0,1-.021.476l-.716.655A.337.337,0,0,1,78.986,368.818Z" transform="translate(-78.504 -367.169)"/><path class="k" d="M80.177,379l-.716.655a.337.337,0,0,1-.476-.021l-.394-.431a.337.337,0,0,1-.036-.408,1.873,1.873,0,0,0,1.655-.256A.336.336,0,0,1,80.177,379Z" transform="translate(-78.503 -377.986)"/></g><g transform="translate(12.724 8.069)"><path class="j" d="M260.919,166.8l-.394-.43a.337.337,0,0,1,.021-.476l.716-.655a.337.337,0,0,1,.476.021l.394.43a.337.337,0,0,1-.021.476l-.716.655A.337.337,0,0,1,260.919,166.8Z" transform="translate(-260.437 -165.154)"/><path class="k" d="M262.11,176.987l-.716.655a.337.337,0,0,1-.476-.021l-.394-.431a.337.337,0,0,1-.036-.408,1.873,1.873,0,0,0,1.655-.256A.336.336,0,0,1,262.11,176.987Z" transform="translate(-260.436 -175.971)"/></g><g transform="translate(7.975 14.176)"><path class="j" d="M164.681,291.67l-.52.263a.337.337,0,0,1-.453-.149l-.438-.866a.337.337,0,0,1,.149-.453l.52-.263a.337.337,0,0,1,.453.149l.438.866A.337.337,0,0,1,164.681,291.67Z" transform="translate(-163.233 -290.166)"/><path class="k" d="M174.609,290.359l.438.866a.337.337,0,0,1-.148.453l-.521.263a.337.337,0,0,1-.4-.075,1.873,1.873,0,0,0,.2-1.663A.336.336,0,0,1,174.609,290.359Z" transform="translate(-173.45 -290.174)"/></g><g transform="translate(7.117 9.242)"><path class="j" d="M146.163,190.816l-.394-.43a.337.337,0,0,1,.021-.476l.716-.655a.337.337,0,0,1,.476.021l.394.43a.337.337,0,0,1-.021.476l-.716.655A.337.337,0,0,1,146.163,190.816Z" transform="translate(-145.681 -189.167)"/><path class="k" d="M147.355,201l-.716.655a.337.337,0,0,1-.476-.021l-.394-.431a.337.337,0,0,1-.036-.408,1.873,1.873,0,0,0,1.655-.256A.336.336,0,0,1,147.355,201Z" transform="translate(-145.681 -199.983)"/></g><g transform="translate(9.478 12.261)"><circle class="e" cx="0.246" cy="0.246" r="0.246"/></g><g transform="translate(11.587 6.016)"><circle class="e" cx="0.246" cy="0.246" r="0.246"/></g><g transform="translate(11.587 7.12)"><circle class="e" cx="0.246" cy="0.246" r="0.246"/></g><g transform="translate(18.304 12.007)"><circle class="e" cx="0.246" cy="0.246" r="0.246"/></g><g transform="translate(5.998 20.015)"><circle class="e" cx="0.246" cy="0.246" r="0.246"/></g><g transform="translate(4.025 20.507)"><circle class="e" cx="0.246" cy="0.246" r="0.246"/></g><g transform="translate(10.226 15.884)"><circle class="e" cx="0.246" cy="0.246" r="0.246"/></g><path class="l" d="M137.348,2.5a17.625,17.625,0,0,0-5.614-1.411,1.447,1.447,0,0,0-.3,2.878,16.406,16.406,0,0,1,4.68,1.313,1.451,1.451,0,0,0,1.9-.682l.065-.134A1.45,1.45,0,0,0,137.348,2.5Z" transform="translate(-123.807 -1.035)"/><g transform="translate(4.597 3.754)"><circle class="c" cx="2.508" cy="2.508" r="2.508"/><circle class="d" cx="1.843" cy="1.843" r="1.843" transform="translate(0.111 0.305)"/><circle class="m" cx="1.051" cy="1.051" r="1.051" transform="translate(0.52 0.457)"/></g><path class="n" d="M61.371,153.818c-3.474.393-6.074-1.964-7.013-2.974a.244.244,0,0,0-.422.151l-.281,4.255a.733.733,0,1,0,1.462.1l.12-1.814a9.422,9.422,0,0,0,5.36,1.8,8.381,8.381,0,0,0,.962-.055.734.734,0,0,0,.645-.794.746.746,0,0,0-.834-.662Z" transform="translate(-51.032 -143.401)"/><g transform="translate(4.025 9.998)"><circle class="e" cx="0.246" cy="0.246" r="0.246"/></g><g transform="translate(3.742 11.764)"><path class="j" d="M77.374,242.568l-.549-.2a.337.337,0,0,1-.2-.431l.328-.913a.337.337,0,0,1,.431-.2l.549.2a.337.337,0,0,1,.2.431l-.328.913A.337.337,0,0,1,77.374,242.568Z" transform="translate(-76.601 -240.803)"/><path class="k" d="M78.135,245.829l-.328.913a.337.337,0,0,1-.431.2l-.549-.2a.337.337,0,0,1-.222-.344,1.873,1.873,0,0,0,1.345-1A.336.336,0,0,1,78.135,245.829Z" transform="translate(-76.604 -245.181)"/></g><path class="o" d="M47.6,434.51l-5.572,3.7a.522.522,0,0,1-.81-.468l.075-1.2A18.563,18.563,0,0,0,47.6,434.51Z" transform="translate(-39.204 -413.282)"/></svg>