<svg xmlns="http://www.w3.org/2000/svg" width="24.742" height="35.316" viewBox="0 0 24.742 35.316">
  <g id="smoothie" transform="translate(-75.812 -0.208)">
    <path id="Path_10796" data-name="Path 10796" d="M169.9,9.781c-1.114,2.663-4.3,3.861-4.3,3.861s-1.38-3.118-.266-5.781S169.637,4,169.637,4,171.017,7.118,169.9,9.781Z" transform="translate(-83.102 -3.792)" fill="#7bde9e"/>
    <path id="Path_10797" data-name="Path 10797" d="M177.249,9.781c-1.114,2.663-4.3,3.861-4.3,3.861s-.063-.14-.147-.385a7.316,7.316,0,0,0,3.125-3.272,7.883,7.883,0,0,0-.119-5.4A8.485,8.485,0,0,1,176.99,4S178.371,7.118,177.249,9.781Z" transform="translate(-90.449 -3.792)" fill="#51d27f"/>
    <path id="Path_10798" data-name="Path 10798" d="M80.968,32.6c1.85,2.214,5.248,2.424,5.248,2.424s.4-3.384-1.45-5.6S79.518,27,79.518,27,79.118,30.384,80.968,32.6Z" transform="translate(-3.669 -25.18)" fill="#7bde9e"/>
    <path id="Path_10799" data-name="Path 10799" d="M86.245,34.61c-.007.259-.028.413-.028.413s-3.4-.21-5.248-2.424-1.45-5.6-1.45-5.6a7.886,7.886,0,0,1,1.3.21A7.951,7.951,0,0,0,82.293,32.4,7.345,7.345,0,0,0,86.245,34.61Z" transform="translate(-3.669 -25.18)" fill="#a6ebbf"/>
    <path id="Path_10800" data-name="Path 10800" d="M257.676,38.83l4.576-28.442,5.108-1.331a.982.982,0,1,0-.5-1.9l-5.732,1.493a.986.986,0,0,0-.722.792L255.7,38.732Z" transform="translate(-167.54 -6.698)" fill="#fc898c"/>
    <path id="Path_10801" data-name="Path 10801" d="M267.36,9.041l-5.108,1.324L257.676,38.8l-1.976-.091.105-.673,1,.049,4.478-27.818a.972.972,0,0,1,.708-.785l4.443-1.156a1.019,1.019,0,0,0,.771-1.163.205.205,0,0,0-.014-.063.977.977,0,0,1,.876.729A1,1,0,0,1,267.36,9.041Z" transform="translate(-167.54 -6.675)" fill="#f96364"/>
    <path id="Path_10802" data-name="Path 10802" d="M125.184,172.3H110.4a4.39,4.39,0,0,0-3,4.155v16.334a3.035,3.035,0,0,0,3.034,3.034h14.722a3.035,3.035,0,0,0,3.034-3.034V176.455A4.4,4.4,0,0,0,125.184,172.3Z" transform="translate(-29.631 -160.299)" fill="#d3f0fd"/>
    <path id="Path_10803" data-name="Path 10803" d="M333.418,176.455v16.334a3.035,3.035,0,0,1-3.034,3.034H328.1a3.035,3.035,0,0,0,3.034-3.034V176.455a4.384,4.384,0,0,0-2.992-4.155h2.284A4.384,4.384,0,0,1,333.418,176.455Z" transform="translate(-234.867 -160.299)" fill="#a6e1fb"/>
    <path id="Path_10804" data-name="Path 10804" d="M112.711,195.823h-2.284a3.029,3.029,0,0,1-3.027-3.034V176.455a4.381,4.381,0,0,1,3-4.155h2.284a4.381,4.381,0,0,0-3,4.155v16.334A3.029,3.029,0,0,0,112.711,195.823Z" transform="translate(-29.631 -160.299)" fill="#e5f6fe"/>
    <path id="Path_10805" data-name="Path 10805" d="M140,238.5v15.85a.751.751,0,0,0,.75.75h14.722a.751.751,0,0,0,.75-.75V238.5Z" transform="translate(-59.947 -221.86)" fill="#be90be"/>
    <path id="Path_10806" data-name="Path 10806" d="M331.134,238.5v15.85a.757.757,0,0,1-.75.757H328.1a.752.752,0,0,0,.75-.757V238.5Z" transform="translate(-234.867 -221.86)" fill="#a76ba7"/>
    <path id="Path_10807" data-name="Path 10807" d="M142.934,255.1H140.65a.752.752,0,0,1-.75-.757V238.5h2.284v15.85A.755.755,0,0,0,142.934,255.1Z" transform="translate(-59.854 -221.86)" fill="#d3b4d3"/>
    <path id="Path_10808" data-name="Path 10808" d="M148.906,128.591a1.582,1.582,0,0,1-1.584,1.584H133.084a1.587,1.587,0,0,1,.007-3.174h14.231A1.592,1.592,0,0,1,148.906,128.591Z" transform="translate(-52.043 -118.173)" fill="#a6e1fb"/>
    <path id="Path_10809" data-name="Path 10809" d="M328.568,128.591a1.582,1.582,0,0,1-1.584,1.584H324.7a1.587,1.587,0,0,0,0-3.174h2.284A1.592,1.592,0,0,1,328.568,128.591Z" transform="translate(-231.705 -118.173)" fill="#7ad1f9"/>
    <path id="Path_10810" data-name="Path 10810" d="M135.368,130.174h-2.284a1.587,1.587,0,0,1,.007-3.174h2.284a1.561,1.561,0,0,0-1.121.469,1.581,1.581,0,0,0,1.114,2.7Z" transform="translate(-52.043 -118.173)" fill="#d3f0fd"/>
  </g>
</svg>
