<svg xmlns="http://www.w3.org/2000/svg" width="29.967" height="32.069" viewBox="0 0 29.967 32.069">
  <g id="soup" transform="translate(-16.735 -1.731)">
    <path id="Path_10768" data-name="Path 10768" d="M168.446,58.487h0a1.526,1.526,0,0,0-2.187.022L155.418,69.871c-1.76-.98-3.9-.427-5.5,1.182a9.678,9.678,0,0,0-1.976,4.883,3.252,3.252,0,0,0,.5,2.671,3.2,3.2,0,0,0,2.653.508,9.546,9.546,0,0,0,4.85-1.989c1.6-1.609,2.147-3.762,1.174-5.534l11.3-10.925A1.531,1.531,0,0,0,168.446,58.487Z" transform="translate(-122.188 -52.591)" fill="#fbab68"/>
    <path id="Path_10769" data-name="Path 10769" d="M172.232,60.577h0a1.522,1.522,0,0,0-.41-.293,1.531,1.531,0,0,1-.309,1.774L160.471,72.734a.491.491,0,0,0-.105.553,4.738,4.738,0,0,1-1.325,5.229,9.546,9.546,0,0,1-4.85,1.989,3.86,3.86,0,0,1-2.243-.215,1.606,1.606,0,0,0,.288.406,3.2,3.2,0,0,0,2.653.508,9.546,9.546,0,0,0,4.85-1.989c1.6-1.609,2.147-3.762,1.174-5.534l11.3-10.925A1.531,1.531,0,0,0,172.232,60.577Z" transform="translate(-125.974 -54.681)" fill="#ea8e49"/>
    <path id="Path_10770" data-name="Path 10770" d="M34.688,202.7h0A14.687,14.687,0,0,1,20,188.016V185.6a.7.7,0,0,1,.7-.7H48.678a.7.7,0,0,1,.7.7v2.414A14.687,14.687,0,0,1,34.688,202.7Z" transform="translate(-3.266 -170.576)" fill="#f7f7f7"/>
    <path id="Path_10771" data-name="Path 10771" d="M21.257,188V184.9H20.7a.7.7,0,0,0-.7.7V188A14.7,14.7,0,0,0,34.688,202.7h0c.21,0,.42-.005.628-.014A14.7,14.7,0,0,1,21.257,188Z" transform="translate(-3.266 -170.577)" fill="#ededed"/>
    <path id="Path_10772" data-name="Path 10772" d="M34.688,243.77h0a14.7,14.7,0,0,0,14.687-14.707H20A14.7,14.7,0,0,0,34.688,243.77Z" transform="translate(-3.266 -211.643)" fill="#ffd766"/>
    <path id="Path_10773" data-name="Path 10773" d="M21.257,229.064H20a14.7,14.7,0,0,0,14.687,14.707h0c.21,0,.42-.005.628-.014A14.7,14.7,0,0,1,21.257,229.064Z" transform="translate(-3.266 -211.644)" fill="#ffc533"/>
    <rect id="Rectangle_1003" data-name="Rectangle 1003" width="13.954" height="3.259" transform="translate(24.445 30.541)" fill="#e0e0e0"/>
    <rect id="Rectangle_1004" data-name="Rectangle 1004" width="1.256" height="3.259" transform="translate(24.445 30.541)" fill="#c9c9c9"/>
    <path id="Path_10774" data-name="Path 10774" d="M106.848,257.315a.35.35,0,0,1-.35-.35V256.3a.35.35,0,0,1,.7,0v.661A.35.35,0,0,1,106.848,257.315Zm-4.884,4.891a.35.35,0,0,1-.35-.35v-.661a.35.35,0,1,1,.7,0v.661A.35.35,0,0,1,101.964,262.206Zm-8.372-3.493a.35.35,0,0,1-.35-.35V257.7a.35.35,0,1,1,.7,0v.661A.35.35,0,0,1,93.591,258.712Zm4.186-4.891a.35.35,0,0,1-.35-.35v-.661a.35.35,0,0,1,.7,0v.661A.35.35,0,0,1,97.777,253.822ZM111.8,260.11a.35.35,0,0,1-.35-.35V259.1a.35.35,0,0,1,.7,0v.661A.35.35,0,0,1,111.8,260.11Z" transform="translate(-71.378 -233.402)" fill="#333"/>
    <path id="Path_10776" data-name="Path 10776" d="M245.864,361.6a1.744,1.744,0,1,0,3.489,0Z" transform="translate(-213.315 -334.898)" fill="#9ccc65"/>
    <g id="Group_6310" data-name="Group 6310" transform="translate(25.523 24.669)">
      <path id="Path_10778" data-name="Path 10778" d="M146.771,335.106a1.258,1.258,0,1,1,1.256-1.258A1.258,1.258,0,0,1,146.771,335.106Z" transform="translate(-145.515 -332.591)" fill="#ed4848"/>
    </g>
    <g id="Group_6311" data-name="Group 6311" transform="translate(38.399 20.401)">
      <path id="Path_10780" data-name="Path 10780" d="M330.665,274.16a1.258,1.258,0,1,1,1.256-1.258A1.258,1.258,0,0,1,330.665,274.16Z" transform="translate(-329.409 -271.645)" fill="#ed4848"/>
    </g>
    <g id="Group_6312" data-name="Group 6312" transform="translate(20.639 19.778)">
      <path id="Path_10782" data-name="Path 10782" d="M77.017,265.256A1.258,1.258,0,1,1,78.273,264,1.258,1.258,0,0,1,77.017,265.256Z" transform="translate(-75.761 -262.741)" fill="#ed4848"/>
    </g>
    <g id="Group_6313" data-name="Group 6313" transform="translate(29.329 19.295)">
      <path id="Path_10784" data-name="Path 10784" d="M203.825,256.592c-.257-.131-.665.034-1.072.392-.122-.663-.427-1.134-.785-1.134s-.662.47-.785,1.134c-.406-.358-.815-.523-1.072-.392-.4.206-.28,1.064.275,1.916a1.782,1.782,0,0,0,3.162,0C204.1,257.656,204.228,256.8,203.825,256.592Z" transform="translate(-199.876 -255.85)" fill="#9ccc65"/>
    </g>
    <g id="Group_6316" data-name="Group 6316" transform="translate(23.822 1.731)">
      <path id="Path_10786" data-name="Path 10786" d="M202.176,10.716h0a4.04,4.04,0,0,0-.6-2.453l-.032-.051a2.191,2.191,0,0,1,.916-3.133l.191-.093.1.648a4.048,4.048,0,0,0,.566,1.529l.169.272a2.2,2.2,0,0,1-1.31,3.28Z" transform="translate(-195.612 -4.987)" fill="#f7f7f7"/>
      <path id="Path_10787" data-name="Path 10787" d="M202.874,12.828h0a4.04,4.04,0,0,0-.6-2.453l-.032-.051a2.18,2.18,0,0,1,0-2.315,2.189,2.189,0,0,0-.7,3.014l.032.051a4.04,4.04,0,0,1,.6,2.453h0a2.21,2.21,0,0,0,1.3-.963A2.254,2.254,0,0,1,202.874,12.828Z" transform="translate(-195.612 -7.797)" fill="#ededed"/>
      <g id="Group_6314" data-name="Group 6314" transform="translate(0 3.501)">
        <path id="Path_10789" data-name="Path 10789" d="M122.176,60.717h0a4.04,4.04,0,0,0-.6-2.453l-.032-.051a2.191,2.191,0,0,1,.916-3.133l.191-.093.1.648a4.048,4.048,0,0,0,.566,1.529l.169.272a2.2,2.2,0,0,1-1.31,3.28Z" transform="translate(-121.214 -54.988)" fill="#f7f7f7"/>
        <path id="Path_10790" data-name="Path 10790" d="M122.874,62.83h0a4.04,4.04,0,0,0-.6-2.453l-.032-.051a2.18,2.18,0,0,1,0-2.315,2.189,2.189,0,0,0-.7,3.014l.032.051a4.04,4.04,0,0,1,.6,2.453h0a2.21,2.21,0,0,0,1.3-.963A2.256,2.256,0,0,1,122.874,62.83Z" transform="translate(-121.214 -57.799)" fill="#ededed"/>
      </g>
      <g id="Group_6315" data-name="Group 6315" transform="translate(11.203 3.501)">
        <path id="Path_10792" data-name="Path 10792" d="M282.176,60.717h0a4.04,4.04,0,0,0-.6-2.453l-.032-.051a2.191,2.191,0,0,1,.916-3.133l.191-.093.1.648a4.047,4.047,0,0,0,.566,1.529l.169.272a2.2,2.2,0,0,1-1.31,3.28Z" transform="translate(-281.214 -54.988)" fill="#f7f7f7"/>
        <path id="Path_10793" data-name="Path 10793" d="M282.874,62.83h0a4.04,4.04,0,0,0-.6-2.453l-.032-.051a2.18,2.18,0,0,1,0-2.315,2.189,2.189,0,0,0-.7,3.014l.032.051a4.04,4.04,0,0,1,.6,2.453h0a2.21,2.21,0,0,0,1.3-.963A2.256,2.256,0,0,1,282.874,62.83Z" transform="translate(-281.214 -57.799)" fill="#ededed"/>
      </g>
    </g>
    <g id="Group_6317" data-name="Group 6317" transform="translate(22.439 9.151)">
      <path id="Path_10795" data-name="Path 10795" d="M110.3,112.812a.35.35,0,0,1-.35-.35v-1.15a.35.35,0,1,1,.7,0v1.15A.35.35,0,0,1,110.3,112.812Zm2.112,2.222a.35.35,0,0,1-.35-.35v-1.15a.35.35,0,1,1,.7,0v1.15A.35.35,0,0,1,112.407,115.034Zm-10.587-.266a.35.35,0,0,1-.35-.35v-1.15a.35.35,0,0,1,.7,0v1.15A.35.35,0,0,1,101.82,114.768Zm5.284.266a.35.35,0,0,1-.35-.35v-1.15a.35.35,0,0,1,.7,0v1.15A.35.35,0,0,1,107.1,115.034Z" transform="translate(-101.47 -110.961)" fill="#f7f7f7"/>
    </g>
  </g>
</svg>
