<svg xmlns="http://www.w3.org/2000/svg" xmlns:xlink="http://www.w3.org/1999/xlink" width="23.053" height="17.598" viewBox="0 0 23.053 17.598"><defs><style>.a{fill:url(#a);}.b,.c,.m,.q{opacity:0.5;}.b{fill:url(#b);}.c{fill:url(#c);}.d{fill:url(#d);}.e{fill:url(#e);}.f{fill:url(#f);}.g{fill:url(#g);}.h{fill:url(#h);}.i{fill:url(#i);}.j{fill:url(#j);}.k{fill:url(#k);}.l{fill:url(#l);}.m{fill:url(#m);}.n{fill:url(#s);}.o{fill:url(#t);}.p{fill:url(#u);}.q{fill:url(#ac);}.r{fill:url(#af);}.s{fill:url(#ag);}.t{fill:url(#ah);}</style><linearGradient id="a" x1="0.5" y1="0.683" x2="0.5" y2="0.91" gradientUnits="objectBoundingBox"><stop offset="0" stop-color="#f8f6fb"/><stop offset="1" stop-color="#efdcfb"/></linearGradient><linearGradient id="b" x1="0.515" y1="0.773" x2="0.489" y2="0.107" gradientUnits="objectBoundingBox"><stop offset="0" stop-color="#efdcfb" stop-opacity="0"/><stop offset="0.289" stop-color="#c7b6df" stop-opacity="0.29"/><stop offset="0.591" stop-color="#a495c7" stop-opacity="0.592"/><stop offset="0.84" stop-color="#8e80b7" stop-opacity="0.839"/><stop offset="1" stop-color="#8679b2"/></linearGradient><linearGradient id="c" x1="0.515" y1="0.516" x2="0.025" y2="0.467" xlink:href="#b"/><linearGradient id="d" x1="0.5" y1="0.263" x2="0.5" y2="1.118" gradientUnits="objectBoundingBox"><stop offset="0" stop-color="#ff7044"/><stop offset="1" stop-color="#f82814"/></linearGradient><linearGradient id="e" x1="0.476" y1="-0.04" x2="0.588" y2="2.539" gradientUnits="objectBoundingBox"><stop offset="0" stop-color="#f82814" stop-opacity="0"/><stop offset="1" stop-color="#c0272d"/></linearGradient><linearGradient id="f" x1="0.711" y1="3.951" x2="0.356" y2="3.334" xlink:href="#d"/><linearGradient id="g" x1="0.701" y1="3.281" x2="0.353" y2="2.638" xlink:href="#d"/><linearGradient id="h" x1="0.637" y1="1.946" x2="0.3" y2="1.249" xlink:href="#d"/><linearGradient id="i" x1="0.524" y1="0.556" x2="0.197" y2="-0.199" xlink:href="#d"/><linearGradient id="j" x1="0.524" y1="0.556" x2="0.197" y2="-0.199" xlink:href="#d"/><linearGradient id="k" x1="0.578" y1="0.665" x2="-0.166" y2="0.342" xlink:href="#e"/><linearGradient id="l" x1="-0.051" y1="0.5" x2="1.157" y2="0.5" gradientUnits="objectBoundingBox"><stop offset="0" stop-color="#534854"/><stop offset="1" stop-color="#342434"/></linearGradient><linearGradient id="m" x1="1.27" y1="0.917" x2="-0.629" y2="0.294" xlink:href="#b"/><linearGradient id="s" x1="0.506" y1="3.75" x2="0.151" y2="3.132" xlink:href="#d"/><linearGradient id="t" x1="0.543" y1="3.123" x2="0.195" y2="2.48" xlink:href="#d"/><linearGradient id="u" x1="0.563" y1="1.868" x2="0.227" y2="1.171" xlink:href="#d"/><linearGradient id="ac" x1="0.515" y1="0.516" x2="0.025" y2="0.467" xlink:href="#b"/><linearGradient id="af" x1="0.301" y1="3.548" x2="-0.054" y2="2.931" xlink:href="#d"/><linearGradient id="ag" x1="0.386" y1="2.964" x2="0.038" y2="2.321" xlink:href="#d"/><linearGradient id="ah" x1="0.49" y1="1.791" x2="0.153" y2="1.094" xlink:href="#d"/></defs><g transform="translate(0 -60.34)"><g transform="translate(5.448 60.34)"><path class="a" d="M152.127,91.894H140.851a2.175,2.175,0,0,1-2.175-2.175V86.34a2.175,2.175,0,0,1,2.175-2.175h11.276A2.175,2.175,0,0,1,154.3,86.34v3.379A2.175,2.175,0,0,1,152.127,91.894Z" transform="translate(-137.856 -83.088)"/><path class="b" d="M152.127,84.165H140.851a2.175,2.175,0,0,0-2.175,2.175v1.837l3.717,3.717h9.735a2.175,2.175,0,0,0,2.175-2.175V86.34A2.175,2.175,0,0,0,152.127,84.165Z" transform="translate(-137.856 -83.088)"/><path class="c" d="M334.784,84.165h-4.8v7.729h4.8a2.175,2.175,0,0,0,2.175-2.175V86.34A2.175,2.175,0,0,0,334.784,84.165Z" transform="translate(-320.512 -83.088)"/><path class="d" d="M120.795,66.939a.708.708,0,0,0,.873.356,25.635,25.635,0,0,1,15.326,0,.708.708,0,0,0,.873-.356,2.6,2.6,0,0,0-1.572-3.633,26.209,26.209,0,0,0-13.929,0A2.6,2.6,0,0,0,120.795,66.939Z" transform="translate(-120.529 -62.273)"/><path class="e" d="M137.6,102.062a2.594,2.594,0,0,1-.253,1.4.708.708,0,0,1-.873.356,25.635,25.635,0,0,0-15.327,0,.707.707,0,0,1-.574-.045,2.6,2.6,0,0,0,.264,1.068.708.708,0,0,0,.873.356,25.635,25.635,0,0,1,15.326,0,.708.708,0,0,0,.873-.356A2.608,2.608,0,0,0,137.6,102.062Z" transform="translate(-120.568 -100.176)"/><g transform="translate(2.728 0.275)"><path class="f" d="M181.085,76.043a.2.2,0,0,1-.139-.029.162.162,0,0,1-.04-.241,7.357,7.357,0,0,1,2.7-1.954.193.193,0,0,1,.25.083.171.171,0,0,1-.1.231,7.1,7.1,0,0,0-2.544,1.839A.2.2,0,0,1,181.085,76.043Z" transform="translate(-180.87 -73.468)"/><path class="g" d="M230.531,70.13a.2.2,0,0,1-.138-.034.162.162,0,0,1-.031-.243,7.357,7.357,0,0,1,2.76-1.862.193.193,0,0,1,.247.091.171.171,0,0,1-.105.228,7.1,7.1,0,0,0-2.6,1.752A.2.2,0,0,1,230.531,70.13Z" transform="translate(-228.085 -67.907)"/><path class="h" d="M279.5,68.4a.2.2,0,0,1-.135-.042.162.162,0,0,1-.017-.244,7.357,7.357,0,0,1,2.868-1.691.193.193,0,0,1,.241.106.171.171,0,0,1-.119.221,7.1,7.1,0,0,0-2.706,1.591A.2.2,0,0,1,279.5,68.4Z" transform="translate(-274.852 -66.414)"/><path class="i" d="M328.69,73.359a.2.2,0,0,1-.133-.049.162.162,0,0,1,0-.245,7.358,7.358,0,0,1,2.956-1.533.193.193,0,0,1,.235.119.171.171,0,0,1-.13.214,7.1,7.1,0,0,0-2.788,1.442A.2.2,0,0,1,328.69,73.359Z" transform="translate(-321.826 -71.295)"/><path class="j" d="M378.832,80.169a.2.2,0,0,1-.133-.049.162.162,0,0,1,0-.245,7.358,7.358,0,0,1,2.956-1.533.193.193,0,0,1,.235.119.171.171,0,0,1-.13.214,7.1,7.1,0,0,0-2.788,1.442A.2.2,0,0,1,378.832,80.169Z" transform="translate(-369.702 -77.797)"/></g><path class="k" d="M329.98,66.3a25.564,25.564,0,0,1,4.822.552l-4.294-4.294q-.262-.011-.528-.017Z" transform="translate(-320.512 -62.438)"/><path class="l" d="M288.588,69.237h2.056a.186.186,0,0,0,.186-.186V60.545a.186.186,0,0,0-.179-.186q-.512-.019-1.035-.019t-1.035.019a.186.186,0,0,0-.179.186v8.505A.186.186,0,0,0,288.588,69.237Z" transform="translate(-280.814 -60.34)"/></g><path class="m" d="M432.057,195.862h.2a2.172,2.172,0,0,0,1.74-.87l-1.935-1.935Z" transform="translate(-412.527 -126.718)"/><g transform="translate(2.724 64.69)"><path class="a" d="M91.863,188.139H80.587a2.175,2.175,0,0,1-2.175-2.175v-3.379a2.175,2.175,0,0,1,2.175-2.175H91.863a2.175,2.175,0,0,1,2.175,2.175v3.379A2.175,2.175,0,0,1,91.863,188.139Z" transform="translate(-77.592 -179.333)"/><path class="b" d="M91.863,180.409H80.587a2.175,2.175,0,0,0-2.175,2.175v1.837l3.717,3.717h9.735a2.175,2.175,0,0,0,2.175-2.175v-3.379A2.175,2.175,0,0,0,91.863,180.409Z" transform="translate(-77.592 -179.332)"/><path class="c" d="M274.52,180.409h-4.8v7.729h4.8a2.175,2.175,0,0,0,2.175-2.175v-3.379A2.175,2.175,0,0,0,274.52,180.409Z" transform="translate(-260.248 -179.332)"/><path class="d" d="M60.53,163.183a.708.708,0,0,0,.873.356,25.635,25.635,0,0,1,15.326,0,.708.708,0,0,0,.873-.356,2.6,2.6,0,0,0-1.572-3.633,26.209,26.209,0,0,0-13.929,0A2.6,2.6,0,0,0,60.53,163.183Z" transform="translate(-60.264 -158.517)"/><path class="e" d="M77.333,198.306a2.594,2.594,0,0,1-.253,1.4.708.708,0,0,1-.873.356,25.634,25.634,0,0,0-15.326,0,.708.708,0,0,1-.574-.045,2.6,2.6,0,0,0,.264,1.068.708.708,0,0,0,.873.356,25.634,25.634,0,0,1,15.326,0,.708.708,0,0,0,.873-.356A2.608,2.608,0,0,0,77.333,198.306Z" transform="translate(-60.304 -196.42)"/><g transform="translate(2.728 0.275)"><path class="n" d="M120.82,172.287a.2.2,0,0,1-.139-.029.162.162,0,0,1-.04-.241,7.357,7.357,0,0,1,2.7-1.954.193.193,0,0,1,.25.083.171.171,0,0,1-.1.231,7.1,7.1,0,0,0-2.544,1.839A.2.2,0,0,1,120.82,172.287Z" transform="translate(-120.605 -169.712)"/><path class="o" d="M170.266,166.376a.2.2,0,0,1-.138-.034.162.162,0,0,1-.031-.243,7.357,7.357,0,0,1,2.76-1.862.193.193,0,0,1,.247.091.171.171,0,0,1-.105.228,7.1,7.1,0,0,0-2.6,1.752A.2.2,0,0,1,170.266,166.376Z" transform="translate(-167.82 -164.153)"/><path class="p" d="M219.236,164.646a.2.2,0,0,1-.135-.042.162.162,0,0,1-.017-.244,7.358,7.358,0,0,1,2.868-1.691.193.193,0,0,1,.241.106.172.172,0,0,1-.119.221,7.1,7.1,0,0,0-2.706,1.591A.2.2,0,0,1,219.236,164.646Z" transform="translate(-214.587 -162.659)"/><path class="i" d="M268.426,169.6a.2.2,0,0,1-.133-.049.162.162,0,0,1,0-.245,7.358,7.358,0,0,1,2.956-1.533.193.193,0,0,1,.235.119.171.171,0,0,1-.13.214,7.1,7.1,0,0,0-2.788,1.442A.2.2,0,0,1,268.426,169.6Z" transform="translate(-261.562 -167.539)"/><path class="i" d="M318.568,176.414a.2.2,0,0,1-.133-.049.162.162,0,0,1,0-.245,7.358,7.358,0,0,1,2.956-1.533.193.193,0,0,1,.235.119.171.171,0,0,1-.13.214,7.1,7.1,0,0,0-2.788,1.442A.2.2,0,0,1,318.568,176.414Z" transform="translate(-309.438 -174.042)"/></g><path class="k" d="M269.716,162.54a25.566,25.566,0,0,1,4.822.552l-4.294-4.294q-.262-.011-.528-.017Z" transform="translate(-260.248 -158.682)"/><path class="l" d="M228.324,165.482h2.056a.186.186,0,0,0,.186-.186V156.79a.186.186,0,0,0-.179-.186q-.512-.019-1.035-.019t-1.035.019a.186.186,0,0,0-.179.186V165.3A.186.186,0,0,0,228.324,165.482Z" transform="translate(-220.55 -156.585)"/></g><path class="m" d="M371.667,292.139h.2a2.172,2.172,0,0,0,1.74-.87l-1.935-1.935Z" transform="translate(-354.867 -218.643)"/><g transform="translate(0 69.041)"><path class="a" d="M31.6,284.383H20.322a2.175,2.175,0,0,1-2.175-2.175v-3.379a2.175,2.175,0,0,1,2.175-2.175H31.6a2.175,2.175,0,0,1,2.175,2.175v3.379A2.175,2.175,0,0,1,31.6,284.383Z" transform="translate(-17.327 -275.577)"/><path class="b" d="M31.6,276.654H20.322a2.175,2.175,0,0,0-2.175,2.175v1.837l3.717,3.717H31.6a2.175,2.175,0,0,0,2.175-2.175v-3.379A2.175,2.175,0,0,0,31.6,276.654Z" transform="translate(-17.327 -275.577)"/><path class="q" d="M214.255,276.654h-4.8v7.729h4.8a2.175,2.175,0,0,0,2.175-2.175v-3.379A2.175,2.175,0,0,0,214.255,276.654Z" transform="translate(-199.983 -275.577)"/><path class="d" d="M.266,259.428a.708.708,0,0,0,.873.356A23.5,23.5,0,0,1,8.8,258.612a23.5,23.5,0,0,1,7.663,1.172.708.708,0,0,0,.873-.356,2.6,2.6,0,0,0-1.572-3.633,24.419,24.419,0,0,0-6.965-.942,24.419,24.419,0,0,0-6.965.942,2.6,2.6,0,0,0-1.572,3.633Z" transform="translate(0 -254.761)"/><path class="e" d="M17.069,294.55a2.594,2.594,0,0,1-.253,1.4.708.708,0,0,1-.873.356,23.5,23.5,0,0,0-7.663-1.172,23.5,23.5,0,0,0-7.663,1.172.707.707,0,0,1-.574-.045,2.6,2.6,0,0,0,.264,1.068.708.708,0,0,0,.873.356,23.5,23.5,0,0,1,7.663-1.172,23.5,23.5,0,0,1,7.663,1.172.708.708,0,0,0,.873-.356A2.608,2.608,0,0,0,17.069,294.55Z" transform="translate(-0.04 -292.664)"/><g transform="translate(2.728 0.275)"><path class="r" d="M60.556,268.532a.2.2,0,0,1-.139-.029.162.162,0,0,1-.04-.241,7.357,7.357,0,0,1,2.7-1.954.193.193,0,0,1,.25.083.171.171,0,0,1-.1.231,7.1,7.1,0,0,0-2.544,1.839A.2.2,0,0,1,60.556,268.532Z" transform="translate(-60.341 -265.957)"/><path class="s" d="M110,262.619a.2.2,0,0,1-.138-.034.162.162,0,0,1-.031-.243,7.357,7.357,0,0,1,2.76-1.862.193.193,0,0,1,.247.091.171.171,0,0,1-.105.228,7.1,7.1,0,0,0-2.6,1.752A.2.2,0,0,1,110,262.619Z" transform="translate(-107.556 -260.396)"/><path class="t" d="M158.972,260.89a.2.2,0,0,1-.135-.042.162.162,0,0,1-.017-.244,7.358,7.358,0,0,1,2.868-1.691.193.193,0,0,1,.241.106.171.171,0,0,1-.119.221,7.1,7.1,0,0,0-2.706,1.591A.2.2,0,0,1,158.972,260.89Z" transform="translate(-154.323 -258.902)"/><path class="j" d="M208.162,265.847a.2.2,0,0,1-.133-.049.162.162,0,0,1,0-.245,7.358,7.358,0,0,1,2.956-1.533.193.193,0,0,1,.235.119.172.172,0,0,1-.131.214A7.1,7.1,0,0,0,208.3,265.8.2.2,0,0,1,208.162,265.847Z" transform="translate(-201.298 -263.783)"/><path class="i" d="M258.3,272.658a.2.2,0,0,1-.133-.049.162.162,0,0,1,0-.245,7.357,7.357,0,0,1,2.956-1.533.193.193,0,0,1,.235.119.172.172,0,0,1-.13.214,7.1,7.1,0,0,0-2.788,1.442A.2.2,0,0,1,258.3,272.658Z" transform="translate(-249.174 -270.286)"/></g><path class="k" d="M209.451,258.785a25.562,25.562,0,0,1,4.822.552l-4.294-4.294q-.262-.011-.528-.017Z" transform="translate(-199.983 -254.927)"/><path class="l" d="M168.059,261.725h2.056a.186.186,0,0,0,.186-.186v-8.505a.186.186,0,0,0-.179-.186q-.512-.019-1.035-.019t-1.035.019a.186.186,0,0,0-.179.186v8.505a.186.186,0,0,0,.186.186Z" transform="translate(-160.285 -252.828)"/></g></g></svg>