<svg xmlns="http://www.w3.org/2000/svg" width="44.336" height="44.336" viewBox="0 0 44.336 44.336">
  <g id="winery" transform="translate(-1 -1)">
    <path id="Path_10902" data-name="Path 10902" d="M11.977,23.607c.12.333.249.643.379.964H5.17a1.643,1.643,0,0,1,.037-.31,3.357,3.357,0,0,1,.979-1.834c.3-.286.656-.476.979-.726a2.059,2.059,0,0,0,.794-1c.083-.226.628-.107.665.429a1.824,1.824,0,0,0,.074.512.44.44,0,0,0,.3.322c.333.024.517-.667.859-.607.157.024.268.214.333.4a1.705,1.705,0,0,0,.231.548c.36-.429,1.228-2.393,1.635-2.763.554-.5.388.25.259.691A10.77,10.77,0,0,0,11.977,23.607Z" transform="translate(-0.318 -1.403)" fill="#d75548"/>
    <path id="Path_10903" data-name="Path 10903" d="M26.8,7.546,42.371,1.1a1.277,1.277,0,0,1,1.663.689l2.28,5.5a1.277,1.277,0,0,1-.689,1.663L30.055,15.4a4.836,4.836,0,0,1-5.077-.515l-8.5,3.522-1.4-3.387,8.5-3.522A4.835,4.835,0,0,1,26.8,7.546Z" transform="translate(-1.074)" fill="#444445"/>
    <rect id="Rectangle_1023" data-name="Rectangle 1023" width="7.374" height="3.661" transform="translate(14 15.023) rotate(-22.5)" fill="#e9715f"/>
    <path id="Path_10904" data-name="Path 10904" d="M15.212,15.8l1.3-.538a.254.254,0,0,1,.33.132l1.393,3.363a.254.254,0,0,1-.14.327l-1.3.538a.248.248,0,0,1-.324-.134L15.077,16.12A.248.248,0,0,1,15.212,15.8Z" transform="translate(-1.073 -1.087)" fill="#d75548"/>
    <rect id="Rectangle_1024" data-name="Rectangle 1024" width="10.749" height="8.502" transform="translate(41.62 10.164) rotate(157.5)" fill="#efefed"/>
    <rect id="Rectangle_1025" data-name="Rectangle 1025" width="1.273" height="8.502" transform="translate(32.866 13.79) rotate(157.5)" fill="#c7c7c7"/>
    <rect id="Rectangle_1026" data-name="Rectangle 1026" width="1.273" height="8.502" transform="translate(41.62 10.165) rotate(157.5)" fill="#c7c7c7"/>
    <path id="Path_10905" data-name="Path 10905" d="M9.082,37.276v7.86L11.705,46.5a.352.352,0,0,1-.157.665H4.676A.351.351,0,0,1,4.51,46.5l2.623-1.367v-7.86C3.669,36.684,1,32.953,1,28.436A10.889,10.889,0,0,1,1.545,25H14.67a10.889,10.889,0,0,1,.545,3.436C15.215,32.953,12.546,36.684,9.082,37.276Z" transform="translate(0 -1.832)" fill="#e4e4e3"/>
    <path id="Path_10906" data-name="Path 10906" d="M2.1,30.038c.422,3.142,2.274,5.708,4.7,6.43H9.586c2.768-.824,4.789-4.05,4.789-7.794,0-.191-.024-.375-.034-.563C14.341,28.11,2.039,29.593,2.1,30.038Z" transform="translate(-0.084 -2.069)" fill="#e9715f"/>
    <path id="Path_10907" data-name="Path 10907" d="M3.217,26.843a30.429,30.429,0,0,0,.694,3.945A17.13,17.13,0,0,0,5.4,34.5a5.975,5.975,0,0,1-2.385-3.5A6.616,6.616,0,0,1,3.217,26.843Z" transform="translate(-0.136 -1.973)" fill="#fff"/>
  </g>
</svg>
