<svg xmlns="http://www.w3.org/2000/svg" width="35.695" height="21.672" viewBox="0 0 35.695 21.672"><defs><style>.a{fill:#272727;}.b{fill:#434343;}.c{fill:#222;}.d{fill:#f0ac7a;}.e{fill:#eb9f67;}.f{fill:#d5dfe8;}.g{fill:#cad2db;}.h{fill:#bfc7d1;}</style></defs><g transform="translate(-0.001)"><path class="a" d="M38.633,211.473H49v3.736H38.633Zm0,0" transform="translate(-35.895 -196.899)"/><path class="b" d="M206.507,37.39v3.938a2.043,2.043,0,0,1-2.044,2.042H201.4V41.182h2.773a.146.146,0,0,0,.146-.146V37.682a.146.146,0,0,0-.146-.146H201.4V35.348h3.065a2.043,2.043,0,0,1,2.044,2.042Zm0,0" transform="translate(-187.394 -32.844)"/><path class="c" d="M215.951,35.348h-2.189A2.043,2.043,0,0,1,215.8,37.39v3.938a2.043,2.043,0,0,1-2.043,2.042h2.189a2.043,2.043,0,0,0,2.044-2.042V37.39A2.043,2.043,0,0,0,215.951,35.348Zm0,0" transform="translate(-198.89 -32.844)"/><path class="b" d="M33.971,15.755H23.024a.876.876,0,0,1-.876-.876V.284A.283.283,0,0,1,22.432,0H34.563a.283.283,0,0,1,.283.283v14.6a.876.876,0,0,1-.876.876Zm0,0" transform="translate(-20.579 -0.001)"/><path class="c" d="M159.009,0V14.879a.876.876,0,0,1-.876.875h2.189a.876.876,0,0,0,.876-.876V.283A.283.283,0,0,0,160.915,0Zm0,0" transform="translate(-147.124)"/><path class="d" d="M139.337,159.051s-3.639,2.307-3.858,4.407,3.036,3.89,7.106,2.568c1.189-.386-2.122-4.761-3.248-6.974Zm0,0" transform="translate(-126.063 -148.166)"/><path class="e" d="M164.595,159.721a5.139,5.139,0,0,0-.915,2.293c-.19,2.205,2.112,4.142,5.331,3.8.355-.986-2.452-4.758-3.471-6.76C165.539,159.05,165.138,159.3,164.595,159.721Zm0,0" transform="translate(-152.29 -148.15)"/><path class="d" d="M179.351,115.5a11.491,11.491,0,0,0-5.334,2.758.549.549,0,0,0-.115.589c.486,1.186,2.286,5.334,4.356,6.983a2.575,2.575,0,0,0,2.941-.365c.232-.2-.895-4.348-1.849-9.966Zm0,0" transform="translate(-161.789 -107.673)"/><path class="e" d="M215.072,125.466c.232-.2-.895-4.348-1.849-9.966a12.571,12.571,0,0,0-2.257.734,7.007,7.007,0,0,0-.511.48.626.626,0,0,0-.115.589c.314,1.447,2.911,8.891,4.219,8.522a2.946,2.946,0,0,0,.512-.359Zm0,0" transform="translate(-195.689 -107.664)"/><path class="d" d="M392.428,159.051s3.639,2.307,3.858,4.407-3.117,3.89-7.187,2.568C387.91,165.639,391.3,161.264,392.428,159.051Zm0,0" transform="translate(-361.878 -148.166)"/><path class="e" d="M420.867,163.458c-.219-2.1-3.858-4.407-3.858-4.407-.172.339-.4.729-.653,1.147,1.022.863,2.2,2.094,2.321,3.26.144,1.379-1.247,2.625-3.373,2.943C418.6,166.85,421.056,165.269,420.867,163.458Zm0,0" transform="translate(-386.458 -148.166)"/><path class="d" d="M353.437,115.5a11.491,11.491,0,0,1,5.334,2.758.549.549,0,0,1,.115.589c-.486,1.186-2.286,5.334-4.356,6.983a2.576,2.576,0,0,1-2.941-.365c-.232-.2.895-4.348,1.849-9.966Zm0,0" transform="translate(-327.228 -107.673)"/><path class="e" d="M367.538,118.258A11.491,11.491,0,0,0,362.2,115.5q-.057.332-.113.657a9.624,9.624,0,0,1,3.258,2.1.55.55,0,0,1,.115.589c-.486,1.186-2.286,5.334-4.356,6.983,0,0-.041.024-.115.058a2.59,2.59,0,0,0,2.3-.058c2.07-1.649,3.871-5.8,4.356-6.983a.549.549,0,0,0-.115-.589Zm0,0" transform="translate(-335.994 -107.673)"/><path class="d" d="M246.251,93.7a11.727,11.727,0,0,0-4.905.928.546.546,0,0,0-.312.551c.175,1.719.964,8.9,1.958,9.714,1.131.923,5.387.923,6.518,0,.995-.812,1.783-8,1.958-9.714a.546.546,0,0,0-.312-.551,11.727,11.727,0,0,0-4.9-.928Zm0,0" transform="translate(-224.335 -87.381)"/><path class="e" d="M305.269,94.623a11.729,11.729,0,0,0-4.9-.928c-.387,0-.751.015-1.095.04a10.893,10.893,0,0,1,3.81.888.547.547,0,0,1,.312.551c-.175,1.719-.963,8.9-1.958,9.714a4.437,4.437,0,0,1-2.164.64c1.642.162,3.633-.051,4.354-.64.995-.812,1.783-8,1.958-9.714A.546.546,0,0,0,305.269,94.623Zm0,0" transform="translate(-278.476 -87.381)"/><path class="f" d="M60.49,272.683H31.68a1.3,1.3,0,0,1-1.29-1.313v-1.76H61.779v1.76a1.3,1.3,0,0,1-1.29,1.313Zm0,0" transform="translate(-28.236 -251.011)"/><path class="g" d="M34.619,255.47H1.077a1.094,1.094,0,0,1,0-2.188H34.619a1.094,1.094,0,0,1,0,2.188Zm0,0" transform="translate(0 -235.84)"/><path class="h" d="M467.83,253.281h-2.189a1.094,1.094,0,1,1,0,2.188h2.189a1.094,1.094,0,1,0,0-2.188Zm0,0" transform="translate(-433.229 -235.839)"/></g></svg>