<svg xmlns="http://www.w3.org/2000/svg" width="30.085" height="23.382" viewBox="0 0 30.085 23.382"><defs><style>.a{fill:#00b04b;}.b{fill:#ff5368;}.c{fill:#c5324f;}.d{fill:#ff7c8b;}.e{fill:#ffcf5d;}.f{fill:#4fe267;}.g{fill:#ff7e40;}.h{fill:#b6b0a2;}.i{fill:#e9e3d5;}</style></defs><g transform="translate(0 -57.034)"><path class="a" d="M69.514,92.4a1.434,1.434,0,0,1-1.643-.689,2.394,2.394,0,0,0-3.665-.553,1.41,1.41,0,0,1-1.766.153,2.406,2.406,0,0,0-3.514,1.111,1.366,1.366,0,0,1-1.539.85,2.154,2.154,0,0,0-1.857.661l8.071,8.071q.775.064,1.575.1l7.265-7.386A2.374,2.374,0,0,0,69.514,92.4Z" transform="translate(-52.267 -31.537)"/><path class="b" d="M251.527,64.72a4.238,4.238,0,0,0,5.645.312.423.423,0,0,0,.032-.628l-5.36-5.36a.423.423,0,0,0-.628.032A4.238,4.238,0,0,0,251.527,64.72Z" transform="translate(-235.579 -1.774)"/><path class="c" d="M244.61,62.625a3.788,3.788,0,0,1,0-5.35.821.821,0,0,0-1.271.138,4.692,4.692,0,0,0,6.484,6.484.821.821,0,0,0,.138-1.271A3.788,3.788,0,0,1,244.61,62.625Z" transform="translate(-228.342)"/><path class="d" d="M302.149,93.791a1.211,1.211,0,0,0,1.712,0l-1.712-1.712A1.211,1.211,0,0,0,302.149,93.791Z" transform="translate(-284.061 -32.985)"/><g transform="translate(16.07 59.209)"><path class="e" d="M273.5,94.439a2.9,2.9,0,0,0,.008.739.454.454,0,1,0,.9-.125,1.986,1.986,0,0,1-.005-.507.454.454,0,1,0-.9-.107Z" transform="translate(-273.484 -94.039)"/><path class="e" d="M283.183,124.588a1.984,1.984,0,0,1-.358-.359.454.454,0,0,0-.719.554,2.9,2.9,0,0,0,.523.523.454.454,0,0,0,.6-.038.461.461,0,0,0,.039-.044A.454.454,0,0,0,283.183,124.588Z" transform="translate(-281.509 -122.289)"/></g><path class="f" d="M11.1,150.926a.959.959,0,0,1-.339-1.182,1.686,1.686,0,0,0-1.183-2.29.985.985,0,0,1-.795-.95,1.669,1.669,0,0,0-2.077-1.54,1,1,0,0,1-1.148-.472,1.648,1.648,0,0,0-2.583-.3,1.305,1.305,0,0,1-1.317.309c-.983-.223-1.973.665-1.556,1.614a1.4,1.4,0,0,0,.593.647,1.179,1.179,0,0,1,.744,1.116,1.888,1.888,0,0,0,.507,1.512,2.1,2.1,0,0,0,.837.521c-.15-.086-.283-.17-.4-.249.117.08.25.163.4.249a.9.9,0,0,1,.232.128,12.673,12.673,0,0,0,2.053.841,29.166,29.166,0,0,0,6.728,1.2A1.688,1.688,0,0,0,11.1,150.926Z" transform="translate(0 -81.571)"/><path class="b" d="M121.99,141.057a4.236,4.236,0,0,0-3.587,6.492,35.929,35.929,0,0,0,6.637.685,4.236,4.236,0,0,0-3.05-7.177Z" transform="translate(-110.834 -79.085)"/><g transform="translate(9.946 63.334)"><path class="d" d="M183.048,169.534v-4.843a.454.454,0,0,0-.908,0v4.843a.452.452,0,0,0,.139.327q.28.028.564.052A.453.453,0,0,0,183.048,169.534Z" transform="translate(-181.383 -164.237)"/><circle class="d" cx="1.211" cy="1.211" r="1.211" transform="translate(0 1.664)"/></g><path class="c" d="M114.718,133.331a4.688,4.688,0,0,0-4.181,6.816q.6.14,1.243.257a3.783,3.783,0,1,1,5.334.544q.621.019,1.251.02a4.688,4.688,0,0,0-3.648-7.636Z" transform="translate(-103.562 -71.813)"/><g transform="translate(8.281 63.853)"><path class="e" d="M149.855,173.167a2.9,2.9,0,0,0-.517.528.454.454,0,1,0,.724.547,1.986,1.986,0,0,1,.355-.363.454.454,0,0,0-.562-.713Z" transform="translate(-148.757 -173.07)"/><path class="e" d="M150.39,230.746a1.985,1.985,0,0,1-.355-.363.454.454,0,1,0-.725.547,2.9,2.9,0,0,0,.517.529.454.454,0,1,0,.563-.713Z" transform="translate(-148.732 -226.846)"/><path class="e" d="M141.856,201.136a1.987,1.987,0,0,1,0-.507.454.454,0,0,0-.9-.117,2.9,2.9,0,0,0,0,.739.454.454,0,0,0,.45.4.467.467,0,0,0,.058,0A.454.454,0,0,0,141.856,201.136Z" transform="translate(-140.932 -198.527)"/><path class="e" d="M207.815,173.906a1.985,1.985,0,0,1,.355.363.454.454,0,0,0,.725-.547,2.9,2.9,0,0,0-.517-.529.454.454,0,1,0-.563.713Z" transform="translate(-203.722 -173.094)"/><path class="e" d="M208.771,230.33a.454.454,0,0,0-.636.089,1.987,1.987,0,0,1-.355.362.454.454,0,1,0,.562.713,2.894,2.894,0,0,0,.517-.528A.454.454,0,0,0,208.771,230.33Z" transform="translate(-203.689 -226.879)"/><path class="e" d="M223.907,200.556a.454.454,0,1,0-.9.116,1.986,1.986,0,0,1,0,.507.454.454,0,0,0,.392.509.464.464,0,0,0,.059,0,.454.454,0,0,0,.45-.4,2.9,2.9,0,0,0,0-.739Z" transform="translate(-218.18 -198.568)"/></g><path class="f" d="M245.422,103.634a1.882,1.882,0,0,1-1.891-.441,2.374,2.374,0,0,0-3.708.433,1.434,1.434,0,0,1-1.648.675,2.394,2.394,0,0,0-2.983,2.2,1.41,1.41,0,0,1-1.141,1.357,2.406,2.406,0,0,0-1.7,3.271,1.366,1.366,0,0,1-.487,1.689,2.181,2.181,0,0,0-.562.55q.7.024,1.421.024a32.584,32.584,0,0,0,9.622-1.3c.348-.112.976-.354,1.261-.466.324-.526.575-.176,1.4-1.007a2.689,2.689,0,0,0,.729-2.16,1.684,1.684,0,0,1,1.069-1.595,2,2,0,0,0,.851-.925C248.255,104.583,246.833,103.314,245.422,103.634Z" transform="translate(-217.712 -42.785)"/><path class="c" d="M313.977,202.434a3.232,3.232,0,1,0-6.213,1.5,26.705,26.705,0,0,0,4.952-1.03C313.2,202.745,313.615,202.588,313.977,202.434Z" transform="translate(-289.456 -134.077)"/><path class="b" d="M312.175,200.9v-.013a1.414,1.414,0,0,0-1.4-1.4h-.013a3.236,3.236,0,0,0-3.232,3.232v.013a1.411,1.411,0,0,0,.615,1.156c1.016-.133,1.984-.306,2.886-.517A3.225,3.225,0,0,0,312.175,200.9Z" transform="translate(-289.457 -134.077)"/><g transform="translate(3.433 57.903)"><path class="g" d="M160.934,72.075a.908.908,0,0,0-1.284,1.284l1.284,1.284a.908.908,0,0,0,1.284-1.284Z" transform="translate(-153.453 -71.81)"/><path class="g" d="M384.2,154.831h-1.816a.908.908,0,1,0,0,1.816H384.2a.908.908,0,1,0,0-1.816Z" transform="translate(-362.497 -149.953)"/><path class="g" d="M59.976,184.365l-1.284,1.284a.908.908,0,0,0,1.284,1.284l1.284-1.284a.908.908,0,1,0-1.284-1.284Z" transform="translate(-58.427 -177.502)"/></g><path class="h" d="M131.637,248.93H118.9l-8.354,9.129h0q0,.057,0,.114a2.985,2.985,0,0,0,2.984,2.864h10.734a2.985,2.985,0,0,0,2.984-2.864q0-.057,0-.114h0a11.528,11.528,0,0,0,6.1-6.82A1.8,1.8,0,0,0,131.637,248.93Z" transform="translate(-104.046 -180.62)"/><path class="i" d="M23.524,255.317h0a3.978,3.978,0,0,0-3.116-6.387H7.25a1.8,1.8,0,0,0-1.718,2.3,11.524,11.524,0,0,0,6.107,6.831h6.386a6.877,6.877,0,0,0,5.472-2.707Z" transform="translate(-5.143 -180.62)"/></g></svg>