<svg xmlns="http://www.w3.org/2000/svg" width="30" height="30" viewBox="0 0 30 30"><defs><style>.a{fill:#222;}.b,.c{fill:#fff;}.c{fill-rule:evenodd;}</style></defs><g transform="translate(-218 -752)"><circle class="a" cx="15" cy="15" r="15" transform="translate(218 752)"/><g transform="translate(225.198 756.648)"><path class="b" d="M17.251,15.938A2.438,2.438,0,1,1,14.813,13.5a2.438,2.438,0,0,1,2.438,2.438Z" transform="translate(-7.011 -5.099)"/><path class="c" d="M1.951,6.451A1.951,1.951,0,0,0,0,8.4v5.852A1.951,1.951,0,0,0,1.951,16.2h11.7A1.951,1.951,0,0,0,15.6,14.253V8.4a1.951,1.951,0,0,0-1.951-1.951H12.511a1.951,1.951,0,0,1-1.379-.572l-.808-.808A1.951,1.951,0,0,0,8.945,4.5H6.659a1.951,1.951,0,0,0-1.379.572l-.808.808a1.951,1.951,0,0,1-1.379.571ZM2.438,8.4a.488.488,0,1,0-.488-.488A.488.488,0,0,0,2.438,8.4Zm8.777,2.438A3.413,3.413,0,1,1,7.8,7.426,3.413,3.413,0,0,1,11.215,10.839Z"/></g></g></svg>