<svg xmlns="http://www.w3.org/2000/svg" width="15" height="15" viewBox="0 0 15 15"><defs><style>.a{fill:#222;}</style></defs><path class="a" d="M7.5,5.162a2.637,2.637,0,0,1,1.935.8,2.693,2.693,0,0,1,0,3.83,2.639,2.639,0,0,1-1.935.8,2.639,2.639,0,0,1-1.935-.8,2.693,2.693,0,0,1,0-3.83A2.637,2.637,0,0,1,7.5,5.162ZM13.593,7.2H15v1.34H13.593A5.884,5.884,0,0,1,11.85,12.2a6.056,6.056,0,0,1-3.662,1.771v1.4H6.812v-1.4A6.1,6.1,0,0,1,3.166,12.2,5.847,5.847,0,0,1,1.407,8.545H0V7.2H1.407A5.848,5.848,0,0,1,3.166,3.55,6.1,6.1,0,0,1,6.812,1.779V.375H8.188v1.4A6.06,6.06,0,0,1,11.85,3.55,5.88,5.88,0,0,1,13.593,7.2ZM7.516,12.63a4.6,4.6,0,0,0,3.374-1.388,4.582,4.582,0,0,0,1.391-3.367A4.577,4.577,0,0,0,10.89,4.508,4.6,4.6,0,0,0,7.516,3.12a4.649,4.649,0,0,0-3.39,1.388A4.556,4.556,0,0,0,2.719,7.875a4.554,4.554,0,0,0,1.407,3.367A4.652,4.652,0,0,0,7.516,12.63Z" transform="translate(0 -0.375)"/></svg>