<svg xmlns="http://www.w3.org/2000/svg" width="40" height="40" viewBox="0 0 40 40"><defs><style>.a{fill:#222;}.b{fill:#fff;}</style></defs><g transform="translate(-218 -752)"><circle class="a" cx="20" cy="20" r="20" transform="translate(218 752)"/><g transform="translate(231.333 762.77)"><path class="b" d="M109.119,170.8H98.205a.591.591,0,0,0-.6.583v9.106a2.847,2.847,0,0,0,2.879,2.807h6.35a2.847,2.847,0,0,0,2.879-2.807v-9.106A.59.59,0,0,0,109.119,170.8Zm-6.894,8.985a.735.735,0,0,1-1.469,0v-5.474a.735.735,0,0,1,1.469,0Zm4.344,0a.735.735,0,0,1-1.469,0v-5.474a.735.735,0,0,1,1.469,0Z" transform="translate(-96.995 -165.966)"/><path class="b" d="M88.068.907h-2.6V.687a.7.7,0,0,0-.7-.687h-3.1a.7.7,0,0,0-.7.687v.22h-2.6A1.789,1.789,0,0,0,76.544,2.67V3.8a.371.371,0,0,0,.376.366H89.5a.371.371,0,0,0,.376-.366V2.67A1.789,1.789,0,0,0,88.068.907Z" transform="translate(-76.544)"/></g></g></svg>