<svg xmlns="http://www.w3.org/2000/svg" width="23" height="23" viewBox="0 0 23 23"><defs><style>.a,.b{fill:#aaa8bf;}.a{fill-rule:evenodd;}</style></defs><path class="a" d="M11.5,21.563A10.063,10.063,0,1,0,1.438,11.5,10.062,10.062,0,0,0,11.5,21.563ZM11.5,23A11.5,11.5,0,1,0,0,11.5,11.5,11.5,0,0,0,11.5,23Z"/><path class="a" d="M20.6,20.969a1.437,1.437,0,0,1,0,1.437,7.188,7.188,0,0,1-12.451,0A1.437,1.437,0,0,1,9.392,20.25h9.962a1.437,1.437,0,0,1,1.245.719Z" transform="translate(-2.873 -7.313)"/><path class="b" d="M14.125,13.406c0,1.19-.644,0-1.437,0s-1.437,1.19-1.437,0,.644-2.156,1.438-2.156S14.125,12.216,14.125,13.406Zm5.75,0c0,1.19-.644,0-1.437,0S17,14.6,17,13.406s.644-2.156,1.438-2.156S19.875,12.216,19.875,13.406Z" transform="translate(-4.063 -4.063)"/></svg>