<svg xmlns="http://www.w3.org/2000/svg" width="20.324" height="15.97" viewBox="0 0 20.324 15.97"><defs><style>.a{fill:#222;}</style></defs><g transform="translate(-2.25 -5.625)"><path class="a" d="M16.042,19.054V14.335H9.464a.726.726,0,1,1,0-1.452h6.578V8.166A2.543,2.543,0,0,0,13.5,5.625H4.791A2.543,2.543,0,0,0,2.25,8.166V19.054a2.543,2.543,0,0,0,2.541,2.541H13.5a2.543,2.543,0,0,0,2.541-2.541Z"/><path class="a" d="M27.68,16.341l-2.39,2.391a.726.726,0,0,0,1.026,1.026l3.629-3.629a.726.726,0,0,0,0-1.026l-3.629-3.629A.726.726,0,0,0,25.29,12.5l2.39,2.391H23.625v1.452Z" transform="translate(-7.583 -2.006)"/></g></svg>