<svg xmlns="http://www.w3.org/2000/svg" width="16" height="14" viewBox="0 0 16 14"><defs><style>.a{fill:#222;}</style></defs><path class="a" d="M15.964,4.5H4.536A2.312,2.312,0,0,0,2.25,6.833v9.333A2.312,2.312,0,0,0,4.536,18.5H15.964a2.312,2.312,0,0,0,2.286-2.333V6.833A2.312,2.312,0,0,0,15.964,4.5ZM13.107,6.833a1.75,1.75,0,1,1-1.714,1.75A1.732,1.732,0,0,1,13.107,6.833Zm-8.571,10.5a1.155,1.155,0,0,1-1.143-1.167V13.7L6.78,10.628a1.691,1.691,0,0,1,2.35.069l2.32,2.363L7.263,17.333Zm12.571-1.167a1.155,1.155,0,0,1-1.143,1.167H8.88l4.336-4.427a1.678,1.678,0,0,1,2.2-.006l1.69,1.437Z" transform="translate(-2.25 -4.5)"/></svg>