<svg xmlns="http://www.w3.org/2000/svg" width="30" height="30" viewBox="0 0 30 30"><defs><style>.a{fill:#222;}.b{fill:#fff;}</style></defs><g transform="translate(-178 -752)"><circle class="a" cx="15" cy="15" r="15" transform="translate(178 752)"/><path class="b" d="M14.25,4.5h-10a2,2,0,0,0-2,2v8a2,2,0,0,0,2,2h10a2,2,0,0,0,2-2v-8a2,2,0,0,0-2-2Zm-2.5,2A1.5,1.5,0,1,1,10.25,8,1.5,1.5,0,0,1,11.75,6.5Zm-7.5,9a1,1,0,0,1-1-1V12.387L6.214,9.752a1.5,1.5,0,0,1,2.056.06l2.03,2.025L6.637,15.5Zm11-1a1,1,0,0,1-1,1h-6.2l3.794-3.794a1.491,1.491,0,0,1,1.926,0l1.479,1.232Z" transform="translate(183.75 756.5)"/></g></svg>