<svg xmlns="http://www.w3.org/2000/svg" width="30" height="30" viewBox="0 0 30 30"><defs><style>.a{fill:#222;}.b{fill:#fff;}</style></defs><g transform="translate(-138 -752)"><circle class="a" cx="15" cy="15" r="15" transform="translate(138 752)"/><path class="b" d="M11.944.793,6.489,11.7A.5.5,0,0,1,6,12a.721.721,0,0,1-.128-.017.515.515,0,0,1-.3-.192.535.535,0,0,1-.115-.337V6.545H.549A.537.537,0,0,1,.212,6.43a.515.515,0,0,1-.192-.3A.552.552,0,0,1,.054,5.77.514.514,0,0,1,.3,5.514L11.211.06A.512.512,0,0,1,11.458,0a.507.507,0,0,1,.384.162A.507.507,0,0,1,12,.456.52.52,0,0,1,11.944.793Z" transform="translate(146.994 761)"/></g></svg>