<svg xmlns="http://www.w3.org/2000/svg" width="15" height="15" viewBox="0 0 15 15"><defs><style>.a{fill:#222;}</style></defs><path class="a" d="M14.608,6.562l-.942.937.942.937q.015.015.066.059a.527.527,0,0,1,.074.073.784.784,0,0,0,.066.073.784.784,0,0,1,.066.073q.022.029.051.073a.462.462,0,0,1,.044.08A.417.417,0,0,1,15,8.943a.123.123,0,0,1-.008.073.208.208,0,0,1-.044.066l-.633.63a.2.2,0,0,1-.066.044.13.13,0,0,1-.074.008.391.391,0,0,1-.074-.022.483.483,0,0,1-.081-.044q-.044-.029-.074-.051a.8.8,0,0,1-.074-.066L13.8,9.507l-.074-.073-.059-.059-.942-.937-.942.937-.044.044q-.456.454-.618.293l-.633-.63a.365.365,0,0,1-.044-.088.131.131,0,0,1,.008-.1q.022-.051.044-.1a.487.487,0,0,1,.074-.1.81.81,0,0,1,.088-.088q.036-.03.1-.1l.081-.08.942-.937-.942-.937L10.775,6.5,10.7,6.423l-.066-.073-.074-.08L10.5,6.2l-.044-.08-.022-.073.008-.073.044-.066.633-.63a.2.2,0,0,1,.066-.044.13.13,0,0,1,.074-.007.391.391,0,0,1,.074.022.484.484,0,0,1,.081.044.96.96,0,0,1,.081.059q.037.03.081.073a.8.8,0,0,0,.074.066.528.528,0,0,1,.074.073q.044.051.059.066l.942.937.942-.937a.378.378,0,0,1,.081-.088.891.891,0,0,0,.1-.1.763.763,0,0,1,.088-.088.511.511,0,0,1,.1-.073q.044-.022.1-.044a.175.175,0,0,1,.1-.015.164.164,0,0,1,.088.051l.633.63q.162.161-.294.615Zm-6.3,8.262-3.6-3.574V3.735l3.6-3.56Q8.753-.264,9.43.4V14.6q-.662.659-1.118.22ZM0,10.312V4.673a.9.9,0,0,1,.28-.659.907.907,0,0,1,.662-.278H3.766V11.25H.942a.919.919,0,0,1-.662-.271A.892.892,0,0,1,0,10.312Z" transform="translate(0 0)"/></svg>