<svg xmlns="http://www.w3.org/2000/svg" width="30" height="30" viewBox="0 0 30 30"><defs><style>.a,.d{fill:none;}.a{stroke:#fff;}.b{fill:#fff;fill-rule:evenodd;}.c{stroke:none;}</style></defs><g transform="translate(-218 -752)"><g class="a" transform="translate(218 752)"><circle class="c" cx="15" cy="15" r="15"/><circle class="d" cx="15" cy="15" r="14.5"/></g><g transform="translate(217.625 753.124)"><path class="b" d="M13.075,7.875a.711.711,0,0,1,.7.722V20.153a.7.7,0,1,1-1.4,0V8.6A.711.711,0,0,1,13.075,7.875Zm5.6,0a.711.711,0,0,1,.7.722V20.153a.7.7,0,1,1-1.4,0V8.6A.711.711,0,0,1,18.675,7.875Z" transform="translate(0 0)"/></g></g></svg>