<svg width="30" height="30" viewBox="0 0 30 30" fill="none" xmlns="http://www.w3.org/2000/svg">
<path d="M15 29.5C23.0081 29.5 29.5 23.0081 29.5 15C29.5 6.99187 23.0081 0.5 15 0.5C6.99187 0.5 0.5 6.99187 0.5 15C0.5 23.0081 6.99187 29.5 15 29.5Z" stroke="#454B4C"/>
<path fill-rule="evenodd" clip-rule="evenodd" d="M12.6999 8.99902C12.7933 9.00046 12.8854 9.02027 12.9712 9.05733C13.0569 9.09439 13.1344 9.14798 13.1995 9.21502C13.2645 9.28207 13.3156 9.36127 13.35 9.44809C13.3844 9.53491 13.4014 9.62765 13.3999 9.72102V21.277C13.3999 21.4627 13.3261 21.6407 13.1949 21.772C13.0636 21.9033 12.8855 21.977 12.6999 21.977C12.5142 21.977 12.3362 21.9033 12.2049 21.772C12.0736 21.6407 11.9999 21.4627 11.9999 21.277V9.72402C11.998 9.6304 12.0147 9.53733 12.0489 9.45017C12.0831 9.363 12.1342 9.28345 12.1993 9.21608C12.2643 9.14872 12.342 9.09486 12.4279 9.05761C12.5138 9.02037 12.6063 9.00045 12.6999 8.99902V8.99902ZM18.2999 8.99902C18.3933 9.00046 18.4854 9.02027 18.5712 9.05733C18.6569 9.09439 18.7344 9.14798 18.7995 9.21502C18.8645 9.28207 18.9156 9.36127 18.95 9.44809C18.9844 9.53491 19.0014 9.62765 18.9999 9.72102V21.277C18.9999 21.3689 18.9818 21.46 18.9466 21.5449C18.9114 21.6298 18.8599 21.707 18.7949 21.772C18.7299 21.837 18.6527 21.8886 18.5678 21.9237C18.4828 21.9589 18.3918 21.977 18.2999 21.977C18.208 21.977 18.1169 21.9589 18.032 21.9237C17.9471 21.8886 17.8699 21.837 17.8049 21.772C17.7399 21.707 17.6884 21.6298 17.6532 21.5449C17.618 21.46 17.5999 21.3689 17.5999 21.277V9.72402C17.598 9.6304 17.6147 9.53733 17.6489 9.45017C17.6831 9.363 17.7342 9.28345 17.7993 9.21608C17.8643 9.14872 17.942 9.09486 18.0279 9.05761C18.1138 9.02037 18.2063 9.00045 18.2999 8.99902V8.99902Z" fill="#454B4C"/>
</svg>
