<svg xmlns="http://www.w3.org/2000/svg" width="30" height="30" viewBox="0 0 30 30"><defs><style>.a,.d{fill:none;}.a{stroke:#fff;}.b{fill:#fff;}.c{stroke:none;}</style></defs><g transform="translate(-218 -752)"><g class="a" transform="translate(218 752)"><circle class="c" cx="15" cy="15" r="15"/><circle class="d" cx="15" cy="15" r="14.5"/></g><path class="b" d="M9,8.412a.958.958,0,0,1,.107-.443.828.828,0,0,1,1.163-.354L20.56,13.7a.878.878,0,0,1,.332.355A.944.944,0,0,1,20.56,15.3L10.27,21.385a.814.814,0,0,1-.415.115A.886.886,0,0,1,9,20.589Z" transform="translate(219 752.5)"/></g></svg>