<svg width="30" height="30" viewBox="0 0 30 30" fill="none" xmlns="http://www.w3.org/2000/svg">
<path d="M15 29.5C23.0081 29.5 29.5 23.0081 29.5 15C29.5 6.99187 23.0081 0.5 15 0.5C6.99187 0.5 0.5 6.99187 0.5 15C0.5 23.0081 6.99187 29.5 15 29.5Z" stroke="#454B4C"/>
<path d="M9.99988 8.91208C9.99939 8.75796 10.0361 8.60599 10.1069 8.46908C10.1566 8.36633 10.2271 8.27498 10.3139 8.20076C10.4006 8.12655 10.5018 8.07108 10.611 8.03784C10.7202 8.00459 10.8351 7.99429 10.9485 8.00759C11.0619 8.02088 11.1713 8.05748 11.2699 8.11508L21.5599 14.2001C21.7017 14.2848 21.8168 14.4079 21.8919 14.5551C22.0046 14.7661 22.0329 15.0119 21.9713 15.243C21.9097 15.4741 21.7626 15.6732 21.5599 15.8001L11.2699 21.8851C11.1444 21.96 11.001 21.9997 10.8549 22.0001C10.6209 21.992 10.3997 21.8916 10.2395 21.7209C10.0793 21.5502 9.99313 21.3231 9.99988 21.0891V8.91208Z" fill="#454B4C"/>
</svg>
