<svg xmlns="http://www.w3.org/2000/svg" width="40" height="40" viewBox="0 0 40 40"><defs><style>.a{fill:#23cbd8;}.b{fill:#fff;}</style></defs><g transform="translate(-315 -747)"><circle class="a" cx="20" cy="20" r="20" transform="translate(315 747)"/><path class="b" d="M24.838,4.55,4.763,13.3a.46.46,0,0,0,.016.837l5.43,3.068a.875.875,0,0,0,1-.1L21.917,7.875c.071-.06.24-.175.306-.11s-.038.235-.1.306L12.862,18.506a.874.874,0,0,0-.088,1.045l3.549,5.693a.462.462,0,0,0,.831-.011l8.3-20.075a.46.46,0,0,0-.618-.607Z" transform="translate(318.999 752.497)"/></g></svg>