<svg width="49" height="56" viewBox="0 0 49 56" fill="none" xmlns="http://www.w3.org/2000/svg">
<g filter="url(#filter0_d)">
<path d="M25.0642 43.7787C24.5323 43.7787 24.0515 43.5066 23.7779 43.0508L20.6286 37.8017L20.5199 37.6205L20.3143 37.5722C16.4511 36.6641 12.9475 34.4488 10.4491 31.3343C9.20106 29.7786 8.22894 28.0421 7.5597 26.173C6.86723 24.2391 6.51611 22.2069 6.51611 20.1331C6.51611 15.3484 8.37942 10.85 11.7628 7.46666C15.1462 4.08328 19.6445 2.21997 24.4292 2.21997C29.2143 2.21997 33.7129 4.08328 37.0964 7.46667C40.4799 10.85 42.3432 15.3483 42.3432 20.1331C42.3432 23.9813 41.1416 27.6485 38.8684 30.7382C37.7741 32.2257 36.4626 33.5314 34.9704 34.6191C33.4602 35.7199 31.7981 36.5728 30.0301 37.1542L29.8533 37.2123L29.7576 37.3719L26.3504 43.0508C26.0768 43.5066 25.596 43.7787 25.0642 43.7787Z" fill="#F6F6F9"/>
<path d="M25.0642 43.2787C25.2344 43.2787 25.6588 43.2314 25.9216 42.7936L29.5203 36.7955L29.8739 36.6792C31.5923 36.1142 33.2079 35.2851 34.6758 34.215C36.1266 33.1575 37.4017 31.888 38.4657 30.4419C40.6753 27.4386 41.8432 23.8739 41.8432 20.1331C41.8432 15.4819 40.0319 11.1091 36.7429 7.82023C33.4538 4.53128 29.0807 2.71997 24.4292 2.71997C19.7781 2.71997 15.4053 4.53127 12.1164 7.82021C8.82741 11.1092 7.01611 15.4819 7.01611 20.1331C7.01611 22.1493 7.35738 24.1247 8.03044 26.0045C8.68093 27.8212 9.62589 29.5092 10.8391 31.0214C13.268 34.0492 16.6737 36.2028 20.4287 37.0854L20.84 37.1821L24.2067 42.7935C24.4695 43.2314 24.8939 43.2787 25.0642 43.2787ZM25.0642 44.2787C24.4009 44.2787 23.7376 43.9552 23.3492 43.3081L20.1999 38.0589C12.0694 36.1477 6.01611 28.8475 6.01611 20.1331C6.01611 9.96397 14.2601 1.71997 24.4292 1.71997C34.5992 1.71997 42.8432 9.96397 42.8432 20.1331C42.8432 28.2925 37.5367 35.2121 30.1863 37.6292L26.7791 43.3081C26.3908 43.9552 25.7275 44.2787 25.0642 44.2787Z" fill="#23CBD8"/>
</g>
<path d="M18.1782 19.5671H22.1112V24.7321H18.1782V19.5671Z" fill="#4CE3EF"/>
<path d="M20.145 19.5671H22.111V24.7321H20.145V19.5671Z" fill="#23CBD8"/>
<path d="M20.1491 32.0901C19.6277 32.0901 19.1276 31.883 18.7589 31.5143C18.3902 31.1456 18.1831 30.6455 18.1831 30.1241V23.0111H22.1161V30.1241C22.1161 30.3823 22.0652 30.6381 21.9664 30.8767C21.8675 31.1153 21.7226 31.332 21.5399 31.5146C21.3573 31.6972 21.1404 31.842 20.9018 31.9407C20.6631 32.0395 20.4074 32.0902 20.1491 32.0901Z" fill="#636363"/>
<path d="M28.52 19.5671H32.453V24.7321H28.52V19.5671Z" fill="#4CE3EF"/>
<path d="M30.4861 19.5671H32.4531V24.7321H30.4861V19.5671Z" fill="#23CBD8"/>
<path d="M30.4831 32.0901C29.9617 32.0901 29.4616 31.883 29.0929 31.5143C28.7242 31.1456 28.5171 30.6455 28.5171 30.1241V23.0111H32.4501V30.1241C32.4501 30.3823 32.3992 30.6381 32.3003 30.8767C32.2015 31.1153 32.0566 31.332 31.8739 31.5146C31.6912 31.6972 31.4744 31.842 31.2357 31.9407C30.9971 32.0395 30.7414 32.0902 30.4831 32.0901V32.0901Z" fill="#636363"/>
<path d="M32.4531 23.0101V30.1231C32.4532 30.3815 32.4025 30.6373 32.3036 30.876C32.2048 31.1147 32.0599 31.3316 31.8773 31.5143C31.6946 31.697 31.4777 31.8419 31.239 31.9407C31.0003 32.0395 30.7444 32.0902 30.4861 32.0901V23.0101H32.4531Z" fill="#222222"/>
<path d="M32.4532 19.8641H29.1532C28.5747 19.8641 28.02 19.6343 27.611 19.2253C27.2019 18.8163 26.9722 18.2615 26.9722 17.6831V13.5111C26.9722 12.2571 27.4703 11.0545 28.357 10.1679C29.2436 9.28121 30.4462 8.78308 31.7002 8.78308H32.4482L32.4532 19.8641Z" fill="#D5D4E0"/>
<path d="M22.8611 9.14905V14.135C22.8611 14.3712 22.7673 14.5977 22.6003 14.7647C22.4333 14.9317 22.2068 15.0256 21.9706 15.0256C21.7344 15.0256 21.5079 14.9317 21.3409 14.7647C21.1739 14.5977 21.0801 14.3712 21.0801 14.135V9.14905H19.2101V14.135C19.2101 14.3712 19.1163 14.5977 18.9493 14.7647C18.7823 14.9317 18.5558 15.0256 18.3196 15.0256C18.0834 15.0256 17.8569 14.9317 17.6899 14.7647C17.5229 14.5977 17.4291 14.3712 17.4291 14.135V9.14905H15.5161V16.326C15.5161 17.3432 15.9202 18.3186 16.6394 19.0378C17.3586 19.757 18.334 20.161 19.3511 20.161H20.9381C21.9552 20.161 22.9307 19.757 23.6499 19.0378C24.3691 18.3186 24.7731 17.3432 24.7731 16.326V9.14905H22.8611Z" fill="#D5D4E0"/>
<path d="M24.773 9.14905V16.327C24.7733 16.8307 24.6743 17.3295 24.4816 17.7948C24.289 18.2601 24.0065 18.683 23.6503 19.039C23.2942 19.3951 22.8713 19.6775 22.4059 19.87C21.9405 20.0626 21.4417 20.1614 20.938 20.161H20.144V9.14905H21.079V14.135C21.079 14.3711 21.1728 14.5975 21.3397 14.7644C21.5066 14.9313 21.733 15.025 21.969 15.025V15.025C22.2051 15.025 22.4315 14.9313 22.5984 14.7644C22.7653 14.5975 22.859 14.3711 22.859 14.135V9.14905H24.773Z" fill="#AAA8BF"/>
<path d="M22.111 23.0101V30.1231C22.1112 30.3814 22.0604 30.6372 21.9617 30.8758C21.8629 31.1144 21.7181 31.3313 21.5355 31.5139C21.353 31.6966 21.1362 31.8415 20.8976 31.9404C20.659 32.0392 20.4033 32.0901 20.145 32.0901V23.0101H22.111Z" fill="#222222"/>
<path d="M32.4531 8.78308V19.8641H30.4861V8.94208C30.8837 8.83611 31.2936 8.78266 31.7051 8.78308H32.4531Z" fill="#AAA8BF"/>
<defs>
<filter id="filter0_d" x="0.0161133" y="0.719971" width="48.8271" height="54.5588" filterUnits="userSpaceOnUse" color-interpolation-filters="sRGB">
<feFlood flood-opacity="0" result="BackgroundImageFix"/>
<feColorMatrix in="SourceAlpha" type="matrix" values="0 0 0 0 0 0 0 0 0 0 0 0 0 0 0 0 0 0 127 0" result="hardAlpha"/>
<feOffset dy="5"/>
<feGaussianBlur stdDeviation="3"/>
<feColorMatrix type="matrix" values="0 0 0 0 0 0 0 0 0 0 0 0 0 0 0 0 0 0 0.161 0"/>
<feBlend mode="normal" in2="BackgroundImageFix" result="effect1_dropShadow"/>
<feBlend mode="normal" in="SourceGraphic" in2="effect1_dropShadow" result="shape"/>
</filter>
</defs>
</svg>
