<svg width="50" height="56" viewBox="0 0 50 56" fill="none" xmlns="http://www.w3.org/2000/svg">
<g filter="url(#filter0_d)">
<path d="M25.3051 43.5907C24.7733 43.5907 24.2925 43.3186 24.0189 42.8628L20.8696 37.6137L20.7609 37.4325L20.5552 37.3842C16.692 36.4761 13.1885 34.2608 10.69 31.1463C9.44203 29.5907 8.46991 27.8542 7.80067 25.9851C7.1082 24.0511 6.75708 22.0189 6.75708 19.9451C6.75708 15.1604 8.62039 10.6621 12.0038 7.27867C15.3872 3.89529 19.8855 2.03198 24.6702 2.03198C29.4552 2.03198 33.9539 3.89529 37.3374 7.27868C40.7208 10.662 42.5842 15.1604 42.5842 19.9451C42.5842 23.7933 41.3826 27.4605 39.1094 30.5502C38.015 32.0377 36.7035 33.3434 35.2113 34.4311C33.7012 35.5319 32.039 36.3848 30.2711 36.9662L30.0943 37.0243L29.9985 37.1839L26.5913 42.8628C26.3178 43.3186 25.837 43.5907 25.3051 43.5907Z" fill="#F6F6F9"/>
<path d="M25.3051 43.0907C25.4754 43.0907 25.8998 43.0435 26.1626 42.6056L29.7613 36.6075L30.1149 36.4912C31.8332 35.9262 33.4488 35.0971 34.9168 34.027C36.3676 32.9695 37.6427 31.7001 38.7066 30.2539C40.9163 27.2506 42.0842 23.6859 42.0842 19.9451C42.0842 15.2939 40.2728 10.9211 36.9838 7.63224C33.6948 4.34329 29.3217 2.53198 24.6702 2.53198C20.0191 2.53198 15.6463 4.34328 12.3573 7.63222C9.06838 10.9212 7.25708 15.294 7.25708 19.9451C7.25708 21.9613 7.59835 23.9368 8.27141 25.8165C8.9219 27.6332 9.86686 29.3212 11.08 30.8334C13.509 33.8612 16.9146 36.0148 20.6697 36.8975L21.081 36.9941L24.4476 42.6055C24.7105 43.0435 25.1349 43.0907 25.3051 43.0907ZM25.3051 44.0907C24.6418 44.0907 23.9785 43.7672 23.5902 43.1201L20.4408 37.8709C12.3103 35.9597 6.25708 28.6595 6.25708 19.9451C6.25708 9.77598 14.5011 1.53198 24.6702 1.53198C34.8402 1.53198 43.0842 9.77598 43.0842 19.9451C43.0842 28.1045 37.7777 35.0241 30.4273 37.4412L27.0201 43.1201C26.6317 43.7672 25.9684 44.0907 25.3051 44.0907Z" fill="#F55A00"/>
</g>
<path d="M34.7921 32.177C34.7141 33.842 27.5861 33.655 24.6701 33.509C21.7551 33.655 14.6251 33.842 14.5471 32.177C14.4471 30.084 15.1321 28.577 15.8621 28.239C16.9055 27.9567 17.9684 27.7521 19.0421 27.627C19.4691 27.565 19.8971 27.503 20.2941 27.448C21.4081 27.292 22.2881 27.181 22.2881 27.181L24.6701 27.442L27.0501 27.181C27.0501 27.181 27.9091 27.29 29.0031 27.442C29.4141 27.501 29.8581 27.563 30.3031 27.629C31.3749 27.7524 32.4358 27.956 33.4771 28.238C34.2081 28.58 34.8891 30.084 34.7921 32.177Z" fill="#BF9837"/>
<path d="M30.3032 27.63L25.6482 32.902C23.5952 32.287 20.0922 28.73 19.0422 27.628C19.4692 27.566 19.8972 27.504 20.2942 27.449C21.4082 27.293 22.2882 27.182 22.2882 27.182L24.6702 27.443L27.0502 27.182C27.0502 27.182 27.9092 27.291 29.0032 27.443C29.4152 27.501 29.8592 27.564 30.3032 27.63Z" fill="white"/>
<path d="M29.0042 27.443C27.9654 29.2144 26.7778 30.8941 25.4542 32.464C23.1212 31.554 21.0452 28.624 20.2952 27.449C21.4092 27.293 22.2892 27.182 22.2892 27.182L24.6712 27.443L27.0511 27.182C27.0511 27.182 27.9102 27.291 29.0042 27.443Z" fill="#CD8B6D"/>
<path d="M21.1672 24.703C21.1672 24.703 21.5082 27.463 21.5572 28.291C21.5572 28.291 24.7702 30.343 27.4482 28.201C27.4482 28.201 27.4972 25.973 27.4972 24.701L21.1672 24.703Z" fill="#CD8B6D"/>
<path d="M30.4472 15.7781C30.4472 15.7781 33.0972 13.7021 33.4752 16.2541C33.8532 18.8061 30.4082 19.4541 30.4082 19.4541L30.4472 15.7781Z" fill="#CD8B6D"/>
<path d="M30.5992 16.9521C30.5992 16.9521 32.0452 15.3101 32.3452 16.1051C32.5185 16.6618 32.533 17.2557 32.3872 17.8201C32.3872 17.8201 32.3072 16.7591 31.4572 17.2301C31.4572 17.2301 31.9432 18.9821 30.5182 18.2881C30.3625 18.0955 30.2844 17.8516 30.2994 17.6044C30.3144 17.3572 30.4213 17.1245 30.5992 16.9521V16.9521Z" fill="#B66C50"/>
<path d="M17.7762 15.7781C17.7762 15.7781 15.1262 13.7021 14.7482 16.2541C14.3702 18.8061 17.8142 19.4541 17.8142 19.4541L17.7762 15.7781Z" fill="#CD8B6D"/>
<path d="M17.6191 16.9521C17.6191 16.9521 16.1731 15.3101 15.8731 16.1051C15.6997 16.6617 15.6852 17.2557 15.8311 17.8201C15.8311 17.8201 15.9111 16.7591 16.7621 17.2301C16.7621 17.2301 16.2761 18.9821 17.7001 18.2881C17.8561 18.0956 17.9343 17.8517 17.9193 17.6044C17.9043 17.3571 17.7972 17.1244 17.6191 16.9521V16.9521Z" fill="#B66C50"/>
<path d="M21.779 9.48807C21.779 9.48807 18.837 8.84407 18.102 11.6031C17.367 14.3621 17.642 17.4871 17.366 18.6821C17.09 19.8771 16.907 24.1061 23.158 25.9451C24.1829 26.1458 25.2449 26.017 26.192 25.5771C27.847 24.8421 30.379 23.2001 30.513 20.9771C30.664 18.4871 31.0651 15.6451 30.3291 13.4381C29.5931 11.2311 26.192 6.63807 21.779 9.48807Z" fill="#E8B299"/>
<path d="M24.262 14.453C24.262 14.453 23.802 13.994 23.71 15.653C23.618 17.312 23.71 19.053 23.71 19.053C23.71 19.053 22.61 18.409 22.974 19.329C23.0836 19.5573 23.2458 19.7562 23.4473 19.9095C23.6488 20.0629 23.8838 20.1662 24.133 20.211C24.3157 20.2629 24.5094 20.2617 24.6915 20.2075C24.8735 20.1533 25.0364 20.0484 25.161 19.905C25.292 19.778 25.974 19.086 25.761 18.87C25.661 18.77 25.061 19.014 24.906 19.052C24.905 19.049 25.089 14.085 24.262 14.453Z" fill="#CD8B6D"/>
<path d="M26.17 13.465C26.17 13.465 29.225 12.704 29.753 15.531C29.753 15.531 26.642 14.231 25.926 14.87L26.17 13.465Z" fill="#141E62"/>
<path d="M22.6722 13.529C22.6722 13.529 19.7532 12.351 18.8372 15.076C18.8372 15.076 22.0992 14.22 22.7192 14.953L22.6722 13.529Z" fill="#141E62"/>
<path d="M30.9073 12.016C30.2253 10.993 27.3072 9.776 27.3072 9.776L20.1992 9.825C20.1992 9.825 20.0992 11.285 23.7532 11.825C27.4072 12.365 30.5122 11.47 30.5162 15.47C30.5122 15.465 31.5883 13.037 30.9073 12.016Z" fill="#CD8B6D"/>
<path d="M25.9751 16.7071C25.9699 17.0371 26.063 17.3611 26.2426 17.638C26.4222 17.9149 26.6801 18.1321 26.9834 18.2619C27.2868 18.3918 27.622 18.4285 27.9463 18.3673C28.2706 18.3061 28.5693 18.1498 28.8045 17.9183C29.0396 17.6868 29.2007 17.3905 29.267 17.0672C29.3333 16.744 29.3019 16.4083 29.1768 16.1029C29.0517 15.7975 28.8386 15.5362 28.5646 15.3523C28.2906 15.1684 27.9681 15.0702 27.6381 15.0701C27.4214 15.0684 27.2065 15.1094 27.0056 15.1907C26.8048 15.2721 26.6219 15.3922 26.4675 15.5442C26.3131 15.6962 26.1901 15.8771 26.1056 16.0767C26.0211 16.2762 25.9768 16.4904 25.9751 16.7071V16.7071Z" fill="white"/>
<path d="M28.6532 16.7682C28.6041 16.9626 28.5014 17.1394 28.3569 17.2784C28.2123 17.4173 28.0316 17.5129 27.8353 17.5542C27.6391 17.5955 27.4352 17.5809 27.2468 17.512C27.0585 17.4431 26.8933 17.3228 26.77 17.1646C26.6467 17.0064 26.5703 16.8168 26.5495 16.6173C26.5287 16.4179 26.5643 16.2166 26.6523 16.0364C26.7402 15.8562 26.877 15.7043 27.0471 15.598C27.2171 15.4917 27.4136 15.4353 27.6142 15.4352C27.9266 15.4788 28.2098 15.6424 28.4037 15.8912C28.5977 16.14 28.6871 16.4545 28.6532 16.7682V16.7682Z" fill="#95BCD1"/>
<path d="M27.6142 17.7142C28.0218 17.7142 28.3522 17.2902 28.3522 16.7672C28.3522 16.2442 28.0218 15.8202 27.6142 15.8202C27.2066 15.8202 26.8762 16.2442 26.8762 16.7672C26.8762 17.2902 27.2066 17.7142 27.6142 17.7142Z" fill="#141E62"/>
<path d="M28.3992 15.8712C28.3992 16.0132 28.2282 16.1292 28.0182 16.1292C27.8082 16.1292 27.6372 16.0142 27.6372 15.8712C27.6372 15.7282 27.8072 15.6132 28.0182 15.6132C28.2292 15.6132 28.3992 15.7292 28.3992 15.8712Z" fill="white"/>
<path d="M26.4821 15.4431C26.4731 15.4591 26.4684 15.4772 26.4685 15.4956C26.4686 15.514 26.4735 15.5321 26.4826 15.548C26.4918 15.564 26.505 15.5772 26.5208 15.5865C26.5367 15.5958 26.5547 15.6009 26.5731 15.6011C27.0271 15.5143 27.4915 15.4951 27.9511 15.5441C28.4241 15.6441 29.1001 15.9181 29.2351 16.4441C29.2551 16.5221 29.3591 16.4981 29.3671 16.4261C29.4911 15.1911 27.1181 14.4501 26.4821 15.4431Z" fill="#141E62"/>
<path d="M19.3542 16.7071C19.349 17.0371 19.4422 17.3612 19.6218 17.6381C19.8014 17.915 20.0594 18.1322 20.3628 18.262C20.6663 18.3919 21.0015 18.4285 21.3258 18.3672C21.6501 18.3059 21.9488 18.1495 22.184 17.9179C22.4191 17.6863 22.58 17.39 22.6462 17.0666C22.7124 16.7433 22.6809 16.4075 22.5557 16.1022C22.4304 15.7968 22.2172 15.5356 21.943 15.3518C21.6689 15.168 21.3462 15.07 21.0162 15.0701C20.5788 15.0669 20.158 15.2376 19.8463 15.5445C19.5346 15.8515 19.3576 16.2697 19.3542 16.7071V16.7071Z" fill="white"/>
<path d="M22.0323 16.7681C21.9832 16.9626 21.8805 17.1395 21.7357 17.2785C21.591 17.4175 21.4101 17.5131 21.2137 17.5542C21.0173 17.5954 20.8133 17.5806 20.6249 17.5115C20.4365 17.4424 20.2714 17.3217 20.1482 17.1633C20.0251 17.0048 19.9489 16.815 19.9284 16.6154C19.908 16.4157 19.944 16.2144 20.0324 16.0342C20.1208 15.8541 20.258 15.7024 20.4284 15.5965C20.5989 15.4905 20.7956 15.4346 20.9963 15.4351C21.3082 15.4794 21.5906 15.6433 21.7839 15.892C21.9773 16.1407 22.0663 16.4549 22.0323 16.7681V16.7681Z" fill="#95BCD1"/>
<path d="M21.7313 16.7671C21.6965 16.9053 21.6236 17.0309 21.5208 17.1297C21.4181 17.2284 21.2897 17.2964 21.1502 17.3257C21.0108 17.3551 20.8658 17.3447 20.732 17.2958C20.5982 17.2468 20.4808 17.1613 20.3932 17.0488C20.3056 16.9364 20.2513 16.8017 20.2365 16.6599C20.2218 16.5182 20.2471 16.3751 20.3096 16.2471C20.3722 16.119 20.4694 16.0111 20.5903 15.9356C20.7112 15.8601 20.8508 15.8201 20.9933 15.8201C21.2152 15.8512 21.4163 15.9675 21.554 16.1442C21.6917 16.3209 21.7553 16.5443 21.7313 16.7671V16.7671Z" fill="#141E62"/>
<path d="M21.7784 15.871C21.7784 16.013 21.6074 16.129 21.3974 16.129C21.1874 16.129 21.0164 16.014 21.0164 15.871C21.0164 15.728 21.1864 15.613 21.3974 15.613C21.6084 15.613 21.7784 15.729 21.7784 15.871Z" fill="white"/>
<path d="M22.1512 15.2461C22.1602 15.2621 22.1649 15.2802 22.1649 15.2986C22.1648 15.317 22.1599 15.335 22.1507 15.351C22.1415 15.3669 22.1284 15.3802 22.1125 15.3895C22.0966 15.3988 22.0786 15.4038 22.0602 15.4041C21.6062 15.3173 21.1419 15.298 20.6822 15.3471C20.2092 15.4471 19.5332 15.7211 19.3982 16.2421C19.3782 16.3201 19.2742 16.2961 19.2672 16.2241C19.1422 14.9961 21.5152 14.2561 22.1512 15.2461Z" fill="#141E62"/>
<path d="M21.0431 9.94803C18.8431 10.225 17.7341 16.476 17.6431 16.476C17.5031 16.186 17.3667 15.9107 17.2341 15.65C17.1481 15.482 17.0651 15.319 16.9841 15.159C16.6889 14.6063 16.4281 14.0358 16.2031 13.451C16.0968 13.1636 16.0142 12.8679 15.9561 12.567C15.8231 11.8173 15.8652 11.0469 16.0791 10.316C16.7241 7.92404 20.3091 8.66003 20.3091 8.66003L20.3851 8.79404L20.4981 8.99403L21.0431 9.94803Z" fill="#141E62"/>
<path d="M20.4971 8.99303C20.4824 9.00535 20.4646 9.01322 20.4456 9.0157C20.4267 9.01819 20.4074 9.01517 20.3901 9.00703C19.9974 8.92907 19.593 8.93132 19.2011 9.01364C18.8093 9.09595 18.4382 9.25664 18.1101 9.48603C17.3262 9.874 16.722 10.5491 16.4231 11.371C16.2212 12.0447 16.1466 12.7501 16.2031 13.451C16.0969 13.1636 16.0142 12.8679 15.9561 12.567C15.9988 11.7399 16.2945 10.9458 16.8031 10.292C17.5161 9.46003 19.2281 8.35403 20.3851 8.79203C20.4192 8.80456 20.4525 8.81891 20.4851 8.83503C20.5002 8.84137 20.5132 8.85176 20.5228 8.86505C20.5324 8.87835 20.5382 8.89403 20.5394 8.91036C20.5406 8.9267 20.5373 8.94306 20.5299 8.95765C20.5224 8.97224 20.5111 8.98448 20.4971 8.99303Z" fill="#343A80"/>
<path d="M20.608 9.55507C17.464 9.41307 17.202 13.1771 17.233 15.6551C17.147 15.4871 17.064 15.3241 16.983 15.1641C16.859 12.6341 17.731 9.26407 20.608 9.46407C20.668 9.46407 20.671 9.55707 20.608 9.55507Z" fill="#343A80"/>
<path d="M30.5142 15.4631L30.3292 13.4421C29.7782 10.8671 27.3882 12.1551 23.3432 11.3271C19.2982 10.4991 19.5352 8.85706 19.5722 8.56906C19.5998 8.22991 19.6847 7.89788 19.8232 7.58706C19.8535 7.52829 19.89 7.47297 19.9322 7.42206C20.2322 7.06606 20.6882 7.19006 21.3322 7.30506C21.3442 7.30506 21.3582 7.42106 21.3692 7.42306C21.5032 7.44706 21.6452 7.56106 21.7942 7.56106H21.8822C22.3513 7.55815 22.8164 7.4746 23.2572 7.31406C23.2682 7.31406 23.2822 7.25106 23.2942 7.24706C23.3062 7.24306 23.3232 7.21106 23.3392 7.20706L23.3822 7.18106L23.3902 7.17206C23.4245 7.16542 23.4581 7.15503 23.4902 7.14107L23.5082 7.13306C23.6753 7.06708 23.838 6.99025 23.9952 6.90306C26.0342 5.74806 27.9742 6.30306 29.5952 7.86506C29.6762 7.94106 29.7582 8.02806 29.8382 8.11206C30.1763 8.47007 30.4881 8.85207 30.7712 9.25506C30.7712 9.25506 30.7712 9.25506 30.7712 9.25506C30.8378 9.3544 30.9045 9.4544 30.9712 9.55506C31.0352 9.64906 31.0982 9.74607 31.1582 9.84307C31.3938 10.2149 31.5737 10.6192 31.6922 11.0431C31.7122 11.1131 31.7292 11.1831 31.7422 11.2511C31.8618 12.0003 31.8137 12.7667 31.6014 13.495C31.389 14.2234 31.0177 14.8956 30.5142 15.4631V15.4631Z" fill="#343A80"/>
<path d="M31.7403 11.2681C31.0373 11.1362 30.3252 11.0593 29.6103 11.038C28.0141 11.0516 26.4197 10.9291 24.8443 10.6721C23.5254 10.4473 22.2721 9.9352 21.1732 9.17205C20.6293 8.73276 20.1715 8.19635 19.8232 7.59005C19.8535 7.53129 19.8901 7.47596 19.9323 7.42505C20.1369 7.76877 20.3711 8.094 20.6323 8.39705C21.1657 8.98484 21.8154 9.45543 22.5403 9.77905C24.2077 10.4576 25.99 10.8093 27.7903 10.815C29.0949 10.7856 30.3997 10.8683 31.6902 11.062C31.7092 11.13 31.7263 11.2001 31.7403 11.2681Z" fill="#4B55AA"/>
<path d="M30.9733 9.56805C30.3346 9.49118 29.6895 9.48347 29.0493 9.54505C27.8596 9.68605 26.6592 9.7135 25.4643 9.62705C24.653 9.54505 23.8674 9.2965 23.1566 8.89696C22.4457 8.49742 21.825 7.95548 21.3333 7.30505C21.3454 7.30838 21.3578 7.31105 21.3703 7.31305C21.5109 7.3342 21.6531 7.34324 21.7953 7.34005C22.4415 8.05911 23.2499 8.61377 24.1533 8.95805C25.3767 9.31481 26.6556 9.44162 27.9253 9.33205C28.8699 9.2324 29.821 9.20966 30.7693 9.26405C30.8346 9.36405 30.9026 9.46539 30.9733 9.56805Z" fill="#4B55AA"/>
<path d="M29.8302 8.12009C28.0302 9.40909 25.1012 8.70009 23.2532 7.20509L23.3772 7.17009H23.3852L23.4852 7.14209C24.2343 7.7212 25.097 8.13589 26.0172 8.35909C27.2273 8.63957 28.4983 8.46628 29.5892 7.87209C29.6712 7.94809 29.7522 8.03509 29.8322 8.11909L29.8302 8.12009Z" fill="#4B55AA"/>
<path d="M28.3053 20.338C28.132 20.7504 27.9357 21.1527 27.7173 21.543C27.6723 21.623 27.6253 21.703 27.5763 21.787C27.0873 22.734 26.3557 23.5342 25.4563 24.106C24.0813 24.794 22.2563 24.118 20.6793 21.913C20.6603 21.884 20.6383 21.855 20.6193 21.825C20.2998 21.3662 20.0122 20.8861 19.7583 20.388C19.7583 20.388 20.7693 20.612 22.9753 20.888C24.7697 20.9809 26.5677 20.7953 28.3053 20.338V20.338Z" fill="white"/>
<path d="M27.7194 21.543C27.6744 21.623 27.6273 21.703 27.5783 21.787C26.5612 22.0098 25.5267 22.1436 24.4864 22.187C23.2117 22.2778 21.9305 22.1873 20.6813 21.918C20.6613 21.889 20.6403 21.86 20.6213 21.83C22.0087 22.1382 23.4381 22.2098 24.8493 22.042C25.8165 21.9433 26.7756 21.7765 27.7194 21.543V21.543Z" fill="#CD8B6D"/>
<path d="M20.6222 20.1471C20.378 20.1167 20.13 20.1394 19.8953 20.2136C19.6606 20.2878 19.4446 20.4118 19.2622 20.5771C19.1982 20.6251 19.2562 20.7331 19.3272 20.6871C19.5194 20.5677 19.7252 20.4716 19.9402 20.4011C20.1632 20.3221 20.3992 20.3141 20.6222 20.2411C20.6324 20.2381 20.6413 20.2319 20.6476 20.2235C20.654 20.215 20.6574 20.2047 20.6574 20.1941C20.6574 20.1835 20.654 20.1732 20.6476 20.1648C20.6413 20.1563 20.6324 20.1501 20.6222 20.1471V20.1471Z" fill="#CD8B6D"/>
<path d="M28.9212 20.452C28.8083 20.3127 28.6532 20.2137 28.4792 20.1701C28.3012 20.0941 28.1172 20.032 27.9362 19.965C27.8432 19.93 27.7842 20.0771 27.8692 20.1241C28.0302 20.2121 28.1922 20.2981 28.3592 20.3761C28.5084 20.4765 28.6802 20.5384 28.8592 20.5561C28.8716 20.5565 28.8839 20.5536 28.8947 20.5477C28.9056 20.5418 28.9147 20.5331 28.9211 20.5224C28.9274 20.5118 28.9308 20.4996 28.9308 20.4873C28.9308 20.4749 28.9275 20.4627 28.9212 20.452V20.452Z" fill="#CD8B6D"/>
<defs>
<filter id="filter0_d" x="0.25708" y="0.531982" width="48.8271" height="54.5588" filterUnits="userSpaceOnUse" color-interpolation-filters="sRGB">
<feFlood flood-opacity="0" result="BackgroundImageFix"/>
<feColorMatrix in="SourceAlpha" type="matrix" values="0 0 0 0 0 0 0 0 0 0 0 0 0 0 0 0 0 0 127 0" result="hardAlpha"/>
<feOffset dy="5"/>
<feGaussianBlur stdDeviation="3"/>
<feColorMatrix type="matrix" values="0 0 0 0 0 0 0 0 0 0 0 0 0 0 0 0 0 0 0.161 0"/>
<feBlend mode="normal" in2="BackgroundImageFix" result="effect1_dropShadow"/>
<feBlend mode="normal" in="SourceGraphic" in2="effect1_dropShadow" result="shape"/>
</filter>
</defs>
</svg>
