<svg width="49" height="55" viewBox="0 0 49 55" fill="none" xmlns="http://www.w3.org/2000/svg">
<g filter="url(#filter0_d)">
<path d="M25.048 43.0588C24.5162 43.0588 24.0354 42.7866 23.7618 42.3308L20.6125 37.0817L20.5038 36.9006L20.2982 36.8522C16.435 35.9441 12.9314 33.7288 10.4329 30.6143C9.18495 29.0587 8.21283 27.3222 7.54359 25.4531C6.85112 23.5191 6.5 21.4869 6.5 19.4131C6.5 14.6284 8.36331 10.1301 11.7467 6.74669C15.1301 3.36331 19.6284 1.5 24.4131 1.5C29.1982 1.5 33.6968 3.36331 37.0803 6.7467C40.4638 10.13 42.3271 14.6284 42.3271 19.4131C42.3271 23.2613 41.1255 26.9285 38.8523 30.0182C37.7579 31.5057 36.4464 32.8114 34.9543 33.8991C33.4441 34.9999 31.7819 35.8529 30.014 36.4342L29.8372 36.4924L29.7414 36.652L26.3342 42.3309C26.0607 42.7866 25.5799 43.0588 25.048 43.0588Z" fill="#F6F6F9"/>
<path d="M25.048 42.5588C25.2183 42.5588 25.6427 42.5115 25.9055 42.0736L29.5042 36.0755L29.8578 35.9592C31.5762 35.3942 33.1918 34.5651 34.6597 33.4951C36.1105 32.4375 37.3856 31.1681 38.4496 29.7219C40.6592 26.7186 41.8271 23.1539 41.8271 19.4131C41.8271 14.7619 40.0158 10.3892 36.7268 7.10026C33.4377 3.81131 29.0646 2 24.4131 2C19.762 2 15.3892 3.8113 12.1002 7.10024C8.8113 10.3892 7 14.762 7 19.4131C7 21.4293 7.34127 23.4048 8.01433 25.2845C8.66482 27.1012 9.60978 28.7892 10.823 30.3015C13.2519 33.3292 16.6576 35.4828 20.4126 36.3655L20.8239 36.4622L24.1905 42.0735C24.4534 42.5115 24.8778 42.5588 25.048 42.5588ZM25.048 43.5588C24.3848 43.5588 23.7214 43.2352 23.3331 42.5881L20.1838 37.3389C12.0532 35.4277 6 28.1275 6 19.4131C6 9.244 14.244 1 24.4131 1C34.5831 1 42.8271 9.244 42.8271 19.4131C42.8271 27.5726 37.5206 34.4921 30.1702 36.9092L26.763 42.5881C26.3746 43.2352 25.7113 43.5588 25.048 43.5588Z" fill="#F55A00"/>
</g>
<path d="M31.543 33.1172C31.543 33.1172 19.38 36.3171 18.232 33.3951C18.184 33.2701 18.977 28.9841 21.464 27.8321C21.6473 27.7459 21.8364 27.6727 22.03 27.6132C22.5667 27.5066 23.1153 27.4729 23.661 27.5131L25.317 27.5641L26.632 27.3561C26.8762 27.3429 27.1203 27.385 27.346 27.4792C27.346 27.4792 27.356 27.4441 27.361 27.4461C27.5129 27.4972 27.6621 27.556 27.808 27.6222C27.847 27.6432 27.889 27.6541 27.929 27.6761C28.054 27.7421 28.184 27.8132 28.315 27.8972C28.463 27.9912 28.615 28.0972 28.776 28.2202C28.828 28.2612 28.876 28.3022 28.933 28.3462C30.3159 29.5968 31.2356 31.2781 31.543 33.1172V33.1172Z" fill="#95BCD1"/>
<path d="M28.9369 28.3471C24.8689 35.3381 22.2429 29.8901 21.4639 27.8341C21.6472 27.7479 21.8363 27.6747 22.0299 27.6151C22.5666 27.5085 23.1152 27.4749 23.6609 27.5151L25.3169 27.5661C26.0016 27.5242 26.6883 27.601 27.3469 27.7931H27.3609C27.4969 27.7931 27.6469 27.7171 27.8079 27.7981C27.8469 27.8191 27.8889 27.7431 27.9289 27.7641C28.0605 27.8171 28.1894 27.8768 28.3149 27.9431C28.4629 28.0371 28.6149 28.1211 28.7759 28.2431C28.8329 28.2851 28.8849 28.3031 28.9369 28.3471Z" fill="white"/>
<path d="M28.319 27.8961C28.1927 28.5682 27.8874 29.1937 27.4353 29.7068C26.9831 30.2198 26.4009 30.6013 25.75 30.8111C25.0603 30.9298 24.3508 30.7977 23.7499 30.4388C23.1491 30.0798 22.6965 29.5177 22.474 28.8541C22.3038 28.449 22.1553 28.035 22.0291 27.6141C22.5584 27.4567 23.1078 27.3766 23.66 27.3761L26.635 27.2191C27.2374 27.325 27.811 27.5556 28.319 27.8961V27.8961Z" fill="#CD8B6D"/>
<path d="M23.3469 24.6611C23.3469 24.6611 23.8169 27.5321 23.4469 28.4191C23.4469 28.4191 25.3259 29.3071 26.5269 28.5191C26.3398 27.222 26.2352 25.9144 26.2139 24.6041L23.3469 24.6611Z" fill="#CD8B6D"/>
<path d="M32.4089 16.1391C31.3459 12.6441 27.0909 10.5621 23.4689 11.3491L17.1629 14.3251C16.2629 15.2631 16.5109 17.6341 16.7109 18.7741C16.9859 20.3351 16.6009 22.4741 17.8109 23.6521C19.2669 25.0721 21.7919 25.6801 23.8399 25.8621C25.0763 26.0447 26.3378 25.9521 27.5343 25.591C28.7309 25.2299 29.8329 24.6092 30.7619 23.7731C32.9879 21.8071 33.2179 18.7841 32.4089 16.1391Z" fill="#92561A"/>
<path d="M30.8411 17.481C30.8411 17.481 33.2691 16.225 33.1851 18.318C33.1011 20.411 30.2551 20.411 30.2551 20.411L30.8411 17.481Z" fill="#CD8B6D"/>
<path d="M30.7862 18.44C30.7862 18.44 32.1862 17.349 32.3072 18.028C32.3612 18.4981 32.2829 18.974 32.0812 19.402C32.0812 19.402 32.1812 18.543 31.4282 18.791C31.4282 18.791 31.5512 20.262 30.5192 19.491C30.4236 19.3143 30.398 19.1081 30.4475 18.9134C30.4969 18.7187 30.6179 18.5497 30.7862 18.44Z" fill="#B66C50"/>
<path d="M17.985 17.898C17.985 17.898 15.557 16.642 15.641 18.735C15.725 20.828 18.571 20.828 18.571 20.828L17.985 17.898Z" fill="#CD8B6D"/>
<path d="M18.041 18.8591C18.041 18.8591 16.641 17.7681 16.52 18.4471C16.4661 18.9172 16.5444 19.393 16.746 19.8211C16.746 19.8211 16.646 18.9621 17.399 19.2101C17.399 19.2101 17.276 20.6811 18.307 19.9101C18.4015 19.7332 18.4266 19.5275 18.3774 19.3331C18.3282 19.1387 18.2082 18.9697 18.041 18.8591V18.8591Z" fill="#B66C50"/>
<path d="M30.968 17.1011C30.946 17.3351 30.914 17.5711 30.882 17.8091C30.6958 19.3236 30.422 20.8262 30.062 22.3091C29.354 25.0941 25.907 26.4641 24.679 26.3701C18.35 25.5201 18.02 21.1701 18.066 20.7031C18.0944 19.9423 18.0609 19.1804 17.966 18.4251C17.941 18.0321 17.882 17.6251 17.826 17.2251C17.7043 16.55 17.6811 15.8608 17.757 15.1791C17.757 15.1481 17.767 15.1171 17.773 15.0791C17.8989 14.3953 18.097 13.7269 18.364 13.0851C19.164 11.1301 20.79 8.94206 23.11 8.89806C23.6631 8.8944 24.2133 8.97845 24.74 9.14707C25.5041 9.39027 26.2356 9.7261 26.918 10.1471C28.4603 10.9135 29.7322 12.132 30.564 13.6401C31.012 14.7352 31.1517 15.9321 30.968 17.1011V17.1011Z" fill="#E8B299"/>
<path d="M30.9681 17.101C27.6291 16.915 24.0741 11.714 24.0741 11.714C23.0531 15.579 19.0081 16.914 17.8241 17.222C17.7024 16.547 17.6791 15.8578 17.7551 15.176C17.7551 15.145 17.7651 15.114 17.7711 15.076C18.0281 14.587 18.3561 13.982 18.6441 13.537C19.8597 12.0852 21.2755 10.8134 22.8491 9.76004C23.4222 9.40967 24.0696 9.19868 24.7391 9.14404C25.5032 9.38724 26.2346 9.72307 26.9171 10.144C28.4594 10.9105 29.7313 12.129 30.5631 13.637C31.012 14.733 31.152 15.9311 30.9681 17.101V17.101Z" fill="#CD8B6D"/>
<path d="M26.099 10.5451H22.038C21.3284 10.1388 20.685 9.62656 20.13 9.02611C19.479 8.23911 19.303 7.18912 21.095 6.27012C21.156 6.23812 21.216 6.1861 21.275 6.1561C21.385 6.1021 21.494 6.03711 21.603 5.98911C21.9847 5.81209 22.3783 5.66205 22.781 5.54011C22.881 5.50911 22.987 5.47612 23.09 5.45112C23.4181 5.367 23.7526 5.30981 24.09 5.28011C24.19 5.27011 24.29 5.26511 24.39 5.26311C24.7674 5.2498 25.1448 5.28986 25.511 5.38212C25.7331 5.43646 25.9482 5.51631 26.152 5.62011C26.5007 5.78936 26.8053 6.03738 27.0416 6.34457C27.278 6.65175 27.4397 7.00969 27.514 7.39011C27.5381 7.54177 27.5535 7.69468 27.56 7.84811C27.5501 8.38176 27.4122 8.90524 27.158 9.37455C26.9037 9.84386 26.5406 10.2453 26.099 10.5451V10.5451Z" fill="#92561A"/>
<path d="M22.8539 9.76508C21.0999 9.38508 20.7309 7.57008 21.2729 6.13608C21.3829 6.08208 21.4919 6.02908 21.6009 5.98108C21.4909 6.17997 21.4046 6.39108 21.3439 6.61008C20.9549 8.03008 21.8549 8.88408 22.9199 9.60408C22.9379 9.6149 22.9515 9.63182 22.9581 9.65179C22.9648 9.67177 22.964 9.69346 22.9561 9.71294C22.9481 9.73241 22.9334 9.74838 22.9146 9.75795C22.8959 9.76752 22.8743 9.77004 22.8539 9.76508V9.76508Z" fill="#B5894B"/>
<path d="M23.9211 9.18112C23.9631 9.29612 23.8151 9.35012 23.7391 9.28712C23.3213 8.76682 23.0196 8.16326 22.854 7.51688C22.6884 6.87049 22.6629 6.19619 22.7791 5.53912C22.8791 5.50712 22.9851 5.47813 23.0881 5.45312C22.9806 6.03019 23.0055 6.62412 23.1611 7.19012C23.379 7.86676 23.6327 8.53136 23.9211 9.18112V9.18112Z" fill="#B5894B"/>
<path d="M24.7101 6.50406C24.9629 7.43732 25.09 8.40016 25.0881 9.36707C25.087 9.39596 25.0757 9.42353 25.0563 9.44496C25.0369 9.46639 25.0106 9.4803 24.9819 9.48424C24.9533 9.48818 24.9242 9.4819 24.8997 9.46651C24.8752 9.45111 24.8569 9.42758 24.8481 9.40005C24.4011 8.10005 24.5581 6.59206 24.0901 5.28506C24.1901 5.27506 24.2901 5.27007 24.3901 5.26807C24.5352 5.66915 24.6423 6.08296 24.7101 6.50406V6.50406Z" fill="#B5894B"/>
<path d="M25.9471 9.61711C25.8631 9.71711 25.6841 9.60912 25.7261 9.48712C26.1828 8.61305 26.3455 7.61499 26.1901 6.64111C26.0637 6.177 25.8332 5.74779 25.5161 5.38611C25.7382 5.44053 25.9533 5.52039 26.1571 5.62411C26.4978 6.2431 26.6586 6.94499 26.6215 7.65056C26.5844 8.35613 26.3508 9.03727 25.9471 9.61711V9.61711Z" fill="#B5894B"/>
<path d="M26.0989 10.5491H22.0379C21.3283 10.1428 20.6849 9.63056 20.1299 9.03011C22.0619 8.65411 25.2999 8.1111 27.5629 7.9021C27.5552 8.42965 27.4176 8.94717 27.1622 9.40886C26.9069 9.87055 26.5417 10.2622 26.0989 10.5491V10.5491Z" fill="#801424"/>
<path d="M24.683 9.0421C24.5892 9.70815 24.4177 10.3609 24.172 10.9871C23.7397 12.1697 23.0784 13.2554 22.2259 14.182C21.3734 15.1086 20.3465 15.8579 19.204 16.3871L16.655 17.4091C16.5697 17.1169 16.5029 16.8197 16.455 16.5191C16.438 16.4311 16.424 16.3321 16.411 16.2361C16.2473 15.3852 16.226 14.513 16.348 13.6551C16.363 13.5821 16.296 13.5081 16.296 13.4371C16.75 11.5061 18.257 9.4371 22.155 8.9541C22.188 8.9481 22.268 9.05409 22.293 9.04109C22.293 9.04109 22.366 9.18511 22.371 9.18511H24.403C24.494 9.18711 24.588 9.0401 24.683 9.0421Z" fill="#B5894B"/>
<path d="M32.652 16.922C30.8301 16.7785 29.0811 16.144 27.5909 15.086C26.1008 14.0279 24.9251 12.5858 24.189 10.9131C23.969 10.4412 23.7828 9.95433 23.632 9.45605C23.607 9.36605 23.584 9.29705 23.571 9.24905C23.5659 9.22441 23.5596 9.20005 23.552 9.17606C23.586 9.16306 23.619 9.15105 23.652 9.14005C23.714 9.11705 23.773 9.09405 23.833 9.07605C24.019 9.00905 24.167 8.95004 24.347 8.89604C24.481 8.85404 24.706 8.81605 24.706 8.78105H24.75H24.785L24.833 8.77505H24.845C24.8701 8.77042 24.8942 8.76127 24.916 8.74805C24.9237 8.74877 24.9314 8.74877 24.939 8.74805L24.964 8.74205C25.3592 8.64396 25.7599 8.56948 26.164 8.51904C26.164 8.51904 26.175 8.64404 26.179 8.64404C26.248 8.63604 26.323 8.75105 26.39 8.75105H26.398C27.5326 8.59711 28.6873 8.7833 29.716 9.28606C30.4995 9.77857 31.1371 10.4715 31.563 11.293C32.2181 12.7633 32.5698 14.3507 32.597 15.9601C32.5778 16.2818 32.5963 16.6046 32.652 16.922Z" fill="#B5894B"/>
<path d="M23.897 9.18701C23.897 9.18701 23.897 9.21701 23.897 9.22101C23.868 9.28001 23.838 9.41402 23.811 9.41402C23.75 9.41402 23.69 9.49301 23.627 9.61401C22.6884 11.6112 21.333 13.3843 19.652 14.814C18.836 15.472 17.9183 15.9928 16.935 16.356C16.791 16.41 16.635 16.456 16.459 16.535C16.442 16.447 16.428 16.344 16.415 16.248C16.897 16.0858 17.3652 15.8852 17.815 15.648C18.8025 15.1141 19.7112 14.4457 20.515 13.662C21.832 12.371 22.515 10.712 23.578 9.26201C23.605 9.22401 23.632 9.334 23.659 9.298C23.6786 9.26609 23.7064 9.23999 23.7394 9.22241C23.7725 9.20483 23.8096 9.19641 23.847 9.19801H23.908L23.897 9.18701Z" fill="#DEA864"/>
<path d="M22.4579 9.18701C22.4349 9.18701 22.4099 9.104 22.3849 9.136C21.4543 10.3104 20.3512 11.3371 19.1129 12.181C18.2539 12.7933 17.325 13.3013 16.3459 13.694C16.3609 13.621 16.2939 13.514 16.2939 13.443C18.5502 12.4801 20.5549 11.0112 22.1529 9.15001C22.1819 9.11501 22.345 9.19 22.368 9.19H22.4579V9.18701Z" fill="#DEA864"/>
<path d="M32.5931 15.177C31.0509 14.891 29.6061 14.2195 28.3931 13.225C27.1155 12.324 26.0142 11.1959 25.1441 9.89703C25.0231 9.68203 24.6921 9.18903 24.4651 8.78403C24.6921 8.76703 24.6161 8.74804 24.6831 8.73404C24.6911 8.73404 24.6921 8.73403 24.6921 8.72803V8.73404C25.1015 9.50312 25.589 10.2279 26.1471 10.897C27.0562 11.9677 28.1219 12.8948 29.3081 13.647C30.2945 14.2811 31.3922 14.7222 32.5431 14.947C32.5461 15.024 32.5871 15.102 32.5931 15.177Z" fill="#DEA864"/>
<path d="M32.0131 12.4791C31.4133 12.3828 30.828 12.2111 30.2711 11.9681C29.3151 11.5862 28.4322 11.0422 27.6611 10.3601C27.2406 9.94824 26.8424 9.51431 26.4681 9.06009C26.359 8.92391 26.2633 8.77756 26.1821 8.62308C26.2511 8.61508 26.3261 8.73009 26.3931 8.73009H26.4011C26.7682 9.347 27.2423 9.89354 27.8011 10.3441C28.4996 10.9052 29.274 11.3647 30.1011 11.7091C30.6937 11.9648 31.3191 12.1368 31.9591 12.2201C31.9591 12.2201 31.9591 12.2081 31.9591 12.2101C31.9925 12.296 32.0107 12.387 32.0131 12.4791V12.4791Z" fill="#DEA864"/>
<path d="M29.436 6.59011C28.852 6.59397 28.2808 6.76128 27.787 7.07311C28.0228 6.40297 28.1497 5.69939 28.163 4.98911C28.197 4.01411 27.479 4.00911 26.916 4.60711C26.3987 5.52683 26.1212 6.56196 26.109 7.61712C26.0092 7.64748 25.9217 7.70882 25.8591 7.79224C25.7966 7.87566 25.7622 7.97683 25.761 8.0811C25.7605 8.23957 25.8198 8.3924 25.927 8.50911C25.9955 8.58146 26.0839 8.63198 26.181 8.65439C26.2781 8.6768 26.3797 8.67009 26.473 8.63511C26.5555 8.60965 26.6316 8.56668 26.696 8.50911C27.2603 8.71709 27.8643 8.79537 28.463 8.73812C28.8765 8.78927 29.2945 8.6872 29.638 8.45118C29.9814 8.21516 30.2265 7.86153 30.327 7.45711C30.411 6.88711 29.936 6.60611 29.436 6.59011ZM26.949 5.13912C27.0699 4.93094 27.2287 4.74712 27.417 4.59711C27.953 4.07911 27.817 5.48911 27.804 5.58811C27.7413 6.28622 27.5181 6.96041 27.152 7.55811C27.0544 7.65159 26.9635 7.75185 26.88 7.85811V7.85811L26.852 7.89312C26.7894 7.77585 26.6841 7.68708 26.558 7.64512C26.5094 7.63044 26.4586 7.62468 26.408 7.62812C26.4347 6.77268 26.6181 5.9294 26.949 5.14011V5.13912ZM29.838 7.70411C29.516 8.39111 28.469 8.35011 27.856 8.22611C27.639 8.18211 27.338 8.20311 27.099 8.13311C27.1088 8.12837 27.1182 8.12268 27.127 8.11611C27.1911 8.05329 27.2512 7.9865 27.307 7.91611C27.6679 7.56268 28.1076 7.30012 28.59 7.1501C29.102 6.9791 30.26 6.80411 29.836 7.70511L29.838 7.70411Z" fill="#A22D40"/>
<path d="M19.644 27.1781C19.6231 27.1437 19.5916 27.117 19.5542 27.102C19.5168 27.087 19.4755 27.0845 19.4366 27.095C19.3977 27.1055 19.3632 27.1284 19.3384 27.1601C19.3136 27.1919 19.2998 27.2309 19.299 27.2712C19.299 27.3122 19.299 27.3531 19.299 27.3941C18.7877 28.0201 18.325 28.0848 17.911 27.5881C17.7181 27.4049 17.55 27.1971 17.411 26.9702C17.0886 26.4213 16.8977 25.8052 16.853 25.1701C16.776 24.1345 16.8986 23.0936 17.214 22.1042C17.4671 21.2516 17.6625 20.3829 17.799 19.5041C17.937 18.4401 17.599 17.1042 17.98 16.0942C18.024 15.9752 17.85 15.9192 17.786 16.0122C17.5612 16.5262 17.487 17.0936 17.572 17.6481C17.5622 18.75 17.43 19.8474 17.178 20.9201C16.6009 22.5019 16.4002 24.1964 16.592 25.8692C16.6761 26.4418 16.9129 26.9813 17.2775 27.4309C17.6421 27.8805 18.121 28.2236 18.664 28.4241C18.8302 28.4977 19.0162 28.5138 19.1926 28.4699C19.3689 28.426 19.5257 28.3247 19.638 28.1818C19.7504 28.039 19.812 27.8628 19.8131 27.681C19.8141 27.4993 19.7547 27.3223 19.644 27.1781V27.1781Z" fill="#B5894B"/>
<path d="M28.977 26.5511C28.9983 26.5173 29.0299 26.4912 29.0671 26.4767C29.1043 26.4622 29.1452 26.46 29.1838 26.4704C29.2224 26.4807 29.2566 26.5032 29.2814 26.5345C29.3063 26.5657 29.3205 26.6042 29.322 26.6441C29.322 26.6851 29.322 26.7261 29.322 26.7671C29.8326 27.3931 30.2953 27.4577 30.71 26.9611C30.9027 26.7776 31.0708 26.5699 31.21 26.3431C31.5324 25.7941 31.7237 25.1781 31.769 24.5431C31.8459 23.5074 31.7233 22.4666 31.408 21.4771C31.1547 20.6246 30.9593 19.7559 30.823 18.8771C30.685 17.8141 31.023 16.4771 30.642 15.4671C30.597 15.3481 30.772 15.2921 30.836 15.3851C31.0612 15.899 31.1358 16.4664 31.051 17.0211C31.0606 18.123 31.1927 19.2204 31.445 20.2931C32.0223 21.8748 32.2229 23.5693 32.031 25.2421C31.9468 25.8147 31.7099 26.3542 31.3453 26.8037C30.9808 27.2533 30.5019 27.5964 29.959 27.7971C29.7927 27.8715 29.6063 27.8883 29.4294 27.8447C29.2525 27.8012 29.0952 27.6998 28.9824 27.5568C28.8697 27.4137 28.8079 27.237 28.8069 27.0549C28.8059 26.8727 28.8658 26.6954 28.977 26.5511V26.5511Z" fill="#B5894B"/>
<path d="M19.21 18.1491C19.21 18.5465 19.3278 18.9349 19.5485 19.2653C19.7693 19.5957 20.0831 19.8531 20.4501 20.0052C20.8172 20.1573 21.2212 20.197 21.6109 20.1195C22.0006 20.042 22.3586 19.8507 22.6395 19.5697C22.9205 19.2887 23.1118 18.9308 23.1893 18.5411C23.2669 18.1514 23.2271 17.7474 23.075 17.3803C22.923 17.0132 22.6655 16.6995 22.3351 16.4787C22.0047 16.258 21.6163 16.1401 21.2189 16.1401C20.6861 16.1401 20.1751 16.3518 19.7984 16.7285C19.4216 17.1053 19.21 17.6163 19.21 18.1491V18.1491Z" fill="white"/>
<path d="M22.5921 18.1921C22.5515 18.4664 22.433 18.7233 22.2506 18.9322C22.0683 19.1412 21.8298 19.2933 21.5635 19.3707C21.2971 19.448 21.0142 19.4472 20.7483 19.3685C20.4825 19.2897 20.2448 19.1362 20.0636 18.9263C19.8824 18.7164 19.7653 18.4589 19.7261 18.1843C19.687 17.9098 19.7276 17.6298 19.843 17.3776C19.9583 17.1255 20.1437 16.9117 20.377 16.7618C20.6103 16.612 20.8818 16.5322 21.1591 16.5321C21.5685 16.5641 21.9487 16.7564 22.2171 17.0673C22.4854 17.3782 22.6202 17.7824 22.5921 18.1921V18.1921Z" fill="#95BCD1"/>
<path d="M22.177 18.1921C22.1481 18.387 22.0638 18.5695 21.9342 18.718C21.8045 18.8664 21.635 18.9745 21.4457 19.0294C21.2565 19.0843 21.0554 19.0836 20.8665 19.0276C20.6776 18.9716 20.5087 18.8625 20.38 18.7133C20.2513 18.564 20.1681 18.381 20.1404 18.1859C20.1126 17.9908 20.1415 17.7918 20.2236 17.6127C20.3056 17.4335 20.4374 17.2817 20.6032 17.1752C20.769 17.0687 20.9619 17.0121 21.159 17.0121C21.4499 17.0351 21.7199 17.1719 21.9105 17.3929C22.1011 17.6138 22.1969 17.901 22.177 18.1921Z" fill="#141E62"/>
<path d="M22.2421 17.0751C22.2421 17.2521 22.0071 17.3961 21.7171 17.3961C21.4271 17.3961 21.1921 17.2521 21.1921 17.0751C21.1921 16.8981 21.4271 16.7542 21.7171 16.7542C22.0071 16.7542 22.2421 16.8981 22.2421 17.0751Z" fill="white"/>
<path d="M20.312 15.8271C19.312 16.1191 18.296 17.6951 19.112 18.6191C19.1302 18.6366 19.1531 18.6484 19.1779 18.6531C19.2027 18.6577 19.2283 18.6551 19.2517 18.6454C19.275 18.6358 19.295 18.6195 19.3093 18.5987C19.3235 18.5779 19.3314 18.5533 19.332 18.5281C19.2341 18.1096 19.2744 17.6708 19.4467 17.2771C19.619 16.8834 19.9142 16.5561 20.288 16.3441C20.6111 16.1927 20.9706 16.1361 21.3246 16.1809C21.6786 16.2257 22.0127 16.37 22.288 16.5971C22.573 16.8271 22.72 17.1751 23.012 17.4041C23.056 17.4391 23.138 17.4221 23.134 17.3531C23.061 16.0141 21.41 15.5071 20.312 15.8271Z" fill="#141E62"/>
<path d="M25.4731 18.1491C25.4731 18.5465 25.591 18.9349 25.8117 19.2653C26.0325 19.5957 26.3462 19.8531 26.7133 20.0052C27.0804 20.1573 27.4844 20.197 27.8741 20.1195C28.2638 20.042 28.6218 19.8507 28.9027 19.5697C29.1837 19.2887 29.375 18.9308 29.4526 18.5411C29.5301 18.1514 29.4903 17.7474 29.3382 17.3803C29.1862 17.0132 28.9287 16.6995 28.5983 16.4787C28.2679 16.258 27.8795 16.1401 27.4822 16.1401C26.9493 16.1401 26.4383 16.3518 26.0616 16.7285C25.6848 17.1053 25.4731 17.6163 25.4731 18.1491V18.1491Z" fill="white"/>
<path d="M28.9851 18.1921C28.9553 18.4818 28.8422 18.7566 28.6594 18.9833C28.4766 19.21 28.232 19.3789 27.9552 19.4694C27.6785 19.56 27.3814 19.5684 27.0999 19.4935C26.8185 19.4187 26.5648 19.2639 26.3696 19.0478C26.1743 18.8317 26.0459 18.5637 25.9999 18.2761C25.9539 17.9886 25.9922 17.6939 26.1102 17.4276C26.2283 17.1614 26.421 16.9351 26.665 16.7762C26.909 16.6173 27.1938 16.5325 27.4851 16.5321C27.9038 16.5541 28.2968 16.7411 28.5779 17.0523C28.8591 17.3634 29.0055 17.7733 28.9851 18.1921V18.1921Z" fill="#95BCD1"/>
<path d="M28.5521 18.1921C28.5308 18.3979 28.4503 18.5931 28.3204 18.7541C28.1904 18.9151 28.0166 19.035 27.8199 19.0992C27.6232 19.1635 27.4121 19.1693 27.2122 19.116C27.0122 19.0627 26.832 18.9526 26.6934 18.799C26.5548 18.6454 26.4637 18.4549 26.4311 18.2506C26.3985 18.0463 26.4259 17.8369 26.5098 17.6478C26.5938 17.4587 26.7308 17.298 26.9043 17.1852C27.0777 17.0723 27.2802 17.0122 27.4871 17.0121C27.7846 17.0279 28.0637 17.1609 28.2633 17.3821C28.4629 17.6033 28.5668 17.8945 28.5521 18.1921V18.1921Z" fill="#141E62"/>
<path d="M28.619 17.0751C28.619 17.2521 28.373 17.3961 28.069 17.3961C27.765 17.3961 27.52 17.2521 27.52 17.0751C27.52 16.8981 27.766 16.7542 28.069 16.7542C28.372 16.7542 28.619 16.8981 28.619 17.0751Z" fill="white"/>
<path d="M28.3143 15.8271C29.3143 16.1191 30.3303 17.6951 29.5143 18.6191C29.4961 18.6366 29.4731 18.6484 29.4483 18.6531C29.4235 18.6577 29.3979 18.6551 29.3746 18.6454C29.3512 18.6358 29.3312 18.6195 29.3169 18.5987C29.3027 18.5779 29.2948 18.5533 29.2943 18.5281C29.3923 18.1096 29.3521 17.6707 29.1797 17.277C29.0074 16.8833 28.7122 16.556 28.3383 16.3441C28.0151 16.1928 27.6557 16.1363 27.3017 16.1811C26.9477 16.2259 26.6136 16.3701 26.3383 16.5971C26.0543 16.8271 25.9063 17.1751 25.6153 17.4041C25.5703 17.4391 25.4893 17.4221 25.4923 17.3531C25.5653 16.0141 27.2163 15.5071 28.3143 15.8271Z" fill="#141E62"/>
<path d="M18.937 15.8651C18.878 15.9551 20.999 13.6461 22.904 15.0561C22.904 15.0561 21.312 12.2371 18.937 15.8651Z" fill="#92561A"/>
<path d="M30.2111 15.6571C30.2701 15.7471 28.1491 13.4381 26.2441 14.8481C26.2441 14.8471 27.8361 12.0291 30.2111 15.6571Z" fill="#92561A"/>
<path d="M21.608 20.3811C21.608 20.6691 20.9771 20.9031 20.1991 20.9031C19.4211 20.9031 18.79 20.6691 18.79 20.3811C18.79 20.0931 19.4211 19.8591 20.1991 19.8591C20.9771 19.8591 21.608 20.0931 21.608 20.3811Z" fill="#A22D40"/>
<path d="M28.5501 20.6941C29.3283 20.6941 29.9591 20.4604 29.9591 20.1721C29.9591 19.8839 29.3283 19.6501 28.5501 19.6501C27.7719 19.6501 27.1411 19.8839 27.1411 20.1721C27.1411 20.4604 27.7719 20.6941 28.5501 20.6941Z" fill="#A22D40"/>
<path d="M23.4521 20.2421C23.7111 20.6165 24.074 20.9068 24.4961 21.0771C25.0531 21.2161 25.6101 20.1031 25.4011 20.2421C25.1921 20.3811 24.7041 15.7181 23.4521 20.2421Z" fill="#CD8B6D"/>
<path d="M27.996 21.5692C27.7852 21.5134 27.5652 21.5022 27.3499 21.5362C27.2499 21.5482 27.2049 21.7112 27.3239 21.7282C27.4419 21.7466 27.5582 21.774 27.6719 21.8102C27.0059 22.0742 26.6539 22.1902 26.6539 22.1902C25.2548 21.8263 23.7803 21.8746 22.4079 22.3292C22.2003 22.3876 21.983 22.4039 21.7689 22.3772C21.8806 22.3293 21.9776 22.2527 22.05 22.1552C22.0552 22.1449 22.0577 22.1334 22.0573 22.1218C22.0569 22.1103 22.0536 22.099 22.0478 22.089C22.0419 22.0791 22.0336 22.0708 22.0237 22.0648C22.0138 22.0589 22.0025 22.0556 21.9909 22.0552C21.6979 22.0402 21.4129 22.3192 21.1909 22.4752C21.1109 22.5302 21.1829 22.6602 21.2689 22.6082C21.413 22.5323 21.5616 22.4655 21.7139 22.4082C25.4369 26.7442 27.7139 22.4922 27.8029 21.8522L27.8569 21.8692C28.0129 21.9182 28.1909 22.0602 28.3569 22.0142C28.3791 22.0087 28.3988 21.9958 28.4126 21.9776C28.4264 21.9594 28.4336 21.937 28.433 21.9142C28.41 21.7072 28.17 21.6212 27.996 21.5692Z" fill="#A22D40"/>
<path d="M22.9639 22.8871C23.7583 22.681 24.5819 22.6104 25.3999 22.6781C25.8144 22.7507 26.2384 22.7507 26.6529 22.6781C26.6529 22.6781 24.7039 24.6261 22.9639 22.8871Z" fill="white"/>
<defs>
<filter id="filter0_d" x="0" y="0" width="48.8271" height="54.5588" filterUnits="userSpaceOnUse" color-interpolation-filters="sRGB">
<feFlood flood-opacity="0" result="BackgroundImageFix"/>
<feColorMatrix in="SourceAlpha" type="matrix" values="0 0 0 0 0 0 0 0 0 0 0 0 0 0 0 0 0 0 127 0" result="hardAlpha"/>
<feOffset dy="5"/>
<feGaussianBlur stdDeviation="3"/>
<feColorMatrix type="matrix" values="0 0 0 0 0 0 0 0 0 0 0 0 0 0 0 0 0 0 0.161 0"/>
<feBlend mode="normal" in2="BackgroundImageFix" result="effect1_dropShadow"/>
<feBlend mode="normal" in="SourceGraphic" in2="effect1_dropShadow" result="shape"/>
</filter>
</defs>
</svg>
