<svg xmlns="http://www.w3.org/2000/svg" width="40" height="40" viewBox="0 0 40 40"><defs><style>.a{fill:#23cbd8;}.b{fill:#fff;}</style></defs><g transform="translate(-315 -747)"><circle class="a" cx="20" cy="20" r="20" transform="translate(315 747)"/><g transform="translate(176.446 757)"><path class="b" d="M305.175,12.9h0a3.624,3.624,0,0,0,3.535-3.707V3.707A3.624,3.624,0,0,0,305.175,0h0a3.624,3.624,0,0,0-3.535,3.707V9.189A3.624,3.624,0,0,0,305.175,12.9Z" transform="translate(-146.121)"/><path class="b" d="M152.554,313.257v.914a7.062,7.062,0,0,0,.511,2.654,6.821,6.821,0,0,0,1.393,2.167,6.469,6.469,0,0,0,2.066,1.461,6.232,6.232,0,0,0,1.259.406v2.083a2.124,2.124,0,0,0-1.452,2.045h5.446a2.124,2.124,0,0,0-1.452-2.045v-2.083a6.233,6.233,0,0,0,1.259-.406,6.47,6.47,0,0,0,2.066-1.461,6.821,6.821,0,0,0,1.393-2.167,7.062,7.062,0,0,0,.511-2.654v-.914a1.733,1.733,0,0,0-1.691-1.773v2.687a5.138,5.138,0,0,1-1.409,3.567,4.653,4.653,0,0,1-6.8,0,5.138,5.138,0,0,1-1.409-3.567v-2.687A1.733,1.733,0,0,0,152.554,313.257Z" transform="translate(0 -304.986)"/></g></g></svg>