<svg xmlns="http://www.w3.org/2000/svg" xmlns:xlink="http://www.w3.org/1999/xlink" width="50.598" height="45.344" viewBox="0 0 50.598 45.344"><defs><style>.a,.b,.f{fill:#fff;}.a{opacity:0.11;}.b{opacity:0.25;}.c{opacity:0.78;fill:url(#a);}.d{fill:url(#b);}.e{fill:#d8dee8;}.ah,.g{opacity:0.3;}.g{mix-blend-mode:soft-light;}.aa,.ah,.aj,.g,.w,.x{isolation:isolate;}.h{fill:#f4f7fa;}.i,.m{fill:url(#c);}.j{fill:url(#d);}.k{fill:url(#e);}.l{fill:url(#h);}.m{opacity:0.09;}.n{fill:url(#j);}.o{opacity:0.7;}.p{fill:url(#l);}.q{fill:url(#m);}.r{fill:url(#n);}.s{fill:url(#o);}.t{fill:url(#p);}.u{fill:#fec045;}.v{fill:url(#q);}.w{opacity:0.15;fill:url(#r);}.aa,.ah,.aj,.w,.x{mix-blend-mode:multiply;}.x{opacity:0.42;}.y{fill:url(#s);}.z{fill:url(#t);}.aa{opacity:0.26;fill:url(#u);}.ab{opacity:0.53;}.ac{fill:url(#v);}.ad{fill:url(#w);}.ae{fill:url(#x);}.af{fill:url(#y);}.ag{fill:url(#z);}.ah{fill:url(#aa);}.ai{fill:url(#ah);}.aj{opacity:0.2;fill:url(#ai);}.ak{fill:url(#aj);}.al{fill:url(#ak);}</style><linearGradient id="a" x1="0.378" y1="0.388" x2="0.5" y2="1" gradientUnits="objectBoundingBox"><stop offset="0" stop-color="#fff"/><stop offset="1" stop-color="#5274eb"/></linearGradient><linearGradient id="b" x1="1.354" y1="0.493" x2="2.385" y2="0.493" gradientUnits="objectBoundingBox"><stop offset="0" stop-color="#4b4b4b"/><stop offset="0.996"/><stop offset="1" stop-color="#26264f"/></linearGradient><linearGradient id="c" x1="-6.045" y1="-1.725" x2="-4.355" y2="-1.672" gradientUnits="objectBoundingBox"><stop offset="0" stop-color="#e38ddd"/><stop offset="0.004" stop-color="#00c22d"/><stop offset="1" stop-color="#319748"/></linearGradient><linearGradient id="d" x1="-16.534" y1="-17.781" x2="-13.256" y2="-4.918" gradientUnits="objectBoundingBox"><stop offset="0" stop-color="#aa80f9"/><stop offset="0.996" stop-color="#6165d7"/></linearGradient><linearGradient id="e" x1="-16.289" y1="-24.641" x2="-13.415" y2="-8.38" xlink:href="#d"/><linearGradient id="h" x1="-8.985" y1="-4.779" x2="-8.676" y2="-3.958" xlink:href="#d"/><linearGradient id="j" x1="-5.012" y1="-1.651" x2="-6.217" y2="-1.746" gradientUnits="objectBoundingBox"><stop offset="0" stop-color="#311944"/><stop offset="1" stop-color="#893976"/></linearGradient><linearGradient id="l" x1="-41.813" y1="-20.537" x2="-38.358" y2="-18.495" gradientUnits="objectBoundingBox"><stop offset="0" stop-color="#f57e53"/><stop offset="0.005" stop-color="#f58152"/><stop offset="0.042" stop-color="#f8994d"/><stop offset="0.084" stop-color="#fbac49"/><stop offset="0.133" stop-color="#fdb946"/><stop offset="0.196" stop-color="#fec144"/><stop offset="0.318" stop-color="#ffc444"/><stop offset="0.455" stop-color="#fdb946"/><stop offset="0.694" stop-color="#f99c4c"/><stop offset="0.996" stop-color="#f36f56"/></linearGradient><linearGradient id="m" x1="-46.287" y1="-21.969" x2="-45.422" y2="-21.969" gradientUnits="objectBoundingBox"><stop offset="0" stop-color="#ff9085"/><stop offset="1" stop-color="#fb6fbb"/></linearGradient><linearGradient id="n" x1="-139.894" y1="-29.739" x2="-137.525" y2="-29.739" xlink:href="#m"/><linearGradient id="o" x1="-140.701" y1="-29.554" x2="-138.328" y2="-29.554" xlink:href="#m"/><linearGradient id="p" x1="-141.512" y1="-29.37" x2="-139.134" y2="-29.37" xlink:href="#m"/><linearGradient id="q" x1="-63.644" y1="-35.848" x2="-62.963" y2="-35.848" xlink:href="#m"/><linearGradient id="r" x1="-10.104" y1="-2.052" x2="-7.525" y2="-1.989" gradientUnits="objectBoundingBox"><stop offset="0" stop-color="#fb6fbb"/><stop offset="1" stop-color="#ff9085"/></linearGradient><linearGradient id="s" x1="-50.434" y1="-11.227" x2="-48.647" y2="-11.227" xlink:href="#r"/><linearGradient id="t" x1="-40.457" y1="-7.409" x2="-38.528" y2="-7.409" xlink:href="#r"/><linearGradient id="u" x1="-34.635" y1="-18.181" x2="-33.595" y2="-18.181" xlink:href="#m"/><linearGradient id="v" x1="0.329" y1="0.554" x2="-0.255" y2="0.738" gradientUnits="objectBoundingBox"><stop offset="0" stop-color="#fcb148"/><stop offset="0.052" stop-color="#fdb946"/><stop offset="0.142" stop-color="#fec144"/><stop offset="0.318" stop-color="#ffc444"/><stop offset="0.485" stop-color="#fdb946"/><stop offset="0.775" stop-color="#f99c4c"/><stop offset="0.866" stop-color="#f8924f"/><stop offset="1" stop-color="#f8924f"/></linearGradient><linearGradient id="w" x1="0.727" y1="0.007" x2="0.207" y2="1.135" gradientUnits="objectBoundingBox"><stop offset="0" stop-color="#ffdb44"/><stop offset="1" stop-color="#feef06"/></linearGradient><linearGradient id="x" x1="0.636" y1="1.231" x2="0.531" y2="0.666" xlink:href="#v"/><linearGradient id="y" x1="0.409" y1="0.31" x2="0.858" y2="1.247" xlink:href="#v"/><linearGradient id="z" x1="0.253" y1="0.019" x2="0.711" y2="1.039" xlink:href="#w"/><linearGradient id="aa" x1="0.464" y1="0.369" x2="1.215" y2="1.306" xlink:href="#v"/><linearGradient id="ah" x1="0.641" y1="-0.993" x2="0.376" y2="1.775" gradientUnits="objectBoundingBox"><stop offset="0" stop-color="#777"/><stop offset="1"/></linearGradient><linearGradient id="ai" x1="3.311" y1="-0.817" x2="-0.513" y2="0.923" gradientUnits="objectBoundingBox"><stop offset="0" stop-color="#150d11"/><stop offset="1"/></linearGradient><linearGradient id="aj" x1="4.112" y1="-0.532" x2="-0.545" y2="0.957" gradientUnits="objectBoundingBox"><stop offset="0" stop-color="#6f6f6f"/><stop offset="1" stop-color="#767676"/></linearGradient><linearGradient id="ak" x1="3.689" y1="-0.716" x2="-0.501" y2="0.882" gradientUnits="objectBoundingBox"><stop offset="0" stop-color="#ffc444"/><stop offset="0.996" stop-color="gold"/><stop offset="1" stop-color="#f36f56"/></linearGradient></defs><g transform="translate(-439.023 -446.825)"><g transform="translate(441.598 449.999)"><path class="a" d="M490.36,484.21c-4.35,10.168-15.833,14.536-24.831,13.791-2.457-.2-7.4-.612-11.259-4.262-7.412-7.009-6.27-21.66.825-30.285.914-1.111,7.238-8.553,17.094-8.453a21.662,21.662,0,0,1,12.9,4.657,19.865,19.865,0,0,1,4.04,4.584C492.759,469.924,493.079,477.856,490.36,484.21Z" transform="translate(-451.794 -458.174)"/><path class="b" d="M488.735,483.056c-4.178,9.766-15.208,13.961-23.85,13.246-2.36-.2-7.107-.588-10.814-4.094-7.119-6.732-6.022-20.8.792-29.089.878-1.067,6.952-8.215,16.418-8.119a20.806,20.806,0,0,1,12.387,4.473,19.077,19.077,0,0,1,3.881,4.4C491.039,469.334,491.346,476.953,488.735,483.056Z" transform="translate(-442.441 -455.681)"/><path class="c" d="M485.977,481.1c-3.887,9.085-14.146,12.987-22.185,12.322-2.195-.182-6.611-.547-10.059-3.808-6.622-6.262-5.6-19.352.737-27.058.816-.992,6.467-7.642,15.272-7.553a19.353,19.353,0,0,1,11.522,4.161,17.746,17.746,0,0,1,3.61,4.1C488.12,468.334,488.406,475.421,485.977,481.1Z" transform="translate(-443.614 -451.322)"/><g transform="translate(10.253 -1.592)"><g transform="translate(0 0)"><path class="d" d="M737.516,530.857l3.688,37.09a.952.952,0,0,1-.847,1.073l-17.969,1.5c-1.1.038-1.686-.552-1.746-1.136l-4-39.26c-.06-.59.487-1.112,1.594-1.089l18.213.768A1.172,1.172,0,0,1,737.516,530.857Z" transform="translate(-716.643 -529.039)"/><path d="M784.333,530.763l3.7,37.281a.957.957,0,0,1-.85,1.079l-18.629,1.366a1.109,1.109,0,0,1-1.167-.991l-4.014-39.468a.916.916,0,0,1,.966-1.037l18.924.716A1.178,1.178,0,0,1,784.333,530.763Z" transform="translate(-762.643 -528.992)"/><path class="e" d="M840.3,676.994l3.435,34.554a.892.892,0,0,1-.8,1.006L825.413,713.8a1.034,1.034,0,0,1-1.086-.925l-3.7-36.455a.858.858,0,0,1,.9-.971l17.779.566A1.093,1.093,0,0,1,840.3,676.994Z" transform="translate(-818.997 -673.166)"/><path class="f" d="M1434.042,604.376a.3.3,0,0,1-.315.349.421.421,0,0,1-.388-.374.3.3,0,0,1,.315-.349A.421.421,0,0,1,1434.042,604.376Z" transform="translate(-1422.168 -602.833)"/></g><g class="g" transform="translate(0.728)"><path class="h" d="M772.792,548.732c-1.851-5.47,1.371-8.226-.454-13.293a13.426,13.426,0,0,0-5.167-6.34l-2.828-.107a.916.916,0,0,0-.966,1.037L767.39,569.5a1.108,1.108,0,0,0,1.167.991l16.083-1.179a18.772,18.772,0,0,0-2.262-9.139C779.179,554.441,774.709,554.4,772.792,548.732Z" transform="translate(-763.371 -528.992)"/></g><g transform="translate(7.268 6.621)"><path class="i" d="M1196.484,953.859l8.321,6.893c-7.156,3.218-6.323,13.053-13.478,16.271l-8.321-6.893C1190.161,966.912,1189.329,957.077,1196.484,953.859Z" transform="translate(-1183.006 -953.859)"/><path class="f" d="M1292.014,1018.032c-6.07,3.42-5.841,12.059-11.911,15.479l-7.082-5.867c6.07-3.42,5.842-12.059,11.911-15.479Z" transform="translate(-1271.617 -1011.256)"/><g transform="translate(0 15.036)"><path class="j" d="M1185.667,1919c.031.026.059.05.087.077l.007.007a1.326,1.326,0,0,1,.437,1.079,1.2,1.2,0,0,1-.548.874,1.823,1.823,0,0,1-.158.1,2.251,2.251,0,0,1-.709.23l-1.777-1.472a9.554,9.554,0,0,0,2.03-1.235A1.84,1.84,0,0,1,1185.667,1919Z" transform="translate(-1183.006 -1918.655)"/><path class="k" d="M1603.657,2296.046a1.646,1.646,0,0,1,.433.553,9.544,9.544,0,0,1-2.021,1.227l-1.818-1.506a2.357,2.357,0,0,1,.529-.38c.056-.03.113-.058.171-.084a2.657,2.657,0,0,1,2.629.13l.008.006C1603.611,2296.009,1603.636,2296.029,1603.657,2296.046Z" transform="translate(-1593.748 -2289.699)"/></g><g transform="translate(11.448)"><path class="i" d="M1919.615,953.859l1.777,1.472a2.356,2.356,0,0,1-.529.38q-.084.045-.171.085a2.664,2.664,0,0,1-2.6-.112c-.033-.024-.06-.044-.091-.07a1.447,1.447,0,0,1-.412-.52A9.545,9.545,0,0,1,1919.615,953.859Z" transform="translate(-1917.585 -953.859)"/><path class="i" d="M2375.574,1299.5l1.818,1.506a9.53,9.53,0,0,0-2.021,1.227,2.1,2.1,0,0,1-.672-.361c-.022-.018-.045-.038-.066-.057l-.008-.007a1.367,1.367,0,0,1-.47-1.016,1.187,1.187,0,0,1,.552-.964,1.69,1.69,0,0,1,.157-.1A2.25,2.25,0,0,1,2375.574,1299.5Z" transform="translate(-2367.04 -1294.115)"/></g><path class="l" d="M1706.095,1472.169a4.207,4.207,0,0,1,.955,4.865,2.409,2.409,0,0,1-3.876.863,4.207,4.207,0,0,1-.955-4.865A2.409,2.409,0,0,1,1706.095,1472.169Z" transform="translate(-1693.745 -1463.459)"/><g transform="translate(9.155 9.621)"><path class="f" d="M1772.635,1572.2a1.486,1.486,0,0,0-.755.539l-.591-.489.023-.041a1.954,1.954,0,0,1,.257-.35,1.586,1.586,0,0,1,.169-.158.163.163,0,0,0,0-.233l-.243-.245a.118.118,0,0,0-.172,0c-.08.08-.158.17-.23.259a3.616,3.616,0,0,0-.274.384l-.207-.171a.115.115,0,0,0-.179.025.163.163,0,0,0,.039.207l.211.175a1.792,1.792,0,0,0-.207.968,1.077,1.077,0,0,0,.4.735.769.769,0,0,0,.689.2,1.451,1.451,0,0,0,.719-.53l.656.546a2.644,2.644,0,0,1-.291.412,2.33,2.33,0,0,1-.222.224.177.177,0,0,0,0,.248l.315.311a.117.117,0,0,0,.174,0,3.017,3.017,0,0,0,.225-.278,4.078,4.078,0,0,0,.277-.447l.031-.059.225.186a.106.106,0,0,0,.174-.029v0a.176.176,0,0,0-.046-.21l-.228-.188a2.142,2.142,0,0,0,.177-.737,1.521,1.521,0,0,0-.014-.295,1.179,1.179,0,0,0-.426-.76A.758.758,0,0,0,1772.635,1572.2Zm-.174,1.055a.59.59,0,0,1,.269-.18.283.283,0,0,1,.243.073.427.427,0,0,1,.155.267.567.567,0,0,1-.064.339Zm-1-.141a.241.241,0,0,1-.218-.06.367.367,0,0,1-.133-.24.672.672,0,0,1,.05-.322l.542.449A.5.5,0,0,1,1771.463,1573.115Z" transform="translate(-1770.413 -1571.183)"/></g><path class="m" d="M1215.89,1382.459l.027.022c-7.156,3.218-6.323,13.053-13.478,16.271l-8.145-6.748a10.444,10.444,0,0,1,1.281-.059,9.734,9.734,0,0,1,1.735.186,11.743,11.743,0,0,1,2.309.722c4.182,1.775,5.384.28,6.108-2.243.2-.669.371-1.406.579-2.154.092-.329.194-.661.308-.991a12.184,12.184,0,0,1,.82-1.872,5.758,5.758,0,0,1,5.247-3.327,6.51,6.51,0,0,1,1.289.15,3.415,3.415,0,0,0,.356.056A8.944,8.944,0,0,0,1215.89,1382.459Z" transform="translate(-1194.118 -1375.588)"/></g><g transform="translate(6.247 10.919)"><path class="n" d="M1133.272,1252.743a.459.459,0,0,1,.286.585l-5.749,14.135a.582.582,0,0,1-.7.307l-9.365-3.894a.563.563,0,0,1-.251-.7l5.8-13.913a.476.476,0,0,1,.615-.222Z" transform="translate(-1117.455 -1248.699)"/><path class="i" d="M1134.938,1233.38a.462.462,0,0,1,.287.589l-5.855,14.315a.491.491,0,0,1-.649.245l-9.423-3.916a.474.474,0,0,1-.27-.621l5.859-14.115a.48.48,0,0,1,.62-.224Z" transform="translate(-1118.967 -1229.616)"/><g class="o" transform="translate(6.917 4.109)"><path class="h" d="M1563.277,2070.728l-.992,2.323a.226.226,0,0,1-.274.124l-.585-.2a.186.186,0,0,1-.113-.254l1-2.322a.225.225,0,0,1,.273-.121l.58.2A.185.185,0,0,1,1563.277,2070.728Z" transform="translate(-1561.296 -2061.279)"/><path class="h" d="M1648.808,1874.858l-.974,2.281a.222.222,0,0,1-.271.12l-.579-.2a.184.184,0,0,1-.112-.25l.981-2.279a.22.22,0,0,1,.269-.118l.574.194A.183.183,0,0,1,1648.808,1874.858Z" transform="translate(-1645.522 -1868.466)"/><path class="h" d="M1732.774,1682.543l-.956,2.239a.219.219,0,0,1-.268.117l-.573-.195a.181.181,0,0,1-.112-.246l.963-2.238a.218.218,0,0,1,.266-.115l.569.193A.181.181,0,0,1,1732.774,1682.543Z" transform="translate(-1728.207 -1679.152)"/><path class="h" d="M1815.219,1493.685l-.939,2.2a.216.216,0,0,1-.265.114l-.568-.194a.179.179,0,0,1-.112-.242l.946-2.2a.214.214,0,0,1,.262-.112l.563.193A.178.178,0,0,1,1815.219,1493.685Z" transform="translate(-1809.393 -1493.242)"/></g><g transform="translate(3.652 12.683)"><path class="p" d="M1354.247,2044.449l-.468,1.1a.415.415,0,0,1-.545.2l-1.169-.483a.4.4,0,0,1-.232-.524l.472-1.1a.415.415,0,0,1,.543-.2l1.164.478A.4.4,0,0,1,1354.247,2044.449Z" transform="translate(-1351.803 -2043.415)"/><path class="q" d="M1363.427,2053.385l-.4.946a.383.383,0,0,1-.5.188l-1-.415a.371.371,0,0,1-.215-.483l.405-.943a.382.382,0,0,1,.5-.186l1,.411A.372.372,0,0,1,1363.427,2053.385Zm-2.074.256a.32.32,0,0,0,.185.416l1,.415a.33.33,0,0,0,.433-.162l.4-.946a.319.319,0,0,0-.187-.415l-1-.412a.33.33,0,0,0-.431.16Z" transform="translate(-1361.128 -2052.32)"/><g transform="translate(0.5 0.236)"><path class="h" d="M1385.46,2060.77l.671-1.566Z" transform="translate(-1385.435 -2059.193)"/><path class="r" d="M1384.581,2058.57l-.671,1.566-.05-.021.671-1.566Z" transform="translate(-1383.861 -2058.549)"/><g transform="translate(0.377 0.155)"><path class="h" d="M1409.664,2070.693l.67-1.567Z" transform="translate(-1409.639 -2069.116)"/><path class="s" d="M1408.782,2068.491l-.67,1.568-.05-.021.67-1.568Z" transform="translate(-1408.063 -2068.47)"/></g><g transform="translate(0.755 0.309)"><path class="h" d="M1433.887,2080.623l.669-1.569Z" transform="translate(-1433.862 -2079.044)"/><path class="t" d="M1433,2078.42l-.669,1.568-.05-.021.669-1.568Z" transform="translate(-1432.285 -2078.4)"/></g></g><g transform="translate(0.446 0.538)"><path class="u" d="M1383.664,2080.251l-.187.439a.232.232,0,0,1-.3.113l-.876-.362a.225.225,0,0,1-.13-.292l.188-.437a.232.232,0,0,1,.3-.113l.874.36A.225.225,0,0,1,1383.664,2080.251Z" transform="translate(-1382.125 -2079.556)"/><path class="v" d="M1381.989,2078.656l-.187.439a.259.259,0,0,1-.338.126l-.876-.362a.25.25,0,0,1-.145-.325l.188-.437a.258.258,0,0,1,.338-.125l.874.36A.251.251,0,0,1,1381.989,2078.656Zm-1.5-.1a.2.2,0,0,0,.115.258l.876.361a.2.2,0,0,0,.268-.1l.187-.439a.2.2,0,0,0-.116-.258l-.875-.36a.2.2,0,0,0-.268.1Z" transform="translate(-1380.425 -2077.949)"/></g></g><path class="w" d="M1503.539,1442.544a6.13,6.13,0,0,1-1.292,2.724,5.938,5.938,0,0,1-2.691,1.664l3.8,1.579a.49.49,0,0,0,.649-.245l5.855-14.315a.462.462,0,0,0-.288-.589l-1.51-.6a8.17,8.17,0,0,0-3.534,4.37C1504.091,1438.583,1504.35,1439.593,1503.539,1442.544Z" transform="translate(-1493.601 -1429.598)"/><g class="x" transform="translate(8.897 7.072)"><path class="y" d="M1690.437,2077.736l-1.322,3.2a.125.125,0,0,1-.164.062l-.538-.222a.125.125,0,0,1-.073-.16l1.327-3.2a.123.123,0,0,1,.163-.061l.534.218A.123.123,0,0,1,1690.437,2077.736Z" transform="translate(-1688.332 -2071.211)"/><path class="z" d="M1826.759,1683.785l-1.759,4.262a.125.125,0,0,1-.164.062l-.538-.219a.123.123,0,0,1-.073-.159l1.766-4.256a.125.125,0,0,1,.163-.061l.533.214A.121.121,0,0,1,1826.759,1683.785Z" transform="translate(-1822.099 -1683.406)"/></g><path class="aa" d="M1526.319,1372.4a1.256,1.256,0,0,1,.668,1.669,1.287,1.287,0,0,1-1.651.718,1.256,1.256,0,0,1-.674-1.647A1.288,1.288,0,0,1,1526.319,1372.4Z" transform="translate(-1518.223 -1370.084)"/><g class="ab" transform="translate(4.921 11.168)"><path class="h" d="M1456.986,2010.782a.206.206,0,0,1-.111.266.2.2,0,0,1-.266-.109.206.206,0,0,1,.114-.266A.2.2,0,0,1,1456.986,2010.782Z" transform="translate(-1456.23 -2009.654)"/><path class="h" d="M1434.958,1947.08a.073.073,0,0,1-.04.041.077.077,0,0,1-.1-.041,1.163,1.163,0,0,0-1.5-.611.077.077,0,0,1-.1-.041.075.075,0,0,1,.044-.1,1.318,1.318,0,0,1,1.69.69A.074.074,0,0,1,1434.958,1947.08Z" transform="translate(-1433.218 -1946.241)"/><path class="h" d="M1441.723,1965.825a.074.074,0,0,1-.041.041.077.077,0,0,1-.1-.041.852.852,0,0,0-1.1-.451.077.077,0,0,1-.1-.041.076.076,0,0,1,.044-.1,1.007,1.007,0,0,1,1.3.531A.074.074,0,0,1,1441.723,1965.825Z" transform="translate(-1440.261 -1964.868)"/><path class="h" d="M1448.578,1984.849a.076.076,0,0,1-.041.042.077.077,0,0,1-.1-.041.542.542,0,0,0-.707-.289.076.076,0,1,1-.057-.141.7.7,0,0,1,.531,0,.687.687,0,0,1,.375.37A.077.077,0,0,1,1448.578,1984.849Z" transform="translate(-1447.398 -1983.773)"/></g></g><g transform="translate(5.346 16.498)"><path class="ac" d="M1069.126,1606.877a4.4,4.4,0,0,1-4.556,4.49,5.156,5.156,0,0,1-4.9-5.128,4.391,4.391,0,0,1,4.9-4.467A5.189,5.189,0,0,1,1069.126,1606.877Z" transform="translate(-1059.674 -1601.526)"/><path class="ad" d="M1113.439,1592.729a4.4,4.4,0,0,1-4.555,4.49,5.156,5.156,0,0,1-4.9-5.128,4.391,4.391,0,0,1,4.9-4.467A5.19,5.19,0,0,1,1113.439,1592.729Z" transform="translate(-1103.297 -1587.599)"/><path class="ae" d="M1127.831,1606.644a4.2,4.2,0,0,1-4.355,4.285,4.921,4.921,0,0,1-4.666-4.894,4.191,4.191,0,0,1,4.666-4.264A4.952,4.952,0,0,1,1127.831,1606.644Z" transform="translate(-1117.889 -1601.527)"/><path class="af" d="M1138.08,1616.579a4.058,4.058,0,0,1-4.211,4.139,4.753,4.753,0,0,1-4.5-4.726,4.048,4.048,0,0,1,4.5-4.12A4.783,4.783,0,0,1,1138.08,1616.579Z" transform="translate(-1128.282 -1611.471)"/><g transform="translate(3.403 1.204)"><path class="ag" d="M1280.19,1664.824h0a.258.258,0,0,1,.227.253v.435a6.425,6.425,0,0,1,.755.131q.279.066.553.156a.255.255,0,0,1,.173.261l-.053.546a.2.2,0,0,1-.292.17,3.174,3.174,0,0,0-.371-.138,3.347,3.347,0,0,0-.7-.131l-.064-.005v1.247a3.271,3.271,0,0,1,1.447.74,1.564,1.564,0,0,1,.464,1.155,1.521,1.521,0,0,1-.512,1.2,2.341,2.341,0,0,1-1.45.511v.48a.218.218,0,0,1-.227.222h0a.242.242,0,0,1-.228-.241v-.474l-.1,0a6.661,6.661,0,0,1-.84-.09,5.453,5.453,0,0,1-.581-.134.25.25,0,0,1-.182-.258l.063-.7a.222.222,0,0,1,.31-.183,4.568,4.568,0,0,0,.511.167,4.451,4.451,0,0,0,.816.136l0-1.386a3,3,0,0,1-1.409-.691,1.582,1.582,0,0,1-.467-1.176,1.375,1.375,0,0,1,.506-1.143,2.244,2.244,0,0,1,1.426-.4v-.445A.205.205,0,0,1,1280.19,1664.824Zm-.228,1.664a.768.768,0,0,0-.454.16.467.467,0,0,0-.163.374.5.5,0,0,0,.151.372,1.069,1.069,0,0,0,.467.238Zm.4,2.511v1.271a.7.7,0,0,0,.486-.151.544.544,0,0,0,.169-.428.585.585,0,0,0-.157-.418A1.15,1.15,0,0,0,1280.365,1669Z" transform="translate(-1278.03 -1664.823)"/></g><path class="ah" d="M1133.107,1618.616c.142-1.405,1.434-2,1.265-3.293a3.256,3.256,0,0,0-1.381-1.992,4.049,4.049,0,0,0-3.623,4.119,4.754,4.754,0,0,0,4.5,4.726,4.23,4.23,0,0,0,.7-.034A4.6,4.6,0,0,1,1133.107,1618.616Z" transform="translate(-1128.282 -1612.93)"/></g><g transform="translate(5.995 8.051)"><path class="ac" d="M1107.693,1058.6a2.966,2.966,0,0,1-3.068,3.024,3.472,3.472,0,0,1-3.3-3.453,2.957,2.957,0,0,1,3.3-3.009A3.5,3.5,0,0,1,1107.693,1058.6Z" transform="translate(-1101.327 -1054.999)"/><path class="ad" d="M1137.538,1049.074a2.966,2.966,0,0,1-3.068,3.024,3.472,3.472,0,0,1-3.3-3.453,2.957,2.957,0,0,1,3.3-3.009A3.5,3.5,0,0,1,1137.538,1049.074Z" transform="translate(-1130.707 -1045.619)"/><path class="ae" d="M1147.231,1058.446a2.83,2.83,0,0,1-2.933,2.886,3.315,3.315,0,0,1-3.142-3.3,2.822,2.822,0,0,1,3.142-2.872A3.335,3.335,0,0,1,1147.231,1058.446Z" transform="translate(-1140.535 -1054.999)"/><path class="af" d="M1154.135,1065.137a2.734,2.734,0,0,1-2.836,2.788,3.2,3.2,0,0,1-3.032-3.183,2.726,2.726,0,0,1,3.032-2.774A3.221,3.221,0,0,1,1154.135,1065.137Z" transform="translate(-1147.535 -1061.698)"/><g transform="translate(2.292 0.811)"><path class="ag" d="M1249.848,1097.632h0a.173.173,0,0,1,.153.17v.293a4.336,4.336,0,0,1,.508.088q.188.044.373.1a.171.171,0,0,1,.117.176l-.036.368a.138.138,0,0,1-.2.114,2.125,2.125,0,0,0-.25-.093,2.258,2.258,0,0,0-.471-.088l-.043,0v.84a2.2,2.2,0,0,1,.975.5,1.053,1.053,0,0,1,.312.778,1.024,1.024,0,0,1-.345.809,1.575,1.575,0,0,1-.977.344v.324a.147.147,0,0,1-.153.149h0a.163.163,0,0,1-.154-.162v-.319l-.068,0a4.452,4.452,0,0,1-.566-.06,3.717,3.717,0,0,1-.391-.09.169.169,0,0,1-.123-.174l.042-.473a.149.149,0,0,1,.209-.123,3.062,3.062,0,0,0,.344.113,3.005,3.005,0,0,0,.55.092l0-.934a2.026,2.026,0,0,1-.949-.466,1.066,1.066,0,0,1-.314-.792.926.926,0,0,1,.341-.77,1.512,1.512,0,0,1,.96-.268v-.3A.138.138,0,0,1,1249.848,1097.632Zm-.154,1.12a.517.517,0,0,0-.306.108.314.314,0,0,0-.11.252.339.339,0,0,0,.1.251.721.721,0,0,0,.314.16Zm.271,1.691v.856a.473.473,0,0,0,.328-.1.366.366,0,0,0,.114-.288.4.4,0,0,0-.106-.282A.775.775,0,0,0,1249.966,1100.443Z" transform="translate(-1248.393 -1097.631)"/></g><path class="ah" d="M1150.785,1066.509c.1-.947.966-1.347.852-2.218a2.193,2.193,0,0,0-.93-1.342,2.727,2.727,0,0,0-2.44,2.774,3.2,3.2,0,0,0,3.032,3.183,2.851,2.851,0,0,0,.468-.023A3.1,3.1,0,0,1,1150.785,1066.509Z" transform="translate(-1147.535 -1062.679)"/></g><g transform="translate(5.081 23.545)"><path class="ai" d="M1059.9,2040.786l1.027,11.986a1.032,1.032,0,0,1-.264.808,1.018,1.018,0,0,1-.659.322l-15.122,1.273a1.121,1.121,0,0,1-1.235-1.012l-.95-12.752a1.08,1.08,0,0,1,1.068-1.143l15.028-.489A1.1,1.1,0,0,1,1059.9,2040.786Z" transform="translate(-1042.692 -2039.779)"/><path class="aj" d="M1060.678,2084.128a1.033,1.033,0,0,1-.666.322l-15.127,1.273a1.126,1.126,0,0,1-1.24-1.012l-.95-12.752a1.08,1.08,0,0,1,1.068-1.144l.175-.006c.063.329.149.7.23,1.053.011.049.023.1.034.15.094.409.175.746.19.789.472,1.412,1.138,3.035,2.547,3.824,2.152,1.207,4.877.99,7.141,1.651a11.679,11.679,0,0,1,4.206,2.008,6.925,6.925,0,0,1,2.025,2.645A7.2,7.2,0,0,1,1060.678,2084.128Z" transform="translate(-1042.692 -2070.327)"/><g class="o" transform="translate(0.723 0.771)"><path class="f" d="M1104.445,2102.109h0l-.521.032a.112.112,0,0,1-.117-.1.1.1,0,0,1,.1-.108l.52-.035h0a.844.844,0,0,0,.259-.062.1.1,0,0,1,.135.063.115.115,0,0,1-.067.143A1,1,0,0,1,1104.445,2102.109Zm-1.337.089-.82.067a.108.108,0,1,1-.018-.215l.82-.067a.108.108,0,1,1,.018.215Zm-1.645.135-.83.068a.109.109,0,1,1-.018-.217l.83-.067a.108.108,0,1,1,.018.216Zm-1.664.136-.84.069a.11.11,0,1,1-.018-.218l.84-.068a.109.109,0,1,1,.018.217Zm-1.684.138-.85.069a.11.11,0,1,1-.017-.219l.85-.069a.11.11,0,1,1,.018.219Zm-1.7.139-.86.07a.111.111,0,1,1-.017-.221l.86-.07a.11.11,0,1,1,.017.22Zm-1.726.141-.871.072a.111.111,0,1,1-.017-.222l.871-.071a.111.111,0,1,1,.017.221Zm-1.747.143-.882.072a.112.112,0,1,1-.017-.223l.881-.071a.113.113,0,0,1,.125.1A.115.115,0,0,1,1092.937,2103.03Zm-1.768.119a.1.1,0,0,1-.024,0,1.471,1.471,0,0,1-.854-.4.109.109,0,0,1,0-.159.122.122,0,0,1,.167,0,1.238,1.238,0,0,0,.715.333.111.111,0,0,1,.1.125A.117.117,0,0,1,1091.169,2103.149Zm14.187-1.6a.107.107,0,0,1-.1-.165,1.09,1.09,0,0,0,.177-.7.1.1,0,0,1,.1-.114.107.107,0,0,1,.115.1,1.3,1.3,0,0,1-.211.834A.106.106,0,0,1,1105.356,2101.548Zm-15.347.479a.116.116,0,0,1-.128-.1c0-.017-.005-.031-.007-.048l-.06-.8a.108.108,0,0,1,.1-.122.106.106,0,0,1,.116.1l.06.8c0,.014.014.026.016.04a.108.108,0,0,1-.1.124Zm15.519-1.651c-.058,0-.09-.039-.1-.1l-.068-.8c-.005-.058.018-.109.077-.114s.09.04.095.1l.068.8C1105.61,2100.32,1105.586,2100.372,1105.528,2100.376Zm-15.661-.044a.106.106,0,0,1-.117-.1l-.064-.849a.108.108,0,1,1,.216-.017l.064.848A.107.107,0,0,1,1089.867,2100.332Zm15.525-1.562c-.058,0-.09-.04-.1-.1l-.068-.8c-.005-.059.018-.109.077-.113s.09.04.095.1l.068.8C1105.473,2098.716,1105.45,2098.767,1105.391,2098.771Zm-15.652-.134a.107.107,0,0,1-.116-.1l-.063-.846a.106.106,0,0,1,.1-.119.107.107,0,0,1,.116.1l.063.846A.106.106,0,0,1,1089.74,2098.637Zm15.516-1.469c-.059,0-.09-.04-.1-.1l-.068-.8c-.005-.058.019-.108.077-.112s.09.041.095.1l.068.8C1105.337,2097.114,1105.313,2097.165,1105.255,2097.168Zm-15.642-.222a.108.108,0,0,1-.116-.1l-.063-.844a.1.1,0,0,1,.1-.118.108.108,0,0,1,.116.1l.063.844A.106.106,0,0,1,1089.613,2096.946Zm15.506-1.377c-.059,0-.09-.041-.095-.1l-.068-.8c0-.058.019-.108.077-.111s.09.042.095.1l.068.8C1105.2,2095.516,1105.177,2095.565,1105.119,2095.569Zm-15.633-.312a.109.109,0,0,1-.116-.1l-.063-.843a.1.1,0,0,1,.1-.117.109.109,0,0,1,.116.1l.063.842A.1.1,0,0,1,1089.486,2095.257Zm15.5-1.284c-.058,0-.09-.042-.095-.1l-.068-.8c-.005-.058.019-.107.077-.11s.09.042.094.1l.068.8C1105.065,2093.92,1105.042,2093.97,1104.983,2093.973Zm-15.623-.4a.109.109,0,0,1-.116-.106l-.063-.841a.1.1,0,0,1,.1-.116.11.11,0,0,1,.116.106l.063.84A.1.1,0,0,1,1089.36,2093.573Zm15.488-1.193c-.058,0-.09-.042-.095-.1l-.068-.8c0-.058.019-.107.077-.109s.09.043.095.1l.068.795C1104.93,2092.328,1104.906,2092.377,1104.848,2092.38Zm-15.614-.487a.11.11,0,0,1-.116-.106l-.047-.632a1.288,1.288,0,0,1,0-.226.114.114,0,0,1,.129-.1.108.108,0,0,1,.1.124,1.091,1.091,0,0,0-.014.189l.048.631A.1.1,0,0,1,1089.234,2091.893Zm15.479-1.1c-.058,0-.09-.043-.095-.1l-.013-.154a1.142,1.142,0,0,0-.217-.549.1.1,0,0,1,.017-.145.1.1,0,0,1,.14.031,1.329,1.329,0,0,1,.232.656l.013.154C1104.794,2090.74,1104.771,2090.788,1104.713,2090.791Zm-15.146-.475a.124.124,0,0,1-.089-.033.106.106,0,0,1,0-.156,1.439,1.439,0,0,1,.843-.384.121.121,0,0,1,.132.1.107.107,0,0,1-.1.122,1.2,1.2,0,0,0-.706.323A.116.116,0,0,1,1089.566,2090.315Zm14.257-.762a.108.108,0,0,1-.039-.006,1.139,1.139,0,0,0-.4-.058l-.362.013a.113.113,0,0,1-.116-.1.1.1,0,0,1,.1-.109l.361-.013a1.359,1.359,0,0,1,.48.07.11.11,0,0,1,.072.133A.1.1,0,0,1,1103.823,2089.554Zm-1.614-.022-.815.029a.113.113,0,0,1-.117-.1.1.1,0,0,1,.1-.11l.816-.029a.113.113,0,0,1,.116.1A.1.1,0,0,1,1102.209,2089.532Zm-1.636.059-.825.03a.114.114,0,0,1-.118-.1.1.1,0,0,1,.1-.11l.825-.029a.114.114,0,0,1,.117.1A.1.1,0,0,1,1100.574,2089.591Zm-1.655.06-.835.03a.115.115,0,0,1-.119-.1.1.1,0,0,1,.1-.111l.835-.029a.114.114,0,0,1,.119.1A.1.1,0,0,1,1098.919,2089.65Zm-1.675.06-.845.03a.115.115,0,0,1-.12-.1.1.1,0,0,1,.1-.112l.845-.03a.116.116,0,0,1,.12.1A.1.1,0,0,1,1097.244,2089.711Zm-1.695.061-.855.031a.117.117,0,0,1-.122-.1.106.106,0,0,1,.1-.112l.855-.03a.116.116,0,0,1,.121.1A.1.1,0,0,1,1095.549,2089.771Zm-1.715.062-.866.031a.117.117,0,0,1-.123-.1.106.106,0,0,1,.106-.113l.865-.031a.118.118,0,0,1,.122.1A.106.106,0,0,1,1093.834,2089.833Zm-1.736.063-.876.031a.119.119,0,0,1-.124-.105.108.108,0,0,1,.108-.114l.876-.031a.118.118,0,0,1,.124.1A.107.107,0,0,1,1092.1,2089.9Z" transform="translate(-1089.067 -2089.279)"/></g><path class="ak" d="M1928.216,2313.1a.324.324,0,0,0-.3-.024l-3.075,1.316a1.14,1.14,0,0,0-.7,1.117l.106,1.277a1.218,1.218,0,0,0,.962,1.05l3.182.7a.331.331,0,0,0,.286-.071.325.325,0,0,0,.112-.269l-.416-4.835A.334.334,0,0,0,1928.216,2313.1Z" transform="translate(-1910.399 -2308.789)"/><path class="al" d="M1973.736,2464.365a.627.627,0,0,1-.591.679.665.665,0,0,1-.7-.6.626.626,0,0,1,.594-.679A.665.665,0,0,1,1973.736,2464.365Z" transform="translate(-1957.95 -2457.153)"/></g></g></g></g></svg>