<svg xmlns="http://www.w3.org/2000/svg" width="40" height="40" viewBox="0 0 40 40"><defs><style>.a{fill:#fff;stroke:#e9e9f7;}.b{fill:#222;}.c{stroke:none;}.d{fill:none;}</style></defs><g transform="translate(-315 -62)"><g class="a" transform="translate(315 62)"><rect class="c" width="40" height="40" rx="10"/><rect class="d" x="0.5" y="0.5" width="39" height="39" rx="9.5"/></g><g transform="translate(326.181 70.569)"><g transform="translate(0 2.612)"><g transform="translate(0 0)"><path class="b" d="M232.51,4.829a2.179,2.179,0,0,0-2.161-2.217,2.121,2.121,0,0,0-1.515.63l3.056,3.124A2.081,2.081,0,0,0,232.51,4.829Z" transform="translate(-217.952 -2.612)"/><path class="b" d="M0,0,4.352.031l.072,10.084L.072,10.084Z" transform="translate(10.185 1.361) rotate(45)"/><path class="b" d="M43.014,200.621l-.7,3.2,3.155-.706Z" transform="translate(-40.306 -191.071)"/><path class="b" d="M17.141,347.429H.5a.5.5,0,0,0,0,1.008H17.141a.5.5,0,0,0,0-1.008Z" transform="translate(0 -330.799)"/></g></g></g></g></svg>