<svg xmlns="http://www.w3.org/2000/svg" width="45" height="45" viewBox="0 0 45 45"><defs><style>.a{fill:#fff;stroke:#e9e9f7;}.b{fill:#222;}.c{stroke:none;}.d{fill:none;}</style></defs><g transform="translate(-310 -472)"><g class="a" transform="translate(310 472)"><rect class="c" width="45" height="45" rx="10"/><rect class="d" x="0.5" y="0.5" width="44" height="44" rx="9.5"/></g><path class="b" d="M10.5-5431H.656a.657.657,0,0,1-.656-.656v-9.844A10.512,10.512,0,0,1,10.5-5452,10.511,10.511,0,0,1,21-5441.5,10.512,10.512,0,0,1,10.5-5431Zm-3.489-9.387h3.2v3.217a.291.291,0,0,0,.291.29.291.291,0,0,0,.291-.29v-3.2h3.2a.291.291,0,0,0,.291-.29.291.291,0,0,0-.291-.291h-3.2v-3.2a.291.291,0,0,0-.291-.29.291.291,0,0,0-.291.29v3.2h-3.2a.291.291,0,0,0-.291.291.264.264,0,0,0,.083.2.262.262,0,0,0,.18.071h.028Z" transform="translate(322 5936)"/></g></svg>