<svg xmlns="http://www.w3.org/2000/svg" width="33" height="33" viewBox="0 0 33 33"><defs><style>.a{fill:#fff;stroke:#e9e9f7;}.b{stroke:none;}.c{fill:none;}</style></defs><g transform="translate(-309.828 -471.828)"><g class="a" transform="translate(309.828 471.828)"><rect class="b" width="33" height="33" rx="8"/><rect class="c" x="0.5" y="0.5" width="32" height="32" rx="7.5"/></g><g transform="translate(314.293 394.783)"><g transform="translate(8.373 85.333)"><circle cx="3.663" cy="3.663" r="3.663"/></g><g transform="translate(16.745 89.519)"><g transform="translate(0 0)"><circle cx="2.616" cy="2.616" r="2.616"/></g></g><g transform="translate(2.167 89.519)"><g transform="translate(0 0)"><circle cx="2.616" cy="2.616" r="2.616"/></g></g><g transform="translate(5.233 93.706)"><path d="M113.469,256a6.811,6.811,0,0,0-6.8,6.8.523.523,0,0,0,.523.523h12.559a.523.523,0,0,0,.523-.523A6.811,6.811,0,0,0,113.469,256Z" transform="translate(-106.666 -256)"/></g><g transform="translate(0 95.799)"><path d="M5.686,298.78a4.694,4.694,0,0,0-.976-.113A4.715,4.715,0,0,0,0,303.377a.523.523,0,0,0,.523.523H4.283a1.552,1.552,0,0,1-.1-.523A7.8,7.8,0,0,1,5.686,298.78Z" transform="translate(0 -298.667)"/></g><g transform="translate(18.385 95.799)"><g transform="translate(0 0)"><path d="M375.739,298.667a4.694,4.694,0,0,0-.976.113,7.8,7.8,0,0,1,1.5,4.6,1.551,1.551,0,0,1-.1.523h3.759a.524.524,0,0,0,.523-.523A4.715,4.715,0,0,0,375.739,298.667Z" transform="translate(-374.763 -298.667)"/></g></g></g></g></svg>