<svg xmlns="http://www.w3.org/2000/svg" width="45" height="45" viewBox="0 0 45 45"><defs><style>.a{fill:#fff;stroke:#e9e9f7;}.b{fill:#222;}.c{stroke:none;}.d{fill:none;}</style></defs><g transform="translate(-310 -472)"><g class="a" transform="translate(310 472)"><rect class="c" width="45" height="45" rx="10"/><rect class="d" x="0.5" y="0.5" width="44" height="44" rx="9.5"/></g><g transform="translate(316 480)"><path class="b" d="M19,8a2,2,0,1,1-2-2A2,2,0,0,1,19,8Z"/><path class="b" d="M19,17a2,2,0,1,1-2-2A2,2,0,0,1,19,17Z" transform="translate(0 -3)"/><path class="b" d="M19,26a2,2,0,1,1-2-2A2,2,0,0,1,19,26Z" transform="translate(0 -5)"/></g></g></svg>