<svg xmlns="http://www.w3.org/2000/svg" width="33" height="33" viewBox="0 0 33 33"><defs><style>.a{fill:#fff;stroke:#e9e9f7;}.b{fill:#222;}.c{stroke:none;}.d{fill:none;}</style></defs><g transform="translate(-279.297 -57.511)"><g class="a" transform="translate(279.297 57.511)"><rect class="c" width="33" height="33" rx="8"/><rect class="d" x="0.5" y="0.5" width="32" height="32" rx="7.5"/></g><g transform="translate(287.703 65.769)"><path class="b" d="M8.095,0A8.1,8.1,0,0,0,0,8.095v7.589a.506.506,0,0,0,.506.506H8.095A8.095,8.095,0,0,0,8.095,0ZM8.6,10.118H4.553a.506.506,0,0,1,0-1.012H8.6a.506.506,0,0,1,0,1.012Zm3.036-3.036H4.553a.506.506,0,0,1,0-1.012h7.083a.506.506,0,0,1,0,1.012Z"/></g></g></svg>