<svg xmlns="http://www.w3.org/2000/svg" width="33" height="33" viewBox="0 0 33 33"><defs><style>.a{fill:#fff;stroke:#e9e9f7;}.b{fill:#222;}.c{stroke:none;}.d{fill:none;}</style></defs><g transform="translate(-279.297 -57.511)"><g class="a" transform="translate(279.297 57.511)"><rect class="c" width="33" height="33" rx="8"/><rect class="d" x="0.5" y="0.5" width="32" height="32" rx="7.5"/></g><g transform="translate(241.894 64.702)"><path class="b" d="M185.268,3.4a.541.541,0,0,0,.541-.541V.538a.541.541,0,0,0-1.082,0V2.857A.541.541,0,0,0,185.268,3.4Z" transform="translate(-133.394)"/><path class="b" d="M105.133,49.625a.541.541,0,1,0,.765-.765l-.58-.58a.541.541,0,0,0-.765.765Z" transform="translate(-55.959 -46.385)"/><path class="b" d="M249.917,49.625l.58-.58a.541.541,0,0,0-.765-.765l-.58.58a.541.541,0,0,0,.765.765Z" transform="translate(-195.342 -46.385)"/><path class="b" d="M294.376,192.94a.791.791,0,0,0-1.119-1.119l-1.885,1.884a.791.791,0,0,0,1.119,1.119l1.884-1.884Z" transform="translate(-235.968 -184.677)"/><path class="b" d="M344.727,259.642l1.413-1.413h0a.791.791,0,0,0-1.119-1.119l-1.413,1.413a.791.791,0,1,0,1.119,1.119Z" transform="translate(-286.319 -247.61)"/><path class="b" d="M397.89,322.405a.791.791,0,0,0-1.119,0l-.942.942a.791.791,0,0,0,1.119,1.119l.942-.942h0A.791.791,0,0,0,397.89,322.405Z" transform="translate(-336.656 -310.549)"/><path class="b" d="M57.859,59.567s0-.007,0-.011a1.871,1.871,0,0,1-1.884-1.885,1.872,1.872,0,0,1-1.337-3.2l5.182-5.182A.791.791,0,1,0,58.7,48.172l-6.684,6.684.088.088a3.877,3.877,0,0,1,0,5.476.541.541,0,0,1-.765-.765,2.793,2.793,0,0,0,0-3.946l-.471-.472a.54.54,0,0,1-.144-.26l-.619-2.683a1.417,1.417,0,0,0-1.868-1.011.541.541,0,0,0-.355.509l.007,7.657L46.5,60.84a.541.541,0,0,0,0,.765l2.915,2.915a.541.541,0,0,0,.383.158h5.339a1.448,1.448,0,0,0,1.03-.427l2.924-2.924a1.877,1.877,0,0,1-1.232-1.761Z" transform="translate(0 -46.21)"/></g></g></svg>