<svg xmlns="http://www.w3.org/2000/svg" width="45" height="45" viewBox="0 0 45 45"><defs><style>.a{fill:#fff;stroke:#e9e9f7;}.b{fill:#222;fill-rule:evenodd;}.c{stroke:none;}.d{fill:none;}</style></defs><g transform="translate(-310 -472)"><g class="a" transform="translate(310 472)"><rect class="c" width="45" height="45" rx="10"/><rect class="d" x="0.5" y="0.5" width="44" height="44" rx="9.5"/></g><g transform="translate(322.876 486)"><path class="b" d="M3.177,1.138a1.9,1.9,0,0,1,2.843.177l1.952,2.51a1.9,1.9,0,0,1,.344,1.626l-.6,2.384a.739.739,0,0,0,.194.7l2.676,2.674a.739.739,0,0,0,.7.194l2.383-.6a1.9,1.9,0,0,1,1.627.344L17.81,13.1a1.9,1.9,0,0,1,.178,2.843l-1.127,1.127a3.026,3.026,0,0,1-3.132.764A20.288,20.288,0,0,1,6.1,13.026,20.287,20.287,0,0,1,1.286,5.4,3.027,3.027,0,0,1,2.05,2.262L3.177,1.137ZM15.06,0a.581.581,0,0,1,.581.581V4.064a.581.581,0,0,1-.581.581H11.576a.581.581,0,1,1,0-1.161h2.9V.581A.581.581,0,0,1,15.06,0Z" transform="translate(0)"/><path class="b" d="M27,7.331a.581.581,0,0,1,.581-.581h3.484a.581.581,0,1,1,0,1.161h-2.9v2.9a.581.581,0,0,1-1.161,0Z" transform="translate(-12.521 -3.266)"/></g></g></svg>