<svg xmlns="http://www.w3.org/2000/svg" width="33" height="33" viewBox="0 0 33 33"><defs><style>.a{fill:#fff;stroke:#e9e9f7;}.b{fill:#222;}.c{stroke:none;}.d{fill:none;}</style></defs><g transform="translate(-279.297 -57.511)"><g class="a" transform="translate(279.297 57.511)"><rect class="c" width="33" height="33" rx="8"/><rect class="d" x="0.5" y="0.5" width="32" height="32" rx="7.5"/></g><g transform="translate(288.479 66.419)"><path class="b" d="M24.986,10.061h1.569A6.911,6.911,0,0,0,19.485,3V4.569A5.316,5.316,0,0,1,24.986,10.061Z" transform="translate(-11.645 -3)"/><path class="b" d="M12.347,8.556c1.651,0,2.354.7,2.354,2.354H16.27c0-2.531-1.393-3.924-3.924-3.924Zm2.685,4.272a.785.785,0,0,0-1.092.034l-1.878,1.931a4.5,4.5,0,0,1-2.3-1.3,4.486,4.486,0,0,1-1.3-2.3l1.93-1.879a.785.785,0,0,0,.034-1.092l-2.9-3.189a.785.785,0,0,0-1.092-.069l-1.7,1.461a.785.785,0,0,0-.228.51,11.851,11.851,0,0,0,3.368,8.448,11.882,11.882,0,0,0,8.166,3.373c.159,0,.256,0,.281-.006a.778.778,0,0,0,.509-.228l1.46-1.7a.785.785,0,0,0-.067-1.092l-3.189-2.9Z" transform="translate(-4.499 -3.847)"/></g></g></svg>