<svg xmlns="http://www.w3.org/2000/svg" xmlns:xlink="http://www.w3.org/1999/xlink" width="335" height="170" viewBox="0 0 335 170"><defs><style>.a{fill:url(#a);}.b{fill:url(#b);}.c{clip-path:url(#c);}.d{fill:url(#d);}.e{stroke:#000;fill-rule:evenodd;fill:url(#f);}</style><linearGradient id="a" y1="0.034" x2="0.5" y2="1" gradientUnits="objectBoundingBox"><stop offset="0" stop-color="#612ddb"/><stop offset="1" stop-color="#29a3e9"/></linearGradient><linearGradient id="b" y1="0.034" x2="0.5" y2="1" gradientUnits="objectBoundingBox"><stop offset="0" stop-color="#5d5d5d"/><stop offset="1"/></linearGradient><clipPath id="c"><rect class="a" width="335" height="170" rx="15" transform="translate(20 567)"/></clipPath><linearGradient id="d" y1="0.034" x2="0.5" y2="1" gradientUnits="objectBoundingBox"><stop offset="0" stop-color="#6f6f6f"/><stop offset="1"/></linearGradient><linearGradient id="f" x1="0.5" x2="0.5" y2="1" gradientUnits="objectBoundingBox"><stop offset="0" stop-color="#fff"/><stop offset="1" stop-color="#d5d4e0"/></linearGradient></defs><g transform="translate(-20 -567)"><rect class="b" width="335" height="170" rx="15" transform="translate(20 567)"/><g class="c"><path class="d" d="M-12.239-37.452S195.386,21.117,278.636,21.117,348,0,348,0a15,15,0,0,1,15,15v93a15,15,0,0,1-15,15H15A15,15,0,0,1,0,108V15C0,6.716-20.523-37.452-12.239-37.452Z" transform="translate(4 667)"/><path class="b" d="M361.03,123S153.406,64.431,70.156,64.431.791,85.548.791,85.548a15,15,0,0,1-15-15v-93a15,15,0,0,1,15-15h333a15,15,0,0,1,15,15v93C348.791,78.832,369.314,123,361.03,123Z" transform="translate(4 500)"/></g><g transform="translate(292.5 591)"><path class="e" d="M7.875,0A3.375,3.375,0,0,0,4.5,3.375v29.25A3.375,3.375,0,0,0,7.875,36h20.25A3.375,3.375,0,0,0,31.5,32.625V7.682A3.375,3.375,0,0,0,30.51,5.3L26.206.988A3.375,3.375,0,0,0,23.819,0ZM11.25,10.125A1.125,1.125,0,0,1,12.375,9h4.5v4.5H11.25ZM19.125,13.5V9h4.5a1.125,1.125,0,0,1,1.125,1.125V13.5ZM11.25,15.75h13.5v4.5H11.25Zm7.875,6.75H24.75v3.375A1.125,1.125,0,0,1,23.625,27h-4.5Zm-2.25,0V27h-4.5a1.125,1.125,0,0,1-1.125-1.125V22.5Zm-4.5-15.75A3.375,3.375,0,0,0,9,10.125v15.75a3.375,3.375,0,0,0,3.375,3.375h11.25A3.375,3.375,0,0,0,27,25.875V10.125A3.375,3.375,0,0,0,23.625,6.75Z"/></g></g></svg>