<svg width="3" height="20" viewBox="0 0 3 20" fill="none" xmlns="http://www.w3.org/2000/svg">
<g opacity="0.5">
<path d="M1.35352 2C1.9058 2 2.35352 1.55228 2.35352 1C2.35352 0.447715 1.9058 0 1.35352 0C0.801231 0 0.353516 0.447715 0.353516 1C0.353516 1.55228 0.801231 2 1.35352 2Z" fill="#4F755B"/>
<path d="M1.35352 8C1.9058 8 2.35352 7.55228 2.35352 7C2.35352 6.44772 1.9058 6 1.35352 6C0.801231 6 0.353516 6.44772 0.353516 7C0.353516 7.55228 0.801231 8 1.35352 8Z" fill="#4F755B"/>
<path d="M1.35352 14C1.9058 14 2.35352 13.5523 2.35352 13C2.35352 12.4477 1.9058 12 1.35352 12C0.801231 12 0.353516 12.4477 0.353516 13C0.353516 13.5523 0.801231 14 1.35352 14Z" fill="#4F755B"/>
<path d="M1.35352 20C1.9058 20 2.35352 19.5523 2.35352 19C2.35352 18.4477 1.9058 18 1.35352 18C0.801231 18 0.353516 18.4477 0.353516 19C0.353516 19.5523 0.801231 20 1.35352 20Z" fill="#4F755B"/>
</g>
</svg>
