<svg xmlns="http://www.w3.org/2000/svg" xmlns:xlink="http://www.w3.org/1999/xlink" width="58" height="26" viewBox="0 0 58 26"><defs><style>.a{fill:url(#a);}.b{fill:#fff;opacity:0.67;}</style><linearGradient id="a" x1="0.019" y1="0.255" x2="0.95" y2="0.806" gradientUnits="objectBoundingBox"><stop offset="0" stop-color="#ffe559"/><stop offset="1" stop-color="gold"/></linearGradient></defs><g transform="translate(-159 -255)"><rect class="a" width="58" height="26" rx="13" transform="translate(159 255)"/><path class="b" d="M1.086,6.7a2.155,2.155,0,0,1,1.5.686A2.135,2.135,0,0,1,3.2,8.917a2.131,2.131,0,0,1,.618-1.531,2.162,2.162,0,0,1,1.5-.685A2.162,2.162,0,0,1,4.253,6.37a2.226,2.226,0,0,1-.768-.806A2.182,2.182,0,0,1,3.2,4.476a2.148,2.148,0,0,1-.615,1.537A2.153,2.153,0,0,1,1.086,6.7Zm1.55-5.032a1.617,1.617,0,0,1,1.13.515,1.609,1.609,0,0,1,.464,1.154,1.614,1.614,0,0,1,.462-1.154A1.608,1.608,0,0,1,5.82,1.669a1.609,1.609,0,0,1-1.128-.515A1.613,1.613,0,0,1,4.231,0a1.609,1.609,0,0,1-.464,1.154,1.615,1.615,0,0,1-1.13.515ZM5.82,3.885A1.662,1.662,0,0,1,7.406,5.554,1.673,1.673,0,0,1,9,3.885a1.62,1.62,0,0,1-1.13-.513,1.6,1.6,0,0,1-.464-1.152,1.61,1.61,0,0,1-.46,1.152,1.6,1.6,0,0,1-1.126.513Z" transform="translate(198 268)"/><path class="b" d="M0,5.579a1.1,1.1,0,0,0,.771-.352,1.1,1.1,0,0,0,.315-.786,1.1,1.1,0,0,0,.315.786,1.1,1.1,0,0,0,.771.352,1.1,1.1,0,0,0-.771.353,1.1,1.1,0,0,0-.315.786,1.1,1.1,0,0,0-.315-.786A1.1,1.1,0,0,0,0,5.579ZM1.086,2.216a2.155,2.155,0,0,0,1.5-.686A2.135,2.135,0,0,0,3.2,0a2.131,2.131,0,0,0,.618,1.531,2.162,2.162,0,0,0,1.5.685,2.162,2.162,0,0,0-1.068.331,2.225,2.225,0,0,0-.768.806A2.182,2.182,0,0,0,3.2,4.441,2.148,2.148,0,0,0,2.586,2.9,2.153,2.153,0,0,0,1.086,2.216Zm1.55,5.032a1.617,1.617,0,0,0,1.13-.515,1.609,1.609,0,0,0,.464-1.154A1.67,1.67,0,0,0,5.82,7.248a1.669,1.669,0,0,0-1.59,1.668,1.609,1.609,0,0,0-.464-1.154,1.615,1.615,0,0,0-1.13-.514Z" transform="translate(169.18 261)"/></g></svg>