<svg xmlns="http://www.w3.org/2000/svg" width="25" height="25" viewBox="0 0 25 25"><defs><style>.a{fill:#d5d4e0;}</style></defs><path class="a" d="M24.328,10.873l0,0L14.127.674a2.3,2.3,0,0,0-3.255,0L.679,10.866l-.01.01A2.3,2.3,0,0,0,2.2,14.8q.035,0,.071,0h.406v7.5A2.7,2.7,0,0,0,5.371,25h3.99a.733.733,0,0,0,.732-.732V18.383a1.23,1.23,0,0,1,1.229-1.229h2.354a1.23,1.23,0,0,1,1.229,1.229v5.884a.732.732,0,0,0,.732.732h3.99a2.7,2.7,0,0,0,2.694-2.693V14.8H22.7a2.3,2.3,0,0,0,1.629-3.928Zm0,0" transform="translate(0 0.001)"/></svg>