<svg xmlns="http://www.w3.org/2000/svg" width="12.185" height="12.185" viewBox="0 0 12.185 12.185"><defs><style>.a{fill:#aaa8bf;}</style></defs><g transform="translate(1.523 3.046)"><path class="a" d="M72,128.762H68.95V128h-.762v.762H65.142A1.143,1.143,0,0,0,64,129.9v1.142h9.139V129.9A1.143,1.143,0,0,0,72,128.762Z" transform="translate(-64 -128)"/></g><g transform="translate(0 6.854)"><path class="a" d="M11.424,288H.762a.762.762,0,0,0-.762.762v.762a1.523,1.523,0,0,0,3.046,0,1.523,1.523,0,0,0,3.046,0,1.523,1.523,0,0,0,3.046,0,1.523,1.523,0,0,0,3.046,0v-.762A.762.762,0,0,0,11.424,288Z" transform="translate(0 -288)"/></g><g transform="translate(0 10.068)"><path class="a" d="M10.662,423.634a2.275,2.275,0,0,1-1.523-.583,2.28,2.28,0,0,1-3.046,0,2.28,2.28,0,0,1-3.046,0A2.265,2.265,0,0,1,0,423.04V424.4a.762.762,0,0,0,.762.762H11.424a.762.762,0,0,0,.762-.762V423.04A2.266,2.266,0,0,1,10.662,423.634Z" transform="translate(0 -423.04)"/></g><g transform="translate(5.331)"><path class="a" d="M224.762,0A5.038,5.038,0,0,0,224,1.523a.762.762,0,1,0,1.523,0A5.038,5.038,0,0,0,224.762,0Z" transform="translate(-224)"/></g></svg>