<svg xmlns="http://www.w3.org/2000/svg" width="11" height="15" viewBox="0 0 11 15"><defs><style>.a{fill:#aaa8bf;}</style></defs><g transform="translate(-76.544)"><g transform="translate(76.544)"><path class="a" d="M107.1,170.8h-9a.5.5,0,0,0-.493.5v7.88a2.406,2.406,0,0,0,2.376,2.429h5.239a2.406,2.406,0,0,0,2.376-2.429v-7.88A.5.5,0,0,0,107.1,170.8Zm-5.688,7.775a.606.606,0,1,1-1.212,0v-4.737a.606.606,0,1,1,1.212,0Zm3.584,0a.606.606,0,1,1-1.212,0v-4.737a.606.606,0,1,1,1.212,0Z" transform="translate(-97.102 -166.618)"/><path class="a" d="M86.052.785H83.9V.594A.588.588,0,0,0,83.322,0H80.767a.589.589,0,0,0-.581.594V.785H78.036a1.511,1.511,0,0,0-1.492,1.526v.979a.313.313,0,0,0,.31.317h10.38a.313.313,0,0,0,.31-.317V2.311A1.511,1.511,0,0,0,86.052.785Z" transform="translate(-76.544)"/></g></g></svg>