<svg xmlns="http://www.w3.org/2000/svg" width="11.544" height="13.743" viewBox="0 0 11.544 13.743"><defs><style>.a{fill:#aaa8bf;}</style></defs><g transform="translate(-32 -27.567)"><path class="a" d="M58,89.1l.472-1.1H49.229c-.109,0-.209.19-.209.526s.1.573.209.573Z" transform="translate(-15.87 -60.429)"/><path class="a" d="M8.859,12.092H0V4.532a.84.84,0,0,1,.023-.2L1.274,0H10L8.9,4.188l0,.012a1.385,1.385,0,0,0-.041.333V12.09ZM2.393,6.456v.469h.744A2.532,2.532,0,0,0,5.5,8.565h.879V8.1H5.5A2.063,2.063,0,0,1,3.646,6.925H5.909V6.456H3.489a2.016,2.016,0,0,1,0-.82H5.909V5.167H3.646A2.061,2.061,0,0,1,5.5,4h.879V3.526H5.5A2.532,2.532,0,0,0,3.137,5.167H2.393v.469h.619a2.549,2.549,0,0,0,0,.82Z" transform="translate(32 29.219)"/><path class="a" d="M312.023,159.935a.845.845,0,0,0-.023.195l.02,7.559h2.128v-7.536a.84.84,0,0,0-.033-.233l-1.042-3.625Z" transform="translate(-270.604 -126.379)"/></g></svg>