<svg xmlns="http://www.w3.org/2000/svg" width="75" height="75" viewBox="0 0 75 75"><defs><style>.a{fill:#ed0000;}.b{fill:#fff;}</style></defs><g transform="translate(-150 -697)"><circle class="a" cx="37.5" cy="37.5" r="37.5" transform="translate(150 697)"/><path class="b" d="M20.331,9.391a25.438,25.438,0,0,0-7.783,1.192v5.242a1.642,1.642,0,0,1-.953,1.588,18.589,18.589,0,0,0-4.527,3.1,1.617,1.617,0,0,1-1.192.477,1.617,1.617,0,0,1-1.192-.477L.477,16.3a1.728,1.728,0,0,1,0-2.383,27.8,27.8,0,0,1,19.854-7.94,27.8,27.8,0,0,1,19.854,7.941,1.728,1.728,0,0,1,0,2.383l-4.21,4.21a1.728,1.728,0,0,1-2.383,0,19.568,19.568,0,0,0-4.527-3.1,1.582,1.582,0,0,1-.953-1.509V10.663a23.987,23.987,0,0,0-7.783-1.271Z" transform="translate(167.169 723.018)"/></g></svg>