<svg xmlns="http://www.w3.org/2000/svg" width="42" height="41.892" viewBox="0 0 42 41.892"><defs><style>.a,.b{fill:#23cbd8;}.a{stroke:#23cbd8;opacity:0.25;}.c{stroke:none;}.d{fill:none;}</style></defs><g transform="translate(-152 -261.108)"><g class="a" transform="translate(152 295)"><ellipse class="c" cx="21" cy="4" rx="21" ry="4"/><ellipse class="d" cx="21" cy="4" rx="20.5" ry="3.5"/></g><path class="b" d="M17.289,0A14.488,14.488,0,0,0,3,14.649c0,11.478,12.945,23.33,13.5,23.827a1.178,1.178,0,0,0,1.584,0c.551-.5,13.5-12.351,13.5-23.829A14.488,14.488,0,0,0,17.289,0Zm0,22.624a8.081,8.081,0,1,1,7.938-8.08A8.019,8.019,0,0,1,17.289,22.624Z" transform="translate(155.923 261.108)"/></g></svg>