<svg xmlns="http://www.w3.org/2000/svg" width="60" height="60" viewBox="0 0 60 60"><defs><style>.a,.d{fill:none;}.a{stroke:#d5d4e0;}.b{fill:#d5d4e0;fill-rule:evenodd;}.c{stroke:none;}</style></defs><g transform="translate(-60 -705)"><g class="a" transform="translate(60 705)"><circle class="c" cx="30" cy="30" r="30"/><circle class="d" cx="30" cy="30" r="29.5"/></g><g transform="translate(76.296 723.004)"><path class="b" d="M21.154,15.017a7.752,7.752,0,0,0,.419-2.52V10.935a.787.787,0,0,0-1.574,0V12.5a6.176,6.176,0,0,1-.126,1.248ZM17.185,17.7a6.335,6.335,0,0,1-6.458.3A6.243,6.243,0,0,1,7.408,12.5V10.935a.787.787,0,0,0-1.574,0V12.5a7.833,7.833,0,0,0,7.082,7.773v3.163H8.2A.781.781,0,1,0,8.2,25H19.212a.781.781,0,1,0,0-1.562H14.491V20.27a7.861,7.861,0,0,0,3.825-1.442L17.186,17.7Zm1.24-5.394V4.686a4.726,4.726,0,0,0-9.194-1.5l9.194,9.127ZM8.982,9.56l7.06,7.008a4.752,4.752,0,0,1-4.71-.019A4.681,4.681,0,0,1,8.982,12.5V9.561Zm13.608,11.3L3.7,2.114,4.818,1.008,23.7,19.755l-1.114,1.1Z"/></g></g></svg>