<svg xmlns="http://www.w3.org/2000/svg" width="10" height="10" viewBox="0 0 10 10"><defs><style>.a{fill:#f55a00;}</style></defs><path class="a" d="M8.682,2.187,9.845,3.348a.578.578,0,0,1,.176.425.594.594,0,0,1-.176.429.6.6,0,0,1-.85.005L7.832,3.036,6.669,4.207a.579.579,0,0,1-.425.176.617.617,0,0,1-.611-.61.563.563,0,0,1,.186-.425L6.982,2.187,5.819,1.025A.563.563,0,0,1,5.633.6.569.569,0,0,1,5.814.176.6.6,0,0,1,6.244,0a.579.579,0,0,1,.425.176L7.832,1.337,8.995.176a.6.6,0,0,1,.85,0A.578.578,0,0,1,10.021.6a.578.578,0,0,1-.176.425ZM6.347,7.858l.85-.849a.694.694,0,0,1,.513-.117,3.859,3.859,0,0,1,.748.117,3.128,3.128,0,0,1,.616.215,1.864,1.864,0,0,1,.8.639q.254.385.039.61L8.868,9.508a1.748,1.748,0,0,1-1.148.483,3.974,3.974,0,0,1-1.554-.225,8.067,8.067,0,0,1-1.778-.884A10.755,10.755,0,0,1,2.595,7.429,10.883,10.883,0,0,1,1.139,5.642,7.9,7.9,0,0,1,.254,3.866,3.986,3.986,0,0,1,.029,2.314,1.737,1.737,0,0,1,.513,1.172L1.549.137q.205-.205.542.039A3.32,3.32,0,0,1,2.81.966a2.545,2.545,0,0,1,.283.942,1.318,1.318,0,0,1-.078.932l-.85.849a4.707,4.707,0,0,0,.928,1.562A11.583,11.583,0,0,0,4.774,6.936,4.483,4.483,0,0,0,6.347,7.858Z" transform="translate(-0.021)"/></svg>