<svg xmlns="http://www.w3.org/2000/svg" width="10" height="10" viewBox="0 0 10 10"><defs><style>.a{fill:#23cbd8;}</style></defs><path class="a" d="M9.4,3.752a.634.634,0,0,1-.63-.625V2.111l-2.091,2.1a.612.612,0,0,1-.435.176.572.572,0,0,1-.425-.181.594.594,0,0,1-.176-.43.58.58,0,0,1,.176-.425l2.111-2.1H6.894a.6.6,0,0,1-.44-.186A.607.607,0,0,1,6.269.62a.59.59,0,0,1,.186-.44A.609.609,0,0,1,6.894,0H9.4A.6.6,0,0,1,9.84.181a.6.6,0,0,1,.181.445v2.5a.609.609,0,0,1-.181.44.59.59,0,0,1-.44.186Zm-3.054,4.1.85-.85a.694.694,0,0,1,.513-.117,3.73,3.73,0,0,1,.743.117,3.5,3.5,0,0,1,.62.215,1.864,1.864,0,0,1,.8.64q.254.386.029.611L8.868,9.508a1.746,1.746,0,0,1-1.148.484,4.01,4.01,0,0,1-1.558-.225,7.917,7.917,0,0,1-1.779-.884A10.858,10.858,0,0,1,2.595,7.426,10.892,10.892,0,0,1,1.139,5.638,7.946,7.946,0,0,1,.254,3.865,3.979,3.979,0,0,1,.029,2.311,1.744,1.744,0,0,1,.513,1.163L1.549.127q.205-.205.542.039A3.316,3.316,0,0,1,2.81.958a2.548,2.548,0,0,1,.283.943,1.322,1.322,0,0,1-.078.933l-.85.85a4.716,4.716,0,0,0,.928,1.563A11.57,11.57,0,0,0,4.774,6.933,4.5,4.5,0,0,0,6.347,7.856Z" transform="translate(-0.021)"/></svg>