<svg xmlns="http://www.w3.org/2000/svg" width="60" height="60" viewBox="0 0 60 60"><defs><style>.a,.d{fill:none;}.a{stroke:#d5d4e0;}.b{fill:#d5d4e0;}.c{stroke:none;}</style></defs><g transform="translate(-255 -705)"><g class="a" transform="translate(255 705)"><circle class="c" cx="30" cy="30" r="30"/><circle class="d" cx="30" cy="30" r="29.5"/></g><g transform="translate(271.93 720.258)"><path class="b" d="M23.052,22.406a.732.732,0,0,1-.7-.577.849.849,0,0,1,.311-.907,5.152,5.152,0,0,0,2.094-4.316,5.106,5.106,0,0,0-2.231-4.229.85.85,0,0,1-.017-1.412.652.652,0,0,1,.734.024,6.754,6.754,0,0,1,2.933,5.586,6.813,6.813,0,0,1-2.761,5.695.667.667,0,0,1-.366.136Z" transform="translate(-5.68 -1.408)"/><path class="b" d="M25.278,26a.739.739,0,0,1-.693-.616.837.837,0,0,1,.371-.9,10.163,10.163,0,0,0,4.977-9.029,10.123,10.123,0,0,0-5.1-8.943.8.8,0,0,1-.421-.666.839.839,0,0,1,.317-.734.653.653,0,0,1,.727-.045,11.745,11.745,0,0,1,5.934,10.37,11.8,11.8,0,0,1-5.761,10.491A.651.651,0,0,1,25.278,26Z" transform="translate(-6.321 -0.244)"/><path class="b" d="M13.729,3.949l-6.64,6.419h-4.3a.763.763,0,0,0-.717.8v7.959a.763.763,0,0,0,.717.8H6.953l6.783,6.611a.658.658,0,0,0,.762.132.809.809,0,0,0,.428-.718V4.527a.808.808,0,0,0-.433-.719A.659.659,0,0,0,13.729,3.949Z"/></g></g></svg>