<svg xmlns="http://www.w3.org/2000/svg" width="36" height="26" viewBox="0 0 36 26"><defs><style>.a{fill:#d5d4e0;}</style></defs><path class="a" d="M24,13.591a.568.568,0,0,0-.169-.424l-6.6-6.5a.641.641,0,0,0-.862,0L9.787,13.148a.688.688,0,0,0-.188.443.568.568,0,0,0,.169.424.594.594,0,0,0,.431.166h4.2v6.5a.564.564,0,0,0,.178.416.581.581,0,0,0,.422.175h3.6a.581.581,0,0,0,.422-.175.564.564,0,0,0,.178-.416v-6.5h4.2a.581.581,0,0,0,.422-.175A.564.564,0,0,0,24,13.591Zm12,5.318a6.782,6.782,0,0,1-2.109,5.014A6.986,6.986,0,0,1,28.8,26H8.4a8.15,8.15,0,0,1-5.934-2.429A7.912,7.912,0,0,1,0,17.727,8,8,0,0,1,1.313,13.3a8.179,8.179,0,0,1,3.525-3.047Q4.8,9.694,4.8,9.455A9.038,9.038,0,0,1,7.614,2.77,9.325,9.325,0,0,1,14.4,0a9.5,9.5,0,0,1,5.353,1.606,9.291,9.291,0,0,1,3.534,4.265,4.829,4.829,0,0,1,6.506.24A4.515,4.515,0,0,1,31.2,9.455,4.468,4.468,0,0,1,30.43,12a7.1,7.1,0,0,1,4,2.5A6.81,6.81,0,0,1,36,18.909Z"/></svg>