<svg xmlns="http://www.w3.org/2000/svg" xmlns:xlink="http://www.w3.org/1999/xlink" width="286" height="241" viewBox="0 0 286 241"><defs><style>.a,.d,.h,.q,.y{fill:#fff;}.a{stroke:#707070;}.b{clip-path:url(#a);}.c{fill:#4fd8eb;}.d{opacity:0.23;}.e{fill:#83e3ef;}.ac,.f,.g{fill:none;}.f{stroke:#fff;}.f,.g{stroke-width:0.6px;}.g{stroke:#f55a00;}.i{fill:#214675;}.j{fill:#4a6c8f;}.j,.w{opacity:0.3;mix-blend-mode:multiply;isolation:isolate;}.k{fill:url(#b);}.l{fill:#1e1e1e;}.m{fill:#e0e0e0;}.n{fill:#18203d;}.o,.p{opacity:0.7;}.p{fill:#383838;}.q{opacity:0.73;}.r{fill:url(#f);}.s{fill:url(#g);}.t{fill:url(#h);}.u{fill:url(#i);}.v{fill:url(#j);}.w{fill:url(#k);}.x{fill:#23cbd8;}.y{font-size:6px;font-family:SegoeUI, Segoe UI;letter-spacing:0.08em;}.aa,.z{fill:url(#r);}.aa{opacity:0.09;}.ab{stroke:none;}</style><clipPath id="a"><rect class="a" width="286" height="241" transform="translate(42.755 71.562)"/></clipPath><linearGradient id="b" x1="0.5" x2="0.5" y2="1" gradientUnits="objectBoundingBox"><stop offset="0" stop-color="#464646"/><stop offset="1" stop-color="#0e0e0e"/></linearGradient><linearGradient id="f" x1="0.329" y1="0.554" x2="-0.255" y2="0.738" gradientUnits="objectBoundingBox"><stop offset="0" stop-color="#fcb148"/><stop offset="0.052" stop-color="#fdb946"/><stop offset="0.142" stop-color="#fec144"/><stop offset="0.318" stop-color="#ffc444"/><stop offset="0.485" stop-color="#fdb946"/><stop offset="0.775" stop-color="#f99c4c"/><stop offset="0.866" stop-color="#f8924f"/><stop offset="1" stop-color="#f8924f"/></linearGradient><linearGradient id="g" x1="0.727" y1="0.007" x2="0.207" y2="1.135" gradientUnits="objectBoundingBox"><stop offset="0" stop-color="#ffdb44"/><stop offset="1" stop-color="#feef06"/></linearGradient><linearGradient id="h" x1="0.636" y1="1.231" x2="0.531" y2="0.666" xlink:href="#f"/><linearGradient id="i" x1="0.409" y1="0.31" x2="0.858" y2="1.247" xlink:href="#f"/><linearGradient id="j" x1="0.253" y1="0.019" x2="0.711" y2="1.039" xlink:href="#g"/><linearGradient id="k" x1="0.464" y1="0.369" x2="1.215" y2="1.306" xlink:href="#f"/><linearGradient id="r" x1="-6.045" y1="-1.725" x2="-4.355" y2="-1.672" gradientUnits="objectBoundingBox"><stop offset="0" stop-color="#e38ddd"/><stop offset="0.004" stop-color="#00c22d"/><stop offset="1" stop-color="#319748"/></linearGradient></defs><g class="b" transform="translate(-42.755 -71.562)"><g transform="translate(9.812 47.934)"><path class="c" d="M107,.756c22.181-2.248,47.489-.148,63.381,15.487,15.481,15.23,9.443,40.769,15.112,61.733,5.257,19.442,21.53,36.893,16.851,56.483-4.767,19.96-25.109,30.859-40.855,44.019C144.414,192.747,129.216,215.39,107,214.14c-22.234-1.251-32.145-28.529-50.209-41.553C38.622,159.488,7.881,159.234,1.2,137.856-5.494,116.442,17.593,97.844,27.072,77.51c8-17.153,11.588-36.194,25.239-49.3C67.392,13.725,86.2,2.864,107,.756" transform="matrix(-0.105, 0.995, -0.995, -0.105, 327.775, 74.927)"/><path class="d" d="M107,.756c22.181-2.248,47.489-.148,63.381,15.487,15.481,15.23,9.443,40.769,15.112,61.733,5.257,19.442,21.53,36.893,16.851,56.483-4.767,19.96-25.109,30.859-40.855,44.019C144.414,192.747,129.216,215.39,107,214.14c-22.234-1.251-32.145-28.529-50.209-41.553C38.622,159.488,7.881,159.234,1.2,137.856-5.494,116.442,17.593,97.844,27.072,77.51c8-17.153,11.588-36.194,25.239-49.3C67.392,13.725,86.2,2.864,107,.756" transform="translate(226.186 0) rotate(60)"/><path class="e" d="M85.566.644c17.738-1.916,37.976-.126,50.686,13.2,12.38,12.981,7.552,34.75,12.085,52.619,4.2,16.572,17.217,31.447,13.475,48.144-3.812,17.013-20.079,26.3-32.671,37.52-13.654,12.163-25.808,31.463-43.574,30.4S59.86,158.208,45.415,147.107C30.886,135.942,6.3,135.725.959,117.5c-5.353-18.252,13.11-34.1,20.69-51.437,6.394-14.621,9.267-30.85,20.183-42.023,12.06-12.344,27.1-21.6,43.734-23.4" transform="translate(0 148.041) rotate(-36)"/><g transform="translate(31.96 40.349)"><g transform="translate(15.738 7.506)"><g class="f" transform="translate(263.597 0) rotate(41)"><rect class="ab" width="5.559" height="5.559" rx="1"/><rect class="ac" x="0.3" y="0.3" width="4.959" height="4.959" rx="0.7"/></g><g class="f" transform="translate(208.27 155.492) rotate(9)"><rect class="ab" width="5.925" height="5.925" rx="1"/><rect class="ac" x="0.3" y="0.3" width="5.325" height="5.325" rx="0.7"/></g><g class="f" transform="translate(177.093 86.919) rotate(135)"><rect class="ab" width="3.563" height="3.563" rx="1"/><rect class="ac" x="0.3" y="0.3" width="2.963" height="2.963" rx="0.7"/></g><g class="f" transform="matrix(-0.978, 0.208, -0.208, -0.978, 153.279, 105.521)"><rect class="ab" width="6.467" height="6.467" rx="1"/><rect class="ac" x="0.3" y="0.3" width="5.867" height="5.867" rx="0.7"/></g><g class="f" transform="translate(167.211 17.411) rotate(104)"><rect class="ab" width="5.694" height="5.694" rx="1"/><rect class="ac" x="0.3" y="0.3" width="5.094" height="5.094" rx="0.7"/></g><g class="f" transform="translate(47.77 136.178) rotate(13)"><rect class="ab" width="6.273" height="6.273" rx="1"/><rect class="ac" x="0.3" y="0.3" width="5.673" height="5.673" rx="0.7"/></g><g class="f" transform="matrix(-0.574, -0.819, 0.819, -0.574, 28.342, 37.33)"><rect class="ab" width="3.447" height="3.447" rx="1"/><rect class="ac" x="0.3" y="0.3" width="2.847" height="2.847" rx="0.7"/></g><g class="f" transform="translate(45.02 64.976) rotate(-63)"><rect class="ab" width="5.011" height="5.011" rx="1"/><rect class="ac" x="0.3" y="0.3" width="4.411" height="4.411" rx="0.7"/></g><g class="f" transform="matrix(0.438, -0.899, 0.899, 0.438, 0, 173.534)"><rect class="ab" width="4.152" height="4.152" rx="1"/><rect class="ac" x="0.3" y="0.3" width="3.552" height="3.552" rx="0.7"/></g><g class="f" transform="matrix(-0.574, 0.819, -0.819, -0.574, 72.068, 14.043)"><rect class="ab" width="5.981" height="5.981" rx="1"/><rect class="ac" x="0.3" y="0.3" width="5.381" height="5.381" rx="0.7"/></g><g class="f" transform="translate(103.206 41.538) rotate(-77)"><rect class="ab" width="4.598" height="4.598" rx="1"/><rect class="ac" x="0.3" y="0.3" width="3.998" height="3.998" rx="0.7"/></g><g class="f" transform="translate(110.605 20.888) rotate(-76)"><rect class="ab" width="5.343" height="5.343" rx="1"/><rect class="ac" x="0.3" y="0.3" width="4.743" height="4.743" rx="0.7"/></g><g class="f" transform="matrix(0.391, -0.921, 0.921, 0.391, 195.755, 79.116)"><rect class="ab" width="3.526" height="3.526" rx="1"/><rect class="ac" x="0.3" y="0.3" width="2.926" height="2.926" rx="0.7"/></g><g class="f" transform="matrix(-0.995, 0.105, -0.105, -0.995, 7.621, 145.091)"><rect class="ab" width="5.562" height="5.562" rx="1"/><rect class="ac" x="0.3" y="0.3" width="4.962" height="4.962" rx="0.7"/></g><g class="f" transform="matrix(0.809, 0.588, -0.588, 0.809, 231.708, 5.436)"><rect class="ab" width="4.467" height="4.467" rx="1"/><rect class="ac" x="0.3" y="0.3" width="3.867" height="3.867" rx="0.7"/></g></g><g transform="matrix(-0.588, 0.809, -0.809, -0.588, 209.928, 72.301)"><g class="g" transform="translate(182.346 120.062) rotate(-41)"><rect class="ab" width="3.9" height="3.9" rx="1"/><rect class="ac" x="0.3" y="0.3" width="3.3" height="3.3" rx="0.7"/></g><g class="g" transform="translate(145.445 9.828) rotate(-9)"><rect class="ab" width="4.156" height="4.156" rx="1"/><rect class="ac" x="0.3" y="0.3" width="3.556" height="3.556" rx="0.7"/></g><g class="g" transform="translate(122.458 63.802) rotate(-135)"><rect class="ab" width="2.5" height="2.5" rx="1"/><rect class="ac" x="0.3" y="0.3" width="1.9" height="1.9" rx="0.7"/></g><g class="g" transform="matrix(-0.978, -0.208, 0.208, -0.978, 106.578, 53.423)"><rect class="ab" width="4.536" height="4.536" rx="1"/><rect class="ac" x="0.3" y="0.3" width="3.936" height="3.936" rx="0.7"/></g><g class="g" transform="translate(113.418 111.759) rotate(-104)"><rect class="ab" width="3.994" height="3.994" rx="1"/><rect class="ac" x="0.3" y="0.3" width="3.394" height="3.394" rx="0.7"/></g><g class="g" transform="translate(32.52 23.194) rotate(-13)"><rect class="ab" width="4.4" height="4.4" rx="1"/><rect class="ac" x="0.3" y="0.3" width="3.8" height="3.8" rx="0.7"/></g><g class="g" transform="matrix(-0.574, 0.819, -0.819, -0.574, 21.862, 98.207)"><rect class="ab" width="2.418" height="2.418" rx="1"/><rect class="ac" x="0.3" y="0.3" width="1.818" height="1.818" rx="0.7"/></g><g class="g" transform="matrix(0.454, 0.891, -0.891, 0.454, 34.712, 75.831)"><rect class="ab" width="3.515" height="3.515" rx="1"/><rect class="ac" x="0.3" y="0.3" width="2.915" height="2.915" rx="0.7"/></g><g class="g" transform="matrix(0.438, 0.899, -0.899, 0.438, 2.617, 0)"><rect class="ab" width="2.912" height="2.912" rx="1"/><rect class="ac" x="0.3" y="0.3" width="2.312" height="2.312" rx="0.7"/></g><g class="g" transform="matrix(-0.574, -0.819, 0.819, -0.574, 47.117, 115.561)"><rect class="ab" width="4.195" height="4.195" rx="1"/><rect class="ac" x="0.3" y="0.3" width="3.595" height="3.595" rx="0.7"/></g><g class="g" transform="translate(75.539 93.143) rotate(77)"><rect class="ab" width="3.225" height="3.225" rx="1"/><rect class="ac" x="0.3" y="0.3" width="2.625" height="2.625" rx="0.7"/></g><g class="g" transform="translate(81.223 107.446) rotate(76)"><rect class="ab" width="3.748" height="3.748" rx="1"/><rect class="ac" x="0.3" y="0.3" width="3.148" height="3.148" rx="0.7"/></g><g class="g" transform="matrix(0.391, 0.921, -0.921, 0.391, 139.592, 66.541)"><rect class="ab" width="2.473" height="2.473" rx="1"/><rect class="ac" x="0.3" y="0.3" width="1.873" height="1.873" rx="0.7"/></g><g class="g" transform="matrix(-0.995, -0.105, 0.105, -0.995, 4.938, 25.109)"><rect class="ab" width="3.902" height="3.902" rx="1"/><rect class="ac" x="0.3" y="0.3" width="3.302" height="3.302" rx="0.7"/></g><g class="g" transform="matrix(0.809, -0.588, 0.588, 0.809, 160.694, 116.657)"><rect class="ab" width="3.133" height="3.133" rx="1"/><rect class="ac" x="0.3" y="0.3" width="2.533" height="2.533" rx="0.7"/></g></g></g><g transform="translate(36.281 24.891)"><g transform="translate(145.424 104.249)"><g transform="translate(0 0)"><path class="h" d="M365.9,385s24.481-6.168,29.379-12.4.372-8.813.372-8.813,18.664-10.885,19.574-16.924c.475-3.162-1-4.7-2.506-5.44a7.288,7.288,0,0,0-2.784-.7s11.18-8.529,14.971-16.9-5.858-9.712-5.858-9.712,13.763-29.632,1.467-31.843-17.089,18.6-17.089,18.6-7.977-8.007-12.238,3.187c-.387,1.023-.8,2.19-1.2,3.466-4.138,12.693-9.278,36.2-9.278,36.2s-9.96.681-7.894,18.763c0,0-5.383-1.839-5.652,2.971S365.9,385,365.9,385Z" transform="translate(-365.896 -282.104)"/><path class="i" d="M378.949,383.771c-.686.752,26.125-45.434,38.375-71.241C417.324,312.53,397.611,363.323,378.949,383.771Z" transform="translate(-370.351 -292.498)"/><path class="j" d="M365.9,398.187s24.481-6.168,29.379-12.4.372-8.813.372-8.813,18.664-10.885,19.574-16.924c.475-3.162-1-4.7-2.506-5.44-16.841,8-21.185-10.451-17.631-21.418,3.116-9.625.573-9.748-5.1-12.481-4.138,12.693-9.278,36.2-9.278,36.2s-9.96.681-7.894,18.763c0,0-5.383-1.839-5.652,2.971S365.9,398.187,365.9,398.187Z" transform="translate(-365.896 -295.293)"/></g><g transform="translate(4.154 57.215)"><path class="h" d="M372.2,421.825s17.753,2.915,22.721.232,2.744-5.655,2.744-5.655,15.289-1.818,17.6-5.508a3.336,3.336,0,0,0-.094-4.266,5.206,5.206,0,0,0-1.622-1.246s9.727-2.4,14.582-6.8-1.073-8.011-1.073-8.011,17.4-15.463,9.995-20.4-16.449,7.31-16.449,7.31-2.942-7.5-8.9-1.389c-.544.558-1.142,1.206-1.77,1.924-6.307,7.123-16.336,21.028-16.336,21.028s-6.7-2.381-10.484,10.024c0,0-3-2.73-4.537.338S372.2,421.825,372.2,421.825Z" transform="translate(-372.205 -369.004)"/><path class="i" d="M385.745,422.889c-.662.3,29.969-22.284,45.3-35.677C431.043,387.212,403.745,414.818,385.745,422.889Z" transform="translate(-376.826 -375.224)"/><path class="j" d="M372.2,426.5s17.753,2.915,22.721.232,2.744-5.655,2.744-5.655,15.289-1.819,17.6-5.507a3.336,3.336,0,0,0-.094-4.266c-13.279.452-10.882-12.843-5.447-19,4.767-5.407,3.141-6.209.205-9.607-6.307,7.123-16.336,21.028-16.336,21.028s-6.7-2.381-10.484,10.024c0,0-3-2.73-4.537.338S372.2,426.5,372.2,426.5Z" transform="translate(-372.205 -373.681)"/></g></g><g transform="translate(0 104.249)"><g transform="translate(10.949 0)"><path class="h" d="M425.786,385s-24.481-6.168-29.379-12.4-.372-8.813-.372-8.813-18.664-10.885-19.574-16.924c-.475-3.162,1-4.7,2.506-5.44a7.288,7.288,0,0,1,2.784-.7s-11.18-8.529-14.971-16.9,5.858-9.712,5.858-9.712-13.763-29.632-1.467-31.843,17.089,18.6,17.089,18.6,7.977-8.007,12.238,3.187c.387,1.023.8,2.19,1.2,3.466,4.138,12.693,9.278,36.2,9.278,36.2s9.96.681,7.894,18.763c0,0,5.383-1.839,5.652,2.971S425.786,385,425.786,385Z" transform="translate(-365.896 -282.104)"/><path class="i" d="M417.311,383.771c.686.752-26.125-45.434-38.375-71.241C378.936,312.53,398.65,363.322,417.311,383.771Z" transform="translate(-366.02 -292.498)"/><path class="j" d="M415.312,398.187s-24.481-6.168-29.379-12.4-.372-8.813-.372-8.813-18.664-10.885-19.574-16.924c-.475-3.162,1-4.7,2.506-5.44,16.841,8,21.185-10.451,17.631-21.418-3.116-9.625-.573-9.748,5.1-12.481,4.138,12.693,9.278,36.2,9.278,36.2s9.96.681,7.894,18.763c0,0,5.383-1.839,5.652,2.971S415.312,398.187,415.312,398.187Z" transform="translate(-355.421 -295.293)"/></g><g transform="translate(0 57.215)"><path class="h" d="M438.891,421.825s-17.752,2.915-22.721.232-2.744-5.655-2.744-5.655-15.289-1.818-17.6-5.508a3.336,3.336,0,0,1,.094-4.266,5.2,5.2,0,0,1,1.622-1.246s-9.727-2.4-14.582-6.8,1.073-8.011,1.073-8.011-17.4-15.463-9.995-20.4,16.449,7.31,16.449,7.31,2.942-7.5,8.9-1.389c.544.558,1.142,1.206,1.77,1.924,6.307,7.123,16.336,21.028,16.336,21.028s6.7-2.381,10.484,10.024c0,0,3-2.73,4.537.338S438.891,421.825,438.891,421.825Z" transform="translate(-372.205 -369.004)"/><path class="i" d="M431.033,422.889c.662.3-29.969-22.284-45.3-35.677C385.734,387.212,413.032,414.818,431.033,422.889Z" transform="translate(-373.265 -375.224)"/><path class="j" d="M415.981,426.5s-17.752,2.915-22.721.232-2.744-5.655-2.744-5.655-15.289-1.819-17.6-5.507a3.336,3.336,0,0,1,.094-4.266c13.279.452,10.882-12.843,5.447-19-4.767-5.407-3.141-6.209-.205-9.607,6.307,7.123,16.336,21.028,16.336,21.028s6.7-2.381,10.484,10.024c0,0,3-2.73,4.537.338S415.981,426.5,415.981,426.5Z" transform="translate(-349.295 -373.681)"/></g></g><g transform="translate(131.425 0)"><g transform="translate(0 0)"><path class="k" d="M350.057,217.359l-.631-1.63c-.209-.549-.44-1.1-.809-2.177l-.552-1.6c-.2-.573-.4-1.179-.56-1.77-.336-1.21-.75-2.534-1.063-4.014-.163-.737-.357-1.5-.509-2.3l-.442-2.489a69.887,69.887,0,0,1-.853-11.606,68.248,68.248,0,0,1,6.316-27.843,68.941,68.941,0,0,1,8.4-13.566,65.583,65.583,0,0,1,25.632-19.452l.313-.142.105-.039.209-.079.419-.158.837-.315,1.668-.629c.292-.1.52-.209.865-.312l.978-.307,1.946-.6c1.3-.435,2.542-.683,3.784-.974l1.85-.421,1.86-.3a61.052,61.052,0,0,1,14.281-.726c1.133.024,2.241.185,3.333.3s2.164.232,3.206.449c1.044.193,2.069.369,3.069.571l2.911.731c.954.216,1.862.532,2.752.817s1.765.546,2.593.867l2.412.958c.389.157.776.3,1.15.465l1.088.516c1.427.677,2.766,1.29,3.94,1.989,1.186.67,2.291,1.248,3.221,1.892l2.515,1.641,1.777,1.328,1.473,1.1-3.731,5.135-1.417-.852L442.7,140.8l-2.378-1.227c-.872-.488-1.907-.9-3.006-1.38-1.086-.513-2.321-.927-3.623-1.393l-.99-.357c-.34-.107-.691-.2-1.044-.3l-2.173-.621c-.743-.207-1.529-.34-2.317-.521s-1.594-.367-2.436-.464l-2.551-.377-2.663-.219c-.9-.1-1.82-.093-2.752-.1s-1.874-.056-2.83.027a50.459,50.459,0,0,0-11.785,1.8l-1.5.4-1.478.5a30.009,30.009,0,0,0-2.891,1.061l-1.377.576-.69.284c-.217.08-.517.248-.772.369l-1.6.791-.8.4-.4.2-.2.1-.1.05c.384-.174.082-.034.157-.067l-.043.026a54,54,0,0,0-10.4,7.51,50.678,50.678,0,0,0-13.4,20.557,49.171,49.171,0,0,0-1.1,28.866q.252.881.487,1.7c.161.546.359,1.061.523,1.561.313,1,.711,1.892,1.023,2.7a11.551,11.551,0,0,0,.464,1.063q.217.469.406.879c.2.473.575,1.19.823,1.683l.791,1.558Z" transform="translate(-344.634 -123.767)"/><path class="k" d="M493.7,151.831l9.794-13.48,5.682,13.693Z" transform="translate(-395.554 -128.749)"/></g><g transform="translate(29.25 40.146)"><path class="k" d="M507.273,184.742s.167.585.48,1.68c.158.566.338,1.134.606,2.242l.4,1.644c.146.589.294,1.211.4,1.813.225,1.236.516,2.592.692,4.095.1.75.219,1.525.3,2.335s.14,1.651.213,2.519a69.827,69.827,0,0,1-.21,11.635,68.233,68.233,0,0,1-8.831,27.151,68.9,68.9,0,0,1-9.6,12.742,65.574,65.574,0,0,1-27.3,17.032l-.325.113-.108.03-.217.059-.432.119-.863.238-1.718.473c-.3.077-.538.161-.891.232l-1,.217-1.992.421c-1.339.315-2.594.448-3.856.624l-1.882.251-1.88.132a61.038,61.038,0,0,1-14.288-.581c-1.125-.128-2.215-.389-3.291-.607s-2.135-.429-3.152-.739c-1.021-.287-2.027-.557-3-.849l-2.832-.994c-.931-.3-1.806-.7-2.667-1.065s-1.707-.705-2.5-1.1l-2.314-1.174c-.373-.192-.745-.373-1.1-.568l-1.036-.614c-1.36-.8-2.636-1.537-3.742-2.34-1.12-.776-2.167-1.452-3.035-2.178l-2.355-1.863-1.649-1.485-1.366-1.234,4.183-4.773,1.334.977,1.594,1.173,2.255,1.439c.824.566,1.817,1.065,2.867,1.648,1.035.61,2.227,1.135,3.481,1.718l.954.445c.329.138.67.261,1.012.4l2.108.816c.722.275,1.491.478,2.26.73s1.554.51,2.383.684l2.506.608,2.632.462c.886.182,1.8.258,2.731.355s1.861.227,2.821.232a50.419,50.419,0,0,0,11.9-.714l1.526-.258,1.518-.367a29.983,29.983,0,0,0,2.976-.793l1.424-.448.713-.219c.224-.06.537-.2.8-.3l1.663-.643L459.4,258l.418-.161.209-.081.1-.04c-.4.138-.084.026-.162.051l.046-.021a54,54,0,0,0,11.045-6.53,50.69,50.69,0,0,0,15.221-19.248,49.18,49.18,0,0,0,3.732-28.645l-.329-1.74c-.111-.558-.261-1.089-.378-1.6-.221-1.029-.536-1.949-.772-2.786a11.4,11.4,0,0,0-.365-1.1q-.174-.487-.325-.913c-.153-.489-.464-1.238-.666-1.751l-.645-1.624Z" transform="translate(-393.111 -184.742)"/><path class="k" d="M404.452,277.692l-10.984,12.53-4.408-14.155Z" transform="translate(-389.059 -215.938)"/></g></g><g transform="translate(56.161 46.795)"><g transform="translate(0 177.84)"><ellipse class="j" cx="53.742" cy="4.318" rx="53.742" ry="4.318"/><ellipse class="j" cx="41.819" cy="2.439" rx="41.819" ry="2.439" transform="translate(11.923 1.879)"/></g><g transform="translate(4.871 0)"><g transform="translate(0 0)"><rect class="l" width="97.741" height="180.724" rx="14.656"/><path class="j" d="M334.539,234.03v145.7a7.313,7.313,0,0,1-7.3,7.306h-79.3a7.313,7.313,0,0,1-7.3-7.306V328.375C288.274,309.137,325.979,278.734,334.539,234.03Z" transform="translate(-238.714 -208.229)"/><path class="m" d="M332.192,211.114V366.541a5.66,5.66,0,0,1-5.658,5.664H253.691a5.66,5.66,0,0,1-5.658-5.664V211.114a5.66,5.66,0,0,1,5.658-5.664h20.576v1.087a2.755,2.755,0,0,0,2.752,2.752h26.187a2.755,2.755,0,0,0,2.752-2.752V205.45h20.576A5.66,5.66,0,0,1,332.192,211.114Z" transform="translate(-241.243 -198.466)"/><path class="n" d="M294.805,202.723a1.606,1.606,0,1,1-1.606-1.605A1.606,1.606,0,0,1,294.805,202.723Z" transform="translate(-256.123 -196.986)"/><rect class="n" width="20.209" height="3.211" rx="1.606" transform="translate(41.875 4.132)"/></g><g class="o" transform="translate(9.743 9.937)"><path class="h" d="M328.066,209.935H310.13a5.715,5.715,0,0,1-5.392,3.839H278.551a5.715,5.715,0,0,1-5.392-3.839h-.048l-20.594,20.594v75.726L330.771,228V212.646A2.711,2.711,0,0,0,328.066,209.935Z" transform="translate(-252.518 -209.935)"/><path class="h" d="M252.518,346.544v21.864l78.253-78.259V268.286Z" transform="translate(-252.518 -229.867)"/><path class="h" d="M252.518,397.887v7.66a2.711,2.711,0,0,0,2.7,2.711h62.655l12.893-12.894V319.639Z" transform="translate(-252.518 -247.41)"/></g><path class="p" d="M335.461,204.492v2.4a59.936,59.936,0,0,0-3.484-6.271c-1.755-2.506-5.639-3.008-8.772-3.008H249.881a8.507,8.507,0,0,0-7.769,5.038,8.414,8.414,0,0,0-.742,3.158l-3.65,95.725V204.492a9.644,9.644,0,0,1,9.65-9.65h78.442A9.647,9.647,0,0,1,335.461,204.492Z" transform="translate(-237.72 -194.842)"/><g transform="translate(14.534 40.132)"><rect class="q" width="68.672" height="70.411" rx="7.613"/><g transform="translate(3.92 8.564)"><path class="r" d="M1105.448,1626.591c0,12.386-9.684,22.127-22.061,21.746-12.879-.4-23.713-11.519-23.713-24.831s10.834-22.976,23.713-21.635C1095.764,1603.159,1105.448,1614.208,1105.448,1626.591Z" transform="translate(-1059.674 -1600.678)"/><path class="s" d="M1149.761,1612.444c0,12.384-9.685,22.126-22.06,21.746-12.881-.4-23.713-11.52-23.713-24.833s10.833-22.975,23.713-21.633C1140.076,1589.012,1149.761,1600.059,1149.761,1612.444Z" transform="translate(-1100.643 -1587.599)"/><path class="t" d="M1162.493,1625.459c0,11.837-9.265,21.135-21.089,20.753-12.282-.4-22.594-11.014-22.594-23.7s10.312-21.909,22.594-20.651C1153.228,1603.074,1162.493,1613.62,1162.493,1625.459Z" transform="translate(-1114.347 -1600.679)"/><path class="u" d="M1171.559,1634.753c0,11.448-8.966,20.427-20.393,20.042-11.856-.4-21.8-10.651-21.8-22.886s9.942-21.151,21.8-19.95C1162.594,1613.116,1171.559,1623.3,1171.559,1634.753Z" transform="translate(-1124.108 -1610.019)"/><g transform="translate(16.48 5.828)"><path class="v" d="M1288.49,1664.827h0a1.247,1.247,0,0,1,1.1,1.224v2.107a31.191,31.191,0,0,1,3.654.633q1.349.318,2.679.756a1.232,1.232,0,0,1,.84,1.264l-.259,2.643a.991.991,0,0,1-1.415.822,15.542,15.542,0,0,0-1.8-.669,16.215,16.215,0,0,0-3.391-.632l-.311-.027v6.037a15.841,15.841,0,0,1,7.008,3.583,7.573,7.573,0,0,1,2.245,5.593,7.367,7.367,0,0,1-2.482,5.815,11.332,11.332,0,0,1-7.023,2.473v2.326a1.057,1.057,0,0,1-1.1,1.074h-.019a1.171,1.171,0,0,1-1.107-1.166v-2.3l-.489-.023a32.254,32.254,0,0,1-4.069-.433,26.563,26.563,0,0,1-2.812-.647,1.212,1.212,0,0,1-.882-1.252l.3-3.4a1.074,1.074,0,0,1,1.5-.886,22.148,22.148,0,0,0,2.473.811,21.6,21.6,0,0,0,3.954.66l.019-6.714a14.538,14.538,0,0,1-6.822-3.348,7.664,7.664,0,0,1-2.259-5.7,6.659,6.659,0,0,1,2.45-5.533c1.622-1.289,3.93-1.931,6.907-1.929v-2.155A1,1,0,0,1,1288.49,1664.827Zm-1.1,8.058a3.712,3.712,0,0,0-2.2.777,2.263,2.263,0,0,0-.789,1.811,2.433,2.433,0,0,0,.73,1.8,5.174,5.174,0,0,0,2.26,1.153Zm1.951,12.16v6.156a3.4,3.4,0,0,0,2.355-.732,2.636,2.636,0,0,0,.819-2.072,2.833,2.833,0,0,0-.761-2.027A5.577,5.577,0,0,0,1289.338,1685.046Z" transform="translate(-1278.03 -1664.822)"/></g><path class="w" d="M1147.475,1638.925c.689-6.806,6.943-9.686,6.127-15.945-.5-3.858-3.428-7.11-6.69-9.649a19.607,19.607,0,0,0-17.545,19.948c0,12.235,9.942,22.489,21.8,22.887a20.521,20.521,0,0,0,3.368-.164C1149.826,1651.316,1146.883,1644.771,1147.475,1638.925Z" transform="translate(-1124.108 -1611.389)"/></g><g transform="translate(23.87 28.198)"><path class="r" d="M1095.446,1621.162a16.663,16.663,0,0,1-17.241,16.994,19.512,19.512,0,0,1-18.531-19.405,16.618,16.618,0,0,1,18.531-16.907A19.639,19.639,0,0,1,1095.446,1621.162Z" transform="translate(-1059.674 -1600.912)"/><path class="s" d="M1139.759,1607.015a16.665,16.665,0,0,1-17.24,16.994,19.513,19.513,0,0,1-18.532-19.407,16.617,16.617,0,0,1,18.532-16.906A19.64,19.64,0,0,1,1139.759,1607.015Z" transform="translate(-1101.374 -1587.599)"/><path class="t" d="M1152.948,1620.278a15.9,15.9,0,0,1-16.481,16.219,18.624,18.624,0,0,1-17.657-18.521,15.86,15.86,0,0,1,17.657-16.138A18.741,18.741,0,0,1,1152.948,1620.278Z" transform="translate(-1115.322 -1600.913)"/><path class="u" d="M1162.34,1629.749a15.358,15.358,0,0,1-15.937,15.663,17.99,17.99,0,0,1-17.035-17.886,15.32,15.32,0,0,1,17.035-15.591A18.1,18.1,0,0,1,1162.34,1629.749Z" transform="translate(-1125.257 -1610.419)"/><g transform="translate(12.879 4.555)"><path class="v" d="M1286.2,1664.826h0a.975.975,0,0,1,.86.957v1.647a24.338,24.338,0,0,1,2.856.495q1.055.249,2.094.59a.964.964,0,0,1,.656.988l-.2,2.066a.775.775,0,0,1-1.106.642,12.091,12.091,0,0,0-1.4-.523,12.672,12.672,0,0,0-2.65-.494l-.243-.021v4.718a12.38,12.38,0,0,1,5.477,2.8,5.919,5.919,0,0,1,1.754,4.37,5.757,5.757,0,0,1-1.94,4.545,8.857,8.857,0,0,1-5.489,1.932v1.818a.826.826,0,0,1-.861.84h-.015a.915.915,0,0,1-.865-.911v-1.794l-.382-.018a25.185,25.185,0,0,1-3.18-.339,20.743,20.743,0,0,1-2.2-.506.947.947,0,0,1-.689-.978l.238-2.655a.839.839,0,0,1,1.174-.693,17.3,17.3,0,0,0,1.932.634,16.872,16.872,0,0,0,3.09.516l.015-5.247a11.359,11.359,0,0,1-5.331-2.616,5.989,5.989,0,0,1-1.766-4.452,5.2,5.2,0,0,1,1.914-4.324,8.488,8.488,0,0,1,5.4-1.508v-1.684A.778.778,0,0,1,1286.2,1664.826Zm-.862,6.3a2.9,2.9,0,0,0-1.72.607,1.769,1.769,0,0,0-.617,1.415,1.9,1.9,0,0,0,.571,1.408,4.046,4.046,0,0,0,1.766.9Zm1.525,9.5v4.811a2.66,2.66,0,0,0,1.841-.572,2.06,2.06,0,0,0,.64-1.619,2.214,2.214,0,0,0-.594-1.584A4.357,4.357,0,0,0,1286.867,1680.627Z" transform="translate(-1278.03 -1664.823)"/></g><path class="w" d="M1143.519,1633.333c.538-5.319,5.426-7.57,4.788-12.461-.392-3.015-2.679-5.557-5.228-7.541a15.323,15.323,0,0,0-13.711,15.589,17.99,17.99,0,0,0,17.035,17.886,16.03,16.03,0,0,0,2.632-.128C1145.356,1643.016,1143.056,1637.9,1143.519,1633.333Z" transform="translate(-1125.257 -1611.813)"/></g></g><g transform="translate(17.759 123.896)"><g transform="translate(0 0)"><rect class="x" width="62.455" height="14.765" rx="7.382"/><text class="y" transform="translate(19.87 9.045)"><tspan x="0" y="0">INVITE</tspan></text></g></g></g></g><g transform="translate(85.225 11.849)"><g transform="translate(0 15.293)"><path class="z" d="M5.29,0H66.6a5.291,5.291,0,0,1,5.291,5.291V35.265a5.29,5.29,0,0,1-5.29,5.29H5.291A5.291,5.291,0,0,1,0,35.265V5.29A5.29,5.29,0,0,1,5.29,0Z" transform="matrix(0.764, -0.645, 0.645, 0.764, 0, 46.364)"/><path class="h" d="M350.232,205.03l-38.961,32.876a7.657,7.657,0,0,0-10.79-.914l-12.072-14.306a7.657,7.657,0,0,0,.914-10.79l38.961-32.876a7.657,7.657,0,0,0,10.79.914l12.072,14.306A7.657,7.657,0,0,0,350.232,205.03Z" transform="translate(-279.227 -169.783)"/><circle class="z" cx="13.897" cy="13.897" r="13.897" transform="translate(25.53 51.354) rotate(-85.159)"/><g transform="translate(22.338 24.907)"><path class="h" d="M1.462,0h9.253a1.462,1.462,0,0,1,1.462,1.462v0a1.463,1.463,0,0,1-1.463,1.463H1.463A1.463,1.463,0,0,1,0,1.462v0A1.462,1.462,0,0,1,1.462,0Z" transform="translate(36.468 7.853) rotate(-40.158)"/><path class="h" d="M1.463,0h9.252a1.462,1.462,0,0,1,1.462,1.462v0a1.462,1.462,0,0,1-1.462,1.462H1.462A1.462,1.462,0,0,1,0,1.463v0A1.463,1.463,0,0,1,1.463,0Z" transform="matrix(0.764, -0.645, 0.645, 0.764, 0, 38.626)"/></g><g transform="translate(32.507 28.728)"><path class="h" d="M334.823,215.712a4.919,4.919,0,0,1,2.281.3,5.49,5.49,0,0,1,2.244,1.7,4.99,4.99,0,0,1,1.11,2.312,5.164,5.164,0,0,1-.227,2.682,6.924,6.924,0,0,1-1.707,2.628l.992,1.175-1.618,1.365-1.025-1.213a10.475,10.475,0,0,1-5.088,1.787l-.6-3.217a9.464,9.464,0,0,0,3.595-1.055l-3.2-3.8a8.68,8.68,0,0,1-3.524.435,4.4,4.4,0,0,1-2.9-1.712,5.075,5.075,0,0,1-1.308-3.679,6.024,6.024,0,0,1,1.72-3.727l-1.073-1.271,1.618-1.366,1.089,1.29a8.781,8.781,0,0,1,2.312-1.208,12.912,12.912,0,0,1,2.4-.521l.745,3.032a11.232,11.232,0,0,0-3.355,1.182l2.975,3.526.129-.043A10.773,10.773,0,0,1,334.823,215.712Zm-6.959.743a2.227,2.227,0,0,0,2.156.523l-2.275-2.7A1.675,1.675,0,0,0,327.864,216.456Zm9.046,5.014a1.783,1.783,0,0,0-.471-1.3q-.748-.886-2.662-.458l2.6,3.083A2.469,2.469,0,0,0,336.911,221.47Z" transform="translate(-323.836 -208.624)"/></g><path class="aa" d="M341.075,169.316l22.405,26.552a1.632,1.632,0,0,1-.194,2.3l-50.5,42.616a1.632,1.632,0,0,1-2.3-.194l-4.5-5.338c32.393-23.783,29.548-49.714,26.36-60.695l6.438-5.432A1.632,1.632,0,0,1,341.075,169.316Z" transform="translate(-285.23 -166.271)"/></g><g transform="translate(87.035 0)"><rect class="z" width="49.794" height="28.089" rx="4.744" transform="translate(6.559 0) rotate(13.503)"/><path class="h" d="M449.122,178.656l-31.292-7.514a6.866,6.866,0,0,0-5.074-8.279l2.3-9.567a6.866,6.866,0,0,0,8.279-5.074l31.293,7.515a6.866,6.866,0,0,0,5.073,8.279l-2.3,9.567A6.866,6.866,0,0,0,449.122,178.656Z" transform="translate(-408.74 -143.97)"/><circle class="z" cx="9.625" cy="9.625" r="9.625" transform="matrix(0.158, -0.987, 0.987, 0.158, 16.46, 27.449)"/><g transform="translate(5.675 19.509)"><path class="h" d="M1.013,0H7.421A1.013,1.013,0,0,1,8.434,1.013v0A1.013,1.013,0,0,1,7.421,2.026H1.013A1.013,1.013,0,0,1,0,1.013v0A1.013,1.013,0,0,1,1.013,0Z" transform="matrix(0.972, 0.234, -0.234, 0.972, 32.608, 7.717)"/><path class="h" d="M1.012,0H7.421A1.013,1.013,0,0,1,8.434,1.013v0A1.013,1.013,0,0,1,7.421,2.026H1.013A1.013,1.013,0,0,1,0,1.013v0A1.012,1.012,0,0,1,1.012,0Z" transform="translate(0.473 0) rotate(13.503)"/></g><g transform="translate(21.94 12.005)"><path class="h" d="M448.332,167.929a3.41,3.41,0,0,1,.769,1.4,3.807,3.807,0,0,1-.029,1.95,3.451,3.451,0,0,1-.834,1.568,3.576,3.576,0,0,1-1.589.974,4.791,4.791,0,0,1-2.167.126l-.248,1.036-1.426-.342.257-1.069a7.257,7.257,0,0,1-3.085-2.106l1.547-1.657a6.553,6.553,0,0,0,2.064,1.572l.8-3.344a6.019,6.019,0,0,1-1.689-1.788,3.049,3.049,0,0,1-.234-2.318,3.516,3.516,0,0,1,1.516-2.239,4.172,4.172,0,0,1,2.785-.57l.269-1.121,1.426.342-.273,1.138a6.073,6.073,0,0,1,1.623.793,8.983,8.983,0,0,1,1.274,1.123l-1.386,1.66a7.756,7.756,0,0,0-2.037-1.387l-.746,3.106.077.054A7.461,7.461,0,0,1,448.332,167.929Zm-3.27-3.577a1.54,1.54,0,0,0,.593,1.417l.571-2.376A1.16,1.16,0,0,0,445.062,164.352Zm.915,7.1a1.233,1.233,0,0,0,.532-.8q.188-.78-.837-1.673l-.652,2.716A1.708,1.708,0,0,0,445.977,171.456Z" transform="translate(-439.979 -159.997)"/></g><path class="aa" d="M460.975,160.669l-5.619,23.4A1.131,1.131,0,0,1,454,184.9l-44.5-10.687a1.13,1.13,0,0,1-.834-1.36l1.129-4.7c26.563,8.312,39.863-3.917,44.681-10.2l5.673,1.362A1.13,1.13,0,0,1,460.975,160.669Z" transform="translate(-407.329 -147.292)"/></g><g transform="translate(153.147 8.596)"><rect class="z" width="40.14" height="22.643" rx="4.785" transform="translate(13.773 0) rotate(37.464)"/><path class="h" d="M536.7,194.028l-18.385-14.089a6.925,6.925,0,0,0-1.285-9.709l3.133-4.089a6.925,6.925,0,0,0,9.709-1.285l18.386,14.089a6.925,6.925,0,0,0,1.284,9.709l-3.133,4.089A6.925,6.925,0,0,0,536.7,194.028Z" transform="translate(-510.471 -158.248)"/><circle class="z" cx="7.759" cy="7.759" r="7.759" transform="translate(12.243 24.124) rotate(-60.487)"/><g transform="translate(6.09 14.237)"><path class="h" d="M.816,0H5.982A.816.816,0,0,1,6.8.816v0a.817.817,0,0,1-.817.817H.817A.817.817,0,0,1,0,.816v0A.816.816,0,0,1,.816,0Z" transform="matrix(0.794, 0.608, -0.608, 0.794, 22.14, 16.205)"/><path class="h" d="M.817,0H5.983A.816.816,0,0,1,6.8.816v0a.817.817,0,0,1-.817.817H.816A.816.816,0,0,1,0,.817v0A.817.817,0,0,1,.817,0Z" transform="matrix(0.794, 0.608, -0.608, 0.794, 0.993, 0)"/></g><g transform="translate(17.421 16.192)"><path class="h" d="M540.836,185.677a2.745,2.745,0,0,1,.109,1.28,3.063,3.063,0,0,1-.659,1.427,2.8,2.8,0,0,1-1.128.882,2.882,2.882,0,0,1-1.49.2,3.867,3.867,0,0,1-1.638-.616l-.522.681-.938-.719.539-.7a5.85,5.85,0,0,1-1.583-2.561l1.682-.714a5.3,5.3,0,0,0,1.005,1.834l1.687-2.2a4.84,4.84,0,0,1-.659-1.871,2.456,2.456,0,0,1,.587-1.784,2.838,2.838,0,0,1,1.85-1.154,3.365,3.365,0,0,1,2.239.492l.565-.737.938.719-.573.748a4.92,4.92,0,0,1,.936,1.116,7.249,7.249,0,0,1,.571,1.244l-1.564.769a6.261,6.261,0,0,0-1.046-1.688l-1.566,2.044.038.065A5.991,5.991,0,0,1,540.836,185.677Zm-1.238-3.706a1.243,1.243,0,0,0-.027,1.238l1.2-1.564A.936.936,0,0,0,539.6,181.971Zm-1.652,5.534a.994.994,0,0,0,.653-.413q.394-.514-.068-1.506l-1.37,1.787A1.376,1.376,0,0,0,537.946,187.505Z" transform="translate(-533.526 -179.412)"/></g><path class="aa" d="M551.857,187.365l-11.8,15.4a.911.911,0,0,1-1.275.169L509.5,180.489a.911.911,0,0,1-.169-1.275l2.372-3.1c16.847,14.819,30.648,10.164,36.255,7.111l3.732,2.861A.911.911,0,0,1,551.857,187.365Z" transform="translate(-507.776 -162.095)"/></g></g></g></g></g></svg>