<svg width="184" height="199" viewBox="0 0 184 199" fill="none" xmlns="http://www.w3.org/2000/svg">
<path d="M183.192 122.996C181.541 132.256 177.362 139.772 170.577 144.756C169.42 145.611 168.341 146.387 167.308 147.119C157.908 153.667 152.108 155.276 122.081 159.664C88.762 164.547 79.393 182.549 47.748 176.923C16.103 171.297 5.63296 139.051 23.169 102.323C36.38 74.69 28.213 52.638 43.828 29.899C57.533 9.92802 76.922 8.37501 89.65 7.02501C126.901 3.05301 152.3 30.833 170.297 65.34C181.574 86.98 185.967 107.446 183.192 122.996Z" fill="#F6F6F9"/>
<path d="M66.281 130.534C66.281 130.534 64.544 117.449 65.244 112.841C66.215 106.453 70.878 94.204 70.878 94.204L68.709 89.528L58.117 95.567L51.717 117.74L54.365 134.178L66.281 130.534Z" fill="url(#paint0_linear)"/>
<path d="M63.198 131.447C63.198 131.447 61.461 118.362 62.161 113.754C63.132 107.364 67.795 95.116 67.795 95.116L65.626 90.441L55.034 96.478L48.634 118.651L51.282 135.089L63.198 131.447Z" fill="url(#paint1_linear)"/>
<path d="M60.406 131.275C60.406 131.275 58.67 118.19 59.369 113.582C60.34 107.194 65.003 94.945 65.003 94.945L62.834 90.269L52.242 96.308L45.842 118.481L48.488 134.917L60.406 131.275Z" fill="url(#paint2_linear)"/>
<path d="M39.8191 26.9219L99.6134 9.17279C100.235 8.98872 100.887 8.92896 101.531 8.99692C102.176 9.06488 102.801 9.25924 103.37 9.56887C103.94 9.87851 104.443 10.2973 104.85 10.8015C105.258 11.3056 105.562 11.885 105.746 12.5068L140.274 129.196C140.646 130.451 140.504 131.804 139.88 132.955C139.256 134.107 138.2 134.964 136.945 135.338L77.1484 153.083C76.5272 153.267 75.8758 153.327 75.2315 153.259C74.5871 153.191 73.9625 152.997 73.3931 152.688C72.8238 152.379 72.321 151.96 71.9133 151.457C71.5057 150.953 71.2013 150.374 71.0174 149.753L36.4892 33.0643C36.1169 31.8082 36.2585 30.4557 36.8829 29.304C37.5073 28.1522 38.5634 27.2955 39.8191 26.9219V26.9219Z" fill="#222222"/>
<path d="M42.1404 30.2537L99.4765 13.2299C99.7731 13.142 100.084 13.1135 100.392 13.1458C100.7 13.1782 100.998 13.271 101.27 13.4187C101.541 13.5665 101.781 13.7664 101.976 14.007C102.17 14.2476 102.316 14.5242 102.403 14.8209L133.792 120.899C133.97 121.499 133.902 122.144 133.604 122.694C133.307 123.243 132.803 123.652 132.204 123.831L74.866 140.849C74.5694 140.937 74.2583 140.966 73.9506 140.934C73.643 140.901 73.3447 140.808 73.0729 140.661C72.801 140.513 72.561 140.313 72.3665 140.072C72.172 139.832 72.0268 139.555 71.9393 139.258L40.5527 33.1846C40.3752 32.5854 40.4426 31.9402 40.7403 31.3907C41.0379 30.8412 41.5415 30.4323 42.1404 30.2537V30.2537Z" fill="#F6F6F9"/>
<path d="M109.791 137.105C110.054 137.995 110.047 138.943 109.771 139.83C109.495 140.716 108.962 141.501 108.241 142.084C107.519 142.668 106.64 143.024 105.716 143.109C104.791 143.193 103.863 143.001 103.047 142.558C102.232 142.114 101.566 141.439 101.134 140.618C100.702 139.796 100.524 138.865 100.621 137.941C100.719 137.018 101.087 136.145 101.681 135.431C102.275 134.718 103.067 134.196 103.957 133.933C105.151 133.581 106.436 133.718 107.53 134.312C108.624 134.907 109.437 135.911 109.791 137.105Z" fill="#D5D4E0"/>
<path d="M51.1941 59.06L57.5051 80.389L67.5751 77.401C69.1006 76.9489 70.7002 76.802 72.2825 76.9686C73.8648 77.1353 75.3988 77.6122 76.7966 78.3721C78.1945 79.132 79.4289 80.16 80.4291 81.3973C81.4294 82.6346 82.176 84.0569 82.6261 85.583L85.5111 95.334L106.811 89.013L100.484 67.633L95.7581 51.661L94.1731 46.304L51.1941 59.06Z" fill="#D5D4E0"/>
<path d="M73.9966 110.977L95.2929 104.655L101.604 125.984L80.3063 132.308L73.9966 110.977Z" fill="#D5D4E0"/>
<path d="M64.4114 113.819L71.0832 111.843L77.3909 133.178L70.719 135.157L64.4114 113.819Z" fill="#D5D4E0"/>
<path d="M62.8579 108.572L117.983 92.21L95.0069 14.562" stroke="#222222" stroke-width="5.551" stroke-miterlimit="10"/>
<path d="M56.5459 87.237L67.7929 83.899C68.7381 83.6188 69.7292 83.5278 70.7096 83.6311C71.69 83.7343 72.6404 84.0299 73.5065 84.5007C74.3726 84.9716 75.1373 85.6086 75.757 86.3753C76.3767 87.142 76.8391 88.0234 77.1179 88.969L81.2989 103.098" stroke="#222222" stroke-width="5.551" stroke-miterlimit="10"/>
<path d="M99.3318 97.745L109.082 130.697" stroke="#222222" stroke-width="5.551" stroke-miterlimit="10"/>
<path d="M62.8579 108.572L117.983 92.21L95.0069 14.562" stroke="#D5D4E0" stroke-width="0.694" stroke-miterlimit="10" stroke-dasharray="4.16 1.39"/>
<path d="M56.5459 87.237L67.7929 83.899C68.7381 83.6188 69.7292 83.5278 70.7096 83.6311C71.69 83.7343 72.6404 84.0299 73.5065 84.5007C74.3726 84.9716 75.1373 85.6086 75.757 86.3753C76.3767 87.142 76.8391 88.0234 77.1179 88.969L81.2989 103.098" stroke="#D5D4E0" stroke-width="0.694" stroke-miterlimit="10" stroke-dasharray="4.16 1.39"/>
<path d="M99.3318 97.745L109.082 130.697" stroke="#D5D4E0" stroke-width="0.694" stroke-miterlimit="10" stroke-dasharray="4.16 1.39"/>
<path opacity="0.5" d="M94.5669 74.9967C94.8198 70.5679 91.44 66.773 87.0179 66.5204C82.5958 66.2679 78.8059 69.6533 78.553 74.0821C78.3 78.5108 81.6798 82.3057 86.1019 82.5583C90.524 82.8109 94.3139 79.4254 94.5669 74.9967Z" fill="#222222" fill-opacity="0.16"/>
<path d="M91.199 73.164C91.4696 74.0806 91.4623 75.0569 91.1781 75.9694C90.8939 76.8819 90.3456 77.6896 89.6024 78.2905C88.8592 78.8914 87.9545 79.2584 87.0027 79.3453C86.051 79.4321 85.0948 79.2348 84.2552 78.7782C83.4155 78.3217 82.7301 77.6265 82.2855 76.7805C81.8409 75.9345 81.6571 74.9757 81.7574 74.0252C81.8577 73.0748 82.2375 72.1754 82.8488 71.4408C83.4601 70.7061 84.2756 70.1693 85.192 69.898C86.4216 69.5362 87.7446 69.6769 88.8707 70.2892C89.9968 70.9014 90.8341 71.9353 91.199 73.164V73.164Z" fill="#222222" fill-opacity="0.31"/>
<path d="M89.209 109.024C89.2085 109.076 89.2018 109.127 89.189 109.177C88.4227 111.845 87.3633 114.421 86.03 116.856C84.369 120.2 82.363 124.085 80.641 128.374C76.419 138.894 77.064 146.293 72.307 154.121C71.2573 155.833 70.1048 157.481 68.856 159.054C64.735 164.254 61.156 169.891 59.174 176.505C57.088 183.525 55.794 193.436 54.641 198.061L29.729 189.87C29.729 189.87 36.429 168.939 38.75 156.721C41.065 144.486 38.787 124.366 38.811 117.355C38.823 110.365 54.121 92.714 54.121 92.714L57.552 104.252C56.1793 108.923 55.3005 113.725 54.93 118.58C55.0283 121.529 55.4322 124.461 56.135 127.327C56.2739 127.975 56.5793 128.575 57.0211 129.069C57.463 129.563 58.026 129.933 58.6545 130.143C59.2831 130.352 59.9555 130.395 60.6053 130.265C61.2551 130.135 61.8599 129.839 62.36 129.404C63.8642 128.029 65.1893 126.47 66.304 124.764C71.66 116.872 72.904 111.079 81.104 106.024C81.104 106.024 87.304 102.799 89.037 106.292C89.3924 107.159 89.4529 108.119 89.209 109.024V109.024Z" fill="url(#paint3_linear)"/>
<path style="mix-blend-mode:screen" d="M89.2079 109.024C89.2074 109.076 89.2007 109.127 89.1879 109.177C88.4216 111.845 87.3622 114.421 86.0289 116.856C85.0371 115.696 83.7248 114.856 82.2569 114.439C82.1516 114.406 82.0617 114.336 82.0041 114.242C81.9465 114.148 81.9251 114.037 81.9439 113.928C82.4649 111.203 85.2749 106.028 87.4219 106.117C89.3809 106.204 89.2719 108.419 89.2079 109.024Z" fill="url(#paint4_linear)"/>
<path d="M113.007 28.237C113.013 24.1198 112.058 20.0579 110.218 16.3748C108.378 12.6916 105.704 9.48877 102.408 7.02121C99.112 4.55365 95.2856 2.88948 91.2333 2.16115C87.181 1.43282 83.0147 1.66043 79.0659 2.82588C75.117 3.99133 71.4948 6.06244 68.4873 8.87436C65.4799 11.6863 63.1704 15.1614 61.7425 19.0231C60.3147 22.8848 59.8079 27.0265 60.2627 31.1185C60.7174 35.2106 62.121 39.14 64.3618 42.594H64.3388L64.5828 42.959L64.6558 43.067L85.3658 73.924C85.4969 74.1193 85.674 74.2794 85.8815 74.3901C86.089 74.5007 86.3206 74.5586 86.5558 74.5586C86.791 74.5586 87.0226 74.5007 87.2301 74.3901C87.4377 74.2794 87.6148 74.1193 87.7458 73.924L108.773 42.594H108.745C111.528 38.3229 113.009 33.3347 113.007 28.237V28.237ZM86.5638 21.825C87.8286 21.8274 89.0643 22.2044 90.1149 22.9086C91.1656 23.6128 91.984 24.6124 92.4669 25.7814C92.9498 26.9503 93.0756 28.2362 92.8282 29.4765C92.5809 30.7169 91.9716 31.8561 91.0773 32.7505C90.183 33.6448 89.0437 34.2541 87.8033 34.5014C86.563 34.7488 85.2771 34.623 84.1082 34.1401C82.9392 33.6572 81.9395 32.8388 81.2354 31.7881C80.5312 30.7375 80.1542 29.5018 80.1518 28.237C80.1502 27.3945 80.315 26.56 80.6367 25.7814C80.9583 25.0027 81.4306 24.2952 82.0263 23.6995C82.622 23.1038 83.3295 22.6315 84.1082 22.3099C84.8868 21.9882 85.7213 21.8234 86.5638 21.825V21.825Z" fill="#F55A00"/>
<path d="M183.19 122.999C181.536 132.261 177.349 139.779 170.551 144.765C169.392 145.62 168.311 146.397 167.276 147.128C162.189 141.628 153.976 133.218 149.876 131.496C143.664 128.885 140.13 131.282 134.964 129.774C131.526 128.513 128.241 126.866 125.173 124.867C119.366 121.254 113.491 116.467 113.457 113.061C113.434 110.214 113.705 104.935 113.986 100.388C114.267 95.841 114.56 91.981 114.56 91.981L102.585 76.855C102.585 76.855 88.3268 64.614 84.6578 61.122C82.4893 59.1154 80.9096 56.5551 80.0888 53.717C79.1208 49.981 80.8428 48.817 83.3078 49.058H83.3528C83.3748 49.0501 83.3988 49.0501 83.4208 49.058C83.4208 49.058 83.4768 49.058 83.6008 49.069C85.4658 49.4035 87.2476 50.0992 88.8458 51.117C89.3858 51.443 90.2078 51.972 91.2658 52.625C97.5658 56.609 111.614 65.77 113.73 68.179C114.54 69.079 116.859 71.814 119.639 75.079C120.674 73.211 122.014 71.241 123.094 71.511C123.668 71.646 126.088 71.961 129.34 72.355C130.274 71.41 131.658 70.127 132.604 69.913C133.741 69.665 138.794 72.4 141.382 73.852C142.105 73.0541 143.002 72.4339 144.004 72.04C145.204 71.759 150.655 74.764 152.904 76.04C153.231 76.2029 153.546 76.3869 153.849 76.591L153.871 76.602C155.255 77.547 156.178 79.236 157.9 87.136C160.106 97.336 164.641 107.136 169.728 112.402C172.238 114.986 177.98 119.285 183.19 122.999Z" fill="url(#paint5_linear)"/>
<path style="mix-blend-mode:screen" d="M91.2648 52.63C90.8531 54.3747 89.8192 55.9093 88.3568 56.946C88.2433 57.0219 88.1109 57.0646 87.9745 57.0691C87.838 57.0737 87.7031 57.0401 87.5847 56.972C85.7387 55.941 80.7768 53.303 81.2048 50.838C81.2714 50.3256 81.5298 49.8575 81.9278 49.5279C82.3258 49.1984 82.8339 49.0319 83.3497 49.062C83.3704 49.0544 83.3931 49.0544 83.4138 49.062C83.4746 49.0616 83.5354 49.0653 83.5958 49.073C85.4633 49.4015 87.2473 50.0965 88.8448 51.118C89.3838 51.445 90.2058 51.966 91.2648 52.63Z" fill="url(#paint6_linear)"/>
<path d="M126.66 118.227C126.372 120.482 125.875 122.705 125.174 124.867C119.367 121.254 113.492 116.467 113.458 113.061C113.436 110.214 113.706 104.935 113.987 100.388C114.268 95.841 114.561 91.981 114.561 91.981C114.561 91.981 115.182 92.681 116.049 93.653C119.425 97.4601 121.986 101.918 123.573 106.753C124.127 108.44 124.589 109.829 124.691 110.063C124.971 110.721 126.66 118.227 126.66 118.227Z" fill="url(#paint7_linear)"/>
<path d="M50.465 23.765L48.473 28.379L42.913 41.243L40.527 46.791L36.633 33.668C36.2161 32.2518 36.3777 30.7281 37.0823 29.4308C37.7869 28.1334 38.9771 27.1684 40.392 26.747L50.465 23.765Z" fill="#222222"/>
<path d="M48.4699 28.371L42.9099 41.235L40.6099 33.469C40.5101 33.1349 40.4772 32.7843 40.5131 32.4374C40.5491 32.0906 40.6531 31.7542 40.8193 31.4476C40.9855 31.1411 41.2106 30.8703 41.4817 30.6509C41.7527 30.4315 42.0644 30.2677 42.3989 30.169L48.4699 28.371Z" fill="#F6F6F9" stroke="#F6F6F9" stroke-width="0.01"/>
<path d="M26.4329 86.54C22.8689 98.92 15.9269 105.673 9.08193 104.172C3.89393 103.034 -5.58707 97.362 4.35493 76.165C14.2969 54.968 12.8809 42.836 17.5999 39.126C21.4399 36.109 28.0489 40.975 29.4339 53.901C30.6579 65.321 28.1049 80.734 26.4329 86.54Z" fill="#F6F6F9"/>
<path d="M131.485 163.01C138.137 162.484 144.746 161.515 151.269 160.11C157.609 158.721 162.569 156.438 166.64 154.868C178.763 150.192 187.807 164.782 171.114 172.227C155.33 179.266 131.314 173.399 125.423 168.896C119.532 164.393 131.485 163.01 131.485 163.01Z" fill="#F6F6F9"/>
<path d="M169.239 45.219C174.729 45.219 179.18 40.7683 179.18 35.278C179.18 29.7877 174.729 25.337 169.239 25.337C163.749 25.337 159.298 29.7877 159.298 35.278C159.298 40.7683 163.749 45.219 169.239 45.219Z" fill="#E9E9F7"/>
<path d="M136.675 52.219C140.409 52.219 143.437 49.1916 143.437 45.457C143.437 41.7225 140.409 38.695 136.675 38.695C132.94 38.695 129.913 41.7225 129.913 45.457C129.913 49.1916 132.94 52.219 136.675 52.219Z" fill="#E9E9F7"/>
<path d="M127.218 3.325C127.218 3.98234 127.023 4.62487 126.657 5.17134C126.292 5.71782 125.773 6.14371 125.165 6.39517C124.558 6.64663 123.89 6.71238 123.245 6.58409C122.6 6.4558 122.008 6.13923 121.543 5.67442C121.079 5.20961 120.762 4.61743 120.634 3.97273C120.505 3.32803 120.571 2.65977 120.823 2.05243C121.074 1.44509 121.5 0.925945 122.046 0.560623C122.593 0.195302 123.235 0.000197936 123.893 1.50471e-07C124.33 -0.000131242 124.762 0.0857879 125.165 0.252838C125.569 0.419889 125.935 0.664806 126.244 0.973587C126.553 1.28237 126.798 1.64896 126.965 2.05243C127.132 2.4559 127.218 2.88831 127.218 3.325V3.325Z" fill="#E9E9F7"/>
<path d="M9.12283 118.073C10.9586 118.073 12.4468 116.585 12.4468 114.749C12.4468 112.913 10.9586 111.425 9.12283 111.425C7.28703 111.425 5.79883 112.913 5.79883 114.749C5.79883 116.585 7.28703 118.073 9.12283 118.073Z" fill="#E9E9F7"/>
<path d="M109.638 179C113.409 179 116.467 175.943 116.467 172.171C116.467 168.399 113.409 165.342 109.638 165.342C105.866 165.342 102.809 168.399 102.809 172.171C102.809 175.943 105.866 179 109.638 179Z" fill="#E9E9F7"/>
<defs>
<linearGradient id="paint0_linear" x1="63.4052" y1="107.611" x2="47.1997" y2="123.646" gradientUnits="userSpaceOnUse">
<stop offset="0.005" stop-color="#FFD0BE"/>
<stop offset="0.847" stop-color="#FF9E8A"/>
<stop offset="1" stop-color="#FF9581"/>
</linearGradient>
<linearGradient id="paint1_linear" x1="62.4683" y1="95.7987" x2="43.3398" y2="112.264" gradientUnits="userSpaceOnUse">
<stop offset="0.005" stop-color="#FFD0BE"/>
<stop offset="0.847" stop-color="#FF9E8A"/>
<stop offset="1" stop-color="#FF9581"/>
</linearGradient>
<linearGradient id="paint2_linear" x1="64.0642" y1="85.5363" x2="38.5203" y2="97.4097" gradientUnits="userSpaceOnUse">
<stop offset="0.005" stop-color="#FFD0BE"/>
<stop offset="0.847" stop-color="#FF9E8A"/>
<stop offset="1" stop-color="#FF9581"/>
</linearGradient>
<linearGradient id="paint3_linear" x1="67.473" y1="102.617" x2="6.12947" y2="142.157" gradientUnits="userSpaceOnUse">
<stop offset="0.005" stop-color="#FFD0BE"/>
<stop offset="0.847" stop-color="#FF9E8A"/>
<stop offset="1" stop-color="#FF9581"/>
</linearGradient>
<linearGradient id="paint4_linear" x1="82.813" y1="115.32" x2="93.1242" y2="110.33" gradientUnits="userSpaceOnUse">
<stop offset="0.005" stop-color="#FFD0BE"/>
<stop offset="0.847" stop-color="#FF9E8A"/>
<stop offset="1" stop-color="#FF9581"/>
</linearGradient>
<linearGradient id="paint5_linear" x1="109.38" y1="45.8885" x2="159.13" y2="152.14" gradientUnits="userSpaceOnUse">
<stop offset="0.005" stop-color="#FFD0BE"/>
<stop offset="0.847" stop-color="#FF9E8A"/>
<stop offset="1" stop-color="#FF9581"/>
</linearGradient>
<linearGradient id="paint6_linear" x1="99.5958" y1="54.9941" x2="108.925" y2="54.9941" gradientUnits="userSpaceOnUse">
<stop offset="0.005" stop-color="#FFD0BE"/>
<stop offset="0.847" stop-color="#FF9E8A"/>
<stop offset="1" stop-color="#FF9581"/>
</linearGradient>
<linearGradient id="paint7_linear" x1="118.976" y1="118.027" x2="130.446" y2="103.428" gradientUnits="userSpaceOnUse">
<stop offset="0.005" stop-color="#FF9581" stop-opacity="0"/>
<stop offset="0.138" stop-color="#FF9581" stop-opacity="0.016"/>
<stop offset="0.264" stop-color="#FF9581" stop-opacity="0.059"/>
<stop offset="0.387" stop-color="#FF9581" stop-opacity="0.133"/>
<stop offset="0.509" stop-color="#FF9581" stop-opacity="0.239"/>
<stop offset="0.629" stop-color="#FF9581" stop-opacity="0.376"/>
<stop offset="0.749" stop-color="#FF9581" stop-opacity="0.545"/>
<stop offset="0.868" stop-color="#FF9581" stop-opacity="0.741"/>
<stop offset="0.983" stop-color="#FF9581" stop-opacity="0.965"/>
<stop offset="1" stop-color="#FF9581"/>
</linearGradient>
</defs>
</svg>
