<svg xmlns="http://www.w3.org/2000/svg" width="21" height="25" viewBox="0 0 21 25"><defs><style>.a{fill:#d5d4e0;}</style></defs><g transform="translate(-32 -27.567)"><path class="a" d="M65.364,90l.86-2H49.4c-.2,0-.381.346-.381.957S49.2,90,49.4,90Z" transform="translate(-14.927 -60.429)"/><path class="a" d="M44.589,136H34.318l-2.277,7.891a1.538,1.538,0,0,0-.041.354V158H48.116V144.245a2.559,2.559,0,0,1,.073-.606l.006-.021L50.183,136Zm-4.775,10h0a.508.508,0,0,1-.051.224l-.917,1.877.4,5.791a1.521,1.521,0,0,1-.389,1.129,1.45,1.45,0,0,1-1.072.478h-.832a1.45,1.45,0,0,1-1.072-.478,1.521,1.521,0,0,1-.389-1.129l.4-5.791-.917-1.877a.508.508,0,0,1-.051-.224h0v-2a.489.489,0,1,1,.977,0v1.5h.977V144a.489.489,0,1,1,.977,0v1.5h.977V144a.489.489,0,1,1,.977,0Zm4.4,9a1.453,1.453,0,0,1-1.087.494h-.771A1.45,1.45,0,0,1,41.272,155a1.522,1.522,0,0,1-.372-1.156l.378-3.875v-.166l-.707-.362a.5.5,0,0,1-.269-.485c.016-.223.435-5.461,3.417-5.461a.494.494,0,0,1,.488.5v5.974l.378,3.875A1.525,1.525,0,0,1,44.216,155Z" transform="translate(0 -105.429)"/><path class="a" d="M106.606,336h-1.044l-.382,5.463a.507.507,0,0,0,.13.376.483.483,0,0,0,.357.159h.832a.483.483,0,0,0,.357-.159.507.507,0,0,0,.13-.376Z" transform="translate(-68.712 -292.931)"/><path class="a" d="M185.492,278.366h.977v-4.908a3.057,3.057,0,0,0-1.47,2.053,11.192,11.192,0,0,0-.45,2.063l.673.345A.5.5,0,0,1,185.492,278.366Z" transform="translate(-143.236 -234.297)"/><path class="a" d="M101.432,305h1.35l.488-1h-2.327Z" transform="translate(-64.735 -262.931)"/><path class="a" d="M195.088,368h-1.07l-.337,3.449a.507.507,0,0,0,.124.385.483.483,0,0,0,.362.165h.772a.483.483,0,0,0,.362-.165.508.508,0,0,0,.124-.385Z" transform="translate(-151.809 -322.931)"/><path class="a" d="M312.041,162.917a1.537,1.537,0,0,0-.041.354l.036,13.751h3.871V163.313a1.53,1.53,0,0,0-.06-.423l-1.895-6.595Z" transform="translate(-262.907 -124.455)"/></g></svg>