<svg xmlns="http://www.w3.org/2000/svg" width="22" height="24" viewBox="0 0 22 24"><defs><style>.a{fill:#d5d4e0;}</style></defs><g transform="translate(-30)"><g transform="translate(35.2)"><path class="a" d="M127,0a6,6,0,1,0,6,6A6.007,6.007,0,0,0,127,0Z" transform="translate(-121.2)"/></g><g transform="translate(30 14)"><path class="a" d="M50.212,302.745A9.581,9.581,0,0,0,43.467,300H40.533a9.581,9.581,0,0,0-6.745,2.745A9.116,9.116,0,0,0,31,309.293a.721.721,0,0,0,.733.708H52.267a.721.721,0,0,0,.733-.708A9.116,9.116,0,0,0,50.212,302.745Z" transform="translate(-31 -300)"/></g></g></svg>