<svg xmlns="http://www.w3.org/2000/svg" width="184" height="179" viewBox="0 0 184 179"><defs><style>.a{fill:#f6f6f9;}.b{fill:#e9e9f7;}.c{fill:#455a64;}.d{fill:#263238;}.e{fill:#23cbd8;}.f{opacity:0.1;}.g{fill:#222;}.h{fill:#494949;}.i{fill:#343434;}.j{fill:#f55a00;}.k{fill:#fff;}</style></defs><g transform="translate(-95 -112)"><path class="a" d="M258.233,250.679c-1.651,9.26-5.83,16.776-12.615,21.76-1.157.855-2.236,1.631-3.269,2.363-9.4,6.548-15.2,8.157-45.227,12.545-33.319,4.883-42.688,22.885-74.333,17.259s-42.115-37.872-24.579-74.6c13.211-27.633,5.044-49.685,20.659-72.424,13.705-19.971,33.094-21.524,45.822-22.874,37.251-3.972,62.65,23.808,80.647,58.315C256.615,214.663,261.008,235.129,258.233,250.679Z" transform="translate(19.959 -15.683)"/><path class="a" d="M103.113,210.714c-3.564,12.38-10.506,19.133-17.351,17.632-5.188-1.138-14.669-6.81-4.727-28.007S89.561,167.01,94.28,163.3c3.84-3.017,10.449,1.849,11.834,14.775C107.338,189.495,104.785,204.908,103.113,210.714Z" transform="translate(18.32 -12.174)"/><path class="a" d="M194.645,274.316a150.1,150.1,0,0,0,19.784-2.9c6.34-1.389,11.3-3.672,15.371-5.242,12.123-4.676,21.167,9.914,4.474,17.359-15.784,7.039-39.8,1.172-45.691-3.331S194.645,274.316,194.645,274.316Z" transform="translate(31.84 0.694)"/><circle class="b" cx="9.941" cy="9.941" r="9.941" transform="translate(254.297 137.337)"/><circle class="b" cx="6.762" cy="6.762" r="6.762" transform="translate(224.913 150.695)"/><path class="b" d="M190.648,131.749a3.324,3.324,0,1,1-3.325-3.325A3.324,3.324,0,0,1,190.648,131.749Z" transform="translate(31.569 -16.424)"/><circle class="b" cx="3.324" cy="3.324" r="3.324" transform="translate(100.798 223.425)"/><circle class="b" cx="6.829" cy="6.829" r="6.829" transform="translate(197.809 277.342)"/><g transform="translate(149.91 131.892)"><g transform="translate(0 0)"><g transform="translate(12.438)"><path class="c" d="M388.181,179.893v34.342h-9.7V179.893c0-13.059-9.919-23.679-22.121-23.679s-22.121,10.619-22.121,23.679v34.342h-9.7V179.893c0-18.7,14.276-33.913,31.826-33.913S388.181,161.19,388.181,179.893Z" transform="translate(-324.53 -145.98)"/><path class="d" d="M324.53,213.92l9.7.391v25.022h-9.7Z" transform="translate(-324.53 -171.078)"/><path class="d" d="M419.785,217.8v22.821h-9.7V217.4Z" transform="translate(-356.133 -172.363)"/></g><rect class="e" width="88.528" height="80.315" transform="translate(0 48.7)"/><rect class="f" width="44.264" height="80.315" transform="translate(44.264 48.7)"/><path class="d" d="M373.9,283.057l3.706,17.58H361.874l3.706-17.58a7.864,7.864,0,1,1,8.316,0Z" transform="translate(-325.887 -191.259)"/></g></g><g transform="translate(118.226 153.611)"><g transform="translate(0 0)"><path class="g" d="M297.1,279.425s-4.628,37.054-12.235,45.392c-9.132,10-15.758,8.54-19.445,13.7a.007.007,0,0,0-.008.008c-3.687-5.164-10.314-3.695-19.452-13.7-7.607-8.338-12.227-45.392-12.227-45.392,20.044-9.731,31.679-20.635,31.679-20.635l.008.008C265.779,259.132,277.368,269.85,297.1,279.425Z" transform="translate(-233.734 -258.79)"/><path class="g" d="M265.421,258.8v79.716a.007.007,0,0,0-.008.008c-3.687-5.164-10.314-3.695-19.452-13.7-7.607-8.338-12.227-45.392-12.227-45.392,20.044-9.731,31.679-20.635,31.679-20.635Z" transform="translate(-233.734 -258.79)"/><g transform="translate(4.916 6.187)"><path class="h" d="M295.064,286.034s-3.909,31.3-10.334,38.348c-7.72,8.462-13.322,7.218-16.437,11.577-3.115-4.359-8.717-3.115-16.437-11.577-6.425-7.047-10.327-38.348-10.327-38.348,16.931-8.222,26.763-17.433,26.763-17.433S278.133,277.811,295.064,286.034Z" transform="translate(-241.53 -268.601)"/><path class="i" d="M241.543,286.041s3.909,31.3,10.335,38.347c7.713,8.455,13.309,7.22,16.427,11.566V268.615C268.006,268.9,258.212,277.945,241.543,286.041Z" transform="translate(-241.535 -268.606)"/></g><g transform="translate(14.13 22.312)"><circle class="j" cx="12.412" cy="12.412" r="12.412" transform="translate(0 17.553) rotate(-45)"/><path class="k" d="M278.5,326.227l-5.528-5.749,2.051-1.972,3.047,3.169,6.569-10.078,2.384,1.554Z" transform="translate(-262.357 -300.61)"/></g></g></g></g></svg>