<svg xmlns="http://www.w3.org/2000/svg" width="71" height="57" viewBox="0 0 71 57"><defs><style>.a{fill:#f6f6f9;}.b{fill:#e9a65f;}.c{fill:#122052;}.d{fill:#222;}.e{fill:#ebebfb;}.f{fill:#fff;}.g{fill:#5b6bc8;}.h{fill:#575960;}.i{fill:#eaad91;}.j{fill:#565656;}.k{fill:#3a3a3a;}.l{fill:#23cbd8;}.m{fill:#e2806d;}.n{fill:#20b8c4;}.o{fill:#aaa8bf;}.p{fill:#f55a00;}.q{fill:#bd493f;}.r{fill:#33062b;}</style></defs><g transform="translate(-23.424 -127.344)"><g transform="translate(23.424 127.344)"><g transform="translate(0 0)"><path class="a" d="M563.383,189.906c13.122,2.616,24.621-.351,30.952-5.61a18.661,18.661,0,0,0,6.214-9.35c3.517-14.025-6.848-25.638-14.889-21.272-13.131,7.13-15.086,2.063-25.793-8.765-8.09-8.181-33.766,3.273-20.4,27.349A35.386,35.386,0,0,0,563.383,189.906Z" transform="translate(-535.679 -138.863)"/><g transform="translate(0.834 2.032)"><g transform="translate(2.277 0)"><g transform="translate(1.939 1.975)"><rect class="b" width="3.185" height="3.504" transform="translate(0 1.339) rotate(-24.861)"/></g><g transform="translate(0)"><path class="c" d="M2.123,0h1.96A1.974,1.974,0,0,1,6.057,1.974v0a.149.149,0,0,1-.149.149H0a0,0,0,0,1,0,0v0A2.123,2.123,0,0,1,2.123,0Z" transform="translate(0 2.547) rotate(-24.861)"/></g></g><g transform="translate(0 3.257)"><path class="d" d="M558.678,152.9a11.075,11.075,0,1,1-14.705-5.393A11.075,11.075,0,0,1,558.678,152.9Z" transform="translate(-537.552 -146.481)"/></g><g transform="translate(1.882 5.113)"><path class="e" d="M559.272,155.965c.057.123.111.247.163.372a9.161,9.161,0,0,1-4.628,11.8,9.28,9.28,0,0,1-1.328.5,9.079,9.079,0,0,1-2.214.35q-.21.007-.42,0a9.143,9.143,0,0,1-3.051-.562q-.239-.088-.472-.188a9.116,9.116,0,0,1-4.513-4.2c-.061-.119-.121-.24-.178-.362A9.162,9.162,0,0,1,547.1,151.5a9.231,9.231,0,0,1,1.745-.606,9.144,9.144,0,0,1,4.786.155q.243.074.482.162a9.136,9.136,0,0,1,2.691,1.543c.108.089.214.18.318.275a9.056,9.056,0,0,1,1.462,1.7A9.205,9.205,0,0,1,559.272,155.965Z" transform="translate(-541.779 -150.648)"/><g transform="translate(0.341 0.735)"><path class="f" d="M559.859,157.253a9.161,9.161,0,0,1-4.628,11.8,9.277,9.277,0,0,1-1.328.5,9.078,9.078,0,0,1-2.213.35q-.21.007-.42,0a9.143,9.143,0,0,1-3.051-.562q-.239-.088-.472-.188a8.814,8.814,0,0,1,.115-16.007,9.233,9.233,0,0,1,1.745-.606,9.145,9.145,0,0,1,4.786.155q.242.074.482.162a9.138,9.138,0,0,1,2.691,1.543q.162.134.318.275a9.107,9.107,0,0,1,1.976,2.572Z" transform="translate(-542.544 -152.299)"/></g><g transform="translate(2.143 2.1)"><g transform="translate(3.796 0.274)"><path class="c" d="M555.934,157.557h0a.154.154,0,0,1-.2-.075l-.593-1.281a.155.155,0,0,1,.075-.205h0a.154.154,0,0,1,.2.075l.593,1.281A.154.154,0,0,1,555.934,157.557Z" transform="translate(-555.122 -155.981)"/><g transform="translate(5.564 12.007)"><path class="c" d="M568.432,184.527h0a.154.154,0,0,1-.2-.075l-.593-1.281a.154.154,0,0,1,.075-.205h0a.154.154,0,0,1,.2.075l.594,1.281A.154.154,0,0,1,568.432,184.527Z" transform="translate(-567.619 -182.952)"/></g></g><g transform="translate(0.231 3.84)"><g transform="translate(0 5.564)"><path class="c" d="M548.688,176.577h0a.154.154,0,0,1-.075.205l-1.281.593a.154.154,0,0,1-.2-.075h0a.154.154,0,0,1,.075-.2l1.281-.593A.154.154,0,0,1,548.688,176.577Z" transform="translate(-547.113 -176.488)"/></g><g transform="translate(12.007)"><path class="c" d="M575.659,164.079h0a.154.154,0,0,1-.075.2l-1.281.594a.155.155,0,0,1-.2-.075h0a.154.154,0,0,1,.075-.205l1.281-.593A.154.154,0,0,1,575.659,164.079Z" transform="translate(-574.084 -163.99)"/></g></g><g transform="translate(4.354 0)"><g transform="translate(4.512)"><g transform="translate(0)"><rect class="c" width="1.72" height="0.309" transform="matrix(0.344, -0.939, 0.939, 0.344, 0, 1.615)"/></g></g><g transform="translate(0 12.468)"><path class="c" d="M556.475,185h0a.154.154,0,0,1-.092-.2l.486-1.325a.155.155,0,0,1,.2-.092h0a.155.155,0,0,1,.092.2l-.486,1.325A.154.154,0,0,1,556.475,185Z" transform="translate(-556.374 -183.371)"/></g></g><g transform="translate(0 4.397)"><path class="c" d="M548.218,165.936h0a.154.154,0,0,1-.2.092l-1.325-.486a.155.155,0,0,1-.092-.2h0a.155.155,0,0,1,.2-.092l1.325.486A.154.154,0,0,1,548.218,165.936Z" transform="translate(-546.594 -165.242)"/><g transform="translate(12.425 4.556)"><path class="c" d="M576.127,176.17h0a.155.155,0,0,1-.2.092l-1.325-.486a.154.154,0,0,1-.092-.2h0a.154.154,0,0,1,.2-.092l1.325.486A.155.155,0,0,1,576.127,176.17Z" transform="translate(-574.503 -175.477)"/></g></g><g transform="translate(7.796 6.687)"><path class="g" d="M567.118,170.649l-3,.176-.016-.264,3-.177a.133.133,0,0,1,.14.125h0A.133.133,0,0,1,567.118,170.649Z" transform="translate(-564.105 -170.385)"/></g><g transform="translate(2.772 3.552)"><path class="c" d="M557.253,166.929l-4.245,1.967a.132.132,0,0,1-.175-.064h0a.132.132,0,0,1,.064-.176L556.9,166.8l-1.514-3.268a.133.133,0,0,1,.065-.176h0a.132.132,0,0,1,.175.065Z" transform="translate(-552.82 -163.343)"/></g><g transform="translate(6.166 6.209)"><path class="c" d="M562.091,169.813a.863.863,0,1,1-1.147-.42A.864.864,0,0,1,562.091,169.813Z" transform="translate(-560.444 -169.312)"/></g><g transform="translate(6.526 6.57)"><path class="h" d="M561.968,171.082a.5.5,0,1,1,.245-.668A.5.5,0,0,1,561.968,171.082Z" transform="translate(-561.253 -170.122)"/></g></g></g></g><g transform="translate(14.67 0)"><g transform="translate(21.54 18.662)"><path class="i" d="M620.378,176.688h0a3.361,3.361,0,0,0-3.239,4.252l.137.5.134.461c.093.3.187.6.285.905.2.6.409,1.191.63,1.783s.467,1.178.721,1.766.534,1.171.83,1.756.617,1.169.972,1.752a20.8,20.8,0,0,0,1.184,1.753,13.877,13.877,0,0,0,1.572,1.741l.007.005a9.73,9.73,0,0,0,1.039.839c.2.137.4.271.627.4l.082.048c.027.016.067.036.1.053l.209.1c.139.071.283.128.426.187a6.613,6.613,0,0,0,1.715.419,7.507,7.507,0,0,0,1.557,0,9.638,9.638,0,0,0,2.514-.622,14.87,14.87,0,0,0,2-.958,19.515,19.515,0,0,0,1.726-1.1,30.084,30.084,0,0,0,3-2.449c.463-.433.917-.868,1.355-1.321.219-.226.436-.453.651-.686l.321-.355.336-.382a2.628,2.628,0,0,0-3.629-3.777l-.119.1-.29.237-.318.254c-.213.171-.429.341-.646.508-.435.334-.873.666-1.317.981a30.46,30.46,0,0,1-2.67,1.73c-.444.252-.888.477-1.316.675a8.445,8.445,0,0,1-1.222.461,3.448,3.448,0,0,1-.914.155.584.584,0,0,1-.2-.029c-.029-.013-.016-.024.016-.022.009,0,.015,0,.026,0a.046.046,0,0,1,.013,0h0Z" transform="translate(-617.017 -176.688)"/><path class="i" d="M635.219,189.526h0l-.012-.009c-.03-.021-.069-.048-.113-.083a3.591,3.591,0,0,1-.309-.28,7.433,7.433,0,0,1-.746-.908,13.856,13.856,0,0,1-.762-1.184c-.247-.426-.485-.877-.721-1.34s-.455-.944-.674-1.432-.43-.985-.631-1.489c-.149-.361-.292-.726-.431-1.092l-.161-.43c-.1-.255-.191-.511-.281-.765l-.136-.378-.12-.345-.048-.138a3.347,3.347,0,0,0-1.291-1.669Z" transform="translate(-623.544 -177.405)"/><path class="i" d="M675.3,188.622s2.5-.919,3.923-.459a1.552,1.552,0,0,1,1.157,1.762S675.712,189.791,675.3,188.622Z" transform="translate(-649.35 -182.983)"/><g transform="translate(19.048 5.853)"><g transform="translate(0 1.081)"><path class="d" d="M675.544,204.153a83.019,83.019,0,0,1-15.741.153c.09-.282.2-.677.329-1.153.035-.132.072-.27.109-.414.6-2.285,1.454-5.98,2.01-8.413.19-.834.345-1.52.442-1.949l9.725-.113.155.628c.529,2.146,1.722,6.932,2.5,9.684.04.143.079.28.117.411C675.326,203.469,675.447,203.869,675.544,204.153Z" transform="translate(-659.803 -192.264)"/></g><g transform="translate(1.377 2.517)"><g transform="translate(0 0)"><rect class="j" width="9.311" height="0.158" transform="translate(0 9.105) rotate(-77.923)"/></g></g><g transform="translate(11.977 1.644)"><g transform="translate(0 0)"><rect class="j" width="0.159" height="10.117" transform="translate(0 0.036) rotate(-13.177)"/></g></g><g transform="translate(5.1 4.388)"><path class="j" d="M676.44,202.259a2.591,2.591,0,1,1-2.616-2.566A2.591,2.591,0,0,1,676.44,202.259Z" transform="translate(-671.259 -199.694)"/></g><g transform="translate(0.329 11.392)"><path class="j" d="M675.6,215.837a69.465,69.465,0,0,1-7.47.46c-3.363.033-6.1-.158-7.585-.294.035-.132.072-.27.109-.414a75.355,75.355,0,0,0,14.829-.163C675.52,215.569,675.559,215.706,675.6,215.837Z" transform="translate(-660.542 -215.426)"/></g><g transform="translate(2.448 1.081)"><path class="k" d="M675.624,192.892,665.3,194.326c.19-.834.345-1.52.442-1.949l9.725-.113Z" transform="translate(-665.301 -192.264)"/></g><g transform="translate(1.987 0)"><g transform="translate(0)"><path class="j" d="M.728,0H10.788a.728.728,0,0,1,.728.728v0a.728.728,0,0,1-.728.728H.727A.727.727,0,0,1,0,.728v0A.728.728,0,0,1,.728,0Z" transform="matrix(1, -0.01, 0.01, 1, 0, 0.112)"/></g></g></g><path class="i" d="M667.617,188.522a5.171,5.171,0,0,1,2.5-1.23,3.641,3.641,0,0,1,2.7,2.031c.334.89-1.892-.25-1.892-.25l-1.948-.6Z" transform="translate(-645.09 -182.571)"/><g transform="translate(3.43 2.094)"><path class="l" d="M628.327,181.412s1.2,2.534,1.815,3.792a32.32,32.32,0,0,0,1.855,3.09l-4.632,7.633a10.267,10.267,0,0,1-2.58-5.994C624.732,186.649,624.1,181.018,628.327,181.412Z" transform="translate(-624.721 -181.393)"/></g><g transform="translate(9.969 12.062)"><g transform="translate(0.254)"><path class="m" d="M640.143,206.444a.159.159,0,0,1-.035,0,.162.162,0,0,1-.124-.194,5.2,5.2,0,0,1,1.22-2.416.163.163,0,0,1,.23.229,4.971,4.971,0,0,0-1.133,2.257A.163.163,0,0,1,640.143,206.444Z" transform="translate(-639.981 -203.783)"/></g><g transform="translate(0 0)"><path class="m" d="M639.573,204.467a.162.162,0,0,1-.04-.32l1.43-.359a.163.163,0,0,1,.079.316l-1.43.359A.155.155,0,0,1,639.573,204.467Z" transform="translate(-639.41 -203.783)"/></g></g></g><g transform="translate(5.497)"><g transform="translate(0 16.69)"><path class="l" d="M585.854,174.16a3.968,3.968,0,0,1,.876-.242c.236-.037.461-.08.678-.127h0a10.5,10.5,0,0,0,2.25-.752c.088-.041.171-.082.252-.123a8.262,8.262,0,0,0,1.339-.825l5.673.193a4.7,4.7,0,0,0,2.086,1.34c.076.036.153.071.231.105.145.062.292.119.438.172.543.2,1.1.34,1.628.492,1.412.4,2.645.875,2.987,2.583.318,1.583-.9,4.842-.773,11.448.009.485.026.987.051,1.508q.035.731.093,1.514c.007.1.015.2.023.3q.045.585.108,1.2.067.676.153,1.387c.059.487.126.985.2,1.5.394,2.746.64,4.812,1.085,8.463.22,1.789,1.091,5.854.828,6.06-1.705,3.795-12.875,1.162-21.242,1.1a5.243,5.243,0,0,1-.13-.674c-.7-1.893-1.614-7.485-2.208-11.012-.146-.862-.216-1.627-.266-2.12s-.073-1.063-.106-1.564a64.951,64.951,0,0,1-.266-7.4c.006-.138.013-.276.02-.415.1-2.091-.637-4.978-.792-7.394C581.069,180.869,579.916,176.211,585.854,174.16Z" transform="translate(-580.979 -172.09)"/></g><g transform="translate(22.182 25.133)"><path class="n" d="M631.125,200.552h0a.16.16,0,0,0,.157-.162l-.16-9a.16.16,0,0,0-.159-.157h0a.16.16,0,0,0-.157.163l.16,9A.16.16,0,0,0,631.125,200.552Z" transform="translate(-630.806 -191.235)"/><g transform="translate(0.084 1.272)"><path class="n" d="M631.155,195.883a.159.159,0,0,0,.148-.1l.6-1.472a.16.16,0,0,0-.3-.12l-.6,1.473a.16.16,0,0,0,.088.208A.158.158,0,0,0,631.155,195.883Z" transform="translate(-630.995 -194.091)"/></g></g><g transform="translate(2.029 30.488)"><path class="n" d="M588.678,228.877a.156.156,0,0,0,.055-.01.16.16,0,0,0,.1-.2,55.9,55.9,0,0,1-2.938-16.869,63.91,63.91,0,0,1,.233-8.192.16.16,0,1,0-.317-.036,64.3,64.3,0,0,0-.235,8.232,56.232,56.232,0,0,0,2.958,16.975A.16.16,0,0,0,588.678,228.877Z" transform="translate(-585.537 -203.424)"/></g><g transform="translate(5.788 43.309)"><path class="n" d="M606.29,238.152a19.185,19.185,0,0,0,4.081-.452.16.16,0,0,0-.068-.312,16.385,16.385,0,0,1-12.017-1.677,14.14,14.14,0,0,1-4.016-3.422.16.16,0,0,0-.259.187,14.177,14.177,0,0,0,4.1,3.5A16.042,16.042,0,0,0,606.29,238.152Z" transform="translate(-593.981 -232.224)"/></g><g transform="translate(11.426 42.594)"><path class="n" d="M612.375,234.479a6.235,6.235,0,0,0,1.1-.1.16.16,0,0,0-.056-.314c-4.292.768-6.454-3.385-6.475-3.427a.16.16,0,0,0-.285.144,7.9,7.9,0,0,0,1.687,2.1A6.041,6.041,0,0,0,612.375,234.479Z" transform="translate(-606.644 -230.55)"/></g><g transform="translate(8.978 18.045)"><path class="n" d="M607.012,179.067a4.326,4.326,0,0,0,2.673-.953.16.16,0,0,0-.194-.254,3.964,3.964,0,0,1-3.034.849c-2.724-.374-5-3.367-5.024-3.4a.16.16,0,1,0-.255.191c.1.128,2.377,3.129,5.235,3.522A4.352,4.352,0,0,0,607.012,179.067Z" transform="translate(-601.145 -175.248)"/></g><g transform="translate(7.459)"><g transform="translate(7.332 2.973)"><path class="d" d="M617.441,141.512a2.914,2.914,0,0,1,.792,1.8,3.748,3.748,0,0,1,.385,1.9,11.778,11.778,0,0,1-.579,2.026s-.742-4.173-1.7-4.384a8.939,8.939,0,0,1-2.136-.919S614.708,140.8,617.441,141.512Z" transform="translate(-614.205 -141.277)"/></g><g transform="translate(0.376 4.55)"><path class="d" d="M598.691,147.005s-.329,1.025.136,1.529-.039,1.334.582,1.817a2.047,2.047,0,0,0,1.619.183s.261-5.223.729-5.714A4,4,0,0,0,598.691,147.005Z" transform="translate(-598.578 -144.82)"/></g><g transform="translate(2.539 12.336)"><path class="i" d="M609.4,166.019v1.5a4.625,4.625,0,0,1-.532.373c-2.611,1.568-5.428-.373-5.428-.373v-5.214l5.25,3.268Z" transform="translate(-603.439 -162.309)"/><g transform="translate(1.587 2.374)"><path class="c" d="M611.377,168.934v1.547a4.625,4.625,0,0,1-.532.373A10.02,10.02,0,0,1,607,167.641l3.663.894Z" transform="translate(-607.003 -167.641)"/></g></g><g transform="translate(10.379 8.934)"><path class="m" d="M621.049,155.115s.854-1.009,1.337,0,.112,3.051-1.188,2.717Z" transform="translate(-621.049 -154.666)"/></g><g transform="translate(2.206 3.481)"><path class="i" d="M611.774,151.858a3.072,3.072,0,0,1-3.229,3.1,8.017,8.017,0,0,1-5.518-2.647l0,0-.035-.653-.182-3.391-.1-1.813s-.411-3.264,2.691-3.859c2.267-.435,4.392-.059,5.464,1.123.034.038.068.077.1.118a2.789,2.789,0,0,1,.61,1.52l.1,3.256.024.8Z" transform="translate(-602.69 -142.418)"/></g><g transform="translate(4.889 9.663)"><path class="m" d="M610.8,156.715c0,.226-.466.41-1.041.41s-1.041-.183-1.041-.41.467-.41,1.041-.41S610.8,156.489,610.8,156.715Z" transform="translate(-608.717 -156.305)"/></g><g transform="translate(9.922 9.663)"><path class="m" d="M621.315,157.113c-.081.008-.165.012-.251.012-.574,0-1.041-.184-1.041-.41s.466-.41,1.041-.41c.078,0,.154,0,.227.01Z" transform="translate(-620.023 -156.305)"/></g><g transform="translate(2.719 9.095)"><path class="d" d="M604.766,155.028s.96,1.966,1.977,1.61a4.675,4.675,0,0,1,3.2,0s1.51-1,2.477-.4c.649.405.485,4.719-1.7,5.439s-5.207.077-6.022-1.98a12.2,12.2,0,0,1-.849-3.837Z" transform="translate(-603.842 -155.028)"/></g><g transform="translate(6.751 11.702)"><path class="o" d="M615.151,159.988a3.442,3.442,0,0,1-2.212-.93.133.133,0,1,1,.186-.191c.066.064,1.64,1.565,3.056.454a.133.133,0,1,1,.165.21A2.049,2.049,0,0,1,615.151,159.988Z" transform="translate(-612.899 -158.829)"/></g><g transform="translate(5.232 6.516)"><path class="d" d="M609.488,149.946h0a.731.731,0,0,0,.955.371,4.05,4.05,0,0,1,.732-.24.672.672,0,0,0,.508-.833h0A2.867,2.867,0,0,0,609.488,149.946Z" transform="translate(-609.488 -149.235)"/></g><g transform="translate(8.861 6.516)"><path class="d" d="M619.858,149.946h0a.731.731,0,0,1-.955.371,4.071,4.071,0,0,0-.732-.24.672.672,0,0,1-.508-.833h0A2.867,2.867,0,0,1,619.858,149.946Z" transform="translate(-617.638 -149.235)"/></g><g transform="translate(2.206 3.481)"><path class="d" d="M610.963,143.834c-.508-.179-.874-.012-1.664.335a4.211,4.211,0,0,1-3.549-.527c-1.129-.577-1.807.226-1.422.753s.342.954-.084,1.626.807.984.125,1.511a.7.7,0,0,0-.154.863.465.465,0,0,1-.523.616h0c-.368-.093-.886-.745-.886-.745l-.1-1.813s-.411-3.264,2.691-3.859c2.267-.435,4.392-.059,5.464,1.123C610.9,143.755,610.931,143.794,610.963,143.834Z" transform="translate(-602.69 -142.418)"/></g><g transform="translate(6.284 8.264)"><path class="d" d="M612.48,153.726c0,.311-.141.563-.315.563s-.315-.252-.315-.563.141-.563.315-.563S612.48,153.415,612.48,153.726Z" transform="translate(-611.85 -153.163)"/></g><g transform="translate(9.408 8.264)"><path class="d" d="M619.5,153.726c0,.311-.141.563-.315.563s-.315-.252-.315-.563.141-.563.315-.563S619.5,153.415,619.5,153.726Z" transform="translate(-618.867 -153.163)"/></g><g transform="translate(2.505 12.114)"><path class="c" d="M604.411,161.811a2.827,2.827,0,0,1-1.012,1.261l0,0-.035-.653A2.232,2.232,0,0,0,604.411,161.811Z" transform="translate(-603.361 -161.811)"/></g><g transform="translate(0.625 9.094)"><path class="i" d="M601.5,155.888s-1.243-1.67-2.153-.358c-.751,1.081.668,3.9,2.153,2.934Z" transform="translate(-599.138 -155.027)"/></g><g transform="translate(1.367 9.945)"><path class="c" d="M602.254,159.021a.128.128,0,0,1-.127-.114,2.136,2.136,0,0,0-1.242-1.722.128.128,0,0,1,.095-.238,2.392,2.392,0,0,1,1.4,1.932.128.128,0,0,1-.114.141Z" transform="translate(-600.805 -156.938)"/></g><g transform="translate(1.494 10.704)"><path class="c" d="M601.219,159.192a.128.128,0,0,1-.081-.227,1.23,1.23,0,0,1,.894-.3.128.128,0,1,1-.064.248c-.221-.057-.558.165-.669.256A.13.13,0,0,1,601.219,159.192Z" transform="translate(-601.091 -158.644)"/></g><g transform="translate(8.161 7.475)"><path class="d" d="M616.338,154.307a.128.128,0,1,1,0-.256.879.879,0,0,0,.763-.356c-.51-1.052-1.017-2.112-1.023-2.123a.128.128,0,0,1,.231-.11c.005.011.532,1.112,1.052,2.183a.13.13,0,0,1,0,.11A1.093,1.093,0,0,1,616.338,154.307Z" transform="translate(-616.066 -151.39)"/></g><g transform="translate(0 0.892)"><path class="p" d="M598.123,143.353l1.574-1.414.2-.183.445-.4a16.964,16.964,0,0,1,7.2-1.673,4.7,4.7,0,0,0-4.736-3.078,5.512,5.512,0,0,0-3.3,1.027,4.374,4.374,0,0,0-1.7,2.793A4.8,4.8,0,0,0,598.123,143.353Z" transform="translate(-597.735 -136.604)"/></g><g transform="translate(1.113 1.92)"><path class="q" d="M601.083,143.22l.2-.183a3.16,3.16,0,0,1-.737-2.784,6.4,6.4,0,0,1,.353-1.34,4.3,4.3,0,0,0-.4.334,6.457,6.457,0,0,0-.218.963A3.488,3.488,0,0,0,601.083,143.22Z" transform="translate(-600.235 -138.913)"/></g><g transform="translate(3.575 1.482)"><path class="q" d="M609.02,138.02a4.627,4.627,0,0,0-3.254.549l.356,1.034a11.327,11.327,0,0,1,3.041-.737Z" transform="translate(-605.766 -137.929)"/></g><g transform="translate(2.734)"><path class="q" d="M612.5,139.6s4.34-2.7,2.061-4.445-7.569.781-10.687,5.019C603.877,140.178,609.861,137.362,612.5,139.6Z" transform="translate(-603.877 -134.6)"/></g></g></g><g transform="translate(0 19.426)"><g transform="translate(0 0.606)"><path class="i" d="M588.462,199.2l-.267.181-.247.163-.49.315q-.49.31-.983.606-.987.594-2.007,1.142a34.251,34.251,0,0,1-4.318,1.983,20.332,20.332,0,0,1-2.438.743,12.658,12.658,0,0,1-2.847.353,8.6,8.6,0,0,1-1.684-.157,7.1,7.1,0,0,1-1.855-.631,6.662,6.662,0,0,1-.914-.568c-.146-.107-.288-.224-.425-.344-.069-.06-.135-.123-.2-.186l-.031-.03c-.038-.038-.075-.076-.11-.117a3.167,3.167,0,0,1-.2-.243,3.7,3.7,0,0,1-.3-.457c-.039-.071-.08-.15-.112-.217s-.059-.129-.085-.195l-.039-.1-.031-.085c-.021-.057-.039-.114-.057-.172-.033-.11-.055-.2-.08-.3s-.034-.174-.048-.262a5.049,5.049,0,0,1-.058-.782c0-.214.012-.4.026-.56s.034-.315.053-.457a13.33,13.33,0,0,1,.3-1.429c.112-.424.232-.82.355-1.206.248-.768.51-1.494.781-2.208.384-1.008.785-1.99,1.2-2.958q.2-.466.4-.929l.115-.265c.592-1.356,1.2-2.693,1.822-4.023q.464-1,.939-1.991l.477-.992.491-1a3.582,3.582,0,0,1,6.435,3.149c-.02.042-.04.081-.063.122l-.025.046-.5.921-.5.938q-.5.938-.986,1.884-.851,1.649-1.659,3.308l-.234.483c-.2.419-.4.84-.6,1.26-.4.845-.776,1.689-1.131,2.526-.264.625-.515,1.247-.732,1.844l-.01.03a7.811,7.811,0,0,0,.8-.114,14.226,14.226,0,0,0,1.715-.456,28.072,28.072,0,0,0,3.6-1.5c.6-.3,1.2-.613,1.784-.941.294-.164.587-.332.874-.5l.428-.258.394-.243.084-.053a2.944,2.944,0,0,1,3.2,4.942Z" transform="translate(-568.632 -179.807)"/></g><g transform="translate(2.715 10.887)"><path class="m" d="M581.677,205l-.234.483c-.2.419-.4.84-.6,1.26l-6.115-2.908q.2-.466.4-.929Z" transform="translate(-574.731 -202.902)"/></g><g transform="translate(16.791 10.134)"><path class="i" d="M613.536,208.075a5.64,5.64,0,0,1-3.455,1.861,3.6,3.6,0,0,1-3.334-2.455,2.7,2.7,0,0,1-.164-1.649c.4-1.6-.776-4.062.1-4.584.67-.4,1.647,2.479,1.647,2.479s2.392-2.3,2.928-2.36.972.7.814,1.292a1.3,1.3,0,0,1,.918,1.625,1.546,1.546,0,0,1,.809,1.593s.476.153.476.967C614.271,207.182,613.536,208.075,613.536,208.075Z" transform="translate(-606.349 -201.21)"/></g><g transform="translate(4.196 18.707)"><g transform="translate(0 0.344)"><path class="m" d="M578.22,222.59a.162.162,0,0,1-.086-.3,12.132,12.132,0,0,1,2.495-1.043.163.163,0,0,1,.091.312,12.033,12.033,0,0,0-2.413,1.006A.16.16,0,0,1,578.22,222.59Z" transform="translate(-578.057 -221.24)"/></g><g transform="translate(0.433)"><path class="m" d="M581.048,221.136a.159.159,0,0,1-.088-.026,3.391,3.391,0,0,0-1.753-.307.162.162,0,0,1-.029-.324,3.645,3.645,0,0,1,1.957.358.162.162,0,0,1-.088.3Z" transform="translate(-579.031 -220.467)"/></g></g><g transform="translate(15.068 15.045)"><g transform="translate(0.361)"><path class="r" d="M603.288,213.08a13.044,13.044,0,0,0,3.117,4.912,1.9,1.9,0,0,0,1.257-.715,12.541,12.541,0,0,1-3.2-5.037A1.781,1.781,0,0,0,603.288,213.08Z" transform="translate(-603.288 -212.24)"/></g><g transform="translate(0 0.81)"><path class="r" d="M605.826,214.836a1.835,1.835,0,1,1-2.475-.475A1.784,1.784,0,0,1,605.826,214.836Z" transform="translate(-602.478 -214.06)"/></g><g transform="translate(0.506 1.304)"><path class="f" d="M605.581,217.487a1.248,1.248,0,1,1,.442-1.759A1.285,1.285,0,0,1,605.581,217.487Z" transform="translate(-603.614 -215.17)"/></g></g><g transform="translate(2.077)"><path class="l" d="M585.561,181.987c.019.129.03.261.037.4.173,3.42-3.984,10.266-3.984,10.266l-.529-.21-.21-.083-3.512-1.4-.215-.086-3.85-1.533a21.917,21.917,0,0,1,1.269-3.059c.062-.131.126-.266.2-.409.428-.895.989-2.035,1.736-3.537a8.79,8.79,0,0,1,1.549-2.314c.055-.056.111-.111.168-.163a6.25,6.25,0,0,1,1.053-.785,4.215,4.215,0,0,1,4.36-.038A10.6,10.6,0,0,1,585.561,181.987Z" transform="translate(-573.298 -178.446)"/></g><g transform="translate(10.23 7.406)"><path class="n" d="M591.774,202.043a.16.16,0,0,1-.076-.019.162.162,0,0,1-.067-.219l3.528-6.635a.162.162,0,0,1,.287.153l-3.528,6.635A.163.163,0,0,1,591.774,202.043Z" transform="translate(-591.612 -195.083)"/><g transform="translate(2.679 1.376)"><path class="n" d="M597.791,198.72a.162.162,0,0,1-.032-.321l1.089-.223a.162.162,0,0,1,.065.318l-1.089.223A.164.164,0,0,1,597.791,198.72Z" transform="translate(-597.629 -198.173)"/></g></g></g></g></g></g><path class="p" d="M6.444,10.233A1.055,1.055,0,0,0,7.449,9.184a1.047,1.047,0,0,0,1,1.049,1.047,1.047,0,0,0-1,1.049,1,1,0,0,0-.293-.725A1.017,1.017,0,0,0,6.444,10.233ZM7.449,7.126A2.058,2.058,0,0,0,9.4,5.076a1.975,1.975,0,0,0,.57,1.415,2,2,0,0,0,1.39.634,2,2,0,0,0-.988.306,2.074,2.074,0,0,0-.712.747A2.029,2.029,0,0,0,9.4,9.184,2.066,2.066,0,0,0,7.449,7.126Zm1.433,4.648a1.541,1.541,0,0,0,1.472-1.541,1.542,1.542,0,0,0,1.467,1.541,1.542,1.542,0,0,0-1.467,1.541,1.486,1.486,0,0,0-.427-1.066A1.512,1.512,0,0,0,8.882,11.773Zm2.939-2.045a1.534,1.534,0,0,0,1.463-1.545,1.541,1.541,0,0,0,1.472,1.541,1.541,1.541,0,0,0-1.472,1.541,1.526,1.526,0,0,0-1.463-1.536Z" transform="translate(71.606 137.178)"/></g></svg>