<svg xmlns="http://www.w3.org/2000/svg" width="71" height="60" viewBox="0 0 71 60"><defs><style>.a{fill:#f6f6f9;}.b{fill:#222;}.c{fill:#fafafc;}.d{fill:#d5d4e0;}.e,.k{fill:#fff;}.e{stroke:#e9e9f7;stroke-width:0.3px;}.f{fill:#ebebfb;}.g{fill:#23cbd8;}.h{fill:#122052;}.i{fill:#de7061;}.j{fill:#1cbcc9;}.l{fill:#bd493f;}.m{fill:#f55a00;}</style></defs><g transform="translate(-296.351 -110.356)"><path class="a" d="M326.348,159.247c14.208,2.686,26.657-.36,33.512-5.76a19.135,19.135,0,0,0,6.728-9.6c3.808-14.4-7.415-26.321-16.122-21.839-14.217,7.32-16.333,2.118-27.926-9-8.759-8.4-36.559,3.36-22.087,28.079A38.232,38.232,0,0,0,326.348,159.247Z"/><g transform="translate(303.069 117.284)"><g transform="translate(0.452)"><path class="b" d="M341.836,127.995V174.39a2.557,2.557,0,0,1-.807,1.855,2.851,2.851,0,0,1-1.973.778H314.661a2.709,2.709,0,0,1-2.78-2.633V127.995a2.621,2.621,0,0,1,1.519-2.347,2.89,2.89,0,0,1,1.261-.286h24.395A2.709,2.709,0,0,1,341.836,127.995Z" transform="translate(-311.881 -125.362)"/></g><g transform="translate(0 7.724)"><g transform="translate(30.408)"><path d="M376.76,148.654h.715a.117.117,0,0,0,.117-.117V143.5a.117.117,0,0,0-.117-.117h-.715Z" transform="translate(-376.76 -143.384)"/></g><g transform="translate(0 0.492)"><path d="M310.13,150.921h-.389c-.035,0-.064-.064-.064-.144v-6.185c0-.079.029-.143.064-.143h.389Z" transform="translate(-309.678 -144.449)"/></g><g transform="translate(0 7.842)"><path d="M310.13,166.84h-.389c-.035,0-.064-.064-.064-.144v-6.185c0-.079.029-.143.064-.143h.389Z" transform="translate(-309.678 -160.368)"/></g></g><g transform="translate(1.84 1.387)"><path class="c" d="M342.067,129.522V176.1a1.094,1.094,0,0,1-.1.453,1.227,1.227,0,0,1-1.127.7H316.111a1.192,1.192,0,0,1-1.225-1.157V129.522a1.161,1.161,0,0,1,.744-1.064,1.286,1.286,0,0,1,.481-.092h24.731A1.192,1.192,0,0,1,342.067,129.522Z" transform="translate(-314.886 -128.366)"/></g><rect class="d" width="7.716" height="7.716" rx="2.35" transform="translate(5.49 9.273)"/><rect class="d" width="7.716" height="7.716" rx="2.35" transform="translate(5.49 18.17)"/><g transform="translate(8.509 1.351)"><path class="b" d="M343.181,128.288l-.676.676a3.613,3.613,0,0,1-2.555,1.058h-7.393A3.612,3.612,0,0,1,330,128.964l-.671-.671Z" transform="translate(-329.33 -128.288)"/></g><g transform="translate(10.482 1.751)"><rect width="9.896" height="0.467" rx="0.071"/></g><g transform="translate(17.843 9.273)"><rect class="e" width="24.129" height="7.716" rx="2.101"/><g transform="translate(9.082 2.304)"><rect class="f" width="13.691" height="0.678" rx="0.339"/><rect class="f" width="13.691" height="0.678" rx="0.339" transform="translate(0 1.491)"/><rect class="f" width="13.691" height="0.678" rx="0.339" transform="translate(0 2.847)"/></g><g transform="translate(1.445 0.949)"><path class="g" d="M355.461,154.391h0a2.785,2.785,0,0,1-2.785-2.785h0a2.785,2.785,0,0,1,2.785-2.785h0a2.784,2.784,0,0,1,2.785,2.785h0A2.784,2.784,0,0,1,355.461,154.391Z" transform="translate(-352.676 -148.822)"/></g></g><g transform="translate(17.843 18.17)"><rect class="e" width="24.129" height="7.716" rx="2.101"/><g transform="translate(9.082 2.304)"><rect class="f" width="13.691" height="0.678" rx="0.339"/><rect class="f" width="13.691" height="0.678" rx="0.339" transform="translate(0 1.491)"/><rect class="f" width="13.691" height="0.678" rx="0.339" transform="translate(0 2.847)"/></g><g transform="translate(1.445 0.949)"><path class="g" d="M355.461,174.926h0a2.785,2.785,0,0,1-2.785-2.785h0a2.785,2.785,0,0,1,2.785-2.785h0a2.784,2.784,0,0,1,2.785,2.785h0A2.784,2.784,0,0,1,355.461,174.926Z" transform="translate(-352.676 -169.357)"/></g></g></g><g transform="translate(308.57 137.895)"><g transform="translate(0 0)"><g transform="translate(2.992)"><path class="h" d="M329.3,176.629l.855,2.024,1.284,3.038,4.146,9.814.4-.161-3.8-9.954-1.176-3.081-.783-2.053Z" transform="translate(-329.296 -176.255)"/><path class="i" d="M331.148,181.047l1.284,3.038.749-.3L332,180.7Z" transform="translate(-330.293 -178.649)"/></g><g transform="translate(0 1.404)"><path class="h" d="M322.816,179.787l1.109,1.9,1.665,2.847,5.378,9.2.378-.212-5.052-9.38-1.564-2.9-1.042-1.935Z" transform="translate(-322.816 -179.297)"/><path class="i" d="M325.219,183.94l1.665,2.847.7-.4-1.564-2.9Z" transform="translate(-324.109 -181.553)"/></g></g><g transform="translate(1.456 12.108)"><path class="j" d="M355.694,242.684a61,61,0,0,1-12.684,0,.13.13,0,0,1-.13-.13V240.1a.13.13,0,0,1,.13-.13h12.684a.13.13,0,0,1,.13.13v2.452A.13.13,0,0,1,355.694,242.684Z" transform="translate(-335.072 -222.661)"/><path class="g" d="M340.487,227.282c-5.809,0-9.3-2.057-11.391-4.606l0,0a15.418,15.418,0,0,1-3.117-9.593H355S355.751,227.282,340.487,227.282Z" transform="translate(-325.97 -208.186)"/><path class="j" d="M344.131,227.282c-5.809,0-9.3-2.057-11.391-4.606.208.119,9.564,3.151,15.154.505,6.739-3.19,3.52-10.1,3.52-10.1h7.228S359.395,227.282,344.131,227.282Z" transform="translate(-329.614 -208.186)"/><g transform="translate(0.719)"><path class="k" d="M355.057,207.374h-27.53s.483-1.416,1.572-1.285a5.838,5.838,0,0,1,1.613-1.266,3.17,3.17,0,0,1,1.125-.115,3.809,3.809,0,0,1,.729.115s.875-2.164,2.051-2.167a2.241,2.241,0,0,1,1.738.724,2.244,2.244,0,0,1,2.015-.885c1.29.158,1.37.885,1.37.885a2.628,2.628,0,0,1,2.418-.724c1.33.4,1.249.964,1.249.964a5.46,5.46,0,0,1,2.378.335c1.128.471,1.128.868,1.128.868s.6-.082,1.256-.1a4.475,4.475,0,0,1,1.324.1c.806.248.806.611.806.611a4.82,4.82,0,0,1,1.935-.041c1.008.2,1.048.887,1.048.887a1.7,1.7,0,0,1,1.253.164A1.382,1.382,0,0,1,355.057,207.374Z" transform="translate(-327.527 -202.48)"/><path class="f" d="M355.057,209.965h-27.53s.483-1.416,1.572-1.285a5.838,5.838,0,0,1,1.613-1.266,3.17,3.17,0,0,1,1.125-.115s-1.408.485-1,1.008,1.612,0,1.612,0a1.2,1.2,0,0,0,1.169.927c.967,0,1.209-1.169,1.209-1.169s.242,1.209,1.33,1.169a1.582,1.582,0,0,0,1.37-1.209,2.145,2.145,0,0,0,1.895,1.011,1.5,1.5,0,0,0,1.665-1.146c-.018.131-.036.73,1.075.982a1.365,1.365,0,0,0,1.652-.6s.887,1.13,1.894.969.645-1.372.645-1.372,1.411.864,1.975.411c.318-.255.1-.661-.155-.966a4.475,4.475,0,0,1,1.324.1c.806.248.806.611.806.611a4.82,4.82,0,0,1,1.935-.041c1.008.2,1.048.887,1.048.887a1.7,1.7,0,0,1,1.253.164A1.382,1.382,0,0,1,355.057,209.965Z" transform="translate(-327.527 -205.07)"/></g></g></g><g transform="translate(335.444 134.209)"><g transform="translate(5.276 0)"><g transform="translate(15.805)"><path class="h" d="M434.165,168.7l-.975,1.62-1.463,2.431L427,180.609l-.323-.186,4.446-8.015,1.376-2.481.917-1.653Z" transform="translate(-426.68 -168.273)"/><path class="i" d="M438.374,172.251l-1.463,2.431-.6-.347,1.376-2.481Z" transform="translate(-431.864 -170.201)"/><g transform="translate(0.913 1.567)"><path class="h" d="M437.591,172.19l-1.176,1.48-1.764,2.222-5.7,7.178-.3-.226,5.444-7.374,1.685-2.283,1.123-1.521Z" transform="translate(-428.657 -171.667)"/><path class="i" d="M442.762,175.444,441,177.666l-.551-.422,1.685-2.283Z" transform="translate(-435.003 -173.44)"/></g></g><g transform="translate(1.176 8.16)"><path class="l" d="M398.547,186.434l-.194.76a2.645,2.645,0,0,0-.495-.158,2.376,2.376,0,0,0-.442-.056,1.5,1.5,0,0,0-.7.137l-.049.025a1.15,1.15,0,0,0-.163.106,1.3,1.3,0,0,0-.418.6c-.013.036-.024.072-.034.107a.53.53,0,0,1-.483.383h-.013a.532.532,0,0,1-.549-.646l0-.012a2.481,2.481,0,0,1,.375-.868,2.148,2.148,0,0,1,.6-.583,1.772,1.772,0,0,1,.19-.106,1.858,1.858,0,0,1,.892-.175,2.88,2.88,0,0,1,.923.208A3.246,3.246,0,0,1,398.547,186.434Z" transform="translate(-394.996 -185.946)"/><path class="i" d="M396.524,188.257a1.3,1.3,0,0,0-.418.6,2.7,2.7,0,0,0-1.076-.167,2.481,2.481,0,0,1,.375-.868A1.975,1.975,0,0,1,396.524,188.257Z" transform="translate(-395.014 -186.954)"/><path class="i" d="M398.8,186.98a1.5,1.5,0,0,0-.7.137l-.049.025a3.105,3.105,0,0,0-.488-1.02,1.858,1.858,0,0,1,.892-.175A1.469,1.469,0,0,1,398.8,186.98Z" transform="translate(-396.377 -185.946)"/><path class="i" d="M401.884,186.678l-.194.76a2.646,2.646,0,0,0-.495-.158,2.429,2.429,0,0,0,.137-.88A3.245,3.245,0,0,1,401.884,186.678Z" transform="translate(-398.333 -186.19)"/></g><g transform="translate(8.523 7.022)"><path class="l" d="M414.756,184.767l-.5.606a2.666,2.666,0,0,0-.381-.353,2.392,2.392,0,0,0-.377-.238,1.5,1.5,0,0,0-.691-.171l-.055,0a1.194,1.194,0,0,0-.192.027,1.3,1.3,0,0,0-.633.365c-.027.027-.053.055-.076.082a.53.53,0,0,1-.6.143l-.012-.005a.532.532,0,0,1-.223-.817l.007-.009a2.483,2.483,0,0,1,.708-.628,2.153,2.153,0,0,1,.794-.271,1.671,1.671,0,0,1,.217-.016,1.859,1.859,0,0,1,.882.219,2.876,2.876,0,0,1,.748.579A3.227,3.227,0,0,1,414.756,184.767Z" transform="translate(-410.907 -183.483)"/><path class="i" d="M412.7,184.975a1.3,1.3,0,0,0-.633.365,2.7,2.7,0,0,0-.9-.607,2.483,2.483,0,0,1,.708-.628A1.978,1.978,0,0,1,412.7,184.975Z" transform="translate(-411.044 -183.818)"/><path class="i" d="M415.64,184.783a1.5,1.5,0,0,0-.691-.171l-.055,0a3.1,3.1,0,0,0-.01-1.13,1.859,1.859,0,0,1,.882.219A1.47,1.47,0,0,1,415.64,184.783Z" transform="translate(-413.048 -183.483)"/><path class="i" d="M418.218,185.7l-.5.606a2.664,2.664,0,0,0-.381-.353,2.434,2.434,0,0,0,.5-.739A3.227,3.227,0,0,1,418.218,185.7Z" transform="translate(-414.369 -184.414)"/></g><g transform="translate(15.786 8.219)"><path class="l" d="M430.3,188.041l-.668.411a2.658,2.658,0,0,0-.246-.458,2.367,2.367,0,0,0-.279-.348,1.5,1.5,0,0,0-.6-.387l-.053-.016a1.217,1.217,0,0,0-.191-.037,1.3,1.3,0,0,0-.717.139c-.035.017-.068.035-.1.053a.53.53,0,0,1-.614-.06l-.01-.009a.532.532,0,0,1,.055-.845l.01-.007a2.482,2.482,0,0,1,.873-.363,2.146,2.146,0,0,1,.839,0,1.642,1.642,0,0,1,.21.055,1.852,1.852,0,0,1,.763.494,2.872,2.872,0,0,1,.519.791A3.227,3.227,0,0,1,430.3,188.041Z" transform="translate(-426.639 -186.074)"/><path class="i" d="M428.551,187.255a1.3,1.3,0,0,0-.717.139,2.712,2.712,0,0,0-.657-.868,2.482,2.482,0,0,1,.873-.363A1.976,1.976,0,0,1,428.551,187.255Z" transform="translate(-426.929 -186.122)"/><path class="i" d="M431.216,187.76a1.5,1.5,0,0,0-.6-.387l-.053-.016a3.1,3.1,0,0,0,.358-1.073,1.852,1.852,0,0,1,.763.494A1.468,1.468,0,0,1,431.216,187.76Z" transform="translate(-428.753 -186.188)"/><path class="i" d="M433.493,189.653l-.668.411a2.657,2.657,0,0,0-.246-.458,2.43,2.43,0,0,0,.711-.537A3.228,3.228,0,0,1,433.493,189.653Z" transform="translate(-429.836 -187.686)"/></g><g transform="translate(0 7.53)"><path class="k" d="M412.758,189.045H392.616a16.778,16.778,0,0,1,9.929-3.077A18.246,18.246,0,0,1,412.758,189.045Z" transform="translate(-392.538 -185.328)"/><g transform="translate(2.895 1.319)"><rect class="f" width="1.01" height="0.343" rx="0.172" transform="matrix(-0.866, 0.5, -0.5, -0.866, 3.31, 1.269)"/><rect class="f" width="1.01" height="0.343" rx="0.172" transform="matrix(-0.866, 0.5, -0.5, -0.866, 9.981, 0.381)"/><path class="f" d="M413.515,188.305l-.251-.636a.164.164,0,0,1,.092-.211l.016-.006a.163.163,0,0,1,.211.092l.251.637a.163.163,0,0,1-.092.211l-.017.006A.163.163,0,0,1,413.515,188.305Z" transform="translate(-406.542 -187.44)"/><path class="f" d="M399.685,192.223h-.806l-.047-.017a.172.172,0,0,1,.058-.334.169.169,0,0,1,.055.01l.629.221A.174.174,0,0,1,399.685,192.223Z" transform="translate(-398.717 -189.826)"/><path class="f" d="M401.236,189.455l-.3.615a.163.163,0,0,1-.218.074l-.016-.007a.164.164,0,0,1-.074-.218l.3-.614a.164.164,0,0,1,.218-.075l.016.008A.163.163,0,0,1,401.236,189.455Z" transform="translate(-399.736 -188.394)"/><rect class="f" width="1.01" height="0.343" rx="0.172" transform="translate(13.129 1.952) rotate(-63.871)"/><rect class="f" width="1.01" height="0.343" rx="0.172" transform="matrix(0.791, 0.611, -0.611, 0.791, 10.206, 1.13)"/><path class="f" d="M416.321,191.87a.171.171,0,0,1-.073.14l-.169.119h-.595a.11.11,0,0,1,.021-.018l.545-.383a.172.172,0,0,1,.271.141Z" transform="translate(-407.743 -189.732)"/><path class="f" d="M409.545,190.046l.526.438a.163.163,0,0,1,.021.229l-.012.013a.163.163,0,0,1-.229.021l-.526-.438a.164.164,0,0,1-.021-.229l.011-.013A.163.163,0,0,1,409.545,190.046Z" transform="translate(-404.396 -188.822)"/></g><path class="k" d="M.172,0H.838A.172.172,0,0,1,1.01.172v0A.172.172,0,0,1,.839.343H.172A.172.172,0,0,1,0,.172v0A.172.172,0,0,1,.172,0Z" transform="matrix(0.769, 0.64, -0.64, 0.769, 0.605, 2.499)"/><rect class="k" width="1.01" height="0.343" rx="0.172" transform="translate(0 3.167)"/><path class="k" d="M.172,0H.839A.171.171,0,0,1,1.01.171v0A.172.172,0,0,1,.838.343H.172A.172.172,0,0,1,0,.172v0A.172.172,0,0,1,.172,0Z" transform="matrix(-0.678, 0.735, -0.735, -0.678, 2.264, 2.379)"/><rect class="k" width="1.01" height="0.343" rx="0.172" transform="translate(2.371 1.917)"/><rect class="k" width="1.01" height="0.343" rx="0.172" transform="translate(3.297 1.283) rotate(44.997)"/><path class="k" d="M.172,0H.839A.171.171,0,0,1,1.01.171v0A.172.172,0,0,1,.838.343H.172A.172.172,0,0,1,0,.172v0A.172.172,0,0,1,.172,0Z" transform="translate(4.29 1.358) rotate(127.683)"/><rect class="k" width="1.01" height="0.343" rx="0.172" transform="translate(8.392 0.09) rotate(105.215)"/><path class="k" d="M.172,0H.838A.172.172,0,0,1,1.01.172v0A.172.172,0,0,1,.839.343H.172A.172.172,0,0,1,0,.172v0A.172.172,0,0,1,.172,0Z" transform="matrix(-0.819, 0.574, -0.574, -0.819, 9.137, 0.481)"/><path class="k" d="M.172,0H.838A.172.172,0,0,1,1.01.172v0A.172.172,0,0,1,.839.343H.171A.171.171,0,0,1,0,.172v0A.172.172,0,0,1,.172,0Z" transform="translate(6.707 0.518) rotate(12.328)"/><path class="k" d="M404.664,186.587l.56-.392a.163.163,0,0,0,.04-.227l-.01-.014a.163.163,0,0,0-.227-.04l-.56.392a.163.163,0,0,0-.04.227l.01.014A.164.164,0,0,0,404.664,186.587Z" transform="translate(-398.881 -185.283)"/><path class="k" d="M.172,0H.839A.171.171,0,0,1,1.01.171v0A.172.172,0,0,1,.838.343H.172A.172.172,0,0,1,0,.172v0A.172.172,0,0,1,.172,0Z" transform="translate(5.497 0.609) rotate(99.984)"/><rect class="k" width="1.01" height="0.343" rx="0.172" transform="translate(4.977 1.105) rotate(120)"/><rect class="k" width="1.01" height="0.343" rx="0.172" transform="matrix(-0.769, 0.64, -0.64, -0.769, 19.715, 2.762)"/><rect class="k" width="1.01" height="0.343" rx="0.172" transform="translate(20.1 3.51) rotate(180)"/><rect class="k" width="1.01" height="0.343" rx="0.172" transform="matrix(0.678, 0.735, -0.735, 0.678, 18.089, 2.146)"/><rect class="k" width="1.01" height="0.343" rx="0.172" transform="translate(17.729 2.26) rotate(180)"/><rect class="k" width="1.01" height="0.343" rx="0.172" transform="translate(17.046 1.526) rotate(135.003)"/><path class="k" d="M.171,0H.838A.172.172,0,0,1,1.01.172v0A.172.172,0,0,1,.838.343H.172A.172.172,0,0,1,0,.171v0A.171.171,0,0,1,.171,0Z" transform="translate(16.082 1.148) rotate(52.32)"/><path class="k" d="M.171,0H.839A.172.172,0,0,1,1.01.172v0A.172.172,0,0,1,.838.343H.172A.172.172,0,0,1,0,.171v0A.171.171,0,0,1,.171,0Z" transform="matrix(0.262, 0.965, -0.965, 0.262, 12.04, 0)"/><path class="k" d="M417.066,185.93l-.561-.392a.163.163,0,0,1-.04-.227l.01-.014a.164.164,0,0,1,.227-.04l.561.393a.163.163,0,0,1,.04.227l-.01.014A.163.163,0,0,1,417.066,185.93Z" transform="translate(-405.361 -184.929)"/><rect class="k" width="1.01" height="0.343" rx="0.172" transform="translate(13.467 0.854) rotate(167.671)"/><path class="k" d="M.172,0H.838A.172.172,0,0,1,1.01.172v0A.171.171,0,0,1,.839.343H.172A.172.172,0,0,1,0,.172v0A.172.172,0,0,1,.172,0Z" transform="matrix(-0.915, 0.403, -0.403, -0.915, 10.265, 0.584)"/><path class="k" d="M414.935,185.735l.146-.668a.163.163,0,0,1,.194-.125l.017,0a.163.163,0,0,1,.124.194l-.146.668a.164.164,0,0,1-.194.125l-.017,0A.164.164,0,0,1,414.935,185.735Z" transform="translate(-404.55 -184.774)"/><rect class="k" width="1.01" height="0.343" rx="0.172" transform="translate(13.82 0.537) rotate(35.017)"/><path class="k" d="M424.254,186.7l-.119-.674a.163.163,0,0,1,.132-.189l.017,0a.163.163,0,0,1,.189.133l.119.674a.164.164,0,0,1-.132.189l-.018,0A.163.163,0,0,1,424.254,186.7Z" transform="translate(-409.504 -185.253)"/><path class="k" d="M.171,0H.838A.172.172,0,0,1,1.01.172v0A.172.172,0,0,1,.839.343H.172A.172.172,0,0,1,0,.171v0A.171.171,0,0,1,.171,0Z" transform="matrix(0.5, 0.866, -0.866, 0.5, 15.42, 0.933)"/></g><g transform="translate(6.318 10.059)"><path class="h" d="M406.849,190.059c0,.015,0,.03,0,.044-.048.807-.591.926-.7.941h0l-.017,0A.941.941,0,0,1,406.849,190.059Z" transform="translate(-406.132 -190.059)"/></g><g transform="translate(8.093 8.636)"><path class="h" d="M410,186.977l.038.023a.878.878,0,0,1,.5,1.056h0a.153.153,0,0,1-.006.016A.942.942,0,0,1,410,186.977Z" transform="translate(-409.977 -186.977)"/></g><g transform="translate(15.031 10.232)"><path class="h" d="M425.989,190.437c-.005.014-.01.028-.016.041-.3.752-.85.7-.954.677h0l-.017,0A.941.941,0,0,1,425.989,190.437Z" transform="translate(-425.002 -190.435)"/></g><g transform="translate(10.774 9.299)"><path class="h" d="M416.267,188.413l.01.043a.879.879,0,0,1-.419,1.093h0l-.016.007A.941.941,0,0,1,416.267,188.413Z" transform="translate(-415.783 -188.413)"/></g><g transform="translate(1.489 10.621)"><path class="h" d="M396.4,191.277c0,.015,0,.03-.005.044a1.188,1.188,0,0,1-.211.582h-.512A.96.96,0,0,1,396.4,191.277Z" transform="translate(-395.672 -191.277)"/></g><g transform="translate(13.801 8.716)"><path class="h" d="M422.348,187.152l.04.019c.726.356.625.9.6,1.005h0a.1.1,0,0,1,0,.016A.941.941,0,0,1,422.348,187.152Z" transform="translate(-422.339 -187.152)"/></g><g transform="translate(18.195 10.725)"><path class="h" d="M432.448,192.022h-.521a1.046,1.046,0,0,1-.062-.52l.04.018A1.1,1.1,0,0,1,432.448,192.022Z" transform="translate(-431.856 -191.502)"/></g></g><g transform="translate(0 11.249)"><path class="m" d="M412.621,192.639,411.235,200l-.033.178-.087.462-.034.178-.019.1-.114.6-1.444,7.678-.077.409-.043.231-.071.374-.362,1.922-.12.64-.779,4.146a78.942,78.942,0,0,1-14.22,0l-.78-4.146-.12-.64-.362-1.922-.07-.374-.044-.231-.077-.409-1.443-7.678-.114-.6-.019-.1-.033-.178-.087-.462-.034-.178-1.385-7.365Z" transform="translate(-385.458 -192.639)"/><g transform="translate(11.854 9.784)"><circle cx="3.799" cy="3.799" r="3.799"/><path class="b" d="M411.117,221.515a3.263,3.263,0,1,1,3.263-3.263A3.267,3.267,0,0,1,411.117,221.515Z" transform="translate(-407.319 -214.454)"/></g><path class="b" d="M412.857,208.975l-.087.462-.034.178H392.458l-.033-.178-.087-.462Z" transform="translate(-387.112 -201.432)"/><path class="b" d="M413.228,234.881l-.12.64H397.328l-.12-.64Z" transform="translate(-389.734 -215.377)"/><path class="l" d="M412.62,192.638l-3.835,6.588h-15.38l-4.142-6.588Z" transform="translate(-385.458 -192.638)"/><path class="l" d="M382.454,198.846l2.811-3.875-.439-2.332-3.806,6.208Z" transform="translate(-381.02 -192.638)"/><path class="l" d="M443.142,198.846l-3.806-6.208-.439,2.332,2.811,3.875Z" transform="translate(-412.175 -192.638)"/></g></g></g></svg>