<svg xmlns="http://www.w3.org/2000/svg" width="71" height="57" viewBox="0 0 71 57"><defs><style>.a{fill:#f6f6f9;}.b{fill:#fafafc;}.c{fill:#23cbd8;}.d{fill:#222;}.e{fill:#fff;}.f{fill:#d9daeb;}.g{fill:#e9a65f;}.h{fill:#cacbdd;}.i{fill:#ebebfb;}.j{fill:#273a8e;}.k{fill:#122052;}.l{fill:#4a4a4a;}.m{fill:#f55a00;}</style></defs><g transform="translate(-54.552 -122.454)"><path class="a" d="M85.605,173.424c14.093,2.8,26.443-.375,33.243-6a19.968,19.968,0,0,0,6.674-10.008c3.778-15.012-7.355-27.44-15.992-22.768-14.1,7.631-16.2,2.208-27.7-9.382-8.689-8.757-36.266,3.5-21.911,29.272A38,38,0,0,0,85.605,173.424Z" transform="translate(-0.728 0)"/><g transform="translate(54.552 131.246)"><ellipse class="b" cx="34.507" cy="1.377" rx="34.507" ry="1.377" transform="translate(0 45.455)"/><rect class="c" width="42.861" height="31.894" transform="translate(12.071 10.822)"/><path class="d" d="M97.886,213.026l-10.08.274v-.742h10.08Z" transform="translate(-73.411 -182.754)"/><path class="d" d="M162.8,213.026l-10.08.274v-.742H162.8Z" transform="translate(-110.228 -182.754)"/><g transform="translate(9.964)"><path class="e" d="M125.067,155.433V160.4h-47.8v-4.962h0c5.762-1.047,7.6-10.822,7.6-10.822h32.6S119.3,154.387,125.067,155.433Z" transform="translate(-77.268 -144.611)"/><g transform="translate(0.001 10.822)"><rect class="f" width="47.798" height="4.962"/></g><g transform="translate(0)"><path class="d" d="M90.183,144.611s-1.082,9.776-6.844,10.822V160.4H77.269v-4.962c5.762-1.046,7.6-10.822,7.6-10.822Z" transform="translate(-77.269 -144.611)"/></g><g transform="translate(34.578)"><path class="d" d="M169.32,155.433V160.4h-6.07v-4.962c-5.762-1.046-7.152-10.822-7.152-10.822h5.622S163.558,154.387,169.32,155.433Z" transform="translate(-156.098 -144.611)"/></g><g transform="translate(13.805)"><path class="d" d="M114.572,155.467V160.4h-5.688l-.143-4.962c3.618-2.775,3.9-10.822,3.9-10.822h3.749A30.5,30.5,0,0,1,114.572,155.467Z" transform="translate(-108.741 -144.611)"/></g><g transform="translate(25.651)"><path class="d" d="M143.409,155.433l-.143,4.962h-5.687v-4.928a30.486,30.486,0,0,1-1.82-10.856h3.749S139.791,152.658,143.409,155.433Z" transform="translate(-135.747 -144.611)"/></g><g transform="translate(0.001 10.822)"><rect width="6.069" height="4.962"/></g><g transform="translate(41.73 10.822)"><path d="M178.474,169.283v4.962H172.4v-4.962h6.07Z" transform="translate(-172.404 -169.283)"/></g><g transform="translate(13.805 10.822)"><path d="M114.585,169.283l-.013.034v4.928h-5.688l-.143-4.962Z" transform="translate(-108.741 -169.283)"/></g><g transform="translate(27.469 10.822)"><path d="M145.735,169.283l-.144,4.962H139.9v-4.928l-.014-.034Z" transform="translate(-139.89 -169.283)"/></g></g><g transform="translate(26.939 19.025)"><rect class="d" width="13.095" height="23.691"/><path class="g" d="M142.087,217.176a.9.9,0,1,1-.9-.9A.9.9,0,0,1,142.087,217.176Z" transform="translate(-129.993 -203.864)"/><g transform="translate(1.164 1.149)"><rect class="h" width="10.767" height="10.001"/></g><g transform="translate(1.164 1.149)"><path class="i" d="M125.792,190.6l-6.311,6.311v-4.089L121.7,190.6Z" transform="translate(-119.482 -190.603)"/></g><g transform="translate(8.643 7.861)"><path class="i" d="M139.82,205.907V209.2h-3.289Z" transform="translate(-136.531 -205.907)"/></g><g transform="translate(1.915 1.149)"><path class="i" d="M131.21,190.6v1.932l-8.073,8.069h-1.944l10-10Z" transform="translate(-121.194 -190.603)"/></g></g><path class="j" d="M82.9,182.658l42.861-1.178V180.6H82.9Z" transform="translate(-70.827 -164.811)"/><g transform="translate(14.22 19.724)"><path class="k" d="M87.806,199.658v-5.04a5.04,5.04,0,1,1,10.08,0v5.04Z" transform="translate(-87.806 -189.578)"/><path class="f" d="M98.115,195.779v4.133H89.668v-4.133a4.132,4.132,0,0,1,4.132-4.133h.182a4.023,4.023,0,0,1,.474.028,4.131,4.131,0,0,1,3.659,4.105Z" transform="translate(-88.851 -190.739)"/><g transform="translate(0.817 0.907)"><path class="i" d="M94.456,191.674l-4.788,4.788v-.683a4.132,4.132,0,0,1,4.132-4.133h.182A4.023,4.023,0,0,1,94.456,191.674Z" transform="translate(-89.668 -191.646)"/></g><g transform="translate(6.432 6.34)"><path class="i" d="M105.3,204.031v2.833h-2.832Z" transform="translate(-102.468 -204.031)"/></g><g transform="translate(0.817 1.769)"><path class="i" d="M97.405,194.565l-6.452,6.449H89.668v-.566l6.839-6.838A4.138,4.138,0,0,1,97.405,194.565Z" transform="translate(-89.668 -193.61)"/></g><g transform="translate(28.476)"><path class="k" d="M152.724,199.658v-5.04a5.04,5.04,0,1,1,10.08,0v5.04Z" transform="translate(-152.724 -189.578)"/><path class="f" d="M163.032,195.779v4.133h-8.446v-4.133a4.132,4.132,0,0,1,4.132-4.133h.182a4.034,4.034,0,0,1,.474.028,4.131,4.131,0,0,1,3.658,4.105Z" transform="translate(-153.769 -190.739)"/><g transform="translate(0.817 0.907)"><path class="i" d="M159.374,191.674l-4.788,4.788v-.683a4.132,4.132,0,0,1,4.132-4.133h.182A4.034,4.034,0,0,1,159.374,191.674Z" transform="translate(-154.586 -191.646)"/></g><g transform="translate(6.431 6.34)"><path class="i" d="M170.218,204.031v2.833h-2.832Z" transform="translate(-167.386 -204.031)"/></g><g transform="translate(0.817 1.769)"><path class="i" d="M162.323,194.565l-6.452,6.449h-1.285v-.566l6.839-6.838A4.136,4.136,0,0,1,162.323,194.565Z" transform="translate(-154.586 -193.61)"/></g></g></g><path class="d" d="M.959,0H45.837A.959.959,0,0,1,46.8.959v0a.959.959,0,0,1-.959.959H.959A.959.959,0,0,1,0,.959v0A.959.959,0,0,1,.959,0Z" transform="translate(10.126 42.711)"/><rect class="l" width="52.041" height="2.164" rx="1.082" transform="translate(7.452 44.628)"/></g><path class="m" d="M6.444,8.316a.663.663,0,0,0,.632-.659.658.658,0,0,0,.629.659.658.658,0,0,0-.629.659.626.626,0,0,0-.184-.456A.639.639,0,0,0,6.444,8.316Zm.632-1.952A1.293,1.293,0,0,0,8.3,5.076a1.241,1.241,0,0,0,.358.889,1.258,1.258,0,0,0,.873.4,1.257,1.257,0,0,0-.621.193,1.3,1.3,0,0,0-.447.469,1.275,1.275,0,0,0-.163.632A1.3,1.3,0,0,0,7.076,6.364Zm.9,2.92A.968.968,0,0,0,8.9,8.316a.969.969,0,0,0,.922.968.969.969,0,0,0-.922.968.934.934,0,0,0-.268-.67A.95.95,0,0,0,7.976,9.284ZM9.822,8a.964.964,0,0,0,.919-.971A.968.968,0,0,0,11.666,8a.968.968,0,0,0-.925.968A.959.959,0,0,0,9.822,8Z" transform="translate(57.029 129.58)"/><path class="m" d="M11.666,8.316a.663.663,0,0,1-.632-.659.658.658,0,0,1-.629.659.658.658,0,0,1,.629.659.626.626,0,0,1,.184-.456A.639.639,0,0,1,11.666,8.316Zm-.632-1.952A1.293,1.293,0,0,1,9.806,5.076a1.241,1.241,0,0,1-.358.889,1.258,1.258,0,0,1-.873.4,1.257,1.257,0,0,1,.621.193,1.3,1.3,0,0,1,.447.469,1.275,1.275,0,0,1,.163.632,1.3,1.3,0,0,1,1.228-1.293Zm-.9,2.92a.968.968,0,0,1-.925-.968.969.969,0,0,1-.922.968.969.969,0,0,1,.922.968.934.934,0,0,1,.268-.67A.95.95,0,0,1,10.134,9.284ZM8.288,8a.964.964,0,0,1-.919-.971A.968.968,0,0,1,6.444,8a.968.968,0,0,1,.925.968A.959.959,0,0,1,8.288,8Z" transform="translate(103.178 157.159)"/></g></svg>