<svg xmlns="http://www.w3.org/2000/svg" xmlns:xlink="http://www.w3.org/1999/xlink" width="54.827" height="60.559" viewBox="0 0 54.827 60.559"><defs><style>.a{fill:#f6f6f9;}.b{fill:#cfcfcf;}.c{fill:#515151;}.d{fill:#ffc024;}.e{fill:#b5bec6;}.f{fill:#fc8f1a;}.g{fill:#1eaeb9;}.h{fill:#434343;}.i{fill:#ffff76;}.j{fill:#23cbd8;}.k{fill:#95bcc4;}.l{fill:#6d5e61;}.m{fill:#ff7b22;}.n{fill:#f07565;}.o{fill:#9c4818;}.p{fill:#f55a00;}.q{fill:#fff;}.r{fill:#fca870;}.s{fill:#4691b2;}.t{fill:#aa9fa1;}.u{fill:#666;}.v{fill:#6395a5;}.w{fill:#db193a;}.x{fill:#d6580f;}.y{fill:#898989;}.z{fill:#b3b3ba;}.aa{fill:#fc3535;}.ab{fill:#c1c1c1;}.ac{fill:#ff7443;}.ad{fill:#42d3df;}.ae{fill:#2f6d93;}.af{fill:#119ca7;}.ag{fill:#16a0aa;}.ah{fill:#c9d6f2;}.ai{fill:#acb2e5;}.aj{fill:#ef520c;}.ak{fill:#2a2a2a;}.al{fill:#b1b1b1;}.am{fill:#443b3d;}.an{fill:#84777b;}.ao{fill:#8e8eaf;}.ap{fill:#6d2309;}.aq,.ar,.as{stroke:none;}.ar{fill:#00c22d;}.as{fill:#23cbd8;}.at{filter:url(#a);}</style><filter id="a" x="0" y="0" width="54.827" height="60.559" filterUnits="userSpaceOnUse"><feOffset dy="5" input="SourceAlpha"/><feGaussianBlur stdDeviation="3" result="b"/><feFlood flood-opacity="0.161"/><feComposite operator="in" in2="b"/><feComposite in="SourceGraphic"/></filter></defs><g transform="translate(9 3.999)"><g class="at" transform="matrix(1, 0, 0, 1, -9, -4)"><g class="a" transform="translate(9 4)"><path class="aq" d="M 19.04805183410645 42.05965423583984 C 18.51621055603027 42.05965423583984 18.03538131713867 41.78752517700195 17.76182174682617 41.33171463012695 L 14.61250114440918 36.08260345458984 L 14.50382137298584 35.90145492553711 L 14.29816150665283 35.85311508178711 C 10.43496131896973 34.94500350952148 6.931431293487549 32.72968673706055 4.432941436767578 29.61523628234863 C 3.184951305389404 28.0595760345459 2.212831258773804 26.32307624816895 1.543591380119324 24.4539852142334 C 0.8511213064193726 22.51999473571777 0.5000013113021851 20.48784446716309 0.5000013113021851 18.41399574279785 C 0.5000013113021851 13.6293249130249 2.363311290740967 9.130975723266602 5.746691226959229 5.747595310211182 C 9.130071640014648 2.36421537399292 13.62842178344727 0.5009053349494934 18.41310119628906 0.5009053349494934 C 23.19817161560059 0.5009053349494934 27.69680213928223 2.36421537399292 31.08030128479004 5.747605323791504 C 34.46375274658203 9.130935668945313 36.32710266113281 13.62927532196045 36.32710266113281 18.41399574279785 C 36.32710266113281 22.26218605041504 35.12553024291992 25.92938613891602 32.85230255126953 29.01913452148438 C 31.75794219970703 30.5065860748291 30.44645118713379 31.81229591369629 28.95425224304199 32.90000534057617 C 27.444091796875 34.00081634521484 25.78195190429688 34.85375595092773 24.01400184631348 35.43511581420898 L 23.83719062805176 35.49325561523438 L 23.74144172668457 35.65285491943359 L 20.33425140380859 41.33176422119141 C 20.06072044372559 41.78752517700195 19.57989120483398 42.05965423583984 19.04805183410645 42.05965423583984 Z"/><path class="ar" d="M 19.04805183410645 41.55965423583984 C 19.21832084655762 41.55965423583984 19.64272117614746 41.51237487792969 19.9055004119873 41.07452392578125 L 23.31269073486328 35.39561462402344 L 23.50420188903809 35.076416015625 L 23.85781097412109 34.96013641357422 C 25.5761604309082 34.39508438110352 27.1917610168457 33.56601715087891 28.65973091125488 32.49596405029297 C 30.1104907989502 31.43844604492188 31.38558197021484 30.16897583007813 32.44956207275391 28.72282600402832 C 34.65917205810547 25.71955490112305 35.82710266113281 22.15482521057129 35.82710266113281 18.41399574279785 C 35.82710266113281 13.76283550262451 34.01576232910156 9.390055656433105 30.72676086425781 6.101165294647217 C 27.43769073486328 2.812215328216553 23.06462097167969 1.000905394554138 18.41310119628906 1.000905394554138 C 13.76198101043701 1.000905394554138 9.389191627502441 2.81220531463623 6.100241184234619 6.101145267486572 C 2.811301231384277 9.390085220336914 1.000001311302185 13.7628755569458 1.000001311302185 18.41399574279785 C 1.000001311302185 20.43024444580078 1.341271281242371 22.40567588806152 2.014331340789795 24.28543472290039 C 2.66482138633728 26.1021556854248 3.609781265258789 27.79009628295898 4.822961330413818 29.30236625671387 C 7.251901149749756 32.33012390136719 10.65756130218506 34.48369598388672 14.41258144378662 35.36637496948242 L 14.82388114929199 35.46306610107422 L 15.04125118255615 35.82536697387695 L 18.19054222106934 41.07441711425781 C 18.4533805847168 41.51237487792969 18.87778091430664 41.55965423583984 19.04805183410645 41.55965423583984 M 19.04805183410645 42.55965423583984 C 18.38475227355957 42.55965423583984 17.72145080566406 42.2360954284668 17.33310127258301 41.58900451660156 L 14.18375110626221 36.33984375 C 6.05324125289917 34.42863464355469 1.330566419710522e-06 27.12839508056641 1.330566419710522e-06 18.41399574279785 C 1.330566419710522e-06 8.244905471801758 8.244001388549805 0.0009053448447957635 18.41310119628906 0.0009053448447957635 C 28.58310127258301 0.0009053448447957635 36.82710266113281 8.244905471801758 36.82710266113281 18.41399574279785 C 36.82710266113281 26.57346534729004 31.52058219909668 33.49303436279297 24.17019081115723 35.91009521484375 L 20.76300048828125 41.58900451660156 C 20.3746509552002 42.2360954284668 19.71135139465332 42.55965423583984 19.04805183410645 42.55965423583984 Z"/></g></g><g class="a"><path class="aq" d="M 19.04805183410645 42.05965423583984 C 18.51621055603027 42.05965423583984 18.03538131713867 41.78752517700195 17.76182174682617 41.33171463012695 L 14.61250114440918 36.08260345458984 L 14.50382137298584 35.90145492553711 L 14.29816150665283 35.85311508178711 C 10.43496131896973 34.94500350952148 6.931431293487549 32.72968673706055 4.432941436767578 29.61523628234863 C 3.184951305389404 28.0595760345459 2.212831258773804 26.32307624816895 1.543591380119324 24.4539852142334 C 0.8511213064193726 22.51999473571777 0.5000013113021851 20.48784446716309 0.5000013113021851 18.41399574279785 C 0.5000013113021851 13.6293249130249 2.363311290740967 9.130975723266602 5.746691226959229 5.747595310211182 C 9.130071640014648 2.36421537399292 13.62842178344727 0.5009053349494934 18.41310119628906 0.5009053349494934 C 23.19817161560059 0.5009053349494934 27.69680213928223 2.36421537399292 31.08030128479004 5.747605323791504 C 34.46375274658203 9.130935668945313 36.32710266113281 13.62927532196045 36.32710266113281 18.41399574279785 C 36.32710266113281 22.26218605041504 35.12553024291992 25.92938613891602 32.85230255126953 29.01913452148438 C 31.75794219970703 30.5065860748291 30.44645118713379 31.81229591369629 28.95425224304199 32.90000534057617 C 27.444091796875 34.00081634521484 25.78195190429688 34.85375595092773 24.01400184631348 35.43511581420898 L 23.83719062805176 35.49325561523438 L 23.74144172668457 35.65285491943359 L 20.33425140380859 41.33176422119141 C 20.06072044372559 41.78752517700195 19.57989120483398 42.05965423583984 19.04805183410645 42.05965423583984 Z"/><path class="as" d="M 19.04805183410645 41.55965423583984 C 19.21832084655762 41.55965423583984 19.64272117614746 41.51237487792969 19.9055004119873 41.07452392578125 L 23.31269073486328 35.39561462402344 L 23.50420188903809 35.076416015625 L 23.85781097412109 34.96013641357422 C 25.5761604309082 34.39508438110352 27.1917610168457 33.56601715087891 28.65973091125488 32.49596405029297 C 30.1104907989502 31.43844604492188 31.38558197021484 30.16897583007813 32.44956207275391 28.72282600402832 C 34.65917205810547 25.71955490112305 35.82710266113281 22.15482521057129 35.82710266113281 18.41399574279785 C 35.82710266113281 13.76283550262451 34.01576232910156 9.390055656433105 30.72676086425781 6.101165294647217 C 27.43769073486328 2.812215328216553 23.06462097167969 1.000905394554138 18.41310119628906 1.000905394554138 C 13.76198101043701 1.000905394554138 9.389191627502441 2.81220531463623 6.100241184234619 6.101145267486572 C 2.811301231384277 9.390085220336914 1.000001311302185 13.7628755569458 1.000001311302185 18.41399574279785 C 1.000001311302185 20.43024444580078 1.341271281242371 22.40567588806152 2.014331340789795 24.28543472290039 C 2.66482138633728 26.1021556854248 3.609781265258789 27.79009628295898 4.822961330413818 29.30236625671387 C 7.251901149749756 32.33012390136719 10.65756130218506 34.48369598388672 14.41258144378662 35.36637496948242 L 14.82388114929199 35.46306610107422 L 15.04125118255615 35.82536697387695 L 18.19054222106934 41.07441711425781 C 18.4533805847168 41.51237487792969 18.87778091430664 41.55965423583984 19.04805183410645 41.55965423583984 M 19.04805183410645 42.55965423583984 C 18.38475227355957 42.55965423583984 17.72145080566406 42.2360954284668 17.33310127258301 41.58900451660156 L 14.18375110626221 36.33984375 C 6.05324125289917 34.42863464355469 1.330566419710522e-06 27.12839508056641 1.330566419710522e-06 18.41399574279785 C 1.330566419710522e-06 8.244905471801758 8.244001388549805 0.0009053448447957635 18.41310119628906 0.0009053448447957635 C 28.58310127258301 0.0009053448447957635 36.82710266113281 8.244905471801758 36.82710266113281 18.41399574279785 C 36.82710266113281 26.57346534729004 31.52058219909668 33.49303436279297 24.17019081115723 35.91009521484375 L 20.76300048828125 41.58900451660156 C 20.3746509552002 42.2360954284668 19.71135139465332 42.55965423583984 19.04805183410645 42.55965423583984 Z"/></g><g transform="translate(-66.333 -93.988)"><ellipse class="b" cx="11.654" cy="0.437" rx="11.654" ry="0.437" transform="translate(73.407 122.297)"/><g transform="translate(72.901 98.846)"><path class="c" d="M111.845,263.867a4.513,4.513,0,0,0-.552.134c-.263.081-.523.181-.771.283a8.2,8.2,0,0,0-2.512,1.637,5.883,5.883,0,0,0-1.031,1.216,1.788,1.788,0,0,0-.231.688.568.568,0,0,0,.1.156c.329.391,1.158.416,1.6.5.6.117,1.2.234,1.79.362a.047.047,0,0,1,.044-.063,51,51,0,0,1,1.94-4.87A.6.6,0,0,0,111.845,263.867Zm-1.65,3.278c-.049.273-.045.7-.249.911s-.571.115-.835.089c-.23-.022-.578,0-.764-.167a.326.326,0,0,1-.114-.231c-.019-.394.627-.913.841-1.087.181-.147.829-.672,1.083-.425a.045.045,0,0,1,.035.025c.01.022.018.043.026.064s.012.03.017.047a.083.083,0,0,1,0,.012.863.863,0,0,1,.029.22A2.89,2.89,0,0,1,110.195,267.145Z" transform="translate(-104.317 -252.003)"/><path class="d" d="M189.122,192.724a3.419,3.419,0,0,0,.225-.5,2.011,2.011,0,0,0-.005-.677.618.618,0,0,0-.43.47C188.836,192.277,188.76,192.68,189.122,192.724Z" transform="translate(-180.52 -184.889)"/><path class="e" d="M185.236,210.389a.044.044,0,0,1-.02.025v0a.42.42,0,0,1,.052.014,5.614,5.614,0,0,1,.268-1.025.292.292,0,0,1-.077-.055c-.027.136-.069.27-.1.406A5.265,5.265,0,0,1,185.236,210.389Z" transform="translate(-177.148 -201.413)"/><path class="e" d="M181.941,205.839a8.417,8.417,0,0,1,.02-1.709.033.033,0,0,1,.005-.053l0,0a.041.041,0,0,1,.044-.024.933.933,0,0,1,.178-.059c0-.025-.009-.05-.012-.075-.047.019-.1.028-.145.041a.42.42,0,0,1-.167.028,7.508,7.508,0,0,1,0,1.041c0,.276.013.56-.012.836C181.883,205.854,181.912,205.846,181.941,205.839Z" transform="translate(-174.029 -196.37)"/><path class="f" d="M194.883,196.262a.629.629,0,0,0,.116.051c.254-.238.2-.78.252-1.111a.161.161,0,0,0-.129-.029l-.033.008a1.4,1.4,0,0,1-.021.452,1.1,1.1,0,0,1-.252.556A.368.368,0,0,0,194.883,196.262Z" transform="translate(-186.059 -188.25)"/><path class="g" d="M190.572,227.727a1.462,1.462,0,0,1,.5.236,2.816,2.816,0,0,1,.856-.206.966.966,0,0,1,0-.117,3.787,3.787,0,0,1-.784.184.068.068,0,0,1-.068-.068,4.084,4.084,0,0,0-.374-.2,1.35,1.35,0,0,0-.294-.071A.534.534,0,0,1,190.572,227.727Z" transform="translate(-181.965 -218.243)"/><path class="h" d="M184.873,226.569a1.409,1.409,0,0,1,.331,0,.955.955,0,0,0-.086-.1,2.1,2.1,0,0,0-.227-.184C184.885,226.377,184.88,226.474,184.873,226.569Z" transform="translate(-176.83 -217.124)"/><path class="i" d="M134.185,299c-.034.218-.092.435-.134.647,0,.006,0,.013,0,.02-.278-.013-.555-.024-.834-.032h0q-.243-.008-.486-.01c.018-.018.033-.035.045-.05a3.654,3.654,0,0,1,.36-.386c.138-.129.815-.751,1.076-.6A1.929,1.929,0,0,1,134.185,299Z" transform="translate(-128.43 -284.217)"/><path class="c" d="M159.653,227.734c-.108.163-.19.344-.3.509s-.276.321-.374.5a.084.084,0,0,0,0,.012.857.857,0,0,0-.387-.033,4.366,4.366,0,0,0-.587.116c.087-.208-.226-.364-.426-.4a.766.766,0,0,1-.429-.183.68.68,0,0,1-.073-.328,2.429,2.429,0,0,1,0-.338l.008-.113a10.173,10.173,0,0,1,.169-1.082,6.676,6.676,0,0,1,1.172-.181c.081-.006.163-.01.246-.012a3.307,3.307,0,0,0,.018.412.932.932,0,0,0-.251.188.922.922,0,0,0-.144.194.015.015,0,0,0,0,.005.047.047,0,0,0-.018.028.617.617,0,0,0-.015.127.776.776,0,0,0,0,.117.569.569,0,0,0-.126.135.492.492,0,0,0-.085.242.034.034,0,0,0,.008.028c-.012.271.344.391.344.661a.065.065,0,0,0,.014.041.2.2,0,0,0,.018.219.236.236,0,0,0,.422-.154.216.216,0,0,0-.131-.185,1.758,1.758,0,0,0-.077-.276.577.577,0,0,0,.125.065.066.066,0,0,0,.028,0,.552.552,0,0,0,.455-.087c.1-.062.236-.183.246-.309A.655.655,0,0,0,159.653,227.734Z" transform="translate(-151.026 -217.057)"/><path class="j" d="M178.107,233.389q0,.248,0,.5a5.508,5.508,0,0,1-.922-.231.083.083,0,0,0-.081-.1,2.118,2.118,0,0,1-.317.01.956.956,0,0,1-.247-.089.353.353,0,0,0,0-.32.319.319,0,0,0-.025-.038.364.364,0,0,0-.4-.137.311.311,0,0,0-.2.146.371.371,0,0,0-.066.244.377.377,0,0,0,.487.3.348.348,0,0,0,.089-.049,2.074,2.074,0,0,1-.206.19,1.049,1.049,0,0,1-.315.116c-.089-.114-.2-.2-.276-.326h0c-.011-.016-.02-.033-.03-.05a1.756,1.756,0,0,1-.15-.471,1.219,1.219,0,0,1,1.632-.153.094.094,0,0,0,.1.01c.3-.026.607-.109.91-.159C178.1,232.98,178.107,233.185,178.107,233.389Z" transform="translate(-168.078 -223.058)"/><path class="k" d="M198.289,280.169a2.322,2.322,0,0,1-.481.177l-.035.009c-.486.123-.987.2-1.478.295-1.048.206-2.1.46-3.149.633a.032.032,0,0,0-.019.051.023.023,0,0,0,0,.013,12.445,12.445,0,0,0,.3,2.338,17.014,17.014,0,0,0,.429,1.891c-.133.027-.267.054-.4.08a4.517,4.517,0,0,1-.726.135c-.073-.259-.173-.517-.239-.772-.106-.414-.192-.834-.267-1.255-.08-.449-.146-.9-.211-1.351a6.159,6.159,0,0,1-.056-1.022.75.75,0,0,1,.175-.338,2.959,2.959,0,0,1,.974-.555q.622-.285,1.262-.527c.8-.3,1.623-.518,2.433-.783l.116.022a7.453,7.453,0,0,0,.917.129,1.3,1.3,0,0,0,.15.386c.033.065.071.131.112.194A1.489,1.489,0,0,0,198.289,280.169Z" transform="translate(-183.39 -266.234)"/><path class="h" d="M148.428,229.629c.058,0,.117.006.175.008.137.005.274.01.411.018.026-.086.055-.169.087-.25A6.283,6.283,0,0,0,148.428,229.629Z" transform="translate(-143.003 -220.027)"/><path class="l" d="M183.383,239.208a.2.2,0,0,0,.281.152.2.2,0,0,0,.056-.293.268.268,0,0,0-.206-.069A.217.217,0,0,0,183.383,239.208Z" transform="translate(-175.445 -228.931)"/><path class="i" d="M151.545,236.009a1.25,1.25,0,0,0,.021.129.724.724,0,0,1-.25-.66,5.364,5.364,0,0,1,.121-.68l.212.017a3.712,3.712,0,0,0-.112.724A2.941,2.941,0,0,0,151.545,236.009Z" transform="translate(-145.681 -225.032)"/><path class="e" d="M172.326,243.889c-.022-.062-.051-.127-.073-.192a1.081,1.081,0,0,1-.153-.341.309.309,0,0,0-.056.047.679.679,0,0,0-.1.136c.065.283.421.405.412.72a.069.069,0,0,1-.034.059c-.015.086.053.186.147.149a.1.1,0,0,0,.063-.1.2.2,0,0,0-.025-.068c-.013-.021-.034-.033-.044-.055a.048.048,0,0,1,0-.026A2.087,2.087,0,0,1,172.326,243.889Z" transform="translate(-164.833 -232.975)"/><path class="m" d="M132.123,314.125a.724.724,0,0,1-.053.231.578.578,0,0,1-.41.218,3.973,3.973,0,0,1-.651-.064c-.149-.017-.334-.005-.345-.228,0-.014,0-.03,0-.047a.326.326,0,0,1,.1-.165c.131.009.263.016.395.022C131.478,314.108,131.8,314.118,132.123,314.125Z" transform="translate(-126.514 -298.611)"/><path class="n" d="M215.045,230.786a12.373,12.373,0,0,1,1.331-.072c.152,0,.31-.017.47-.028a.729.729,0,0,1,.013-.237,12.947,12.947,0,0,1-1.82.144h0C215.041,230.658,215.043,230.722,215.045,230.786Z" transform="translate(-204.829 -220.996)"/><path class="o" d="M244.363,167.375a3.02,3.02,0,0,0-.869-.2.082.082,0,0,0-.068.123.67.67,0,0,0,.144.185,1.614,1.614,0,0,1-1.232-.284.08.08,0,0,0-.027-.019l-.009-.007a3.194,3.194,0,0,0,.206-.271,2.535,2.535,0,0,0,.906-.315c.049-.028.1-.057.144-.088a1.144,1.144,0,0,0,1.026.169,1.422,1.422,0,0,1-.493.191.085.085,0,0,0-.035.142A1.119,1.119,0,0,1,244.363,167.375Z" transform="translate(-230.134 -161.644)"/><path class="p" d="M183.52,106.368c-.326.207-1.359.7-1.549.115a4.371,4.371,0,0,1-.088-.892c-.026-.261-.053-.521-.093-.779a.1.1,0,0,0-.056-.161c-.7-.2-1.4-.376-2.1-.553-.611-.155-1.227-.349-1.85-.461a8.345,8.345,0,0,0,1.029-.185.089.089,0,0,0,.062-.1,3.091,3.091,0,0,1,.318-.418,3.292,3.292,0,0,1,2.6-1.049,3.341,3.341,0,0,1,1.856.651,2.384,2.384,0,0,1,.74.929A2.341,2.341,0,0,1,183.52,106.368Z" transform="translate(-170.25 -101.66)"/><path class="n" d="M228.259,162.15a.567.567,0,0,0-.321.37,1.2,1.2,0,0,0,.108.668,3.814,3.814,0,0,0,.378-.486.568.568,0,0,1-.119-.265C228.287,162.343,228.273,162.247,228.259,162.15Z" transform="translate(-216.788 -157.603)"/><path class="o" d="M183.557,132.314q.065.091.136.173a3.005,3.005,0,0,1-1.475-.684.039.039,0,0,0-.054.056l.012.012a.05.05,0,0,0-.007.02,3.939,3.939,0,0,0,.012.7.486.486,0,0,1-.181-.049.433.433,0,0,1-.178-.61.062.062,0,0,0-.085-.083c-.122.066-.245.131-.369.194a1.442,1.442,0,0,1,.563-.414l.16.043c.255.068.51.135.761.206.539.152,1.079.3,1.621.448a2.257,2.257,0,0,1-.842-.113A.068.068,0,0,0,183.557,132.314Z" transform="translate(-173.577 -129.276)"/><path class="f" d="M183.853,381.952c.01.027.021.056.031.086a.393.393,0,0,1,.185-.068,1.019,1.019,0,0,1,.221-.044,2.074,2.074,0,0,0,.6-.1,2.168,2.168,0,0,0,.4-.225.186.186,0,0,1-.045-.129v0a1.014,1.014,0,0,1-.376.166A3.587,3.587,0,0,0,183.853,381.952Z" transform="translate(-175.883 -361.166)"/><path class="j" d="M273.556,202.581a.077.077,0,0,1-.058.086,16.2,16.2,0,0,1,.711,2.955,3.079,3.079,0,0,0,1.055-.2.487.487,0,0,0,.154-.5c-.027-.152-.073-.3-.113-.453-.086-.328-.182-.653-.29-.974a11.108,11.108,0,0,0-.845-1.943,7.8,7.8,0,0,0-1.149-1.57c.044.114.082.229.114.339A11.242,11.242,0,0,1,273.556,202.581Z" transform="translate(-258.648 -192.718)"/><path class="q" d="M188.434,379.993c-.255.049-.51.1-.766.14-.628.106-1.29.131-1.912.265l-.1.023a.529.529,0,0,1-.272-.316c.5-.226,1.116-.091,1.461-.625a.041.041,0,0,0,.007-.026.057.057,0,0,0,0-.053c-.016-.027-.043-.05-.045-.083a.1.1,0,0,1,.073-.09.5.5,0,0,1,.246.007c0,.055,0,.162.074.154a.366.366,0,0,0,.158.1.491.491,0,0,0,.4-.051.6.6,0,0,0,.232-.284.135.135,0,0,1,.129.054c.041.068-.016.133.007.2a.049.049,0,0,0,.045.034,1.7,1.7,0,0,1,.147.213,1.169,1.169,0,0,1,.1.3A.091.091,0,0,0,188.434,379.993Z" transform="translate(-177.301 -359.021)"/><path class="j" d="M252.623,193.754c-.264,0-.521,0-.776-.025a10.43,10.43,0,0,1-1.092-.152c-.041-.668-.151-2.091.234-2.59a.469.469,0,0,1,.643-.1.739.739,0,0,1,.158.1l.024.02a2.6,2.6,0,0,1,.556,1.327A12.422,12.422,0,0,1,252.623,193.754Z" transform="translate(-237.936 -184.202)"/><path class="r" d="M233.016,178.54c-.115.117-.235.237-.352.36-.1.1-.2.212-.287.322a.671.671,0,0,0-.108-.147l-.033-.033a.473.473,0,0,0-.08-.063,2.7,2.7,0,0,0,.35-.265c.116-.093.229-.187.343-.282A1.5,1.5,0,0,0,233.016,178.54Z" transform="translate(-220.716 -172.717)"/><path class="s" d="M234.428,181.138c-.128.158-.255.313-.384.466-.274.326-.553.644-.857.951a2.532,2.532,0,0,1-.117-.524,4.433,4.433,0,0,0,.624-.609c.116-.131.229-.265.338-.393A1.7,1.7,0,0,0,234.428,181.138Z" transform="translate(-221.565 -175.126)"/><path class="j" d="M240.484,184.337a.653.653,0,0,0-.489.255,1.447,1.447,0,0,0-.271.726,6.675,6.675,0,0,0,.055,2.254.065.065,0,0,0,0,.009s0,0,0,.007a3.7,3.7,0,0,0-.372,0,21.341,21.341,0,0,0-.38-2.288,9.536,9.536,0,0,0,.72-.829c.11-.143.214-.29.311-.438C240.2,184.131,240.344,184.234,240.484,184.337Z" transform="translate(-227.097 -177.909)"/><path class="r" d="M219.167,236.8a1.951,1.951,0,0,1-.567.038c-.388-.009-.776-.024-1.165-.035-.744-.023-1.511-.088-2.255-.038,0-.1,0-.193,0-.29,0-.143,0-.287-.007-.43a12.53,12.53,0,0,0,1.395,0,6.586,6.586,0,0,0,1.313-.06,2.369,2.369,0,0,0,.808.227,2.506,2.506,0,0,0,.831-.042A.458.458,0,0,1,219.167,236.8Z" transform="translate(-204.952 -226.136)"/><path class="r" d="M196.774,136.926l-.1-.028a2.128,2.128,0,0,1-1.061-.021.808.808,0,0,0,.171.123.087.087,0,0,1-.041.162,2.6,2.6,0,0,1-1.646-.715c.026.156.05.311.075.465.066.422.132.842.225,1.264.18.016.353.086.534.109a2.792,2.792,0,0,0,.658,0,3,3,0,0,0,.547-.114c.063-.019.126-.041.188-.064.168-.063.324-.16.5-.209C196.786,137.573,196.777,137.243,196.774,136.926Zm-2.4.22a.2.2,0,0,1,.035-.041c.129-.127.368-.061.494.036.09.069-.033.194-.122.127a.31.31,0,0,0-.2-.059c-.053,0-.108.007-.166.007A.047.047,0,0,1,194.376,137.146Zm.322.988a.106.106,0,0,1-.1-.1,1.237,1.237,0,0,1-.019-.34c.015-.1.148-.08.177,0a.737.737,0,0,1,.028.17c.006.056.014.113.017.169A.1.1,0,0,1,194.7,138.134Zm.4.022c-.03.015-.066-.014-.048-.046a.489.489,0,0,1,.345-.216.028.028,0,0,1,.02.047,1.212,1.212,0,0,1-.153.1A1.813,1.813,0,0,1,195.094,138.156Zm.512-.173a.278.278,0,0,1-.09.072l-.109.067c-.037.022-.068-.032-.034-.056l.1-.071a.283.283,0,0,1,.1-.056C195.594,137.933,195.623,137.958,195.606,137.983Z" transform="translate(-185.387 -133.747)"/><path class="k" d="M277.089,281.438a.94.94,0,0,1-.47.736.088.088,0,0,0-.006-.01c-.078-.122-.165-.237-.241-.36q-.027-.041-.051-.085c-.051-.089-.091-.19-.141-.282.1.006.2.01.293.012.137,0,.273,0,.409,0Z" transform="translate(-261.578 -268.321)"/><path class="j" d="M195.636,160.268a3.328,3.328,0,0,1-1.217.762.082.082,0,0,0-.035-.011l-.019,0c-.405-.047-.719-.58-.961-.865-.177-.209-.355-.394-.245-.691a1.443,1.443,0,0,1,.271-.347.082.082,0,0,0,.038-.016,1.987,1.987,0,0,0,1.273.185,4.124,4.124,0,0,0,.5-.089,1.76,1.76,0,0,0,.69-.313c0,.04.01.079.014.119a.69.69,0,0,0-.432.4A1.348,1.348,0,0,0,195.636,160.268Z" transform="translate(-184.488 -154.569)"/><path class="t" d="M222.946,171.134a.734.734,0,0,1-.415-.1,2.6,2.6,0,0,1-1.061,1.159A2.865,2.865,0,0,0,222.946,171.134Z" transform="translate(-210.798 -165.851)"/><path class="u" d="M99.411,304.691c-.058.042-.115.085-.168.129-.19.158-.365.34-.564.487-.042.306-.184.631,0,.92.112.174.278.19.439.233a1.116,1.116,0,0,1-.152-.455A1.924,1.924,0,0,1,99.411,304.691Z" transform="translate(-96.742 -289.905)"/><path class="v" d="M214.936,279.874c-.064.968-1.249,1.124-2,1.272-1.259.249-2.539.444-3.79.73.135.787.187,1.586.341,2.372.121.619.308,1.221.462,1.83l.267-.051q-.143-.772-.306-1.54c-.129-.6-.316-1.209-.389-1.821a.06.06,0,0,1,0-.006s0-.008,0-.011c0-.022-.006-.043-.008-.065a.047.047,0,0,1,.016-.043.474.474,0,0,0,.006-.081.589.589,0,0,0-.029-.152.116.116,0,0,1,.064-.2c1.211-.162,2.424-.324,3.645-.392a4.557,4.557,0,0,0,1.78-.279,1.245,1.245,0,0,0,.714-1.354.05.05,0,0,1,.009-.034v0a.478.478,0,0,1-.016-.29A3.065,3.065,0,0,1,214.936,279.874Z" transform="translate(-199.362 -266.761)"/><path class="v" d="M220.691,368.388c.081-.013.162-.026.244-.041q-.033-.183-.066-.366-.129.034-.259.065C220.638,368.16,220.666,368.274,220.691,368.388Z" transform="translate(-210 -348.648)"/><path class="v" d="M216.917,318a6.869,6.869,0,0,1-.358-1.479,7.807,7.807,0,0,1-.238-1.423l-.12.016a.376.376,0,0,1,.032.132.337.337,0,0,1-.043.2,11.839,11.839,0,0,1,.475,1.85q.093.427.178.855C216.867,318.1,216.892,318.049,216.917,318Z" transform="translate(-205.897 -299.564)"/><path class="c" d="M87.969,341.732c-.177-.052-.362-.085-.536-.129a1.645,1.645,0,0,1-.75-.367.1.1,0,0,0-.077-.08q-.844-.209-1.672-.48-.33-.109-.657-.228l-.047-.017c-.325-.12-.815-.207-.529-.684a2.021,2.021,0,0,1,1.093-.789,2.174,2.174,0,0,1,.632-.1,4.739,4.739,0,0,1,.565.031c.532.808,1.1,1.595,1.655,2.384C87.755,341.423,87.862,341.578,87.969,341.732Z" transform="translate(-82.846 -321.615)"/><path class="e" d="M335.123,304.222h-1.809q-.937,0-1.874,0a14.141,14.141,0,0,1-1.663-.034.2.2,0,0,0-.036.127.141.141,0,0,0,.07.1c1.19-.024,2.381-.006,3.571-.006h1.757a13.211,13.211,0,0,1,1.647.018.553.553,0,0,0,.023-.109.648.648,0,0,0-.009-.113A10.937,10.937,0,0,1,335.123,304.222Z" transform="translate(-311.291 -289.438)"/><path class="k" d="M204.357,369.279c-.373.085-.752.152-1.129.214a2.382,2.382,0,0,1,.05.239c.408-.028.8-.066,1.2-.126C204.432,369.5,204.393,369.39,204.357,369.279Z" transform="translate(-193.866 -349.853)"/><path class="j" d="M250.5,240.47l-.183.007c-.124,0-.248.005-.372,0a7.8,7.8,0,0,1-1.173-.108c-.24-.04-.477-.093-.712-.155a.915.915,0,0,1-.328-.108.554.554,0,0,1-.112-.529,2.991,2.991,0,0,0,.034-.643,1.947,1.947,0,0,0-.091-.489c.328,0,.653.007.976.017a1.494,1.494,0,0,0,1.077-.217.678.678,0,0,0,.077-.08.558.558,0,0,0,.125-.445.488.488,0,0,0-.064-.174l.07-.026.055.192c.062.221.123.441.181.662A18.256,18.256,0,0,1,250.5,240.47Z" transform="translate(-235.021 -227.561)"/><path class="r" d="M211.991,377.493a.365.365,0,0,1-.148.233.376.376,0,0,1-.223.052.789.789,0,0,1-.157-.022.5.5,0,0,0-.013-.181c0-.008-.005-.017-.008-.027.067,0,.134,0,.2-.01C211.76,377.528,211.877,377.513,211.991,377.493Z" transform="translate(-201.49 -357.477)"/><path class="l" d="M243.591,300.64c-.175,0-.359,0-.514.01a.827.827,0,0,0-.227.045.974.974,0,0,0-.6.635,5.868,5.868,0,0,0-.711.089c-.718-.086-1.448-.1-2.171-.143-.5-.028-1.011-.082-1.519-.11.2-.024.4-.047.6-.067.745-.078,1.492-.093,2.237-.159a2.575,2.575,0,0,0,1.356-.445,1.516,1.516,0,0,0,.153-.134c.024-.024.047-.05.07-.077.224.053.456.07.683.1A1.358,1.358,0,0,1,243.591,300.64Z" transform="translate(-226.002 -285.816)"/><path class="w" d="M433.149,227.506a1.961,1.961,0,0,1,.037.265c0,.067.012.144.019.225a.3.3,0,0,0,.091-.215A.361.361,0,0,0,433.149,227.506Z" transform="translate(-407.271 -218.264)"/><path class="e" d="M329.872,225.926q0,.713,0,1.426,0,.746,0,1.491a8.4,8.4,0,0,1-.018,1.237c.06-.008.12-.014.18-.019,0-.088.006-.174.012-.261a10.42,10.42,0,0,1-.013-1.148q0-.707,0-1.415,0-.74,0-1.479a9.617,9.617,0,0,1,.018-1.206l-.011-.006a.2.2,0,0,0-.109-.063.208.208,0,0,0-.092.013A8.377,8.377,0,0,1,329.872,225.926Z" transform="translate(-311.382 -215.457)"/><path class="x" d="M345.506,221.913a1.154,1.154,0,0,0-.522-.388,1.2,1.2,0,0,0-.6-.117c-.85-.049-1.72,0-2.57,0-.9,0-1.822.058-2.724.02,0-.1,0-.191,0-.286a2.571,2.571,0,0,0-.047-.492.078.078,0,0,0-.009-.02.487.487,0,0,1,.062-.124.332.332,0,0,1,.185-.1,11.745,11.745,0,0,0,1.368.016h1.558c.519,0,1.038,0,1.557,0,.458,0,.928.018,1.385-.028a.484.484,0,0,1,.394.331,1.529,1.529,0,0,1,.078.449C345.634,221.4,345.71,221.77,345.506,221.913Z" transform="translate(-319.918 -211.661)"/><path class="c" d="M226.206,314.055a3.827,3.827,0,0,0-2.4,1.946,4.135,4.135,0,0,0-.219,3.019q-.516.121-1.036.225a.091.091,0,0,0,0-.031.8.8,0,0,0-.322-.591.15.15,0,0,0,.007-.027.254.254,0,0,0-.043-.2.279.279,0,0,0-.129-.093.252.252,0,0,0-.105-.016s0-.008,0-.012c.061-.014.121-.031.18-.049s.123-.039.183-.061a.091.091,0,0,0,.064-.1.112.112,0,0,0,.017-.084c0-.016-.006-.033-.009-.05-.043-.245-.089-.489-.135-.733a3.027,3.027,0,0,0,.6-1.882,1.937,1.937,0,0,0-.328-.906c-.129-.213-.273-.419-.393-.64l.279-.036a19.635,19.635,0,0,0,2.074.2C225.063,313.991,225.635,314.042,226.206,314.055Z" transform="translate(-211.256 -298.305)"/><path class="u" d="M158.9,274.964a.982.982,0,0,1-.267-.439c-.19-.465-.371-.934-.546-1.4s-.346-.943-.508-1.419a7.124,7.124,0,0,1-.4-1.339.049.049,0,0,1,.015-.042s0-.005,0-.008c.4-1.152.826-2.294,1.242-3.439.1-.286.215-.571.312-.859a1.6,1.6,0,0,0,.077-.267.347.347,0,0,0-.084-.316c-.644,1.613-1.359,3.2-1.929,4.84a.048.048,0,0,1-.027.029c.581,1.567,1.188,3.123,1.8,4.678a.04.04,0,0,1,0,.034A2.488,2.488,0,0,1,158.9,274.964Z" transform="translate(-150.758 -253.465)"/><path class="e" d="M303.15,305.03a.777.777,0,0,1-.373.179c-.3.057-.622-.044-.924.039a1,1,0,0,0-.578.478c.173-.007.345-.006.516,0,.218-.512.929-.357,1.459-.415A.332.332,0,0,1,303.15,305.03Z" transform="translate(-284.87 -290.219)"/><path class="q" d="M253.292,230.486a5.386,5.386,0,0,1-.855.069l-.045,0a6.121,6.121,0,0,1-.99-.206.061.061,0,0,0,0-.02c0-.051,0-.122-.009-.209a5.363,5.363,0,0,0,1.085.187,6.336,6.336,0,0,0,.789.011Z" transform="translate(-238.576 -220.688)"/><path class="t" d="M314.676,383.766a.423.423,0,0,1-.742-.341.426.426,0,0,1,.442-.358.475.475,0,0,1,.12.018.909.909,0,0,1,.144.134A.391.391,0,0,1,314.676,383.766Z" transform="translate(-296.614 -362.65)"/><path class="y" d="M119.883,318.312a3.971,3.971,0,0,0-2.018,1.316,3.814,3.814,0,0,0-.431.67,4.061,4.061,0,0,0-.149,3.273q-2.911.63-5.88,1.032l-.412.055a.057.057,0,0,0-.009-.017c-.575-.89-1.249-1.726-1.86-2.592-.3-.428-.6-.861-.9-1.293s-.612-.889-.926-1.328a.1.1,0,0,0-.035-.031.092.092,0,0,0-.041-.022.8.8,0,0,1-.615-.843c.211.3.725.378,1.058.45.823.177,1.648.353,2.474.511.556,1.545,1.145,3.082,1.782,4.594a.048.048,0,0,0,.038.03.032.032,0,0,0,.028.045,2.965,2.965,0,0,0,.457-.031c.073-.007.147-.012.221-.02a11.889,11.889,0,0,0,1.882-.248q1.044-.172,2.075-.418a.068.068,0,0,0,.077-.074.107.107,0,0,0-.007-.059,8.89,8.89,0,0,1-.124-1.228,3.61,3.61,0,0,1,.5-2.018,3.982,3.982,0,0,1,2.635-1.722C119.763,318.332,119.823,318.322,119.883,318.312Z" transform="translate(-104.19 -302.547)"/><path class="z" d="M233.19,378.163a.67.67,0,0,0-.434-.405,68.267,68.267,0,0,1-7.054,1.657c.561-.016,1.127,0,1.685,0h2.435c.833,0,1.669,0,2.5-.079.371-.035.839-.1.941-.533A1.04,1.04,0,0,0,233.19,378.163Zm-.266.807a.614.614,0,0,1-1.026-.177.646.646,0,0,1-.039-.242.608.608,0,0,1,.676-.587.582.582,0,0,1,.415.269.616.616,0,0,1,.1.291A.556.556,0,0,1,232.924,378.97Z" transform="translate(-214.726 -357.723)"/><path class="l" d="M80.31,367.8l-.033.02a3.4,3.4,0,0,1-2.939.1,2.526,2.526,0,0,1-1.64-2.126,2.948,2.948,0,0,1,.381-1.984,2.638,2.638,0,0,1,.392-.477l.007.005a8.707,8.707,0,0,0,1.292.406,1.554,1.554,0,0,0-.587.557,1.656,1.656,0,0,0,.776,2.443,1.676,1.676,0,0,0,1.651-.239,1.64,1.64,0,0,0,.29-.294,1.556,1.556,0,0,0,.229-1.542,2.221,2.221,0,0,0,.394.126,2.048,2.048,0,0,0,.355.068c.169.244.339.487.513.728A2.236,2.236,0,0,1,80.31,367.8Z" transform="translate(-75.471 -344.334)"/><path class="z" d="M108.935,382.438c-.077.163-.153.328-.225.492-.041.094-.08.189-.118.284-.123-.074-.255-.135-.381-.206a1.681,1.681,0,0,1,.144-.4l.033-.059C108.52,382.322,108.73,382.387,108.935,382.438Z" transform="translate(-105.675 -362.021)"/><path class="z" d="M116.618,374.651c-.16.275-.3.563-.455.84a.8.8,0,0,1-.311.347l-.005,0a.746.746,0,0,1-.5-.026c.068-.1.132-.207.192-.316a8.4,8.4,0,0,0,.519-1.223.722.722,0,0,0,.408.3l.135.049a.142.142,0,0,0,.012.019Z" transform="translate(-112.301 -354.49)"/><path class="t" d="M98.132,372.558a1.408,1.408,0,0,1-.139.127A1.482,1.482,0,0,1,95.6,371.31a1.306,1.306,0,0,1,.234-.586,2.145,2.145,0,0,1,.683-.572,5.128,5.128,0,0,0,1.009.259c-.073.167-.15.332-.229.5-.219-.055-.488-.169-.667.015a.965.965,0,0,0-.158.222,1.872,1.872,0,0,0-.174.53.1.1,0,0,0,.044.1,1.726,1.726,0,0,0,.484.2.065.065,0,0,0,.051.079.545.545,0,0,0,.726.133,2.817,2.817,0,0,0,.8-1.169A1.33,1.33,0,0,1,98.132,372.558Z" transform="translate(-93.956 -350.663)"/><path class="t" d="M311.61,378.476c-.022.032-.045.062-.07.091a1.3,1.3,0,0,1-.989.464,1.619,1.619,0,0,1-.785-.233l-.138-.07c.171,0,.358-.005.544-.022a2.436,2.436,0,0,0,.578-.111.88.88,0,0,0,.595-.531,1.1,1.1,0,0,0-.328-1.206c.066-.014.132-.032.2-.051a1.115,1.115,0,0,1,.4,1.669Z" transform="translate(-292.623 -356.84)"/><path class="c" d="M259.715,318.408a.055.055,0,0,1-.046-.024,5.267,5.267,0,0,0-.689-.3c-.166-.057-.334-.112-.5-.162a8.8,8.8,0,0,0-1.3-.283.052.052,0,0,1-.037.007,3.962,3.962,0,0,0-3.682,1.387,3.858,3.858,0,0,0-.805,1.942,4.036,4.036,0,0,0,.223,1.917,77.639,77.639,0,0,0,8.163-2.25v0A2.033,2.033,0,0,0,259.715,318.408Zm-6.23,2.753a.1.1,0,0,1-.055-.185c1.334-.382,2.694-.682,4.057-.934l.119-.022c.131-.024.192.177.06.2q-.249.045-.5.094C255.932,320.554,254.706,320.846,253.485,321.16Zm-.153-.917c1.372-.393,2.772-.7,4.176-.956.131-.024.191.177.059.2-1.407.257-2.8.584-4.181.94A.1.1,0,0,1,253.332,320.244Zm4.508.664c-1.408.257-2.8.584-4.182.94a.1.1,0,0,1-.054-.185q.2-.058.4-.113c.615-.168,1.236-.32,1.86-.458s1.273-.269,1.912-.385C257.911,320.683,257.972,320.883,257.84,320.908Z" transform="translate(-239.715 -301.887)"/><path class="u" d="M340.181,320.622c-.075-.124-.357-.077-.49-.084l-.256-.014a6.109,6.109,0,0,1,.784.314A.488.488,0,0,0,340.181,320.622Z" transform="translate(-320.289 -304.599)"/><path class="l" d="M311.793,312.447c-.121-.021-.241-.04-.359-.057l-.1-.014c-.123-.016-.247-.028-.372-.037a.953.953,0,0,1,.444-.175,2.645,2.645,0,0,1,.384-.023A1.809,1.809,0,0,1,311.793,312.447Z" transform="translate(-293.861 -296.82)"/><path class="aa" d="M352.442,322.246a4.307,4.307,0,0,1,.479.3c.038.027.075.055.112.085a.592.592,0,0,0,0-.089.63.63,0,0,0-.095-.3.647.647,0,0,0-.512-.281A1.173,1.173,0,0,1,352.442,322.246Z" transform="translate(-332.35 -305.925)"/><path class="l" d="M291.918,372.285c-.005.044-.011.088-.018.131a2.271,2.271,0,0,1-1.292,1.776c-1.153.535-3.344.256-3.94-1.025a1.606,1.606,0,0,1-.121-.376,4.25,4.25,0,0,0,.868-.093c.2-.029.4-.051.592-.086a.8.8,0,0,0,.1.119,1.527,1.527,0,0,0,1.076.362,1.5,1.5,0,0,0,1.166-.638,1.08,1.08,0,0,0,.078-.129,1.415,1.415,0,0,0-.355-1.74c.118-.044.236-.089.353-.127.271-.089.562-.148.828-.253A2.178,2.178,0,0,1,291.918,372.285Z" transform="translate(-271.199 -350.714)"/><path d="M128.295,298.037c.263.026.625.129.835-.089s.2-.638.249-.911a1.742,1.742,0,0,0,.043-.762.059.059,0,0,0,0-.012.424.424,0,0,0-.017-.047c-.008-.022-.016-.043-.026-.064a.045.045,0,0,0-.034-.025c-.255-.247-.9.279-1.084.425-.26.211-1.156.93-.728,1.318C127.717,298.038,128.065,298.014,128.295,298.037Zm-.452-.786a3.709,3.709,0,0,1,.36-.386c.138-.129.815-.75,1.076-.6a4.208,4.208,0,0,1-.157,1.059c0,.006,0,.013,0,.02-.439-.02-.881-.038-1.32-.042C127.815,297.282,127.831,297.265,127.843,297.251Zm-.193.27a.325.325,0,0,1,.1-.166c.452.029.908.043,1.361.054a.735.735,0,0,1-.052.231.579.579,0,0,1-.41.218,3.959,3.959,0,0,1-.652-.064C127.835,297.776,127.637,297.791,127.65,297.521Z" transform="translate(-123.5 -281.895)"/><path d="M312.466,381.586a.555.555,0,0,0,.127-.446.6.6,0,1,0-.127.446Zm-.437-.831a.491.491,0,0,1,.119.018c.222.166.392.435.181.682a.436.436,0,0,1-.72-.122A.427.427,0,0,1,312.029,380.755Z" transform="translate(-294.268 -360.339)"/><path d="M261.654,342.209c1.385-.356,2.774-.683,4.181-.94.132-.024.072-.225-.059-.2-1.4.257-2.8.563-4.177.956A.1.1,0,0,0,261.654,342.209Z" transform="translate(-247.982 -323.667)"/><path d="M267.147,351.252c-1.4.257-2.8.563-4.177.956a.1.1,0,0,0,.055.185c1.385-.356,2.774-.683,4.181-.94C267.338,351.428,267.278,351.228,267.147,351.252Z" transform="translate(-249.255 -333.119)"/><path d="M265.438,361.964c1.385-.356,2.774-.683,4.181-.94.132-.024.072-.225-.059-.2-1.4.257-2.8.563-4.177.956A.1.1,0,0,0,265.438,361.964Z" transform="translate(-251.495 -342.003)"/><path d="M198.367,144.846c.089.068.212-.058.122-.127-.139-.107-.413-.175-.529.006a.046.046,0,0,0,.041.069C198.133,144.8,198.251,144.758,198.367,144.846Z" transform="translate(-188.971 -141.325)"/><path d="M200.918,152.932c-.028-.077-.162-.094-.177,0a1.221,1.221,0,0,0,.019.34.105.105,0,0,0,.1.1.1.1,0,0,0,.1-.1c0-.057-.011-.113-.017-.17A.713.713,0,0,0,200.918,152.932Z" transform="translate(-191.552 -148.987)"/><path d="M207.357,156.838a1.8,1.8,0,0,0,.164-.111,1.188,1.188,0,0,0,.153-.1.028.028,0,0,0-.021-.047.492.492,0,0,0-.345.216C207.29,156.824,207.327,156.853,207.357,156.838Z" transform="translate(-197.649 -152.429)"/><path d="M211.772,157.363l.109-.067a.28.28,0,0,0,.09-.072c.017-.024-.012-.05-.036-.045a.284.284,0,0,0-.1.057l-.1.071C211.7,157.331,211.735,157.385,211.772,157.363Z" transform="translate(-201.751 -152.988)"/><path d="M98.739,107.93c-.076-.258-.215-.5-.443-.494a21.751,21.751,0,0,0-2.98-.048H93.759a11.009,11.009,0,0,0-1.557.023.085.085,0,0,0-.021.007.436.436,0,0,0-.23.154.325.325,0,0,0-.075.27,6.342,6.342,0,0,0-.027,1.257q0,.684,0,1.368,0,.652,0,1.3a12.962,12.962,0,0,0,.014,1.385.307.307,0,0,0,.045.227.424.424,0,0,0,.033.048c-.07,0-.141,0-.211.009q0-.068-.009-.136a8,8,0,0,0,.028-1.2q0-.74,0-1.479,0-.707,0-1.415a8.375,8.375,0,0,0-.032-1.369.059.059,0,0,0-.054-.048.279.279,0,0,0-.436.018.061.061,0,0,0,0,.057.059.059,0,0,0,0,.008,7.818,7.818,0,0,0-.034,1.38q0,.746,0,1.491,0,.713,0,1.426c0,.343-.031.713-.007,1.067-.017.288-.222.385-.48.417a.1.1,0,0,0,0-.01c-.221-.42-.948-.478-1.432-.467a.992.992,0,0,0,.117-.991.07.07,0,0,0,.05-.083c-.013-.093-.019-.185-.027-.278a.576.576,0,0,0,.445-.351,1.519,1.519,0,0,0-.094-.935,13.043,13.043,0,0,0-.861-2.379,6.854,6.854,0,0,0-2.941-3.286,1.89,1.89,0,0,0,.607-.074.081.081,0,0,0,.017-.147.417.417,0,0,1-.151-.092,2.531,2.531,0,0,1,.819.252.086.086,0,0,0,.124-.1,1.25,1.25,0,0,0-.313-.524,1.128,1.128,0,0,0,.623-.433.039.039,0,0,0,.005-.033.05.05,0,0,0-.062-.05,1.534,1.534,0,0,1-.684.055,1.776,1.776,0,0,1-.441-.147,2.486,2.486,0,0,0,.767-1,2.589,2.589,0,0,0-.453-2.686,3.541,3.541,0,0,0-5.478.545.114.114,0,0,0-.011.024,5.826,5.826,0,0,0-1.168.3.05.05,0,0,0,.028.1h.009a8.972,8.972,0,0,0,.855.283,1.225,1.225,0,0,0-.614.613.073.073,0,0,0,.1.1c.142-.086.288-.166.436-.243a.578.578,0,0,0,.558.72,5.791,5.791,0,0,0,.222.975.68.68,0,0,0-.227,1.078c.22.283.466.559.708.823a.564.564,0,0,0,.567.248.082.082,0,0,0,.072.016l.041-.01a2.56,2.56,0,0,0,1.209-.314,1.089,1.089,0,0,1,.2.156c.056.058.083.141.132.2-.047.064-.092.128-.133.194l0,.006-.007.011a.044.044,0,0,0,0,.038,1.44,1.44,0,0,0,.1.719.1.1,0,0,0,.159.039q.084-.082.168-.166c.037.594.127,1.191.222,1.782a11.69,11.69,0,0,0-1.961.211c.007-.06.008-.121.011-.183a.068.068,0,0,0-.086-.063,5.426,5.426,0,0,0-.805.188l0,0a.044.044,0,0,0-.027-.025.972.972,0,0,0-.89-.295q-.027-.02-.056-.037c.089-.349.176-.7.253-1.052a.32.32,0,0,0,.1-.009.418.418,0,0,0,.171.178.284.284,0,0,0,.166.041.065.065,0,0,0,.052,0c.2-.082.24-.279.275-.474a2.7,2.7,0,0,0,.053-.788.068.068,0,0,0,.014-.034c.016-.147-.2-.229-.323-.172a.851.851,0,0,0-.073-.171.047.047,0,0,0-.01-.011.04.04,0,0,0-.021-.026c-.438-.213-.673.427-.732.741a.7.7,0,0,0-.009.076.272.272,0,0,0-.072.016c-.056.018-.114.036-.169.057a.33.33,0,0,0-.12.072.043.043,0,0,0-.052.036,5.035,5.035,0,0,0-.071,1.046c0,.118-.008.238-.012.358a4.8,4.8,0,0,0-2.443.657.039.039,0,0,0,0,.061.032.032,0,0,0,.019.023,1.106,1.106,0,0,0,.348.056l.059,0c-.266.521-.274,1.34.344,1.593l.01,0a.482.482,0,0,0,.35.218c.044.007.613.01.416.212a.082.082,0,0,0-.025.076,8.783,8.783,0,0,0-3.673,2.448,2.476,2.476,0,0,0-.578.4,3.651,3.651,0,0,0-.652.61.065.065,0,0,0-.006.012.052.052,0,0,0-.006.008,1.19,1.19,0,0,0-.064,1.01c.165.341.465.333.785.443a.061.061,0,0,0,.039,0,.99.99,0,0,0,.4.214l.052.079a2.223,2.223,0,0,0-2.45,1.1c-.147.357.076.548.353.678a2.248,2.248,0,0,0-.918,1.847,3.089,3.089,0,0,0,.7,2.334,3.525,3.525,0,0,0,4.5.378,2.329,2.329,0,0,0,.907-1.9c.173.232.35.46.533.68l.012.011a.086.086,0,0,0,.1.1q1.689-.2,3.373-.479a28.046,28.046,0,0,0,3.172.067c.6,0,1.21.01,1.815.011.1,1.95,3.045,2.422,4.447,1.726a2.515,2.515,0,0,0,1.362-2.078c.075-.729-.017-1.8-.748-2.185a.1.1,0,0,0,0-.014q.65-.213,1.295-.44a.1.1,0,0,0,.062-.137,2.057,2.057,0,0,0-.693-1.946.693.693,0,0,0-.133-.665.729.729,0,0,0-.675-.269.242.242,0,0,0-.154-.121,3.167,3.167,0,0,0-.662-.025c-.249-.009-.5-.027-.747-.024q-.179-.042-.357-.076a.739.739,0,0,0-.043-.34,1.418,1.418,0,0,0,.749-.162c1.069.015,2.139,0,3.208,0h1.692a12.85,12.85,0,0,0,1.822-.023.077.077,0,0,0,.043-.023.071.071,0,0,0,.021-.016.4.4,0,0,0,.048-.418.078.078,0,0,0-.023-.024.057.057,0,0,0-.041-.034c-.047-.009-.095-.016-.142-.023a.429.429,0,0,0,.127-.364,13.323,13.323,0,0,0,.038-1.946q0-.512,0-1.025a6.1,6.1,0,0,0-.012-.81.265.265,0,0,0,.242-.13.668.668,0,0,0,.1-.379C99.168,108.641,99.131,107.968,98.739,107.93Zm-7.289-.058a.2.2,0,0,1,.109.063l.011.006a9.62,9.62,0,0,0-.018,1.206q0,.74,0,1.479,0,.708,0,1.415a10.42,10.42,0,0,0,.013,1.148c-.006.087-.011.174-.012.261-.06.005-.12.011-.18.019a8.407,8.407,0,0,0,.018-1.237q0-.746,0-1.491,0-.713,0-1.426a8.381,8.381,0,0,0-.033-1.43A.208.208,0,0,1,91.45,107.872Zm-1.6,5.546a1.365,1.365,0,0,1,.643.251,2.624,2.624,0,0,0-.742.056.972.972,0,0,0-.6.635,5.9,5.9,0,0,0-.711.089c-.719-.086-1.449-.1-2.171-.142-.5-.028-1.012-.082-1.519-.11.2-.024.4-.046.6-.067.744-.077,1.492-.093,2.236-.159a2.372,2.372,0,0,0,1.509-.579c.024-.024.047-.05.07-.077C89.388,113.369,89.62,113.386,89.848,113.418Zm-4.614,6.142q-.516.121-1.036.225a.09.09,0,0,0,0-.031.794.794,0,0,0-.322-.591.228.228,0,0,0,.007-.027.256.256,0,0,0-.043-.2.279.279,0,0,0-.234-.108s0-.008,0-.012a3.176,3.176,0,0,0,.363-.109.091.091,0,0,0,.064-.1.111.111,0,0,0,.018-.084q-.069-.392-.144-.782a3.032,3.032,0,0,0,.6-1.882,3.815,3.815,0,0,0-.72-1.545l.278-.036a19.51,19.51,0,0,0,2.075.2c.565.045,1.138.1,1.708.109a3.829,3.829,0,0,0-2.4,1.946A4.135,4.135,0,0,0,85.234,119.56Zm-4.506.8c-.614-1.555-1.22-3.111-1.8-4.678a.048.048,0,0,0,.027-.029c.57-1.644,1.285-3.226,1.929-4.84a.347.347,0,0,1,.084.316,1.6,1.6,0,0,1-.077.267c-.1.288-.208.573-.312.859-.416,1.145-.845,2.287-1.242,3.439,0,0,0,.006,0,.008a.049.049,0,0,0-.015.042,7.123,7.123,0,0,0,.4,1.339q.243.713.508,1.419c.176.47.356.939.546,1.4a.982.982,0,0,0,.267.439,2.484,2.484,0,0,0-.311.047A.04.04,0,0,0,80.728,120.359Zm4.72-10.625c.327,0,.653.007.975.017a1.494,1.494,0,0,0,1.077-.217.551.551,0,0,0,.137-.7l.07-.026a21.819,21.819,0,0,1,.676,2.948l-.183.007a7.79,7.79,0,0,1-1.545-.1c-.24-.04-.477-.092-.712-.155a.921.921,0,0,1-.328-.109.553.553,0,0,1-.112-.529A2.472,2.472,0,0,0,85.448,109.733Zm.275-1.458a5.907,5.907,0,0,0,1.874.2q.01.085.02.17a4.982,4.982,0,0,1-.9.067,6.2,6.2,0,0,1-.99-.206.07.07,0,0,0,0-.02C85.731,108.433,85.728,108.362,85.723,108.275Zm3.534,3.856,0,0a.05.05,0,0,0-.009.034,1.245,1.245,0,0,1-.714,1.354,4.557,4.557,0,0,1-1.78.28c-1.221.068-2.434.23-3.645.392a.116.116,0,0,0-.064.2.587.587,0,0,1,.029.152.472.472,0,0,1-.006.081.047.047,0,0,0-.016.043c0,.022.006.043.008.065,0,0,0,.008,0,.011a.055.055,0,0,0,0,.006c.073.612.261,1.22.389,1.821q.164.768.306,1.54l-.267.051c-.155-.609-.342-1.211-.462-1.83-.153-.787-.205-1.585-.341-2.372,1.25-.286,2.53-.481,3.79-.73.749-.148,1.934-.3,2-1.272a3.066,3.066,0,0,0,.765-.118A.479.479,0,0,0,89.257,112.131Zm-5.588,4.443a11.842,11.842,0,0,0-.475-1.85.337.337,0,0,0,.043-.2.376.376,0,0,0-.032-.132l.12-.016a7.806,7.806,0,0,0,.238,1.423,6.869,6.869,0,0,0,.358,1.479c-.025.049-.05.1-.074.148Q83.761,117,83.669,116.575Zm.168,1.97c-.082.015-.163.028-.244.041-.025-.114-.053-.228-.081-.342q.13-.031.259-.065Q83.8,118.361,83.837,118.544Zm-.086-2.733a12.3,12.3,0,0,0-.3-1.449l.186-.025c.1.487.572.864.647,1.378a2.224,2.224,0,0,1-.134,1.072,2.578,2.578,0,0,1-.121.278C83.982,116.647,83.834,116.217,83.751,115.812Zm-.89,3.132-.008-.027a3.629,3.629,0,0,0,.549-.055.363.363,0,0,1-.148.233.5.5,0,0,1-.38.031A.5.5,0,0,0,82.861,118.944Zm-.548-.219a2.383,2.383,0,0,0-.05-.239c.377-.062.756-.129,1.129-.214.036.111.074.22.117.327C83.111,118.659,82.721,118.7,82.313,118.725Zm5.629-6.026-.005-.01c-.1-.15-.2-.288-.292-.444-.051-.09-.091-.19-.141-.283q.35.02.7.009l.208-.008A.94.94,0,0,1,87.942,112.7Zm-1.632-.9.116.022a7.539,7.539,0,0,0,.917.129,1.282,1.282,0,0,0,.149.386,1.823,1.823,0,0,0,.308.444,2.34,2.34,0,0,1-.481.177c-.5.127-1.01.2-1.513.3-1.048.206-2.1.46-3.148.633a.032.032,0,0,0-.019.051.024.024,0,0,0,0,.013,12.442,12.442,0,0,0,.3,2.338,16.887,16.887,0,0,0,.429,1.891l-.4.08a4.536,4.536,0,0,1-.726.134c-.073-.259-.174-.517-.239-.772-.106-.415-.192-.834-.268-1.255-.08-.449-.147-.9-.211-1.351A6.194,6.194,0,0,1,81.466,114a.754.754,0,0,1,.175-.339,2.971,2.971,0,0,1,.973-.555q.622-.284,1.262-.526C84.676,112.282,85.5,112.066,86.31,111.8Zm-4.053,7.347v0a.186.186,0,0,0,.045.129,2.168,2.168,0,0,1-.4.225,2.074,2.074,0,0,1-.6.1,1.019,1.019,0,0,0-.221.044.393.393,0,0,0-.185.068c-.011-.03-.021-.059-.031-.086a3.585,3.585,0,0,1,1.01-.318A1.015,1.015,0,0,0,82.257,119.147Zm-1.276.781c.5-.225,1.115-.091,1.461-.625a.045.045,0,0,0,.007-.026.057.057,0,0,0,0-.053c-.016-.027-.043-.05-.045-.083a.1.1,0,0,1,.073-.09.5.5,0,0,1,.247.008c0,.055,0,.161.074.154a.45.45,0,0,0,.561.051.6.6,0,0,0,.232-.283.134.134,0,0,1,.13.054c.041.067-.017.133.007.2a.049.049,0,0,0,.045.034,1.727,1.727,0,0,1,.148.214,1.2,1.2,0,0,1,.1.3.086.086,0,0,0,.017.034c-.255.05-.51.1-.767.14-.662.111-1.362.134-2.014.287A.53.53,0,0,1,80.981,119.928Zm7.444-12.248a11.108,11.108,0,0,1,.845,1.943c.107.321.2.646.29.974.039.149.086.3.113.453a.487.487,0,0,1-.154.5,3.079,3.079,0,0,1-1.055.2,16.2,16.2,0,0,0-.711-2.955.077.077,0,0,0,.058-.086,11.243,11.243,0,0,0-.42-2.26c-.032-.11-.069-.225-.114-.339A7.8,7.8,0,0,1,88.425,107.681ZM86.6,105.53a.779.779,0,0,1,.158.1l.024.021a2.6,2.6,0,0,1,.555,1.327,12.33,12.33,0,0,1,.254,1.419,9.012,9.012,0,0,1-1.868-.177C85.664,107.311,85.479,105,86.6,105.53Zm.755-1.655a1.408,1.408,0,0,1-.493.191.085.085,0,0,0-.035.142,1.133,1.133,0,0,1,.307.37,2.918,2.918,0,0,0-.869-.2.082.082,0,0,0-.068.124.661.661,0,0,0,.145.185,1.614,1.614,0,0,1-1.232-.284.1.1,0,0,0-.027-.019l-.009-.007a3.074,3.074,0,0,0,.206-.271,2.563,2.563,0,0,0,1.05-.4A1.144,1.144,0,0,0,87.351,103.875Zm-6.916-3.054a8.229,8.229,0,0,0,1.029-.185.089.089,0,0,0,.063-.1,3.251,3.251,0,0,1,2.92-1.467,2.937,2.937,0,0,1,2.6,1.579,2.341,2.341,0,0,1-.873,2.906c-.326.207-1.359.7-1.549.115a4.42,4.42,0,0,1-.088-.892c-.025-.261-.052-.521-.093-.78a.1.1,0,0,0-.056-.161c-.7-.2-1.4-.376-2.1-.553C81.674,101.128,81.058,100.933,80.435,100.821Zm4.1,3.124a3.813,3.813,0,0,1-.378.486,1.2,1.2,0,0,1-.108-.668.567.567,0,0,1,.321-.37c.013.1.028.193.046.287A.568.568,0,0,0,84.537,103.945Zm-3.049-2.516.012.012a.048.048,0,0,0-.007.02,3.925,3.925,0,0,0,.012.7.435.435,0,0,1-.359-.659.062.062,0,0,0-.086-.083c-.122.066-.245.131-.369.194a1.448,1.448,0,0,1,.563-.414c.308.084.617.162.921.248.539.152,1.079.3,1.621.448a2.261,2.261,0,0,1-.842-.113.068.068,0,0,0-.074.1c.043.06.088.118.136.173a3.005,3.005,0,0,1-1.475-.685A.04.04,0,0,0,81.488,101.429Zm.119.117a2.6,2.6,0,0,0,1.646.715.087.087,0,0,0,.041-.162.817.817,0,0,1-.171-.123,2.126,2.126,0,0,0,1.061.021l.1.027c0,.317.013.647.04.972-.172.05-.328.147-.5.21a3.062,3.062,0,0,1-.734.177,2.81,2.81,0,0,1-.658,0c-.181-.023-.354-.092-.534-.109C81.779,102.7,81.7,102.127,81.607,101.547Zm1.225,3.761a.083.083,0,0,0-.035-.012c-.414-.032-.734-.577-.98-.867-.177-.209-.355-.394-.245-.691a1.449,1.449,0,0,1,.272-.346.086.086,0,0,0,.038-.016,1.988,1.988,0,0,0,1.272.185,2.433,2.433,0,0,0,1.19-.4c0,.04.01.079.014.119a.689.689,0,0,0-.432.4,1.344,1.344,0,0,0,.123.871A3.325,3.325,0,0,1,82.832,105.308Zm.742-.117a2.6,2.6,0,0,0,1.061-1.159.734.734,0,0,0,.415.1A2.865,2.865,0,0,1,83.573,105.19Zm.848-.019a.51.51,0,0,0-.08-.063,2.7,2.7,0,0,0,.35-.265c.115-.093.229-.187.343-.281a1.685,1.685,0,0,0,.166.106c-.212.216-.441.442-.639.683A.717.717,0,0,0,84.421,105.172Zm.1,1.1a2.5,2.5,0,0,1-.117-.524,6.884,6.884,0,0,0,.961-1,1.693,1.693,0,0,0,.4.108C85.363,105.349,84.97,105.823,84.523,106.274Zm.311-.043a8.588,8.588,0,0,0,1.03-1.267c.142.1.284.205.424.308-.493.023-.708.537-.76.98a6.688,6.688,0,0,0,.055,2.254.069.069,0,0,0,0,.009.052.052,0,0,0,0,.007,3.642,3.642,0,0,0-.372,0A21.271,21.271,0,0,0,84.835,106.232Zm.993,2.465a2.582,2.582,0,0,0,1.639.184.459.459,0,0,1-.351.631,1.963,1.963,0,0,1-.566.038c-.388-.009-.777-.024-1.165-.036-.744-.023-1.511-.088-2.255-.037,0-.24,0-.48-.008-.72a12.572,12.572,0,0,0,1.394,0A6.579,6.579,0,0,0,85.828,108.7Zm-.9-.4a.729.729,0,0,0-.013.237c-.16.011-.318.023-.47.028a12.373,12.373,0,0,0-1.331.072c0-.064,0-.128-.006-.192h0A12.943,12.943,0,0,0,84.931,108.3Zm-1.9,1.586a.1.1,0,0,0,.1-.1c0-.056,0-.112,0-.168a18.312,18.312,0,0,0,2.174.117,5.691,5.691,0,0,1,.031.871c-.019.23-.137.518-.023.741a.9.9,0,0,0,.6.373.024.024,0,0,0,0,.01,14.777,14.777,0,0,0-2.38.759q-.634.25-1.251.541a2.518,2.518,0,0,0-.786.477,1.191,1.191,0,0,0-.229,1.065q.007.133.017.266.084.621.185,1.239c.076.463.162.924.271,1.38a8.961,8.961,0,0,0,.249.966,1.7,1.7,0,0,0,.095.379.353.353,0,0,0,.136.16,2.137,2.137,0,0,1-.992.312.692.692,0,0,0-.42.2c0-.014-.009-.027-.012-.04h0c-.053-.133-.105-.266-.157-.4q-.215-.557-.417-1.118c-.135-.374-.266-.75-.394-1.126a8.7,8.7,0,0,0-.361-1.016.085.085,0,0,0,.03-.039c.445-1.158.859-2.33,1.285-3.5.1-.28.212-.558.306-.841a.957.957,0,0,0,.062-.538.436.436,0,0,0-.158-.24,1.489,1.489,0,0,0,.419-.49,1.576,1.576,0,0,0,.239-.577.5.5,0,0,0,.235-.013.079.079,0,0,0,.04.055A2.757,2.757,0,0,0,83.027,109.885Zm-1.391-1.728a4.089,4.089,0,0,1,.374.2.068.068,0,0,0,.068.068,3.788,3.788,0,0,0,.784-.184.966.966,0,0,0,0,.117,2.817,2.817,0,0,0-.856.206,1.461,1.461,0,0,0-.5-.236.534.534,0,0,0-.166-.244A1.35,1.35,0,0,1,81.636,108.157Zm-.446.026a.954.954,0,0,1,.086.1,1.408,1.408,0,0,0-.331,0c.007-.095.012-.192.018-.291A2.1,2.1,0,0,1,81.189,108.184Zm.721-1.955a1.4,1.4,0,0,0,.021-.452l.033-.008a.161.161,0,0,1,.129.029c-.051.33,0,.873-.252,1.111a.63.63,0,0,1-.116-.051.368.368,0,0,1-.067-.073A1.1,1.1,0,0,0,81.91,106.228Zm-.617-.254a.618.618,0,0,1,.43-.47,2.011,2.011,0,0,1,.005.677,3.419,3.419,0,0,1-.225.5C81.141,106.637,81.217,106.234,81.293,105.975Zm0,.864a5.614,5.614,0,0,0-.268,1.025.42.42,0,0,0-.052-.014v0a.044.044,0,0,0,.02-.025,5.266,5.266,0,0,0,.126-.632c.029-.136.07-.27.1-.406A.292.292,0,0,0,81.289,106.839Zm-.158-.17a2.624,2.624,0,0,0-.147.532l-.009.041a5.569,5.569,0,0,0-.047-.624,1.028,1.028,0,0,0,.168-.031A.673.673,0,0,0,81.131,106.669Zm-.392.835a7.507,7.507,0,0,0,0-1.041.42.42,0,0,0,.167-.028c.042-.013.1-.021.145-.041,0,.025.007.05.012.075a.934.934,0,0,0-.178.059.041.041,0,0,0-.044.024l0,0a.033.033,0,0,0-.005.053,8.418,8.418,0,0,0-.02,1.709c-.029.007-.058.015-.086.024C80.752,108.063,80.734,107.779,80.739,107.5Zm1.16,1.209a.094.094,0,0,0,.1.01c.3-.025.607-.109.91-.159.02.37.022.74.014,1.11a5.509,5.509,0,0,1-.922-.23.083.083,0,0,0-.081-.1,2.1,2.1,0,0,1-.317.01.933.933,0,0,1-.247-.089.355.355,0,0,0,0-.32.372.372,0,0,0-.429-.174.363.363,0,1,0,.223.69.342.342,0,0,0,.089-.049,2.123,2.123,0,0,1-.206.19,1.046,1.046,0,0,1-.315.116,2.663,2.663,0,0,1-.305-.377,1.743,1.743,0,0,1-.149-.471A1.218,1.218,0,0,1,81.9,108.712Zm-.78.563a.2.2,0,0,1-.281-.152.217.217,0,0,1,.131-.21.268.268,0,0,1,.206.069A.2.2,0,0,1,81.119,109.275Zm-.586.835c.011.022.031.034.044.055a.2.2,0,0,1,.026.068.1.1,0,0,1-.063.1c-.094.036-.162-.063-.147-.149a.069.069,0,0,0,.034-.059c.009-.315-.346-.437-.412-.72a.679.679,0,0,1,.1-.136.311.311,0,0,1,.056-.047,1.081,1.081,0,0,0,.153.341c.023.066.051.13.073.192a2.087,2.087,0,0,0,.136.323A.048.048,0,0,0,80.534,110.11Zm-1.768-.287a1.1,1.1,0,0,0,.021.129c-.407-.323-.222-.871-.13-1.339l.213.017A3.519,3.519,0,0,0,78.766,109.822Zm.147-1.349c-.137-.008-.274-.012-.411-.018-.058,0-.117-.007-.175-.008a6.283,6.283,0,0,1,.674-.224C78.968,108.3,78.939,108.388,78.913,108.474Zm.542,1.758a.767.767,0,0,1-.43-.182.682.682,0,0,1-.073-.329,3.135,3.135,0,0,1,.012-.451,10.207,10.207,0,0,1,.169-1.082,6.75,6.75,0,0,1,1.418-.194,3.361,3.361,0,0,0,.018.412.956.956,0,0,0-.4.383.075.075,0,0,1-.02.033.792.792,0,0,0-.013.244.574.574,0,0,0-.126.135.494.494,0,0,0-.085.242.036.036,0,0,0,.008.028c-.012.271.345.391.344.661a.067.067,0,0,0,.014.042.2.2,0,0,0,.019.219.235.235,0,0,0,.421-.154.217.217,0,0,0-.131-.186,1.75,1.75,0,0,0-.078-.275.585.585,0,0,0,.125.064.057.057,0,0,0,.027,0,.551.551,0,0,0,.456-.087c.1-.062.236-.182.246-.309a.653.653,0,0,0,.147.074c-.108.163-.19.344-.3.509s-.277.321-.373.5a.07.07,0,0,0,0,.012.858.858,0,0,0-.387-.033,4.319,4.319,0,0,0-.587.117C79.967,110.423,79.654,110.267,79.454,110.232Zm-2.86,2.531a8.2,8.2,0,0,1,2.513-1.637,6.338,6.338,0,0,1,1.322-.417.6.6,0,0,1,.373.044,51.044,51.044,0,0,0-1.94,4.87.047.047,0,0,0-.044.063c-.6-.128-1.193-.244-1.79-.361-.494-.1-1.475-.117-1.7-.658a1.788,1.788,0,0,1,.231-.687A5.886,5.886,0,0,1,76.594,112.763Zm-1.755,2.4c-.186-.289-.044-.614,0-.92.2-.147.373-.329.564-.487.053-.044.11-.087.168-.129a1.924,1.924,0,0,0-.443,1.313,1.116,1.116,0,0,0,.152.455C75.117,115.357,74.951,115.342,74.839,115.168Zm-1.082,1.809a2.021,2.021,0,0,1,1.094-.789,2.8,2.8,0,0,1,1.2-.07c.532.807,1.1,1.595,1.655,2.384q.162.229.322.461c-.177-.052-.362-.085-.536-.13a1.643,1.643,0,0,1-.75-.366.1.1,0,0,0-.077-.08c-.563-.139-1.121-.3-1.672-.48q-.354-.117-.7-.246C73.961,117.541,73.471,117.454,73.757,116.977Zm2.9,1.654a.72.72,0,0,0,.408.3l.134.049a.1.1,0,0,0,.012.019l0,0c-.16.275-.3.563-.455.84a.786.786,0,0,1-.316.349.744.744,0,0,1-.5-.025A6.874,6.874,0,0,0,76.661,118.63Zm-.842,1.41c-.123-.074-.255-.135-.381-.206a1.631,1.631,0,0,1,.176-.46c.133-.227.342-.162.548-.11C76.041,119.521,75.922,119.779,75.819,120.04Zm.424-.949c-.219-.055-.488-.169-.667.015a1.489,1.489,0,0,0-.332.752.1.1,0,0,0,.044.1,1.725,1.725,0,0,0,.484.2.065.065,0,0,0,.051.079c.7.693,1.252-.426,1.531-1.036a1.332,1.332,0,0,1-.276,1.534,1.482,1.482,0,0,1-2.532-1.249,1.6,1.6,0,0,1,.917-1.157,5.154,5.154,0,0,0,1.008.258C76.4,118.76,76.321,118.925,76.243,119.091Zm1.464,3.237a3.4,3.4,0,0,1-2.939.1,2.527,2.527,0,0,1-1.64-2.125,2.782,2.782,0,0,1,.773-2.461l.007.006a8.792,8.792,0,0,0,1.292.406,1.664,1.664,0,0,0,.189,3,1.67,1.67,0,0,0,1.941-.533,1.557,1.557,0,0,0,.23-1.542,2.223,2.223,0,0,0,.394.126,2.092,2.092,0,0,0,.356.068c.169.244.339.487.513.728A2.237,2.237,0,0,1,77.707,122.328Zm2-1.373a.091.091,0,0,0-.008-.017c-.575-.89-1.249-1.726-1.861-2.592s-1.2-1.756-1.821-2.621a.1.1,0,0,0-.036-.031.092.092,0,0,0-.04-.021.8.8,0,0,1-.615-.843c.211.3.725.378,1.058.45.823.178,1.647.353,2.474.511.556,1.545,1.145,3.082,1.782,4.595a.048.048,0,0,0,.038.029.032.032,0,0,0,.027.045,3.019,3.019,0,0,0,.457-.031c.073-.007.147-.012.221-.02a11.823,11.823,0,0,0,1.882-.247c.7-.115,1.388-.256,2.075-.418a.068.068,0,0,0,.077-.074.11.11,0,0,0-.008-.059,4.556,4.556,0,0,1,.372-3.246,3.982,3.982,0,0,1,2.635-1.722c.06-.012.12-.022.181-.032a3.969,3.969,0,0,0-2.019,1.316,4.017,4.017,0,0,0-.58,3.942Q82.882,120.543,79.7,120.955ZM88,120.538q-1.218,0-2.435,0c-.558,0-1.123-.017-1.685,0a68.111,68.111,0,0,0,7.054-1.657.9.9,0,0,1,.506,1.045c-.1.431-.57.5-.941.533C89.666,120.538,88.831,120.538,88,120.538Zm3.3-1.674c.066-.014.132-.031.2-.051a1.12,1.12,0,0,1,.326,1.76,1.3,1.3,0,0,1-.989.464,1.927,1.927,0,0,1-.923-.3c.641-.006,1.5-.04,1.717-.664A1.1,1.1,0,0,0,91.294,118.863Zm2.307,1.684a2.271,2.271,0,0,1-1.292,1.775c-1.258.584-3.751.2-4.061-1.4a4.205,4.205,0,0,0,.868-.093c.2-.029.4-.05.592-.086a1.4,1.4,0,0,0,1.172.482,1.5,1.5,0,0,0,1.165-.638,1.417,1.417,0,0,0-.276-1.869c.118-.044.235-.089.352-.127.272-.088.562-.148.828-.252A2.244,2.244,0,0,1,93.6,120.547Zm-.109-5.395a.63.63,0,0,1,.095.3.594.594,0,0,1,0,.089c-.037-.029-.074-.057-.112-.084a4.305,4.305,0,0,0-.479-.3,1.172,1.172,0,0,0-.013-.295A.647.647,0,0,1,93.493,115.153Zm-1.189-.369c.132.007.415-.039.49.084a.488.488,0,0,1,.038.215,6.111,6.111,0,0,0-.784-.314Zm-.137.263a5.175,5.175,0,0,1,.689.3.057.057,0,0,0,.046.024,2.034,2.034,0,0,1,1.327,2.234v0a77.654,77.654,0,0,1-8.162,2.25,3.873,3.873,0,0,1,4.264-5.245.053.053,0,0,0,.037-.007A9.368,9.368,0,0,1,92.166,115.047ZM90,114.365a1.317,1.317,0,0,1,.827-.2,1.827,1.827,0,0,1,0,.305c-.155-.027-.309-.051-.459-.071C90.251,114.385,90.127,114.374,90,114.365Zm-.18-.011c-.171-.007-.344-.008-.516,0a1,1,0,0,1,.578-.478c.3-.083.619.018.924-.039a.777.777,0,0,0,.373-.179.333.333,0,0,0,.1.283C90.751,114,90.04,113.842,89.822,114.354Zm8.589-.743a.647.647,0,0,1,.009.113.553.553,0,0,1-.023.109,13.207,13.207,0,0,0-1.647-.018H94.994c-1.19,0-2.382-.018-3.571.006a.141.141,0,0,1-.07-.1.2.2,0,0,1,.036-.127,14.139,14.139,0,0,0,1.663.034q.937,0,1.874,0h1.809A10.936,10.936,0,0,0,98.411,113.611ZM92.052,111.9q0-.684,0-1.368t0-1.368c0-.136.006-.276.011-.417.905-.038,1.825.019,2.732.02s1.813.057,2.706-.007a2.591,2.591,0,0,1,.431.168c.146.076.264.2.4.286a4.395,4.395,0,0,0-.027.84q0,.544,0,1.089a13.7,13.7,0,0,0,.036,1.923.317.317,0,0,1-.059.162c-.054.071-.132.092-.194.15a.073.073,0,0,0-.022.044c-.423-.024-.865.016-1.277.016H93.176c-.333,0-.674-.012-1.013-.009-.051-.063-.118-.1-.139-.184a.074.074,0,0,0,.006-.02A10.969,10.969,0,0,0,92.052,111.9Zm6.438-2.8a1.153,1.153,0,0,0-.522-.388,1.2,1.2,0,0,0-.6-.117c-.85-.049-1.721,0-2.57,0-.9,0-1.822.057-2.725.02a3.369,3.369,0,0,0-.044-.778.063.063,0,0,0-.008-.02.485.485,0,0,1,.062-.124.328.328,0,0,1,.185-.1,11.76,11.76,0,0,0,1.368.016H95.19c.519,0,1.038,0,1.557,0,.457,0,.928.019,1.385-.028.394.069.45.435.471.78C98.617,108.583,98.693,108.955,98.49,109.1Zm.344-.52c-.006-.081-.014-.158-.019-.225a1.967,1.967,0,0,0-.037-.265.361.361,0,0,1,.146.276A.3.3,0,0,1,98.834,108.578Z" transform="translate(-72.901 -98.846)"/><path class="ab" d="M382.244,245.443h0l-.142,1.6Z" transform="translate(-359.891 -234.912)"/><path class="ab" d="M383.615,260.292l-1.513.531,1.513-.531Z" transform="translate(-359.891 -248.695)"/><path class="p" d="M345.4,238.844q0-.544,0-1.089c0-.038,0-.076,0-.114a3.433,3.433,0,0,1,.028-.726c-.139-.082-.257-.209-.4-.286a2.574,2.574,0,0,0-.431-.168c-.892.064-1.811.008-2.705.007s-1.827-.058-2.732-.02c0,.085-.007.169-.009.252,0,.056,0,.112,0,.166q0,.685,0,1.368t0,1.368a10.882,10.882,0,0,1-.022,1.325.068.068,0,0,1-.007.02c.022.085.089.121.14.184.339,0,.68.009,1.013.009h3.618c.412,0,.854-.04,1.277-.016a.07.07,0,0,1,.022-.044c.062-.058.141-.079.194-.15a.312.312,0,0,0,.059-.162A13.6,13.6,0,0,1,345.4,238.844Z" transform="translate(-319.986 -226.552)"/><path class="x" d="M183.52,114.825c-.326.207-1.359.7-1.549.115a4.371,4.371,0,0,1-.088-.892c-.026-.261-.053-.521-.093-.779a.1.1,0,0,0-.056-.161c-.7-.2-1.4-.376-2.1-.553-.611-.155-1.227-.349-1.85-.461a8.346,8.346,0,0,0,1.029-.185.089.089,0,0,0,.062-.1,3.091,3.091,0,0,1,.318-.418.909.909,0,0,0,.194.483,1.821,1.821,0,0,0,.88.563,3.778,3.778,0,0,0,1.759.133,2.093,2.093,0,0,0,1.439-.921,1.179,1.179,0,0,0,.187-.657,2.384,2.384,0,0,1,.74.929A2.341,2.341,0,0,1,183.52,114.825Z" transform="translate(-170.25 -110.118)"/><path class="ac" d="M208.273,106.92a1.246,1.246,0,0,0,.923-.306.488.488,0,0,0,.137-.231.27.27,0,0,0-.066-.252.365.365,0,0,0-.256-.078,1.445,1.445,0,0,0-.6.148.988.988,0,0,0-.287.187.48.48,0,0,0-.148.3.22.22,0,0,0,.014.1C208.029,106.893,208.161,106.917,208.273,106.92Z" transform="translate(-198.269 -105.536)"/><path class="n" d="M196.814,137.9c-.171.049-.328.146-.5.209-.062.023-.125.045-.188.064-.018-.244-.066-.487-.087-.732a2.184,2.184,0,0,1-1.46-.231.31.31,0,0,1,.2.059c.089.068.212-.058.122-.127-.127-.1-.366-.163-.494-.036a2.016,2.016,0,0,1-.244-.192c-.025-.154-.049-.309-.075-.465a2.6,2.6,0,0,0,1.646.715.087.087,0,0,0,.041-.162.808.808,0,0,1-.171-.123,2.128,2.128,0,0,0,1.061.021l.1.028C196.777,137.243,196.786,137.573,196.814,137.9Z" transform="translate(-185.387 -133.747)"/><path class="j" d="M211.662,160.268a3.328,3.328,0,0,1-1.217.762.082.082,0,0,0-.035-.011l-.019,0a2.432,2.432,0,0,0,.876-1.823,1.76,1.76,0,0,0,.69-.313c0,.04.01.079.014.119a.69.69,0,0,0-.432.4A1.348,1.348,0,0,0,211.662,160.268Z" transform="translate(-200.515 -154.569)"/><path class="n" d="M233.016,178.54c-.115.117-.235.237-.352.36l-.083.041a3.307,3.307,0,0,1-.313.135l-.033-.033a.473.473,0,0,0-.08-.063,2.7,2.7,0,0,0,.35-.265c.116-.093.229-.187.343-.282A1.5,1.5,0,0,0,233.016,178.54Z" transform="translate(-220.716 -172.717)"/><path class="ad" d="M196.79,165.819a.118.118,0,0,0-.046.073.726.726,0,0,0,.02.424,1.514,1.514,0,0,0,.2.379,1.008,1.008,0,0,0,.451.4,1.9,1.9,0,0,1-.31-.464.723.723,0,0,1-.027-.545.323.323,0,0,0,.033-.105.162.162,0,0,0-.088-.14.364.364,0,0,0-.168-.037A.123.123,0,0,0,196.79,165.819Z" transform="translate(-187.828 -160.997)"/><path class="g" d="M178.554,239.52a.347.347,0,0,0,.089-.049,2.075,2.075,0,0,1-.206.19,1.049,1.049,0,0,1-.315.116c-.089-.114-.2-.2-.276-.326h0a.465.465,0,0,1,.286-.474.371.371,0,0,0-.066.244A.377.377,0,0,0,178.554,239.52Z" transform="translate(-170.301 -228.91)"/><path class="g" d="M191.891,239.121h.013q0,.248,0,.5a5.506,5.506,0,0,1-.922-.231.083.083,0,0,0-.081-.1,2.116,2.116,0,0,1-.317.01.956.956,0,0,1-.247-.089.353.353,0,0,0,0-.32.317.317,0,0,0-.025-.038c.127.033.254.079.38.115A5.608,5.608,0,0,0,191.891,239.121Z" transform="translate(-181.874 -228.791)"/><path class="ae" d="M242.112,181.6a2.883,2.883,0,0,1-.349-.181c.116-.131.229-.265.338-.393a1.7,1.7,0,0,0,.4.108C242.368,181.3,242.241,181.45,242.112,181.6Z" transform="translate(-229.633 -175.126)"/><path class="af" d="M249.049,184.466c.11-.143.214-.29.311-.438.142.1.284.206.424.309a.653.653,0,0,0-.489.255C249.215,184.546,249.132,184.505,249.049,184.466Z" transform="translate(-236.396 -177.909)"/><path class="n" d="M219.61,238.555a.458.458,0,0,1-.351.63,1.952,1.952,0,0,1-.567.038c-.388-.009-.776-.024-1.165-.035-.744-.023-1.511-.088-2.255-.037,0-.1,0-.193,0-.29a14.5,14.5,0,0,0,2.967-.047.924.924,0,0,0,.529-.2l.011-.013A2.506,2.506,0,0,0,219.61,238.555Z" transform="translate(-205.045 -228.519)"/><path class="ag" d="M255.25,190.887a.738.738,0,0,1,.158.1l.024.02a2.6,2.6,0,0,1,.556,1.327,12.412,12.412,0,0,1,.254,1.419c-.264,0-.521,0-.776-.025,0-.059,0-.118,0-.175a7.311,7.311,0,0,0-.244-1.491,2.011,2.011,0,0,0-.551-1.029l-.058-.047A.469.469,0,0,1,255.25,190.887Z" transform="translate(-241.555 -184.202)"/><path class="ah" d="M266.7,232.734l.02.17a5.385,5.385,0,0,1-.855.069.977.977,0,0,0,.047-.25A6.341,6.341,0,0,0,266.7,232.734Z" transform="translate(-251.999 -223.106)"/><path class="v" d="M273.447,289.362a1.488,1.488,0,0,0,.2.25,2.32,2.32,0,0,1-.481.177l-.035.009a1.858,1.858,0,0,0,.148-.166A1.738,1.738,0,0,0,273.447,289.362Z" transform="translate(-258.744 -275.677)"/><path class="v" d="M279.575,281.446a.94.94,0,0,1-.47.736.079.079,0,0,0-.006-.01c-.078-.122-.165-.237-.241-.36a2.194,2.194,0,0,0,.1-.355c.137,0,.273,0,.409,0Z" transform="translate(-264.064 -268.329)"/><path class="ag" d="M250.065,238.376q-.052-.2-.108-.4l-.025-.089-.049-.174h0c-.018-.064-.036-.128-.055-.193l-.07.026a.5.5,0,0,1,.065.174h0l-.014,0-.111.443a.665.665,0,0,1-.077.081,1.494,1.494,0,0,1-1.077.217c-.322-.01-.648-.014-.976-.017a1.947,1.947,0,0,1,.091.489c.255.023.512.037.768.05a4.154,4.154,0,0,0,.724,0,1.26,1.26,0,0,0,.437-.125.957.957,0,0,0,.126-.08,5.194,5.194,0,0,1,.25,1.243,2.739,2.739,0,0,1-.013.458c.124,0,.248,0,.372,0l.183-.007A18.256,18.256,0,0,0,250.065,238.376Z" transform="translate(-235.021 -227.561)"/><path class="n" d="M213.919,377.779a.536.536,0,0,0,.024-.24c.116-.01.233-.025.347-.045a.365.365,0,0,1-.148.233A.376.376,0,0,1,213.919,377.779Z" transform="translate(-203.789 -357.477)"/><path class="ai" d="M193.269,379.993c-.255.049-.51.1-.766.14-.628.106-1.29.131-1.912.265a1.371,1.371,0,0,1,.569-.339,3.1,3.1,0,0,0,.812-.336.852.852,0,0,0,.217-.232.491.491,0,0,0,.4-.051.6.6,0,0,0,.232-.284.135.135,0,0,1,.129.054c.041.068-.016.133.007.2a.049.049,0,0,0,.045.034,1.7,1.7,0,0,1,.147.213,1.169,1.169,0,0,1,.1.3A.091.091,0,0,0,193.269,379.993Z" transform="translate(-182.137 -359.021)"/><path class="aj" d="M130.67,314.562c.167-.056.332-.119.492-.19.322.015.645.025.967.033a.724.724,0,0,1-.053.231.578.578,0,0,1-.41.218,3.966,3.966,0,0,1-.651-.064C130.866,314.773,130.681,314.785,130.67,314.562Z" transform="translate(-126.52 -298.89)"/><path class="d" d="M140.335,305.285c-.278-.013-.555-.024-.834-.032a4.381,4.381,0,0,0,.942-.61l.029-.025c-.034.218-.092.435-.134.647C140.338,305.272,140.336,305.279,140.335,305.285Z" transform="translate(-134.717 -289.838)"/><path class="ak" d="M113.457,263.911a51.011,51.011,0,0,0-1.94,4.87.047.047,0,0,0-.044.063c-.595-.128-1.193-.244-1.79-.362-.441-.086-1.271-.111-1.6-.5l.089-.006a6.585,6.585,0,0,0,1.3-.228.326.326,0,0,0,.114.231c.186.168.535.144.764.167.263.026.625.129.835-.089s.2-.638.249-.911a2.892,2.892,0,0,0,.072-.542,3.38,3.38,0,0,0,1.027-2.6,4.514,4.514,0,0,1,.552-.134A.6.6,0,0,1,113.457,263.911Z" transform="translate(-105.556 -252.003)"/><path class="al" d="M116.944,274.667a1.917,1.917,0,0,1-.545.352,7.841,7.841,0,0,0-.787.467,8.932,8.932,0,0,0-1.707,1.5A6.747,6.747,0,0,1,116.7,274.5a.351.351,0,0,1,.18-.048.125.125,0,0,1,.119.121A.165.165,0,0,1,116.944,274.667Z" transform="translate(-110.96 -261.839)"/><path class="ak" d="M117.285,326.4q-2.911.63-5.88,1.032a10.453,10.453,0,0,0-3.037-3.752c-.046-.032-.093-.064-.14-.1-.306-.445-.612-.889-.926-1.328a.1.1,0,0,0-.035-.031.092.092,0,0,0-.041-.022.8.8,0,0,1-.615-.843c.211.3.725.378,1.058.45.823.177,1.648.353,2.474.511.556,1.545,1.145,3.082,1.782,4.594a.048.048,0,0,0,.038.03.032.032,0,0,0,.028.045,2.965,2.965,0,0,0,.457-.031c.073-.007.147-.012.221-.02a11.889,11.889,0,0,0,1.882-.247q1.044-.172,2.075-.418a.068.068,0,0,0,.077-.074.107.107,0,0,0-.007-.059,8.89,8.89,0,0,1-.124-1.228,4.64,4.64,0,0,1,.728-1.611c.043-.06.088-.119.135-.176A4.061,4.061,0,0,0,117.285,326.4Z" transform="translate(-104.19 -305.381)"/><path class="ak" d="M96.518,341.732c-.177-.052-.362-.085-.536-.129a1.645,1.645,0,0,1-.75-.367.1.1,0,0,0-.077-.08q-.844-.209-1.672-.48-.33-.109-.657-.228a3.267,3.267,0,0,0,.916-.269.916.916,0,0,0,.577-.608.723.723,0,0,0-.2-.575,1.228,1.228,0,0,0-.146-.14,4.739,4.739,0,0,1,.565.031c.532.808,1.1,1.595,1.655,2.384C96.3,341.423,96.411,341.578,96.518,341.732Z" transform="translate(-91.395 -321.615)"/><path class="al" d="M88.286,344.077a2.043,2.043,0,0,1,.432-.369.127.127,0,0,0,.044-.048c.022-.054-.036-.11-.093-.125a.453.453,0,0,0-.353.1,1.541,1.541,0,0,0-.42.417c-.049.073-.093.17-.046.245a.183.183,0,0,0,.258.014A1.054,1.054,0,0,0,88.286,344.077Z" transform="translate(-86.757 -325.95)"/><path class="ak" d="M227.58,314.055a3.827,3.827,0,0,0-2.4,1.946,4.135,4.135,0,0,0-.219,3.019q-.516.121-1.036.225a.092.092,0,0,0,0-.031.8.8,0,0,0-.322-.591.152.152,0,0,0,.007-.027.254.254,0,0,0-.043-.2.279.279,0,0,0-.129-.093c.025-.025.05-.051.073-.076q.135-.14.255-.292a4.256,4.256,0,0,0,.474-.737,2.722,2.722,0,0,0,.306-1.78,1.713,1.713,0,0,0-.642-1c-.129-.213-.273-.419-.393-.64l.279-.036a19.634,19.634,0,0,0,2.074.2C226.437,313.991,227.01,314.042,227.58,314.055Z" transform="translate(-212.631 -298.305)"/><path class="ak" d="M261.042,324.85v0a77.639,77.639,0,0,1-8.163,2.25,4.036,4.036,0,0,1-.223-1.917.955.955,0,0,0,.428.434,1.782,1.782,0,0,0,.924.137q-.2.055-.4.113a.1.1,0,0,0,.054.185c1.385-.357,2.774-.684,4.182-.94.132-.024.072-.225-.06-.2q-.958.175-1.912.385a5.745,5.745,0,0,0,1.3-.778q.248-.048.5-.094c.132-.024.072-.225-.06-.2l-.119.022a2.987,2.987,0,0,0,.946-1.491,2.08,2.08,0,0,0,.042-.625c.17.05.338.1.5.162a5.267,5.267,0,0,1,.689.3.055.055,0,0,0,.046.024A2.033,2.033,0,0,1,261.042,324.85Z" transform="translate(-239.715 -306.094)"/><path class="al" d="M265.954,323.913a.242.242,0,0,1-.159.238.948.948,0,0,1-.3.05,2.484,2.484,0,0,0-1.211.48,6.728,6.728,0,0,0-.97.891,1.635,1.635,0,0,1,.233-.534,2.813,2.813,0,0,1,.376-.512,4.994,4.994,0,0,1,.837-.618,1.557,1.557,0,0,1,.861-.194C265.76,323.717,265.933,323.773,265.954,323.913Z" transform="translate(-249.633 -307.561)"/><path class="am" d="M82.476,364.3a7.126,7.126,0,0,0-1.1-.491,2.638,2.638,0,0,1,.392-.477l.007.005a8.707,8.707,0,0,0,1.292.406A1.554,1.554,0,0,0,82.476,364.3Z" transform="translate(-80.764 -344.334)"/><path class="an" d="M99.734,370.152a5.128,5.128,0,0,0,1.009.259c-.073.167-.15.332-.229.5-.219-.055-.488-.169-.667.015a.965.965,0,0,0-.158.222,7.107,7.107,0,0,0-.638-.422A2.145,2.145,0,0,1,99.734,370.152Z" transform="translate(-97.173 -350.663)"/><path class="an" d="M124.206,383.826a1.408,1.408,0,0,1-.139.127q-.183-.255-.389-.492a2.817,2.817,0,0,0,.8-1.169A1.33,1.33,0,0,1,124.206,383.826Z" transform="translate(-120.03 -361.931)"/><path class="am" d="M131.241,385.054a7.157,7.157,0,0,0-.7-1.292,1.64,1.64,0,0,0,.29-.294,1.556,1.556,0,0,0,.229-1.542,2.223,2.223,0,0,0,.394.126,2.046,2.046,0,0,0,.355.068c.169.244.339.487.513.728A2.236,2.236,0,0,1,131.241,385.054Z" transform="translate(-126.402 -361.592)"/><path class="ao" d="M110.792,382.438c-.077.163-.153.328-.225.492a2.623,2.623,0,0,0-.355-.323l.033-.059C110.378,382.322,110.587,382.387,110.792,382.438Z" transform="translate(-107.532 -362.021)"/><path class="ao" d="M119.1,374.651c-.16.275-.3.563-.455.84a.8.8,0,0,1-.311.347l0-.008a.761.761,0,0,0-.306-.332,8.4,8.4,0,0,0,.519-1.223.722.722,0,0,0,.408.3l.135.049a.143.143,0,0,0,.012.019Z" transform="translate(-114.778 -354.49)"/><path class="am" d="M288.006,403.691a.794.794,0,0,0,.1.119q-.726.186-1.435.435a1.606,1.606,0,0,1-.121-.376,4.254,4.254,0,0,0,.868-.093C287.609,403.748,287.81,403.727,288.006,403.691Z" transform="translate(-271.199 -381.793)"/><path class="am" d="M309.628,403.265c.171,0,.358-.005.544-.022-.135.029-.271.059-.406.092Z" transform="translate(-292.623 -381.377)"/><path class="an" d="M326.27,377.434a1.151,1.151,0,0,1-.16,1.041q-.431.046-.86.119a.88.88,0,0,0,.595-.531,1.1,1.1,0,0,0-.328-1.206c.066-.014.132-.032.2-.051A1.154,1.154,0,0,1,326.27,377.434Z" transform="translate(-307.123 -356.84)"/><path class="am" d="M337.421,372.285c-.349-.013-.7-.009-1.047.01q-.225.012-.448.032a1.415,1.415,0,0,0-.355-1.74c.118-.044.236-.089.353-.127.271-.089.562-.148.828-.253A2.178,2.178,0,0,1,337.421,372.285Z" transform="translate(-316.703 -350.714)"/><path class="an" d="M314.712,383.218l-.706.206a.426.426,0,0,1,.442-.358.475.475,0,0,1,.12.018A.907.907,0,0,1,314.712,383.218Z" transform="translate(-296.687 -362.65)"/><path class="ao" d="M233.19,378.163l-.24.07a.582.582,0,0,0-.415-.269.608.608,0,0,0-.676.587l-2.959.863h-1.512c-.557,0-1.124-.017-1.685,0a68.267,68.267,0,0,0,7.054-1.657A.67.67,0,0,1,233.19,378.163Z" transform="translate(-214.726 -357.723)"/><path class="q" d="M137.521,301.231a.075.075,0,0,1-.012.075.463.463,0,0,1-.178.136,6.856,6.856,0,0,0-.764.479,3.087,3.087,0,0,1,.694-.626.483.483,0,0,1,.176-.088A.077.077,0,0,1,137.521,301.231Z" transform="translate(-131.994 -286.668)"/><path class="d" d="M151.545,244.791a1.25,1.25,0,0,0,.021.129.724.724,0,0,1-.25-.66,1.944,1.944,0,0,0,.221.061A2.941,2.941,0,0,0,151.545,244.791Z" transform="translate(-145.681 -233.814)"/><path class="h" d="M175.965,226.218c.081-.006.163-.01.246-.012a3.3,3.3,0,0,0,.018.412.932.932,0,0,0-.251.188A.987.987,0,0,0,175.965,226.218Z" transform="translate(-168.562 -217.057)"/><path class="ak" d="M159.653,240.07c-.108.163-.19.344-.3.509s-.276.321-.374.5a.083.083,0,0,0,0,.012.857.857,0,0,0-.387-.033,4.363,4.363,0,0,0-.587.116c.087-.208-.226-.364-.426-.4a.766.766,0,0,1-.429-.183.68.68,0,0,1-.073-.328,2.429,2.429,0,0,1,0-.338,1.369,1.369,0,0,0,1.159-.407l.023-.027a.776.776,0,0,0,0,.117.568.568,0,0,0-.126.135.492.492,0,0,0-.085.242.034.034,0,0,0,.008.028c-.012.271.344.391.344.661a.066.066,0,0,0,.014.041.2.2,0,0,0,.018.219.236.236,0,0,0,.422-.154.216.216,0,0,0-.131-.185,1.759,1.759,0,0,0-.077-.276.577.577,0,0,0,.125.065.066.066,0,0,0,.028,0,.552.552,0,0,0,.455-.087c.1-.062.236-.183.246-.309A.654.654,0,0,0,159.653,240.07Z" transform="translate(-151.026 -229.394)"/><path class="am" d="M242.866,303.318a1.66,1.66,0,0,1,.211.055.826.826,0,0,0-.227.045.974.974,0,0,0-.6.635,5.874,5.874,0,0,0-.711.089c-.718-.086-1.448-.1-2.171-.142-.5-.028-1.011-.082-1.519-.11.2-.024.4-.047.6-.067.745-.077,1.492-.093,2.237-.159a2.575,2.575,0,0,0,1.356-.445A4.69,4.69,0,0,1,242.866,303.318Z" transform="translate(-226.002 -288.539)"/><path class="am" d="M311.434,312.687l-.1-.014c-.123-.016-.247-.028-.372-.037a.953.953,0,0,1,.444-.175.916.916,0,0,1,.026.169C311.434,312.649,311.434,312.668,311.434,312.687Z" transform="translate(-293.861 -297.117)"/><path class="x" d="M346.176,226.189a1.154,1.154,0,0,0-.522-.388,1.194,1.194,0,0,0-.6-.117c-.85-.049-1.72,0-2.57,0-.9,0-1.822.058-2.724.02,0-.1,0-.191,0-.286a.7.7,0,0,0,.306.066q2.713.073,5.427-.045a.94.94,0,0,0,.5-.116.574.574,0,0,0,.221-.325,1.527,1.527,0,0,1,.078.449C346.3,225.675,346.38,226.046,346.176,226.189Z" transform="translate(-320.588 -215.937)"/><path class="w" d="M295.283,231.425l.024.005-.186.037Z" transform="translate(-279.158 -221.902)"/><path class="x" d="M345.827,237.641q-.221-.2-.445-.405a2.146,2.146,0,0,0-.536-.383,2.2,2.2,0,0,0-.784-.142,42.972,42.972,0,0,0-4.487-.012c0-.083.006-.167.009-.252.9-.038,1.825.019,2.732.02s1.813.057,2.705-.007a2.574,2.574,0,0,1,.431.168c.146.076.264.2.4.286A3.433,3.433,0,0,0,345.827,237.641Z" transform="translate(-320.418 -226.552)"/><path class="ac" d="M348.611,223.681a.12.12,0,0,0,.024.146.2.2,0,0,0,.129.037,31.645,31.645,0,0,0,3.712-.061.6.6,0,0,0,.387-.127c-.026-.088-.118-.1-.192-.1l-3.971.071A.1.1,0,0,0,348.611,223.681Z" transform="translate(-328.791 -214.617)"/><path class="ap" d="M190.344,132.431c.539.152,1.079.3,1.621.448a2.256,2.256,0,0,1-.842-.113.068.068,0,0,0-.074.1q.065.091.136.173a3.005,3.005,0,0,1-1.475-.684.039.039,0,0,0-.054.056l.012.013a.05.05,0,0,0-.007.02,3.941,3.941,0,0,0,.012.7.486.486,0,0,1-.181-.049.9.9,0,0,1-.03-.506,1.855,1.855,0,0,1,.121-.364C189.837,132.293,190.093,132.36,190.344,132.431Z" transform="translate(-181.068 -129.827)"/><path class="ap" d="M243.426,168.439a.67.67,0,0,0,.144.185,1.614,1.614,0,0,1-1.232-.284.08.08,0,0,0-.027-.019l-.009-.007a3.192,3.192,0,0,0,.206-.271,2.535,2.535,0,0,0,.906-.315,1.42,1.42,0,0,0,.492.3,1.267,1.267,0,0,1-.563.044,3.33,3.33,0,0,1,.441.278,2.841,2.841,0,0,0-.291-.036A.082.082,0,0,0,243.426,168.439Z" transform="translate(-230.134 -162.781)"/></g></g></g></svg>