<svg width="26" height="26" viewBox="0 0 26 26" fill="none" xmlns="http://www.w3.org/2000/svg">
<path d="M10.8181 -1.62082e-05C13.3209 0.00022386 15.7461 0.86826 17.6807 2.45619C19.6152 4.04412 20.9393 6.2537 21.4274 8.70844C21.9154 11.1632 21.5372 13.7112 20.3572 15.9184C19.1772 18.1255 17.2684 19.8553 14.9561 20.8129C12.6437 21.7704 10.0709 21.8966 7.67593 21.1699C5.28097 20.4432 3.21207 18.9086 1.82175 16.8275C0.431433 14.7464 -0.194286 12.2476 0.0512077 9.75687C0.296702 7.26615 1.39822 4.9376 3.16808 3.16798C4.17053 2.16024 5.36293 1.36135 6.67623 0.817555C7.98953 0.273765 9.39765 -0.00412133 10.8191 -1.62082e-05H10.8181ZM10.8181 19.636C13.1568 19.636 15.3997 18.7069 17.0533 17.0533C18.707 15.3996 19.6361 13.1567 19.6361 10.818C19.6361 8.4793 18.707 6.23641 17.0533 4.58272C15.3997 2.92902 13.1568 1.99998 10.8181 1.99998C8.4794 1.99998 6.23651 2.92902 4.58281 4.58272C2.92911 6.23641 2.00008 8.4793 2.00008 10.818C2.00008 13.1567 2.92911 15.3996 4.58281 17.0533C6.23651 18.7069 8.4794 19.636 10.8181 19.636V19.636Z" fill="#23CBD8"/>
<path d="M25 26C24.7348 25.9999 24.4805 25.8945 24.293 25.707L17.436 18.85C17.2538 18.6614 17.153 18.4088 17.1553 18.1466C17.1576 17.8844 17.2628 17.6336 17.4482 17.4482C17.6336 17.2628 17.8844 17.1576 18.1466 17.1553C18.4088 17.153 18.6614 17.2538 18.85 17.436L25.707 24.293C25.8468 24.4328 25.942 24.611 25.9806 24.805C26.0191 24.9989 25.9993 25.1999 25.9237 25.3826C25.848 25.5653 25.7199 25.7215 25.5554 25.8314C25.391 25.9413 25.1977 25.9999 25 26Z" fill="#23CBD8"/>
</svg>
