<svg width="15" height="15" viewBox="0 0 15 15" fill="none" xmlns="http://www.w3.org/2000/svg">
<path d="M7.5 15H0.468571C0.344357 14.9998 0.225283 14.9504 0.13745 14.8626C0.0496168 14.7748 0.00018892 14.6558 0 14.5316L0 7.5C0.0022686 5.51157 0.793174 3.60539 2.1992 2.19936C3.60524 0.793327 5.51157 0.0022686 7.5 0C9.48849 0.00207991 11.3949 0.792937 12.801 2.19901C14.2071 3.60508 14.9979 5.51151 15 7.5C14.9977 9.48843 14.2068 11.3946 12.8008 12.8006C11.3948 14.2067 9.48843 14.9977 7.5 15ZM5.00786 8.29485H7.29357V10.5929C7.29376 10.6479 7.31574 10.7006 7.3547 10.7394C7.39366 10.7782 7.44643 10.8001 7.50143 10.8001C7.55643 10.8001 7.60919 10.7782 7.64815 10.7394C7.68711 10.7006 7.7091 10.6479 7.70929 10.5929V8.30706H9.995C10.05 8.30706 10.1028 8.2852 10.1417 8.24637C10.1807 8.20755 10.2027 8.15489 10.2029 8.09989C10.2029 8.07259 10.1975 8.04559 10.187 8.02037C10.1766 7.99515 10.1613 7.97236 10.142 7.95306C10.1227 7.93375 10.0998 7.91851 10.0745 7.90806C10.0493 7.89762 10.0223 7.89202 9.995 7.89202H7.70929V5.60652C7.7091 5.55151 7.68711 5.49886 7.64815 5.46003C7.60919 5.4212 7.55643 5.39934 7.50143 5.39934C7.44643 5.39934 7.39366 5.4212 7.3547 5.46003C7.31574 5.49886 7.29376 5.55151 7.29357 5.60652V7.89202H5.00786C4.98056 7.89202 4.95353 7.89762 4.92831 7.90806C4.9031 7.91851 4.88018 7.93375 4.86088 7.95306C4.84158 7.97236 4.82627 7.99515 4.81582 8.02037C4.80538 8.04559 4.8 8.07259 4.8 8.09989C4.79922 8.12654 4.8041 8.15304 4.81432 8.17766C4.82454 8.20229 4.83987 8.22462 4.85929 8.24289C4.8941 8.27558 4.9401 8.29358 4.98786 8.29346H5.00786V8.29485Z" fill="#222222"/>
</svg>
