<svg width="50" height="50" viewBox="0 0 50 50" fill="none" xmlns="http://www.w3.org/2000/svg">
<path d="M8.33325 21.875C6.60409 21.875 5.20825 23.2708 5.20825 25C5.20825 26.7292 6.60409 28.125 8.33325 28.125C10.0624 28.125 11.4583 26.7292 11.4583 25C11.4583 23.2708 10.0624 21.875 8.33325 21.875ZM8.33325 9.375C6.60409 9.375 5.20825 10.7708 5.20825 12.5C5.20825 14.2292 6.60409 15.625 8.33325 15.625C10.0624 15.625 11.4583 14.2292 11.4583 12.5C11.4583 10.7708 10.0624 9.375 8.33325 9.375ZM8.33325 34.375C6.60409 34.375 5.20825 35.7917 5.20825 37.5C5.20825 39.2083 6.62492 40.625 8.33325 40.625C10.0416 40.625 11.4583 39.2083 11.4583 37.5C11.4583 35.7917 10.0624 34.375 8.33325 34.375ZM14.5833 39.5833H43.7499V35.4167H14.5833V39.5833ZM14.5833 27.0833H43.7499V22.9167H14.5833V27.0833ZM14.5833 10.4167V14.5833H43.7499V10.4167H14.5833Z" fill="#808080"/>
</svg>
