<svg xmlns="http://www.w3.org/2000/svg" width="166.061" height="131.873" viewBox="0 0 166.061 131.873">
  <g id="illustration" transform="translate(-59.594 -37.894)">
    <circle id="Ellipse_5658" data-name="Ellipse 5658" cx="19.205" cy="19.205" r="19.205" transform="translate(153.359 40.942)" fill="#23cbd8"/>
    <path id="Path_10241" data-name="Path 10241" d="M213.265,63.71,200.04,73.247l18.365-3.3Z" transform="translate(-55.095 1.089)" fill="#23cbd8"/>
    <ellipse id="Ellipse_5659" data-name="Ellipse 5659" cx="83.03" cy="13.48" rx="83.03" ry="13.48" transform="translate(59.594 142.807)" fill="#e6e6e6" opacity="0.45"/>
    <rect id="Rectangle_941" data-name="Rectangle 941" width="81.045" height="59.168" rx="9.75" transform="translate(94.713 82.045)" fill="#c9c9c9"/>
    <rect id="Rectangle_942" data-name="Rectangle 942" width="81.045" height="67.741" rx="13.47" transform="translate(94.713 88.779)" fill="#e6e6e6"/>
    <path id="Path_10244" data-name="Path 10244" d="M210.249,129.36h13.616s7.495,34.9-16.595,43.339-9.077,31.136-9.077,31.136H185.088l-4.227-5.322V182.531L177.61,166.6l7.461-29.78,8-6.666Z" transform="translate(-84.128 -47.315)" opacity="0.08"/>
    <rect id="Rectangle_943" data-name="Rectangle 943" width="37.133" height="19.585" rx="9.792" transform="translate(144.945 113.061)" fill="#a5a5a5"/>
    <circle id="Ellipse_5665" data-name="Ellipse 5665" cx="4.3" cy="4.3" r="4.3" transform="translate(149.813 118.474)" fill="#e6e6e6"/>
    <text id="_" data-name="!" transform="translate(172.258 70.894)" fill="#222" font-size="32" font-family="Yellix-Bold, Yellix" font-weight="700"><tspan x="-4" y="0">!</tspan></text>
  </g>
</svg>
