<svg id="illustration" xmlns="http://www.w3.org/2000/svg" width="146.146" height="158.511" viewBox="0 0 146.146 158.511">
  <path id="Path_8768" data-name="Path 8768" d="M102.306,56.705H26.994l-14,15.594V56.705H0V0H102.306Z" fill="#222"/>
  <rect id="Rectangle_722" data-name="Rectangle 722" width="68.755" height="3.072" transform="translate(16.776 16.657)" fill="#fff"/>
  <rect id="Rectangle_723" data-name="Rectangle 723" width="68.755" height="3.072" transform="translate(16.776 26.817)" fill="#fff"/>
  <rect id="Rectangle_724" data-name="Rectangle 724" width="68.755" height="3.072" transform="translate(16.776 36.977)" fill="#fff"/>
  <circle id="Ellipse_293" data-name="Ellipse 293" cx="2.586" cy="2.586" r="2.586" transform="translate(10.616 76.673)" fill="#e6e6e6"/>
  <path id="Path_8776" data-name="Path 8776" d="M465.118,348.182h70.523v39.089h-8.958v10.749l-9.65-10.749H465.118Z" transform="translate(-389.495 -281.153)" fill="#23cbd8"/>
  <rect id="Rectangle_725" data-name="Rectangle 725" width="47.395" height="2.117" transform="translate(87.187 78.511)" fill="#fff"/>
  <rect id="Rectangle_726" data-name="Rectangle 726" width="47.395" height="2.117" transform="translate(87.187 85.514)" fill="#fff"/>
  <rect id="Rectangle_727" data-name="Rectangle 727" width="47.395" height="2.117" transform="translate(87.187 92.518)" fill="#fff"/>
  <path id="Path_8781" data-name="Path 8781" d="M392.044,623.974l3-2.613a50.044,50.044,0,0,0-.7-5.6l-1.653.7,1.534-1.338c-.441-2.284-.878-3.769-.878-3.769a47.955,47.955,0,0,0-9.427,11.916l1.484,4.881-2.266-3.228a20.245,20.245,0,0,0-.861,2.394c-2.359,8.227-1.583,15.667,1.731,16.617s7.914-4.949,10.272-13.177a26.653,26.653,0,0,0,.831-8.081Z" transform="translate(-372.211 -485.745)" fill="#d5d4e0"/>
  <path id="Path_8782" data-name="Path 8782" d="M402.7,652.412l3.915-.689a50.033,50.033,0,0,0,2.293-5.153l-1.777-.256,2-.353c.8-2.184,1.2-3.681,1.2-3.681a47.956,47.956,0,0,0-14.229,5.328l-1.253,4.945-.272-3.934a20.251,20.251,0,0,0-1.975,1.6c-6.272,5.824-9.454,12.594-7.108,15.12s9.333-.146,15.6-5.97a26.652,26.652,0,0,0,4.888-6.488Z" transform="translate(-374.93 -507.786)" fill="#d5d4e0"/>
  <path id="Path_8783" data-name="Path 8783" d="M497.591,723.7H352.335a.293.293,0,0,1,0-.575H497.591a.293.293,0,0,1,0,.575Z" transform="translate(-351.68 -565.404)" fill="#cbcbcb"/>
</svg>
