<svg xmlns="http://www.w3.org/2000/svg" width="209.147" height="149.407" viewBox="0 0 209.147 149.407">
  <g id="illustration" transform="translate(-18.568 -2.99)">
    <path id="Path_10560" data-name="Path 10560" d="M804.689,339.374H740.9a4.633,4.633,0,0,1-3.659-1.773h0a4.691,4.691,0,0,1-.879-4.024,81.39,81.39,0,0,0,0-37.8,4.692,4.692,0,0,1,.879-4.023,4.633,4.633,0,0,1,3.66-1.774h63.791a4.692,4.692,0,0,1,4.617,3.938,136.423,136.423,0,0,1,0,41.52A4.692,4.692,0,0,1,804.689,339.374Z" transform="translate(-583.18 -256.987)" fill="#e6e6e6"/>
    <path id="Path_10582" data-name="Path 10582" d="M804.689,339.374H740.9a4.633,4.633,0,0,1-3.659-1.773h0a4.691,4.691,0,0,1-.879-4.024,81.39,81.39,0,0,0,0-37.8,4.692,4.692,0,0,1,.879-4.023,4.633,4.633,0,0,1,3.66-1.774h63.791a4.692,4.692,0,0,1,4.617,3.938,136.423,136.423,0,0,1,0,41.52A4.692,4.692,0,0,1,804.689,339.374Z" transform="translate(-674.595 -286.987)" fill="#e6e6e6"/>
    <path id="Path_10561" data-name="Path 10561" d="M744.478,295.978a2.225,2.225,0,0,0-1.758.851,2.284,2.284,0,0,0-.425,1.959,83.823,83.823,0,0,1,0,38.931,2.283,2.283,0,0,0,.425,1.959h0a2.225,2.225,0,0,0,1.758.851h63.657a2.254,2.254,0,0,0,2.224-1.884,134.008,134.008,0,0,0,0-40.784,2.254,2.254,0,0,0-2.224-1.884Z" transform="translate(-586.76 -260.566)" fill="#fff"/>
    <path id="Path_10583" data-name="Path 10583" d="M744.478,295.978a2.225,2.225,0,0,0-1.758.851,2.284,2.284,0,0,0-.425,1.959,83.823,83.823,0,0,1,0,38.931,2.283,2.283,0,0,0,.425,1.959h0a2.225,2.225,0,0,0,1.758.851h63.657a2.254,2.254,0,0,0,2.224-1.884,134.008,134.008,0,0,0,0-40.784,2.254,2.254,0,0,0-2.224-1.884Z" transform="translate(-678.175 -290.566)" fill="#fff"/>
    <path id="Path_10562" data-name="Path 10562" d="M647.922,425.277H586.088a13.724,13.724,0,0,1-7.334-1.85c-1.8-1.183-2.447-2.731-1.76-4.2a43.818,43.818,0,0,0,0-37.707c-.687-1.465-.037-3.013,1.76-4.2a13.724,13.724,0,0,1,7.334-1.85h61.833c4.6.007,8.515,1.745,9.253,4.109a72.238,72.238,0,0,1,0,41.582C656.436,423.532,652.521,425.27,647.922,425.277Z" transform="translate(-508.082 -307.974)" fill="#222"/>
    <circle id="Ellipse_5685" data-name="Ellipse 5685" cx="9.284" cy="9.284" r="9.284" transform="translate(102.435 82.953)" fill="#fff"/>
    <path id="favorite_inactive" d="M6.993,10.933l-.157-.1A10.716,10.716,0,0,1,4.453,9.018a3.845,3.845,0,0,1-1.078-2.63A1.927,1.927,0,0,1,5.307,4.5a2.22,2.22,0,0,1,1.686.808A2.22,2.22,0,0,1,8.679,4.5a1.927,1.927,0,0,1,1.932,1.887,3.839,3.839,0,0,1-1.078,2.63A10.7,10.7,0,0,1,7.15,10.833Z" transform="translate(209.63 38.479)" fill="#23cbd8"/>
    <path id="Path_10584" data-name="Path 10584" d="M804.689,339.374H740.9a4.633,4.633,0,0,1-3.659-1.773h0a4.691,4.691,0,0,1-.879-4.024,81.39,81.39,0,0,0,0-37.8,4.692,4.692,0,0,1,.879-4.023,4.633,4.633,0,0,1,3.66-1.774h63.791a4.692,4.692,0,0,1,4.617,3.938,136.423,136.423,0,0,1,0,41.52A4.692,4.692,0,0,1,804.689,339.374Z" transform="translate(-622.446 -360.689) rotate(13)" fill="#e6e6e6"/>
    <path id="Path_10585" data-name="Path 10585" d="M744.478,295.978a2.225,2.225,0,0,0-1.758.851,2.284,2.284,0,0,0-.425,1.959,83.823,83.823,0,0,1,0,38.931,2.283,2.283,0,0,0,.425,1.959h0a2.225,2.225,0,0,0,1.758.851h63.657a2.254,2.254,0,0,0,2.224-1.884,134.008,134.008,0,0,0,0-40.784,2.254,2.254,0,0,0-2.224-1.884Z" transform="translate(-625.129 -364.981) rotate(13)" fill="#fff"/>
    <path id="favorite_inactive-2" data-name="favorite_inactive" d="M6.993,10.933l-.157-.1A10.716,10.716,0,0,1,4.453,9.018a3.845,3.845,0,0,1-1.078-2.63A1.927,1.927,0,0,1,5.307,4.5a2.22,2.22,0,0,1,1.686.808A2.22,2.22,0,0,1,8.679,4.5a1.927,1.927,0,0,1,1.932,1.887,3.839,3.839,0,0,1-1.078,2.63A10.7,10.7,0,0,1,7.15,10.833Z" transform="translate(83.553 103.057) rotate(13)" fill="#23cbd8"/>
    <path id="Path_10588" data-name="Path 10588" d="M3535.717,8278.464H3557.1" transform="translate(-1533.265 -8758.981) rotate(13)" fill="none" stroke="#222" stroke-linecap="round" stroke-width="1"/>
    <path id="Path_10591" data-name="Path 10591" d="M3535.718,8278.464h12.874" transform="translate(-1535.518 -8751.857) rotate(13)" fill="none" stroke="#222" stroke-linecap="round" stroke-width="1"/>
    <path id="Path_10597" data-name="Path 10597" d="M3535.717,8278.464H3545" transform="translate(-1520.518 -8748.244) rotate(13)" fill="none" stroke="#222" stroke-linecap="round" stroke-width="1"/>
    <path id="Path_10594" data-name="Path 10594" d="M3535.717,8278.464h15" transform="translate(-1396.079 -8765.967) rotate(14)" fill="none" stroke="#222" stroke-linecap="round" stroke-width="1"/>
    <path id="Path_10595" data-name="Path 10595" d="M3535.717,8278.464h15" transform="translate(-1376.674 -8761.128) rotate(14)" fill="none" stroke="#222" stroke-linecap="round" stroke-width="1"/>
    <path id="Path_10596" data-name="Path 10596" d="M3535.717,8278.464h15" transform="translate(-1358.238 -8756.531) rotate(14)" fill="none" stroke="#222" stroke-linecap="round" stroke-width="1"/>
    <rect id="Rectangle_978" data-name="Rectangle 978" width="11" height="11" rx="2" transform="translate(36.946 96.894) rotate(13)" fill="#e9e9f7"/>
    <path id="Path_10598" data-name="Path 10598" d="M3535.717,8278.464H3557.1" transform="translate(-3359.495 -8235.004)" fill="none" stroke="#222" stroke-linecap="round" stroke-width="1"/>
    <path id="Path_10599" data-name="Path 10599" d="M3535.718,8278.464h12.874" transform="translate(-3359.496 -8229.051)" fill="none" stroke="#222" stroke-linecap="round" stroke-width="1"/>
    <path id="Path_10600" data-name="Path 10600" d="M3535.717,8278.464H3545" transform="translate(-3341.359 -8229.051)" fill="none" stroke="#222" stroke-linecap="round" stroke-width="1"/>
    <path id="Path_10601" data-name="Path 10601" d="M3535.717,8278.464h15" transform="translate(-3372.403 -8210.96)" fill="none" stroke="#222" stroke-linecap="round" stroke-width="1"/>
    <path id="Path_10602" data-name="Path 10602" d="M3535.717,8278.464h15" transform="translate(-3352.403 -8210.96)" fill="none" stroke="#222" stroke-linecap="round" stroke-width="1"/>
    <path id="Path_10603" data-name="Path 10603" d="M3535.717,8278.464h15" transform="translate(-3333.403 -8210.96)" fill="none" stroke="#222" stroke-linecap="round" stroke-width="1"/>
    <rect id="Rectangle_979" data-name="Rectangle 979" width="11" height="11" rx="2" transform="translate(161.435 41.387)" fill="#e9e9f7"/>
    <g id="Group_6146" data-name="Group 6146" transform="translate(-4.02 -32)">
      <path id="favorite_inactive-3" data-name="favorite_inactive" d="M6.993,10.933l-.157-.1A10.716,10.716,0,0,1,4.453,9.018a3.845,3.845,0,0,1-1.078-2.63A1.927,1.927,0,0,1,5.307,4.5a2.22,2.22,0,0,1,1.686.808A2.22,2.22,0,0,1,8.679,4.5a1.927,1.927,0,0,1,1.932,1.887,3.839,3.839,0,0,1-1.078,2.63A10.7,10.7,0,0,1,7.15,10.833Z" transform="translate(122.63 41.723)" fill="#23cbd8"/>
      <path id="Path_10605" data-name="Path 10605" d="M3535.717,8278.464H3557.1" transform="translate(-3446.495 -8231.761)" fill="none" stroke="#222" stroke-linecap="round" stroke-width="1"/>
      <path id="Path_10604" data-name="Path 10604" d="M3535.718,8278.464h12.874" transform="translate(-3446.496 -8225.808)" fill="none" stroke="#222" stroke-linecap="round" stroke-width="1"/>
      <path id="Path_10606" data-name="Path 10606" d="M3535.717,8278.464H3545" transform="translate(-3428.359 -8225.808)" fill="none" stroke="#222" stroke-linecap="round" stroke-width="1"/>
      <path id="Path_10607" data-name="Path 10607" d="M3535.717,8278.464h15" transform="translate(-3459.403 -8207.717)" fill="none" stroke="#222" stroke-linecap="round" stroke-width="1"/>
      <path id="Path_10608" data-name="Path 10608" d="M3535.717,8278.464h15" transform="translate(-3439.403 -8207.717)" fill="none" stroke="#222" stroke-linecap="round" stroke-width="1"/>
      <path id="Path_10609" data-name="Path 10609" d="M3535.717,8278.464h15" transform="translate(-3420.403 -8207.717)" fill="none" stroke="#222" stroke-linecap="round" stroke-width="1"/>
      <rect id="Rectangle_980" data-name="Rectangle 980" width="11" height="11" rx="2" transform="translate(74.435 44.63)" fill="#e9e9f7"/>
    </g>
    <path id="add-line" d="M12.269,8.489H9.07v-3.2a.291.291,0,1,0-.582,0v3.2H5.29A.291.291,0,0,0,5,8.78a.265.265,0,0,0,.291.273h3.2v3.216a.291.291,0,1,0,.582,0v-3.2h3.2a.291.291,0,0,0,0-.582Z" transform="translate(103.289 83.457)" fill="#222"/>
  </g>
</svg>
