<svg xmlns="http://www.w3.org/2000/svg" width="166.061" height="147.705" viewBox="0 0 166.061 147.705">
  <g id="illustration" transform="translate(-49.991 -52.4)">
    <ellipse id="Ellipse_5670" data-name="Ellipse 5670" cx="83.03" cy="13.48" rx="83.03" ry="13.48" transform="translate(49.991 173.145)" fill="#e6e6e6" opacity="0.45"/>
    <rect id="Rectangle_944" data-name="Rectangle 944" width="81.782" height="135.938" transform="translate(92.668 52.4)" fill="#c1c1c1"/>
    <rect id="Rectangle_945" data-name="Rectangle 945" width="81.782" height="135.938" transform="translate(98.645 52.4)" fill="#e6e6e6"/>
    <path id="Path_10248" data-name="Path 10248" d="M79.21,236.34s-4.517-1.236-5.5-5.437c0,0,7.024-1.4,7.2,5.809Z" transform="translate(-2.901 -53.088)" fill="#23cbd8" opacity="0.58"/>
    <path id="Path_10249" data-name="Path 10249" d="M81.684,233.958s-3.161-4.987-.379-9.658a8.04,8.04,0,0,1,2.957,9.672Z" transform="translate(-4.821 -51.156)" fill="#23cbd8" opacity="0.73"/>
    <path id="Path_10250" data-name="Path 10250" d="M83.48,235.4s1.672-5.275,6.715-6.273c0,0,.941,3.428-3.266,6.322Z" transform="translate(-5.809 -52.593)" fill="#23cbd8"/>
    <path id="Path_10251" data-name="Path 10251" d="M78.82,237.89l.913,6.266,5.767.021.857-6.258Z" transform="translate(-4.422 -55.2)" fill="#222"/>
    <rect id="Rectangle_946" data-name="Rectangle 946" width="66.715" height="109.035" transform="translate(106.294 61.967)" fill="#fff"/>
    <path id="Path_10256" data-name="Path 10256" d="M124.23,66V88.477h8.345a4.72,4.72,0,0,0,5.05,4.664h60.738V84.185L147.908,72.469Z" transform="translate(-17.936 -4.047)" opacity="0.05"/>
    <path id="Path_10258" data-name="Path 10258" d="M124.23,66.02l10.1,16.261h8.338L132.631,66.02Z" transform="translate(-17.936 -4.053)" fill="#23cbd8"/>
    <path id="Path_10259" data-name="Path 10259" d="M136.11,66.02,146.2,82.281h8.338L144.5,66.02Z" transform="translate(-21.471 -4.053)" fill="#68e1fd"/>
    <path id="Path_10260" data-name="Path 10260" d="M147.92,66.02l10.094,16.261h8.345L156.314,66.02Z" transform="translate(-24.986 -4.053)" fill="#23cbd8"/>
    <path id="Path_10261" data-name="Path 10261" d="M159.79,66.02l10.1,16.261h8.338L168.184,66.02Z" transform="translate(-28.518 -4.053)" fill="#68e1fd"/>
    <path id="Path_10262" data-name="Path 10262" d="M171.66,66.02l10.1,16.261H190.1L180.061,66.02Z" transform="translate(-32.05 -4.053)" fill="#23cbd8"/>
    <path id="Path_10263" data-name="Path 10263" d="M183.53,66.02l10.1,16.261h8.338L191.931,66.02Z" transform="translate(-35.583 -4.053)" fill="#68e1fd"/>
    <path id="Path_10264" data-name="Path 10264" d="M195.35,66.02l10.094,16.261h8.345L203.744,66.02Z" transform="translate(-39.1 -4.053)" fill="#23cbd8"/>
    <path id="Path_10265" data-name="Path 10265" d="M207.22,66.02l10.1,16.261h8.338L215.614,66.02Z" transform="translate(-42.633 -4.053)" fill="#68e1fd"/>
    <path id="Path_10266" data-name="Path 10266" d="M136.11,66.02,146.2,82.281h8.338L144.5,66.02Z" transform="translate(-21.471 -4.053)" fill="#abd2d5" opacity="0.44"/>
    <path id="Path_10267" data-name="Path 10267" d="M159.79,66.02l10.1,16.261h8.338L168.184,66.02Z" transform="translate(-28.518 -4.053)" fill="#abd2d5" opacity="0.44"/>
    <path id="Path_10268" data-name="Path 10268" d="M183.53,66.02l10.1,16.261h8.338L191.931,66.02Z" transform="translate(-35.583 -4.053)" fill="#abd2d5" opacity="0.44"/>
    <path id="Path_10269" data-name="Path 10269" d="M207.22,66.02l10.1,16.261h8.338L215.614,66.02Z" transform="translate(-42.633 -4.053)" fill="#abd2d5" opacity="0.44"/>
    <path id="Path_10270" data-name="Path 10270" d="M138.607,89.17h8.338v1.566a4.172,4.172,0,0,1-4.172,4.172h0a4.172,4.172,0,0,1-4.172-4.172V89.17Z" transform="translate(-22.212 -10.942)" fill="#23cbd8"/>
    <path id="Path_10271" data-name="Path 10271" d="M150.477,89.17h8.338v1.566a4.172,4.172,0,0,1-4.172,4.172h0a4.172,4.172,0,0,1-4.172-4.172V89.17Z" transform="translate(-25.744 -10.942)" fill="#68e1fd"/>
    <path id="Path_10272" data-name="Path 10272" d="M150.477,89.17h8.338v1.566a4.172,4.172,0,0,1-4.172,4.172h0a4.172,4.172,0,0,1-4.172-4.172V89.17Z" transform="translate(-25.744 -10.942)" fill="#abd2d5" opacity="0.44"/>
    <path id="Path_10273" data-name="Path 10273" d="M162.287,89.17h8.338v1.566a4.172,4.172,0,0,1-4.172,4.172h0a4.172,4.172,0,0,1-4.172-4.172V89.17Z" transform="translate(-29.259 -10.942)" fill="#23cbd8"/>
    <path id="Path_10274" data-name="Path 10274" d="M174.155,89.17h8.31v1.566a4.172,4.172,0,0,1-4.172,4.172h0a4.172,4.172,0,0,1-4.172-4.172V89.17Z" transform="translate(-32.782 -10.942)" fill="#68e1fd"/>
    <path id="Path_10275" data-name="Path 10275" d="M174.155,89.17h8.31v1.566a4.172,4.172,0,0,1-4.172,4.172h0a4.172,4.172,0,0,1-4.172-4.172V89.17Z" transform="translate(-32.782 -10.942)" fill="#abd2d5" opacity="0.44"/>
    <path id="Path_10276" data-name="Path 10276" d="M186,89.17h8.338v1.566a4.172,4.172,0,0,1-4.123,4.172h0A4.172,4.172,0,0,1,186,90.736Z" transform="translate(-36.318 -10.942)" fill="#23cbd8"/>
    <path id="Path_10277" data-name="Path 10277" d="M197.907,89.17h8.338v1.566a4.172,4.172,0,0,1-4.172,4.172h0a4.172,4.172,0,0,1-4.172-4.172V89.17Z" transform="translate(-39.859 -10.942)" fill="#68e1fd"/>
    <path id="Path_10278" data-name="Path 10278" d="M197.907,89.17h8.338v1.566a4.172,4.172,0,0,1-4.172,4.172h0a4.172,4.172,0,0,1-4.172-4.172V89.17Z" transform="translate(-39.859 -10.942)" fill="#abd2d5" opacity="0.44"/>
    <path id="Path_10279" data-name="Path 10279" d="M209.72,89.17h8.345v1.566a4.172,4.172,0,0,1-4.172,4.172h0a4.172,4.172,0,0,1-4.172-4.172Z" transform="translate(-43.377 -10.942)" fill="#23cbd8"/>
    <path id="Path_10280" data-name="Path 10280" d="M221.6,89.17h8.338v1.566a4.172,4.172,0,0,1-4.172,4.172h0a4.172,4.172,0,0,1-4.172-4.172V89.17Z" transform="translate(-46.909 -10.942)" fill="#68e1fd"/>
    <path id="Path_10281" data-name="Path 10281" d="M221.6,89.17h8.338v1.566a4.172,4.172,0,0,1-4.172,4.172h0a4.172,4.172,0,0,1-4.172-4.172V89.17Z" transform="translate(-46.909 -10.942)" fill="#abd2d5" opacity="0.44"/>
    <rect id="Rectangle_956" data-name="Rectangle 956" width="34.074" height="34.074" rx="12.4" transform="translate(125.442 100.726)" fill="#222"/>
    <circle id="Ellipse_5669" data-name="Ellipse 5669" cx="4.783" cy="4.783" r="4.783" transform="translate(136.168 174.177)" fill="#c1c1c1"/>
    <line id="Line_347" data-name="Line 347" x2="27.134" transform="translate(126.924 57.219)" fill="none" stroke="#c1c1c1" stroke-width="1"/>
    <text id="_" data-name="!" transform="translate(143.361 129.8)" fill="#fff" font-size="32" font-family="Yellix-Bold, Yellix" font-weight="700"><tspan x="-4" y="0">!</tspan></text>
  </g>
</svg>
