<svg xmlns="http://www.w3.org/2000/svg" width="156.111" height="99.532" viewBox="0 0 156.111 99.532">
  <g id="illustration" transform="translate(-521.46 -751.95)">
    <g id="PACKAGE" transform="translate(576.212 751.95)">
      <path id="Path_10092" data-name="Path 10092" d="M2487,755.852v8.554h-3.747v-8.674h-18.323v8.674h-3.747v-8.554l3.9-3.9H2483.1Z" transform="translate(-2434.96 -751.954)" fill="#573240"/>
      <path id="Path_10093" data-name="Path 10093" d="M1972.329,764.4v-8.555l-3.9-3.9H1950.41l-3.9,3.9V764.4h-14.991l-9.722,84.58h65.367V764.4Zm-3.747,0H1950.26v-8.675h18.322Z" transform="translate(-1921.8 -751.95)" fill="#23cbd8"/>
      <path id="Path_10094" data-name="Path 10094" d="M3278.215,1092.68H3266.5V1008.1h1.993Z" transform="translate(-3201.133 -995.648)" fill="#052c30"/>
      <g id="Group_4494" data-name="Group 4494" transform="translate(21.009 26.023)">
        <path id="Path_10095" data-name="Path 10095" d="M2381.375,1301.691a14.367,14.367,0,0,1-9.4,13.685v-10.37a3.052,3.052,0,0,1,1.25-2.421,3.7,3.7,0,0,0,1.369-2.957,3.023,3.023,0,1,0-5.966,0,3.7,3.7,0,0,0,1.369,2.957,3.051,3.051,0,0,1,1.25,2.421v10.6a13.139,13.139,0,0,1-7.122.007v-9.229a3.051,3.051,0,0,1,1.25-2.421,3.412,3.412,0,0,0,1.07-1.421,4.026,4.026,0,0,0,.3-1.536v-4.529a.364.364,0,0,0-.364-.364h0a.364.364,0,0,0-.364.364v4.91a.945.945,0,1,1-1.891,0v-4.91a.364.364,0,0,0-.728,0v4.91a.945.945,0,0,1-.945.945h0a.945.945,0,0,1-.945-.945v-4.91a.364.364,0,0,0-.729,0V1301a4.012,4.012,0,0,0,.3,1.536,3.409,3.409,0,0,0,1.069,1.421,3.051,3.051,0,0,1,1.251,2.421v9a14.366,14.366,0,0,1-9.421-13.694c0-7.959,6.133-14.411,13.7-14.411S2381.375,1293.732,2381.375,1301.691Z" transform="translate(-2353.979 -1287.28)" fill="#fff"/>
      </g>
      <line id="Line_341" data-name="Line 341" x2="25.816" transform="translate(24.713 3.849)" fill="none" stroke="#052c30" stroke-linecap="round" stroke-width="5"/>
    </g>
    <g id="COFFEE" transform="translate(642.313 804.434)">
      <g id="Group_4557" data-name="Group 4557" transform="translate(0 0)">
        <path id="Path_10230" data-name="Path 10230" d="M1715.021,1963.69l-4.382,38.128h-21.767l-4.382-38.128Z" transform="translate(-1682.127 -1957.27)" fill="#fff"/>
        <path id="Path_10231" data-name="Path 10231" d="M1715.021,1963.68l-4.382,38.128H1705.9l4.215-36.67h-25.454l-.168-1.458Z" transform="translate(-1682.127 -1957.261)" fill="#e0f1f0"/>
        <path id="Path_10232" data-name="Path 10232" d="M1671.138,1838.04H1635.88l.28-1.559a1.4,1.4,0,0,1,1.376-1.151h.6l.444-1.692a2.7,2.7,0,0,1,2.614-2.017h24.622a2.7,2.7,0,0,1,2.615,2.017l.443,1.692h.605a1.4,1.4,0,0,1,1.375,1.151Z" transform="translate(-1635.88 -1831.62)" fill="#573240"/>
        <line id="Line_345" data-name="Line 345" x2="21.767" transform="translate(6.745 44.548)" fill="none" stroke="#573240" stroke-linecap="round" stroke-width="5"/>
      </g>
      <ellipse id="Ellipse_5657" data-name="Ellipse 5657" cx="6.83" cy="7.292" rx="6.83" ry="7.292" transform="translate(9.967 15.618)" fill="#a9d8d5"/>
      <g id="Group_4558" data-name="Group 4558" transform="translate(14.398 20.251)">
        <path id="Path_10233" data-name="Path 10233" d="M1935.536,2248.808l-2.443,3.751a.345.345,0,0,1-.561.025,2.833,2.833,0,0,1,2.8-4.3A.345.345,0,0,1,1935.536,2248.808Z" transform="translate(-1932.07 -2248.222)" fill="#573240"/>
        <path id="Path_10234" data-name="Path 10234" d="M1963.061,2265.558a2.653,2.653,0,0,1-2.736,1.268.345.345,0,0,1-.208-.524l2.433-3.736a.345.345,0,0,1,.563-.022A2.652,2.652,0,0,1,1963.061,2265.558Z" transform="translate(-1958.701 -2261.719)" fill="#573240"/>
      </g>
    </g>
    <g id="SMALL_BOX" transform="translate(623.87 826.708)">
      <g id="Group_4518" data-name="Group 4518" transform="translate(24.67 12.45)">
        <path id="Path_10134" data-name="Path 10134" d="M3387.536,1919.41l-3.733,7.5a5.983,5.983,0,0,1-5.356,3.317h-9.9a5.983,5.983,0,0,0,5.356-3.317l3.733-7.5Z" transform="translate(-3368.55 -1919.41)" fill="#222"/>
      </g>
      <g id="Group_4519" data-name="Group 4519" transform="translate(1.399 12.45)">
        <path id="Path_10135" data-name="Path 10135" d="M2922.191,1919.41l-.4.8-3.336,6.7a5.984,5.984,0,0,1-5.356,3.317h-14.181a5.983,5.983,0,0,1-5.356-3.317l-3.336-6.7-.4-.8Z" transform="translate(-2889.831 -1919.41)" fill="#f55a00"/>
        <path id="Path_10136" data-name="Path 10136" d="M2922.19,1919.41l-.583,1.184h-31.177l-.6-1.184Z" transform="translate(-2889.83 -1919.41)" fill="#573240"/>
      </g>
      <g id="Group_4520" data-name="Group 4520" transform="translate(0 0)">
        <path id="Path_10137" data-name="Path 10137" d="M3390.289,1675.735l-4.487-9.012a6.2,6.2,0,0,0-5.552-3.438h-10.276a6.2,6.2,0,0,1,5.552,3.438l4.487,9.012Z" transform="translate(-3345.234 -1663.285)" fill="#f8dfd1"/>
        <path id="Path_10138" data-name="Path 10138" d="M2895.834,1675.735l-4.487-9.012a6.2,6.2,0,0,0-5.552-3.438h-14.7a6.2,6.2,0,0,0-5.552,3.438l-4.487,9.012Z" transform="translate(-2861.056 -1663.285)" fill="#fff"/>
      </g>
    </g>
    <g id="DONUTS" transform="translate(521.46 798.806)">
      <path id="Path_10139" data-name="Path 10139" d="M1043.823,1716.606l-3.308,28.784H995.453l3.394-29.53h44.311A.669.669,0,0,1,1043.823,1716.606Z" transform="translate(-971.731 -1715.86)" fill="#fff2aa"/>
      <path id="Path_10140" data-name="Path 10140" d="M943.25,1715.86a1.052,1.052,0,0,0-1.045.932l-.342,2.975a4.6,4.6,0,0,1-4.568,4.073H901.489a4.6,4.6,0,0,1-4.568-5.124l.246-2.143a.805.805,0,0,1,.8-.713Z" transform="translate(-877.96 -1715.86)" fill="#fff7ca"/>
      <g id="Group_4526" data-name="Group 4526" transform="translate(34.831 20.867)">
        <g id="Group_4521" data-name="Group 4521">
          <ellipse id="Ellipse_5656" data-name="Ellipse 5656" cx="14.032" cy="14.309" rx="14.032" ry="14.309" transform="translate(2.479)" fill="#573240"/>
          <path id="Path_10141" data-name="Path 10141" d="M1238.012,2145.12a14.311,14.311,0,1,0,14.031,14.309A14.173,14.173,0,0,0,1238.012,2145.12Zm0,19.232a4.818,4.818,0,1,1,4.724-4.817A4.771,4.771,0,0,1,1238.012,2164.353Z" transform="translate(-1223.98 -2145.12)" fill="#23cbd8"/>
        </g>
        <g id="Group_4525" data-name="Group 4525" transform="translate(2.029 2.027)">
          <g id="Group_4522" data-name="Group 4522" transform="translate(2.669)">
            <path id="Path_10142" data-name="Path 10142" d="M1527.083,2187.316h-1.2a.242.242,0,0,1-.242-.242v-.017a.242.242,0,0,1,.242-.242h1.2a.242.242,0,0,1,.242.242v.017A.242.242,0,0,1,1527.083,2187.316Z" transform="translate(-1515.677 -2186.816)" fill="#fff"/>
            <path id="Path_10143" data-name="Path 10143" d="M1566.792,2292.626h-1.2a.242.242,0,0,1-.242-.242v-.017a.242.242,0,0,1,.242-.242h1.2a.242.242,0,0,1,.242.242v.017A.242.242,0,0,1,1566.792,2292.626Z" transform="translate(-1553.457 -2287.007)" fill="#573240"/>
            <path id="Path_10144" data-name="Path 10144" d="M1362.112,2230.617l-1.013.64a.242.242,0,0,1-.334-.076l-.009-.014a.243.243,0,0,1,.076-.334l1.013-.639a.242.242,0,0,1,.334.075l.009.014A.242.242,0,0,1,1362.112,2230.617Z" transform="translate(-1358.771 -2228.05)" fill="#fff"/>
            <path id="Path_10145" data-name="Path 10145" d="M1688.5,2282.264l-.654,1a.242.242,0,0,1-.335.071l-.014-.009a.242.242,0,0,1-.071-.334l.654-1a.242.242,0,0,1,.335-.071l.014.009A.242.242,0,0,1,1688.5,2282.264Z" transform="translate(-1669.563 -2277.26)" fill="#fff"/>
            <path id="Path_10146" data-name="Path 10146" d="M1476.992,2277.8l-1.013.64a.242.242,0,0,1-.334-.076l-.009-.014a.242.242,0,0,1,.075-.333l1.013-.64a.242.242,0,0,1,.334.076l.009.014A.242.242,0,0,1,1476.992,2277.8Z" transform="translate(-1468.066 -2272.936)" fill="#fff"/>
            <path id="Path_10147" data-name="Path 10147" d="M1437.156,2191.7l-.7-.973a.242.242,0,0,1,.056-.337l.013-.01a.242.242,0,0,1,.338.055l.7.973a.242.242,0,0,1-.056.338l-.013.01A.242.242,0,0,1,1437.156,2191.7Z" transform="translate(-1430.785 -2190.161)" fill="#573240"/>
            <path id="Path_10148" data-name="Path 10148" d="M1636.616,2268.468l-.7-.973a.242.242,0,0,1,.056-.338l.013-.01a.243.243,0,0,1,.338.056l.7.974a.242.242,0,0,1-.056.337l-.014.01A.242.242,0,0,1,1636.616,2268.468Z" transform="translate(-1620.549 -2263.2)" fill="#ff6e00"/>
            <path id="Path_10149" data-name="Path 10149" d="M1321.656,2279.579l-.931-.754a.241.241,0,0,1-.036-.34l.01-.013a.242.242,0,0,1,.34-.036l.931.753a.241.241,0,0,1,.036.34l-.01.013A.243.243,0,0,1,1321.656,2279.579Z" transform="translate(-1320.635 -2273.932)" fill="#ff6e00"/>
            <path id="Path_10150" data-name="Path 10150" d="M1618.876,2209.52l-.931-.753a.242.242,0,0,1-.036-.34l.01-.013a.242.242,0,0,1,.34-.036l.931.753a.242.242,0,0,1,.036.34l-.01.013A.242.242,0,0,1,1618.876,2209.52Z" transform="translate(-1603.407 -2207.278)" fill="#fff"/>
            <path id="Path_10151" data-name="Path 10151" d="M1413.532,2269.97l.2-1.18a.242.242,0,0,1,.28-.2l.016,0a.242.242,0,0,1,.2.28l-.2,1.18a.242.242,0,0,1-.28.2l-.016,0A.242.242,0,0,1,1413.532,2269.97Z" transform="translate(-1409.013 -2264.614)" fill="#f1b104"/>
            <path id="Path_10152" data-name="Path 10152" d="M1383.63,2355.82l.2-1.18a.242.242,0,0,1,.28-.2l.016,0a.242.242,0,0,1,.2.28l-.2,1.18a.242.242,0,0,1-.28.2l-.016,0A.241.241,0,0,1,1383.63,2355.82Z" transform="translate(-1380.564 -2346.291)" fill="#f1b104"/>
            <path id="Path_10153" data-name="Path 10153" d="M1492.581,2222.675l.941-.741a.242.242,0,0,1,.34.04l.01.013a.242.242,0,0,1-.04.34l-.941.741a.242.242,0,0,1-.34-.04l-.01-.013A.242.242,0,0,1,1492.581,2222.675Z" transform="translate(-1484.135 -2220.177)" fill="#ff6e00"/>
            <path id="Path_10154" data-name="Path 10154" d="M1571.64,2222.42l.2-1.18a.242.242,0,0,1,.28-.2l.016,0a.242.242,0,0,1,.2.28l-.2,1.18a.242.242,0,0,1-.28.2l-.016,0A.242.242,0,0,1,1571.64,2222.42Z" transform="translate(-1559.435 -2219.376)" fill="#f1b104"/>
          </g>
          <g id="Group_4523" data-name="Group 4523" transform="translate(10.819 7.045)">
            <path id="Path_10155" data-name="Path 10155" d="M1685.869,2576.148l.712-.963a.242.242,0,0,1,.338-.051l.013.01a.242.242,0,0,1,.051.339l-.712.963a.242.242,0,0,1-.338.051l-.014-.01A.241.241,0,0,1,1685.869,2576.148Z" transform="translate(-1676.219 -2563.258)" fill="#fff"/>
            <path id="Path_10156" data-name="Path 10156" d="M1589.059,2538.579l.712-.963a.242.242,0,0,1,.339-.051l.013.01a.242.242,0,0,1,.051.339l-.712.963a.242.242,0,0,1-.338.051l-.013-.01A.242.242,0,0,1,1589.059,2538.579Z" transform="translate(-1584.115 -2527.515)" fill="#573240"/>
            <path id="Path_10157" data-name="Path 10157" d="M1751.3,2410.516l.088-1.194a.242.242,0,0,1,.259-.224h.017a.241.241,0,0,1,.223.259l-.088,1.194a.242.242,0,0,1-.259.223h-.016A.241.241,0,0,1,1751.3,2410.516Z" transform="translate(-1738.51 -2405.336)" fill="#fff"/>
            <path id="Path_10158" data-name="Path 10158" d="M1615.437,2333.156l.088-1.195a.242.242,0,0,1,.259-.223h.016a.242.242,0,0,1,.224.259l-.088,1.195a.242.242,0,0,1-.259.223h-.017A.243.243,0,0,1,1615.437,2333.156Z" transform="translate(-1609.255 -2331.737)" fill="#fff"/>
            <path id="Path_10159" data-name="Path 10159" d="M1526.08,2654.14l-.418-1.122a.242.242,0,0,1,.142-.311l.016-.006a.242.242,0,0,1,.311.142l.418,1.123a.242.242,0,0,1-.142.311l-.016.006A.242.242,0,0,1,1526.08,2654.14Z" transform="translate(-1523.831 -2637.084)" fill="#fff"/>
            <path id="Path_10160" data-name="Path 10160" d="M1645.027,2474.776l.088-1.195a.242.242,0,0,1,.259-.224h.017a.242.242,0,0,1,.223.259l-.088,1.195a.242.242,0,0,1-.259.223h-.017A.242.242,0,0,1,1645.027,2474.776Z" transform="translate(-1637.407 -2466.473)" fill="#fff"/>
            <path id="Path_10161" data-name="Path 10161" d="M1726.45,2500.99l1.2.018a.242.242,0,0,1,.239.246v.017a.242.242,0,0,1-.246.238l-1.2-.018a.242.242,0,0,1-.239-.246v-.017A.242.242,0,0,1,1726.45,2500.99Z" transform="translate(-1714.639 -2492.762)" fill="#573240"/>
            <path id="Path_10162" data-name="Path 10162" d="M1488.529,2584.74l1.2.017a.242.242,0,0,1,.238.246v.017a.242.242,0,0,1-.245.238l-1.2-.018a.242.242,0,0,1-.238-.246v-.016A.242.242,0,0,1,1488.529,2584.74Z" transform="translate(-1488.283 -2572.441)" fill="#573240"/>
            <path id="Path_10163" data-name="Path 10163" d="M1546.089,2615.649l1.2.018a.242.242,0,0,1,.238.245v.017a.242.242,0,0,1-.245.239l-1.2-.018a.242.242,0,0,1-.238-.245v-.017A.242.242,0,0,1,1546.089,2615.649Z" transform="translate(-1543.045 -2601.848)" fill="#ff6e00"/>
            <path id="Path_10164" data-name="Path 10164" d="M1725.231,2356.176l1.159-.3a.242.242,0,0,1,.295.173l0,.016a.242.242,0,0,1-.174.295l-1.159.3a.242.242,0,0,1-.295-.173l0-.016A.241.241,0,0,1,1725.231,2356.176Z" transform="translate(-1713.541 -2354.695)" fill="#ff6e00"/>
            <path id="Path_10165" data-name="Path 10165" d="M1641.592,2384.405l1.159-.3a.242.242,0,0,1,.3.173l0,.016a.242.242,0,0,1-.174.294l-1.159.3a.242.242,0,0,1-.295-.174l0-.016A.243.243,0,0,1,1641.592,2384.405Z" transform="translate(-1633.967 -2381.552)" fill="#ff6e00"/>
            <path id="Path_10166" data-name="Path 10166" d="M1604.732,2636.766l1.159-.3a.242.242,0,0,1,.295.174l0,.016a.241.241,0,0,1-.174.295l-1.159.3a.242.242,0,0,1-.295-.174l0-.016A.242.242,0,0,1,1604.732,2636.766Z" transform="translate(-1598.899 -2621.645)" fill="#fff"/>
            <path id="Path_10167" data-name="Path 10167" d="M1682.387,2422.155l.827.866a.242.242,0,0,1-.008.342l-.012.012a.242.242,0,0,1-.342-.008l-.827-.866a.242.242,0,0,1,.008-.342l.012-.011A.242.242,0,0,1,1682.387,2422.155Z" transform="translate(-1672.543 -2417.688)" fill="#f1b104"/>
            <path id="Path_10168" data-name="Path 10168" d="M1680.189,2518.938l.036,1.2a.242.242,0,0,1-.235.249h-.016a.242.242,0,0,1-.249-.235l-.036-1.2a.242.242,0,0,1,.234-.249h.017A.242.242,0,0,1,1680.189,2518.938Z" transform="translate(-1670.385 -2509.615)" fill="#ff6e00"/>
            <path id="Path_10169" data-name="Path 10169" d="M1626.547,2577.525l.827.866a.242.242,0,0,1-.008.342l-.012.011a.242.242,0,0,1-.342-.008l-.828-.866a.242.242,0,0,1,.008-.342l.012-.011A.242.242,0,0,1,1626.547,2577.525Z" transform="translate(-1619.417 -2565.505)" fill="#f1b104"/>
          </g>
          <g id="Group_4524" data-name="Group 4524" transform="translate(0 7.292)">
            <path id="Path_10170" data-name="Path 10170" d="M1283.582,2510.562l.527,1.075a.242.242,0,0,1-.111.324l-.015.007a.242.242,0,0,1-.324-.111l-.527-1.075a.242.242,0,0,1,.111-.324l.015-.007A.242.242,0,0,1,1283.582,2510.562Z" transform="translate(-1282.262 -2501.987)" fill="#fff"/>
            <path id="Path_10171" data-name="Path 10171" d="M1361.451,2441.864l.528,1.075a.241.241,0,0,1-.111.323l-.015.008a.242.242,0,0,1-.323-.111l-.528-1.076a.243.243,0,0,1,.111-.324l.015-.007A.243.243,0,0,1,1361.451,2441.864Z" transform="translate(-1356.347 -2436.628)" fill="#573240"/>
            <path id="Path_10172" data-name="Path 10172" d="M1396.683,2642.727l1.02.628a.242.242,0,0,1,.079.333l-.009.015a.242.242,0,0,1-.333.079l-1.02-.628a.242.242,0,0,1-.079-.333l.009-.014A.242.242,0,0,1,1396.683,2642.727Z" transform="translate(-1389.958 -2627.823)" fill="#fff"/>
            <path id="Path_10173" data-name="Path 10173" d="M1289.6,2336.825l1.189.145a.242.242,0,0,1,.211.269l0,.017a.242.242,0,0,1-.269.211l-1.189-.145a.241.241,0,0,1-.211-.269l0-.017A.241.241,0,0,1,1289.6,2336.825Z" transform="translate(-1288.182 -2336.823)" fill="#fff"/>
            <path id="Path_10174" data-name="Path 10174" d="M1388.473,2518.817l1.02.628a.242.242,0,0,1,.079.333l-.009.014a.242.242,0,0,1-.333.079l-1.02-.628a.242.242,0,0,1-.079-.333l.009-.014A.243.243,0,0,1,1388.473,2518.817Z" transform="translate(-1382.147 -2509.937)" fill="#fff"/>
            <path id="Path_10175" data-name="Path 10175" d="M1337.322,2589.662l-.567,1.056a.241.241,0,0,1-.328.1l-.015-.007a.242.242,0,0,1-.1-.328l.566-1.055a.242.242,0,0,1,.328-.1l.015.008A.242.242,0,0,1,1337.322,2589.662Z" transform="translate(-1332.855 -2577.025)" fill="#573240"/>
            <path id="Path_10176" data-name="Path 10176" d="M1318.421,2376.781l-.566,1.055a.242.242,0,0,1-.328.1l-.015-.008a.242.242,0,0,1-.1-.327l.566-1.055a.242.242,0,0,1,.328-.1l.015.008A.242.242,0,0,1,1318.421,2376.781Z" transform="translate(-1314.874 -2374.493)" fill="#ff6e00"/>
            <path id="Path_10177" data-name="Path 10177" d="M1467.1,2652.54l-.266,1.168a.242.242,0,0,1-.29.182l-.016,0a.242.242,0,0,1-.182-.29l.266-1.167a.242.242,0,0,1,.29-.182l.016,0A.241.241,0,0,1,1467.1,2652.54Z" transform="translate(-1456.588 -2636.908)" fill="#ff6e00"/>
            <path id="Path_10178" data-name="Path 10178" d="M1266.481,2409.639l-.266,1.168a.243.243,0,0,1-.29.183l-.016,0a.242.242,0,0,1-.182-.29l.266-1.167a.242.242,0,0,1,.29-.182l.016,0A.242.242,0,0,1,1266.481,2409.639Z" transform="translate(-1265.72 -2405.814)" fill="#fff"/>
            <path id="Path_10179" data-name="Path 10179" d="M1416.265,2586.829l-1.15.336a.242.242,0,0,1-.3-.164l0-.016a.241.241,0,0,1,.164-.3l1.15-.337a.242.242,0,0,1,.3.164l0,.016A.242.242,0,0,1,1416.265,2586.829Z" transform="translate(-1407.553 -2574.209)" fill="#f1b104"/>
            <path id="Path_10180" data-name="Path 10180" d="M1332.739,2530.34l-1.08-.518a.242.242,0,0,1-.113-.323l.007-.015a.242.242,0,0,1,.323-.114l1.08.519a.241.241,0,0,1,.113.323l-.007.015A.242.242,0,0,1,1332.739,2530.34Z" transform="translate(-1328.323 -2519.988)" fill="#ff6e00"/>
            <rect id="Rectangle_920" data-name="Rectangle 920" width="1.682" height="0.5" transform="translate(1.73 6.658) rotate(-16.32)" fill="#f1b104"/>
          </g>
        </g>
      </g>
      <g id="Group_4532" data-name="Group 4532" transform="translate(3.082 14.272)">
        <g id="Group_4527" data-name="Group 4527" transform="translate(1.993)">
          <path id="Path_10181" data-name="Path 10181" d="M626.566,2009.46a15,15,0,1,0,14.71,15A14.857,14.857,0,0,0,626.566,2009.46Zm0,19.657a4.546,4.546,0,1,1,4.457-4.545A4.5,4.5,0,0,1,626.566,2029.117Z" transform="translate(-611.856 -2009.46)" fill="#573240"/>
        </g>
        <g id="Group_4528" data-name="Group 4528">
          <path id="Path_10182" data-name="Path 10182" d="M585.566,2009.46a15,15,0,1,0,14.71,15A14.857,14.857,0,0,0,585.566,2009.46Zm0,20.161a5.05,5.05,0,1,1,4.952-5.049A5,5,0,0,1,585.566,2029.621Z" transform="translate(-570.856 -2009.46)" fill="#f55a00"/>
        </g>
        <g id="Group_4531" data-name="Group 4531" transform="translate(2.209 2.555)">
          <g id="Group_4529" data-name="Group 4529" transform="translate(0.249)">
            <path id="Path_10183" data-name="Path 10183" d="M883.238,2062.565h-1.313a.242.242,0,0,1-.242-.242v-.051a.242.242,0,0,1,.242-.242h1.313a.242.242,0,0,1,.242.242v.051A.242.242,0,0,1,883.238,2062.565Z" transform="translate(-869.031 -2062.03)" fill="#fff"/>
            <path id="Path_10184" data-name="Path 10184" d="M1042.817,2290.6H1041.5a.242.242,0,0,1-.242-.242v-.051a.242.242,0,0,1,.242-.242h1.313a.242.242,0,0,1,.242.242v.051A.243.243,0,0,1,1042.817,2290.6Z" transform="translate(-1020.852 -2278.985)" fill="#a9d8d5"/>
            <path id="Path_10185" data-name="Path 10185" d="M1103.18,2257.534l-1.26.368a.242.242,0,0,1-.3-.165l-.014-.049a.242.242,0,0,1,.164-.3l1.26-.368a.242.242,0,0,1,.3.165l.014.049A.242.242,0,0,1,1103.18,2257.534Z" transform="translate(-1078.254 -2247.533)" fill="#573240"/>
            <path id="Path_10186" data-name="Path 10186" d="M705.5,2280.775h-1.313a.242.242,0,0,1-.242-.242v-.051a.242.242,0,0,1,.242-.242H705.5a.242.242,0,0,1,.242.242v.051A.242.242,0,0,1,705.5,2280.775Z" transform="translate(-699.932 -2269.633)" fill="#fff"/>
            <path id="Path_10187" data-name="Path 10187" d="M1000.661,2240.681l-1.263-.359a.242.242,0,0,1-.167-.3l.014-.049a.242.242,0,0,1,.3-.167l1.263.36a.242.242,0,0,1,.167.3l-.014.049A.242.242,0,0,1,1000.661,2240.681Z" transform="translate(-980.857 -2231.157)" fill="#f1b104"/>
            <path id="Path_10188" data-name="Path 10188" d="M623.876,2205.995h-1.313a.242.242,0,0,1-.242-.242v-.051a.242.242,0,0,1,.242-.242h1.313a.242.242,0,0,1,.242.242v.051A.241.241,0,0,1,623.876,2205.995Z" transform="translate(-622.276 -2198.488)" fill="#f1b104"/>
            <path id="Path_10189" data-name="Path 10189" d="M912.51,2167.455H911.2a.242.242,0,0,1-.242-.242v-.051a.242.242,0,0,1,.242-.242h1.313a.242.242,0,0,1,.242.242v.051A.242.242,0,0,1,912.51,2167.455Z" transform="translate(-896.88 -2161.821)" fill="#573240"/>
            <path id="Path_10190" data-name="Path 10190" d="M1047.716,2127.392l-1.137-.656a.242.242,0,0,1-.089-.331l.026-.044a.242.242,0,0,1,.33-.089l1.137.656a.242.242,0,0,1,.088.331l-.026.044A.241.241,0,0,1,1047.716,2127.392Z" transform="translate(-1025.796 -2123.118)" fill="#f6acc1"/>
            <path id="Path_10191" data-name="Path 10191" d="M721.145,2111.659l-1.11.7a.242.242,0,0,1-.334-.075l-.027-.043a.242.242,0,0,1,.075-.333l1.11-.7a.242.242,0,0,1,.334.075l.027.043A.242.242,0,0,1,721.145,2111.659Z" transform="translate(-714.861 -2108.781)" fill="#fff"/>
            <path id="Path_10192" data-name="Path 10192" d="M1068.249,2183.708l-.717,1.1a.242.242,0,0,1-.335.071l-.042-.028a.242.242,0,0,1-.071-.335l.716-1.1a.242.242,0,0,1,.335-.071l.043.028A.242.242,0,0,1,1068.249,2183.708Z" transform="translate(-1045.382 -2177.411)" fill="#fff"/>
            <path id="Path_10193" data-name="Path 10193" d="M840.271,2169.809l-1.11.7a.242.242,0,0,1-.334-.075l-.027-.043a.242.242,0,0,1,.075-.334l1.11-.7a.242.242,0,0,1,.334.075l.027.043A.242.242,0,0,1,840.271,2169.809Z" transform="translate(-828.197 -2164.104)" fill="#fff"/>
            <path id="Path_10194" data-name="Path 10194" d="M785.092,2144.038l-.454-1.232a.242.242,0,0,1,.143-.31l.048-.018a.242.242,0,0,1,.311.143l.454,1.232a.242.242,0,0,1-.143.311l-.048.017A.242.242,0,0,1,785.092,2144.038Z" transform="translate(-776.689 -2138.553)" fill="#f1b104"/>
            <path id="Path_10195" data-name="Path 10195" d="M787.017,2067.134l-.765-1.067a.242.242,0,0,1,.056-.338l.041-.03a.242.242,0,0,1,.338.055l.765,1.067a.242.242,0,0,1-.055.338l-.041.03A.242.242,0,0,1,787.017,2067.134Z" transform="translate(-778.195 -2065.479)" fill="#573240"/>
            <path id="Path_10196" data-name="Path 10196" d="M1016.131,2163.143l-.765-1.067a.242.242,0,0,1,.056-.338l.041-.03a.242.242,0,0,1,.338.056l.765,1.067a.242.242,0,0,1-.055.337l-.041.03A.241.241,0,0,1,1016.131,2163.143Z" transform="translate(-996.172 -2156.82)" fill="#573240"/>
            <path id="Path_10197" data-name="Path 10197" d="M663.591,2152.329l-1.021-.826a.242.242,0,0,1-.036-.34l.032-.039a.242.242,0,0,1,.34-.036l1.021.826a.242.242,0,0,1,.036.34l-.032.039A.242.242,0,0,1,663.591,2152.329Z" transform="translate(-660.483 -2146.707)" fill="#a9d8d5"/>
            <path id="Path_10198" data-name="Path 10198" d="M981.182,2086.169l-1.021-.826a.242.242,0,0,1-.036-.34l.032-.039a.242.242,0,0,1,.34-.036l1.021.826a.242.242,0,0,1,.036.34l-.032.04A.241.241,0,0,1,981.182,2086.169Z" transform="translate(-962.636 -2083.763)" fill="#f1b104"/>
            <path id="Path_10199" data-name="Path 10199" d="M622.269,2265.134l-.813-1.031a.242.242,0,0,1,.04-.34l.04-.031a.242.242,0,0,1,.34.04l.813,1.031a.242.242,0,0,1-.04.34l-.04.031A.242.242,0,0,1,622.269,2265.134Z" transform="translate(-621.404 -2253.877)" fill="#a9d8d5"/>
            <path id="Path_10200" data-name="Path 10200" d="M732.994,2179.948l.224-1.294a.242.242,0,0,1,.28-.2l.05.009a.242.242,0,0,1,.2.28l-.224,1.294a.242.242,0,0,1-.28.2l-.05-.009A.242.242,0,0,1,732.994,2179.948Z" transform="translate(-727.566 -2172.793)" fill="#f6acc1"/>
            <path id="Path_10201" data-name="Path 10201" d="M835.525,2110.919l1.031-.813a.242.242,0,0,1,.34.041l.031.04a.242.242,0,0,1-.04.34l-1.031.813a.242.242,0,0,1-.34-.04l-.031-.04A.242.242,0,0,1,835.525,2110.919Z" transform="translate(-825.029 -2107.72)" fill="#a9d8d5"/>
            <path id="Path_10202" data-name="Path 10202" d="M670.479,2233.969l1.031-.812a.242.242,0,0,1,.34.04l.031.04a.242.242,0,0,1-.04.34l-1.031.813a.242.242,0,0,1-.34-.041l-.031-.04A.242.242,0,0,1,670.479,2233.969Z" transform="translate(-668.006 -2224.788)" fill="#573240"/>
            <path id="Path_10203" data-name="Path 10203" d="M930.778,2100.047l.224-1.294a.242.242,0,0,1,.28-.2l.05.008a.242.242,0,0,1,.2.28l-.224,1.294a.242.242,0,0,1-.28.2l-.05-.009A.242.242,0,0,1,930.778,2100.047Z" transform="translate(-915.736 -2096.778)" fill="#f6acc1"/>
            <path id="Path_10204" data-name="Path 10204" d="M961.5,2191.06l.874-.98a.242.242,0,0,1,.342-.02l.038.034a.242.242,0,0,1,.02.341l-.874.98a.242.242,0,0,1-.342.02l-.038-.034A.242.242,0,0,1,961.5,2191.06Z" transform="translate(-944.909 -2183.779)" fill="#a9d8d5"/>
          </g>
          <g id="Group_4530" data-name="Group 4530" transform="translate(0 13.391)">
            <path id="Path_10205" data-name="Path 10205" d="M832.643,2567.959l1.313.02a.242.242,0,0,1,.238.246v.051a.241.241,0,0,1-.246.238l-1.313-.02a.242.242,0,0,1-.238-.246v-.051A.242.242,0,0,1,832.643,2567.959Z" transform="translate(-821.891 -2556.757)" fill="#fff"/>
            <path id="Path_10206" data-name="Path 10206" d="M676.565,2337.51l1.313.02a.242.242,0,0,1,.238.245v.051a.242.242,0,0,1-.246.238l-1.313-.02a.242.242,0,0,1-.238-.245v-.051A.242.242,0,0,1,676.565,2337.51Z" transform="translate(-673.401 -2337.51)" fill="#a9d8d5"/>
            <path id="Path_10207" data-name="Path 10207" d="M616.469,2362.878l1.266-.349a.242.242,0,0,1,.3.169l.013.049a.241.241,0,0,1-.169.3l-1.266.349a.242.242,0,0,1-.3-.169l-.014-.049A.242.242,0,0,1,616.469,2362.878Z" transform="translate(-616.291 -2361.305)" fill="#573240"/>
            <path id="Path_10208" data-name="Path 10208" d="M1013.688,2352.49l1.313.02a.242.242,0,0,1,.238.246v.051a.242.242,0,0,1-.246.238l-1.313-.02a.242.242,0,0,1-.238-.246v-.051A.241.241,0,0,1,1013.688,2352.49Z" transform="translate(-994.136 -2351.762)" fill="#fff"/>
            <path id="Path_10209" data-name="Path 10209" d="M718.762,2381.1l1.257.378a.242.242,0,0,1,.162.3l-.015.049a.242.242,0,0,1-.3.162l-1.257-.378a.242.242,0,0,1-.162-.3l.015-.049A.242.242,0,0,1,718.762,2381.1Z" transform="translate(-713.47 -2378.967)" fill="#f1b104"/>
            <path id="Path_10210" data-name="Path 10210" d="M1094.158,2428.5l1.313.02a.242.242,0,0,1,.238.246v.051a.241.241,0,0,1-.245.238l-1.313-.02a.242.242,0,0,1-.238-.245v-.051A.242.242,0,0,1,1094.158,2428.5Z" transform="translate(-1070.694 -2424.076)" fill="#f1b104"/>
            <path id="Path_10211" data-name="Path 10211" d="M804.974,2462.63l1.313.02a.242.242,0,0,1,.238.245v.051a.242.242,0,0,1-.246.239l-1.313-.021a.242.242,0,0,1-.238-.245v-.051A.242.242,0,0,1,804.974,2462.63Z" transform="translate(-795.567 -2456.547)" fill="#573240"/>
            <path id="Path_10212" data-name="Path 10212" d="M672.308,2487.966l1.127.674a.241.241,0,0,1,.083.332l-.026.044a.242.242,0,0,1-.332.083l-1.127-.674a.242.242,0,0,1-.083-.332l.026-.043A.242.242,0,0,1,672.308,2487.966Z" transform="translate(-669.211 -2480.62)" fill="#f6acc1"/>
            <path id="Path_10213" data-name="Path 10213" d="M998.913,2508.158l1.121-.684a.243.243,0,0,1,.333.081l.026.043a.242.242,0,0,1-.08.333l-1.121.684a.242.242,0,0,1-.333-.081l-.026-.043A.242.242,0,0,1,998.913,2508.158Z" transform="translate(-980.204 -2499.178)" fill="#fff"/>
            <path id="Path_10214" data-name="Path 10214" d="M660.352,2423.309l.733-1.089a.242.242,0,0,1,.336-.065l.042.029a.242.242,0,0,1,.066.336l-.733,1.089a.242.242,0,0,1-.336.065l-.042-.028A.242.242,0,0,1,660.352,2423.309Z" transform="translate(-658.171 -2418.001)" fill="#fff"/>
            <path id="Path_10215" data-name="Path 10215" d="M880.689,2448.2l1.121-.684a.242.242,0,0,1,.333.08l.026.043a.242.242,0,0,1-.08.333l-1.121.684a.242.242,0,0,1-.333-.08l-.026-.043A.242.242,0,0,1,880.689,2448.2Z" transform="translate(-867.727 -2442.133)" fill="#fff"/>
            <path id="Path_10216" data-name="Path 10216" d="M948.263,2464.785l.435,1.239a.242.242,0,0,1-.148.308l-.048.017a.242.242,0,0,1-.308-.148l-.435-1.239a.242.242,0,0,1,.148-.308l.048-.017A.242.242,0,0,1,948.263,2464.785Z" transform="translate(-931.632 -2458.445)" fill="#f1b104"/>
            <path id="Path_10217" data-name="Path 10217" d="M939.148,2544.558l.749,1.078a.242.242,0,0,1-.061.337l-.042.029a.242.242,0,0,1-.337-.061l-.749-1.078a.242.242,0,0,1,.061-.337l.042-.029A.242.242,0,0,1,939.148,2544.558Z" transform="translate(-922.994 -2534.394)" fill="#573240"/>
            <path id="Path_10218" data-name="Path 10218" d="M711.523,2445.06l.749,1.079a.242.242,0,0,1-.061.337l-.042.029a.242.242,0,0,1-.337-.061l-.749-1.078a.242.242,0,0,1,.061-.337l.042-.029A.242.242,0,0,1,711.523,2445.06Z" transform="translate(-706.434 -2439.733)" fill="#573240"/>
            <path id="Path_10219" data-name="Path 10219" d="M1058.974,2465.71l1.008.841a.241.241,0,0,1,.031.34l-.033.039a.242.242,0,0,1-.341.031l-1.008-.842a.242.242,0,0,1-.031-.341l.032-.039A.242.242,0,0,1,1058.974,2465.71Z" transform="translate(-1037.046 -2459.425)" fill="#a9d8d5"/>
            <path id="Path_10220" data-name="Path 10220" d="M740.4,2527.01l1.008.841a.242.242,0,0,1,.031.341l-.032.039a.242.242,0,0,1-.341.03l-1.008-.841a.242.242,0,0,1-.031-.341l.032-.039A.242.242,0,0,1,740.4,2527.01Z" transform="translate(-733.961 -2517.745)" fill="#f1b104"/>
            <path id="Path_10221" data-name="Path 10221" d="M1105.991,2349.741l.8,1.044a.242.242,0,0,1-.045.339l-.04.031a.242.242,0,0,1-.339-.046l-.8-1.043a.242.242,0,0,1,.046-.339l.04-.031A.243.243,0,0,1,1105.991,2349.741Z" transform="translate(-1081.735 -2349.056)" fill="#a9d8d5"/>
            <path id="Path_10222" data-name="Path 10222" d="M1005,2428.762l-.243,1.291a.242.242,0,0,1-.283.192l-.05-.009a.242.242,0,0,1-.193-.283l.243-1.29a.242.242,0,0,1,.282-.193l.05.009A.242.242,0,0,1,1005,2428.762Z" transform="translate(-985.37 -2424.044)" fill="#f6acc1"/>
            <path id="Path_10223" data-name="Path 10223" d="M885.995,2505.031l-1.044.8a.242.242,0,0,1-.339-.045l-.031-.041a.242.242,0,0,1,.045-.339l1.044-.8a.242.242,0,0,1,.339.045l.031.041A.242.242,0,0,1,885.995,2505.031Z" transform="translate(-871.492 -2496.436)" fill="#a9d8d5"/>
            <path id="Path_10224" data-name="Path 10224" d="M1052.9,2384.51l-1.044.8a.242.242,0,0,1-.339-.045l-.031-.041a.242.242,0,0,1,.046-.339l1.043-.8a.242.242,0,0,1,.339.046l.031.04A.243.243,0,0,1,1052.9,2384.51Z" transform="translate(-1030.286 -2381.774)" fill="#573240"/>
            <path id="Path_10225" data-name="Path 10225" d="M806.02,2505.642l-.243,1.291a.242.242,0,0,1-.283.193l-.05-.009a.242.242,0,0,1-.193-.283l.243-1.29a.242.242,0,0,1,.282-.193l.05.01A.242.242,0,0,1,806.02,2505.642Z" transform="translate(-796.062 -2497.187)" fill="#f6acc1"/>
            <path id="Path_10226" data-name="Path 10226" d="M764.208,2419.816l-.889.966a.242.242,0,0,1-.342.014l-.037-.035a.242.242,0,0,1-.014-.342l.889-.966a.242.242,0,0,1,.342-.015l.037.035A.242.242,0,0,1,764.208,2419.816Z" transform="translate(-755.737 -2415.396)" fill="#a9d8d5"/>
          </g>
        </g>
      </g>
      <g id="Group_4536" data-name="Group 4536" transform="translate(18.931 1.408)">
        <g id="Group_4533" data-name="Group 4533" transform="translate(0.157)">
          <path id="Path_10227" data-name="Path 10227" d="M945.242,1744.83l-.039.34H900.14l.039-.34Z" transform="translate(-900.14 -1744.83)" fill="#fde5e3"/>
        </g>
        <g id="Group_4534" data-name="Group 4534" transform="translate(0.535 4.129)">
          <path id="Path_10228" data-name="Path 10228" d="M951.85,1829.77c-.061.117-.128.23-.2.34H908.12c-.072-.11-.139-.224-.2-.34Z" transform="translate(-907.92 -1829.77)" fill="#fde5e3"/>
        </g>
        <g id="Group_4535" data-name="Group 4535" transform="translate(0 2.065)">
          <path id="Path_10229" data-name="Path 10229" d="M941.931,1787.3l-.039.34H896.929q-.016-.168-.019-.34Z" transform="translate(-896.91 -1787.3)" fill="#fde5e3"/>
        </g>
      </g>
      <rect id="Rectangle_921" data-name="Rectangle 921" width="18.439" height="20.645" transform="translate(50.313 29.531)" fill="#f6acc1"/>
      <rect id="Rectangle_922" data-name="Rectangle 922" width="50.313" height="20.645" transform="translate(0 29.531)" fill="#fff7ca"/>
      <g id="Group_4546" data-name="Group 4546" transform="translate(0 31.425)">
        <g id="Group_4537" data-name="Group 4537">
          <rect id="Rectangle_923" data-name="Rectangle 923" width="50.335" height="0.34" fill="#fde5e3"/>
        </g>
        <g id="Group_4538" data-name="Group 4538" transform="translate(0 2.064)">
          <rect id="Rectangle_924" data-name="Rectangle 924" width="50.313" height="0.34" fill="#fde5e3"/>
        </g>
        <g id="Group_4539" data-name="Group 4539" transform="translate(0 4.129)">
          <rect id="Rectangle_925" data-name="Rectangle 925" width="50.313" height="0.34" fill="#fde5e3"/>
        </g>
        <g id="Group_4540" data-name="Group 4540" transform="translate(0 6.193)">
          <rect id="Rectangle_926" data-name="Rectangle 926" width="50.313" height="0.34" fill="#fde5e3"/>
        </g>
        <g id="Group_4541" data-name="Group 4541" transform="translate(0 8.258)">
          <rect id="Rectangle_927" data-name="Rectangle 927" width="50.313" height="0.34" fill="#fde5e3"/>
        </g>
        <g id="Group_4542" data-name="Group 4542" transform="translate(0 10.322)">
          <rect id="Rectangle_928" data-name="Rectangle 928" width="50.313" height="0.34" fill="#fde5e3"/>
        </g>
        <g id="Group_4543" data-name="Group 4543" transform="translate(0 14.451)">
          <rect id="Rectangle_929" data-name="Rectangle 929" width="50.313" height="0.34" fill="#fde5e3"/>
        </g>
        <g id="Group_4544" data-name="Group 4544" transform="translate(0 12.387)">
          <rect id="Rectangle_930" data-name="Rectangle 930" width="50.313" height="0.34" fill="#fde5e3"/>
        </g>
        <g id="Group_4545" data-name="Group 4545" transform="translate(0 16.516)">
          <rect id="Rectangle_931" data-name="Rectangle 931" width="50.313" height="0.34" fill="#fde5e3"/>
        </g>
      </g>
      <g id="Group_4556" data-name="Group 4556" transform="translate(50.313 31.425)">
        <g id="Group_4547" data-name="Group 4547" transform="translate(0.022)">
          <rect id="Rectangle_932" data-name="Rectangle 932" width="18.417" height="0.34" fill="#fabfd6"/>
        </g>
        <g id="Group_4548" data-name="Group 4548" transform="translate(0 2.064)">
          <rect id="Rectangle_933" data-name="Rectangle 933" width="18.439" height="0.34" fill="#fabfd6"/>
        </g>
        <g id="Group_4549" data-name="Group 4549" transform="translate(0 4.129)">
          <rect id="Rectangle_934" data-name="Rectangle 934" width="18.439" height="0.34" fill="#fabfd6"/>
        </g>
        <g id="Group_4550" data-name="Group 4550" transform="translate(0 6.193)">
          <rect id="Rectangle_935" data-name="Rectangle 935" width="18.439" height="0.34" fill="#fabfd6"/>
        </g>
        <g id="Group_4551" data-name="Group 4551" transform="translate(0 8.258)">
          <rect id="Rectangle_936" data-name="Rectangle 936" width="18.439" height="0.34" fill="#fabfd6"/>
        </g>
        <g id="Group_4552" data-name="Group 4552" transform="translate(0 10.322)">
          <rect id="Rectangle_937" data-name="Rectangle 937" width="18.439" height="0.34" fill="#fabfd6"/>
        </g>
        <g id="Group_4553" data-name="Group 4553" transform="translate(0 14.451)">
          <rect id="Rectangle_938" data-name="Rectangle 938" width="18.439" height="0.34" fill="#fabfd6"/>
        </g>
        <g id="Group_4554" data-name="Group 4554" transform="translate(0 12.387)">
          <rect id="Rectangle_939" data-name="Rectangle 939" width="18.439" height="0.34" fill="#fabfd6"/>
        </g>
        <g id="Group_4555" data-name="Group 4555" transform="translate(0 16.516)">
          <rect id="Rectangle_940" data-name="Rectangle 940" width="18.439" height="0.34" fill="#fabfd6"/>
        </g>
      </g>
    </g>
  </g>
</svg>
