<svg xmlns="http://www.w3.org/2000/svg" width="208.52" height="185.469" viewBox="0 0 208.52 185.469">
  <g id="illustration" transform="translate(-49.99 -52.4)">
    <g id="Group_6309" data-name="Group 6309">
      <ellipse id="Ellipse_5670" data-name="Ellipse 5670" cx="104.26" cy="16.927" rx="104.26" ry="16.927" transform="translate(49.99 204.016)" fill="#e6e6e6" opacity="0.45"/>
      <rect id="Rectangle_944" data-name="Rectangle 944" width="102.692" height="170.694" transform="translate(103.579 52.4)" fill="#c1c1c1"/>
      <rect id="Rectangle_945" data-name="Rectangle 945" width="102.692" height="170.694" transform="translate(111.085 52.4)" fill="#e6e6e6"/>
      <path id="Path_10248" data-name="Path 10248" d="M80.616,237.758s-5.671-1.552-6.906-6.827c0,0,8.82-1.764,9.041,7.294Z" transform="translate(2.421 -21.05)" fill="#23cbd8" opacity="0.58"/>
      <path id="Path_10249" data-name="Path 10249" d="M82.074,236.428S78.1,230.165,81.6,224.3a10.1,10.1,0,0,1,3.713,12.145Z" transform="translate(1.66 -20.284)" fill="#23cbd8" opacity="0.73"/>
      <path id="Path_10250" data-name="Path 10250" d="M83.48,237.006s2.1-6.624,8.432-7.876c0,0,1.182,4.3-4.1,7.938Z" transform="translate(1.269 -20.854)" fill="#23cbd8"/>
      <path id="Path_10251" data-name="Path 10251" d="M78.82,237.89l1.147,7.867,7.241.026,1.076-7.859Z" transform="translate(1.818 -21.887)" fill="#222"/>
      <rect id="Rectangle_946" data-name="Rectangle 946" width="83.773" height="136.914" transform="translate(120.69 64.413)" fill="#fff"/>
      <path id="Path_10256" data-name="Path 10256" d="M124.23,66V94.224h10.478a5.927,5.927,0,0,0,6.342,5.857h76.267V88.835L153.962,74.123Z" transform="translate(-3.54 -1.605)" opacity="0.05"/>
      <path id="Path_10258" data-name="Path 10258" d="M124.23,66.02l12.683,20.418h10.469l-12.6-20.418Z" transform="translate(-3.54 -1.607)" fill="#23cbd8"/>
      <path id="Path_10259" data-name="Path 10259" d="M136.11,66.02l12.674,20.418h10.469L146.65,66.02Z" transform="translate(-4.941 -1.607)" fill="#68e1fd"/>
      <path id="Path_10260" data-name="Path 10260" d="M147.92,66.02l12.674,20.418h10.478L158.46,66.02Z" transform="translate(-6.335 -1.607)" fill="#23cbd8"/>
      <path id="Path_10261" data-name="Path 10261" d="M159.79,66.02l12.683,20.418h10.469L170.33,66.02Z" transform="translate(-7.736 -1.607)" fill="#68e1fd"/>
      <path id="Path_10262" data-name="Path 10262" d="M171.66,66.02l12.683,20.418h10.469l-12.6-20.418Z" transform="translate(-9.137 -1.607)" fill="#23cbd8"/>
      <path id="Path_10263" data-name="Path 10263" d="M183.53,66.02l12.683,20.418h10.469l-12.6-20.418Z" transform="translate(-10.537 -1.607)" fill="#68e1fd"/>
      <path id="Path_10264" data-name="Path 10264" d="M195.35,66.02l12.674,20.418H218.5L205.89,66.02Z" transform="translate(-11.932 -1.607)" fill="#23cbd8"/>
      <path id="Path_10265" data-name="Path 10265" d="M207.22,66.02,219.9,86.438h10.469L217.76,66.02Z" transform="translate(-13.332 -1.607)" fill="#68e1fd"/>
      <path id="Path_10266" data-name="Path 10266" d="M136.11,66.02l12.674,20.418h10.469L146.65,66.02Z" transform="translate(-4.941 -1.607)" fill="#abd2d5" opacity="0.44"/>
      <path id="Path_10267" data-name="Path 10267" d="M159.79,66.02l12.683,20.418h10.469L170.33,66.02Z" transform="translate(-7.736 -1.607)" fill="#abd2d5" opacity="0.44"/>
      <path id="Path_10268" data-name="Path 10268" d="M183.53,66.02l12.683,20.418h10.469l-12.6-20.418Z" transform="translate(-10.537 -1.607)" fill="#abd2d5" opacity="0.44"/>
      <path id="Path_10269" data-name="Path 10269" d="M207.22,66.02,219.9,86.438h10.469L217.76,66.02Z" transform="translate(-13.332 -1.607)" fill="#abd2d5" opacity="0.44"/>
      <path id="Path_10270" data-name="Path 10270" d="M138.609,89.17h10.469v1.967a5.239,5.239,0,0,1-5.239,5.239h0a5.239,5.239,0,0,1-5.239-5.239V89.17Z" transform="translate(-5.235 -4.339)" fill="#23cbd8"/>
      <path id="Path_10271" data-name="Path 10271" d="M150.479,89.17h10.469v1.967a5.239,5.239,0,0,1-5.239,5.239h0a5.239,5.239,0,0,1-5.239-5.239V89.17Z" transform="translate(-6.636 -4.339)" fill="#68e1fd"/>
      <path id="Path_10272" data-name="Path 10272" d="M150.479,89.17h10.469v1.967a5.239,5.239,0,0,1-5.239,5.239h0a5.239,5.239,0,0,1-5.239-5.239V89.17Z" transform="translate(-6.636 -4.339)" fill="#abd2d5" opacity="0.44"/>
      <path id="Path_10273" data-name="Path 10273" d="M162.289,89.17h10.469v1.967a5.239,5.239,0,0,1-5.239,5.239h0a5.239,5.239,0,0,1-5.239-5.239V89.17Z" transform="translate(-8.029 -4.339)" fill="#23cbd8"/>
      <path id="Path_10274" data-name="Path 10274" d="M174.164,89.17H184.6v1.967a5.239,5.239,0,0,1-5.239,5.239h0a5.239,5.239,0,0,1-5.239-5.239V89.17Z" transform="translate(-9.427 -4.339)" fill="#68e1fd"/>
      <path id="Path_10275" data-name="Path 10275" d="M174.164,89.17H184.6v1.967a5.239,5.239,0,0,1-5.239,5.239h0a5.239,5.239,0,0,1-5.239-5.239V89.17Z" transform="translate(-9.427 -4.339)" fill="#abd2d5" opacity="0.44"/>
      <path id="Path_10276" data-name="Path 10276" d="M186,89.17h10.469v1.967a5.239,5.239,0,0,1-5.178,5.239h0A5.239,5.239,0,0,1,186,91.137Z" transform="translate(-10.828 -4.339)" fill="#23cbd8"/>
      <path id="Path_10277" data-name="Path 10277" d="M197.909,89.17h10.469v1.967a5.239,5.239,0,0,1-5.239,5.239h0a5.239,5.239,0,0,1-5.239-5.239V89.17Z" transform="translate(-12.232 -4.339)" fill="#68e1fd"/>
      <path id="Path_10278" data-name="Path 10278" d="M197.909,89.17h10.469v1.967a5.239,5.239,0,0,1-5.239,5.239h0a5.239,5.239,0,0,1-5.239-5.239V89.17Z" transform="translate(-12.232 -4.339)" fill="#abd2d5" opacity="0.44"/>
      <path id="Path_10279" data-name="Path 10279" d="M209.72,89.17H220.2v1.967a5.239,5.239,0,0,1-5.239,5.239h0a5.239,5.239,0,0,1-5.239-5.239Z" transform="translate(-13.627 -4.339)" fill="#23cbd8"/>
      <path id="Path_10280" data-name="Path 10280" d="M221.6,89.17h10.469v1.967a5.239,5.239,0,0,1-5.239,5.239h0a5.239,5.239,0,0,1-5.239-5.239V89.17Z" transform="translate(-15.028 -4.339)" fill="#68e1fd"/>
      <path id="Path_10281" data-name="Path 10281" d="M221.6,89.17h10.469v1.967a5.239,5.239,0,0,1-5.239,5.239h0a5.239,5.239,0,0,1-5.239-5.239V89.17Z" transform="translate(-15.028 -4.339)" fill="#abd2d5" opacity="0.44"/>
      <rect id="Rectangle_957" data-name="Rectangle 957" width="60.117" height="13.698" transform="translate(134.635 173.967)" fill="#23cbd8"/>
      <circle id="Ellipse_5669" data-name="Ellipse 5669" cx="6.006" cy="6.006" r="6.006" transform="translate(158.201 205.313)" fill="#c1c1c1"/>
      <line id="Line_347" data-name="Line 347" x2="34.072" transform="translate(146.595 58.451)" fill="none" stroke="#c1c1c1" stroke-width="1"/>
      <g id="Group_6307" data-name="Group 6307" transform="translate(158.201 107.352)">
        <path id="Path_10663" data-name="Path 10663" d="M242.976,194.17v50.25a5.288,5.288,0,0,0,3.61,5,5.229,5.229,0,0,0,1.66.27,5.285,5.285,0,0,0,5.27-5.27V194.17a5.285,5.285,0,0,0-5.27-5.27,5.228,5.228,0,0,0-1.66.27,5.293,5.293,0,0,0-3.61,5Z" transform="translate(-242.976 -188.9)" fill="#222"/>
        <path id="Path_10664" data-name="Path 10664" d="M251.734,194.612v50.25a5.288,5.288,0,0,0,3.61,5,5.288,5.288,0,0,0,3.61-5v-50.25a5.288,5.288,0,0,0-3.61-5,5.293,5.293,0,0,0-3.61,5Z" transform="translate(-251.734 -189.342)" fill="#222"/>
      </g>
      <g id="Group_6308" data-name="Group 6308" transform="translate(160.406 113.604)">
        <g id="Group_6224" data-name="Group 6224" transform="translate(0 0)">
          <path id="Path_10678" data-name="Path 10678" d="M60.841,208.774v41.587a3.388,3.388,0,0,0,3.388,3.386h70.625a3.386,3.386,0,0,0,3.386-3.386V208.774a3.387,3.387,0,0,0-3.386-3.386H64.229A3.388,3.388,0,0,0,60.841,208.774Z" transform="translate(-60.841 -205.388)" fill="#222"/>
          <rect id="Rectangle_986" data-name="Rectangle 986" width="77.398" height="9.217" transform="translate(0.001 8.551)" fill="#146d74"/>
          <rect id="Rectangle_987" data-name="Rectangle 987" width="18.205" height="6.378" rx="3.189" transform="translate(5.592 35.734)" fill="#23cbd8"/>
          <g id="Group_6223" data-name="Group 6223" transform="translate(4.492 25.223)">
            <rect id="Rectangle_988" data-name="Rectangle 988" width="5.914" height="3.479" rx="1.07" transform="translate(62.501)" fill="#23cbd8"/>
            <rect id="Rectangle_989" data-name="Rectangle 989" width="5.914" height="3.479" rx="1.07" transform="translate(52.084)" fill="#23cbd8"/>
            <rect id="Rectangle_990" data-name="Rectangle 990" width="5.914" height="3.479" rx="1.07" transform="translate(41.667)" fill="#23cbd8"/>
            <rect id="Rectangle_991" data-name="Rectangle 991" width="5.914" height="3.479" rx="1.07" transform="translate(31.251)" fill="#23cbd8"/>
            <rect id="Rectangle_992" data-name="Rectangle 992" width="5.914" height="3.479" rx="1.07" transform="translate(20.834)" fill="#23cbd8"/>
            <rect id="Rectangle_993" data-name="Rectangle 993" width="5.914" height="3.479" rx="1.07" transform="translate(10.417)" fill="#23cbd8"/>
            <rect id="Rectangle_994" data-name="Rectangle 994" width="5.914" height="3.479" rx="1.07" transform="translate(0)" fill="#23cbd8"/>
          </g>
          <rect id="Rectangle_995" data-name="Rectangle 995" width="77.398" height="1.767" transform="translate(0.001 3.667)" fill="#23cbd8"/>
          <rect id="Rectangle_996" data-name="Rectangle 996" width="10.417" height="10.417" rx="5.208" transform="translate(62.49 32.603)" fill="#23cbd8"/>
          <rect id="Rectangle_997" data-name="Rectangle 997" width="33.723" height="2.87" rx="1.435" transform="translate(26.283 37.488)" fill="#23cbd8"/>
          <path id="Path_10679" data-name="Path 10679" d="M60.841,205.388l47.542,47.542a3.38,3.38,0,0,0,1.18-2.569v-14.59L79.179,205.388Z" transform="translate(-32.164 -205.388)" fill="#fff" opacity="0.2"/>
          <path id="Path_10680" data-name="Path 10680" d="M104.446,205.388l48.359,48.359h8.973l-48.359-48.359Z" transform="translate(-100.914 -205.388)" fill="#fff" opacity="0.2"/>
        </g>
      </g>
      <text id="Pay" transform="translate(163.99 183.102)" fill="#222" font-size="8" font-family="Yellix-ExtraBold, Yellix" font-weight="800"><tspan x="-6" y="0">Pay</tspan></text>
    </g>
  </g>
</svg>
