<svg width="50" height="50" viewBox="0 0 50 50" fill="none" xmlns="http://www.w3.org/2000/svg">
<path d="M41.6668 38.9375L16.3335 12.7917L10.9793 7.27087L8.3335 9.91671L14.1668 15.75V15.7709C13.0835 17.8334 12.5002 20.2709 12.5002 22.8959V33.3125L8.3335 37.4792V39.5625H36.9377L41.1043 43.7292L43.7502 41.0834L41.6668 38.9375ZM25.0002 45.8334C27.3127 45.8334 29.1668 43.9792 29.1668 41.6667H20.8335C20.8335 43.9792 22.6877 45.8334 25.0002 45.8334ZM37.5002 30.5834V22.9167C37.5002 16.5 34.0835 11.1667 28.1252 9.75004V8.33337C28.1252 6.60421 26.7293 5.20837 25.0002 5.20837C23.271 5.20837 21.8752 6.60421 21.8752 8.33337V9.75004C21.5627 9.81254 21.271 9.91671 21.0002 10C20.7918 10.0625 20.5835 10.1459 20.3752 10.2292H20.3543C20.3335 10.2292 20.3335 10.2292 20.3127 10.25C19.8335 10.4375 19.3543 10.6667 18.896 10.8959C18.896 10.8959 18.8752 10.8959 18.8752 10.9167L37.5002 30.5834Z" fill="#808080"/>
</svg>
