<svg width="173" height="136" viewBox="0 0 173 136" fill="none" xmlns="http://www.w3.org/2000/svg">
<path d="M172.283 124.154H0V124.24H172.283V124.154Z" fill="#EBEBEB"/>
<path d="M155.021 129.7H143.608V129.786H155.021V129.7Z" fill="#EBEBEB"/>
<path d="M94.1429 128.621H89.7019V128.707H94.1429V128.621Z" fill="#EBEBEB"/>
<path d="M120.483 128.985H111.132V129.071H120.483V128.985Z" fill="#EBEBEB"/>
<path d="M143.263 126.501H123.929V126.587H143.263V126.501Z" fill="#EBEBEB"/>
<path d="M27.2159 130.487H18.0759V130.573H27.2159V130.487Z" fill="#EBEBEB"/>
<path d="M38.208 130.487H30.283V130.573H38.208V130.487Z" fill="#EBEBEB"/>
<path d="M66.0919 128.578H45.1379V128.664H66.0919V128.578Z" fill="#EBEBEB"/>
<path d="M81.667 108.787H15.132C14.6105 108.786 14.1105 108.579 13.7417 108.21C13.373 107.842 13.1656 107.342 13.165 106.82V13.294C13.1658 12.7727 13.3734 12.2729 13.7421 11.9044C14.1108 11.5358 14.6107 11.3285 15.132 11.328H81.667C82.1882 11.3288 82.6878 11.5362 83.0563 11.9047C83.4249 12.2732 83.6322 12.7728 83.633 13.294V106.82C83.6325 107.341 83.4252 107.841 83.0567 108.21C82.6881 108.579 82.1884 108.786 81.667 108.787ZM15.132 11.414C14.6334 11.4143 14.1553 11.6124 13.8026 11.9649C13.4499 12.3174 13.2516 12.7954 13.251 13.294V106.82C13.2516 107.319 13.4499 107.797 13.8026 108.149C14.1552 108.502 14.6333 108.7 15.132 108.701H81.667C82.1657 108.7 82.6437 108.502 82.9962 108.149C83.3487 107.797 83.5468 107.319 83.547 106.82V13.294C83.5465 12.7956 83.3483 12.3177 82.9958 11.9652C82.6434 11.6128 82.1655 11.4145 81.667 11.414H15.132Z" fill="#EBEBEB"/>
<path d="M156.195 108.787H89.6601C89.1388 108.786 88.639 108.579 88.2704 108.21C87.9019 107.841 87.6946 107.341 87.6941 106.82V13.294C87.6949 12.7728 87.9023 12.2732 88.2708 11.9047C88.6393 11.5362 89.1389 11.3288 89.6601 11.328H156.195C156.716 11.3285 157.216 11.5358 157.585 11.9044C157.954 12.2729 158.161 12.7727 158.162 13.294V106.82C158.162 107.342 157.954 107.842 157.585 108.21C157.217 108.579 156.717 108.786 156.195 108.787V108.787ZM89.6601 11.414C89.1617 11.4145 88.6838 11.6128 88.3313 11.9652C87.9789 12.3177 87.7806 12.7956 87.7801 13.294V106.82C87.7804 107.319 87.9785 107.797 88.331 108.149C88.6834 108.502 89.1615 108.7 89.6601 108.701H156.195C156.694 108.7 157.172 108.502 157.525 108.149C157.877 107.797 158.076 107.319 158.076 106.82V13.294C158.075 12.7955 157.877 12.3176 157.524 11.9652C157.172 11.6127 156.694 11.4145 156.195 11.414H89.6601Z" fill="#EBEBEB"/>
<path d="M160.934 59.298C162.016 55.5607 161.897 51.5776 160.592 47.912C161.977 45.9304 162.895 43.661 163.279 41.2738C163.662 38.8867 163.5 36.4438 162.804 34.1283C162.109 31.8128 160.898 29.6847 159.263 27.9036C157.628 26.1225 155.612 24.7346 153.364 23.844C152.705 19.1042 150.828 14.6164 147.915 10.8195C145.003 7.02272 141.154 4.0469 136.747 2.18314C132.339 0.319379 127.524 -0.368503 122.771 0.186774C118.018 0.742051 113.49 2.52147 109.631 5.351C107.688 3.3202 105.184 1.91443 102.438 1.31312C99.693 0.711815 96.8307 0.942256 94.2168 1.97503C91.6029 3.0078 89.356 4.79605 87.763 7.11151C86.1699 9.42698 85.303 12.1646 85.2729 14.975C81.6371 15.7041 78.2541 17.3684 75.4577 19.8038C72.6614 22.2392 70.5482 25.3615 69.3266 28.8627C68.1051 32.364 67.8173 36.1232 68.4918 39.7695C69.1663 43.4159 70.7797 46.8234 73.1729 49.656C71.6561 52.3893 70.9704 55.506 71.2001 58.6236C71.4298 61.7411 72.5647 64.7237 74.4657 67.2052C76.3666 69.6867 78.9508 71.5592 81.901 72.5927C84.8512 73.6262 88.0389 73.7757 91.0729 73.023C94.7787 78.1318 100.294 81.6344 106.494 82.8164C112.693 83.9985 119.11 82.7709 124.436 79.384C127.027 85.412 129.158 94.453 124.573 103.318C141.231 101.684 153.26 85.706 150.809 71.068C153.245 69.9513 155.411 68.3214 157.158 66.2899C158.906 64.2585 160.194 61.8734 160.934 59.298V59.298Z" fill="#EBEBEB"/>
<path d="M128.976 100.012C128.923 100.012 128.87 99.9994 128.822 99.9755C128.774 99.9516 128.733 99.917 128.701 99.8744C128.669 99.8317 128.647 99.7822 128.637 99.7298C128.628 99.6773 128.63 99.6233 128.645 99.572C130.992 91.4 128.853 83.565 126.645 78.431L125.527 75.831L123.138 77.347C118.331 80.4046 112.538 81.513 106.941 80.4462C101.345 79.3794 96.3662 76.2177 93.0209 71.606L92.0659 70.289L90.4869 70.682C87.9091 71.3196 85.2012 71.1908 82.6956 70.3114C80.1899 69.4321 77.9955 67.8404 76.3815 65.7317C74.7675 63.623 73.8042 61.089 73.6097 58.4407C73.4153 55.7923 73.9982 53.1448 75.2869 50.823L76.0869 49.37L75.0159 48.101C72.8926 45.5886 71.4611 42.5661 70.8626 39.3316C70.2642 36.0972 70.5194 32.7625 71.6031 29.6568C72.6869 26.5511 74.5617 23.7816 77.0425 21.6216C79.5234 19.4617 82.5245 17.9859 85.7499 17.34L87.6629 16.955L87.6849 15.003C87.7096 12.6722 88.4282 10.4017 89.7491 8.48119C91.07 6.56069 92.9331 5.07733 95.1008 4.22046C97.2685 3.36359 99.6423 3.17206 101.919 3.67034C104.196 4.16861 106.273 5.33408 107.885 7.01798L109.348 8.54698L111.055 7.29898C114.577 4.71574 118.71 3.09109 123.049 2.58397C127.388 2.07685 131.784 2.70463 135.807 4.40588C139.83 6.10713 143.343 8.8236 146.002 12.2896C148.661 15.7555 150.374 19.8522 150.975 24.179L151.17 25.571L152.478 26.088C154.387 26.8448 156.099 28.0239 157.487 29.5368C158.876 31.0496 159.904 32.8571 160.494 34.8236C161.084 36.7902 161.222 38.8649 160.897 40.8923C160.571 42.9196 159.791 44.847 158.615 46.53L157.908 47.547L158.323 48.718C159.676 52.5355 159.552 56.7214 157.975 60.452C156.397 64.1826 153.481 67.1877 149.799 68.876L148.124 69.647L148.424 71.466C149.47 77.713 147.588 84.536 143.261 90.186C139.686 94.8723 134.719 98.3069 129.073 99.998C129.041 100.007 129.009 100.012 128.976 100.012ZM125.685 74.979C125.719 74.9792 125.753 74.9846 125.785 74.995C125.833 75.0096 125.877 75.0344 125.914 75.0677C125.951 75.1011 125.98 75.1421 126 75.188L127.278 78.16C129.478 83.27 131.603 91.01 129.473 99.16C134.736 97.4466 139.354 94.1727 142.713 89.773C146.924 84.273 148.758 77.644 147.743 71.585L147.395 69.507C147.383 69.4319 147.396 69.3548 147.432 69.2878C147.468 69.2209 147.525 69.1678 147.595 69.137L149.508 68.247C153.033 66.6307 155.826 63.7536 157.336 60.1818C158.847 56.6101 158.966 52.6023 157.671 48.947L157.197 47.609C157.179 47.5574 157.173 47.5022 157.18 47.4479C157.187 47.3936 157.208 47.3419 157.239 47.297L158.051 46.134C159.168 44.5361 159.908 42.7063 160.217 40.7815C160.526 38.8568 160.395 36.8871 159.835 35.02C159.275 33.1529 158.299 31.4369 156.981 30.0005C155.663 28.5641 154.037 27.4447 152.225 26.726L150.73 26.135C150.673 26.1125 150.624 26.0754 150.586 26.0274C150.548 25.9795 150.524 25.9224 150.516 25.862L150.294 24.27C149.712 20.0599 148.047 16.0732 145.461 12.7002C142.875 9.32726 139.458 6.68369 135.543 5.02843C131.629 3.37316 127.351 2.76295 123.13 3.25755C118.909 3.75216 114.889 5.33463 111.463 7.84997L109.508 9.28198C109.44 9.33137 109.357 9.35454 109.274 9.34718C109.191 9.33982 109.113 9.30243 109.055 9.24198L107.385 7.49398C105.868 5.90918 103.913 4.81239 101.769 4.34357C99.6261 3.87474 97.3917 4.05515 95.3514 4.86177C93.3111 5.66839 91.5573 7.06463 90.314 8.87231C89.0707 10.68 88.3942 12.8171 88.3709 15.011L88.3459 17.241C88.3449 17.3199 88.3169 17.3962 88.2665 17.457C88.216 17.5178 88.1463 17.5594 88.0689 17.575L85.8819 18.015C82.7741 18.6378 79.8825 20.0602 77.4922 22.1418C75.102 24.2235 73.2959 26.8923 72.252 29.885C71.2082 32.8778 70.9627 36.091 71.5398 39.2076C72.1169 42.3242 73.4966 45.2364 75.5429 47.657L76.7669 49.108C76.8119 49.1613 76.8397 49.2271 76.8465 49.2966C76.8533 49.366 76.8388 49.4359 76.8049 49.497L75.8859 51.158C75.413 52.0109 75.0373 52.9143 74.7659 53.851C74.1354 56.0352 74.0911 58.347 74.6373 60.5538C75.1834 62.7607 76.3009 64.7849 77.8774 66.423C79.4538 68.061 81.4337 69.2553 83.618 69.8856C85.8023 70.516 88.114 70.5602 90.3209 70.014L92.1209 69.566C92.1875 69.5491 92.2577 69.5526 92.3222 69.5761C92.3868 69.5997 92.4428 69.6421 92.4829 69.698L93.5749 71.203C96.4011 75.1244 100.467 77.9782 105.116 79.303C108.069 80.1595 111.171 80.3762 114.215 79.9386C117.258 79.5009 120.174 78.419 122.766 76.765L125.498 75.032C125.554 74.9967 125.619 74.9783 125.685 74.979V74.979Z" fill="white"/>
<path d="M104.813 42.765L95.5768 41.33L95.7208 40.407C95.882 39.1034 96.2645 37.8369 96.8518 36.662C97.3653 35.732 98.0468 34.9053 98.8618 34.224C100.589 32.9283 102.399 31.7468 104.28 30.687C105.759 29.8203 106.568 28.9423 106.706 28.053C106.788 27.6742 106.789 27.2823 106.708 26.9031C106.628 26.5239 106.468 26.166 106.24 25.853C105.65 25.204 104.835 24.8053 103.961 24.739C103.434 24.641 102.893 24.6526 102.371 24.773C101.849 24.8935 101.357 25.1202 100.927 25.439C99.8484 26.4355 99.123 27.7554 98.8598 29.2L89.6118 26.565C90.288 23.4322 92.0984 20.6599 94.6948 18.781C97.2195 17.0083 100.75 16.475 105.287 17.181C108.318 17.5087 111.18 18.7439 113.498 20.725C114.735 21.7674 115.679 23.1144 116.237 24.633C116.795 26.1516 116.948 27.7894 116.68 29.385C116.452 30.7918 115.842 32.109 114.917 33.193C113.354 34.8102 111.528 36.1506 109.517 37.157C108.175 37.8188 106.962 38.713 105.932 39.798C105.319 40.6789 104.934 41.6985 104.813 42.765V42.765ZM94.8788 43.733L104.771 45.273L103.413 53.998L93.5208 52.458L94.8788 43.733Z" fill="white"/>
<path d="M128.382 56.288L123.254 52.135L123.669 51.622C124.229 50.8834 124.912 50.246 125.687 49.737C126.33 49.3514 127.04 49.0886 127.779 48.962C129.293 48.7833 130.817 48.7038 132.341 48.724C132.773 48.7797 133.213 48.7418 133.629 48.6129C134.046 48.4841 134.43 48.2672 134.756 47.977C134.941 47.7751 135.082 47.5363 135.168 47.2761C135.254 47.016 135.284 46.7406 135.256 46.468C135.125 45.8619 134.767 45.329 134.256 44.979C133.969 44.7322 133.635 44.547 133.274 44.4352C132.912 44.3234 132.532 44.2872 132.156 44.329C131.142 44.5539 130.23 45.1025 129.556 45.892L124.845 41.003C126.368 39.3303 128.457 38.28 130.708 38.054C132.878 37.8673 135.222 38.794 137.741 40.834C139.475 42.1092 140.783 43.878 141.496 45.909C141.881 46.9842 141.98 48.1413 141.782 49.2662C141.584 50.3912 141.096 51.4451 140.367 52.324C139.729 53.102 138.889 53.69 137.94 54.024C136.413 54.4569 134.824 54.6277 133.24 54.529C132.186 54.4569 131.128 54.572 130.115 54.869C129.428 55.1908 128.833 55.6784 128.382 56.288ZM121.975 53.355L127.467 57.804L123.543 62.648L118.051 58.199L121.975 53.355Z" fill="white"/>
<path d="M129.816 26.438L127.597 23.408L127.897 23.186C128.312 22.861 128.781 22.609 129.281 22.441C129.691 22.3222 130.119 22.2805 130.545 22.318C131.404 22.4393 132.254 22.6167 133.09 22.849C133.32 22.9423 133.567 22.9852 133.815 22.9746C134.063 22.9641 134.306 22.9005 134.528 22.788C134.659 22.7036 134.771 22.5923 134.855 22.4614C134.94 22.3306 134.996 22.1832 135.02 22.029C135.036 21.6771 134.917 21.3322 134.688 21.065C134.566 20.8875 134.409 20.7371 134.226 20.623C134.044 20.509 133.84 20.4337 133.627 20.402C133.037 20.3794 132.456 20.5489 131.971 20.885L130.088 17.51C131.17 16.8107 132.472 16.5358 133.744 16.738C135.187 17.1051 136.431 18.0201 137.211 19.289C137.98 20.2423 138.444 21.4058 138.541 22.627C138.597 23.2748 138.483 23.9261 138.211 24.5165C137.939 25.107 137.517 25.6162 136.988 25.994C136.524 26.3298 135.976 26.5315 135.405 26.577C134.502 26.595 133.602 26.4598 132.745 26.177C132.175 25.9844 131.577 25.8943 130.976 25.911C130.551 25.9877 130.153 26.1688 129.816 26.438ZM126.716 23.894L129.093 27.14L126.23 29.24L123.853 25.994L126.716 23.894Z" fill="white"/>
<path d="M44.219 69.43C41.311 69.4218 38.4592 68.6293 35.964 67.136C34.294 66.184 32.8315 64.9074 31.6624 63.3815C30.4934 61.8556 29.6415 60.1112 29.157 58.251C26.7211 58.0781 24.4323 57.0212 22.7211 55.2791C21.0099 53.5369 19.9942 51.2296 19.865 48.791C18.8055 48.071 17.9192 47.1247 17.27 46.0204C16.6208 44.9161 16.2249 43.6815 16.111 42.4056C15.997 41.1297 16.1678 39.8444 16.611 38.6426C17.0543 37.4408 17.7589 36.3524 18.674 35.456C18.0969 33.0058 18.1572 30.4486 18.8491 28.0284C19.5411 25.6081 20.8415 23.4055 22.6265 21.6306C24.4114 19.8556 26.6213 18.5676 29.0455 17.8893C31.4696 17.2111 34.0271 17.1652 36.474 17.756C37.0719 16.3963 38.0518 15.2396 39.2947 14.4263C40.5376 13.613 41.9899 13.1782 43.4752 13.1747C44.9605 13.1712 46.4149 13.5992 47.6616 14.4066C48.9083 15.214 49.8937 16.3662 50.498 17.723C52.4257 17.4052 54.4027 17.5869 56.2401 18.2507C58.0776 18.9145 59.7143 20.0383 60.9938 21.5147C62.2734 22.9911 63.1531 24.7709 63.5489 26.6841C63.9448 28.5973 63.8436 30.58 63.255 32.443C64.5154 33.5177 65.4415 34.931 65.9237 36.5156C66.4059 38.1002 66.424 39.7899 65.9758 41.3844C65.5276 42.979 64.6319 44.4118 63.3947 45.5132C62.1575 46.6145 60.6307 47.3384 58.995 47.599C58.2571 50.3918 56.6176 52.8628 54.331 54.628C52.8914 55.7452 51.237 56.5537 49.471 57.0029C47.705 57.4521 45.8654 57.5325 44.067 57.239C44.03 60.586 44.809 65.124 48.555 68.369C48.5918 68.4007 48.6195 68.4417 48.635 68.4878C48.6505 68.5338 48.6533 68.5832 48.643 68.6308C48.6328 68.6783 48.6099 68.7222 48.5768 68.7577C48.5437 68.7933 48.5016 68.8193 48.455 68.833C47.0781 69.2303 45.652 69.4313 44.219 69.43V69.43ZM32.984 17.885C30.8336 17.8913 28.7128 18.3859 26.7815 19.3315C24.8502 20.277 23.1589 21.6489 21.8352 23.3434C20.5114 25.038 19.5898 27.0111 19.1399 29.1139C18.69 31.2166 18.7235 33.3941 19.238 35.482C19.2494 35.5286 19.2482 35.5773 19.2347 35.6234C19.2212 35.6694 19.1958 35.711 19.161 35.744C18.2714 36.5845 17.5836 37.6154 17.1491 38.7595C16.7146 39.9036 16.5447 41.1313 16.6522 42.3504C16.7596 43.5695 17.1416 44.7485 17.7696 45.7989C18.3975 46.8494 19.2551 47.7441 20.278 48.416C20.314 48.4397 20.3439 48.4717 20.3651 48.5092C20.3863 48.5468 20.3983 48.5889 20.4 48.632C20.4926 50.9965 21.4667 53.2408 23.1305 54.9233C24.7944 56.6059 27.0276 57.6049 29.391 57.724C29.4501 57.727 29.5066 57.7494 29.5518 57.7877C29.597 57.826 29.6283 57.8781 29.641 57.936C30.0881 59.7648 30.9042 61.4829 32.0391 62.9849C33.174 64.487 34.6039 65.7413 36.241 66.671C39.7178 68.7685 43.8832 69.4055 47.828 68.443C44.128 64.985 43.443 60.291 43.528 56.912C43.5295 56.8735 43.5392 56.8357 43.5565 56.8013C43.5737 56.7668 43.5981 56.7363 43.628 56.712C43.6586 56.6878 43.6941 56.6703 43.732 56.6609C43.77 56.6514 43.8095 56.6501 43.848 56.657C45.6163 56.9894 47.435 56.9428 49.184 56.5203C50.933 56.0978 52.5724 55.309 53.994 54.206C56.2342 52.4761 57.8256 50.0412 58.511 47.295C58.5244 47.2431 58.5529 47.1964 58.593 47.1607C58.6331 47.1251 58.6828 47.1022 58.736 47.095C60.3037 46.8792 61.7743 46.2103 62.9672 45.1704C64.1602 44.1306 65.0235 42.765 65.4513 41.2414C65.879 39.7178 65.8526 38.1024 65.3752 36.5936C64.8978 35.0848 63.9903 33.7483 62.764 32.748C62.7216 32.7132 62.6908 32.6664 62.6757 32.6137C62.6605 32.561 62.6616 32.505 62.679 32.453C63.2775 30.6572 63.3975 28.7364 63.0272 26.8801C62.6569 25.0238 61.809 23.2961 60.5673 21.8674C59.3255 20.4388 57.7327 19.3585 55.946 18.7333C54.1594 18.1081 52.2406 17.9594 50.379 18.302C50.3178 18.3135 50.2546 18.3036 50.1999 18.2739C50.1453 18.2442 50.1025 18.1966 50.079 18.139C49.5398 16.829 48.6225 15.7095 47.4442 14.9232C46.2659 14.1369 44.88 13.7196 43.4635 13.7246C42.0469 13.7295 40.664 14.1565 39.4912 14.9509C38.3184 15.7454 37.409 16.8713 36.879 18.185C36.8544 18.2457 36.8086 18.2955 36.7502 18.3251C36.6917 18.3547 36.6245 18.3621 36.561 18.346C35.3927 18.0428 34.1909 17.8879 32.984 17.885V17.885Z" fill="#E6E6E6"/>
<path d="M34.6609 40.619L29.9009 41.74L29.7889 41.264C29.6106 40.6003 29.5466 39.9111 29.5999 39.226C29.6656 38.6743 29.8331 38.1396 30.0939 37.649C30.676 36.681 31.3207 35.752 32.0239 34.868C32.2526 34.6397 32.4296 34.365 32.543 34.0624C32.6563 33.7597 32.7034 33.4363 32.6809 33.114C32.6462 32.9141 32.5696 32.7239 32.456 32.5558C32.3424 32.3878 32.1945 32.2457 32.0219 32.139C31.6086 31.9402 31.1348 31.9073 30.6979 32.047C30.4234 32.1028 30.1633 32.2146 29.934 32.3755C29.7046 32.5364 29.5109 32.7428 29.3649 32.982C29.0381 33.6773 28.9462 34.4599 29.1029 35.212L24.1029 35.755C23.8144 34.1032 24.1463 32.403 25.0349 30.981C25.9096 29.625 27.5159 28.6716 29.8539 28.121C31.3875 27.6829 33.0175 27.7177 34.5309 28.221C35.3359 28.4827 36.0586 28.9496 36.628 29.5758C37.1974 30.2021 37.5938 30.9659 37.7779 31.792C37.9443 32.5188 37.908 33.2774 37.6729 33.985C37.234 35.0763 36.6132 36.0852 35.8369 36.969C35.317 37.5536 34.9046 38.2256 34.6189 38.954C34.4941 39.5038 34.5086 40.0761 34.6609 40.619ZM30.0359 43.043L35.1359 41.843L36.1949 46.343L31.0949 47.543L30.0359 43.043Z" fill="#EBEBEB"/>
<path d="M46.7759 30.568L43.4759 29.568L43.5759 29.238C43.7022 28.7697 43.9075 28.3263 44.1829 27.927C44.4188 27.6138 44.7107 27.3469 45.0439 27.14C45.7424 26.7557 46.4653 26.4173 47.2079 26.127C47.7939 25.887 48.1352 25.6077 48.2319 25.289C48.2815 25.1546 48.3021 25.0113 48.2923 24.8684C48.2824 24.7255 48.2424 24.5863 48.1749 24.46C47.993 24.1925 47.7157 24.0046 47.3999 23.935C47.2122 23.872 47.0136 23.8484 46.8164 23.8656C46.6193 23.8828 46.4278 23.9405 46.2539 24.035C45.8077 24.3433 45.4739 24.7884 45.3029 25.303L42.0579 23.861C42.4676 22.7505 43.2732 21.8306 44.3199 21.278C45.5836 20.7517 47.0025 20.7385 48.2759 21.241C49.3673 21.5178 50.3499 22.1176 51.0949 22.962C51.4934 23.4073 51.769 23.9488 51.8944 24.5331C52.0198 25.1174 51.9907 25.7244 51.8099 26.294C51.6534 26.7962 51.3621 27.2458 50.9679 27.594C50.3129 28.1044 49.5761 28.5 48.7889 28.764C48.2639 28.9364 47.7737 29.2005 47.3409 29.544C47.0706 29.8332 46.8764 30.1851 46.7759 30.568V30.568ZM43.0929 30.407L46.6309 31.482L45.6819 34.602L42.1449 33.526L43.0929 30.407Z" fill="#EBEBEB"/>
<path d="M80.6612 134.573C80.3775 134.573 80.0992 134.495 79.8569 134.348C79.6145 134.2 79.4174 133.989 79.2872 133.737C77.6473 130.387 75.5414 127.286 73.0322 124.526C72.8521 124.331 72.7254 124.092 72.6643 123.834C72.6032 123.575 72.6097 123.305 72.6832 123.05C73.8462 119.015 75.6712 113.499 75.6892 113.444C75.8264 113.065 76.1058 112.755 76.468 112.58C76.8303 112.404 77.2468 112.376 77.629 112.503C78.0111 112.63 78.3289 112.9 78.5145 113.258C78.7002 113.615 78.7392 114.03 78.6232 114.416C78.6062 114.467 77.0342 119.216 75.8932 123.084C78.3253 125.887 80.3884 128.989 82.0322 132.316C82.154 132.551 82.2131 132.814 82.204 133.079C82.1949 133.344 82.1178 133.602 81.9801 133.829C81.8424 134.055 81.6488 134.243 81.4178 134.373C81.1869 134.503 80.9263 134.572 80.6612 134.572V134.573Z" fill="#23CBD8"/>
<path d="M83.2331 135.815H71.2461L77.5981 132.215L82.9231 132.421L83.2331 135.815Z" fill="#263238"/>
<path d="M82.0839 121.293C87.5408 119.588 90.8188 114.54 89.4055 110.018C87.9922 105.496 82.4227 103.213 76.9658 104.919C71.5089 106.624 68.2309 111.673 69.6442 116.194C71.0575 120.716 76.627 122.999 82.0839 121.293Z" fill="#263238"/>
<path d="M52.2541 107.472C51.8965 107.472 51.5501 107.348 51.2737 107.121C50.9973 106.894 50.8081 106.578 50.7382 106.228C50.6684 105.877 50.7224 105.513 50.8908 105.198C51.0593 104.882 51.3318 104.635 51.6621 104.498C51.9269 104.383 52.159 104.204 52.3376 103.977C52.5161 103.75 52.6355 103.482 52.6851 103.198C52.7165 102.862 52.8572 102.545 53.0856 102.296C53.3141 102.048 53.6177 101.881 53.9501 101.821C54.3337 101.744 54.7129 101.647 55.0861 101.53C57.1801 100.918 59.7741 100.16 67.9421 102.447C70.3239 101.107 72.3231 99.1791 73.7493 96.8478C75.1755 94.5164 75.9814 91.8588 76.0901 89.128C76.0901 88.7188 76.2521 88.3263 76.5407 88.0362C76.8293 87.7461 77.2209 87.5821 77.6301 87.58H77.6361C78.044 87.5794 78.4354 87.7404 78.7249 88.0277C79.0145 88.3149 79.1785 88.7051 79.1811 89.113C79.0712 92.5161 78.0536 95.8279 76.2337 98.7056C74.4138 101.583 71.8577 103.922 68.8301 105.48C68.4794 105.661 68.0723 105.701 67.6931 105.591C59.9081 103.343 57.7151 103.983 55.9541 104.498C55.7981 104.543 55.6401 104.59 55.4781 104.634C55.2481 105.243 54.8958 105.798 54.443 106.266C53.9901 106.734 53.4463 107.103 52.8451 107.353C52.6578 107.431 52.457 107.472 52.2541 107.472V107.472Z" fill="#263238"/>
<path d="M70.3192 96.414C67.3882 84.759 59.5742 54.7009 84.6072 52.8629C107.065 51.2149 113.229 81.107 114.727 91.463C115.476 96.6935 115.883 101.967 115.945 107.251C115.974 109.924 115.069 112.523 113.385 114.6C111.702 116.676 109.347 118.1 106.726 118.626C94.4902 121.111 82.9112 121.465 75.1132 118.387C74.0889 117.974 73.2257 117.24 72.6524 116.296C72.0791 115.352 71.8265 114.247 71.9322 113.148C72.3301 107.519 71.785 101.863 70.3192 96.414V96.414Z" fill="#23CBD8"/>
<path opacity="0.1" d="M114.726 91.463C113.314 81.704 107.759 54.58 88.3122 52.884C87.2023 52.772 86.0842 52.9909 85.0985 53.5132C84.1129 54.0355 83.3038 54.8377 82.7732 55.819C82.3188 56.7252 82.1215 57.7387 82.2026 58.7492C82.2837 59.7597 82.6401 60.7287 83.2332 61.551C87.5192 68.198 97.7412 91.17 96.1972 103.688C95.4972 109.388 91.9222 113.931 95.0312 120.334C98.9597 119.995 102.865 119.424 106.726 118.625C109.348 118.101 111.704 116.677 113.387 114.6C115.071 112.524 115.976 109.924 115.947 107.251C115.885 101.967 115.477 96.6934 114.726 91.463V91.463Z" fill="black"/>
<path d="M111.381 107.406C111.34 107.406 111.301 107.39 111.272 107.361C111.244 107.333 111.227 107.294 111.227 107.253C111.167 101.976 110.761 96.7094 110.011 91.4859C106.29 65.7639 96.271 52.7539 81.034 53.8759C81.0137 53.8776 80.9934 53.8752 80.974 53.8688C80.9547 53.8625 80.9369 53.8524 80.9215 53.8391C80.9061 53.8257 80.8936 53.8095 80.8846 53.7913C80.8756 53.7731 80.8703 53.7532 80.869 53.7329C80.8663 53.6921 80.8797 53.6519 80.9065 53.621C80.9333 53.5901 80.9712 53.571 81.012 53.5679C96.432 52.4309 106.569 65.5319 110.317 91.4409C111.069 96.6779 111.476 101.959 111.536 107.249C111.536 107.29 111.52 107.329 111.492 107.358C111.463 107.388 111.424 107.404 111.383 107.405L111.381 107.406Z" fill="#263238"/>
<path d="M111.141 122.118C116.598 120.413 119.876 115.364 118.462 110.842C117.049 106.321 111.48 104.038 106.023 105.744C100.566 107.449 97.2879 112.498 98.7013 117.019C100.115 121.541 105.684 123.824 111.141 122.118Z" fill="#263238"/>
<path d="M112.085 134.574C111.801 134.574 111.523 134.496 111.281 134.349C111.038 134.201 110.841 133.99 110.711 133.738C109.071 130.388 106.965 127.287 104.456 124.527C104.276 124.332 104.15 124.093 104.089 123.835C104.028 123.576 104.034 123.306 104.108 123.051C105.271 119.016 107.096 113.5 107.114 113.445C107.247 113.06 107.525 112.744 107.89 112.563C108.255 112.383 108.675 112.354 109.062 112.481C109.448 112.609 109.768 112.884 109.953 113.247C110.137 113.609 110.172 114.029 110.049 114.417C110.032 114.468 108.46 119.217 107.319 123.085C109.751 125.888 111.814 128.99 113.458 132.317C113.58 132.552 113.639 132.815 113.63 133.08C113.621 133.345 113.544 133.603 113.406 133.83C113.268 134.056 113.075 134.244 112.844 134.374C112.613 134.504 112.352 134.573 112.087 134.573L112.085 134.574Z" fill="#23CBD8"/>
<path d="M108.84 87.4609C108.495 87.4609 108.16 87.3455 107.888 87.1329C107.616 86.9203 107.423 86.6229 107.34 86.288C107.256 85.953 107.288 85.5999 107.428 85.2847C107.569 84.9696 107.811 84.7106 108.116 84.549V84.549C110.395 83.1657 112.364 81.3263 113.898 79.1461C115.433 76.966 116.5 74.4922 117.033 71.8799C112.546 70.0039 104.483 65.768 102.72 63.639C102.55 63.4326 102.436 63.1856 102.389 62.922C102.185 61.6493 102.303 60.3457 102.734 59.131L101.92 57.559C101.744 57.1963 101.716 56.7791 101.843 56.3964C101.97 56.0137 102.242 55.6958 102.6 55.5105C102.958 55.3251 103.374 55.287 103.76 55.4042C104.146 55.5214 104.471 55.7847 104.665 56.1379L105.836 58.3989C105.959 58.6367 106.018 58.9024 106.008 59.1699C105.997 59.4374 105.917 59.6976 105.776 59.9249C105.459 60.5544 105.325 61.2602 105.39 61.962C107.376 63.756 115.397 68.007 119.32 69.462C119.654 69.5857 119.935 69.8212 120.116 70.1284C120.296 70.4357 120.365 70.7959 120.31 71.148C119.831 74.4679 118.618 77.6392 116.758 80.4306C114.898 83.2221 112.438 85.5634 109.559 87.284C109.337 87.4006 109.091 87.4613 108.84 87.4609Z" fill="#263238"/>
<path d="M103.912 63.4249C103.772 63.4252 103.635 63.3876 103.515 63.316C103.395 63.2444 103.296 63.1415 103.23 63.0183C103.164 62.8952 103.132 62.7563 103.138 62.6166C103.145 62.4769 103.189 62.3415 103.266 62.2249C104.054 61.0491 105.203 60.1614 106.54 59.6959C106.736 59.6477 106.944 59.6784 107.118 59.7813C107.292 59.8843 107.419 60.0513 107.471 60.2466C107.523 60.4419 107.497 60.6499 107.398 60.8261C107.299 61.0022 107.134 61.1325 106.94 61.1889C105.972 61.5573 105.141 62.2143 104.559 63.0709C104.489 63.1792 104.394 63.2684 104.281 63.3302C104.168 63.392 104.041 63.4246 103.912 63.4249V63.4249Z" fill="#263238"/>
<path d="M114.66 135.815H102.673L109.025 132.215L114.35 132.421L114.66 135.815Z" fill="#263238"/>
<path d="M89.5509 89.6542C94.0852 89.2536 97.4687 85.6205 97.1081 81.5395C96.7475 77.4585 92.7795 74.4749 88.2452 74.8756C83.7109 75.2762 80.3275 78.9093 80.688 82.9903C81.0486 87.0713 85.0167 90.0548 89.5509 89.6542Z" fill="white"/>
<path d="M88.0209 86.9502C89.2243 86.6074 89.6944 84.5551 89.071 82.3661C88.4475 80.1772 86.9665 78.6806 85.7632 79.0233C84.5598 79.3661 84.0896 81.4184 84.7131 83.6074C85.3366 85.7963 86.8175 87.2929 88.0209 86.9502Z" fill="#263238"/>
<path d="M79.5241 83.6549C84.7241 82.9849 95.0321 80.0489 96.7321 78.8639C95.3921 74.9479 89.1661 71.5999 83.5941 73.4859C78.5721 75.1859 79.5241 83.6549 79.5241 83.6549Z" fill="#263238"/>
<path d="M80.5371 86.171C86.9951 84.944 95.3921 82.883 97.7941 81.562C97.6461 85.776 96.4231 90.044 89.8281 91.486C84.4401 92.665 80.5371 86.171 80.5371 86.171Z" fill="#263238"/>
<path d="M75.2186 90.2124C77.5548 88.6662 77.8625 85.0162 75.9059 82.0601C73.9493 79.1039 70.4693 77.9609 68.1331 79.5072C65.7969 81.0535 65.4892 84.7034 67.4458 87.6596C69.4024 90.6157 72.8824 91.7587 75.2186 90.2124Z" fill="white"/>
<path d="M71.7862 84.9669C72.1782 86.8129 71.8402 88.3529 71.0302 88.4059C70.2202 88.4589 69.2472 87.0059 68.8552 85.1609C68.4632 83.3159 68.8012 81.7749 69.6112 81.7219C70.4212 81.6689 71.3952 83.1249 71.7862 84.9669Z" fill="#263238"/>
<path d="M65.381 84.264C68.872 84.676 75.804 84.217 76.956 83.586C76.105 80.243 71.976 76.463 68.224 76.948C64.843 77.386 65.381 84.264 65.381 84.264Z" fill="#263238"/>
<path d="M66.0291 86.439C70.3661 86.639 76.012 86.525 77.635 85.915C77.487 89.225 76.618 92.384 72.187 92.331C68.566 92.289 66.0291 86.439 66.0291 86.439Z" fill="#263238"/>
<path d="M90.9951 71.407C87.0562 71.4261 83.2043 70.2489 79.9491 68.031C79.6324 67.7802 79.4264 67.4154 79.3752 67.0146C79.3241 66.6138 79.4319 66.209 79.6755 65.8867C79.9191 65.5644 80.2792 65.3502 80.6787 65.2901C81.0783 65.23 81.4854 65.3286 81.8131 65.565C85.4591 67.9445 89.8839 68.8223 94.1621 68.015C94.5604 67.9491 94.9687 68.0417 95.2997 68.2729C95.6306 68.5041 95.858 68.8556 95.9332 69.2522C96.0085 69.6488 95.9256 70.0592 95.7022 70.3955C95.4789 70.7318 95.1329 70.9674 94.7381 71.052C93.5043 71.2873 92.2512 71.4062 90.9951 71.407V71.407Z" fill="#263238"/>
<path d="M63.3582 68.7369C63.1103 68.737 62.866 68.6774 62.646 68.5631C62.426 68.4489 62.2367 68.2834 62.0941 68.0806C61.9515 67.8778 61.8598 67.6437 61.8268 67.398C61.7937 67.1523 61.8203 66.9022 61.9042 66.669C62.1888 65.6721 62.7019 64.7553 63.4029 63.9914C64.1039 63.2276 64.9733 62.6378 65.9422 62.2689C69.3142 61.1069 72.9422 63.3689 73.0992 63.4629C73.4366 63.6856 73.6734 64.0316 73.7588 64.4268C73.8442 64.822 73.7713 65.2349 73.5559 65.577C73.3405 65.9191 72.9997 66.1632 72.6065 66.2571C72.2132 66.3509 71.7989 66.287 71.4522 66.0789C70.7522 65.6409 68.5672 64.6299 66.9382 65.1959C66.4139 65.4245 65.9494 65.7708 65.5807 66.2081C65.212 66.6453 64.949 67.1616 64.8122 67.7169C64.7041 68.0158 64.5065 68.2741 64.2463 68.4566C63.9861 68.6391 63.676 68.737 63.3582 68.7369V68.7369Z" fill="#263238"/>
<path d="M75.5391 94.8149C75.4954 94.8151 75.4519 94.8086 75.4101 94.7959C75.2932 94.7626 75.1942 94.6844 75.1348 94.5783C75.0754 94.4723 75.0604 94.347 75.0931 94.23C75.3711 93.4773 75.9365 92.8659 76.6651 92.5299C78.4381 91.6159 81.1401 91.805 84.6961 93.092C84.8079 93.1367 84.8979 93.2231 84.9471 93.333C84.9963 93.4429 85.0009 93.5676 84.9599 93.6808C84.9189 93.794 84.8355 93.8868 84.7273 93.9396C84.6191 93.9925 84.4946 94.0012 84.3801 93.9639C80.3021 92.4869 78.1851 92.806 77.1271 93.334C76.6113 93.5529 76.2012 93.9644 75.9841 94.481C75.9554 94.5769 75.8967 94.6611 75.8166 94.7213C75.7365 94.7814 75.6392 94.8142 75.5391 94.8149Z" fill="#263238"/>
<path d="M60.9481 93.1169C55.556 93.5969 50.3118 95.1367 45.5161 97.6479C48.1791 97.1479 57.6981 108.925 60.1461 118.01C65.1461 116.283 70.3015 115.044 75.5401 114.31C72.1391 104.941 65.9201 94.3339 60.9481 93.1169Z" fill="#F55A00"/>
<path opacity="0.6" d="M60.9481 93.1169C55.556 93.5969 50.3118 95.1367 45.5161 97.6479C48.1791 97.1479 57.6981 108.925 60.1461 118.01C65.1461 116.283 70.3015 115.044 75.5401 114.31C72.1391 104.941 65.9201 94.3339 60.9481 93.1169Z" fill="white"/>
<path d="M60.9471 93.114C55.0621 92.45 45.5071 97.377 45.5071 97.377C45.1858 97.5866 44.9169 97.8672 44.7211 98.1972C44.5253 98.5272 44.408 98.8977 44.378 99.2802C44.3481 99.6627 44.4063 100.047 44.5483 100.403C44.6904 100.76 44.9123 101.079 45.1971 101.336C46.0831 100.064 55.9591 96.755 59.6711 96.311C57.8241 94.605 59.5401 93.366 60.9471 93.114Z" fill="#F55A00"/>
<path opacity="0.2" d="M60.9471 93.114C55.0621 92.45 45.5071 97.377 45.5071 97.377C45.1858 97.5866 44.9169 97.8672 44.7211 98.1972C44.5253 98.5272 44.408 98.8977 44.378 99.2802C44.3481 99.6627 44.4063 100.047 44.5483 100.403C44.6904 100.76 44.9123 101.079 45.1971 101.336C46.0831 100.064 55.9591 96.755 59.6711 96.311C57.8241 94.605 59.5401 93.366 60.9471 93.114Z" fill="white"/>
<path d="M52.252 107.472C51.9941 107.473 51.74 107.41 51.5129 107.287C51.2858 107.165 51.0929 106.988 50.952 106.772C49.831 105.055 50.531 102.434 50.683 101.926C50.8057 101.54 51.075 101.217 51.433 101.028C51.7911 100.838 52.2092 100.797 52.5976 100.912C52.9859 101.028 53.3133 101.291 53.5094 101.646C53.7055 102 53.7545 102.418 53.646 102.808C53.393 103.541 53.3582 104.331 53.546 105.083C53.6979 105.316 53.7841 105.586 53.7954 105.864C53.8068 106.142 53.7429 106.418 53.6105 106.663C53.4781 106.907 53.2821 107.112 53.0432 107.254C52.8043 107.397 52.5313 107.473 52.253 107.473L52.252 107.472Z" fill="#263238"/>
</svg>
