<svg width="343" height="402" viewBox="0 0 343 402" fill="none" xmlns="http://www.w3.org/2000/svg">
<path opacity="0.11" d="M279.76 288.158C250.96 355.48 174.93 384.396 115.36 379.465C99.0946 378.119 66.3696 375.411 40.8176 351.247C-8.25339 304.842 -0.695389 207.847 46.2786 150.736C52.3276 143.382 94.2006 94.1091 159.453 94.7681C207.227 95.2511 240.753 122.238 244.835 125.6C255.263 134.277 264.287 144.515 271.585 155.951C295.643 193.567 297.758 246.086 279.76 288.158Z" fill="white"/>
<path opacity="0.25" d="M330.919 297.019C303.255 361.681 230.231 389.454 173.019 384.719C157.397 383.426 125.965 380.825 101.419 357.619C54.2866 313.047 61.5456 219.881 106.665 165.03C112.476 157.966 152.694 110.64 215.365 111.273C261.251 111.737 293.458 137.658 297.374 140.887C307.391 149.219 316.059 159.051 323.07 170.034C346.17 206.163 348.206 256.612 330.919 297.019Z" fill="white"/>
<path opacity="0.09" d="M304.892 312.914C279.158 373.063 211.231 398.898 158.009 394.493C143.477 393.293 114.239 390.871 91.4086 369.281C47.5666 327.82 54.3186 241.156 96.2876 190.133C101.688 183.562 139.105 139.539 197.403 140.133C240.086 140.565 270.045 164.676 273.688 167.68C283.005 175.432 291.067 184.58 297.588 194.797C319.083 228.404 320.972 275.323 304.892 312.914Z" fill="url(#paint0_linear)"/>
<path d="M239.206 365.625C239.206 365.625 270.427 356.585 276.448 348.347C282.469 340.109 276.529 336.992 276.529 336.992C276.529 336.992 300.054 322.145 300.951 314.331C301.42 310.242 299.457 308.334 297.482 307.445C296.341 306.95 295.112 306.687 293.868 306.672C293.868 306.672 307.869 295.199 312.372 284.252C316.876 273.306 304.397 272.02 304.397 272.02C304.397 272.02 320.765 233.274 304.846 230.983C288.926 228.692 283.696 255.688 283.696 255.688C283.696 255.688 273.073 245.745 268.094 260.341C267.64 261.675 267.169 263.195 266.701 264.856C261.949 281.374 256.395 311.849 256.395 311.849C256.395 311.849 243.611 313.175 247.082 336.346C247.082 336.346 240.073 334.223 239.944 340.423C239.815 346.623 239.206 365.625 239.206 365.625Z" fill="white"/>
<path d="M249.746 350.286C248.897 351.284 281.312 290.649 295.91 256.892C295.91 256.892 272.835 323.134 249.746 350.286Z" fill="#214675"/>
<g style="mix-blend-mode:multiply" opacity="0.3">
<path d="M239.206 365.625C239.206 365.625 270.427 356.585 276.448 348.347C282.469 340.109 276.529 336.992 276.529 336.992C276.529 336.992 300.054 322.145 300.951 314.331C301.42 310.242 299.457 308.334 297.482 307.445C276.175 318.503 269.752 294.956 273.831 280.685C277.406 268.161 274.129 268.116 266.701 264.856C261.949 281.374 256.395 311.849 256.395 311.849C256.395 311.849 243.611 313.175 247.082 336.346C247.082 336.346 240.073 334.223 239.944 340.423C239.815 346.623 239.206 365.625 239.206 365.625Z" fill="#4A6C8F"/>
</g>
<path d="M244.872 374.626C244.872 374.626 267.845 377.577 274.118 373.902C280.39 370.226 277.395 366.501 277.395 366.501C277.395 366.501 296.985 363.472 299.788 358.621C301.255 356.081 300.513 354.277 299.475 353.131C298.869 352.484 298.14 351.964 297.331 351.601C297.331 351.601 309.737 348.076 315.786 342.204C321.835 336.332 314.044 331.945 314.044 331.945C314.044 331.945 335.739 311.26 325.984 305.245C316.228 299.231 305.149 315.392 305.149 315.392C305.149 315.392 301.026 305.879 293.63 314.007C292.956 314.749 292.216 315.61 291.439 316.562C283.645 326.011 271.368 344.354 271.368 344.354C271.368 344.354 262.635 341.594 258.334 357.725C258.334 357.725 254.355 354.347 252.511 358.364C250.666 362.381 244.872 374.626 244.872 374.626Z" fill="white"/>
<path d="M256.115 367.59C255.277 368.001 293.671 337.568 312.791 319.644C312.79 319.644 278.914 356.395 256.115 367.59Z" fill="#214675"/>
<g style="mix-blend-mode:multiply" opacity="0.3">
<path d="M244.872 374.626C244.872 374.626 267.845 377.577 274.118 373.902C280.39 370.226 277.395 366.501 277.395 366.501C277.395 366.501 296.985 363.472 299.788 358.622C301.255 356.082 300.513 354.278 299.475 353.132C282.412 354.312 284.894 337.098 291.61 328.927C297.5 321.755 295.371 320.793 291.442 316.557C283.645 326.011 271.368 344.354 271.368 344.354C271.368 344.354 262.635 341.594 258.333 357.725C258.333 357.725 254.355 354.347 252.511 358.364C250.666 362.381 244.872 374.626 244.872 374.626Z" fill="#4A6C8F"/>
</g>
<path d="M143.167 368.968C143.167 368.968 111.389 362.136 104.81 354.341C98.2301 346.545 103.934 343.019 103.934 343.019C103.934 343.019 79.4282 329.855 77.9861 322.123C77.2332 318.078 79.0542 316.038 80.9627 315.012C82.0667 314.438 83.2737 314.09 84.5136 313.987C84.5136 313.987 69.7446 303.52 64.488 292.916C59.2314 282.312 71.5886 280.155 71.5886 280.155C71.5886 280.155 52.5446 242.65 68.2701 239.25C83.9956 235.851 91.0917 262.415 91.0917 262.415C91.0917 262.415 100.993 251.753 106.982 265.964C107.527 267.264 108.103 268.747 108.686 270.371C114.583 286.516 122.256 316.528 122.256 316.528C122.256 316.528 135.101 316.956 133.259 340.313C133.259 340.313 140.102 337.705 140.664 343.88C141.227 350.056 143.167 368.968 143.167 368.968Z" fill="white"/>
<path d="M131.579 354.404C132.496 355.341 95.9165 297.123 78.9919 264.471C78.9919 264.471 106.646 328.934 131.579 354.404Z" fill="#214675"/>
<g style="mix-blend-mode:multiply" opacity="0.3">
<path d="M143.167 368.968C143.167 368.968 111.389 362.136 104.807 354.341C98.2241 346.545 103.931 343.019 103.931 343.019C103.931 343.019 79.4252 329.854 77.9831 322.125C77.2242 318.079 79.0532 316.038 80.9617 315.013C102.991 324.549 107.749 300.61 102.682 286.66C98.2396 274.417 101.505 274.143 108.686 270.371C114.583 286.516 122.256 316.528 122.256 316.528C122.256 316.528 135.098 316.956 133.259 340.313C133.259 340.313 140.102 337.705 140.664 343.88C141.227 350.056 143.167 368.968 143.167 368.968Z" fill="#4A6C8F"/>
</g>
<path d="M138.144 378.344C138.144 378.344 115.434 382.896 108.92 379.668C102.405 376.441 105.134 372.516 105.134 372.516C105.134 372.516 85.382 370.865 82.2447 366.223C80.6042 363.792 81.2175 361.94 82.1731 360.724C82.7324 360.036 83.4227 359.466 84.2039 359.047C84.2039 359.047 71.5812 356.399 65.1354 350.964C58.6896 345.53 66.1549 340.608 66.1549 340.608C66.1549 340.608 43.0661 321.493 52.3762 314.81C61.6862 308.128 73.8695 323.474 73.8695 323.474C73.8695 323.474 77.3167 313.695 85.2624 321.286C85.9869 321.98 86.7853 322.786 87.6269 323.681C96.0628 332.562 109.594 350.001 109.594 350.001C109.594 350.001 118.112 346.636 123.532 362.427C123.532 362.427 127.264 358.779 129.385 362.657C131.507 366.534 138.144 378.344 138.144 378.344Z" fill="white"/>
<path d="M126.437 372.113C127.302 372.466 86.8721 344.792 66.5441 328.251C66.5441 328.251 102.912 362.54 126.437 372.113Z" fill="#214675"/>
<g style="mix-blend-mode:multiply" opacity="0.3">
<path d="M138.144 378.344C138.144 378.344 115.434 382.896 108.92 379.668C102.405 376.441 105.134 372.516 105.134 372.516C105.134 372.516 85.38 370.865 82.2437 366.223C80.6032 363.792 81.2165 361.94 82.1721 360.724C99.2754 360.707 95.5952 343.709 88.3245 336.028C81.948 329.291 84.0038 328.185 87.6279 323.681C96.0638 332.562 109.595 350.001 109.595 350.001C109.595 350.001 118.113 346.636 123.533 362.427C123.533 362.427 127.265 358.779 129.386 362.657C131.508 366.534 138.144 378.344 138.144 378.344Z" fill="#4A6C8F"/>
</g>
<g style="mix-blend-mode:soft-light" opacity="0.3">
<g style="mix-blend-mode:soft-light" opacity="0.3">
<path d="M161.439 232.526C147.65 191.782 171.651 171.255 158.059 133.517C150.659 112.983 135.859 97.6872 119.573 86.2962L98.5066 85.4962C97.498 85.4308 96.4875 85.5904 95.5481 85.9634C94.6087 86.3364 93.764 86.9134 93.0749 87.6529C92.3859 88.3923 91.8698 89.2757 91.5639 90.2391C91.2581 91.2024 91.1703 92.2217 91.3066 93.2232L121.201 387.188C121.422 389.301 122.45 391.247 124.069 392.622C125.689 393.997 127.777 394.694 129.898 394.569L249.691 385.788C249.314 355.094 241.517 333.248 232.844 317.719C209.012 275.046 175.717 274.716 161.439 232.526Z" fill="#F4F7FA"/>
</g>
</g>
<path d="M254.202 392.682C256.844 392.544 259.429 391.863 261.796 390.681C264.163 389.5 266.261 387.844 267.961 385.816C269.66 383.789 270.923 381.433 271.672 378.896C272.42 376.358 272.639 373.694 272.313 371.069L232.717 52.5704C232.101 47.7424 229.686 43.3246 225.955 40.199C222.224 37.0733 217.452 35.4698 212.59 35.7087L91.3638 42.0619C88.7218 42.2005 86.1366 42.8818 83.7695 44.0632C81.4023 45.2447 79.3038 46.9011 77.6048 48.9291C75.9058 50.9571 74.6427 53.3133 73.8942 55.8508C73.1457 58.3884 72.9279 61.0529 73.2543 63.6783L112.848 382.174C113.465 387.002 115.879 391.42 119.61 394.545C123.341 397.671 128.113 399.275 132.974 399.036L254.202 392.682Z" fill="#1A1615"/>
<path d="M258.371 388.052C261.013 387.913 263.598 387.232 265.965 386.05C268.332 384.869 270.43 383.213 272.129 381.185C273.828 379.158 275.092 376.802 275.84 374.265C276.589 371.728 276.808 369.063 276.482 366.438L236.888 47.9398C236.271 43.1121 233.856 38.6947 230.125 35.5693C226.394 32.4439 221.622 30.8405 216.761 31.0791L95.5342 37.4323C92.892 37.5705 90.3067 38.2515 87.9393 39.4328C85.5719 40.6141 83.4732 42.2705 81.7741 44.2986C80.0751 46.3267 78.812 48.6831 78.0637 51.2208C77.3154 53.7585 77.0978 56.4232 77.4247 59.0487L117.02 377.543C117.636 382.371 120.05 386.789 123.781 389.914C127.512 393.04 132.285 394.644 137.146 394.405L258.371 388.052Z" fill="black"/>
<path d="M83.529 57.7494L83.9981 61.503L88.9462 101.329L94.1716 143.37L95.7282 155.873L99.0272 182.519L114.569 307.477L123.116 376.249C123.526 379.531 125.164 382.537 127.7 384.661C130.236 386.785 133.482 387.87 136.785 387.697L258.009 381.344C259.803 381.251 261.559 380.789 263.167 379.987C264.776 379.185 266.201 378.06 267.355 376.683C268.509 375.305 269.367 373.705 269.875 371.981C270.383 370.258 270.531 368.448 270.308 366.664L265.984 331.909L261.079 292.453L260.55 288.091L248.961 194.839L242.473 142.644L230.721 48.1629C230.311 44.8805 228.673 41.8751 226.138 39.7511C223.602 37.6272 220.356 36.5422 217.052 36.7146L95.8275 43.0677C94.0334 43.1625 92.278 43.6257 90.6706 44.4284C89.0633 45.2311 87.6384 46.3561 86.4847 47.7334C85.331 49.1107 84.4732 50.7107 83.9647 52.4339C83.4562 54.1571 83.3079 55.9665 83.529 57.7494V57.7494Z" fill="#F6F6F9"/>
<path d="M125.179 49.6165L188.782 46.2832C192.416 46.0928 195.825 44.4667 198.259 41.7628C200.694 39.0589 201.955 35.4985 201.764 31.865L110.761 36.6343C110.856 38.4334 111.303 40.1964 112.079 41.8225C112.855 43.4486 113.943 44.906 115.282 46.1115C116.621 47.317 118.184 48.247 119.882 48.8484C121.58 49.4498 123.38 49.7108 125.179 49.6165Z" fill="url(#paint1_linear)"/>
<path d="M98.9294 150.943L188.445 124.372C188.908 124.235 189.393 124.19 189.874 124.241C190.354 124.292 190.819 124.437 191.243 124.667C191.667 124.898 192.042 125.21 192.345 125.585C192.649 125.961 192.875 126.392 193.012 126.855L242.017 292.466C242.295 293.402 242.189 294.409 241.724 295.267C241.259 296.126 240.473 296.764 239.537 297.042L150.022 323.613C149.559 323.75 149.073 323.795 148.593 323.744C148.113 323.693 147.648 323.548 147.224 323.318C146.799 323.087 146.425 322.775 146.121 322.4C145.818 322.024 145.591 321.593 145.455 321.13L96.4492 155.518C96.1719 154.582 96.2774 153.575 96.7424 152.717C97.2075 151.859 97.9941 151.221 98.9294 150.943V150.943Z" fill="#F6F6F9"/>
<path d="M237.571 268.361L167.231 273.28C159.901 273.792 154.374 280.15 154.887 287.48L155.617 297.925C156.13 305.255 162.488 310.782 169.818 310.269L240.158 305.351C247.488 304.838 253.015 298.48 252.502 291.15L251.772 280.705C251.26 273.375 244.902 267.848 237.571 268.361Z" fill="#AAA8BF"/>
<path d="M220.642 300.731L234.139 314.346C234.302 314.507 234.512 314.612 234.738 314.644C234.965 314.676 235.196 314.634 235.397 314.525C235.598 314.416 235.759 314.245 235.855 314.038C235.951 313.83 235.979 313.597 235.932 313.373L234.124 301.048L220.642 300.731Z" fill="#AAA8BF"/>
<path d="M243.127 280.374L181.846 284.659C181.507 284.673 181.177 284.553 180.928 284.324C180.678 284.095 180.529 283.777 180.514 283.439C180.482 283.102 180.585 282.766 180.801 282.505C181.016 282.244 181.326 282.079 181.663 282.046L242.944 277.761C243.283 277.746 243.613 277.866 243.863 278.095C244.112 278.324 244.261 278.642 244.277 278.98C244.309 279.317 244.206 279.654 243.99 279.915C243.775 280.176 243.464 280.341 243.127 280.374V280.374Z" fill="#FFF5F9"/>
<path d="M176.587 285.027L163.454 285.945C163.116 285.96 162.786 285.839 162.536 285.611C162.286 285.382 162.137 285.063 162.122 284.725C162.09 284.388 162.193 284.052 162.409 283.791C162.624 283.53 162.935 283.365 163.272 283.332L176.405 282.414C176.743 282.399 177.073 282.519 177.323 282.748C177.572 282.977 177.721 283.295 177.736 283.633C177.768 283.97 177.665 284.306 177.45 284.567C177.235 284.829 176.924 284.994 176.587 285.027V285.027Z" fill="#FFF5F9"/>
<path d="M220.33 296.265L189.425 298.426C189.087 298.44 188.757 298.32 188.507 298.092C188.258 297.863 188.109 297.545 188.094 297.207C188.062 296.869 188.164 296.533 188.38 296.272C188.595 296.011 188.906 295.846 189.243 295.813L220.147 293.652C220.485 293.638 220.816 293.758 221.065 293.987C221.315 294.215 221.464 294.534 221.479 294.872C221.511 295.209 221.408 295.545 221.192 295.806C220.977 296.067 220.667 296.232 220.33 296.265V296.265Z" fill="#FFF5F9"/>
<path d="M183.969 298.807L164.449 300.172C164.111 300.187 163.781 300.067 163.531 299.838C163.281 299.61 163.132 299.291 163.117 298.953C163.085 298.616 163.188 298.28 163.403 298.018C163.619 297.757 163.929 297.592 164.267 297.56L183.786 296.195C184.124 296.18 184.455 296.3 184.704 296.529C184.954 296.758 185.103 297.076 185.117 297.415C185.15 297.752 185.047 298.088 184.831 298.349C184.616 298.61 184.306 298.775 183.969 298.807V298.807Z" fill="#FFF5F9"/>
<path d="M210.855 290.127L163.976 293.405C163.638 293.419 163.307 293.299 163.057 293.07C162.808 292.842 162.659 292.523 162.644 292.185C162.612 291.848 162.715 291.512 162.931 291.251C163.146 290.989 163.456 290.825 163.793 290.792L210.672 287.514C211.01 287.5 211.34 287.62 211.59 287.848C211.839 288.077 211.988 288.395 212.003 288.733C212.035 289.07 211.933 289.406 211.717 289.667C211.502 289.929 211.192 290.094 210.855 290.127Z" fill="#FFF5F9"/>
<path d="M231.293 288.697L215.939 289.771C215.601 289.786 215.271 289.665 215.021 289.436C214.772 289.208 214.623 288.889 214.608 288.551C214.576 288.214 214.679 287.878 214.894 287.617C215.11 287.356 215.42 287.191 215.757 287.158L231.11 286.085C231.448 286.07 231.779 286.19 232.028 286.419C232.278 286.647 232.427 286.966 232.442 287.304C232.475 287.641 232.372 287.977 232.156 288.239C231.94 288.5 231.63 288.665 231.293 288.697V288.697Z" fill="#FFF5F9"/>
<path d="M233.127 340.974C239.447 340.532 244.193 334.778 243.727 328.123C243.262 321.468 237.761 316.431 231.442 316.873C225.122 317.315 220.376 323.068 220.841 329.723C221.307 336.379 226.807 341.416 233.127 340.974Z" fill="#D5D4FF"/>
<path d="M218.177 128.209L157.974 132.419C151.7 132.858 146.969 138.3 147.408 144.574L148.033 153.513C148.472 159.787 153.914 164.518 160.188 164.079L220.391 159.869C226.665 159.43 231.395 153.989 230.956 147.715L230.331 138.775C229.893 132.501 224.451 127.771 218.177 128.209Z" fill="#AAA8BF"/>
<path d="M203.688 155.915L215.24 167.568C215.38 167.705 215.559 167.794 215.753 167.821C215.947 167.848 216.144 167.813 216.316 167.719C216.487 167.626 216.625 167.48 216.707 167.303C216.79 167.126 216.814 166.927 216.775 166.735L215.228 156.186L203.688 155.915Z" fill="#AAA8BF"/>
<path d="M222.933 138.491L213.206 139.171C212.917 139.184 212.634 139.081 212.421 138.885C212.207 138.69 212.08 138.417 212.067 138.128C212.039 137.839 212.127 137.552 212.311 137.328C212.496 137.104 212.761 136.963 213.05 136.935L222.776 136.255C223.066 136.243 223.348 136.346 223.562 136.542C223.776 136.737 223.903 137.01 223.916 137.299C223.943 137.588 223.855 137.875 223.67 138.098C223.486 138.322 223.221 138.463 222.933 138.491V138.491Z" fill="#FFF5F9"/>
<path d="M208.705 139.486L154.74 143.259C154.451 143.272 154.168 143.169 153.955 142.973C153.741 142.778 153.614 142.505 153.6 142.216C153.573 141.928 153.661 141.64 153.845 141.417C154.03 141.193 154.295 141.052 154.584 141.024L208.552 137.25C208.841 137.238 209.124 137.34 209.338 137.536C209.551 137.732 209.679 138.004 209.692 138.294C209.719 138.583 209.63 138.871 209.445 139.094C209.26 139.317 208.994 139.458 208.705 139.486V139.486Z" fill="#FFF5F9"/>
<path d="M223.379 144.876L176.564 148.15C176.275 148.162 175.992 148.06 175.778 147.864C175.565 147.668 175.437 147.395 175.425 147.106C175.397 146.817 175.485 146.53 175.67 146.307C175.854 146.083 176.12 145.942 176.408 145.914L223.223 142.641C223.512 142.628 223.795 142.731 224.008 142.926C224.222 143.122 224.349 143.394 224.362 143.684C224.39 143.972 224.302 144.26 224.118 144.484C223.933 144.707 223.668 144.848 223.379 144.876Z" fill="#FFF5F9"/>
<path d="M171.894 148.476L155.187 149.645C154.897 149.657 154.614 149.554 154.401 149.358C154.187 149.163 154.06 148.89 154.047 148.601C154.02 148.312 154.108 148.025 154.292 147.802C154.477 147.578 154.742 147.437 155.03 147.409L171.737 146.241C172.027 146.228 172.309 146.331 172.523 146.527C172.737 146.722 172.864 146.995 172.877 147.284C172.904 147.572 172.816 147.86 172.632 148.083C172.448 148.307 172.182 148.448 171.894 148.476Z" fill="#FFF5F9"/>
<path d="M213.25 152.001L186.969 153.839C186.679 153.851 186.397 153.749 186.183 153.553C185.969 153.358 185.842 153.085 185.829 152.796C185.801 152.507 185.889 152.22 186.074 151.996C186.258 151.772 186.524 151.631 186.812 151.603L213.094 149.766C213.384 149.753 213.666 149.856 213.88 150.051C214.094 150.247 214.222 150.52 214.235 150.81C214.262 151.098 214.173 151.385 213.989 151.609C213.804 151.832 213.539 151.973 213.25 152.001V152.001Z" fill="#FFF5F9"/>
<path d="M182.615 154.143L155.633 156.03C155.344 156.043 155.061 155.94 154.847 155.744C154.634 155.549 154.506 155.276 154.494 154.987C154.466 154.699 154.554 154.411 154.739 154.187C154.923 153.964 155.188 153.823 155.477 153.795L182.459 151.908C182.748 151.895 183.031 151.998 183.245 152.194C183.459 152.389 183.586 152.662 183.599 152.952C183.627 153.24 183.538 153.528 183.354 153.751C183.169 153.974 182.904 154.115 182.615 154.143Z" fill="#FFF5F9"/>
<path d="M126.879 240.087L186.949 235.886C193.209 235.448 197.928 230.019 197.491 223.759L196.867 214.839C196.429 208.579 191 203.86 184.74 204.297L124.67 208.498C118.41 208.935 113.69 214.365 114.128 220.625L114.752 229.545C115.189 235.805 120.619 240.524 126.879 240.087Z" fill="#23CBD8"/>
<path d="M144.466 233.745L134.67 246.861C134.552 247.017 134.387 247.13 134.199 247.185C134.011 247.24 133.811 247.233 133.627 247.164C133.444 247.096 133.287 246.971 133.18 246.807C133.074 246.643 133.023 246.449 133.035 246.254L133.102 235.616L144.466 233.745Z" fill="#23CBD8"/>
<path d="M189.44 214.559L163.558 216.369C163.269 216.382 162.987 216.279 162.774 216.084C162.561 215.888 162.434 215.616 162.421 215.327C162.394 215.039 162.482 214.752 162.666 214.529C162.85 214.306 163.115 214.165 163.402 214.138L189.284 212.328C189.573 212.316 189.855 212.418 190.068 212.613C190.281 212.809 190.408 213.08 190.421 213.369C190.448 213.657 190.361 213.944 190.177 214.167C189.993 214.39 189.728 214.531 189.44 214.559V214.559Z" fill="#FFF5F9"/>
<path d="M159.066 216.683L121.399 219.317C121.11 219.33 120.829 219.227 120.615 219.031C120.402 218.836 120.276 218.564 120.263 218.275C120.235 217.987 120.323 217.701 120.507 217.478C120.691 217.255 120.956 217.114 121.243 217.086L158.91 214.452C159.199 214.439 159.481 214.542 159.694 214.737C159.908 214.932 160.035 215.204 160.048 215.493C160.075 215.781 159.988 216.068 159.804 216.291C159.62 216.515 159.354 216.656 159.066 216.683V216.683Z" fill="#FFF5F9"/>
<path d="M189.885 220.93L121.845 225.688C121.556 225.7 121.275 225.597 121.062 225.402C120.849 225.207 120.722 224.936 120.708 224.647C120.681 224.36 120.769 224.073 120.952 223.849C121.136 223.626 121.401 223.485 121.689 223.457L189.729 218.699C190.018 218.687 190.3 218.79 190.513 218.985C190.726 219.181 190.853 219.453 190.865 219.742C190.892 220.029 190.804 220.316 190.62 220.538C190.437 220.761 190.172 220.902 189.885 220.93V220.93Z" fill="#FFF5F9"/>
<path d="M149.214 230.176L122.29 232.059C122.002 232.071 121.72 231.969 121.507 231.774C121.294 231.578 121.167 231.307 121.154 231.018C121.127 230.73 121.214 230.443 121.398 230.22C121.582 229.998 121.847 229.857 122.134 229.829L149.058 227.946C149.346 227.933 149.629 228.036 149.842 228.231C150.055 228.426 150.182 228.698 150.195 228.987C150.222 229.275 150.134 229.562 149.95 229.785C149.766 230.008 149.501 230.149 149.214 230.176V230.176Z" fill="#FFF5F9"/>
<path d="M210.876 175.033C211.704 174.006 212.735 173.16 213.905 172.55C215.074 171.939 216.357 171.576 217.674 171.484C218.99 171.392 220.311 171.573 221.554 172.015C222.797 172.457 223.936 173.15 224.899 174.052C226.907 175.927 228.13 178.493 228.322 181.234C228.514 183.974 227.661 186.686 225.935 188.823C225.107 189.851 224.076 190.697 222.906 191.308C221.736 191.919 220.453 192.282 219.136 192.374C217.82 192.467 216.498 192.286 215.255 191.845C214.011 191.403 212.872 190.709 211.909 189.807C209.901 187.931 208.678 185.364 208.486 182.623C208.294 179.882 209.148 177.17 210.876 175.033V175.033Z" fill="#D5D4FF"/>
<path d="M126.709 256.53C126.872 255.209 127.299 253.934 127.964 252.782C128.629 251.629 129.519 250.622 130.581 249.82C131.643 249.018 132.856 248.437 134.147 248.113C135.437 247.789 136.78 247.727 138.095 247.932C140.765 248.477 143.118 250.038 144.658 252.286C146.198 254.534 146.803 257.293 146.347 259.979C146.184 261.3 145.758 262.575 145.092 263.728C144.427 264.88 143.537 265.888 142.475 266.69C141.413 267.492 140.2 268.073 138.91 268.397C137.619 268.721 136.276 268.783 134.961 268.578C132.291 268.033 129.937 266.471 128.398 264.223C126.858 261.975 126.252 259.216 126.709 256.53V256.53Z" fill="#F55A00"/>
<path d="M228.549 354.88L153.378 360.137C149.628 360.399 146.8 363.651 147.063 367.401C147.325 371.151 150.578 373.979 154.328 373.716L229.498 368.46C233.249 368.198 236.076 364.945 235.814 361.195C235.552 357.445 232.299 354.618 228.549 354.88Z" fill="#E9E9F7"/>
<path opacity="0.26" d="M74.4076 238.817C68.8426 258.145 58.0076 268.687 47.3186 266.345C39.2186 264.569 24.4186 255.713 39.9386 222.621C55.4586 189.529 53.2486 170.586 60.6156 164.796C66.6156 160.085 76.9286 167.683 79.0906 187.863C81.0036 205.689 77.0166 229.752 74.4076 238.817Z" fill="#F6F6F9"/>
<path opacity="0.26" d="M238.416 358.202C248.8 357.383 259.119 355.872 269.303 353.679C279.203 351.511 286.946 347.946 293.303 345.495C312.23 338.195 326.35 360.973 300.287 372.595C275.644 383.584 238.147 374.424 228.954 367.395C219.761 360.366 238.416 358.202 238.416 358.202Z" fill="#F6F6F9"/>
<path opacity="0.26" d="M297.357 174.308C305.929 174.308 312.878 167.359 312.878 158.787C312.878 150.215 305.929 143.266 297.357 143.266C288.785 143.266 281.836 150.215 281.836 158.787C281.836 167.359 288.785 174.308 297.357 174.308Z" fill="#E9E9F7"/>
<path d="M264.975 184.864C270.805 184.864 275.532 180.138 275.532 174.307C275.532 168.477 270.805 163.75 264.975 163.75C259.144 163.75 254.418 168.477 254.418 174.307C254.418 180.138 259.144 184.864 264.975 184.864Z" fill="#E9E9F7"/>
<path opacity="0.26" d="M231.753 108.9C231.752 109.926 231.448 110.929 230.878 111.783C230.307 112.636 229.497 113.301 228.549 113.693C227.601 114.086 226.558 114.189 225.551 113.988C224.545 113.788 223.62 113.294 222.894 112.568C222.169 111.843 221.675 110.918 221.474 109.912C221.274 108.905 221.377 107.862 221.769 106.914C222.162 105.966 222.827 105.155 223.68 104.585C224.533 104.015 225.536 103.71 226.563 103.71C227.939 103.71 229.259 104.257 230.232 105.23C231.206 106.204 231.753 107.524 231.753 108.9V108.9Z" fill="#E9E9F7"/>
<path opacity="0.26" d="M47.3816 288.048C50.248 288.048 52.5716 285.725 52.5716 282.858C52.5716 279.992 50.248 277.668 47.3816 277.668C44.5153 277.668 42.1916 279.992 42.1916 282.858C42.1916 285.725 44.5153 288.048 47.3816 288.048Z" fill="#E9E9F7"/>
<path opacity="0.26" d="M204.308 383.167C210.196 383.167 214.97 378.394 214.97 372.505C214.97 366.617 210.196 361.843 204.308 361.843C198.419 361.843 193.646 366.617 193.646 372.505C193.646 378.394 198.419 383.167 204.308 383.167Z" fill="#E9E9F7"/>
<path d="M271.331 146.398L328.335 172.388L314.451 205.295L257.447 179.305L271.331 146.398Z" fill="#FFBB4F"/>
<path d="M271.332 146.398L292.897 175.838L257.455 179.306L271.332 146.398Z" fill="#FFA436"/>
<path d="M328.339 172.37L292.897 175.837L314.463 205.278L328.339 172.37Z" fill="#FFA436"/>
<path d="M328.34 172.37L292.265 180.226C291.871 180.31 291.459 180.265 291.092 180.097C290.725 179.93 290.421 179.649 290.225 179.296L271.332 146.398L328.34 172.37Z" fill="#FFCD7D"/>
<path d="M318.863 158.295C319.936 157.476 321.166 156.888 322.477 156.566C323.788 156.244 325.151 156.196 326.481 156.425C327.811 156.654 329.079 157.155 330.207 157.897C331.334 158.639 332.297 159.605 333.034 160.736C334.583 163.08 335.187 165.924 334.724 168.695C334.26 171.466 332.764 173.959 330.537 175.671C329.464 176.491 328.233 177.08 326.922 177.402C325.611 177.724 324.248 177.772 322.918 177.543C321.587 177.314 320.318 176.813 319.191 176.071C318.063 175.329 317.1 174.363 316.363 173.232C314.814 170.887 314.21 168.043 314.674 165.272C315.138 162.5 316.635 160.007 318.863 158.295V158.295Z" fill="#222222"/>
<path d="M321.766 172.648C321.647 172.486 321.573 172.296 321.55 172.097C321.527 171.898 321.557 171.697 321.635 171.512L326.164 160.777C326.215 160.646 326.293 160.526 326.391 160.425C326.49 160.324 326.608 160.244 326.738 160.19C326.869 160.136 327.008 160.109 327.149 160.11C327.291 160.111 327.43 160.141 327.559 160.197C327.82 160.324 328.021 160.547 328.121 160.819C328.221 161.091 328.211 161.391 328.095 161.656L323.566 172.395C323.515 172.527 323.437 172.646 323.339 172.747C323.24 172.848 323.122 172.928 322.991 172.982C322.861 173.036 322.721 173.064 322.58 173.063C322.439 173.061 322.299 173.032 322.17 172.975C322.01 172.902 321.871 172.789 321.766 172.648V172.648Z" fill="white"/>
<path d="M251.974 73.8126L244.126 76.2121C236.335 78.5941 231.95 86.8412 234.332 94.6326L235.802 99.4428C238.184 107.234 246.431 111.619 254.223 109.237L262.071 106.838C269.862 104.456 274.248 96.2084 271.866 88.4171L270.395 83.6069C268.013 75.8156 259.766 71.4305 251.974 73.8126Z" fill="#FF0000"/>
<path d="M259.173 102.984L251.262 119.401C251.183 119.555 251.054 119.678 250.896 119.749C250.738 119.82 250.561 119.836 250.393 119.793C250.226 119.75 250.077 119.652 249.973 119.513C249.868 119.375 249.814 119.206 249.818 119.033L249.373 105.98L259.173 102.984Z" fill="#FF0000"/>
<path d="M255.002 80.6597C251.695 81.6707 251.214 85.373 251.214 85.373C251.214 85.373 248.753 82.5701 245.446 83.5811C242.139 84.5921 241.542 88.1608 242.394 90.9475C243.245 93.7342 253.104 99.6911 255.974 100.93C257.661 98.298 262.503 87.8498 261.65 85.0603C260.797 82.2707 258.308 79.6487 255.002 80.6597Z" fill="white"/>
<path d="M86.3227 221.513L30.8624 248.281C29.7864 248.776 28.5768 248.901 27.4226 248.636C26.2683 248.37 25.2345 247.73 24.4826 246.815L7.33566 226.311C6.83251 225.749 6.46601 225.078 6.26474 224.351C6.06347 223.624 6.03286 222.86 6.1753 222.119C6.31775 221.378 6.62939 220.68 7.08594 220.079C7.54249 219.478 8.13161 218.991 8.80739 218.655L73.9827 187.198C74.6846 186.88 75.4464 186.716 76.2169 186.716C76.9875 186.717 77.749 186.883 78.4503 187.202C79.1515 187.522 79.7763 187.988 80.2826 188.568C80.7889 189.149 81.165 189.832 81.3856 190.57L88.8183 215.764C89.1603 216.862 89.0965 218.047 88.6384 219.102C88.1804 220.157 87.3586 221.013 86.3227 221.513V221.513Z" fill="#F55A00"/>
<path d="M30.6971 243.199L58.1277 250.266L43.1363 235.129L30.6971 243.199Z" fill="#F55A00"/>
<path d="M22.1229 222.806L23.8779 221.958L30.6414 234.533L28.8861 235.38L22.1229 222.806ZM26.1976 227.822L33.1407 224.471L34.0438 226.149L27.0999 229.499L26.1976 227.822ZM29.2304 219.374L30.9853 218.526L37.748 231.104L35.993 231.952L29.2304 219.374Z" fill="white"/>
<path d="M34.0823 217.034L35.8373 216.186L42.6019 228.76L40.8455 229.607L34.0823 217.034ZM40.793 227.521L47.9817 224.047L48.8818 225.728L41.6976 229.195L40.793 227.521ZM37.8917 222.116L44.1288 219.105L45.0311 220.782L38.7907 223.791L37.8917 222.116ZM34.9371 216.625L42.1213 213.157L43.0236 214.835L35.8361 218.3L34.9371 216.625Z" fill="white"/>
<path d="M44.6132 211.951L46.369 211.104L53.133 223.678L51.3772 224.525L44.6132 211.951ZM51.3528 222.424L58.509 218.968L59.4113 220.645L52.2551 224.101L51.3528 222.424Z" fill="white"/>
<path d="M54.7147 207.075L56.4697 206.227L63.2338 218.801L61.4788 219.649L54.7147 207.075ZM61.4535 217.547L68.6102 214.09L69.515 215.769L62.3583 219.226L61.4535 217.547Z" fill="white"/>
<path d="M72.8281 213.61C71.9553 213.548 71.1172 213.243 70.4082 212.73C69.629 212.161 68.9938 211.417 68.5533 210.559L66.637 206.996C66.1675 206.172 65.9054 205.246 65.8733 204.298C65.8504 203.456 66.0849 202.627 66.5454 201.922C67.0417 201.188 67.7317 200.605 68.539 200.238C69.3475 199.83 70.2499 199.645 71.1537 199.701C72.0271 199.763 72.8656 200.068 73.5747 200.582C74.354 201.151 74.9896 201.895 75.431 202.753L77.3468 206.313C77.8159 207.137 78.0777 208.063 78.1096 209.011C78.1328 209.851 77.8994 210.679 77.4406 211.383C76.9436 212.119 76.2525 212.703 75.4439 213.07C74.6352 213.479 73.7324 213.665 72.8281 213.61V213.61ZM75.6832 210.325C75.9521 209.896 76.0836 209.395 76.0598 208.89C76.0321 208.311 75.8685 207.746 75.5822 207.241L73.603 203.559C73.3336 203.034 72.9488 202.577 72.4775 202.223C72.0562 201.907 71.5551 201.715 71.0305 201.668C70.4937 201.627 69.956 201.734 69.4754 201.976C68.9957 202.194 68.5878 202.544 68.2992 202.985C68.0307 203.414 67.8996 203.914 67.9234 204.42C67.9506 205 68.1145 205.565 68.4018 206.069L70.3838 209.751C70.6532 210.276 71.038 210.733 71.5093 211.087C71.9304 211.404 72.4319 211.596 72.9569 211.641C73.4927 211.682 74.0295 211.576 74.5092 211.334C74.9886 211.116 75.396 210.766 75.684 210.325L75.6832 210.325Z" fill="white"/>
<path d="M77.3207 42.9678L33.4353 53.8597C32.2193 54.1679 30.9347 54.0543 29.7917 53.5374C28.6487 53.0205 27.7149 52.1311 27.1432 51.0145L19.0094 35.4323C18.5888 34.5999 18.3592 33.6841 18.3372 32.7516C18.3153 31.8192 18.5016 30.8936 18.8826 30.0423C19.2635 29.1909 19.8296 28.4353 20.5395 27.8304C21.2494 27.2254 22.0853 26.7864 22.9863 26.5454L66.8759 15.6563C68.092 15.3483 69.3765 15.4621 70.5195 15.9791C71.6624 16.4962 72.596 17.3858 73.1676 18.5024L81.2972 34.0818C81.7176 34.9142 81.9471 35.8299 81.969 36.7622C81.9908 37.6945 81.8045 38.62 81.4236 39.4712C81.0427 40.3224 80.4768 41.0779 79.767 41.6828C79.0572 42.2877 78.2215 42.7267 77.3207 42.9678V42.9678Z" fill="white"/>
<path d="M47.6391 47.1865L68.8863 56.0794L60.3912 44.0219L47.6391 47.1865Z" fill="white"/>
<path d="M27.1354 35.8319L33.0504 34.364L33.2773 35.5151L27.3623 36.983L27.1354 35.8319ZM29.6444 35.9494L30.8204 35.6582L32.3831 43.5866L31.2071 43.8779L29.6444 35.9494Z" fill="#222222"/>
<path d="M34.2026 34.0783L35.379 33.7862L37.0855 42.4179L35.9091 42.71L34.2026 34.0783ZM35.6844 37.7056L40.3387 36.5465L40.5656 37.6976L35.9128 38.853L35.6844 37.7056ZM38.9645 32.8958L40.1405 32.6046L41.8451 41.2355L40.6691 41.5268L38.9645 32.8958Z" fill="#222222"/>
<path d="M44.3851 31.5516L45.3877 31.3024L50.1824 39.1662L48.9137 39.4814L45.216 33.0947L44.2702 40.6352L43.0018 40.9494L44.3851 31.5516ZM43.8211 37.5507L48.2325 36.4562L48.4593 37.6073L44.049 38.7022L43.8211 37.5507Z" fill="#222222"/>
<path d="M49.7462 30.221L50.8129 29.9546L56.2291 35.6103L56.1193 35.799L54.7757 28.9688L55.9383 28.684L57.6411 37.3088L56.5623 37.5757L51.1761 32.0194L51.2836 31.831L52.6131 38.5573L51.4505 38.8421L49.7462 30.221Z" fill="#222222"/>
<path d="M58.014 28.1688L59.1904 27.8767L60.8968 36.5084L59.7205 36.8005L58.014 28.1688ZM59.8927 32.783L62.6378 27.0211L64.0851 26.6617L60.0793 34.6416L59.8927 32.783ZM61.1282 31.6141L61.8812 30.4991L66.1409 35.206L64.7015 35.5643L61.1282 31.6141Z" fill="#222222"/>
<path d="M68.8788 34.6189L68.3135 34.6351C67.9496 34.6468 67.5857 34.6116 67.2307 34.5304C66.884 34.4486 66.5493 34.3223 66.235 34.1546L66.7849 33.0459C67.1503 33.2485 67.552 33.3773 67.967 33.4249C68.4004 33.471 68.8386 33.4385 69.2604 33.3289C69.7669 33.2324 70.234 32.9898 70.6042 32.6309C70.7432 32.4865 70.8441 32.3097 70.8978 32.1165C70.9514 31.9234 70.9562 31.7199 70.9116 31.5244V31.5244C70.8764 31.2662 70.7445 31.0308 70.5426 30.866C70.3475 30.7245 70.1173 30.6396 69.8771 30.6205C69.552 30.5944 69.2254 30.5932 68.9001 30.6169C68.887 30.616 68.8737 30.6172 68.8609 30.6205C68.8482 30.6243 68.8349 30.6255 68.8218 30.624L68.7319 30.6276C68.2541 30.6683 67.7737 30.6695 67.2957 30.6313C66.9108 30.5903 66.5483 30.43 66.2589 30.173C65.8992 29.8198 65.669 29.3558 65.6052 28.8558L65.6071 28.8511C65.4955 28.3661 65.5212 27.8595 65.6811 27.3882C65.8485 26.9412 66.1438 26.5534 66.5302 26.2732C66.994 25.9387 67.521 25.7019 68.0792 25.5774C68.3753 25.5037 68.6788 25.4637 68.984 25.458C69.2923 25.4536 69.6003 25.4827 69.9024 25.5447C70.2236 25.6107 70.5371 25.7097 70.8379 25.8401L70.3559 26.9676C70.0189 26.8134 69.6608 26.71 69.2935 26.6608C68.9619 26.6175 68.6253 26.636 68.3005 26.7154C67.8182 26.8074 67.3763 27.0465 67.0355 27.4C66.9032 27.5506 66.8089 27.7308 66.7606 27.9254C66.7123 28.12 66.7113 28.3234 66.7578 28.5184L66.7559 28.523C66.7731 28.6508 66.8164 28.7737 66.8831 28.884C66.9498 28.9943 67.0386 29.0897 67.1438 29.1643C67.3491 29.297 67.5852 29.3747 67.8292 29.3898C68.1845 29.4106 68.5407 29.4106 68.896 29.3899C68.912 29.3904 68.928 29.39 68.9439 29.3887L68.9887 29.3874L69.0548 29.384L69.1209 29.3805C69.5704 29.357 70.0211 29.3782 70.4664 29.4437C70.8393 29.5077 71.1848 29.6809 71.4592 29.9413C71.7893 30.2832 72.0024 30.721 72.0677 31.1917L72.0704 31.2036C72.176 31.6837 72.1406 32.1841 71.9686 32.6446C71.7879 33.094 71.4813 33.4816 71.0856 33.7609C70.6031 34.0992 70.0591 34.3398 69.4842 34.469L68.8788 34.6189Z" fill="#222222"/>
<defs>
<linearGradient id="paint0_linear" x1="157.541" y1="239.007" x2="188.726" y2="394.934" gradientUnits="userSpaceOnUse">
<stop stop-color="white"/>
<stop offset="1" stop-color="#5274EB"/>
</linearGradient>
<linearGradient id="paint1_linear" x1="202.123" y1="38.7151" x2="111.12" y2="43.4844" gradientUnits="userSpaceOnUse">
<stop/>
<stop offset="1"/>
</linearGradient>
</defs>
</svg>
