<svg xmlns="http://www.w3.org/2000/svg" xmlns:xlink="http://www.w3.org/1999/xlink" width="335" height="390.857" viewBox="0 0 335 390.857"><defs><style>.a,.l{fill:#f6f6f9;}.a,.af,.b{opacity:0.26;}.b{fill:#e9e9f7;}.c,.d,.f{fill:#fff;}.c{opacity:0.11;}.d{opacity:0.25;}.e,.r{opacity:0.09;}.e{fill:url(#a);}.g{fill:#214675;}.h{fill:#4a6c8f;}.am,.h,.i{opacity:0.3;}.ab,.ac,.af,.am,.ap,.h{mix-blend-mode:multiply;}.ab,.ac,.af,.am,.ap,.h,.i{isolation:isolate;}.i{mix-blend-mode:soft-light;}.j{fill:#f4f7fa;}.k{fill:#1a1615;}.m{fill:url(#b);}.n,.r{fill:url(#c);}.o{fill:url(#d);}.p{fill:url(#e);}.q{fill:url(#h);}.s{fill:url(#j);}.t{opacity:0.7;}.u{fill:url(#l);}.v{fill:url(#m);}.w{fill:url(#n);}.x{fill:url(#o);}.y{fill:url(#p);}.z{fill:#fec045;}.aa{fill:url(#q);}.ab{opacity:0.15;fill:url(#r);}.ac{opacity:0.42;}.ad{fill:url(#s);}.ae{fill:url(#t);}.af{fill:url(#u);}.ag{opacity:0.53;}.ah{fill:url(#v);}.ai{fill:url(#w);}.aj{fill:url(#x);}.ak{fill:url(#y);}.al{fill:url(#z);}.am{fill:url(#aa);}.an{fill:url(#ah);}.ao{fill:url(#bc);}.ap{opacity:0.2;fill:url(#bd);}.aq{fill:url(#be);}.ar{fill:url(#bf);}</style><linearGradient id="a" x1="0.378" y1="0.388" x2="0.5" y2="1" gradientUnits="objectBoundingBox"><stop offset="0" stop-color="#fff"/><stop offset="1" stop-color="#5274eb"/></linearGradient><linearGradient id="b" x1="1" y1="0.5" x2="0" y2="0.5" gradientUnits="objectBoundingBox"><stop offset="0"/><stop offset="1"/></linearGradient><linearGradient id="c" x1="-6.045" y1="-1.725" x2="-4.355" y2="-1.672" gradientUnits="objectBoundingBox"><stop offset="0" stop-color="#e38ddd"/><stop offset="0.004" stop-color="#00c22d"/><stop offset="1" stop-color="#319748"/></linearGradient><linearGradient id="d" x1="-16.534" y1="-17.781" x2="-13.256" y2="-4.918" gradientUnits="objectBoundingBox"><stop offset="0" stop-color="#aa80f9"/><stop offset="0.996" stop-color="#6165d7"/></linearGradient><linearGradient id="e" x1="-16.289" y1="-24.641" x2="-13.415" y2="-8.38" xlink:href="#d"/><linearGradient id="h" x1="-8.985" y1="-4.779" x2="-8.676" y2="-3.958" xlink:href="#d"/><linearGradient id="j" x1="-5.012" y1="-1.651" x2="-6.217" y2="-1.746" gradientUnits="objectBoundingBox"><stop offset="0" stop-color="#311944"/><stop offset="1" stop-color="#893976"/></linearGradient><linearGradient id="l" x1="-41.813" y1="-20.537" x2="-38.358" y2="-18.495" gradientUnits="objectBoundingBox"><stop offset="0" stop-color="#f57e53"/><stop offset="0.005" stop-color="#f58152"/><stop offset="0.042" stop-color="#f8994d"/><stop offset="0.084" stop-color="#fbac49"/><stop offset="0.133" stop-color="#fdb946"/><stop offset="0.196" stop-color="#fec144"/><stop offset="0.318" stop-color="#ffc444"/><stop offset="0.455" stop-color="#fdb946"/><stop offset="0.694" stop-color="#f99c4c"/><stop offset="0.996" stop-color="#f36f56"/></linearGradient><linearGradient id="m" x1="-46.287" y1="-21.969" x2="-45.422" y2="-21.969" gradientUnits="objectBoundingBox"><stop offset="0" stop-color="#ff9085"/><stop offset="1" stop-color="#fb6fbb"/></linearGradient><linearGradient id="n" x1="-139.894" y1="-29.739" x2="-137.525" y2="-29.739" xlink:href="#m"/><linearGradient id="o" x1="-140.701" y1="-29.554" x2="-138.328" y2="-29.554" xlink:href="#m"/><linearGradient id="p" x1="-141.512" y1="-29.37" x2="-139.134" y2="-29.37" xlink:href="#m"/><linearGradient id="q" x1="-63.644" y1="-35.848" x2="-62.963" y2="-35.848" xlink:href="#m"/><linearGradient id="r" x1="-10.104" y1="-2.052" x2="-7.525" y2="-1.989" gradientUnits="objectBoundingBox"><stop offset="0" stop-color="#fb6fbb"/><stop offset="1" stop-color="#ff9085"/></linearGradient><linearGradient id="s" x1="-50.434" y1="-11.227" x2="-48.647" y2="-11.227" xlink:href="#r"/><linearGradient id="t" x1="-40.457" y1="-7.409" x2="-38.528" y2="-7.409" xlink:href="#r"/><linearGradient id="u" x1="-34.635" y1="-18.181" x2="-33.595" y2="-18.181" xlink:href="#m"/><linearGradient id="v" x1="0.329" y1="0.554" x2="-0.255" y2="0.738" gradientUnits="objectBoundingBox"><stop offset="0" stop-color="#fcb148"/><stop offset="0.052" stop-color="#fdb946"/><stop offset="0.142" stop-color="#fec144"/><stop offset="0.318" stop-color="#ffc444"/><stop offset="0.485" stop-color="#fdb946"/><stop offset="0.775" stop-color="#f99c4c"/><stop offset="0.866" stop-color="#f8924f"/><stop offset="1" stop-color="#f8924f"/></linearGradient><linearGradient id="w" x1="0.727" y1="0.007" x2="0.207" y2="1.135" gradientUnits="objectBoundingBox"><stop offset="0" stop-color="#ffdb44"/><stop offset="1" stop-color="#feef06"/></linearGradient><linearGradient id="x" x1="0.636" y1="1.231" x2="0.531" y2="0.666" xlink:href="#v"/><linearGradient id="y" x1="0.409" y1="0.31" x2="0.858" y2="1.247" xlink:href="#v"/><linearGradient id="z" x1="0.253" y1="0.019" x2="0.711" y2="1.039" xlink:href="#w"/><linearGradient id="aa" x1="0.464" y1="0.369" x2="1.215" y2="1.306" xlink:href="#v"/><linearGradient id="ah" x1="0.5" x2="0.5" y2="1" gradientUnits="objectBoundingBox"><stop offset="0" stop-color="#fff"/><stop offset="1" stop-color="#ebebeb"/></linearGradient><linearGradient id="bc" x1="0.641" y1="-0.993" x2="0.376" y2="1.775" gradientUnits="objectBoundingBox"><stop offset="0" stop-color="#777"/><stop offset="1"/></linearGradient><linearGradient id="bd" x1="3.311" y1="-0.817" x2="-0.513" y2="0.923" gradientUnits="objectBoundingBox"><stop offset="0" stop-color="#150d11"/><stop offset="1"/></linearGradient><linearGradient id="be" x1="4.112" y1="-0.532" x2="-0.545" y2="0.957" gradientUnits="objectBoundingBox"><stop offset="0" stop-color="#6f6f6f"/><stop offset="1" stop-color="#767676"/></linearGradient><linearGradient id="bf" x1="3.689" y1="-0.716" x2="-0.501" y2="0.882" gradientUnits="objectBoundingBox"><stop offset="0" stop-color="#ffc444"/><stop offset="0.996" stop-color="gold"/><stop offset="1" stop-color="#f36f56"/></linearGradient></defs><g transform="translate(0 22.34)"><g transform="translate(0 0)"><path class="a" d="M117.948,237.808c-5.565,19.328-16.4,29.87-27.089,27.528-8.1-1.776-22.9-10.632-7.38-43.724s13.31-52.035,20.677-57.825c6-4.711,16.313,2.887,18.475,23.067C124.544,204.68,120.557,228.743,117.948,237.808Z" transform="translate(-50.909 -37.461)"/><path class="a" d="M198.963,279.392a234.333,234.333,0,0,0,30.887-4.523c9.9-2.168,17.643-5.733,24-8.184,18.927-7.3,33.047,15.478,6.984,27.1-24.643,10.989-62.14,1.829-71.333-5.2S198.963,279.392,198.963,279.392Z" transform="translate(32.085 40.34)"/><ellipse class="b" cx="15.521" cy="15.521" rx="15.521" ry="15.521" transform="translate(274.468 104.795)"/><ellipse class="b" cx="5.19" cy="5.19" rx="5.19" ry="5.19" transform="translate(34.824 239.198)"/><circle class="b" cx="10.662" cy="10.662" r="10.662" transform="translate(186.277 323.373)"/><path class="c" d="M721.61,648.4c-28.8,67.322-104.83,96.238-164.4,91.307-16.265-1.346-48.99-4.054-74.542-28.218-49.071-46.405-41.513-143.4,5.461-200.511,6.049-7.354,47.922-56.627,113.174-55.968,47.774.483,81.3,27.47,85.382,30.832a131.518,131.518,0,0,1,26.75,30.351C737.493,553.809,739.608,606.328,721.61,648.4Z" transform="translate(-449.218 -398.713)"/><path class="d" d="M710.849,640.756c-27.664,64.662-100.688,92.435-157.9,87.7-15.622-1.293-47.054-3.894-71.6-27.1-47.132-44.572-39.873-137.738,5.246-192.589,5.811-7.064,46.029-54.39,108.7-53.757,45.886.464,78.093,26.385,82.009,29.614A126.308,126.308,0,0,1,703,513.771C726.1,549.9,728.136,600.349,710.849,640.756Z" transform="translate(-387.298 -382.208)"/><path class="e" d="M692.588,627.791c-25.734,60.149-93.661,85.984-146.883,81.579-14.532-1.2-43.77-3.622-66.6-25.212-43.842-41.461-37.09-128.125,4.879-179.148,5.4-6.571,42.817-50.594,101.115-50,42.683.432,72.642,24.543,76.285,27.547a117.506,117.506,0,0,1,23.9,27.117C706.779,543.281,708.668,590.2,692.588,627.791Z" transform="translate(-395.064 -353.348)"/><g transform="translate(226.956 198.197) rotate(-7)"><g transform="translate(0 0)"><path class="f" d="M0,132.523s31.531-7.944,37.839-15.969.479-11.35.479-11.35,24.039-14.019,25.21-21.8c.612-4.072-1.284-6.048-3.227-7.006a9.386,9.386,0,0,0-3.586-.9S71.114,64.518,76,53.732s-7.545-12.509-7.545-12.509S86.177,3.059,70.341.211,48.331,24.17,48.331,24.17,38.058,13.857,32.569,28.275c-.5,1.318-1.024,2.821-1.55,4.465-5.33,16.348-11.95,46.622-11.95,46.622S6.241,80.24,8.9,103.527c0,0-6.933-2.368-7.279,3.826S0,132.523,0,132.523Z" transform="translate(0 0)"/><path class="g" d="M.017,91.756C-.867,92.724,33.665,33.238,49.442,0,49.442,0,24.052,65.419.017,91.756Z" transform="translate(11.058 25.801)"/><path class="h" d="M0,99.783s31.531-7.944,37.839-15.969.479-11.35.479-11.35,24.039-14.019,25.21-21.8c.612-4.072-1.284-6.048-3.227-7.006C38.611,53.967,33.015,30.2,37.592,16.075,41.605,3.679,38.331,3.52,31.019,0c-5.33,16.348-11.95,46.622-11.95,46.622S6.241,47.5,8.9,70.787c0,0-6.933-2.368-7.279,3.826S0,99.783,0,99.783Z" transform="translate(0 32.74)"/></g><g transform="translate(5.35 73.69)"><path class="f" d="M0,68.031s22.864,3.755,29.264.3S32.8,61.047,32.8,61.047s19.691-2.342,22.664-7.094c1.555-2.488.877-4.318-.121-5.5a6.7,6.7,0,0,0-2.09-1.605S65.78,43.759,72.033,38.1s-1.382-10.318-1.382-10.318S93.066,7.862,83.523,1.507s-21.185,9.415-21.185,9.415S58.549,1.266,50.87,9.133c-.7.719-1.47,1.553-2.28,2.478-8.123,9.174-21.04,27.083-21.04,27.083s-8.634-3.066-13.5,12.911c0,0-3.859-3.516-5.844.435S0,68.031,0,68.031Z" transform="translate(0 0)"/><path class="g" d="M.014,45.95c-.852.382,38.6-28.7,58.343-45.95C58.356,0,23.2,35.556.014,45.95Z" transform="translate(11.472 15.44)"/><path class="h" d="M0,56.42s22.864,3.755,29.264.3S32.8,49.436,32.8,49.436s19.691-2.342,22.664-7.093c1.555-2.488.877-4.318-.121-5.5-17.1.582-14.016-16.541-7.015-24.475,6.14-6.964,4.045-8,.265-12.373C40.467,9.174,27.55,27.083,27.55,27.083s-8.634-3.066-13.5,12.911c0,0-3.859-3.516-5.844.435S0,56.42,0,56.42Z" transform="translate(0 11.611)"/></g></g><g transform="translate(41.052 221.023) rotate(-7)"><g transform="translate(14.102 0)"><path class="f" d="M77.136,132.523S45.605,124.579,39.3,116.555s-.479-11.35-.479-11.35-24.039-14.019-25.21-21.8C13,79.335,14.892,77.359,16.836,76.4a9.386,9.386,0,0,1,3.586-.9S6.023,64.518,1.139,53.732,8.685,41.223,8.685,41.223-9.041,3.059,6.8.211,28.805,24.17,28.805,24.17s10.273-10.313,15.762,4.105c.5,1.318,1.024,2.821,1.55,4.465,5.33,16.348,11.95,46.622,11.95,46.622s12.827.878,10.167,24.165c0,0,6.933-2.368,7.279,3.826S77.136,132.523,77.136,132.523Z" transform="translate(0)"/><path class="g" d="M49.425,91.755C50.309,92.724,15.777,33.238,0,0,0,0,25.39,65.418,49.425,91.755Z" transform="translate(16.636 25.801)"/><path class="h" d="M63.645,99.783S32.114,91.839,25.806,83.815s-.479-11.35-.479-11.35S1.288,58.445.117,50.667C-.5,46.595,1.4,44.619,3.344,43.661,25.034,53.967,30.63,30.2,26.053,16.075,22.04,3.679,25.314,3.52,32.626,0c5.33,16.348,11.95,46.622,11.95,46.622S57.4,47.5,54.743,70.787c0,0,6.933-2.368,7.279,3.826S63.645,99.783,63.645,99.783Z" transform="translate(13.491 32.74)"/></g><g transform="translate(0 73.69)"><path class="f" d="M85.888,68.031s-22.864,3.755-29.264.3-3.534-7.283-3.534-7.283S33.4,58.705,30.426,53.954c-1.555-2.488-.877-4.318.121-5.5a6.7,6.7,0,0,1,2.089-1.605S20.109,43.759,13.855,38.1s1.382-10.318,1.382-10.318S-7.177,7.862,2.365,1.507s21.185,9.415,21.185,9.415,3.789-9.656,11.467-1.789c.7.719,1.47,1.553,2.28,2.478,8.123,9.174,21.04,27.083,21.04,27.083s8.634-3.066,13.5,12.911c0,0,3.859-3.516,5.844.435S85.888,68.031,85.888,68.031Z" transform="translate(0 0)"/><path class="g" d="M58.343,45.95C59.195,46.333,19.744,17.249,0,0,0,0,35.159,35.555,58.343,45.95Z" transform="translate(16.059 15.441)"/><path class="h" d="M56.382,56.42s-22.864,3.755-29.264.3-3.534-7.283-3.534-7.283S3.892,47.094.919,42.343c-1.555-2.488-.877-4.318.121-5.5,17.1.582,14.016-16.541,7.016-24.475C1.917,5.409,4.011,4.376,7.792,0c8.123,9.174,21.04,27.083,21.04,27.083s8.634-3.066,13.5,12.911c0,0,3.859-3.516,5.844.435S56.382,56.42,56.382,56.42Z" transform="translate(29.506 11.611)"/></g></g><g transform="translate(15.174 -22.34)"><g transform="translate(69.601 75.111)"><g class="i" transform="translate(5.424)"><path class="j" d="M833.541,676.024c-13.789-40.744,10.212-61.271-3.38-99.009-7.4-20.534-22.2-35.83-38.486-47.221l-21.066-.8a6.821,6.821,0,0,0-7.2,7.727l29.894,293.965A8.256,8.256,0,0,0,802,838.067l119.793-8.781c-.377-30.694-8.174-52.54-16.847-68.069C881.114,718.544,847.819,718.214,833.541,676.024Z" transform="translate(-763.371 -528.992)"/></g><g transform="translate(-13.949 -46.823) rotate(-3)"><path class="k" d="M450.555,420.354a19.266,19.266,0,0,0,19.217-20.636L446.9,79.584a19.334,19.334,0,0,0-19.217-17.892H306.29a19.266,19.266,0,0,0-19.216,20.639l22.871,320.131a19.334,19.334,0,0,0,19.216,17.893Z" transform="translate(-287.026 -57.287)"/><path d="M446.992,416.792a19.268,19.268,0,0,0,19.217-20.636L443.338,76.022a19.335,19.335,0,0,0-19.217-17.891H302.728A19.263,19.263,0,0,0,283.512,78.77L306.384,398.9A19.333,19.333,0,0,0,325.6,416.792Z" transform="translate(-279.057 -58.131)"/><path class="l" d="M288.495,76.71l.272,3.773,2.857,40.03,3.018,42.257.9,12.568,1.9,26.782,8.981,125.6,4.936,69.125a13.088,13.088,0,0,0,13.051,12.148h121.39a13.079,13.079,0,0,0,13.051-14.016l-2.5-34.934-2.833-39.659L453.218,316l-6.692-93.73-3.748-52.463-6.791-94.967a13.088,13.088,0,0,0-13.051-12.148H301.545A13.089,13.089,0,0,0,288.495,76.71Z" transform="translate(-277.876 -57.049)"/><path class="m" d="M343.386,71.85h63.69a13.719,13.719,0,0,0,13.719-13.719H329.667A13.719,13.719,0,0,0,343.386,71.85Z" transform="translate(-290.748 -58.131)"/></g></g><g transform="translate(123.735 124.429)"><path class="n" d="M1283.395,953.859l61.978,51.342c-53.3,23.965-47.094,97.22-100.39,121.186l-61.977-51.341C1236.3,1051.079,1230.1,977.826,1283.395,953.859Z" transform="translate(-1183.006 -953.859)"/><path class="f" d="M1414.489,1055.863c-45.212,25.476-43.507,89.817-88.719,115.293q-26.376-21.847-52.75-43.7c45.212-25.475,43.509-89.817,88.719-115.293Z" transform="translate(-1262.571 -1005.397)"/><g transform="translate(0 111.992)"><path class="o" d="M1202.829,1921.212c.233.193.436.374.646.575.019.02.035.036.055.054a9.882,9.882,0,0,1,3.255,8.041,8.941,8.941,0,0,1-4.079,6.51,13.687,13.687,0,0,1-1.18.709,16.77,16.77,0,0,1-5.284,1.713q-6.618-5.48-13.237-10.965a71.14,71.14,0,0,0,15.122-9.194A13.672,13.672,0,0,1,1202.829,1921.212Z" transform="translate(-1183.006 -1918.655)"/><path class="p" d="M1625.62,2299.1a12.259,12.259,0,0,1,3.225,4.123,71.154,71.154,0,0,1-15.052,9.139q-6.769-5.609-13.542-11.219a17.5,17.5,0,0,1,3.943-2.828c.414-.224.839-.435,1.271-.63,6.434-2.953,14.321-2.953,19.581.966.019.014.041.032.063.047C1625.28,2298.819,1625.46,2298.964,1625.62,2299.1Z" transform="translate(-1551.819 -2251.825)"/></g><g transform="translate(85.268)"><path class="n" d="M1932.706,953.859l13.238,10.965a17.584,17.584,0,0,1-3.944,2.828q-.625.335-1.273.631c-6.365,2.92-14.137,2.966-19.4-.833-.247-.176-.446-.328-.678-.521a10.784,10.784,0,0,1-3.066-3.875A71.083,71.083,0,0,1,1932.706,953.859Z" transform="translate(-1917.585 -953.859)"/><path class="n" d="M2384.716,1299.5q6.771,5.613,13.543,11.221a70.976,70.976,0,0,0-15.049,9.139,15.649,15.649,0,0,1-5-2.691c-.164-.136-.334-.283-.49-.426-.017-.018-.038-.034-.056-.051a10.18,10.18,0,0,1-3.5-7.569,8.845,8.845,0,0,1,4.113-7.182,12.635,12.635,0,0,1,1.167-.716A16.758,16.758,0,0,1,2384.716,1299.5Z" transform="translate(-2321.158 -1259.379)"/></g><path class="q" d="M1733.592,1476.307c9.892,8.2,12.816,24.2,7.114,36.235s-18.89,14.693-28.871,6.425c-9.893-8.2-12.816-24.2-7.114-36.235S1723.61,1468.038,1733.592,1476.307Z" transform="translate(-1641.607 -1411.438)"/><g transform="translate(68.185 71.658)"><path class="f" d="M1786.964,1578.759c-1.741.411-3.545,1.593-5.625,4.016q-2.2-1.819-4.4-3.643c.056-.1.116-.2.172-.3a14.5,14.5,0,0,1,1.915-2.609,11.8,11.8,0,0,1,1.261-1.18,1.214,1.214,0,0,0,.01-1.737q-.906-.914-1.814-1.827a.879.879,0,0,0-1.282-.03c-.594.6-1.178,1.268-1.714,1.929a26.845,26.845,0,0,0-2.04,2.863c-.512-.423-1.023-.85-1.538-1.273a.854.854,0,0,0-1.336.184,1.215,1.215,0,0,0,.291,1.541c.523.434,1.048.868,1.571,1.3a13.325,13.325,0,0,0-1.541,7.209,8.019,8.019,0,0,0,2.977,5.478,5.723,5.723,0,0,0,5.128,1.47c1.72-.414,3.512-1.737,5.353-3.95q2.447,2.031,4.887,4.068a19.784,19.784,0,0,1-2.165,3.068,17.672,17.672,0,0,1-1.651,1.67,1.316,1.316,0,0,0,0,1.845l2.346,2.319a.871.871,0,0,0,1.3-.013,22.215,22.215,0,0,0,1.675-2.068,30.554,30.554,0,0,0,2.066-3.326c.075-.148.155-.3.233-.442.556.462,1.115.925,1.674,1.385a.792.792,0,0,0,1.294-.213l.009-.017a1.313,1.313,0,0,0-.339-1.564c-.566-.469-1.131-.935-1.7-1.4a15.974,15.974,0,0,0,1.32-5.486,11.391,11.391,0,0,0-.105-2.2,8.782,8.782,0,0,0-3.176-5.658A5.645,5.645,0,0,0,1786.964,1578.759Zm-1.3,7.861a4.388,4.388,0,0,1,2-1.34,2.115,2.115,0,0,1,1.809.543,3.179,3.179,0,0,1,1.154,1.988,4.227,4.227,0,0,1-.477,2.529Q1787.91,1588.481,1785.667,1586.62Zm-7.432-1.047a1.8,1.8,0,0,1-1.621-.447,2.729,2.729,0,0,1-.987-1.786,4.993,4.993,0,0,1,.37-2.4q2.016,1.677,4.039,3.347A3.7,3.7,0,0,1,1778.235,1585.573Z" transform="translate(-1770.413 -1571.183)"/></g><path class="r" d="M1355.149,1383.711l.2.167c-53.3,23.967-47.093,97.221-100.39,121.187q-30.332-25.128-60.666-50.257a77.815,77.815,0,0,1,9.543-.438,72.474,72.474,0,0,1,12.925,1.386,87.419,87.419,0,0,1,17.2,5.38c31.148,13.218,40.1,2.088,45.495-16.707,1.483-4.984,2.764-10.469,4.315-16.045.686-2.451,1.448-4.924,2.3-7.378a90.823,90.823,0,0,1,6.105-13.943c7.932-15.051,21.857-25.237,39.079-24.782a48.489,48.489,0,0,1,9.6,1.116,25.2,25.2,0,0,0,2.651.418A66.565,66.565,0,0,0,1355.149,1383.711Z" transform="translate(-1192.984 -1332.537)"/></g><g transform="translate(116.126 156.438)"><path class="s" d="M1235.266,1276.869a3.422,3.422,0,0,1,2.129,4.354l-42.816,105.283a4.334,4.334,0,0,1-5.209,2.285l-69.748-29c-1.869-.777-2.642-3.483-1.873-5.234l43.175-103.626a3.544,3.544,0,0,1,4.58-1.652Z" transform="translate(-1117.455 -1246.751)"/><path class="n" d="M1237.765,1257.652a3.443,3.443,0,0,1,2.14,4.388L1196.3,1368.663a3.655,3.655,0,0,1-4.834,1.825l-70.185-29.169a3.531,3.531,0,0,1-2.01-4.625l43.639-105.132a3.573,3.573,0,0,1,4.615-1.671Z" transform="translate(-1118.813 -1229.616)"/><g class="t" transform="translate(51.52 30.601)"><path class="j" d="M1576.048,2073.673l-7.389,17.3a1.686,1.686,0,0,1-2.044.922l-4.357-1.464a1.386,1.386,0,0,1-.843-1.889l7.441-17.292a1.674,1.674,0,0,1,2.031-.9l4.32,1.455A1.375,1.375,0,0,1,1576.048,2073.673Z" transform="translate(-1561.296 -2003.292)"/><path class="j" d="M1661.4,1877.776l-7.254,16.986a1.657,1.657,0,0,1-2.019.895l-4.316-1.454a1.371,1.371,0,0,1-.838-1.862l7.305-16.975a1.643,1.643,0,0,1,2-.877l4.276,1.446A1.362,1.362,0,0,1,1661.4,1877.776Z" transform="translate(-1636.924 -1830.162)"/><path class="j" d="M1745.188,1685.431l-7.123,16.68a1.634,1.634,0,0,1-1.995.874l-4.272-1.449a1.351,1.351,0,0,1-.835-1.832l7.173-16.671a1.623,1.623,0,0,1,1.979-.855l4.236,1.442A1.344,1.344,0,0,1,1745.188,1685.431Z" transform="translate(-1711.167 -1660.174)"/><path class="j" d="M1827.458,1496.543l-6.993,16.38a1.609,1.609,0,0,1-1.97.852l-4.23-1.442a1.338,1.338,0,0,1-.833-1.805l7.046-16.371a1.6,1.6,0,0,1,1.956-.834l4.194,1.434A1.327,1.327,0,0,1,1827.458,1496.543Z" transform="translate(-1784.066 -1493.241)"/></g><g transform="translate(27.203 94.464)"><path class="u" d="M1370.006,2051.116l-3.484,8.2a3.093,3.093,0,0,1-4.059,1.516l-8.7-3.6a3,3,0,0,1-1.731-3.9l3.515-8.173a3.1,3.1,0,0,1,4.043-1.5l8.67,3.563A3,3,0,0,1,1370.006,2051.116Z" transform="translate(-1351.803 -2043.416)"/><path class="v" d="M1377.3,2059.347l-2.995,7.044a2.857,2.857,0,0,1-3.746,1.4l-7.474-3.091a2.762,2.762,0,0,1-1.6-3.6l3.018-7.02a2.847,2.847,0,0,1,3.729-1.386l7.452,3.063A2.77,2.77,0,0,1,1377.3,2059.347Zm-15.446,1.9a2.379,2.379,0,0,0,1.38,3.1l7.474,3.092a2.456,2.456,0,0,0,3.225-1.2l2.995-7.048a2.381,2.381,0,0,0-1.391-3.088l-7.451-3.066a2.457,2.457,0,0,0-3.213,1.195Z" transform="translate(-1360.177 -2051.412)"/><g transform="translate(3.721 1.757)"><path class="j" d="M1385.46,2070.868l5-11.665Z" transform="translate(-1385.274 -2059.127)"/><path class="w" d="M1389.23,2058.7l-5,11.663-.372-.154,5-11.665Z" transform="translate(-1383.86 -2058.549)"/><g transform="translate(2.809 1.152)"><path class="j" d="M1409.664,2080.8l4.99-11.671Z" transform="translate(-1409.478 -2069.05)"/><path class="x" d="M1413.421,2068.622l-4.987,11.676-.371-.152,4.99-11.676Z" transform="translate(-1408.063 -2068.47)"/></g><g transform="translate(5.621 2.304)"><path class="j" d="M1433.887,2090.738l4.983-11.683Z" transform="translate(-1433.7 -2078.978)"/><path class="y" d="M1437.638,2078.555l-4.982,11.682-.371-.155,4.983-11.682Z" transform="translate(-1432.285 -2078.4)"/></g></g><g transform="translate(3.322 4.009)"><path class="z" d="M1393.417,2084.572l-1.391,3.267a1.726,1.726,0,0,1-2.261.843l-6.522-2.692a1.675,1.675,0,0,1-.968-2.174l1.4-3.254a1.725,1.725,0,0,1,2.255-.841l6.513,2.685A1.671,1.671,0,0,1,1393.417,2084.572Z" transform="translate(-1381.951 -2079.393)"/><path class="aa" d="M1392.076,2083.208l-1.39,3.268a1.925,1.925,0,0,1-2.52.938l-6.523-2.695a1.862,1.862,0,0,1-1.079-2.423l1.4-3.256a1.922,1.922,0,0,1,2.514-.936l6.512,2.68A1.869,1.869,0,0,1,1392.076,2083.208Zm-11.141-.758a1.478,1.478,0,0,0,.857,1.924l6.523,2.689a1.523,1.523,0,0,0,2-.741l1.391-3.271a1.479,1.479,0,0,0-.861-1.918l-6.514-2.682a1.526,1.526,0,0,0-2,.741Z" transform="translate(-1380.424 -2077.949)"/></g></g><path class="ab" d="M1529.22,1505.607c-2.54,9.253-4.8,14.888-9.619,20.291a44.235,44.235,0,0,1-20.045,12.4l28.3,11.761a3.652,3.652,0,0,0,4.831-1.826l43.609-106.623a3.44,3.44,0,0,0-2.141-4.386l-11.243-4.454c-17.15,11.687-23.622,23.609-26.319,32.547C1533.334,1476.108,1535.263,1483.63,1529.22,1505.607Z" transform="translate(-1455.203 -1409.183)"/><g class="ac" transform="translate(66.266 52.675)"><path class="ad" d="M1704.013,2080.224l-9.849,23.867a.927.927,0,0,1-1.223.461l-4.006-1.654a.93.93,0,0,1-.54-1.192l9.885-23.826a.922.922,0,0,1,1.214-.453l3.977,1.626A.916.916,0,0,1,1704.013,2080.224Z" transform="translate(-1688.332 -2031.621)"/><path class="ae" d="M1843.155,1686.229l-13.1,31.748a.934.934,0,0,1-1.225.462l-4-1.628a.921.921,0,0,1-.542-1.182l13.152-31.7a.926.926,0,0,1,1.21-.452l3.971,1.592A.9.9,0,0,1,1843.155,1686.229Z" transform="translate(-1808.444 -1683.405)"/></g><path class="af" d="M1537.614,1372.955a9.354,9.354,0,0,1,4.976,12.43,9.585,9.585,0,0,1-12.293,5.346,9.355,9.355,0,0,1-5.017-12.264A9.592,9.592,0,0,1,1537.614,1372.955Z" transform="translate(-1477.311 -1355.744)"/><g class="ag" transform="translate(36.653 83.184)"><path class="j" d="M1459.51,2011.579a1.529,1.529,0,0,1-.828,1.984,1.492,1.492,0,0,1-1.979-.809,1.531,1.531,0,0,1,.846-1.978A1.489,1.489,0,0,1,1459.51,2011.579Z" transform="translate(-1453.881 -2003.181)"/><path class="j" d="M1446.178,1952.495a.548.548,0,0,1-.3.307.575.575,0,0,1-.744-.3,8.662,8.662,0,0,0-11.138-4.55.57.57,0,0,1-.742-.3.558.558,0,0,1,.327-.722,9.818,9.818,0,0,1,12.586,5.14A.556.556,0,0,1,1446.178,1952.495Z" transform="translate(-1433.217 -1946.241)"/><path class="j" d="M1450.428,1970.094a.547.547,0,0,1-.3.307.57.57,0,0,1-.747-.3,6.348,6.348,0,0,0-8.221-3.359.571.571,0,0,1-.745-.3.563.563,0,0,1,.325-.731,7.5,7.5,0,0,1,9.684,3.956A.553.553,0,0,1,1450.428,1970.094Z" transform="translate(-1439.543 -1962.966)"/><path class="j" d="M1454.737,1987.954a.573.573,0,0,1-1.06,0,4.037,4.037,0,0,0-5.263-2.151.567.567,0,1,1-.425-1.05,5.226,5.226,0,0,1,3.955,0,5.121,5.121,0,0,1,2.792,2.76A.573.573,0,0,1,1454.737,1987.954Z" transform="translate(-1445.95 -1979.941)"/></g></g><g transform="translate(109.419 197.992)"><path class="ah" d="M1130.075,1639.957c0,19.049-14.894,34.032-33.931,33.446-19.808-.608-36.471-17.717-36.471-38.191s16.663-35.337,36.471-33.274C1115.181,1603.918,1130.075,1620.911,1130.075,1639.957Z" transform="translate(-1059.674 -1600.104)"/><path class="ai" d="M1174.388,1625.811c0,19.046-14.9,34.029-33.93,33.446-19.81-.611-36.471-17.718-36.471-38.193s16.661-35.335,36.471-33.273C1159.493,1589.772,1174.388,1606.763,1174.388,1625.811Z" transform="translate(-1098.844 -1587.599)"/><path class="aj" d="M1186,1638.217c0,18.206-14.249,32.506-32.435,31.918-18.89-.611-34.75-16.94-34.75-36.449s15.86-33.7,34.75-31.762C1171.746,1603.788,1186,1620.008,1186,1638.217Z" transform="translate(-1111.946 -1600.105)"/><path class="ak" d="M1194.258,1647.075c0,17.608-13.788,31.416-31.364,30.826-18.235-.611-33.526-16.382-33.526-35.2s15.291-32.53,33.526-30.683C1180.47,1613.8,1194.258,1629.467,1194.258,1647.075Z" transform="translate(-1121.278 -1609.034)"/><g transform="translate(25.346 8.964)"><path class="al" d="M1294.118,1664.83h0a1.919,1.919,0,0,1,1.693,1.882v3.241a47.978,47.978,0,0,1,5.619.974q2.074.489,4.12,1.162a1.9,1.9,0,0,1,1.291,1.944l-.4,4.065a1.525,1.525,0,0,1-2.177,1.264,23.569,23.569,0,0,0-2.763-1.03,24.957,24.957,0,0,0-5.215-.973l-.478-.041v9.285c4.88,1.363,8.463,3.2,10.778,5.512a11.648,11.648,0,0,1,3.452,8.6,11.332,11.332,0,0,1-3.817,8.944q-3.846,3.387-10.8,3.8v3.578a1.625,1.625,0,0,1-1.693,1.653h-.029a1.8,1.8,0,0,1-1.7-1.794v-3.53l-.753-.035a49.508,49.508,0,0,1-6.258-.667,40.408,40.408,0,0,1-4.324-.994,1.862,1.862,0,0,1-1.357-1.924l.468-5.226a1.653,1.653,0,0,1,2.31-1.364,34.123,34.123,0,0,0,3.8,1.247,33.159,33.159,0,0,0,6.081,1.015L1292,1695.1c-4.683-1.159-8.19-2.875-10.492-5.149a11.782,11.782,0,0,1-3.476-8.761,10.244,10.244,0,0,1,3.768-8.511c2.5-1.982,6.044-2.969,10.623-2.966V1666.4A1.53,1.53,0,0,1,1294.118,1664.83Zm-1.7,12.394a5.718,5.718,0,0,0-3.385,1.194,3.479,3.479,0,0,0-1.213,2.785,3.74,3.74,0,0,0,1.124,2.77,7.95,7.95,0,0,0,3.475,1.773Zm3,18.7v9.469a5.236,5.236,0,0,0,3.622-1.125,4.054,4.054,0,0,0,1.26-3.188,4.358,4.358,0,0,0-1.171-3.117A8.563,8.563,0,0,0,1295.422,1695.926Z" transform="translate(-1278.03 -1664.823)"/></g><path class="am" d="M1157.218,1652.695c1.058-10.468,10.677-14.9,9.423-24.524-.773-5.934-5.271-10.935-10.289-14.84-15.216,1.6-26.984,14.2-26.984,30.679,0,18.818,15.291,34.589,33.526,35.2a31.482,31.482,0,0,0,5.179-.252C1160.833,1671.751,1156.307,1661.686,1157.218,1652.695Z" transform="translate(-1121.278 -1610.343)"/></g><g transform="translate(114.254 135.08)"><path class="ah" d="M1148.742,1080.884c0,12.827-10.031,22.918-22.851,22.525-13.343-.41-24.564-11.932-24.564-25.722s11.221-23.8,24.564-22.411C1138.712,1056.611,1148.742,1068.056,1148.742,1080.884Z" transform="translate(-1101.327 -1054.042)"/><path class="ai" d="M1178.59,1071.353c0,12.83-10.033,22.921-22.853,22.527-13.345-.41-24.566-11.934-24.566-25.722s11.221-23.8,24.566-22.411C1168.557,1047.082,1178.59,1058.527,1178.59,1071.353Z" transform="translate(-1127.707 -1045.619)"/><path class="aj" d="M1186.406,1079.71c0,12.263-9.6,21.894-21.845,21.5-12.723-.414-23.4-11.41-23.4-24.55s10.681-22.7,23.4-21.392C1176.808,1056.521,1186.406,1067.446,1186.406,1079.71Z" transform="translate(-1136.533 -1054.042)"/><path class="ak" d="M1191.972,1085.675c0,11.859-9.289,21.16-21.125,20.764-12.281-.413-22.58-11.035-22.58-23.711s10.3-21.908,22.58-20.664C1182.684,1063.262,1191.972,1073.816,1191.972,1085.675Z" transform="translate(-1142.818 -1060.057)"/><g transform="translate(17.071 6.037)"><path class="al" d="M1259.228,1097.636h0a1.288,1.288,0,0,1,1.141,1.266v2.182a32.275,32.275,0,0,1,3.784.658q1.4.327,2.774.78a1.274,1.274,0,0,1,.869,1.311l-.267,2.738a1.026,1.026,0,0,1-1.465.851,15.95,15.95,0,0,0-1.862-.693,16.862,16.862,0,0,0-3.511-.656l-.323-.027v6.254a16.406,16.406,0,0,1,7.259,3.711,7.845,7.845,0,0,1,2.325,5.794,7.63,7.63,0,0,1-2.572,6.024,11.73,11.73,0,0,1-7.275,2.56v2.411a1.1,1.1,0,0,1-1.141,1.113h-.02a1.211,1.211,0,0,1-1.144-1.208v-2.378l-.508-.022a33.2,33.2,0,0,1-4.215-.45,27.7,27.7,0,0,1-2.913-.67,1.256,1.256,0,0,1-.914-1.3l.316-3.519a1.113,1.113,0,0,1,1.556-.918,23.01,23.01,0,0,0,2.563.841,22.347,22.347,0,0,0,4.095.683l.02-6.954a15.081,15.081,0,0,1-7.069-3.469,7.94,7.94,0,0,1-2.34-5.9,6.9,6.9,0,0,1,2.538-5.732c1.681-1.335,4.071-2,7.154-2v-2.231A1.029,1.029,0,0,1,1259.228,1097.636Zm-1.144,8.345a3.852,3.852,0,0,0-2.278.8,2.339,2.339,0,0,0-.818,1.876,2.519,2.519,0,0,0,.757,1.867,5.376,5.376,0,0,0,2.34,1.193Zm2.022,12.6v6.377a3.521,3.521,0,0,0,2.441-.759,2.724,2.724,0,0,0,.849-2.145,2.939,2.939,0,0,0-.79-2.1A5.78,5.78,0,0,0,1260.107,1118.578Z" transform="translate(-1248.393 -1097.631)"/></g><path class="am" d="M1167.024,1089.461c.713-7.05,7.194-10.034,6.347-16.52-.521-4-3.551-7.363-6.928-9.993-10.25,1.075-18.175,9.562-18.175,20.661,0,12.677,10.3,23.3,22.58,23.709a21.188,21.188,0,0,0,3.488-.169C1169.459,1102.3,1166.412,1095.518,1167.024,1089.461Z" transform="translate(-1142.818 -1060.938)"/></g><rect class="an" width="64.411" height="58.985" rx="19.75" transform="translate(0 43.034) rotate(-17)"/><rect class="an" width="26.417" height="24.192" rx="12.096" transform="translate(39.421 7.724) rotate(-17)"/><rect class="an" width="15.18" height="13.901" rx="6.95" transform="translate(8.29 16.096) rotate(-17)"/><g transform="matrix(0.899, -0.438, 0.438, 0.899, 17.58, 54.666)"><path class="ah" d="M30.739,16.685a14.32,14.32,0,0,1-14.814,14.6A16.766,16.766,0,0,1,0,14.612,14.28,14.28,0,0,1,15.925.083,16.877,16.877,0,0,1,30.739,16.685Z" transform="translate(0 0.717)"/><path class="ai" d="M30.742,16.684a14.321,14.321,0,0,1-14.815,14.6A16.768,16.768,0,0,1,0,14.612,14.28,14.28,0,0,1,15.926.083,16.878,16.878,0,0,1,30.742,16.684Z" transform="translate(2.246 0)"/><path class="aj" d="M29.335,15.924A13.666,13.666,0,0,1,15.173,29.861,16.006,16.006,0,0,1,0,13.945,13.629,13.629,0,0,1,15.173.077,16.1,16.1,0,0,1,29.335,15.924Z" transform="translate(2.997 0.717)"/><path class="ak" d="M28.334,15.38a13.2,13.2,0,0,1-13.7,13.461A15.46,15.46,0,0,1,0,13.469,13.164,13.164,0,0,1,14.638.073,15.553,15.553,0,0,1,28.334,15.38Z" transform="translate(3.533 1.228)"/><g transform="translate(11.067 3.914)"><path class="al" d="M7.025,0h0a.835.835,0,0,1,.739.82V2.239a20.86,20.86,0,0,1,2.454.427q.905.212,1.8.505a.826.826,0,0,1,.564.85L12.407,5.8a.665.665,0,0,1-.95.552A10.306,10.306,0,0,0,10.25,5.9a10.927,10.927,0,0,0-2.276-.425l-.21-.018V9.51a10.639,10.639,0,0,1,4.706,2.406,5.086,5.086,0,0,1,1.508,3.757,4.946,4.946,0,0,1-1.667,3.905,7.607,7.607,0,0,1-4.716,1.66V22.8a.71.71,0,0,1-.739.721H6.842a.785.785,0,0,1-.741-.783V21.2l-.33-.015a21.564,21.564,0,0,1-2.732-.292,17.962,17.962,0,0,1-1.888-.434.814.814,0,0,1-.592-.841l.2-2.282a.722.722,0,0,1,1.008-.6,14.893,14.893,0,0,0,1.662.545,14.517,14.517,0,0,0,2.655.443L6.1,13.218a9.777,9.777,0,0,1-4.583-2.249A5.146,5.146,0,0,1,0,7.144,4.472,4.472,0,0,1,1.646,3.428a7.3,7.3,0,0,1,4.638-1.3V.686A.667.667,0,0,1,7.025,0Zm-.741,5.41a2.5,2.5,0,0,0-1.477.522,1.517,1.517,0,0,0-.53,1.216,1.633,1.633,0,0,0,.491,1.21,3.482,3.482,0,0,0,1.517.774ZM7.594,13.58v4.134a2.283,2.283,0,0,0,1.582-.492,1.767,1.767,0,0,0,.55-1.391,1.905,1.905,0,0,0-.512-1.361A3.747,3.747,0,0,0,7.594,13.58Z" transform="translate(0 0)"/></g><path class="am" d="M12.16,17.188c.463-4.57,4.664-6.5,4.115-10.71C15.937,3.888,13.973,1.7,11.783,0A13.166,13.166,0,0,0,0,13.394,15.459,15.459,0,0,0,14.638,28.765a13.757,13.757,0,0,0,2.261-.11C13.739,25.509,11.763,21.114,12.16,17.188Z" transform="translate(3.533 1.304)"/></g><g transform="matrix(0.899, -0.438, 0.438, 0.899, 46.631, 12.494)"><path class="ah" d="M12.607,6.843a5.873,5.873,0,0,1-6.076,5.989A6.877,6.877,0,0,1,0,5.993,5.857,5.857,0,0,1,6.531.034,6.922,6.922,0,0,1,12.607,6.843Z" transform="translate(0 0.294)"/><path class="ai" d="M12.608,6.842a5.873,5.873,0,0,1-6.076,5.99A6.877,6.877,0,0,1,0,5.993,5.857,5.857,0,0,1,6.532.034,6.922,6.922,0,0,1,12.608,6.842Z" transform="translate(0.921 0)"/><path class="aj" d="M12.032,6.531a5.605,5.605,0,0,1-5.808,5.716A6.564,6.564,0,0,1,0,5.72,5.59,5.59,0,0,1,6.223.032,6.6,6.6,0,0,1,12.032,6.531Z" transform="translate(1.229 0.294)"/><path class="ak" d="M11.621,6.308A5.414,5.414,0,0,1,6,11.829a6.341,6.341,0,0,1-6-6.3A5.4,5.4,0,0,1,6,.03,6.379,6.379,0,0,1,11.621,6.308Z" transform="translate(1.449 0.504)"/><g transform="translate(4.539 1.605)"><path class="al" d="M2.881,0h0a.343.343,0,0,1,.3.336v.58a8.565,8.565,0,0,1,1.006.175q.371.087.738.207a.339.339,0,0,1,.231.349l-.071.728A.273.273,0,0,1,4.7,2.6a4.231,4.231,0,0,0-.5-.184,4.482,4.482,0,0,0-.933-.174l-.086-.007V3.9a4.364,4.364,0,0,1,1.93.987,2.086,2.086,0,0,1,.618,1.541,2.029,2.029,0,0,1-.684,1.6,3.119,3.119,0,0,1-1.934.681v.641a.291.291,0,0,1-.3.3H2.806a.322.322,0,0,1-.3-.321V8.694l-.135-.006a8.83,8.83,0,0,1-1.121-.12A7.337,7.337,0,0,1,.472,8.39a.334.334,0,0,1-.243-.345l.084-.936a.3.3,0,0,1,.414-.244,6.091,6.091,0,0,0,.682.224A5.952,5.952,0,0,0,2.5,7.27L2.5,5.421A4.01,4.01,0,0,1,.622,4.5,2.111,2.111,0,0,1,0,2.93,1.834,1.834,0,0,1,.675,1.406a3,3,0,0,1,1.9-.531V.282A.274.274,0,0,1,2.881,0Zm-.3,2.219a1.025,1.025,0,0,0-.606.214.622.622,0,0,0-.218.5.67.67,0,0,0,.2.5,1.429,1.429,0,0,0,.622.317ZM3.115,5.57v1.7a.937.937,0,0,0,.649-.2.725.725,0,0,0,.226-.57.781.781,0,0,0-.21-.558A1.538,1.538,0,0,0,3.115,5.57Z" transform="translate(0 0)"/></g><path class="am" d="M4.987,7.049C5.177,5.175,6.9,4.382,6.675,2.657A4.345,4.345,0,0,0,4.833,0,5.4,5.4,0,0,0,0,5.493a6.341,6.341,0,0,0,6,6.3,5.649,5.649,0,0,0,.928-.045A6.138,6.138,0,0,1,4.987,7.049Z" transform="translate(1.449 0.535)"/></g><g transform="matrix(0.899, -0.438, 0.438, 0.899, 12.433, 18.837)"><path class="ah" d="M7.244,3.932A3.375,3.375,0,0,1,3.753,7.374,3.951,3.951,0,0,1,0,3.444,3.365,3.365,0,0,1,3.753.02,3.977,3.977,0,0,1,7.244,3.932Z" transform="translate(0 0.169)"/><path class="ai" d="M7.245,3.932A3.375,3.375,0,0,1,3.753,7.374,3.952,3.952,0,0,1,0,3.444,3.365,3.365,0,0,1,3.753.02,3.978,3.978,0,0,1,7.245,3.932Z" transform="translate(0.529 0)"/><path class="aj" d="M6.913,3.753A3.221,3.221,0,0,1,3.576,7.037,3.772,3.772,0,0,1,0,3.287,3.212,3.212,0,0,1,3.576.018,3.8,3.8,0,0,1,6.913,3.753Z" transform="translate(0.706 0.169)"/><path class="ak" d="M6.677,3.625A3.111,3.111,0,0,1,3.45,6.8,3.643,3.643,0,0,1,0,3.174,3.1,3.1,0,0,1,3.45.017,3.665,3.665,0,0,1,6.677,3.625Z" transform="translate(0.833 0.29)"/><g transform="translate(2.608 0.922)"><path class="al" d="M1.655,0h0A.2.2,0,0,1,1.83.194V.528a4.921,4.921,0,0,1,.578.1q.213.05.424.119a.2.2,0,0,1,.133.2l-.041.418A.157.157,0,0,1,2.7,1.5a2.431,2.431,0,0,0-.284-.106,2.576,2.576,0,0,0-.536-.1l-.049,0v.955a2.507,2.507,0,0,1,1.109.567,1.2,1.2,0,0,1,.355.885,1.166,1.166,0,0,1-.393.92,1.792,1.792,0,0,1-1.111.391v.368a.167.167,0,0,1-.174.17h0a.185.185,0,0,1-.175-.185V5l-.078,0a5.074,5.074,0,0,1-.644-.069,4.216,4.216,0,0,1-.445-.1.192.192,0,0,1-.14-.2L.18,4.085a.17.17,0,0,1,.238-.14,3.5,3.5,0,0,0,.392.128,3.42,3.42,0,0,0,.626.1l0-1.063a2.3,2.3,0,0,1-1.08-.53A1.213,1.213,0,0,1,0,1.684,1.054,1.054,0,0,1,.388.808,1.721,1.721,0,0,1,1.481.5V.162A.157.157,0,0,1,1.655,0ZM1.481,1.276a.589.589,0,0,0-.348.123.358.358,0,0,0-.125.287.385.385,0,0,0,.116.285.821.821,0,0,0,.358.182ZM1.79,3.2v.974a.538.538,0,0,0,.373-.116.416.416,0,0,0,.13-.328.449.449,0,0,0-.121-.321A.884.884,0,0,0,1.79,3.2Z" transform="translate(0 0)"/></g><path class="am" d="M2.866,4.051c.109-1.077,1.1-1.533.97-2.524A2.5,2.5,0,0,0,2.777,0,3.1,3.1,0,0,0,0,3.157,3.643,3.643,0,0,0,3.45,6.779a3.246,3.246,0,0,0,.533-.026A3.527,3.527,0,0,1,2.866,4.051Z" transform="translate(0.833 0.307)"/></g><g transform="translate(107.448 250.48)"><path class="ao" d="M1170.855,2047.282l7.646,89.274a7.69,7.69,0,0,1-1.969,6.017,7.586,7.586,0,0,1-4.911,2.4l-112.632,9.485a8.348,8.348,0,0,1-9.2-7.54l-7.075-94.979a8.047,8.047,0,0,1,7.956-8.515l111.933-3.64A8.2,8.2,0,0,1,1170.855,2047.282Z" transform="translate(-1042.692 -2039.78)"/><path class="ap" d="M1176.655,2170a7.7,7.7,0,0,1-4.957,2.4l-112.672,9.485a8.385,8.385,0,0,1-9.236-7.537l-7.075-94.978a8.048,8.048,0,0,1,7.956-8.518l1.3-.043c.472,2.453,1.108,5.205,1.713,7.846.084.366.17.767.252,1.117.7,3.049,1.3,5.553,1.412,5.877,3.514,10.517,8.479,22.6,18.968,28.482,16.03,8.988,36.327,7.376,53.185,12.3,11.1,3.246,22.5,7.628,31.33,14.959a51.567,51.567,0,0,1,15.086,19.7A53.575,53.575,0,0,1,1176.655,2170Z" transform="translate(-1042.692 -2067.208)"/><g class="t" transform="translate(5.383 5.746)"><path class="f" d="M1203.6,2184.84h-.005l-3.879.24a.837.837,0,0,1-.868-.771.742.742,0,0,1,.73-.8l3.871-.259h0a6.267,6.267,0,0,0,1.93-.466.776.776,0,0,1,1.007.47.855.855,0,0,1-.5,1.064A7.453,7.453,0,0,1,1203.6,2184.84Zm-9.961.66-6.105.5a.8.8,0,1,1-.134-1.6l6.107-.5a.8.8,0,1,1,.132,1.6Zm-12.251,1-6.179.506a.809.809,0,1,1-.13-1.612l6.179-.5a.806.806,0,1,1,.13,1.606Zm-12.4,1.014-6.254.515a.815.815,0,1,1-.131-1.625l6.254-.508a.812.812,0,1,1,.131,1.618Zm-12.546,1.029-6.33.515a.819.819,0,1,1-.13-1.632l6.329-.51a.816.816,0,1,1,.13,1.627Zm-12.7,1.04-6.406.523a.825.825,0,1,1-.13-1.644l6.407-.518a.822.822,0,1,1,.129,1.639Zm-12.852,1.048-6.485.533a.829.829,0,1,1-.129-1.653l6.484-.527a.826.826,0,1,1,.129,1.646Zm-13.009,1.065-6.566.539a.835.835,0,1,1-.127-1.663l6.566-.53a.843.843,0,0,1,.927.755A.855.855,0,0,1,1117.891,2191.7Zm-13.171.886a.689.689,0,0,1-.176,0,10.963,10.963,0,0,1-6.362-2.956.812.812,0,0,1,.016-1.186.91.91,0,0,1,1.245,0,9.219,9.219,0,0,0,5.327,2.481.829.829,0,0,1,.754.927A.871.871,0,0,1,1104.72,2192.584Zm105.669-11.923a.8.8,0,0,1-.729-1.231,8.118,8.118,0,0,0,1.321-5.208.781.781,0,0,1,.722-.85.8.8,0,0,1,.855.726,9.686,9.686,0,0,1-1.573,6.213A.79.79,0,0,1,1210.39,2180.661Zm-114.311,3.567a.862.862,0,0,1-.954-.72c-.013-.125-.039-.229-.049-.357l-.448-5.987a.807.807,0,0,1,.741-.908.793.793,0,0,1,.866.767l.45,5.986c.007.1.107.194.119.3a.808.808,0,0,1-.738.92C1096.054,2184.227,1096.089,2184.229,1096.079,2184.229Zm115.588-12.3c-.435.033-.67-.289-.708-.728l-.508-5.985c-.038-.432.137-.814.572-.848s.67.3.707.732l.508,5.979C1212.277,2171.516,1212.1,2171.9,1211.667,2171.932Zm-116.646-.328a.792.792,0,0,1-.869-.764l-.474-6.323a.807.807,0,1,1,1.609-.128l.474,6.314A.8.8,0,0,1,1095.021,2171.6Zm115.629-11.63c-.435.029-.669-.3-.708-.732l-.506-5.973c-.038-.436.137-.812.573-.839s.67.3.706.732l.508,5.967C1211.26,2159.563,1211.086,2159.943,1210.65,2159.973Zm-116.576-1a.8.8,0,0,1-.867-.773l-.472-6.3a.79.79,0,0,1,.742-.89.8.8,0,0,1,.866.776l.473,6.3A.792.792,0,0,1,1094.074,2158.978Zm115.563-10.94c-.437.027-.671-.3-.709-.737l-.506-5.959c-.037-.434.138-.806.573-.835s.669.306.706.737l.508,5.96C1210.244,2147.635,1210.07,2148.011,1209.637,2148.037Zm-116.507-1.657a.808.808,0,0,1-.868-.779l-.47-6.29a.78.78,0,0,1,.74-.881.806.806,0,0,1,.865.779l.472,6.284A.788.788,0,0,1,1093.13,2146.38Zm115.493-10.254c-.437.023-.67-.307-.707-.744l-.508-5.946c-.035-.432.139-.8.575-.827s.67.311.706.746l.5,5.939C1209.231,2135.73,1209.057,2136.1,1208.623,2136.126Zm-116.437-2.32a.809.809,0,0,1-.866-.779l-.471-6.279a.774.774,0,0,1,.744-.872.809.809,0,0,1,.862.782l.472,6.271A.776.776,0,0,1,1092.187,2133.806Zm115.424-9.568c-.435.021-.668-.312-.705-.743l-.5-5.937c-.038-.432.138-.8.572-.821s.669.313.7.746l.506,5.928C1208.22,2123.847,1208.046,2124.216,1207.611,2124.239Zm-116.365-2.975a.816.816,0,0,1-.866-.788l-.469-6.262a.768.768,0,0,1,.74-.866.819.819,0,0,1,.864.788l.471,6.257A.775.775,0,0,1,1091.246,2121.263Zm115.356-8.888c-.434.021-.67-.315-.7-.747l-.5-5.924c-.036-.429.14-.8.573-.812s.669.318.705.749l.5,5.919C1207.212,2111.99,1207.036,2112.356,1206.6,2112.375Zm-116.3-3.628a.822.822,0,0,1-.864-.791l-.353-4.705a9.544,9.544,0,0,1,.036-1.68.845.845,0,0,1,.962-.717.8.8,0,0,1,.71.92,8.08,8.08,0,0,0-.1,1.412l.354,4.7A.77.77,0,0,1,1090.306,2108.747Zm115.289-8.211c-.433.016-.668-.318-.7-.753l-.1-1.145a8.507,8.507,0,0,0-1.616-4.092.752.752,0,0,1,.125-1.08.741.741,0,0,1,1.04.233,9.9,9.9,0,0,1,1.73,4.884l.1,1.145C1206.2,2100.158,1206.03,2100.517,1205.6,2100.536ZM1092.783,2097a.924.924,0,0,1-.666-.244.788.788,0,0,1-.032-1.163,10.724,10.724,0,0,1,6.279-2.861.9.9,0,0,1,.986.726.8.8,0,0,1-.737.906,8.974,8.974,0,0,0-5.257,2.4A.86.86,0,0,1,1092.783,2097Zm106.188-5.674a.811.811,0,0,1-.289-.044,8.48,8.48,0,0,0-3-.431l-2.694.095a.84.84,0,0,1-.861-.752.745.745,0,0,1,.729-.81l2.692-.1a10.112,10.112,0,0,1,3.574.52.817.817,0,0,1,.539.993A.747.747,0,0,1,1198.97,2091.324Zm-12.018-.161-6.073.218a.845.845,0,0,1-.869-.759.754.754,0,0,1,.738-.817l6.075-.214a.84.84,0,0,1,.862.758A.747.747,0,0,1,1186.952,2091.163Zm-12.183.435-6.144.223a.851.851,0,0,1-.878-.762.761.761,0,0,1,.749-.823l6.145-.215a.846.846,0,0,1,.873.764A.754.754,0,0,1,1174.769,2091.6Zm-12.325.446-6.219.224a.858.858,0,0,1-.888-.77.769.769,0,0,1,.759-.826l6.217-.218a.853.853,0,0,1,.884.765A.768.768,0,0,1,1162.443,2092.044Zm-12.476.449-6.291.225a.86.86,0,0,1-.9-.771.779.779,0,0,1,.767-.833l6.294-.222a.865.865,0,0,1,.893.773A.775.775,0,0,1,1149.967,2092.493Zm-12.622.453-6.37.229a.873.873,0,0,1-.906-.779.786.786,0,0,1,.781-.836l6.367-.223a.864.864,0,0,1,.9.774A.781.781,0,0,1,1137.345,2092.946Zm-12.776.458-6.447.23a.873.873,0,0,1-.915-.779.791.791,0,0,1,.79-.841l6.447-.229a.876.876,0,0,1,.91.777A.788.788,0,0,1,1124.569,2093.4Zm-12.931.466-6.525.235a.885.885,0,0,1-.927-.786.8.8,0,0,1,.8-.848l6.524-.228a.878.878,0,0,1,.921.782A.8.8,0,0,1,1111.637,2093.87Z" transform="translate(-1089.067 -2089.279)"/></g><path class="aq" d="M1954.523,2313.417a2.41,2.41,0,0,0-2.225-.176l-22.906,9.8a8.488,8.488,0,0,0-5.23,8.322l.792,9.512a9.074,9.074,0,0,0,7.168,7.824l23.7,5.19a2.461,2.461,0,0,0,2.13-.53,2.415,2.415,0,0,0,.834-2.005l-3.1-36.014A2.485,2.485,0,0,0,1954.523,2313.417Z" transform="translate(-1821.819 -2281.327)"/><path class="ar" d="M1982.089,2468.26a4.67,4.67,0,0,1-4.405,5.06,4.956,4.956,0,0,1-5.228-4.5,4.664,4.664,0,0,1,4.426-5.056A4.958,4.958,0,0,1,1982.089,2468.26Z" transform="translate(-1864.517 -2414.544)"/></g></g></g></g></svg>