<svg xmlns="http://www.w3.org/2000/svg" xmlns:xlink="http://www.w3.org/1999/xlink" width="335" height="334.902" viewBox="0 0 335 334.902"><defs><style>.a,.n{fill:#f6f6f9;}.a,.b{opacity:0.26;}.b{fill:#e9e9f7;}.c,.d,.k{fill:#fff;}.c{opacity:0.11;}.d{opacity:0.25;}.e{opacity:0.09;fill:url(#a);}.f{fill:#f55a00;}.g{fill:#c74900;}.h{fill:#b3490b;}.i{fill:#22292a;}.j{fill:#222;}.l{fill:#214675;}.m{fill:#4a6c8f;opacity:0.3;mix-blend-mode:multiply;isolation:isolate;}.o{fill:#23cbd8;}.p{fill:#f0f6ff;}.q{fill:#489da4;}.r{fill:#dfecf2;}.s{fill:#1e7586;}.t{fill:#95bfbd;}.u{fill:#eb572f;}.v{fill:#feba55;}.w{fill:#f9cd93;}.x{fill:#f5946a;}.y{fill:#499ca4;}.z{fill:#b53255;}.aa{fill:#273c57;}.ab{fill:#f74553;}.ac{fill:#e05200;}.ad{fill:#360d0d;}.ae{fill:#fca870;}.af{fill:#9c4818;}.ag{fill:#6d2309;}.ah{fill:#f3af80;}.ai{fill:#343e3f;}.aj{fill:#263132;}.ak{fill:#e7796f;}.al{fill:#f87e37;}.am{fill:#293436;}.an{fill:#fa7223;}.ao{fill:#3e4949;}</style><linearGradient id="a" x1="0.378" y1="0.388" x2="0.5" y2="1" gradientUnits="objectBoundingBox"><stop offset="0" stop-color="#fff"/><stop offset="1" stop-color="#5274eb"/></linearGradient></defs><g transform="translate(0 -27.265)"><path class="a" d="M198.963,279.392a234.333,234.333,0,0,0,30.887-4.523c9.9-2.168,17.643-5.733,24-8.184,18.927-7.3,33.047,15.478,6.984,27.1-24.643,10.989-62.14,1.829-71.333-5.2S198.963,279.392,198.963,279.392Z" transform="translate(32.085 40.34)"/><circle class="b" cx="10.662" cy="10.662" r="10.662" transform="translate(186.277 323.373)"/><path class="a" d="M117.948,237.808c-5.565,19.328-16.4,29.87-27.089,27.528-8.1-1.776-22.9-10.632-7.38-43.724s13.31-52.035,20.677-57.825c6-4.711,16.313,2.887,18.475,23.067C124.544,204.68,120.557,228.743,117.948,237.808Z" transform="translate(-50.909 -37.461)"/><ellipse class="b" cx="15.521" cy="15.521" rx="15.521" ry="15.521" transform="translate(274.468 104.795)"/><ellipse class="b" cx="5.19" cy="5.19" rx="5.19" ry="5.19" transform="translate(34.824 239.198)"/><path class="c" d="M721.61,648.4c-28.8,67.322-104.83,96.238-164.4,91.307-16.265-1.346-48.99-4.054-74.542-28.218-49.071-46.405-41.513-143.4,5.461-200.511,6.049-7.354,47.922-56.627,113.174-55.968,47.774.483,81.3,27.47,85.382,30.832a131.518,131.518,0,0,1,26.75,30.351C737.493,553.809,739.608,606.328,721.61,648.4Z" transform="translate(-449.218 -398.713)"/><path class="d" d="M710.849,640.756c-27.664,64.662-100.688,92.435-157.9,87.7-15.622-1.293-47.054-3.894-71.6-27.1-47.132-44.572-39.873-137.738,5.246-192.589,5.811-7.064,46.029-54.39,108.7-53.757,45.886.464,78.093,26.385,82.009,29.614A126.308,126.308,0,0,1,703,513.771C726.1,549.9,728.136,600.349,710.849,640.756Z" transform="translate(-387.298 -382.208)"/><path class="e" d="M692.588,627.791c-25.734,60.149-93.661,85.984-146.883,81.579-14.532-1.2-43.77-3.622-66.6-25.212-43.842-41.461-37.09-128.125,4.879-179.148,5.4-6.571,42.817-50.594,101.115-50,42.683.432,72.642,24.543,76.285,27.547a117.506,117.506,0,0,1,23.9,27.117C706.779,543.281,708.668,590.2,692.588,627.791Z" transform="translate(-395.064 -353.348)"/><g transform="translate(-266.89 -203.868)"><g transform="translate(281.89 231.133)"><path class="f" d="M1354.566,513.016c-1.177-6.523-3.053-13.026-6.6-18.624-4.449-7.012-11.378-12.284-17.926-17.212l-5.832.239c-10.654-7.05-25.64-4.312-35.686,3.58s-16,19.865-20.351,31.876c-8.943,24.676-12.425,51.88-6.1,77.353,1.883,7.579,4.805,15.243,10.537,20.546,7.465,6.907,18.755,8.617,28.616,6.132s18.436-8.662,25.646-15.834C1349.556,578.5,1360.249,544.508,1354.566,513.016Z" transform="translate(-1052.028 -422.082)"/><path class="g" d="M1450.061,532.015c-2.732-3.623-3.459-9.116-.543-12.592l-7.7-4.029c-5.234,2.945-8.946,7.963-12.183,13.021a46.922,46.922,0,0,0-5.652,11.255,19.913,19.913,0,0,0-.134,12.418c.833,2.353,2.411,4.624,4.769,5.443,2.71.942,5.718-.26,8.044-1.94,4.9-3.542,8.058-9.122,13.018-12.586a19.863,19.863,0,0,1,11.572-3.55C1457.045,537.759,1452.793,535.638,1450.061,532.015Z" transform="translate(-1181.368 -455.217)"/><path class="h" d="M1425.988,772.1c-13.108,3.853-24.489,12.049-34.92,20.872-4.714,3.987-9.338,8.182-12.871,13.246s-5.929,11.113-5.71,17.284a8.786,8.786,0,0,0,.81,3.757,6.984,6.984,0,0,0,4.387,3.306,14.651,14.651,0,0,0,5.61.239c7.965-.917,15.325-4.684,22.061-9.032a88.033,88.033,0,0,0,20.256-17.431,55.152,55.152,0,0,0,11.867-23.764Z" transform="translate(-1141.602 -657.578)"/><path class="i" d="M323.447,1276.605c-29.888,35.58-14.7,66.554-14.151,67.058,20.142,18.369,75.883-11.73,75.883-11.73l9.014-52.005S353.335,1241.025,323.447,1276.605Z" transform="translate(-300.071 -1043.463)"/><path class="j" d="M377.084,1274.663c.135.525.274,1.048.413,1.566l6.831,8.981,7.652,7a21.9,21.9,0,0,1,4.374,4.9,7.4,7.4,0,0,1,.8,6.318l-10.309.843a26.407,26.407,0,0,0-6.236,1.017c-3.879,1.293-6.914,4.284-9.8,7.18a30.391,30.391,0,0,1,13.216-.483c10.074,1.871,18.511,8.663,28.2,12a48.479,48.479,0,0,0,26.049,1.164l7.837-45.215S406.794,1242.508,377.084,1274.663Z" transform="translate(-351.986 -1043.472)"/><g transform="translate(56.784 30.052)"><g transform="translate(146.6 157.616) rotate(-2)"><g transform="translate(0 0)"><path class="k" d="M0,126.2s30.026-7.565,36.034-15.207.456-10.809.456-10.809S59.382,86.834,60.5,79.427c.583-3.878-1.223-5.759-3.073-6.672a8.938,8.938,0,0,0-3.415-.855S67.72,61.439,72.371,51.168s-7.185-11.912-7.185-11.912S82.065,2.913,66.985.2,46.025,23.017,46.025,23.017s-9.783-9.821-15.01,3.909c-.475,1.255-.975,2.687-1.476,4.252-5.075,15.568-11.38,44.4-11.38,44.4s-12.216.836-9.681,23.012c0,0-6.6-2.255-6.932,3.644S0,126.2,0,126.2Z" transform="translate(0 0)"/><path class="l" d="M.016,87.377C-.826,88.3,32.059,31.652,47.083,0,47.083,0,22.9,62.3.016,87.377Z" transform="translate(10.53 24.57)"/><path class="m" d="M0,95.022s30.026-7.565,36.034-15.207.456-10.809.456-10.809S59.382,55.656,60.5,48.249c.583-3.878-1.223-5.759-3.073-6.672C36.768,51.392,31.44,28.759,35.8,15.308,39.62,3.5,36.5,3.352,29.539,0c-5.075,15.568-11.38,44.4-11.38,44.4s-12.216.836-9.681,23.012c0,0-6.6-2.255-6.932,3.644S0,95.022,0,95.022Z" transform="translate(0 31.178)"/></g><g transform="translate(5.095 70.174)"><path class="k" d="M0,64.785s21.773,3.576,27.868.285,3.366-6.936,3.366-6.936,18.752-2.23,21.582-6.755c1.481-2.369.835-4.112-.115-5.233a6.385,6.385,0,0,0-1.99-1.529s11.93-2.947,17.885-8.34-1.316-9.825-1.316-9.825S88.625,7.487,79.538,1.435,59.363,10.4,59.363,10.4s-3.608-9.2-10.92-1.7c-.667.685-1.4,1.479-2.171,2.36-7.735,8.736-20.036,25.791-20.036,25.791s-8.222-2.92-12.858,12.295c0,0-3.675-3.348-5.565.414S0,64.785,0,64.785Z" transform="translate(0 0)"/><path class="l" d="M.013,43.758C-.8,44.122,36.77,16.426,55.572,0,55.572,0,22.091,33.859.013,43.758Z" transform="translate(10.925 14.704)"/><path class="m" d="M0,53.728s21.773,3.576,27.868.285,3.366-6.936,3.366-6.936,18.752-2.23,21.582-6.755c1.481-2.369.835-4.112-.115-5.233-16.286.554-13.347-15.752-6.681-23.307C51.866,5.151,49.871,4.167,46.271,0,38.536,8.736,26.235,25.791,26.235,25.791s-8.222-2.92-12.858,12.295c0,0-3.675-3.348-5.565.414S0,53.728,0,53.728Z" transform="translate(0 11.057)"/></g></g><g transform="translate(30.092 -39.105) rotate(16)"><path class="j" d="M11.337.06,153.1,0a11.211,11.211,0,0,1,11.21,11.225l-.118,276.569a11.233,11.233,0,0,1-11.219,11.234l-141.761.06A11.21,11.21,0,0,1,0,287.864L.118,11.294A11.234,11.234,0,0,1,11.337.06Z" transform="translate(0 46.687) rotate(-16.508)"/><path class="n" d="M5.461.062,141.392,0a5.548,5.548,0,0,1,5.349,5.734l-.107,269.158a5.56,5.56,0,0,1-5.354,5.739l-135.932.062A5.548,5.548,0,0,1,0,274.959L.107,5.8A5.56,5.56,0,0,1,5.461.062Z" transform="translate(10.915 52.59) rotate(-16.508)"/></g><g transform="translate(49.157 256.028)"><path class="o" d="M885.847,1523.383h-98.8a4.582,4.582,0,0,1-4.715-4.437v-16.008a4.57,4.57,0,0,1,4.514-4.433q49.6-2.048,99.2,0a4.57,4.57,0,0,1,4.514,4.433v16.008A4.582,4.582,0,0,1,885.847,1523.383Z" transform="translate(-782.33 -1497.481)"/><g transform="translate(7.396 7.184)"><path class="p" d="M821.915,1534.412a3.228,3.228,0,0,1,1.608-.4,3.285,3.285,0,0,1,2.614,1.3l2-1.806a5.277,5.277,0,0,0-2.028-1.553,6.721,6.721,0,0,0-2.741-.539,6.562,6.562,0,0,0-3.129.737,5.51,5.51,0,0,0-2.178,2.052,5.995,5.995,0,0,0,0,5.957,5.5,5.5,0,0,0,2.178,2.052,6.56,6.56,0,0,0,3.129.737,6.721,6.721,0,0,0,2.741-.539,5.271,5.271,0,0,0,2.028-1.553l-2-1.806a3.283,3.283,0,0,1-2.614,1.3,3.222,3.222,0,0,1-1.608-.4,2.746,2.746,0,0,1-1.093-1.117,3.726,3.726,0,0,1,0-3.311A2.749,2.749,0,0,1,821.915,1534.412Z" transform="translate(-817.265 -1531.418)"/><path class="p" d="M882.6,1536.632h-4.278v-4.167h-3.137v11.09h3.137v-4.325H882.6v4.325h3.137v-11.09H882.6Z" transform="translate(-862.926 -1532.244)"/><path class="p" d="M938.613,1539.1h4.927v-2.345h-4.927v-1.869h5.593v-2.424h-8.7v11.09h8.9v-2.424h-5.8Z" transform="translate(-910.476 -1532.244)"/><path class="p" d="M987.68,1534.412a3.228,3.228,0,0,1,1.608-.4,3.285,3.285,0,0,1,2.614,1.3l2-1.806a5.275,5.275,0,0,0-2.028-1.553,6.72,6.72,0,0,0-2.741-.539,6.562,6.562,0,0,0-3.129.737,5.511,5.511,0,0,0-2.179,2.052,6,6,0,0,0,0,5.957,5.505,5.505,0,0,0,2.179,2.052,6.559,6.559,0,0,0,3.129.737,6.72,6.72,0,0,0,2.741-.539,5.269,5.269,0,0,0,2.028-1.553l-2-1.806a3.283,3.283,0,0,1-2.614,1.3,3.221,3.221,0,0,1-1.608-.4,2.742,2.742,0,0,1-1.093-1.117,3.724,3.724,0,0,1,0-3.311A2.745,2.745,0,0,1,987.68,1534.412Z" transform="translate(-947.938 -1531.418)"/><path class="p" d="M1051.806,1532.466h-3.454l-4.293,4.61v-4.61h-3.105v11.09h3.105v-2.773l1.172-1.251,3.168,4.024h3.644l-4.769-6.179Z" transform="translate(-993.6 -1532.244)"/><path class="p" d="M1101.99,1532.162a7.082,7.082,0,0,0-6.322,0,5.671,5.671,0,0,0,0,10.044,7.08,7.08,0,0,0,6.322,0,5.671,5.671,0,0,0,0-10.044Zm-.562,6.678a2.847,2.847,0,0,1-1.077,1.117,3.117,3.117,0,0,1-3.042,0,2.838,2.838,0,0,1-1.077-1.117,3.658,3.658,0,0,1,0-3.311,2.841,2.841,0,0,1,1.077-1.117,3.119,3.119,0,0,1,3.042,0,2.85,2.85,0,0,1,1.077,1.117,3.657,3.657,0,0,1,0,3.311Z" transform="translate(-1034.365 -1531.418)"/><path class="p" d="M1165.559,1538.518q0,2.662-2.091,2.661-2.107,0-2.107-2.661v-6.052h-3.137v6.147a5.109,5.109,0,0,0,1.37,3.818,6.153,6.153,0,0,0,7.684,0,5.111,5.111,0,0,0,1.37-3.818v-6.147h-3.089Z" transform="translate(-1086.045 -1532.244)"/><path class="p" d="M1211.734,1532.466v2.487h3.406v8.6h3.137v-8.6h3.391v-2.487Z" transform="translate(-1128.227 -1532.244)"/></g></g><g transform="translate(44.324 36.509)"><path class="q" d="M804.494,612.671l-23.642,9.241a4.12,4.12,0,0,1-5.337-2.337l-15.73-40.244a4.119,4.119,0,0,1,2.337-5.336l23.642-9.241a4.119,4.119,0,0,1,5.336,2.337l15.73,40.244A4.12,4.12,0,0,1,804.494,612.671Z" transform="translate(-759.501 -560.465)"/><path class="r" d="M4.584,0H20.908a4.584,4.584,0,0,1,4.584,4.584v0a0,0,0,0,1,0,0H0a0,0,0,0,1,0,0v0A4.584,4.584,0,0,1,4.584,0Z" transform="translate(0.902 9.28) rotate(-21.349)"/><path class="r" d="M4.584,0H20.908a4.584,4.584,0,0,1,4.584,4.584v0a0,0,0,0,1,0,0H0a0,0,0,0,1,0,0v0A4.584,4.584,0,0,1,4.584,0Z" transform="translate(46.711 56.456) rotate(158.651)"/><path class="s" d="M767.418,599.882a9.261,9.261,0,0,1,.9-1.816l-6.154,2.406a4.139,4.139,0,0,0-2.348,5.362l15.716,40.207a4.139,4.139,0,0,0,5.362,2.348l8.3-3.245a22.1,22.1,0,0,1-9.144-6.827,51.186,51.186,0,0,1-6.276-10.358c-3.018-6.2-5.657-12.669-6.733-19.481A17.337,17.337,0,0,1,767.418,599.882Z" transform="translate(-759.523 -586.949)"/><path class="t" d="M777.183,574.494a3.826,3.826,0,0,1,.722-1.916l-4.836,1.89a4.584,4.584,0,0,0-2.6,5.938h0l7.723-3.019A3.92,3.92,0,0,1,777.183,574.494Z" transform="translate(-767.898 -566.857)"/><path class="t" d="M869.579,818.44l-9.46,3.7h0a4.583,4.583,0,0,0,5.938,2.6l6.359-2.486q-.892-.966-1.76-1.952a4.072,4.072,0,0,1-1.055-1.731C869.592,818.527,869.585,818.484,869.579,818.44Z" transform="translate(-838.819 -760.671)"/><rect class="r" width="22.743" height="11.368" rx="5.684" transform="translate(10.002 27.704) rotate(-21.349)"/><path class="r" d="M861.195,717.867a.472.472,0,0,0-.612-.252,53.189,53.189,0,0,1-8.252,3.486c-.572.186-.211,1.049.359.863a53.166,53.166,0,0,0,8.252-3.486A.481.481,0,0,0,861.195,717.867Z" transform="translate(-832.452 -681.158)"/><path class="r" d="M906.825,709.633a.479.479,0,0,0-.656-.086l-1.125.752a.467.467,0,0,0-.086.656.479.479,0,0,0,.656.086l1.125-.752a.468.468,0,0,0,.086-.656Z" transform="translate(-874.09 -674.758)"/><path class="r" d="M875.177,728.33a.471.471,0,0,0-.611-.252,49.152,49.152,0,0,1-6.791,2.992c-.567.2-.207,1.064.36.864a49.14,49.14,0,0,0,6.791-2.993A.481.481,0,0,0,875.177,728.33Z" transform="translate(-844.629 -689.405)"/></g><g transform="translate(105.374 75.303)"><g transform="translate(0.559 1.421)"><path class="u" d="M1148.873,778.12q2.529,11.947,5.856,23.705l-5.365-.076-.2.633c-2.717-7.6-5.465-15.35-5.7-23.415Z" transform="translate(-1123.785 -769.102)"/><path class="u" d="M1068.693,782.232a39.557,39.557,0,0,1,6-4.436,114.292,114.292,0,0,1,12.72,21.295l-4.562,3.194A55.642,55.642,0,0,0,1068.693,782.232Z" transform="translate(-1064.847 -768.846)"/><path class="u" d="M1180.14,770.777a39.559,39.559,0,0,1,6.459-3.731,114.324,114.324,0,0,1,10.232,22.6l-4.894,2.658A55.637,55.637,0,0,0,1180.14,770.777Z" transform="translate(-1152.701 -760.372)"/><path class="u" d="M1050.526,839.566a1.352,1.352,0,0,1,.474-.942l2.9-3.2a190.155,190.155,0,0,0,17.145,13.711l-4.053,5.6a1.763,1.763,0,0,1-1.023-.462,98.221,98.221,0,0,1-15.047-13.986A1.335,1.335,0,0,1,1050.526,839.566Z" transform="translate(-1050.524 -814.276)"/><path class="u" d="M1074.372,797.592a1.335,1.335,0,0,1,.045-1.221,1.53,1.53,0,0,1,.91-.381,4.87,4.87,0,0,0,2.842-1.811c3.979,7.657,5.875,16.526,11.461,23.1l-5.21,2.115.455,1.15C1079.38,814.09,1076.772,805.726,1074.372,797.592Z" transform="translate(-1069.225 -781.761)"/><path class="u" d="M1224.152,738.136a1.334,1.334,0,0,1,.28-1.189,1.528,1.528,0,0,1,.966-.2,4.871,4.871,0,0,0,3.139-1.228c2.425,8.282,2.572,17.349,6.783,24.882l-5.52,1.069.224,1.216C1225.88,755.289,1224.936,746.579,1224.152,738.136Z" transform="translate(-1187.381 -735.52)"/></g><path class="v" d="M1071.86,799.509q8.237,9.014,15.857,18.568l3.063-4.405.633.2c-4.592-6.634-9.293-13.384-15.711-18.274Z" transform="translate(-1066.785 -781.461)"/><path class="v" d="M1047.886,837.243q9.741,7.364,18.973,15.371l2.21-4.889.659.085c-5.724-5.687-11.575-11.467-18.776-15.108Z" transform="translate(-1047.886 -810.707)"/><path class="v" d="M1113.954,761.928a39.567,39.567,0,0,0-7.1,2.289,114.3,114.3,0,0,0,9.9,22.743l5.254-1.848A55.642,55.642,0,0,1,1113.954,761.928Z" transform="translate(-1094.371 -754.916)"/><path class="v" d="M1160.492,763.411a1.352,1.352,0,0,0-1.043.153l-3.949,1.747a190.03,190.03,0,0,1,7.617,20.59l6.59-2.085a1.762,1.762,0,0,0-.116-1.116,98.229,98.229,0,0,0-8.538-18.684A1.333,1.333,0,0,0,1160.492,763.411Z" transform="translate(-1132.719 -756.04)"/><path class="v" d="M1236.9,755.611a1.352,1.352,0,0,0-1.013-.291l-4.319-.038a190.084,190.084,0,0,1-1.559,21.9l6.863.821a1.762,1.762,0,0,0,.355-1.065,98.215,98.215,0,0,0-.067-20.542A1.333,1.333,0,0,0,1236.9,755.611Z" transform="translate(-1191.457 -749.677)"/><path class="v" d="M1181.06,729.483c-.261-.335-.595-.7-1.019-.674a1.529,1.529,0,0,0-.84.517,4.87,4.87,0,0,1-3.128,1.256c3.906,7.695,10.011,14.4,12.1,22.774l4.754-3,.67,1.04C1191.552,743.163,1186.273,736.171,1181.06,729.483Z" transform="translate(-1148.936 -728.807)"/><path class="w" d="M1149.175,863.926c-10.913,8.311-21.809,13.982-32.689,16.79-6.782-7.5-12.081-15.215-15.143-23.238a79.476,79.476,0,0,1,37.168-19.091C1143.053,845.65,1146.482,854.322,1149.175,863.926Z" transform="translate(-1090.026 -815.189)"/><path class="x" d="M1112.274,886.291a38.4,38.4,0,0,0-6.2,2.743q-2.42,1.889-4.735,3.982c3.062,8.023,8.361,15.734,15.143,23.238a73.986,73.986,0,0,0,9.807-3.3,14.92,14.92,0,0,1-7.245-3.373,18.746,18.746,0,0,1-3.858-3.782,12.7,12.7,0,0,1-.961-13c1.956-3.773,5.659-6.259,8.595-9.333l-4.443,1.113C1116.33,885.1,1114.276,885.61,1112.274,886.291Z" transform="translate(-1090.026 -850.728)"/><path class="w" d="M1126.313,819.691a226.944,226.944,0,0,0-35.192,18.075,3.446,3.446,0,0,1-4.906-1.334l-.589-1.146a3.445,3.445,0,0,1,1.262-4.51,259.393,259.393,0,0,1,36.223-18.63,3.441,3.441,0,0,1,4.376,1.611l.6,1.168A3.446,3.446,0,0,1,1126.313,819.691Z" transform="translate(-1077.337 -794.298)"/><path class="x" d="M1111.439,880.422a27.158,27.158,0,0,0-7.605,1.949c-3.187,1.222-6.328,2.666-9.689,3.261-1.235.219-2.822.142-3.334-1a2.594,2.594,0,0,1,.106-1.928q.079-.213.17-.421-2.1,1.239-4.2,2.525a3.445,3.445,0,0,0-1.262,4.51l.589,1.147a3.446,3.446,0,0,0,4.906,1.334A227.061,227.061,0,0,1,1111.439,880.422Z" transform="translate(-1077.337 -848.326)"/></g><g transform="translate(117.971 160.279)"><path class="p" d="M1141.945,1236.514a63.069,63.069,0,0,1-31.269-5l2.456-47.251,41.737,6.677Z" transform="translate(-1109.981 -1172.819)"/><path class="t" d="M1113.132,1184.26l-2.456,47.251a65.5,65.5,0,0,0,12.958,4.066,84.83,84.83,0,0,1,2.4-35.044c.952-3.33,2.159-6.688,4.428-9.3a11.413,11.413,0,0,1,5.047-3.39Z" transform="translate(-1109.981 -1172.819)"/><path class="y" d="M1152.974,1139.818l-3.15-.5.013-.085a4.172,4.172,0,0,0-3.461-4.78l-26.143-4.183a4.173,4.173,0,0,0-4.78,3.461l-.014.085-3.15-.5a3.6,3.6,0,0,0-4.121,2.984l-.777,4.858,47.79,7.646.777-4.858A3.6,3.6,0,0,0,1152.974,1139.818Z" transform="translate(-1107.391 -1130.214)"/><path class="y" d="M1113.945,1263.395a127.278,127.278,0,0,0,34.268,5.3l5.851-20.632a152.4,152.4,0,0,0-38.985-6.469Z" transform="translate(-1112.557 -1218.015)"/><path class="s" d="M1129.535,1242.806q-7.109-.906-14.457-1.212l-.587,11.3-.546,10.5q5.748,1.671,11.483,2.832a84.289,84.289,0,0,1,3.179-20.5C1128.887,1244.751,1129.19,1243.77,1129.535,1242.806Z" transform="translate(-1112.557 -1218.015)"/><path class="s" d="M1128.068,1131.521l-7.836-1.254a4.173,4.173,0,0,0-4.78,3.461l-.014.085-3.15-.5a3.6,3.6,0,0,0-4.121,2.984l-.777,4.858,20.948,3.352A17.217,17.217,0,0,1,1128.068,1131.521Z" transform="translate(-1107.391 -1130.214)"/><path class="p" d="M1181.089,1291.464a4.8,4.8,0,0,1,2.775-3.363,10.792,10.792,0,0,1,4.419-.846,3.4,3.4,0,0,1,2.438.613,2.533,2.533,0,0,1,.712,1.62c.2,1.9-.9,3.707-2.182,5.126a4.673,4.673,0,0,1-1.609,1.27C1184.852,1297.034,1180.548,1294.756,1181.089,1291.464Z" transform="translate(-1165.451 -1254.007)"/></g><g transform="translate(31.113 136.527)"><path class="w" d="M801.734,1019.3a4.9,4.9,0,0,1,3.228,7.33c-8.815,14.679-18.518,29.176-32.723,38.526a7.062,7.062,0,0,1-7.306,1.121c-6.585-1.843-13.03-4.778-17.866-9.612-4.143-4.142-8.1-11.185-6.995-17.3.883-4.9,8.011-8.689,12.042-11.144a70.6,70.6,0,0,1,35.443-10.195A67.145,67.145,0,0,1,801.734,1019.3Z" transform="translate(-730.827 -1018.014)"/><g transform="translate(24.77 4.485)"><g transform="translate(0 6.699)"><path class="z" d="M817.571,1071.524a4.75,4.75,0,0,1,1.717-.659,2.809,2.809,0,0,1,2.934,3.9,4.385,4.385,0,0,1-1.644,1.793,9.67,9.67,0,0,1-2.428,1.193c-1.567.512-3.961.276-4.045-1.812C814.025,1073.981,816.071,1072.377,817.571,1071.524Z" transform="translate(-814.102 -1070.844)"/></g><path class="z" d="M875.739,1117.3a6.7,6.7,0,0,1,1.742-3.449,9.567,9.567,0,0,1,3.085-2.629,4.469,4.469,0,0,1,3.937-.106,4.1,4.1,0,0,1,1.969,2.55,6.124,6.124,0,0,1-.08,3.272,4.618,4.618,0,0,1-1.31,2.28,5.32,5.32,0,0,1-1.649.9C880.917,1121.06,875.311,1121.469,875.739,1117.3Z" transform="translate(-862.673 -1095.567)"/><path class="z" d="M900.174,1041.907a4.574,4.574,0,0,1,2.059.561,2.224,2.224,0,0,1,1.125,1.734,2.544,2.544,0,0,1-1.086,1.982,6.038,6.038,0,0,1-4.559,1.032c-1.731-.237-3.952-1.571-2.642-3.533C896.1,1042.138,898.46,1041.783,900.174,1041.907Z" transform="translate(-877.618 -1041.316)"/><path class="z" d="M986.363,1046.427c-1,.909-3.721,1.828-4.783.577-.812-.957-.263-3.125.54-3.969C984.419,1040.618,989.388,1043.677,986.363,1046.427Z" transform="translate(-945.81 -1041.532)"/><path class="aa" d="M829.065,1125.981a.71.71,0,0,0-.958.27l-.82,1.821a.724.724,0,0,0,.27.958.71.71,0,0,0,.958-.27l.82-1.821A.724.724,0,0,0,829.065,1125.981Z" transform="translate(-824.434 -1107.543)"/><path class="aa" d="M882.291,1081.151l-1.131-.817a.706.706,0,0,0-.959.27.725.725,0,0,0,.27.959l1.131.817a.706.706,0,0,0,.958-.27A.725.725,0,0,0,882.291,1081.151Z" transform="translate(-866.141 -1071.55)"/><path class="aa" d="M950.726,1105.9l-.526,1.823c-.251.872,1.114,1.219,1.364.35l.526-1.823C952.341,1105.379,950.977,1105.033,950.726,1105.9Z" transform="translate(-921.365 -1091.385)"/><path class="aa" d="M964.164,1039.22a.71.71,0,0,0-.857.507l-.266,1.676a.724.724,0,0,0,.507.857.71.71,0,0,0,.857-.507q.133-.838.266-1.677A.724.724,0,0,0,964.164,1039.22Z" transform="translate(-931.503 -1039.201)"/></g><path class="x" d="M797.639,1042.469c-4.992,5.7-8.952,12.307-14.462,17.508a19.689,19.689,0,0,1-6.268,4.254,18.788,18.788,0,0,1-10.743.343,22.415,22.415,0,0,1-7.895-3.217c-6.02-4.123-8.631-11.546-10.8-18.54-3.395,2.221-6.8,5.009-7.395,8.3-1.1,6.118,2.852,13.162,6.995,17.3,4.836,4.834,11.281,7.769,17.866,9.612a7.062,7.062,0,0,0,7.306-1.121c14.205-9.351,23.908-23.848,32.723-38.526a4.9,4.9,0,0,0-.271-5.459C803.254,1036.462,800.236,1039.5,797.639,1042.469Z" transform="translate(-730.827 -1029.768)"/><path class="w" d="M703.262,1081.356c4.262-2.49,7.632-1.3,9.246,3.1,2.292,6.255,4.395,13.377,9.909,17.624,3.4,2.616,8.474,3.152,12.419,4.574,4.164,1.5,8.749,4.227,7.893,9.3a7.538,7.538,0,0,1-1.844,3.615,13.822,13.822,0,0,1-10.181,4.356,25.181,25.181,0,0,1-10.979-2.7c-10.548-4.925-29.153-23.845-20.319-36.434A12.672,12.672,0,0,1,703.262,1081.356Z" transform="translate(-697.095 -1066.936)"/><g transform="translate(1.042 31.06)"><path class="x" d="M744.767,1176.929c-.015.121-.03.243-.051.367a7.5,7.5,0,0,1-1.873,3.616,14.148,14.148,0,0,1-10.34,4.359,25.875,25.875,0,0,1-11.147-2.7c-5.99-2.753-14.536-9.884-19.337-17.837,3.4,9.955,14.376,19.865,21.587,23.232a25.183,25.183,0,0,0,10.979,2.7,13.822,13.822,0,0,0,10.182-4.356,7.539,7.539,0,0,0,1.844-3.615A6.389,6.389,0,0,0,744.767,1176.929Z" transform="translate(-702.019 -1164.736)"/></g><g transform="translate(24.754 3.636)"><path class="ab" d="M817.5,1067.511a4.755,4.755,0,0,1,1.717-.659,2.809,2.809,0,0,1,2.934,3.9,4.381,4.381,0,0,1-1.644,1.793,9.654,9.654,0,0,1-2.428,1.193c-1.567.512-3.961.276-4.046-1.812C813.952,1069.968,816,1068.364,817.5,1067.511Z" transform="translate(-814.029 -1060.133)"/><path class="ab" d="M875.668,1113.284a6.7,6.7,0,0,1,1.742-3.449,9.559,9.559,0,0,1,3.085-2.628,4.467,4.467,0,0,1,3.937-.106,4.1,4.1,0,0,1,1.969,2.55,6.125,6.125,0,0,1-.08,3.272,4.62,4.62,0,0,1-1.31,2.279,5.325,5.325,0,0,1-1.649.9C880.845,1117.047,875.239,1117.456,875.668,1113.284Z" transform="translate(-862.601 -1091.554)"/><path class="ab" d="M900.1,1037.894a4.576,4.576,0,0,1,2.059.561,2.224,2.224,0,0,1,1.125,1.734,2.544,2.544,0,0,1-1.086,1.982,6.037,6.037,0,0,1-4.56,1.032c-1.731-.236-3.952-1.571-2.642-3.533C896.031,1038.125,898.389,1037.77,900.1,1037.894Z" transform="translate(-877.547 -1037.303)"/><path class="ab" d="M986.292,1042.414c-1,.909-3.721,1.828-4.783.577-.812-.957-.263-3.126.54-3.969C984.347,1036.6,989.317,1039.665,986.292,1042.414Z" transform="translate(-945.738 -1037.519)"/><path class="s" d="M828.994,1121.968a.71.71,0,0,0-.959.27l-.82,1.821a.724.724,0,0,0,.27.959.71.71,0,0,0,.958-.27l.82-1.822A.724.724,0,0,0,828.994,1121.968Z" transform="translate(-824.362 -1103.531)"/><path class="s" d="M882.22,1077.138l-1.131-.817a.706.706,0,0,0-.958.27.725.725,0,0,0,.27.959l1.131.817a.706.706,0,0,0,.959-.27A.725.725,0,0,0,882.22,1077.138Z" transform="translate(-866.07 -1067.537)"/><path class="s" d="M950.654,1101.889l-.526,1.823c-.251.873,1.113,1.219,1.364.35l.526-1.823C952.27,1101.366,950.9,1101.02,950.654,1101.889Z" transform="translate(-921.293 -1087.372)"/><path class="s" d="M964.093,1035.208a.71.71,0,0,0-.857.507l-.266,1.676a.724.724,0,0,0,.507.857.71.71,0,0,0,.857-.507l.266-1.676A.724.724,0,0,0,964.093,1035.208Z" transform="translate(-931.431 -1035.189)"/></g></g><g transform="translate(33.25 38.809)"><path class="p" d="M1051.606,1235.95a1.169,1.169,0,0,0-1.653,0,1.215,1.215,0,0,0-.342.826v.523a1.206,1.206,0,0,0,.342.827,1.169,1.169,0,0,0,1.653,0,1.215,1.215,0,0,0,.342-.827v-.523A1.206,1.206,0,0,0,1051.606,1235.95Z" transform="translate(-977.121 -1091.826)"/><g transform="translate(19.053 80.937)"><path class="p" d="M798.32,938.747a1.17,1.17,0,0,0,0,2.338A1.17,1.17,0,0,0,798.32,938.747Z" transform="translate(-797.191 -938.747)"/><path class="p" d="M820.763,942.538a1.2,1.2,0,0,0-1.068-.718,1.182,1.182,0,0,0-.827.342,1.215,1.215,0,0,0-.342.826v.326a1.2,1.2,0,0,0,1.169,1.169,1.181,1.181,0,0,0,.826-.342,1.214,1.214,0,0,0,.342-.826v-.326A.88.88,0,0,0,820.763,942.538Z" transform="translate(-814.009 -941.168)"/></g><path class="p" d="M1147.379,605.517a.876.876,0,0,0-.242-.376,1.176,1.176,0,0,0-.826-.342,1.217,1.217,0,0,0-.827.342l-.326.325a1.2,1.2,0,0,0,0,1.653,1.176,1.176,0,0,0,.827.342,1.218,1.218,0,0,0,.827-.342l.325-.326a1.129,1.129,0,0,0,.242-1.277Z" transform="translate(-1052.172 -594.556)"/><path class="p" d="M1268.462,1070.837a1.17,1.17,0,0,0,0,2.338A1.17,1.17,0,0,0,1268.462,1070.837Z" transform="translate(-1148.753 -961.937)"/><path class="p" d="M771.351,1384.813a1.2,1.2,0,0,0-1.068-.718,1.18,1.18,0,0,0-.826.342,1.215,1.215,0,0,0-.342.827v.34a1.2,1.2,0,0,0,1.169,1.169,1.182,1.182,0,0,0,.826-.342,1.214,1.214,0,0,0,.342-.827v-.34A.878.878,0,0,0,771.351,1384.813Z" transform="translate(-756.004 -1208.879)"/><path class="p" d="M709.182,556.761a1.169,1.169,0,0,0-1.653,0,1.215,1.215,0,0,0-.342.827v.449a1.206,1.206,0,0,0,.342.826,1.169,1.169,0,0,0,1.653,0,1.214,1.214,0,0,0,.342-.826v-.449A1.206,1.206,0,0,0,709.182,556.761Z" transform="translate(-707.187 -556.418)"/><path class="p" d="M1329.342,1412.046a1.175,1.175,0,0,0-.827-.342,1.217,1.217,0,0,0-.826.342l-.449.449a1.206,1.206,0,0,0-.342.827,1.19,1.19,0,0,0,.342.827,1.176,1.176,0,0,0,.827.342,1.22,1.22,0,0,0,.826-.342l.449-.449a1.205,1.205,0,0,0,.342-.827A1.189,1.189,0,0,0,1329.342,1412.046Z" transform="translate(-1195.707 -1230.643)"/></g></g><path class="ac" d="M1470.547,491.752c-.8-2.479-3.13-4.613-5.732-4.463-2.905.167-4.921,2.863-6.512,5.3-2.555,3.913-5.332,7.756-7.667,11.8-1.365,2.366-2.9,5.531-2.226,8.346,2.049,8.584,13.1,1.714,16.142-2.2a33.225,33.225,0,0,0,5.652-11.1A13.235,13.235,0,0,0,1470.547,491.752Z" transform="translate(-1201.334 -433.056)"/><g transform="translate(0 154.662)"><path class="ad" d="M663.722,1272.749a6.159,6.159,0,0,0-4.125,4.376.819.819,0,0,0,1.578.435,4.487,4.487,0,0,1,2.982-3.233C665.155,1274.006,664.728,1272.425,663.722,1272.749Z" transform="translate(-579.617 -1206.872)"/><path class="ae" d="M449.014,1184.724a18.116,18.116,0,0,1-2.752,6.366c-2.683,3.634-7,4.2-11.227,4.2-8.109,0-16.811-1.347-22.7-6.92-.731-.692-2.438-2.949-3.326-3.422-.775-.413-1.721.01-2.482.24-4.321,1.309-12.479.33-14-4.856-.9-3.057,1.214-7.3,4.019-8.709,2.715-1.363,5.962-.218,8.773.935-2.5-7.745-4.992-16.08-2.655-23.875,2-6.662,7.46-11.994,13.89-14.643a23.572,23.572,0,0,1,14.773-1.262c15.293,3.982,19.588,24.44,19.472,37.98a58.73,58.73,0,0,1-1.1,10.869C449.493,1182.645,449.277,1183.688,449.014,1184.724Z" transform="translate(-368.938 -1096.044)"/><path class="ad" d="M513.269,1234.792a4.653,4.653,0,0,0-5.3.485c-1.722,1.323-2.54,3.371-3.3,5.336a.721.721,0,0,0,.746.983.689.689,0,0,0,.695.117,32.853,32.853,0,0,0,6.431-3.019c.739-.455,1.788-.965,1.865-1.951A2.23,2.23,0,0,0,513.269,1234.792Z" transform="translate(-457.463 -1176.491)"/><path class="ad" d="M614.163,1208.905a3.847,3.847,0,0,0-2.6-1.089c-2.079.062-3.023,2.115-3.057,3.93a.777.777,0,0,0,.971.774.917.917,0,0,0,.438.046l2.61-.351a10.91,10.91,0,0,0,2.43-.385.874.874,0,0,0,.6-.789C615.658,1210.212,614.727,1209.4,614.163,1208.905Z" transform="translate(-539.363 -1155.719)"/><path class="ad" d="M547.2,1289.046c-.34-1.014-1.077-2.052-2.3-1.65a.785.785,0,0,0-.554.659.687.687,0,0,0-.174.323,4.014,4.014,0,0,0,.533,3.078c.51.768,1.617,1.659,2.5.829C547.989,1291.549,547.488,1289.894,547.2,1289.046Z" transform="translate(-488.577 -1218.383)"/><path class="ad" d="M628.347,1265.326c-.064-1.286-.724-2.68-1.852-2.669-1.462.014-1.479,2.024-1.193,3.025s1.481,2.59,2.566,1.442A2.506,2.506,0,0,0,628.347,1265.326Z" transform="translate(-552.489 -1198.95)"/><path class="ad" d="M595.921,1272.877a30.3,30.3,0,0,1-4.089-11.43c-.151-1.038-1.727-.6-1.578.435a31.443,31.443,0,0,0,4.254,11.82A.819.819,0,0,0,595.921,1272.877Z" transform="translate(-524.967 -1197.53)"/><path class="af" d="M361.751,968.155a16.22,16.22,0,0,0-4.452-4.026,20.6,20.6,0,0,0-8.814-2.267,22.035,22.035,0,0,0-9.331.818c-2.955,1.081-5.847,6.86-6.27,6.521.239-1.1-11.3-2.581-12.4-2.626-22.308-.905-39.281,19.9-38.421,41.3.07,1.747.265,15.856,2.868,15.589a4.2,4.2,0,0,0-1.789.609,2.442,2.442,0,0,0-1.24,1.666,2.769,2.769,0,0,0,1.654,2.422,10.189,10.189,0,0,0,1.886.854,4.571,4.571,0,0,0-2.541,5.189.99.99,0,0,0,.3.562,1.115,1.115,0,0,0,.754.142l7.922-.4a11.073,11.073,0,0,0,5.639,7.689,23.484,23.484,0,0,0,7.76,2.6,8.6,8.6,0,0,1,4.22-7.49c2.473-1.242,5.388-.4,8.012.629a2.3,2.3,0,0,0,2.649.99,3.323,3.323,0,0,0,2.08-2.527,6.712,6.712,0,0,0-.321-3.377,14.091,14.091,0,0,0-2.606-4.759,10.056,10.056,0,0,0,5.384-7.647,14.736,14.736,0,0,0-2.024-9.346c2.928,1,5.952,1.989,9.038,1.8a7.083,7.083,0,0,0,4.474-1.693,3.929,3.929,0,0,0,1.006-4.443c3.773,3.362,9.529,3.276,14.4,1.921a16.07,16.07,0,0,0,4.467-1.913,32.39,32.39,0,0,1,2.9,5.022A25.108,25.108,0,0,0,363,1007.4a27.019,27.019,0,0,0,3.51-9.182C368.776,987.976,368.265,976.38,361.751,968.155Z" transform="translate(-281.89 -961.722)"/><g transform="translate(0 0.902)"><path class="ag" d="M298.178,1190.023c.113.059.228.118.342.175l.2.095q.161.077.324.151l.2.092c.111.049.223.1.334.142l.194.08c.14.057.281.111.422.164l.209.078c.137.05.274.1.412.146.082.028.164.054.246.081l.288.093.276.085.258.076.3.084.231.062c.108.029.215.058.323.086l.132.032q.659.165,1.326.3l.1.02.437.087.083.016.467.087a8.6,8.6,0,0,1,4.22-7.49c2.473-1.242,5.388-.4,8.012.629a2.3,2.3,0,0,0,2.649.99,3.323,3.323,0,0,0,2.08-2.527,6.712,6.712,0,0,0-.321-3.377,14.089,14.089,0,0,0-2.606-4.759,10.056,10.056,0,0,0,5.384-7.647,13.219,13.219,0,0,0-.378-5.415c-.033.045-.066.09-.1.134-.18.252-.368.5-.561.735q-.073.091-.146.18c-.192.232-.389.46-.593.68l-.011.012c-.209.224-.425.44-.646.653l-.164.155c-.217.2-.438.4-.665.594l-.018.016c-.235.2-.477.387-.723.571l-.173.129c-.241.177-.486.35-.736.515l-.018.012c-.26.171-.525.333-.793.49l-.174.1c-.264.151-.531.3-.8.437l-.013.007c-.281.143-.567.278-.856.408l-.169.075c-.285.125-.573.246-.864.357l0,0c-.3.115-.6.221-.909.322l-.158.051q-.917.295-1.862.505l-.148.032q-.952.2-1.922.323l-.14.016c-.321.037-.642.068-.964.091a21.145,21.145,0,0,1-5.65-.358c-7.3-1.477-13.559-6.464-17.759-12.611a33.908,33.908,0,0,1-4.225-8.51h0q-.194,1.526-.27,3.07c0,.088-.009.176-.013.264-.008.177-.013.354-.018.531q-.006.212-.01.425t-.006.447c0,.184,0,.369,0,.554,0,.115,0,.231,0,.346.005.305.013.611.025.916.07,1.747.265,15.856,2.868,15.589a4.2,4.2,0,0,0-1.789.609,2.442,2.442,0,0,0-1.24,1.666,2.769,2.769,0,0,0,1.654,2.422,10.2,10.2,0,0,0,1.886.854,4.571,4.571,0,0,0-2.541,5.189.989.989,0,0,0,.3.561,1.113,1.113,0,0,0,.754.143l7.922-.4a11.073,11.073,0,0,0,5.639,7.689c.164.1.33.189.5.279Z" transform="translate(-281.89 -1110.087)"/></g><path class="ad" d="M426.438,1347.76a8.956,8.956,0,0,0-6.957-2.365c-1.039.1-1.049,1.739,0,1.636a7.361,7.361,0,0,1,5.8,1.885C426.057,1349.626,427.218,1348.472,426.438,1347.76Z" transform="translate(-389.737 -1264.14)"/><path class="ad" d="M0,5.85C5.276,6.426,8.71,0,8.71,0s3.528,7.12.162,8.745S0,5.85,0,5.85Z" transform="translate(66.501 79.505) rotate(16)"/></g><path class="ah" d="M971.512,1309.046a11.864,11.864,0,0,0-.754-3.426,1.755,1.755,0,0,0-.629-.921,1.886,1.886,0,0,0-1.65.115,67.623,67.623,0,0,0-15.577,8.808,1.576,1.576,0,0,1-1.046.444,2.447,2.447,0,0,1-.89-.44c-1.585-.9-3.462.5-4.685,1.855a63.489,63.489,0,0,0-4.536,5.624l4.925,18.259-1.1.808a107.131,107.131,0,0,0,12.706-3.438,4.612,4.612,0,0,0,3.744-3.989c1.567-5.456,2.678-11.42.614-16.708A38.925,38.925,0,0,0,971.512,1309.046Z" transform="translate(-802.057 -1077.311)"/><path class="ah" d="M897.326,609.252a11.856,11.856,0,0,1-.618-3.453,1.753,1.753,0,0,1,.228-1.092,1.887,1.887,0,0,1,1.568-.528,67.638,67.638,0,0,1,17.764,2.157,1.577,1.577,0,0,0,1.136.009,2.446,2.446,0,0,0,.653-.748c1.118-1.439,3.391-.863,5.039-.085,2.179,1.029,6.343,2.971,8.391,4.241l.414,17.963,1.323.326a107.094,107.094,0,0,1-13.053,1.7,4.611,4.611,0,0,1-4.988-2.247c-3.541-4.437-6.855-9.518-6.978-15.194A38.925,38.925,0,0,1,897.326,609.252Z" transform="translate(-766.552 -525.204)"/><path class="ai" d="M321.087,1433.405a25.724,25.724,0,0,0,14.578,14.043,156.492,156.492,0,0,0,25.07,7.241c10.39,2.08,20.721,2.936,31.037-.019a88.385,88.385,0,0,0,19.289-8.53,103.7,103.7,0,0,0,23.846-18.022c7.456-7.806,13.23-17.425,19.2-26.375q1.505-2.258,3-4.527a3.637,3.637,0,0,0,.569-3.9l-5.942-20.829c-.385-1.35-5.859,1.472-6.5,1.777a32.559,32.559,0,0,0-8.077,5.453c-4.48,4.052-8.41,8.707-13.188,12.429a114.359,114.359,0,0,1-15.911,10.577c-3.649,1.971-7.36,3.965-11.412,4.846-10.091,2.192-20.093-2.839-28.875-7.224-5.235-2.614-10.53-5.25-16.228-6.582-6.4-1.5-13.076-1.047-18.86,2.246C319.969,1403.246,315.34,1420.281,321.087,1433.405Z" transform="translate(-310.867 -1130.58)"/><path class="aj" d="M459.9,1471.535l-.053-.186c-10.61,7.669-17.122,19.931-26.483,29.2-11.407,11.3-26.942,17.866-42.82,20.232s-32.133.752-47.825-2.635c-4.588-.99-9.21-2.157-13.3-4.466a19.68,19.68,0,0,1-7.945-7.913,28.742,28.742,0,0,0,1.841,5.859,25.722,25.722,0,0,0,14.578,14.043,156.492,156.492,0,0,0,25.07,7.241c10.39,2.08,20.721,2.935,31.037-.02a88.391,88.391,0,0,0,19.289-8.53,103.7,103.7,0,0,0,23.846-18.022c7.456-7.806,13.23-17.425,19.2-26.375q1.505-2.258,3-4.527a3.637,3.637,0,0,0,.569-3.9Z" transform="translate(-313.095 -1208.801)"/><path class="ak" d="M1029.227,1358.817c-.416.13-3.01,1.5-3.01,1.5l3.811,1.314A15.879,15.879,0,0,0,1029.227,1358.817Z" transform="translate(-868.647 -1120.092)"/><path class="ah" d="M1430.507,390.526a29.408,29.408,0,0,1-1.232,6.34c-.671-.367-1.333-.755-1.987-1.145a37.678,37.678,0,0,1-7.775-5.758c-4.5-4.594-6.756-10.88-8.673-17.014a48.284,48.284,0,0,0-3.563-9.288q-.333-.6-.708-1.169l7.2.1c1.414-.926,3.285-.009,4.633,1.008A31.205,31.205,0,0,1,1430.507,390.526Z" transform="translate(-1168.48 -334.459)"/><g transform="translate(188.861 0)"><path class="ag" d="M1325,322.205c-1.485-1.956-3.958-2.863-6.34-3.462l-5.152-.06a2.843,2.843,0,0,0-2.562-1.629,6.705,6.705,0,0,0-3.082.8,22.547,22.547,0,0,0-9.853,9,7.5,7.5,0,0,0-1.293,4.563,5.828,5.828,0,0,0,3.169,4.2,13.414,13.414,0,0,0,5.273,1.307,40.082,40.082,0,0,0,8.115-.145c3.768-.452,7.657-1.546,10.336-4.233S1327.29,325.228,1325,322.205Z" transform="translate(-1270.715 -298.862)"/><path class="ae" d="M1339.083,359.73c-1.349-1.016-3.22-1.932-4.633-1.007l-7.879-.107c-9.872-4.591-21.253,3.5-20.6,14.226a32.543,32.543,0,0,0,2.218,9.043,146.257,146.257,0,0,0,6.412,15.636,56.138,56.138,0,0,0,4.344,7.352c1.522,2.145,3.288,4.645,5.651,5.912a10.522,10.522,0,0,0,3.4,1.1c2.668.4,5.923.267,8.261-1.185a31.915,31.915,0,0,0,14.927-24.042A31.209,31.209,0,0,0,1339.083,359.73Z" transform="translate(-1278.021 -330.592)"/><path class="ad" d="M1320.157,417.38a3.755,3.755,0,0,0-4.271-1.768c-1.921.577-2.636,2.337-2.92,4.165-.088.568.355,1.223,1.007,1.006l5.569-1.852a.8.8,0,0,0,.573-.684A.724.724,0,0,0,1320.157,417.38Z" transform="translate(-1283.545 -376.44)"/><path class="ad" d="M1381.294,473.341c-2.089.572-2.5-4.014-2.809-5.293l-1.51-6.294a.819.819,0,0,0-1.594.369q1.068,4.449,2.135,8.9c.48,1.986,1.6,4.611,4.148,3.914C1382.676,474.658,1382.312,473.062,1381.294,473.341Z" transform="translate(-1332.734 -412.453)"/><path class="ad" d="M1339.651,474.714a5.923,5.923,0,0,0-1.054-2.374,1.468,1.468,0,0,0-1.637-.376.964.964,0,0,0-.34.007,1.586,1.586,0,0,1-1.059-.16.836.836,0,0,0-1.119.293.827.827,0,0,0,.293,1.119,3.362,3.362,0,0,0,1.853.387,3.121,3.121,0,0,0,.019.909,2.951,2.951,0,0,1-1.146-.232.824.824,0,0,0-1.006.572.838.838,0,0,0,.572,1.006,4.169,4.169,0,0,0,2.1.245,3.262,3.262,0,0,0,.494.752,1.373,1.373,0,0,0,1.912.136C1340.161,476.383,1339.866,475.445,1339.651,474.714Z" transform="translate(-1300.397 -420.78)"/><path class="ad" d="M1334.594,474.714a5.922,5.922,0,0,1,1.054-2.374,1.468,1.468,0,0,1,1.637-.376.965.965,0,0,1,.34.007,1.586,1.586,0,0,0,1.059-.16.836.836,0,0,1,1.12.293.827.827,0,0,1-.293,1.119,3.362,3.362,0,0,1-1.853.387,3.117,3.117,0,0,1-.02.909,2.952,2.952,0,0,0,1.146-.232.824.824,0,0,1,1.007.572.838.838,0,0,1-.572,1.006,4.169,4.169,0,0,1-2.1.245,3.261,3.261,0,0,1-.494.752,1.373,1.373,0,0,1-1.912.136C1334.084,476.383,1334.379,475.445,1334.594,474.714Z" transform="translate(-1285.718 -424.413)"/><path class="ad" d="M1403.628,393.464a5.864,5.864,0,0,0-5.318-.787,4.58,4.58,0,0,0-2.9,4.393.767.767,0,0,0,1.063.744,1.05,1.05,0,0,0,.479.05l4.147-.577a22.01,22.01,0,0,0,3.772-.534C1406.974,396.055,1404.474,394.029,1403.628,393.464Z" transform="translate(-1348.547 -358.218)"/><path class="af" d="M1284.111,262.534a52.088,52.088,0,0,1-6,17.69c-2.772,4.982-6.457,9.582-11.289,12.607s-10.915,4.329-16.371,2.677a23.519,23.519,0,0,1-4.491-1.968c-.671-.367-1.332-.755-1.987-1.145a37.671,37.671,0,0,1-7.775-5.758c-4.5-4.594-6.756-10.88-8.673-17.014a48.259,48.259,0,0,0-3.563-9.288q-.333-.6-.708-1.169a13.874,13.874,0,0,0-6.4-5.526c-3.1-1.2-6.957-.732-9.25,1.672-1.807,1.9-2.412,4.622-2.712,7.221-.056.493-.105.991-.138,1.489a14.272,14.272,0,0,0-2.77,9.36,32.461,32.461,0,0,0,2.219,9.042,146.209,146.209,0,0,0,6.412,15.637,56.139,56.139,0,0,0,4.343,7.352c.323.453.657.923,1.005,1.4a26.972,26.972,0,0,1-6.845,1.891,41.74,41.74,0,0,1-11.73-.355c-5.262-.778-10.569-2.081-15.03-4.979s-7.983-7.628-8.329-12.937a28.414,28.414,0,0,0,9.828-9.683c3.773-5.891,5.084-13.026,8.29-19.244a7.461,7.461,0,0,1,1.865-2.543c1.555-1.23,3.722-1.2,5.7-1.12-1.655-8.834,2.943-17.408,10.265-22.305,6.426-4.3,14.808-5.193,22.277-3.777,8.015,1.52,14.3,5.894,19.966,11.6,4.556,4.589,8.715,9.629,13.872,13.531S1277.717,263.5,1284.111,262.534Z" transform="translate(-1174.027 -231.133)"/><path class="ad" d="M0,4.178C5.339,5.339,10.1,0,10.1,0s3.366,6.151,0,7.776S0,4.178,0,4.178Z" transform="translate(46.136 63.076) rotate(16)"/></g><path class="ac" d="M1144.49,634.891c-4.182-7.179-10.873-12.659-19.947-11.1-10.727,1.837-17.888,12.139-27.864,16.489-10.4,4.536-22.52,2.045-33.106-2.048s-20.722-9.754-31.917-11.619c-4.059-.676-8.211-.842-12.2-1.871a5.728,5.728,0,0,0-2.4-.3,5.012,5.012,0,0,0-2.863,2.268,52.394,52.394,0,0,0-7.936,15.683c-.5,1.614-.738,3.75.7,4.637.983.607,2.323.282,3.334.841.954.528,1.342,1.666,1.872,2.618,1.784,3.2,5.528,4.624,8.65,6.543,7.222,4.439,13.64,10.639,19.448,16.578,9.646,9.864,20.265,17.509,33.757,20.1,21.77,4.175,52.8,1.061,68.182-16.9,7.983-9.321,9.336-22.391,5.777-33.884A38.975,38.975,0,0,0,1144.49,634.891Z" transform="translate(-852.613 -540.455)"/><path class="al" d="M1018.829,633.78a28.549,28.549,0,0,1,3.307-5.223c-.9-.158-1.791-.342-2.675-.571a5.727,5.727,0,0,0-2.4-.3,5.012,5.012,0,0,0-2.863,2.267,52.4,52.4,0,0,0-7.936,15.683c-.5,1.614-.738,3.75.7,4.637.983.607,2.323.282,3.334.841l.033.02a30.4,30.4,0,0,1,2.071-4.884Q1015.53,639.972,1018.829,633.78Z" transform="translate(-852.613 -543.703)"/><path class="h" d="M1074.672,760.917a58.169,58.169,0,0,1-12.167-3.655c-8.733-3.971-15.419-11.4-23.743-16.169-7.7-4.413-16.855-6.59-23.24-12.758l-4.037,1.369c.973.528,2.256.245,3.233.786.954.528,1.342,1.666,1.872,2.618,1.784,3.2,5.528,4.624,8.65,6.543,7.222,4.439,13.64,10.639,19.448,16.578,9.646,9.864,20.265,17.509,33.757,20.1,21.77,4.175,52.8,1.061,68.182-16.9a30.337,30.337,0,0,0,3.53-5.109c-6.1,5.266-14.4,7.535-22.448,8.77C1110.125,765.788,1092.08,764.585,1074.672,760.917Z" transform="translate(-857.033 -623.079)"/><path class="al" d="M1258.711,759.258c1.754,1.77,1.5,4.711,2.738,6.874.315.551.9,1.105,1.5.9.726-.251.694-1.266.61-2.029a10.032,10.032,0,0,1,1.176-5.9c.22-.4.562-.834,1.016-.8a1.1,1.1,0,0,1,.638.356,5.6,5.6,0,0,1,1.486,4.017,24.145,24.145,0,0,1-.589,4.353,35.441,35.441,0,0,0-.537,5.922c-.03,4.688-5.735.729-7.083-1.183a12.634,12.634,0,0,1-2.3-5.9C1257.3,765.175,1258.494,759.039,1258.711,759.258Z" transform="translate(-1050.863 -646.702)"/><path class="am" d="M601.214,1593.773a21.8,21.8,0,0,1-.346-18.041l1.712,7c.2.827.631,1.84,1.481,1.829s1.249-1.026,1.435-1.851l.794-3.531c.228-1.015.845-2.3,1.863-2.086s1.061,1.657.821,2.675c-1.331,5.656-3.556,11.51-1.973,17.1a.87.87,0,0,1,.02.637.7.7,0,0,1-.29.261C604.539,1599,602,1595.38,601.214,1593.773Z" transform="translate(-531.935 -1291.087)"/><path class="an" d="M1455.206,669.187c2.758-.856,6.278-1.077,8.022,1.225a5.309,5.309,0,0,1,.12,5.6,12.328,12.328,0,0,1-4.157,4.124c-10.09,6.834-24.5,9.614-36.554,8.873C1434.822,684.817,1442.7,673.07,1455.206,669.187Z" transform="translate(-1181.146 -575.978)"/><path class="ao" d="M409.905,1507.833c6.5,2.62,12.833,5.855,19.7,7.293a6.9,6.9,0,0,1-4.553,2.589c-5.6,1.08-11.216-1.3-16.575-3.263q-4.511-1.653-9.142-2.953c-1.708-.479-5.818-.476-5.037-2.722.573-1.65,4.329-2.653,5.8-2.875C403.461,1505.39,406.826,1506.593,409.905,1507.833Z" transform="translate(-370.421 -1235.944)"/></g></g></g></svg>