<svg xmlns="http://www.w3.org/2000/svg" xmlns:xlink="http://www.w3.org/1999/xlink" width="335" height="329.868" viewBox="0 0 335 329.868"><defs><style>.a,.j{fill:#f6f6f9;}.a,.b{opacity:0.26;}.b{fill:#e9e9f7;}.c,.d,.f{fill:#fff;}.c{opacity:0.11;}.d{opacity:0.25;}.e{opacity:0.09;fill:url(#a);}.g{fill:#214675;}.h{fill:#4a6c8f;}.h,.o,.r{opacity:0.3;}.h,.o,.r,.t{mix-blend-mode:multiply;isolation:isolate;}.i{fill:#1a1615;}.k{fill:url(#b);}.l{fill:url(#c);}.m{fill:url(#d);}.n{fill:url(#e);}.o{fill:url(#f);}.p{stroke:rgba(0,0,0,0);}.p,.u{fill:url(#g);}.q{fill:url(#h);}.s{fill:url(#k);}.v{fill:#222;font-size:15px;font-family:Yellix-Bold, Yellix;font-weight:700;}.w{fill:#23cbd8;}</style><linearGradient id="a" x1="0.378" y1="0.388" x2="0.5" y2="1" gradientUnits="objectBoundingBox"><stop offset="0" stop-color="#fff"/><stop offset="1" stop-color="#5274eb"/></linearGradient><linearGradient id="b" y1="0.5" x2="1" y2="0.5" gradientUnits="objectBoundingBox"><stop offset="0"/><stop offset="1"/></linearGradient><linearGradient id="c" x1="-0.372" y1="-0.356" x2="0.347" y2="0.326" gradientUnits="objectBoundingBox"><stop offset="0" stop-color="#aa80f9"/><stop offset="0.996" stop-color="#6165d7"/></linearGradient><linearGradient id="d" x1="0.879" y1="0.041" x2="-0.08" y2="1.169" xlink:href="#c"/><linearGradient id="e" x1="0.572" y1="-7.393" x2="0.485" y2="2.024" gradientUnits="objectBoundingBox"><stop offset="0.004" stop-color="#e38ddd"/><stop offset="1" stop-color="#9571f6"/></linearGradient><linearGradient id="f" x1="0.934" y1="0.071" x2="-0.244" y2="1.233" xlink:href="#e"/><linearGradient id="g" x1="0.388" y1="0.531" x2="1.791" y2="0.182" gradientUnits="objectBoundingBox"><stop offset="0" stop-color="#23cbd8"/><stop offset="0.314" stop-color="#49f2ff"/><stop offset="0.887" stop-color="#0c838c"/><stop offset="1" stop-color="#56f3e3"/></linearGradient><linearGradient id="h" x1="0.275" y1="0.504" x2="2.549" y2="0.432" gradientUnits="objectBoundingBox"><stop offset="0" stop-color="#23cbd8"/><stop offset="0.314" stop-color="#0b8c96"/><stop offset="0.996" stop-color="#23cbd8"/><stop offset="1" stop-color="#f36f56"/></linearGradient><linearGradient id="k" x1="1.054" y1="-0.596" x2="0.38" y2="1.034" gradientUnits="objectBoundingBox"><stop offset="0" stop-color="#ffc444"/><stop offset="0.314" stop-color="#fba94a"/><stop offset="0.996" stop-color="#f36f56"/></linearGradient></defs><g transform="translate(0 -26.633)"><path class="a" d="M198.963,279.392a234.333,234.333,0,0,0,30.887-4.523c9.9-2.168,17.643-5.733,24-8.184,18.927-7.3,33.047,15.478,6.984,27.1-24.643,10.989-62.14,1.829-71.333-5.2S198.963,279.392,198.963,279.392Z" transform="translate(32.085 40.34)"/><circle class="b" cx="10.662" cy="10.662" r="10.662" transform="translate(186.277 323.373)"/><path class="a" d="M117.948,237.808c-5.565,19.328-16.4,29.87-27.089,27.528-8.1-1.776-22.9-10.632-7.38-43.724s13.31-52.035,20.677-57.825c6-4.711,16.313,2.887,18.475,23.067C124.544,204.68,120.557,228.743,117.948,237.808Z" transform="translate(-50.909 -37.461)"/><ellipse class="b" cx="15.521" cy="15.521" rx="15.521" ry="15.521" transform="translate(274.468 104.795)"/><ellipse class="b" cx="5.19" cy="5.19" rx="5.19" ry="5.19" transform="translate(34.824 239.198)"/><path class="c" d="M721.61,648.4c-28.8,67.322-104.83,96.238-164.4,91.307-16.265-1.346-48.99-4.054-74.542-28.218-49.071-46.405-41.513-143.4,5.461-200.511,6.049-7.354,47.922-56.627,113.174-55.968,47.774.483,81.3,27.47,85.382,30.832a131.518,131.518,0,0,1,26.75,30.351C737.493,553.809,739.608,606.328,721.61,648.4Z" transform="translate(-449.218 -398.713)"/><path class="d" d="M710.849,640.756c-27.664,64.662-100.688,92.435-157.9,87.7-15.622-1.293-47.054-3.894-71.6-27.1-47.132-44.572-39.873-137.738,5.246-192.589,5.811-7.064,46.029-54.39,108.7-53.757,45.886.464,78.093,26.385,82.009,29.614A126.308,126.308,0,0,1,703,513.771C726.1,549.9,728.136,600.349,710.849,640.756Z" transform="translate(-387.298 -382.208)"/><path class="e" d="M692.588,627.791c-25.734,60.149-93.661,85.984-146.883,81.579-14.532-1.2-43.77-3.622-66.6-25.212-43.842-41.461-37.09-128.125,4.879-179.148,5.4-6.571,42.817-50.594,101.115-50,42.683.432,72.642,24.543,76.285,27.547a117.506,117.506,0,0,1,23.9,27.117C706.779,543.281,708.668,590.2,692.588,627.791Z" transform="translate(-395.064 -353.348)"/><g transform="translate(95.261 26.633)"><g transform="matrix(0.999, 0.052, -0.052, 0.999, 116.612, 179.549)"><g transform="translate(0 0)"><path class="f" d="M0,114.436s27.227-6.86,32.675-13.789.414-9.8.414-9.8S53.846,78.74,54.858,72.023c.529-3.516-1.109-5.222-2.787-6.05a8.105,8.105,0,0,0-3.1-.776s12.434-9.486,16.651-18.8-6.516-10.8-6.516-10.8S74.415,2.641,60.741.182,41.735,20.871,41.735,20.871s-8.871-8.906-13.611,3.545c-.431,1.138-.885,2.436-1.339,3.855C22.183,42.388,16.466,68.53,16.466,68.53S5.389,69.288,7.687,89.4c0,0-5.987-2.045-6.286,3.3S0,114.436,0,114.436Z"/><path class="g" d="M.014,79.232C-.749,80.068,29.07,28.7,42.694,0,42.694,0,20.769,56.49.014,79.232Z" transform="translate(9.549 22.279)"/><path class="h" d="M0,86.164S27.227,79.3,32.675,72.375s.414-9.8.414-9.8S53.846,50.469,54.858,43.752c.529-3.516-1.109-5.222-2.787-6.05-18.73,8.9-23.562-11.623-19.609-23.82C35.927,3.177,33.1,3.04,26.785,0c-4.6,14.116-10.319,40.259-10.319,40.259s-11.077.758-8.779,20.867c0,0-5.987-2.045-6.286,3.3S0,86.164,0,86.164Z" transform="translate(0 28.272)"/></g><g transform="translate(4.62 63.633)"><path class="f" d="M0,58.746S19.744,61.989,25.27,59s3.052-6.289,3.052-6.289,17-2.022,19.57-6.125c1.343-2.148.757-3.729-.1-4.745a5.79,5.79,0,0,0-1.8-1.386S56.8,37.787,62.2,32.9s-1.194-8.909-1.194-8.909S80.364,6.789,72.124,1.3,53.83,9.432,53.83,9.432s-3.272-8.338-9.9-1.545c-.6.621-1.27,1.341-1.969,2.14-7.014,7.922-18.169,23.387-18.169,23.387s-7.456-2.648-11.66,11.149c0,0-3.333-3.036-5.046.376S0,58.746,0,58.746Z"/><path class="g" d="M.012,39.679C-.724,40.009,33.343,14.895,50.392,0,50.392,0,20.032,30.7.012,39.679Z" transform="translate(9.907 13.333)"/><path class="h" d="M0,48.72s19.744,3.242,25.27.258,3.052-6.289,3.052-6.289,17-2.022,19.57-6.125c1.343-2.148.757-3.729-.1-4.745-14.768.5-12.1-14.283-6.058-21.134,5.3-6.013,3.493-6.906.228-10.684C34.944,7.922,23.789,23.387,23.789,23.387s-7.456-2.648-11.66,11.149c0,0-3.333-3.036-5.046.376S0,48.72,0,48.72Z" transform="translate(0 10.026)"/></g></g><g transform="matrix(0.999, 0.052, -0.052, 0.999, -44.903, 171.084)"><g transform="translate(12.177 0)"><path class="f" d="M66.608,114.436s-27.227-6.86-32.675-13.789-.414-9.8-.414-9.8S12.762,78.74,11.751,72.023c-.529-3.516,1.109-5.222,2.787-6.05a8.106,8.106,0,0,1,3.1-.775S5.2,55.712.984,46.4,7.5,35.6,7.5,35.6-7.807,2.641,5.868.182,24.874,20.871,24.874,20.871s8.871-8.906,13.611,3.545c.431,1.138.885,2.436,1.339,3.855,4.6,14.116,10.319,40.259,10.319,40.259s11.077.758,8.779,20.867c0,0,5.987-2.045,6.286,3.3S66.608,114.436,66.608,114.436Z"/><path class="g" d="M42.679,79.232C43.442,80.068,13.624,28.7,0,0,0,0,21.924,56.49,42.679,79.232Z" transform="translate(14.366 22.279)"/><path class="h" d="M54.959,86.164S27.731,79.3,22.284,72.375s-.414-9.8-.414-9.8S1.112,50.469.1,43.752c-.529-3.516,1.109-5.222,2.787-6.05C21.618,46.6,26.45,26.079,22.5,13.881,19.032,3.177,21.859,3.04,28.173,0c4.6,14.116,10.319,40.259,10.319,40.259s11.077.758,8.779,20.867c0,0,5.987-2.045,6.286,3.3S54.959,86.164,54.959,86.164Z" transform="translate(11.65 28.272)"/></g><g transform="translate(0 63.633)"><path class="f" d="M74.166,58.746S54.422,61.988,48.9,59s-3.052-6.289-3.052-6.289-17-2.022-19.57-6.125c-1.343-2.148-.757-3.729.1-4.745a5.788,5.788,0,0,1,1.8-1.386S17.364,37.787,11.964,32.9s1.194-8.909,1.194-8.909S-6.2,6.789,2.042,1.3s18.294,8.13,18.294,8.13,3.272-8.338,9.9-1.545c.6.621,1.27,1.341,1.969,2.14,7.014,7.922,18.169,23.387,18.169,23.387s7.456-2.648,11.66,11.149c0,0,3.332-3.036,5.046.376S74.166,58.746,74.166,58.746Z"/><path class="g" d="M50.38,39.679C51.116,40.009,17.049,14.895,0,0,0,0,30.36,30.7,50.38,39.679Z" transform="translate(13.868 13.333)"/><path class="h" d="M48.686,48.72s-19.744,3.242-25.27.258-3.052-6.289-3.052-6.289-17-2.022-19.57-6.125c-1.343-2.148-.757-3.729.1-4.745,14.768.5,12.1-14.283,6.058-21.134C1.655,4.671,3.464,3.778,6.728,0,13.742,7.922,24.9,23.387,24.9,23.387s7.456-2.648,11.66,11.149c0,0,3.333-3.036,5.046.376S48.686,48.72,48.686,48.72Z" transform="translate(25.479 10.026)"/></g></g><path class="i" d="M303.338,365.364a16.312,16.312,0,0,1-16.271-17.472l19.365-271.05A16.37,16.37,0,0,1,322.7,61.692H425.483a16.313,16.313,0,0,1,16.27,17.474L422.388,350.215a16.369,16.369,0,0,1-16.27,15.149Z" transform="translate(-283.295 -57.962)"/><path d="M299.776,361.8A16.314,16.314,0,0,1,283.5,344.33L302.87,73.279a16.37,16.37,0,0,1,16.271-15.148H421.921a16.309,16.309,0,0,1,16.27,17.474L418.826,346.654a16.369,16.369,0,0,1-16.27,15.148Z" transform="translate(-283.464 -58.131)"/><path class="j" d="M432.735,74.561l-.23,3.194-2.419,33.893-2.556,35.778-.765,10.641-1.613,22.676-7.6,106.34L413.37,345.61A11.082,11.082,0,0,1,402.32,355.9H299.541a11.074,11.074,0,0,1-11.05-11.867l2.116-29.578,2.4-33.579.262-3.708,5.666-79.359,3.173-44.419,5.75-80.407a11.082,11.082,0,0,1,11.05-10.285H421.686A11.082,11.082,0,0,1,432.735,74.561Z" transform="translate(-283.227 -57.915)"/><path class="k" d="M395.207,69.746H341.282a11.616,11.616,0,0,1-11.615-11.615h77.156A11.616,11.616,0,0,1,395.207,69.746Z" transform="translate(-281.275 -58.131)"/><ellipse cx="63.5" cy="5.5" rx="63.5" ry="5.5" transform="matrix(0.995, -0.105, 0.105, 0.995, -18.379, 226.283)"/><g transform="translate(-1385.093 -285.078) rotate(-17)"><path class="l" d="M1151.039,1214.724l62.676,10.213a16.566,16.566,0,0,0,3.968.165l5.12-.4-.849-111.407-70.915-2.517Z" transform="translate(0 -327.079)"/><path class="m" d="M1753.937,1124.646v97.029a6.492,6.492,0,0,1-6.116,6.513l-67.669,4.025a4.88,4.88,0,0,1-5.073-4.932V1126.195a5.2,5.2,0,0,1,4.962-5.241l68.157-1.9A5.566,5.566,0,0,1,1753.937,1124.646Z" transform="translate(-459.39 -334.335)"/><path class="n" d="M1151.039,1100.693l64.65,3.061,73.118-2.038-74.964-2.442Z" transform="translate(0 -316.997)"/><path class="o" d="M1848.515,1119.076l-53.378,1.487a5.74,5.74,0,0,0-5.512,5.748,38.658,38.658,0,0,0,3.148,15.691c7.6,17.212,24.584,17.847,28.118,33.645,2.945,13.163-7.483,18.826-8.584,35.646a44.964,44.964,0,0,0,1.408,14.268,5.788,5.788,0,0,0,5.905,4.348l29.386-1.748a5.673,5.673,0,0,0,5.345-5.691v-97.709A5.66,5.66,0,0,0,1848.515,1119.076Z" transform="translate(-559.803 -334.354)"/><path class="p" d="M1867.338,1235.934l1.13.586,23.959-1.434V1124.562l-25.089.7Z" transform="translate(-627.93 -339.165)"/><path class="q" d="M1876.5,1236.52l23.959-1.434V1124.562l-23.959.672Z" transform="translate(-635.959 -339.165)"/><path class="p" d="M1392.1,1102.7l69.384,2.7-24.589,1.28-61.148-3.607Z" transform="translate(-196.988 -320.004)"/><g transform="translate(1228.824 748.364)"><path class="p" d="M1781.866,855.366c1.629-9.977,2.819-17.268,9.334-24,2.747-2.839,5.748-5.94,10.667-6.763,5.658-.946,12.88,1.284,14.858,5.905,1.879,4.388-2.547,7.247-.667,12.287,1.89,5.065,7.4,4.957,8,9.048.511,3.465-2.871,7.4-6.286,9.239-5.9,3.182-9.245-1.294-20.764-.571-7.937.5-12.518,3.011-14.668.476C1781.319,859.779,1781.42,858.1,1781.866,855.366Z" transform="translate(-1781.544 -824.388)"/><g class="r" transform="translate(0.15 19.623)"><path class="s" d="M1814.461,990.9c-7.111-2.72-10.756-8.639-13.906-7.239-2.8,1.244-1.091,6.439-4.381,10.667-3,3.861-8.515,4.78-13.411,4.783a3.156,3.156,0,0,0,.648,1.312c2.15,2.535,6.731.022,14.668-.476,11.518-.723,14.866,3.753,20.764.571,3.133-1.69,6.229-5.138,6.326-8.372A22.9,22.9,0,0,1,1814.461,990.9Z" transform="translate(-1782.763 -983.45)"/></g></g><g transform="translate(1181.448 737.665)"><path class="p" d="M1402.269,754.674c4.783-3.775,9.826.435,15.715-3.714,5.965-4.2,4.232-10.946,8.858-12.858,5.374-2.221,13.335,4.557,17.144,8.858,9.676,10.926,14.22,30.322,6.572,37.146-2.87,2.561-11,1.505-27.137-.71-18.447-2.532-21.1-4.346-22.867-6.719C1395.8,770.278,1396.854,758.948,1402.269,754.674Z" transform="translate(-1397.527 -737.665)"/><g class="t" transform="translate(0 15.77)"><path class="u" d="M1432.557,874.924c-2.659-.839-3.87,2.2-9.334,3.429-1,.225-10.639,2.238-15.811-3.81a13.125,13.125,0,0,1-2.9-9.049,7.617,7.617,0,0,0-2.24,1.238c-5.416,4.274-6.472,15.6-1.714,22,1.766,2.374,4.42,4.187,22.867,6.719,16.139,2.215,24.267,3.271,27.137.71a9.286,9.286,0,0,0,1.057-1.134c-3.872-.128-7.934-1.065-10.867-3.914C1435.089,885.618,1437.077,876.349,1432.557,874.924Z" transform="translate(-1397.527 -865.494)"/></g></g></g><text class="v" transform="translate(42.451 57.632)"><tspan x="0" y="0">GIFT ORDER</tspan></text><path class="w" d="M102.381,25.912,4.574,25.663A4.677,4.677,0,0,1,2.8,25.315a4.423,4.423,0,0,1-1.425-.939,4.2,4.2,0,0,1-.936-1.389,4.11,4.11,0,0,1-.306-1.7L.625,5.6a4.227,4.227,0,0,1,.39-1.643A4.527,4.527,0,0,1,1.984,2.6,4.786,4.786,0,0,1,3.4,1.656a4.851,4.851,0,0,1,1.723-.4Q17.144.73,29.236.449,41.366.168,53.568.137,65.809.106,78.125.328q12.357.223,24.793.7a4.969,4.969,0,0,1,1.774.4,4.671,4.671,0,0,1,1.43.956,4.326,4.326,0,0,1,.949,1.383,4.118,4.118,0,0,1,.332,1.677l-.2,16.025a4.22,4.22,0,0,1-.4,1.733,4.528,4.528,0,0,1-1.039,1.414,4.868,4.868,0,0,1-1.526.952A5.058,5.058,0,0,1,102.381,25.912Z" transform="translate(15.216 255.708)"/><path class="f" d="M5.321,10.332a6.231,6.231,0,0,1-.732-.042,5.572,5.572,0,0,1-.695-.127,5.213,5.213,0,0,1-.658-.211,5.159,5.159,0,0,1-1.188-.664,4.745,4.745,0,0,1-.5-.433,4.69,4.69,0,0,1-.433-.5A4.892,4.892,0,0,1,.26,6.545,5.133,5.133,0,0,1,.146,5.87,5.832,5.832,0,0,1,.179,4.455a5.254,5.254,0,0,1,.145-.674,5.06,5.06,0,0,1,.23-.64A5.142,5.142,0,0,1,.87,2.534a5.211,5.211,0,0,1,.39-.558,4.994,4.994,0,0,1,.454-.494,5.051,5.051,0,0,1,.518-.431A5.4,5.4,0,0,1,4.111.181a5.7,5.7,0,0,1,.7-.126A6.276,6.276,0,0,1,5.539.013q.3,0,.6.029a5.712,5.712,0,0,1,.583.088A5.56,5.56,0,0,1,7.834.484a5.33,5.33,0,0,1,.515.258,4.855,4.855,0,0,1,.468.3,4.592,4.592,0,0,1,.422.351,4.531,4.531,0,0,1,.375.4,3.963,3.963,0,0,1,.315.433,3.581,3.581,0,0,1,.243.457,3.437,3.437,0,0,1,.171.481,3.522,3.522,0,0,1,.1.505H7.974a1.9,1.9,0,0,0-.129-.337,1.871,1.871,0,0,0-.191-.3A2.058,2.058,0,0,0,7.4,2.759a2.476,2.476,0,0,0-.313-.24,2.68,2.68,0,0,0-.358-.2,2.714,2.714,0,0,0-.385-.14A2.938,2.938,0,0,0,5.934,2.1a3.495,3.495,0,0,0-1.06.027,2.95,2.95,0,0,0-.571.166,2.878,2.878,0,0,0-.521.276,3.263,3.263,0,0,0-.863.856,2.95,2.95,0,0,0-.284.524,3.083,3.083,0,0,0-.176.579A3.716,3.716,0,0,0,2.432,5.8a2.993,2.993,0,0,0,.151.58,2.816,2.816,0,0,0,.261.526,3.077,3.077,0,0,0,.827.862,2.727,2.727,0,0,0,.51.278,2.843,2.843,0,0,0,.565.167,3.35,3.35,0,0,0,.62.056,3.162,3.162,0,0,0,.445-.031,2.837,2.837,0,0,0,.42-.092,2.719,2.719,0,0,0,.4-.153A2.8,2.8,0,0,0,7,7.776a2.716,2.716,0,0,0,.327-.262,2.307,2.307,0,0,0,.265-.3,2.129,2.129,0,0,0,.2-.329,2.165,2.165,0,0,0,.141-.362h2.486a4.568,4.568,0,0,1-.234.8,4.237,4.237,0,0,1-.37.723,4.378,4.378,0,0,1-.507.647,5.006,5.006,0,0,1-.643.57,5.284,5.284,0,0,1-.743.465,5.179,5.179,0,0,1-.8.332,5.515,5.515,0,0,1-.866.2A6.321,6.321,0,0,1,5.321,10.332ZM14.008.681a5.418,5.418,0,0,1,1.3-.5,5.751,5.751,0,0,1,.7-.126,6.464,6.464,0,0,1,1.469,0,5.668,5.668,0,0,1,.7.125,5.319,5.319,0,0,1,.662.209,5.25,5.25,0,0,1,.626.293,5.178,5.178,0,0,1,.575.367,4.821,4.821,0,0,1,.508.431,4.747,4.747,0,0,1,.441.495,4.953,4.953,0,0,1,.374.559,4.856,4.856,0,0,1,.505,1.248,5.1,5.1,0,0,1,.121.675,5.769,5.769,0,0,1-.021,1.417,5.191,5.191,0,0,1-.141.676,5,5,0,0,1-.228.643,5.1,5.1,0,0,1-.315.61,5.189,5.189,0,0,1-.391.561,4.988,4.988,0,0,1-.457.5,5.063,5.063,0,0,1-.523.433,5.493,5.493,0,0,1-1.226.664,5.474,5.474,0,0,1-.671.211,5.768,5.768,0,0,1-.7.126,6.35,6.35,0,0,1-.738.042,6.308,6.308,0,0,1-.736-.042,5.651,5.651,0,0,1-.7-.127,5.293,5.293,0,0,1-.663-.211,5.215,5.215,0,0,1-.626-.3,5.151,5.151,0,0,1-.574-.369,4.8,4.8,0,0,1-.506-.433,4.728,4.728,0,0,1-.438-.5,4.971,4.971,0,0,1-.663-1.17,4.871,4.871,0,0,1-.205-.642,5.12,5.12,0,0,1-.118-.675,5.8,5.8,0,0,1,.027-1.416,5.216,5.216,0,0,1,.143-.674,5.022,5.022,0,0,1,.229-.641,5.107,5.107,0,0,1,.315-.607,5.176,5.176,0,0,1,.39-.559,4.972,4.972,0,0,1,.455-.495,5.043,5.043,0,0,1,.52-.431A5.393,5.393,0,0,1,14.008.681Zm4.881,2.273a2.99,2.99,0,0,0-.46-.387,2.768,2.768,0,0,0-.516-.276,2.923,2.923,0,0,0-.573-.166,3.621,3.621,0,0,0-1.26,0,3,3,0,0,0-.578.166,2.886,2.886,0,0,0-.525.276,3.235,3.235,0,0,0-.864.857,2.931,2.931,0,0,0-.283.524,3.063,3.063,0,0,0-.175.579A3.7,3.7,0,0,0,13.631,5.8a2.993,2.993,0,0,0,.154.581,2.826,2.826,0,0,0,.265.527,3.033,3.033,0,0,0,.376.473,2.993,2.993,0,0,0,.46.39,2.764,2.764,0,0,0,.517.279,2.914,2.914,0,0,0,.574.167,3.607,3.607,0,0,0,1.263,0,2.993,2.993,0,0,0,.579-.167,2.882,2.882,0,0,0,.526-.278,3.145,3.145,0,0,0,.473-.39,3.186,3.186,0,0,0,.392-.473,2.945,2.945,0,0,0,.283-.527,3.073,3.073,0,0,0,.174-.581,3.7,3.7,0,0,0,.02-1.269,2.983,2.983,0,0,0-.155-.579,2.812,2.812,0,0,0-.266-.525A3.015,3.015,0,0,0,18.889,2.954ZM23.381.149h1.885L29.456,6l.07-5.849H31.74L31.629,10.2H29.766L25.538,4.329,25.46,10.2H23.238Zm9.946,0h6.421l-.016,2.034H35.522L35.5,4.273h3.75l-.017,2.04H35.483L35.445,10.2H33.222Zm7.62,0h2.217L43.1,10.2H40.871ZM53.149,10.2H50.437L48.074,6.355H46.937l-.02,3.845H44.69L44.752.144H48.8a3.579,3.579,0,0,1,.432.026,3.372,3.372,0,0,1,.417.077,3.329,3.329,0,0,1,.4.129A3.487,3.487,0,0,1,50.8.781a3.216,3.216,0,0,1,.322.263,3.165,3.165,0,0,1,.284.3,3.277,3.277,0,0,1,.245.339,3.025,3.025,0,0,1,.2.366,2.8,2.8,0,0,1,.225.779,2.963,2.963,0,0,1,.027.413,3.737,3.737,0,0,1-.029.462,3.262,3.262,0,0,1-.085.434,2.992,2.992,0,0,1-.141.407,2.92,2.92,0,0,1-.2.379,2.955,2.955,0,0,1-.246.342,2.8,2.8,0,0,1-.288.3,2.839,2.839,0,0,1-.33.253,3.059,3.059,0,0,1-.372.208ZM46.958,2.192l-.012,2.325h1.606a1.573,1.573,0,0,0,.261-.021,1.341,1.341,0,0,0,.24-.063,1.26,1.26,0,0,0,.219-.105,1.321,1.321,0,0,0,.2-.147A1.217,1.217,0,0,0,49.634,4a1.05,1.05,0,0,0,.189-.42,1.218,1.218,0,0,0,.024-.242,1.127,1.127,0,0,0-.022-.232,1,1,0,0,0-.069-.213A1.032,1.032,0,0,0,49.64,2.7a1.219,1.219,0,0,0-.163-.176,1.3,1.3,0,0,0-.2-.145,1.252,1.252,0,0,0-.218-.1,1.344,1.344,0,0,0-.239-.062,1.586,1.586,0,0,0-.26-.021Zm7.014,8.01L54,.142h2.7l3.119,6.924L63.09.14h2.265L65.374,10.2h-2.23l-.006-5.918L60.444,10.2H58.833L56.21,4.286,56.2,10.2Z" transform="translate(33.856 264.086)"/></g><ellipse class="h" cx="71.937" cy="5.78" rx="71.937" ry="5.78" transform="translate(92.275 328.255)"/></g></svg>