<svg width="348" height="343" viewBox="0 0 348 343" fill="none" xmlns="http://www.w3.org/2000/svg">
<path opacity="0.26" d="M243.97 305.401C254.355 304.581 264.674 303.07 274.857 300.878C284.757 298.71 292.5 295.145 298.857 292.694C317.784 285.394 331.904 308.172 305.841 319.794C281.198 330.783 243.701 321.623 234.508 314.594C225.315 307.565 243.97 305.401 243.97 305.401Z" fill="#F6F6F9"/>
<path opacity="0.26" d="M209.861 330.366C215.75 330.366 220.523 325.592 220.523 319.704C220.523 313.815 215.75 309.042 209.861 309.042C203.973 309.042 199.199 313.815 199.199 319.704C199.199 325.592 203.973 330.366 209.861 330.366Z" fill="#E9E9F7"/>
<path opacity="0.26" d="M79.9613 186.016C74.3963 205.344 63.5613 215.886 52.8723 213.544C44.7723 211.768 29.9723 202.912 45.4923 169.82C61.0123 136.728 58.8023 117.785 66.1693 111.995C72.1693 107.284 82.4823 114.882 84.6443 135.062C86.5573 152.888 82.5703 176.951 79.9613 186.016Z" fill="#F6F6F9"/>
<path opacity="0.26" d="M302.91 121.506C311.482 121.506 318.431 114.557 318.431 105.985C318.431 97.4128 311.482 90.4638 302.91 90.4638C294.338 90.4638 287.389 97.4128 287.389 105.985C287.389 114.557 294.338 121.506 302.91 121.506Z" fill="#E9E9F7"/>
<path opacity="0.26" d="M52.9354 235.247C55.8017 235.247 58.1254 232.923 58.1254 230.057C58.1254 227.19 55.8017 224.867 52.9354 224.867C50.069 224.867 47.7454 227.19 47.7454 230.057C47.7454 232.923 50.069 235.247 52.9354 235.247Z" fill="#E9E9F7"/>
<path opacity="0.11" d="M285.313 235.356C256.513 302.678 180.483 331.594 120.913 326.663C104.648 325.317 71.9233 322.609 46.3713 298.445C-2.69968 252.04 4.85832 155.045 51.8323 97.9338C57.8813 90.5798 99.7543 41.3068 165.006 41.9658C212.78 42.4488 246.306 69.4358 250.388 72.7978C260.817 81.4746 269.84 91.7127 277.138 103.149C301.196 140.765 303.311 193.284 285.313 235.356Z" fill="white"/>
<path opacity="0.25" d="M336.472 244.217C308.808 308.879 235.784 336.652 178.572 331.917C162.95 330.624 131.518 328.023 106.972 304.817C59.8403 260.245 67.0993 167.079 112.218 112.228C118.029 105.164 158.247 57.8378 220.918 58.4708C266.804 58.9348 299.011 84.8558 302.927 88.0848C312.945 96.4169 321.613 106.249 328.623 117.232C351.723 153.361 353.759 203.81 336.472 244.217Z" fill="white"/>
<path opacity="0.09" d="M310.445 260.112C284.711 320.261 216.784 346.096 163.562 341.691C149.03 340.491 119.792 338.069 96.9623 316.479C53.1203 275.018 59.8723 188.354 101.841 137.331C107.241 130.76 144.658 86.7368 202.956 87.3308C245.639 87.7628 275.598 111.874 279.241 114.878C288.559 122.63 296.621 131.777 303.141 141.995C324.636 175.602 326.525 222.521 310.445 260.112Z" fill="url(#paint0_linear)"/>
<path d="M179.533 148.883L178.872 147.175C178.653 146.6 178.41 146.024 178.025 144.893L177.446 143.216C177.237 142.616 177.024 141.98 176.859 141.361C176.506 140.093 176.073 138.705 175.745 137.154C175.574 136.381 175.371 135.584 175.212 134.746C175.053 133.908 174.912 133.036 174.749 132.137C174.114 128.114 173.815 124.046 173.855 119.974C173.98 109.889 176.235 99.9451 180.474 90.7939C182.848 85.7303 185.801 80.9593 189.274 76.5769C196.397 67.6563 205.628 60.6501 216.136 56.1909L216.464 56.0429L216.574 56.0019L216.793 55.9189L217.233 55.7529L218.111 55.4229L219.859 54.7639C220.165 54.6549 220.404 54.5449 220.766 54.4369L221.791 54.1149L223.83 53.4839C225.198 53.0279 226.494 52.7679 227.795 52.4629L229.734 52.0209L231.683 51.7039C236.625 50.8651 241.649 50.61 246.65 50.9439C247.837 50.9699 248.999 51.1379 250.143 51.2629C251.287 51.3879 252.411 51.5059 253.503 51.7339C254.597 51.9339 255.672 52.1209 256.72 52.3339L259.771 53.1009C260.771 53.3269 261.722 53.6589 262.655 53.9569C263.588 54.2549 264.504 54.5289 265.373 54.8659L267.9 55.8659C268.308 56.0309 268.713 56.1839 269.1 56.3529L270.241 56.8939C271.741 57.6039 273.141 58.2459 274.37 58.9789C275.613 59.6789 276.77 60.2869 277.746 60.9609L280.382 62.6809L282.244 64.0729L283.787 65.2299L279.877 70.6109L278.392 69.7179L276.617 68.6459L274.125 67.3609C273.211 66.8499 272.125 66.4229 270.975 65.9149C269.837 65.3769 268.543 64.9429 267.175 64.4549L266.137 64.0809C265.78 63.9689 265.412 63.8729 265.043 63.7659L262.765 63.1149C261.986 62.8979 261.165 62.7589 260.337 62.5689C259.509 62.3789 258.667 62.1849 257.784 62.0829L255.11 61.6879L252.319 61.4579C251.378 61.3519 250.411 61.3579 249.435 61.3479C248.459 61.3379 247.471 61.2889 246.469 61.3759C242.293 61.5137 238.147 62.1461 234.119 63.2599L232.551 63.6749L231.002 64.2039C229.974 64.5224 228.963 64.8936 227.972 65.3159L226.529 65.9159L225.806 66.2159C225.578 66.2999 225.264 66.4759 224.997 66.6019L223.323 67.4309L222.483 67.8479L222.063 68.0559L221.853 68.1559L221.747 68.2079C222.147 68.0249 221.833 68.1719 221.911 68.1379L221.865 68.1649C217.932 70.346 214.273 72.9884 210.965 76.0359C204.59 81.9583 199.767 89.3565 196.921 97.5799C193.516 107.32 193.113 117.859 195.765 127.831C195.941 128.446 196.112 129.041 196.276 129.616C196.444 130.188 196.652 130.728 196.824 131.252C197.152 132.305 197.569 133.234 197.896 134.086C198.04 134.465 198.202 134.837 198.382 135.2C198.534 135.528 198.676 135.835 198.808 136.121C199.015 136.621 199.408 137.369 199.671 137.885L200.5 139.518L179.533 148.883Z" fill="url(#paint1_linear)"/>
<path d="M276.707 74.9889L286.972 60.8609L292.927 75.2119L276.707 74.9889Z" fill="url(#paint2_linear)"/>
<path d="M324.146 92.8719C324.146 92.8719 324.321 93.4849 324.646 94.6329C324.812 95.2259 325 95.8219 325.281 96.9819L325.704 98.7048C325.857 99.3228 326.012 99.9739 326.119 100.605C326.354 101.905 326.659 103.322 326.844 104.896C326.944 105.682 327.073 106.496 327.155 107.343C327.237 108.19 327.301 109.074 327.378 109.983C327.644 114.046 327.571 118.125 327.158 122.176C326.115 132.207 322.961 141.904 317.903 150.63C315.078 155.456 311.701 159.937 307.841 163.984C299.935 172.217 290.103 178.352 279.231 181.833L278.891 181.951L278.778 181.982L278.551 182.044L278.098 182.169L277.198 182.418L275.398 182.918C275.082 182.999 274.834 183.087 274.464 183.162L273.415 183.389L271.327 183.831C269.927 184.161 268.608 184.301 267.286 184.485L265.314 184.748L263.344 184.886C258.346 185.27 253.321 185.066 248.37 184.277C247.191 184.143 246.049 183.869 244.921 183.641C243.793 183.413 242.684 183.192 241.621 182.866C240.551 182.566 239.496 182.282 238.473 181.977L235.505 180.935C234.529 180.618 233.612 180.202 232.71 179.819C231.808 179.436 230.921 179.08 230.086 178.665L227.661 177.435C227.27 177.235 226.881 177.044 226.505 176.84L225.419 176.197C223.994 175.354 222.656 174.586 221.498 173.745C220.324 172.932 219.226 172.223 218.318 171.462L215.85 169.509L214.122 167.953L212.69 166.66L217.074 161.66L218.474 162.684L220.145 163.913L222.508 165.421C223.371 166.014 224.408 166.537 225.508 167.148C226.593 167.788 227.842 168.338 229.156 168.948L230.156 169.414C230.501 169.559 230.856 169.688 231.217 169.829L233.426 170.685C234.182 170.973 234.989 171.185 235.794 171.45C236.599 171.715 237.422 171.985 238.294 172.167L240.92 172.805L243.679 173.289C244.607 173.479 245.57 173.56 246.541 173.661C247.512 173.762 248.492 173.899 249.497 173.904C253.669 174.148 257.856 173.897 261.968 173.155L263.568 172.885L265.158 172.501C266.212 172.277 267.253 172 268.277 171.67L269.769 171.201L270.516 170.971C270.751 170.908 271.079 170.761 271.357 170.66L273.1 169.987L273.974 169.649L274.412 169.48L274.631 169.395L274.741 169.353C274.323 169.498 274.653 169.38 274.571 169.407L274.619 169.385C278.736 167.572 282.622 165.275 286.194 162.542C293.083 157.226 298.561 150.299 302.145 142.37C306.425 132.98 307.788 122.523 306.057 112.35C305.939 111.722 305.824 111.114 305.712 110.526C305.596 109.941 305.439 109.385 305.312 108.847C305.081 107.768 304.75 106.805 304.503 105.927C304.396 105.536 304.268 105.151 304.121 104.773C304 104.433 303.887 104.114 303.781 103.817C303.62 103.305 303.295 102.517 303.081 101.982L302.405 100.282L324.146 92.8719Z" fill="url(#paint3_linear)"/>
<path d="M220.636 157.59L209.124 170.72L204.504 155.886L220.636 157.59Z" fill="url(#paint4_linear)"/>
<g style="mix-blend-mode:multiply" opacity="0.3">
<path d="M131.586 324.435C171.316 324.435 203.523 321.847 203.523 318.655C203.523 315.463 171.316 312.875 131.586 312.875C91.8566 312.875 59.6493 315.463 59.6493 318.655C59.6493 321.847 91.8566 324.435 131.586 324.435Z" fill="#4A6C8F"/>
</g>
<path d="M170.123 295.056C170.123 295.056 195.658 285.182 200.106 277.829C204.555 270.476 199.339 268.294 199.339 268.294C199.339 268.294 217.99 254.116 218.17 247.491C218.264 244.025 216.476 242.569 214.754 241.966C213.76 241.635 212.71 241.505 211.665 241.584C211.665 241.584 222.571 230.926 225.546 221.412C228.52 211.898 217.956 211.733 217.956 211.733C217.956 211.733 228.857 178.021 215.331 177.267C201.804 176.513 199.395 199.547 199.395 199.547C199.395 199.547 189.751 191.983 186.644 204.594C186.363 205.747 186.078 207.057 185.807 208.485C183.03 222.694 180.604 248.673 180.604 248.673C180.604 248.673 169.975 250.723 174.587 269.911C174.587 269.911 168.55 268.643 168.897 273.855C169.243 279.066 170.123 295.056 170.123 295.056Z" fill="white"/>
<path d="M177.843 281.413C177.204 282.312 199.959 229.057 209.733 199.662C209.733 199.662 195.227 256.937 177.843 281.413Z" fill="#214675"/>
<g style="mix-blend-mode:multiply" opacity="0.3">
<path d="M170.123 295.056C170.123 295.056 195.658 285.182 200.106 277.829C204.555 270.476 199.339 268.294 199.339 268.294C199.339 268.294 217.991 254.112 218.174 247.492C218.268 244.025 216.481 242.569 214.758 241.967C197.689 252.807 190.576 233.519 192.95 221.245C195.031 210.476 192.278 210.677 185.807 208.486C183.03 222.694 180.604 248.673 180.604 248.673C180.604 248.673 169.975 250.723 174.592 269.91C174.592 269.91 168.555 268.642 168.902 273.854C169.248 279.066 170.123 295.056 170.123 295.056Z" fill="#4A6C8F"/>
</g>
<path d="M175.539 302.194C175.539 302.194 195.031 302.986 200.026 299.442C205.02 295.898 202.231 292.993 202.231 292.993C202.231 292.993 218.447 289.015 220.446 284.738C221.49 282.5 220.735 281.04 219.783 280.158C219.227 279.66 218.578 279.276 217.872 279.031C217.872 279.031 228.024 275.16 232.669 269.784C237.313 264.409 230.455 261.304 230.455 261.304C230.455 261.304 247.139 242.363 238.513 238.031C229.886 233.699 221.774 248.076 221.774 248.076C221.774 248.076 217.62 240.391 212.007 247.754C211.495 248.427 210.937 249.202 210.355 250.059C204.509 258.559 195.556 274.85 195.556 274.85C195.556 274.85 188.021 273.177 185.592 287.026C185.592 287.026 182.007 284.484 180.753 287.989C179.5 291.494 175.539 302.194 175.539 302.194Z" fill="white"/>
<path d="M184.455 295.467C183.783 295.874 213.768 267.52 228.497 251.079C228.497 251.079 202.764 284.401 184.455 295.467Z" fill="#214675"/>
<g style="mix-blend-mode:multiply" opacity="0.3">
<path d="M175.538 302.19C175.538 302.19 195.031 302.982 200.025 299.438C205.02 295.894 202.232 292.989 202.232 292.989C202.232 292.989 218.447 289.015 220.446 284.738C221.49 282.5 220.735 281.04 219.783 280.158C205.55 282.399 206.374 267.773 211.409 260.425C215.821 253.976 213.964 253.327 210.355 250.059C204.509 258.559 195.555 274.847 195.555 274.847C195.555 274.847 188.025 273.17 185.596 287.022C185.596 287.022 182.01 284.48 180.757 287.985C179.504 291.489 175.538 302.19 175.538 302.19Z" fill="#4A6C8F"/>
</g>
<path d="M89.8449 304.913C89.8449 304.913 62.6817 301.51 56.5848 295.451C50.488 289.392 55.0231 286.014 55.0231 286.014C55.0231 286.014 33.4959 276.769 31.7186 270.385C30.7886 267.044 32.171 265.199 33.6964 264.198C34.5808 263.636 35.568 263.256 36.6007 263.079C36.6007 263.079 23.4382 255.379 18.2501 246.867C13.0621 238.355 23.2723 235.639 23.2723 235.639C23.2723 235.639 4.54335 205.563 17.4858 201.559C30.4283 197.555 38.3371 219.323 38.3371 219.323C38.3371 219.323 45.8644 209.65 51.9303 221.135C52.4825 222.186 53.0753 223.388 53.6837 224.707C59.8158 237.823 68.4547 262.444 68.4547 262.444C68.4547 262.444 79.2642 261.861 79.4304 281.595C79.4304 281.595 84.9809 278.904 85.9063 284.045C86.8317 289.185 89.8449 304.913 89.8449 304.913Z" fill="white"/>
<path d="M79.0537 293.543C79.8914 294.261 44.9303 248.092 28.3348 221.935C28.3348 221.935 56.2651 273.999 79.0537 293.543Z" fill="#214675"/>
<g style="mix-blend-mode:multiply" opacity="0.3">
<path d="M89.8449 304.913C89.8449 304.913 62.6797 301.511 56.5848 295.451C50.49 289.392 55.0231 286.014 55.0231 286.014C55.0231 286.014 33.4926 276.766 31.7168 270.386C30.7868 267.045 32.1692 265.2 33.6945 264.199C52.878 270.587 55.1161 250.15 49.8415 238.816C45.2151 228.871 47.9349 228.401 53.6838 224.708C59.8148 237.823 68.4537 262.444 68.4537 262.444C68.4537 262.444 79.2633 261.861 79.4295 281.595C79.4295 281.595 84.9799 278.904 85.9053 284.045C86.8307 289.185 89.8449 304.913 89.8449 304.913Z" fill="#4A6C8F"/>
</g>
<path d="M86.3184 313.149C86.3184 313.149 67.5961 318.633 61.8928 316.402C56.1894 314.172 58.1927 310.679 58.1927 310.679C58.1927 310.679 41.4959 310.742 38.525 307.076C36.9704 305.156 37.3494 303.557 38.0603 302.471C38.4792 301.853 39.0166 301.324 39.6415 300.915C39.6415 300.915 28.8546 299.615 23.0477 295.523C17.2407 291.431 23.1443 286.759 23.1443 286.759C23.1443 286.759 2.37058 272.416 9.69258 266.126C17.0146 259.836 28.3642 271.824 28.3642 271.824C28.3642 271.824 30.5396 263.366 37.7637 269.153C38.4231 269.682 39.1516 270.298 39.9191 270.986C47.6484 277.819 60.2807 291.457 60.2807 291.457C60.2807 291.457 67.1865 288.014 72.8941 300.864C72.8941 300.864 75.7582 297.53 77.822 300.628C79.8859 303.725 86.3184 313.149 86.3184 313.149Z" fill="white"/>
<path d="M76.0391 308.779C76.79 309.011 40.8373 288.753 22.5673 276.365C22.5673 276.365 55.595 302.471 76.0391 308.779Z" fill="#214675"/>
<g style="mix-blend-mode:multiply" opacity="0.3">
<path d="M86.3179 313.145C86.3179 313.145 67.5957 318.63 61.8923 316.398C56.1888 314.167 58.1911 310.675 58.1911 310.675C58.1911 310.675 41.4969 310.742 38.5249 307.076C36.9704 305.156 37.3493 303.557 38.0603 302.471C52.4127 301.202 48.0751 287.21 41.4119 281.298C35.569 276.109 37.2127 275.03 39.923 270.985C47.6534 277.818 60.2856 291.456 60.2856 291.456C60.2856 291.456 67.1868 288.008 72.8946 300.86C72.8946 300.86 75.7586 297.526 77.8225 300.623C79.8864 303.721 86.3179 313.145 86.3179 313.145Z" fill="#4A6C8F"/>
</g>
<path d="M179.137 310.352C181.39 310.234 183.595 309.653 185.614 308.646C187.633 307.639 189.423 306.226 190.872 304.497C192.322 302.768 193.4 300.758 194.039 298.594C194.678 296.43 194.865 294.158 194.587 291.919L160.81 20.214C160.284 16.0951 158.224 12.326 155.041 9.65942C151.859 6.99282 147.787 5.62493 143.64 5.82888L40.2245 11.2486C37.9706 11.3669 35.7653 11.9481 33.7459 12.9561C31.7265 13.964 29.9363 15.377 28.487 17.1071C27.0376 18.8371 25.96 20.8472 25.3215 23.0119C24.6829 25.1767 24.497 27.4497 24.7754 29.6895L58.5527 301.394C59.0783 305.513 61.1382 309.282 64.3209 311.948C67.5036 314.615 71.5749 315.983 75.7221 315.779L179.137 310.352Z" fill="#1A1615"/>
<path d="M182.694 306.407C184.947 306.289 187.152 305.708 189.171 304.7C191.19 303.693 192.98 302.28 194.429 300.551C195.879 298.822 196.957 296.813 197.596 294.649C198.235 292.485 198.422 290.212 198.145 287.973L164.367 16.2684C163.841 12.1498 161.781 8.38109 158.598 5.71474C155.416 3.0484 151.344 1.68055 147.197 1.88428L43.784 7.30393C41.5301 7.42178 39.3246 8.00267 37.3051 9.01039C35.2855 10.0181 33.4952 11.431 32.0457 13.1611C30.5963 14.8911 29.5187 16.9012 28.8803 19.0661C28.2418 21.2309 28.0562 23.504 28.3349 25.7437L62.1121 297.448C62.6393 301.565 64.6995 305.332 67.8815 307.997C71.0635 310.662 75.1334 312.03 79.2791 311.827L182.694 306.407Z" fill="black"/>
<path d="M33.5406 24.6288L33.9408 27.8312L38.1627 61.8058L42.6207 97.6697L43.9519 108.337L46.7703 131.067L60.0283 237.662L67.3167 296.33C67.6664 299.13 69.0634 301.694 71.2266 303.506C73.3898 305.318 76.1589 306.243 78.9768 306.097L182.392 300.677C183.923 300.597 185.421 300.203 186.792 299.519C188.164 298.834 189.38 297.875 190.364 296.7C191.349 295.525 192.08 294.16 192.514 292.69C192.947 291.219 193.073 289.676 192.884 288.155L189.195 258.507L185.011 224.848L184.552 221.131L174.665 141.578L169.127 97.052L159.101 16.4523C158.751 13.6523 157.354 11.0885 155.191 9.27665C153.028 7.4648 150.259 6.53924 147.441 6.68612L44.0326 12.1055C42.5022 12.1864 41.0048 12.5815 39.6337 13.2661C38.2625 13.9508 37.047 14.9104 36.0628 16.0851C35.0786 17.2599 34.3467 18.6247 33.9128 20.0945C33.4789 21.5644 33.3522 23.1078 33.5406 24.6288Z" fill="#F6F6F9"/>
<path d="M69.0703 17.6918L123.326 14.8484C126.425 14.686 129.332 13.2992 131.408 10.9932C133.485 8.68723 134.56 5.65085 134.397 2.55207L56.771 6.6203C56.8514 8.15491 57.2334 9.65865 57.895 11.0456C58.5567 12.4326 59.4851 13.6757 60.6273 14.7038C61.7694 15.7319 63.1029 16.5249 64.5516 17.0376C66.0002 17.5503 67.5357 17.7726 69.0703 17.6918V17.6918Z" fill="url(#paint5_linear)"/>
<path d="M133.979 120.063C138.561 138.441 127.796 156.479 109.288 160.492C90.0332 164.674 69.841 152.173 64.9159 132.42C59.9909 112.666 72.4917 94.3191 92.0978 91.5446C110.941 88.8757 129.397 101.685 133.979 120.063Z" fill="url(#paint6_linear)"/>
<path d="M138.546 117.241C143.128 135.616 132.362 153.655 113.857 157.67C94.5955 161.846 74.4085 149.349 69.4832 129.595C64.5579 109.84 77.0574 91.4966 96.6664 88.7213C115.506 86.0553 133.964 98.8645 138.546 117.241Z" fill="url(#paint7_linear)"/>
<path d="M137.08 117.504C141.459 135.067 131.151 152.293 113.465 156.102C95.0942 160.056 75.8648 148.117 71.1718 129.294C66.4787 110.472 78.3677 92.9695 97.0573 90.2925C115.05 87.7161 132.699 99.9334 137.08 117.504Z" fill="url(#paint8_linear)"/>
<path d="M136.032 117.693C140.267 134.68 130.285 151.32 113.186 154.977C95.4474 158.773 76.9005 147.236 72.3739 129.081C67.8473 110.926 79.2974 94.0197 97.3379 91.4139C114.723 88.9035 131.796 100.706 136.032 117.693Z" fill="url(#paint9_linear)"/>
<path d="M98.6029 97.2358C99.0623 97.1775 99.5271 97.2884 99.9108 97.5478C100.294 97.8071 100.571 98.1973 100.688 98.6453L101.467 101.772C103.343 101.522 105.232 101.385 107.124 101.36C108.537 101.342 109.956 101.385 111.382 101.49C111.801 101.522 112.197 101.694 112.508 101.977C112.818 102.261 113.025 102.64 113.095 103.055L113.685 107.073C113.727 107.316 113.709 107.566 113.632 107.8C113.556 108.035 113.424 108.247 113.247 108.419C113.07 108.59 112.854 108.716 112.617 108.785C112.38 108.854 112.13 108.865 111.889 108.816C110.926 108.647 109.953 108.537 108.976 108.487C107.215 108.406 105.449 108.512 103.71 108.805L103.238 108.879L105.472 117.838C110.508 117.98 114.407 118.89 117.197 120.562C118.561 121.371 119.743 122.451 120.672 123.736C121.601 125.02 122.256 126.482 122.597 128.03C123.066 129.635 123.172 131.325 122.906 132.977C122.64 134.628 122.01 136.2 121.062 137.578C119.132 140.372 115.963 142.462 111.555 143.846L112.415 147.298C112.472 147.511 112.485 147.733 112.453 147.951C112.421 148.169 112.345 148.378 112.229 148.566C112.113 148.753 111.96 148.915 111.779 149.041C111.599 149.167 111.394 149.255 111.179 149.299L111.151 149.306C110.703 149.392 110.238 149.303 109.852 149.058C109.467 148.812 109.19 148.428 109.078 147.985L108.229 144.579L107.495 144.726C105.45 145.145 103.38 145.433 101.298 145.589C99.8296 145.696 98.3568 145.723 96.8858 145.669C96.4593 145.657 96.0501 145.498 95.7272 145.219C95.4043 144.94 95.1877 144.558 95.1139 144.138L94.3081 138.98C94.2676 138.722 94.2892 138.458 94.3711 138.21C94.453 137.962 94.5928 137.738 94.7789 137.555C94.965 137.372 95.1921 137.236 95.4412 137.158C95.6904 137.08 95.9546 137.063 96.2118 137.108C97.5282 137.281 98.8537 137.378 100.181 137.396C102.229 137.425 104.274 137.263 106.292 136.913L103.836 126.943C99.0395 126.951 95.2427 126.14 92.4745 124.499C91.0893 123.674 89.8894 122.571 88.9499 121.26C88.0104 119.949 87.3516 118.459 87.0145 116.882C86.5404 115.345 86.4371 113.718 86.7131 112.133C86.9891 110.549 87.6365 109.052 88.6023 107.766C90.5328 105.253 93.7194 103.447 98.1369 102.348L97.3398 99.1513C97.2816 98.9419 97.269 98.7223 97.3028 98.5075C97.3366 98.2927 97.4159 98.0878 97.5356 97.9063C97.6553 97.7248 97.8125 97.571 97.9966 97.4554C98.1807 97.3397 98.3874 97.2648 98.6029 97.2358V97.2358ZM99.9472 109.601C98.7686 109.919 97.7241 110.609 96.9686 111.568C96.6655 111.994 96.463 112.484 96.3764 113C96.2897 113.516 96.3211 114.044 96.4682 114.546C96.5792 115.046 96.792 115.516 97.0931 115.93C97.3942 116.343 97.7773 116.69 98.2184 116.948C99.3862 117.549 100.685 117.85 101.998 117.823L99.9472 109.601ZM107.342 126.927L109.62 136.062C110.901 135.835 112.051 135.137 112.842 134.104C113.159 133.608 113.364 133.049 113.441 132.465C113.519 131.881 113.468 131.288 113.291 130.726C113.051 129.605 112.375 128.624 111.413 128C110.167 127.306 108.767 126.936 107.341 126.923L107.342 126.927Z" fill="url(#paint10_linear)"/>
<path style="mix-blend-mode:multiply" opacity="0.3" d="M101.332 130.762C99.8358 120.41 108.05 113.821 104.523 104.836C102.351 99.2974 96.8068 95.5545 91.0276 92.9935C76.7314 98.1956 68.4085 113.181 72.3734 129.083C76.9 147.239 95.4421 158.777 113.186 154.979C114.869 154.619 116.521 154.121 118.123 153.489C109.404 148.279 102.616 139.656 101.332 130.762Z" fill="url(#paint11_linear)"/>
<path d="M153.909 137.114C157.489 151.474 149.077 165.572 134.613 168.709C119.565 171.975 103.786 162.208 99.9369 146.77C96.088 131.333 105.857 116.995 121.179 114.827C135.905 112.741 150.329 122.754 153.909 137.114Z" fill="url(#paint12_linear)"/>
<path d="M157.479 134.909C161.059 149.269 152.646 163.366 138.184 166.504C123.133 169.768 107.355 160.001 103.506 144.564C99.6572 129.126 109.425 114.789 124.749 112.62C139.474 110.537 153.898 120.547 157.479 134.909Z" fill="url(#paint13_linear)"/>
<path d="M156.333 135.115C159.756 148.841 151.7 162.302 137.882 165.274C123.524 168.365 108.499 159.034 104.832 144.325C101.164 129.615 110.455 115.937 125.059 113.846C139.117 111.834 152.91 121.386 156.333 135.115Z" fill="url(#paint14_linear)"/>
<path d="M155.514 135.262C158.824 148.538 151.023 161.542 137.661 164.4C123.798 167.367 109.304 158.35 105.766 144.163C102.229 129.975 111.18 116.762 125.275 114.726C138.861 112.763 152.204 121.987 155.514 135.262Z" fill="url(#paint15_linear)"/>
<path d="M126.263 119.275C126.622 119.229 126.986 119.316 127.286 119.518C127.586 119.721 127.802 120.026 127.893 120.376L128.502 122.82C129.968 122.625 131.444 122.517 132.923 122.498C134.027 122.484 135.134 122.517 136.245 122.597C136.573 122.623 136.882 122.757 137.124 122.979C137.366 123.201 137.527 123.497 137.581 123.821L138.045 126.961C138.077 127.151 138.063 127.346 138.003 127.529C137.944 127.712 137.84 127.878 137.702 128.012C137.564 128.146 137.395 128.244 137.21 128.299C137.025 128.353 136.83 128.361 136.641 128.323C135.889 128.19 135.128 128.104 134.365 128.066C132.988 128.002 131.608 128.085 130.249 128.313L129.88 128.372L131.626 135.373C135.562 135.484 138.608 136.195 140.789 137.502C141.855 138.134 142.779 138.978 143.505 139.982C144.231 140.986 144.743 142.128 145.009 143.338C145.377 144.592 145.46 145.912 145.253 147.203C145.046 148.494 144.554 149.722 143.813 150.799C142.304 152.982 139.828 154.615 136.384 155.696L137.057 158.394C137.101 158.56 137.111 158.734 137.086 158.904C137.061 159.074 137.002 159.238 136.911 159.384C136.821 159.531 136.701 159.657 136.56 159.756C136.419 159.855 136.259 159.923 136.09 159.958L136.069 159.963C135.718 160.031 135.355 159.961 135.053 159.769C134.752 159.577 134.535 159.277 134.448 158.931L133.784 156.268L133.21 156.384C131.612 156.711 129.994 156.936 128.367 157.058C127.22 157.142 126.07 157.162 124.92 157.121C124.586 157.112 124.266 156.987 124.013 156.768C123.76 156.549 123.591 156.25 123.535 155.92L122.906 151.893C122.874 151.691 122.891 151.485 122.955 151.291C123.019 151.097 123.128 150.921 123.274 150.778C123.42 150.635 123.598 150.528 123.793 150.468C123.988 150.407 124.194 150.394 124.396 150.429C125.424 150.565 126.46 150.64 127.497 150.654C129.097 150.677 130.696 150.55 132.273 150.277L130.353 142.486C126.604 142.493 123.638 141.858 121.474 140.577C120.392 139.932 119.454 139.07 118.72 138.046C117.986 137.022 117.471 135.857 117.208 134.625C116.837 133.423 116.757 132.152 116.972 130.913C117.188 129.675 117.694 128.506 118.449 127.501C119.958 125.536 122.451 124.124 125.9 123.266L125.277 120.768C125.232 120.604 125.223 120.433 125.25 120.266C125.276 120.099 125.338 119.939 125.432 119.798C125.525 119.656 125.648 119.536 125.791 119.446C125.934 119.356 126.095 119.298 126.263 119.275ZM127.313 128.938C126.392 129.187 125.576 129.726 124.986 130.475C124.749 130.809 124.59 131.191 124.522 131.594C124.455 131.998 124.479 132.411 124.595 132.803C124.681 133.193 124.848 133.561 125.083 133.884C125.318 134.207 125.617 134.478 125.962 134.68C126.875 135.15 127.89 135.385 128.915 135.364L127.313 128.938ZM133.092 142.475L134.872 149.614C135.873 149.437 136.772 148.891 137.391 148.083C137.639 147.696 137.799 147.259 137.859 146.803C137.92 146.347 137.88 145.883 137.742 145.444C137.554 144.568 137.026 143.802 136.274 143.314C135.3 142.773 134.207 142.484 133.093 142.475L133.092 142.475Z" fill="url(#paint16_linear)"/>
<path style="mix-blend-mode:multiply" opacity="0.3" d="M128.396 145.475C127.227 137.384 133.649 132.234 130.89 125.214C129.193 120.885 124.856 117.958 120.344 115.958C109.172 120.024 102.668 131.734 105.766 144.163C109.304 158.351 123.798 167.367 137.661 164.4C138.976 164.117 140.266 163.727 141.518 163.232C134.704 159.164 129.398 152.425 128.396 145.475Z" fill="url(#paint17_linear)"/>
<path d="M94.5794 274.555L163.155 271.157C163.996 271.115 164.835 271.247 165.621 271.547C166.386 271.839 167.087 272.278 167.683 272.839C168.288 273.406 168.779 274.082 169.131 274.833C169.499 275.618 169.711 276.467 169.754 277.333L170.097 283.871C170.144 284.736 170.022 285.603 169.738 286.422C169.467 287.205 169.049 287.93 168.507 288.557C167.973 289.177 167.322 289.686 166.592 290.057C165.842 290.436 165.021 290.656 164.181 290.702L95.6234 294.489C94.7507 294.538 93.8772 294.408 93.0564 294.108C92.2613 293.816 91.5307 293.371 90.9054 292.8C89.6081 291.615 88.8314 289.966 88.7444 288.211L88.3924 281.518C88.2953 279.763 88.8956 278.041 90.0624 276.727C90.6239 276.094 91.3032 275.576 92.0624 275.202C92.8485 274.817 93.705 274.597 94.5794 274.555V274.555Z" fill="#23CBD8"/>
<path d="M107.987 279.303L109.863 279.203L110.338 288.26L108.462 288.36L107.987 279.303ZM112.219 279.087L113.813 279.006L117.687 284.09L117.41 278.821L119.276 278.721L119.749 287.754L118.185 287.838L114.287 282.763L114.563 288.037L112.691 288.137L112.219 279.087ZM121.047 278.636L123.047 278.536L125.431 284.329L127.194 278.329L129.16 278.229L126.336 287.413L124.836 287.493L121.047 278.636ZM130.932 278.13L132.787 278.036L133.259 287.036L131.407 287.136L130.932 278.13ZM141.666 277.582L141.766 279.403L139.212 279.535L139.587 286.694L137.742 286.794L137.367 279.631L134.818 279.763L134.718 277.938L141.666 277.582ZM143.578 277.482L148.9 277.212L149 279.029L145.512 279.212L145.597 280.825L148.697 280.663L148.797 282.481L145.697 282.644L145.797 284.538L149.28 284.353L149.38 286.17L144.059 286.456L143.578 277.482Z" fill="white"/>
<path d="M129.474 124.421L178.954 82.648C180.026 81.7429 181.413 81.3008 182.812 81.4189C184.21 81.5369 185.504 82.2056 186.409 83.2777L206.997 107.665C207.902 108.736 208.344 110.124 208.226 111.522C208.108 112.92 207.439 114.213 206.368 115.118L156.888 156.891C155.816 157.796 154.428 158.238 153.03 158.12C151.633 158.002 150.339 157.334 149.433 156.262L128.844 131.874C127.939 130.803 127.497 129.415 127.615 128.017C127.734 126.619 128.402 125.326 129.474 124.421V124.421Z" fill="url(#paint18_linear)"/>
<path d="M199.845 116.181L159.014 150.635C157.642 149.008 155.679 147.994 153.559 147.814C151.438 147.634 149.333 148.304 147.706 149.677L135.055 134.685C135.861 134.005 136.525 133.174 137.009 132.238C137.493 131.302 137.788 130.279 137.877 129.229C137.966 128.179 137.847 127.122 137.527 126.118C137.207 125.114 136.693 124.182 136.013 123.377L176.845 88.9229C177.525 89.7283 178.356 90.392 179.293 90.8761C180.229 91.3602 181.251 91.6551 182.301 91.7441C183.351 91.833 184.408 91.7143 185.413 91.3946C186.417 91.0749 187.348 90.5605 188.153 89.8808L200.804 104.873C199.999 105.552 199.335 106.384 198.851 107.32C198.367 108.256 198.072 109.278 197.983 110.328C197.894 111.378 198.012 112.436 198.332 113.44C198.652 114.444 199.166 115.375 199.845 116.181V116.181Z" fill="white"/>
<path d="M182.441 121.008C183.119 112.993 177.172 105.946 169.158 105.267C161.143 104.588 154.095 110.535 153.416 118.55C152.738 126.565 158.685 133.612 166.699 134.291C174.714 134.97 181.762 129.023 182.441 121.008Z" fill="url(#paint19_linear)"/>
<path d="M188.231 112.588L195.645 106.332C195.955 106.07 196.357 105.942 196.762 105.977C197.167 106.011 197.542 106.205 197.804 106.515V106.515C198.066 106.826 198.194 107.228 198.159 107.633C198.125 108.038 197.931 108.413 197.621 108.675L190.207 114.931C189.896 115.193 189.494 115.32 189.09 115.286C188.685 115.251 188.31 115.057 188.048 114.747V114.747C187.786 114.436 187.658 114.034 187.693 113.629C187.727 113.225 187.921 112.85 188.231 112.588V112.588Z" fill="white"/>
<path d="M150.014 144.837L157.424 138.581C157.735 138.318 158.137 138.19 158.542 138.224C158.947 138.259 159.322 138.452 159.584 138.763C159.846 139.073 159.975 139.475 159.94 139.88C159.906 140.285 159.713 140.659 159.402 140.922L151.991 147.178C151.838 147.308 151.66 147.407 151.468 147.468C151.276 147.529 151.074 147.552 150.874 147.535C150.673 147.519 150.478 147.462 150.299 147.37C150.12 147.278 149.961 147.151 149.831 146.997V146.997C149.569 146.686 149.441 146.284 149.475 145.879C149.509 145.474 149.703 145.099 150.014 144.837V144.837Z" fill="white"/>
<path d="M171.013 116.779C171.824 116.693 172.643 116.801 173.404 117.094C174.33 117.474 175.141 118.088 175.756 118.877C176.348 119.569 176.749 120.405 176.919 121.3C177.09 122.241 177.008 123.211 176.681 124.11C176.303 125.152 175.691 126.095 174.892 126.864L175.931 128.096L174.231 129.526L173.157 128.254C171.574 129.333 169.736 129.979 167.825 130.127L167.192 126.756C168.509 126.642 169.79 126.266 170.959 125.651L167.603 121.674C166.416 122.078 165.159 122.233 163.909 122.129C162.7 121.956 161.608 121.311 160.874 120.335C160.403 119.814 160.039 119.206 159.804 118.544C159.568 117.882 159.467 117.18 159.504 116.479C159.629 115.007 160.266 113.625 161.304 112.574L160.18 111.242L161.88 109.811L163.021 111.163C163.761 110.623 164.578 110.196 165.444 109.897C166.262 109.636 167.103 109.453 167.955 109.351L168.735 112.528C167.505 112.751 166.318 113.17 165.219 113.767L168.336 117.462L168.471 117.417C169.291 117.106 170.144 116.892 171.013 116.779V116.779ZM163.72 117.558C164.016 117.839 164.38 118.037 164.777 118.133C165.173 118.229 165.588 118.22 165.979 118.106L163.594 115.28C163.341 115.612 163.214 116.024 163.237 116.442C163.26 116.86 163.431 117.255 163.72 117.558V117.558ZM173.201 122.813C173.214 122.564 173.177 122.316 173.092 122.081C173.007 121.847 172.876 121.633 172.707 121.45C172.185 120.831 171.255 120.671 169.917 120.97L172.643 124.201C172.962 123.803 173.156 123.32 173.201 122.813V122.813Z" fill="white"/>
<path opacity="0.09" d="M183.957 82.4338L207.438 110.261C207.73 110.607 207.873 111.055 207.836 111.506C207.798 111.957 207.583 112.375 207.238 112.668L154.31 157.33C153.964 157.622 153.517 157.764 153.066 157.727C152.615 157.689 152.197 157.475 151.904 157.13L147.183 151.535C181.131 126.611 178.149 99.4348 174.808 87.9268L181.555 82.2338C181.901 81.9435 182.348 81.8016 182.798 81.8391C183.247 81.8766 183.664 82.0903 183.957 82.4338Z" fill="url(#paint20_linear)"/>
<path d="M269.647 74.2929L228.131 64.3236C225.584 63.7118 223.022 65.2811 222.411 67.8287L217.753 87.2263C217.141 89.7739 218.71 92.3351 221.258 92.9469L262.774 102.916C265.321 103.528 267.882 101.959 268.494 99.411L273.152 80.0135C273.764 77.4659 272.195 74.9047 269.647 74.2929Z" fill="url(#paint21_linear)"/>
<path d="M258.965 99.5668L226.171 91.6918C226.616 89.8362 226.305 87.88 225.308 86.2531C224.312 84.6261 222.71 83.4614 220.854 83.0148L223.262 72.9888C225.118 73.4333 227.074 73.1229 228.701 72.1259C230.328 71.129 231.493 69.527 231.939 67.6718L264.734 75.5479C264.29 77.4034 264.6 79.3594 265.597 80.9863C266.594 82.6133 268.195 83.7781 270.05 84.2248L267.643 94.2498C265.788 93.8051 263.831 94.1153 262.204 95.1123C260.577 96.1093 259.412 97.7115 258.965 99.5668V99.5668Z" fill="white"/>
<path d="M255.401 85.2135C256.281 79.715 252.537 74.5441 247.039 73.6639C241.54 72.7836 236.369 76.5275 235.489 82.026C234.609 87.5244 238.353 92.6954 243.851 93.5756C249.35 94.4558 254.521 90.7119 255.401 85.2135Z" fill="url(#paint22_linear)"/>
<path d="M257.798 91.9964L264.325 93.5677C264.598 93.6336 264.835 93.8056 264.982 94.0457C265.129 94.2859 265.174 94.5747 265.108 94.8485V94.8485C265.076 94.984 265.017 95.1117 264.935 95.2244C264.853 95.3371 264.749 95.4325 264.63 95.5052C264.511 95.5779 264.379 95.6265 264.242 95.6481C264.104 95.6697 263.963 95.664 263.828 95.6312L257.3 94.0597C257.026 93.9938 256.79 93.822 256.643 93.5821C256.497 93.3421 256.451 93.0536 256.517 92.7801C256.583 92.5064 256.755 92.27 256.995 92.123C257.235 91.976 257.524 91.9305 257.798 91.9964V91.9964Z" fill="white"/>
<path d="M224.12 83.9086L230.651 85.477C230.787 85.5095 230.915 85.5684 231.027 85.6503C231.14 85.7322 231.236 85.8355 231.308 85.9543C231.381 86.0731 231.43 86.2051 231.452 86.3427C231.473 86.4804 231.468 86.6209 231.435 86.7564V86.7564C231.403 86.892 231.344 87.0199 231.262 87.1327C231.18 87.2455 231.076 87.3411 230.958 87.414C230.839 87.4868 230.706 87.5356 230.569 87.5574C230.431 87.5792 230.29 87.5736 230.155 87.5411L223.625 85.9731C223.351 85.9074 223.115 85.7355 222.968 85.4953C222.821 85.2552 222.775 84.9664 222.841 84.6925V84.6925C222.906 84.4189 223.078 84.1826 223.318 84.0356C223.558 83.8886 223.846 83.8429 224.12 83.9086V83.9086Z" fill="white"/>
<path d="M248.392 84.1099C248.773 84.527 249.049 85.0284 249.198 85.5729C249.366 86.2452 249.356 86.9497 249.168 87.6169C249.025 88.2314 248.724 88.7978 248.294 89.2599C247.839 89.7415 247.264 90.0938 246.628 90.2809C245.891 90.498 245.114 90.5432 244.357 90.4129L244.097 91.4979L242.602 91.1389L242.871 90.0179C241.62 89.5769 240.505 88.816 239.638 87.8109L241.26 86.0739C241.864 86.7619 242.6 87.3222 243.423 87.7219L244.264 84.2219C243.552 83.726 242.949 83.0883 242.494 82.3489C242.095 81.6031 242.006 80.7294 242.249 79.9189C242.346 79.4421 242.536 78.9893 242.809 78.5865C243.082 78.1837 243.432 77.8388 243.838 77.5719C244.711 77.0363 245.744 76.8239 246.757 76.9719L247.039 75.7999L248.534 76.1589L248.248 77.3509C248.853 77.5416 249.426 77.8217 249.948 78.1819C250.429 78.5312 250.876 78.9253 251.283 79.3589L249.831 81.0989C249.202 80.5038 248.481 80.0133 247.696 79.6459L246.914 82.9009L246.995 82.9579C247.504 83.2865 247.973 83.673 248.392 84.1099V84.1099ZM244.965 80.3609C244.93 80.6412 244.969 80.9259 245.078 81.1865C245.187 81.4471 245.363 81.6744 245.587 81.8459L246.187 79.3559C245.897 79.35 245.615 79.4481 245.391 79.6324C245.166 79.8167 245.016 80.0751 244.965 80.3609ZM245.924 87.8069C246.068 87.712 246.192 87.5892 246.288 87.4458C246.384 87.3024 246.45 87.1412 246.482 86.9719C246.616 86.4265 246.323 85.8422 245.605 85.2189L244.922 88.0649C245.274 88.0794 245.623 87.9897 245.924 87.8069V87.8069Z" fill="white"/>
<path opacity="0.09" d="M272.866 77.2359L266.978 101.758C266.905 102.063 266.713 102.326 266.446 102.489C266.179 102.653 265.857 102.704 265.552 102.632L218.912 91.4319C218.608 91.3583 218.344 91.1669 218.181 90.8996C218.017 90.6322 217.966 90.3108 218.038 90.0059L219.221 85.0759C247.059 93.7869 260.997 80.9708 266.047 74.3839L271.992 75.8119C272.297 75.8854 272.56 76.0765 272.723 76.3434C272.887 76.6103 272.939 76.9312 272.866 77.2359V77.2359Z" fill="url(#paint23_linear)"/>
<path d="M329.956 94.9021L304.162 75.1354C302.065 73.5279 299.061 73.9253 297.454 76.0229L288.841 87.2622C287.233 89.3598 287.631 92.3633 289.728 93.9707L315.522 113.737C317.62 115.345 320.623 114.948 322.231 112.85L330.844 101.611C332.451 99.5131 332.054 96.5096 329.956 94.9021Z" fill="url(#paint24_linear)"/>
<path d="M313.42 109.722L294.152 94.9568C295.323 93.429 295.839 91.4988 295.586 89.5906C295.334 87.6825 294.334 85.9527 292.806 84.7819L296.09 80.4969C296.847 81.0766 297.71 81.5017 298.631 81.7479C299.552 81.994 300.512 82.0564 301.457 81.9314C302.402 81.8064 303.313 81.4965 304.138 81.0194C304.963 80.5423 305.686 79.9074 306.265 79.1508L325.533 93.9158C324.953 94.6721 324.527 95.5354 324.281 96.4562C324.034 97.3771 323.971 98.3375 324.096 99.2826C324.22 100.228 324.53 101.139 325.006 101.965C325.483 102.79 326.118 103.514 326.874 104.094L323.59 108.38C322.063 107.21 320.135 106.694 318.228 106.946C316.321 107.198 314.592 108.196 313.42 109.722Z" fill="white"/>
<path d="M316.918 98.4419C319.13 94.534 317.755 89.5726 313.847 87.3605C309.939 85.1483 304.978 86.523 302.766 90.4309C300.554 94.3389 301.928 99.3002 305.836 101.512C309.744 103.725 314.706 102.35 316.918 98.4419Z" fill="url(#paint25_linear)"/>
<path d="M316.194 104.648L320.494 107.94C320.674 108.078 320.792 108.282 320.822 108.507C320.852 108.732 320.791 108.96 320.653 109.14V109.14C320.515 109.32 320.311 109.438 320.086 109.468C319.861 109.498 319.633 109.437 319.453 109.299L315.154 106.008C315.065 105.939 314.99 105.854 314.934 105.757C314.877 105.659 314.841 105.552 314.826 105.44C314.811 105.329 314.819 105.215 314.848 105.107C314.877 104.998 314.927 104.896 314.996 104.807V104.807C315.133 104.627 315.337 104.509 315.562 104.479C315.787 104.449 316.014 104.51 316.194 104.648V104.648Z" fill="white"/>
<path d="M294.034 87.6653L298.333 90.957C298.513 91.0951 298.631 91.299 298.661 91.5241C298.691 91.7492 298.63 91.9769 298.492 92.1571V92.1571C298.354 92.3374 298.15 92.4554 297.925 92.4853C297.7 92.5152 297.472 92.4544 297.292 92.3164L292.993 89.0246C292.813 88.8866 292.695 88.6826 292.665 88.4576C292.635 88.2325 292.696 88.0048 292.834 87.8245V87.8245C292.972 87.6443 293.176 87.5262 293.401 87.4964C293.626 87.4665 293.854 87.5273 294.034 87.6653V87.6653Z" fill="white"/>
<path d="M311.848 95.7599C311.992 96.1916 312.031 96.6511 311.962 97.1009C311.867 97.6526 311.629 98.1697 311.271 98.6009C310.964 99.0066 310.557 99.3254 310.089 99.5259C309.596 99.7314 309.058 99.8024 308.528 99.7319C307.915 99.6505 307.328 99.4295 306.812 99.0859L306.265 99.7999L305.282 99.0459L305.847 98.3079C305.07 97.5733 304.498 96.648 304.188 95.6239L305.951 94.8749C306.171 95.5792 306.53 96.2326 307.005 96.7969L308.773 94.4909C308.41 93.8922 308.175 93.2249 308.082 92.5309C308.032 91.851 308.253 91.1788 308.697 90.6619C308.925 90.3425 309.213 90.0712 309.546 89.8637C309.879 89.6562 310.249 89.5166 310.636 89.4529C311.455 89.3448 312.285 89.527 312.982 89.9679L313.574 89.1959L314.557 89.9489L313.957 90.7329C314.341 91.072 314.671 91.4663 314.938 91.9029C315.179 92.3164 315.38 92.7516 315.538 93.2029L313.898 94.0089C313.628 93.3644 313.257 92.7672 312.798 92.2399L311.161 94.3819L311.201 94.4499C311.467 94.8599 311.684 95.2995 311.848 95.7599V95.7599ZM310.548 91.8759C310.43 92.071 310.365 92.2939 310.36 92.5221C310.355 92.7503 310.411 92.9758 310.52 93.1759L311.777 91.5369C311.566 91.4382 311.326 91.4182 311.101 91.4803C310.877 91.5424 310.681 91.6827 310.55 91.8759H310.548ZM308.817 97.6759C308.955 97.6531 309.086 97.6031 309.204 97.5287C309.321 97.4543 309.423 97.3571 309.502 97.2429C309.778 96.8842 309.754 96.3579 309.43 95.6639L307.994 97.5369C308.25 97.6637 308.537 97.7121 308.819 97.6759H308.817Z" fill="white"/>
<path opacity="0.09" d="M332.127 98.7078L319.761 114.844C319.607 115.044 319.38 115.176 319.13 115.209C318.879 115.242 318.625 115.174 318.424 115.021L287.734 91.5028C287.534 91.3488 287.403 91.1216 287.37 90.8709C287.336 90.6203 287.404 90.3667 287.557 90.1658L290.043 86.9218C307.698 102.453 322.162 97.5738 328.043 94.3748L331.955 97.3748C332.154 97.5295 332.283 97.7563 332.316 98.006C332.348 98.2556 332.28 98.5078 332.127 98.7078V98.7078Z" fill="url(#paint26_linear)"/>
<defs>
<linearGradient id="paint0_linear" x1="163.095" y1="186.205" x2="194.279" y2="342.132" gradientUnits="userSpaceOnUse">
<stop stop-color="white"/>
<stop offset="1" stop-color="#5274EB"/>
</linearGradient>
<linearGradient id="paint1_linear" x1="228.82" y1="50.8018" x2="228.82" y2="148.883" gradientUnits="userSpaceOnUse">
<stop stop-color="#464646"/>
<stop offset="1" stop-color="#0E0E0E"/>
</linearGradient>
<linearGradient id="paint2_linear" x1="284.817" y1="60.8609" x2="284.817" y2="75.2119" gradientUnits="userSpaceOnUse">
<stop stop-color="#464646"/>
<stop offset="1" stop-color="#0E0E0E"/>
</linearGradient>
<linearGradient id="paint3_linear" x1="270.113" y1="92.8719" x2="270.113" y2="185.074" gradientUnits="userSpaceOnUse">
<stop stop-color="#464646"/>
<stop offset="1" stop-color="#0E0E0E"/>
</linearGradient>
<linearGradient id="paint4_linear" x1="212.57" y1="155.886" x2="212.57" y2="170.72" gradientUnits="userSpaceOnUse">
<stop stop-color="#464646"/>
<stop offset="1" stop-color="#0E0E0E"/>
</linearGradient>
<linearGradient id="paint5_linear" x1="134.704" y1="8.39405" x2="57.0772" y2="12.4623" gradientUnits="userSpaceOnUse">
<stop/>
<stop offset="1"/>
</linearGradient>
<linearGradient id="paint6_linear" x1="88.7635" y1="132.869" x2="52.0413" y2="155.106" gradientUnits="userSpaceOnUse">
<stop stop-color="#FCB148"/>
<stop offset="0.052" stop-color="#FDB946"/>
<stop offset="0.142" stop-color="#FEC144"/>
<stop offset="0.318" stop-color="#FFC444"/>
<stop offset="0.485" stop-color="#FDB946"/>
<stop offset="0.775" stop-color="#F99C4C"/>
<stop offset="0.866" stop-color="#F8924F"/>
<stop offset="1" stop-color="#F8924F"/>
</linearGradient>
<linearGradient id="paint7_linear" x1="110.933" y1="85.4825" x2="93.8818" y2="172.056" gradientUnits="userSpaceOnUse">
<stop stop-color="#FFDB44"/>
<stop offset="1" stop-color="#FEEF06"/>
</linearGradient>
<linearGradient id="paint8_linear" x1="124.97" y1="169.444" x2="108.637" y2="133.959" gradientUnits="userSpaceOnUse">
<stop stop-color="#FCB148"/>
<stop offset="0.052" stop-color="#FDB946"/>
<stop offset="0.142" stop-color="#FEC144"/>
<stop offset="0.318" stop-color="#FFC444"/>
<stop offset="0.485" stop-color="#FDB946"/>
<stop offset="0.775" stop-color="#F99C4C"/>
<stop offset="0.866" stop-color="#F8924F"/>
<stop offset="1" stop-color="#F8924F"/>
</linearGradient>
<linearGradient id="paint9_linear" x1="95.4853" y1="112.693" x2="139.217" y2="164.798" gradientUnits="userSpaceOnUse">
<stop stop-color="#FCB148"/>
<stop offset="0.052" stop-color="#FDB946"/>
<stop offset="0.142" stop-color="#FEC144"/>
<stop offset="0.318" stop-color="#FFC444"/>
<stop offset="0.485" stop-color="#FDB946"/>
<stop offset="0.775" stop-color="#F99C4C"/>
<stop offset="0.866" stop-color="#F8924F"/>
<stop offset="1" stop-color="#F8924F"/>
</linearGradient>
<linearGradient id="paint10_linear" x1="91.1297" y1="100.139" x2="131.883" y2="133.071" gradientUnits="userSpaceOnUse">
<stop stop-color="#FFDB44"/>
<stop offset="1" stop-color="#FEEF06"/>
</linearGradient>
<linearGradient id="paint11_linear" x1="88.1698" y1="118.624" x2="143.341" y2="141.179" gradientUnits="userSpaceOnUse">
<stop stop-color="#FCB148"/>
<stop offset="0.052" stop-color="#FDB946"/>
<stop offset="0.142" stop-color="#FEC144"/>
<stop offset="0.318" stop-color="#FFC444"/>
<stop offset="0.485" stop-color="#FDB946"/>
<stop offset="0.775" stop-color="#F99C4C"/>
<stop offset="0.866" stop-color="#F8924F"/>
<stop offset="1" stop-color="#F8924F"/>
</linearGradient>
<linearGradient id="paint12_linear" x1="118.574" y1="147.122" x2="89.8755" y2="164.499" gradientUnits="userSpaceOnUse">
<stop stop-color="#FCB148"/>
<stop offset="0.052" stop-color="#FDB946"/>
<stop offset="0.142" stop-color="#FEC144"/>
<stop offset="0.318" stop-color="#FFC444"/>
<stop offset="0.485" stop-color="#FDB946"/>
<stop offset="0.775" stop-color="#F99C4C"/>
<stop offset="0.866" stop-color="#F8924F"/>
<stop offset="1" stop-color="#F8924F"/>
</linearGradient>
<linearGradient id="paint13_linear" x1="135.899" y1="110.089" x2="122.573" y2="177.747" gradientUnits="userSpaceOnUse">
<stop stop-color="#FFDB44"/>
<stop offset="1" stop-color="#FEEF06"/>
</linearGradient>
<linearGradient id="paint14_linear" x1="146.87" y1="175.702" x2="134.106" y2="147.971" gradientUnits="userSpaceOnUse">
<stop stop-color="#FCB148"/>
<stop offset="0.052" stop-color="#FDB946"/>
<stop offset="0.142" stop-color="#FEC144"/>
<stop offset="0.318" stop-color="#FFC444"/>
<stop offset="0.485" stop-color="#FDB946"/>
<stop offset="0.775" stop-color="#F99C4C"/>
<stop offset="0.866" stop-color="#F8924F"/>
<stop offset="1" stop-color="#F8924F"/>
</linearGradient>
<linearGradient id="paint15_linear" x1="123.828" y1="131.356" x2="158.004" y2="172.075" gradientUnits="userSpaceOnUse">
<stop stop-color="#FCB148"/>
<stop offset="0.052" stop-color="#FDB946"/>
<stop offset="0.142" stop-color="#FEC144"/>
<stop offset="0.318" stop-color="#FFC444"/>
<stop offset="0.485" stop-color="#FDB946"/>
<stop offset="0.775" stop-color="#F99C4C"/>
<stop offset="0.866" stop-color="#F8924F"/>
<stop offset="1" stop-color="#F8924F"/>
</linearGradient>
<linearGradient id="paint16_linear" x1="120.423" y1="121.543" x2="152.268" y2="147.274" gradientUnits="userSpaceOnUse">
<stop stop-color="#FFDB44"/>
<stop offset="1" stop-color="#FEEF06"/>
</linearGradient>
<linearGradient id="paint17_linear" x1="118.111" y1="135.988" x2="161.226" y2="153.614" gradientUnits="userSpaceOnUse">
<stop stop-color="#FCB148"/>
<stop offset="0.052" stop-color="#FDB946"/>
<stop offset="0.142" stop-color="#FEC144"/>
<stop offset="0.318" stop-color="#FFC444"/>
<stop offset="0.485" stop-color="#FDB946"/>
<stop offset="0.775" stop-color="#F99C4C"/>
<stop offset="0.866" stop-color="#F8924F"/>
<stop offset="1" stop-color="#F8924F"/>
</linearGradient>
<linearGradient id="paint18_linear" x1="-269.827" y1="365.593" x2="-168.193" y2="289.033" gradientUnits="userSpaceOnUse">
<stop stop-color="#E38DDD"/>
<stop offset="0.004" stop-color="#00C22D"/>
<stop offset="1" stop-color="#319748"/>
</linearGradient>
<linearGradient id="paint19_linear" x1="87.2614" y1="304.272" x2="92.9539" y2="255.352" gradientUnits="userSpaceOnUse">
<stop stop-color="#E38DDD"/>
<stop offset="0.004" stop-color="#00C22D"/>
<stop offset="1" stop-color="#319748"/>
</linearGradient>
<linearGradient id="paint20_linear" x1="-219.495" y1="-49.0937" x2="-116.946" y2="-46.5235" gradientUnits="userSpaceOnUse">
<stop stop-color="#E38DDD"/>
<stop offset="0.004" stop-color="#00C22D"/>
<stop offset="1" stop-color="#319748"/>
</linearGradient>
<linearGradient id="paint21_linear" x1="-71.3575" y1="-59.8163" x2="13.0731" y2="-34.5099" gradientUnits="userSpaceOnUse">
<stop stop-color="#E38DDD"/>
<stop offset="0.004" stop-color="#00C22D"/>
<stop offset="1" stop-color="#319748"/>
</linearGradient>
<linearGradient id="paint22_linear" x1="180.279" y1="206.85" x2="186.721" y2="173.368" gradientUnits="userSpaceOnUse">
<stop stop-color="#E38DDD"/>
<stop offset="0.004" stop-color="#00C22D"/>
<stop offset="1" stop-color="#319748"/>
</linearGradient>
<linearGradient id="paint23_linear" x1="-113.818" y1="25.6005" x2="-21.3016" y2="31.2322" gradientUnits="userSpaceOnUse">
<stop stop-color="#E38DDD"/>
<stop offset="0.004" stop-color="#00C22D"/>
<stop offset="1" stop-color="#319748"/>
</linearGradient>
<linearGradient id="paint24_linear" x1="123.42" y1="-114.944" x2="177.332" y2="-68.6612" gradientUnits="userSpaceOnUse">
<stop stop-color="#E38DDD"/>
<stop offset="0.004" stop-color="#00C22D"/>
<stop offset="1" stop-color="#319748"/>
</linearGradient>
<linearGradient id="paint25_linear" x1="225.922" y1="169.236" x2="240.21" y2="145.744" gradientUnits="userSpaceOnUse">
<stop stop-color="#E38DDD"/>
<stop offset="0.004" stop-color="#00C22D"/>
<stop offset="1" stop-color="#319748"/>
</linearGradient>
<linearGradient id="paint26_linear" x1="15.5649" y1="38.1128" x2="91.4373" y2="41.8938" gradientUnits="userSpaceOnUse">
<stop stop-color="#E38DDD"/>
<stop offset="0.004" stop-color="#00C22D"/>
<stop offset="1" stop-color="#319748"/>
</linearGradient>
</defs>
</svg>
