<svg width="185" height="184" viewBox="0 0 185 184" fill="none" xmlns="http://www.w3.org/2000/svg">
<path d="M183.192 127.348C181.541 136.608 177.362 144.124 170.577 149.108C169.42 149.963 168.341 150.739 167.308 151.471C157.908 158.019 152.108 159.628 122.081 164.016C88.762 168.899 79.393 186.901 47.748 181.275C16.103 175.649 5.63296 143.403 23.169 106.675C36.38 79.0424 28.213 56.9904 43.828 34.2514C57.533 14.2804 76.922 12.7274 89.65 11.3774C126.901 7.40543 152.3 35.1854 170.297 69.6924C181.574 91.3324 185.967 111.798 183.192 127.348Z" fill="#F6F6F9"/>
<path d="M26.4329 90.8925C22.8689 103.273 15.9269 110.026 9.08193 108.525C3.89393 107.387 -5.58707 101.715 4.35493 80.5175C14.2969 59.3205 12.8809 47.1885 17.5999 43.4785C21.4399 40.4615 28.0489 45.3275 29.4339 58.2535C30.6579 69.6735 28.1049 85.0865 26.4329 90.8925Z" fill="#F6F6F9"/>
<path d="M131.485 167.363C138.137 166.837 144.746 165.868 151.269 164.463C157.609 163.074 162.569 160.791 166.64 159.221C178.763 154.545 187.807 169.135 171.114 176.58C155.33 183.619 131.314 177.752 125.423 173.249C119.532 168.746 131.485 167.363 131.485 167.363Z" fill="#F6F6F9"/>
<path d="M169.238 49.5715C174.728 49.5715 179.179 45.1207 179.179 39.6305C179.179 34.1402 174.728 29.6895 169.238 29.6895C163.748 29.6895 159.297 34.1402 159.297 39.6305C159.297 45.1207 163.748 49.5715 169.238 49.5715Z" fill="#E9E9F7"/>
<path d="M136.675 56.5715C140.41 56.5715 143.437 53.544 143.437 49.8095C143.437 46.0749 140.41 43.0475 136.675 43.0475C132.94 43.0475 129.913 46.0749 129.913 49.8095C129.913 53.544 132.94 56.5715 136.675 56.5715Z" fill="#E9E9F7"/>
<path d="M127.218 7.67754C127.218 8.33488 127.023 8.9774 126.657 9.52388C126.292 10.0704 125.773 10.4962 125.166 10.7477C124.558 10.9992 123.89 11.0649 123.245 10.9366C122.601 10.8083 122.008 10.4918 121.544 10.027C121.079 9.56215 120.762 8.96997 120.634 8.32527C120.506 7.68057 120.571 7.01231 120.823 6.40497C121.074 5.79763 121.5 5.27848 122.047 4.91316C122.593 4.54784 123.236 4.35274 123.893 4.35254C124.33 4.35241 124.762 4.43833 125.166 4.60538C125.569 4.77243 125.936 5.01735 126.244 5.32613C126.553 5.63491 126.798 6.0015 126.965 6.40497C127.132 6.80844 127.218 7.24085 127.218 7.67754V7.67754Z" fill="#E9E9F7"/>
<path d="M9.12197 122.425C10.9578 122.425 12.446 120.937 12.446 119.101C12.446 117.266 10.9578 115.777 9.12197 115.777C7.28618 115.777 5.79797 117.266 5.79797 119.101C5.79797 120.937 7.28618 122.425 9.12197 122.425Z" fill="#E9E9F7"/>
<path d="M109.638 183.352C113.41 183.352 116.467 180.295 116.467 176.523C116.467 172.752 113.41 169.694 109.638 169.694C105.866 169.694 102.809 172.752 102.809 176.523C102.809 180.295 105.866 183.352 109.638 183.352Z" fill="#E9E9F7"/>
<path d="M138.413 156.35L54.6805 172.626C50.5479 173.424 46.495 170.456 45.6219 165.99L20.111 34.7479C19.2428 30.2815 21.8925 26.0105 26.0242 25.2022L109.757 8.92623C113.891 8.12784 117.942 11.0962 118.816 15.5617L144.327 146.805C145.19 151.271 142.545 155.541 138.413 156.35Z" fill="#222222"/>
<path d="M137.557 151.16L53.53 167.493C52.8886 167.591 52.2348 167.43 51.7115 167.047C51.1882 166.663 50.8379 166.088 50.7373 165.447L25.0571 33.3342C24.9103 32.7023 25.0197 32.038 25.3613 31.4865C25.7029 30.9351 26.249 30.5413 26.8801 30.3913L110.907 14.0581C111.549 13.9607 112.203 14.1212 112.726 14.5046C113.249 14.8879 113.599 15.4629 113.7 16.1038L139.38 148.217C139.527 148.849 139.418 149.513 139.076 150.065C138.734 150.616 138.188 151.01 137.557 151.16Z" fill="white"/>
<path d="M68.1883 20.2887C68.5401 20.2203 68.7655 19.8567 68.6916 19.4767C68.6177 19.0967 68.2726 18.844 67.9208 18.9124C67.5689 18.9808 67.3436 19.3443 67.4174 19.7244C67.4913 20.1044 67.8364 20.3571 68.1883 20.2887Z" fill="white"/>
<path d="M102.168 73.739L97.6362 65.2753L97.5585 65.1274L107.718 54.8532L108.516 55.6392L112.701 59.7533L112.255 63.8253L111.101 74.3467L111.051 74.8089L117.651 78.2865C117.964 78.6931 118.232 79.0678 118.459 79.416C120.979 83.2812 118.419 83.5811 118.419 83.5811L105.765 80.4593L102.168 73.739Z" fill="url(#paint0_linear)"/>
<path d="M108.639 74.2202L107.805 72.6616L103.712 65.0122L102.859 63.4177L102.143 62.0837L107.11 57.0586L112.304 51.8091L117.289 56.709L116.848 60.73L116.634 62.6838L116.304 65.7023L115.64 71.7613L122.239 75.2389C122.834 75.9788 123.344 76.7828 123.76 77.6358C123.932 77.9955 124.055 78.3771 124.125 78.77C124.174 78.9662 124.183 79.1701 124.152 79.3699C124.121 79.5696 124.05 79.7611 123.943 79.933C123.842 80.0966 123.706 80.2355 123.544 80.3394C123.382 80.4433 123.199 80.5096 123.009 80.5333L110.354 77.4117L108.639 74.2202Z" fill="url(#paint1_linear)"/>
<path opacity="0.15" d="M108.168 74.6928L106.002 67.1473L108.978 64.5315L109.283 64.9266L106.545 67.3372L108.553 74.3316L116.404 78.0784L116.224 78.5403L108.168 74.6928Z" fill="black"/>
<path opacity="0.15" d="M115.244 73.4671L115.44 73.0135L123.439 77.1969L123.243 77.6505L115.244 73.4671Z" fill="black"/>
<path d="M116.489 80.6169L76.4971 60.9158L46.3943 93.9873L84.1467 103.074L116.489 80.6169Z" fill="white"/>
<path d="M46.5237 93.9356L46.5493 93.9306L62.2319 97.7748L83.6889 103.035C83.7727 103.056 83.86 103.058 83.9447 103.041C84.0294 103.025 84.1095 102.99 84.1797 102.94L102.724 89.8816L116.183 80.4032L116.204 80.3881L116.229 80.3833C116.472 80.3462 116.721 80.4072 116.92 80.553C117.119 80.6987 117.252 80.9173 117.29 81.161L125.297 122.352C125.353 122.592 125.311 122.845 125.181 123.054C125.052 123.264 124.844 123.414 124.604 123.471L54.9084 137.018C54.6645 137.055 54.4159 136.994 54.2169 136.849C54.0179 136.703 53.8847 136.484 53.8464 136.241L45.8403 95.0525C45.7847 94.8139 45.8253 94.563 45.9532 94.354C46.081 94.145 46.286 93.9947 46.5237 93.9356Z" fill="white"/>
<path d="M46.5126 94.2189C46.5385 94.2137 46.562 94.2002 46.5795 94.1804L76.1759 61.3449C76.2635 61.2456 76.3815 61.178 76.5115 61.1528C76.6414 61.1275 76.7761 61.1459 76.8945 61.2052L116.387 80.6102C116.402 80.6178 116.419 80.622 116.436 80.6227C116.453 80.6233 116.47 80.6204 116.486 80.614C116.502 80.6077 116.516 80.5981 116.528 80.5858C116.54 80.5736 116.549 80.5589 116.555 80.5429C116.568 80.5096 116.569 80.4725 116.557 80.4387C116.544 80.405 116.52 80.3771 116.488 80.3604L76.9974 60.959C76.8317 60.8766 76.6434 60.851 76.4617 60.8864C76.28 60.9217 76.115 61.0159 75.9922 61.1544L46.3948 93.9902C46.3758 94.0121 46.3639 94.0392 46.3606 94.0681C46.3573 94.0969 46.3627 94.126 46.3763 94.1517C46.3879 94.1778 46.4078 94.1992 46.4329 94.2128C46.458 94.2264 46.4869 94.2312 46.5151 94.2266L46.5126 94.2189Z" fill="#3F3D56"/>
<path d="M114.606 81.9425L76.6463 62.0196L49.0295 96.6331L84.3433 110.652L100.576 103.138L114.606 81.9425Z" fill="#E6E6E6"/>
<path d="M102.368 120.044L118.595 116.89C118.798 116.833 118.972 116.703 119.083 116.524C119.194 116.344 119.234 116.13 119.194 115.923C119.153 115.716 119.037 115.532 118.866 115.407C118.696 115.283 118.486 115.227 118.276 115.251L102.05 118.405C101.847 118.461 101.672 118.592 101.561 118.771C101.45 118.95 101.411 119.165 101.451 119.372C101.491 119.579 101.608 119.763 101.778 119.887C101.948 120.012 102.159 120.068 102.368 120.044V120.044Z" fill="#23CBD8"/>
<path d="M112.089 114.498L117.911 113.366C118.114 113.31 118.289 113.179 118.4 113C118.511 112.821 118.55 112.607 118.51 112.4C118.47 112.193 118.353 112.009 118.183 111.884C118.013 111.76 117.802 111.704 117.593 111.728L111.769 112.86C111.565 112.916 111.391 113.047 111.28 113.226C111.169 113.405 111.129 113.62 111.17 113.826C111.21 114.033 111.327 114.218 111.497 114.342C111.667 114.467 111.878 114.522 112.087 114.498L112.089 114.498Z" fill="#23CBD8"/>
<path d="M84.1469 103.075C84.2707 103.05 84.388 103.001 84.4913 102.928L102.982 89.9057L97.455 61.4709C97.4168 61.2273 97.2836 61.0087 97.0846 60.8629C96.8856 60.7172 96.637 60.6562 96.3932 60.6933L57.5325 68.247C57.2925 68.304 57.0849 68.4537 56.955 68.6634C56.825 68.873 56.7834 69.1256 56.8392 69.3659L62.3708 97.8232L62.4125 97.8335L83.7615 103.068C83.888 103.098 84.0196 103.101 84.1473 103.077L84.1469 103.075Z" fill="white"/>
<path d="M83.7483 103.131L62.3158 97.8757L56.7756 69.3741C56.7159 69.1167 56.7606 68.8461 56.8998 68.6215C57.039 68.3969 57.2615 68.2365 57.5186 68.1754L96.3802 60.6214C96.6415 60.5818 96.9078 60.6472 97.121 60.8033C97.3342 60.9594 97.477 61.1936 97.5181 61.4546L103.054 89.9365L84.5277 102.984C84.416 103.063 84.2888 103.117 84.1547 103.143C84.0205 103.17 83.8823 103.167 83.7492 103.136L83.7483 103.131ZM97.2678 61.5033C97.2378 61.3122 97.1335 61.1407 96.9777 61.0262C96.8219 60.9117 96.6271 60.8633 96.4358 60.8918L57.5712 68.4463C57.3832 68.4916 57.2207 68.6094 57.1191 68.7739C57.0175 68.9385 56.9851 69.1365 57.0289 69.3249L62.5343 97.6478L83.7999 102.862C83.9006 102.886 84.0052 102.888 84.1067 102.868C84.2083 102.848 84.3045 102.807 84.3889 102.747L102.774 89.8015L97.2678 61.5033Z" fill="#3F3D56"/>
<path d="M46.019 95.0177L54.0256 136.208C54.0638 136.451 54.197 136.67 54.396 136.816C54.595 136.961 54.8436 137.023 55.0875 136.985L124.783 123.438C125.023 123.381 125.231 123.231 125.361 123.022C125.49 122.812 125.532 122.559 125.476 122.319L117.47 81.1291C117.431 80.8855 117.298 80.6668 117.099 80.5211C116.9 80.3754 116.652 80.3144 116.408 80.3514L116.382 80.3564L116.362 80.3716L102.902 89.85L84.358 102.908C84.2879 102.959 84.2077 102.993 84.123 103.01C84.0383 103.026 83.9511 103.024 83.8672 103.004L62.4102 97.7432L46.7286 93.8988L46.703 93.9037C46.4658 93.9628 46.2612 94.1126 46.1333 94.3209C46.0054 94.5292 45.9644 94.7794 46.019 95.0177V95.0177ZM46.2693 94.9691C46.2312 94.8017 46.2587 94.626 46.3461 94.4783C46.4336 94.3305 46.5743 94.2219 46.7394 94.1748L62.4767 98.0328L83.8258 103.267C83.9424 103.295 84.0635 103.297 84.1811 103.274C84.2987 103.251 84.4101 103.204 84.508 103.135L102.967 90.1368L116.492 80.6122C116.663 80.5935 116.835 80.6412 116.971 80.7455C117.108 80.8497 117.199 81.0026 117.226 81.1723L125.233 122.363C125.273 122.535 125.244 122.715 125.151 122.865C125.058 123.015 124.91 123.122 124.739 123.162L55.0431 136.71C54.8688 136.737 54.6911 136.693 54.5488 136.589C54.4066 136.485 54.3114 136.329 54.2842 136.154L46.2693 94.9691Z" fill="#3F3D56"/>
<path d="M63 78.2109L76.79 75.5304C77.0584 75.4557 77.2888 75.2826 77.4353 75.0455C77.5818 74.8085 77.6336 74.525 77.5804 74.2515C77.5273 73.978 77.373 73.7346 77.1484 73.5697C76.9238 73.4049 76.6453 73.3307 76.3685 73.3619L62.5785 76.0424C62.3101 76.1172 62.0797 76.2903 61.9332 76.5273C61.7867 76.7643 61.7349 77.0478 61.788 77.3213C61.8412 77.5948 61.9955 77.8382 62.2201 78.0031C62.4447 78.1679 62.7232 78.2421 63 78.2109V78.2109Z" fill="#23CBD8"/>
<path d="M62.1125 73.6026L68.7561 72.3112C69.0246 72.2365 69.255 72.0634 69.4015 71.8264C69.548 71.5894 69.5998 71.3059 69.5466 71.0324C69.4935 70.7589 69.3392 70.5154 69.1146 70.3505C68.89 70.1857 68.6115 70.1115 68.3346 70.1428L61.691 71.4342C61.4226 71.5089 61.1921 71.682 61.0456 71.919C60.8991 72.156 60.8473 72.4395 60.9005 72.713C60.9536 72.9865 61.1079 73.2299 61.3325 73.3948C61.5571 73.5597 61.8356 73.6339 62.1125 73.6026V73.6026Z" fill="#23CBD8"/>
<path d="M70.8217 87.9371L91.8825 83.8433C92.1494 83.7674 92.3783 83.594 92.5236 83.3575C92.6689 83.121 92.7201 82.8386 92.6671 82.5661C92.6142 82.2936 92.4609 82.051 92.2375 81.8861C92.0142 81.7212 91.7371 81.6462 91.4611 81.6759L70.4003 85.7697C70.1334 85.8456 69.9046 86.0189 69.7593 86.2554C69.614 86.4919 69.5627 86.7744 69.6157 87.0469C69.6686 87.3193 69.822 87.562 70.0453 87.7269C70.2686 87.8917 70.5457 87.9667 70.8217 87.9371V87.9371Z" fill="#CCCCCC"/>
<path d="M71.7967 92.9532L92.8574 88.8594C93.1259 88.7847 93.3563 88.6115 93.5028 88.3745C93.6493 88.1375 93.7011 87.854 93.648 87.5805C93.5948 87.307 93.4406 87.0636 93.2159 86.8987C92.9913 86.7339 92.7128 86.6597 92.4359 86.6909L71.3752 90.7847C71.1067 90.8595 70.8763 91.0326 70.7298 91.2696C70.5833 91.5066 70.5315 91.7901 70.5846 92.0636C70.6378 92.3371 70.7921 92.5805 71.0167 92.7454C71.2413 92.9103 71.5198 92.9845 71.7967 92.9532V92.9532Z" fill="#CCCCCC"/>
<path opacity="0.1" d="M116.637 62.6832L120.769 61.6091L141.809 80.6237L135.715 80.7957L132.107 80.9042C131.329 80.4214 130.608 79.8541 129.955 79.2126L125.827 78.7214L123.761 77.6407C123.96 78.0829 116.637 62.6832 116.637 62.6832Z" fill="#FFC9B6"/>
<path d="M89.7607 67.1728C89.7241 66.768 89.7688 66.36 89.8923 65.9728C90.0157 65.5855 90.2153 65.2269 90.4794 64.9179C90.7435 64.609 91.0668 64.356 91.4301 64.1738C91.7934 63.9916 92.1895 63.8839 92.595 63.8571L97.1849 63.6607L102.863 63.4179L107.251 63.2302L112.283 61.9199L116.85 60.7265L119.549 60.0247L142.42 80.6924L125.827 78.7203L123.76 77.6397L114.716 72.9116C114.716 72.9116 112.052 72.8997 107.808 72.661C107.177 72.6239 100.01 72.1007 96.6169 71.7181C95.9593 71.6422 95.3613 71.5476 94.8204 71.4327C90.9574 70.6096 89.8658 68.8038 89.7607 67.1728Z" fill="url(#paint2_linear)"/>
<path opacity="0.15" d="M92.8986 69.7006C93.3495 69.542 93.7612 69.2889 94.1063 68.9583C94.4514 68.6277 94.7218 68.2272 94.8996 67.7836C95.0194 67.1977 95.0103 66.5927 94.8727 66.0108C94.7351 65.4288 94.4725 64.8838 94.103 64.4137L94.4889 64.1349C94.9033 64.6703 95.1948 65.2904 95.3426 65.9511C95.4904 66.6118 95.4909 67.297 95.344 67.958C95.1481 68.4752 94.8407 68.9429 94.4438 69.328C94.0468 69.7131 93.5699 70.0061 93.047 70.1862L92.8986 69.7006Z" fill="black"/>
<path opacity="0.15" d="M108.338 63.2083L108.242 62.7106L116.433 61.1042L106.66 56.9455L106.822 56.4759L118.132 61.2883L108.338 63.2083Z" fill="black"/>
<path d="M87.1725 62.993L96.4958 48.3133L117.183 42.7019L148.502 64.5554L169.694 72.1035L167.647 90.1628L142.42 82.8522C138.86 83.4075 135.217 82.7202 132.104 80.9058C131.327 80.423 130.605 79.8557 129.953 79.2142C129.23 78.5238 128.62 77.7246 128.145 76.8456L116.302 65.7087L113.86 63.4103L112.28 61.9226L107.111 57.0615L106.738 56.7124L99.7859 57.8599L97.1804 63.6637L95.3491 67.738C95.5376 68.9962 95.3522 70.282 94.8159 71.4357C93.1284 74.8555 88.4204 75.1675 88.4204 75.1675L87.1725 62.993Z" fill="url(#paint3_linear)"/>
<defs>
<linearGradient id="paint0_linear" x1="112.562" y1="50.6458" x2="94.7629" y2="68.0589" gradientUnits="userSpaceOnUse">
<stop offset="0.005" stop-color="#FFD0BE"/>
<stop offset="0.847" stop-color="#FF9E8A"/>
<stop offset="1" stop-color="#FF9581"/>
</linearGradient>
<linearGradient id="paint1_linear" x1="117.15" y1="47.6015" x2="99.3508" y2="65.0191" gradientUnits="userSpaceOnUse">
<stop offset="0.005" stop-color="#FFD0BE"/>
<stop offset="0.847" stop-color="#FF9E8A"/>
<stop offset="1" stop-color="#FF9581"/>
</linearGradient>
<linearGradient id="paint2_linear" x1="105.81" y1="39.4174" x2="108.24" y2="84.5639" gradientUnits="userSpaceOnUse">
<stop stop-color="#FFC1AE"/>
<stop offset="0.191" stop-color="#FFC1AF"/>
<stop offset="0.847" stop-color="#FF9E8A"/>
<stop offset="1" stop-color="#FF9581"/>
</linearGradient>
<linearGradient id="paint3_linear" x1="134.331" y1="44.752" x2="112.819" y2="102.104" gradientUnits="userSpaceOnUse">
<stop offset="0.005" stop-color="#FFD0BE"/>
<stop offset="0.847" stop-color="#FF9E8A"/>
<stop offset="1" stop-color="#FF9581"/>
</linearGradient>
</defs>
</svg>
